<?xml version="1.0" encoding="UTF-8" standalone="no"?>
<!-- Created with Inkscape (http://www.inkscape.org/) -->

<svg
   width="210mm"
   height="297mm"
   viewBox="0 0 210 297"
   version="1.1"
   id="svg15536"
   inkscape:version="1.2.2 (732a01da63, 2022-12-09)"
   sodipodi:docname="cochon_forme.svg"
   xmlns:inkscape="http://www.inkscape.org/namespaces/inkscape"
   xmlns:sodipodi="http://sodipodi.sourceforge.net/DTD/sodipodi-0.dtd"
   xmlns="http://www.w3.org/2000/svg"
   xmlns:svg="http://www.w3.org/2000/svg">
  <sodipodi:namedview
     id="namedview15538"
     pagecolor="#ffffff"
     bordercolor="#000000"
     borderopacity="0.25"
     inkscape:showpageshadow="2"
     inkscape:pageopacity="0.0"
     inkscape:pagecheckerboard="0"
     inkscape:deskcolor="#d1d1d1"
     inkscape:document-units="mm"
     showgrid="false"
     inkscape:zoom="0.93806818"
     inkscape:cx="335.79649"
     inkscape:cy="561.79285"
     inkscape:window-width="2560"
     inkscape:window-height="1369"
     inkscape:window-x="-8"
     inkscape:window-y="-8"
     inkscape:window-maximized="1"
     inkscape:current-layer="layer1" />
  <defs
     id="defs15533" />
  <g
     inkscape:label="Calque 1"
     inkscape:groupmode="layer"
     id="layer1">
    <g
       id="g9267"
       transform="matrix(0.90098879,0,0,0.90098879,-20.561043,-40.68475)">
      <path
         style="fill:#7510a6;fill-opacity:0.901685;stroke:none;stroke-width:0.552068;stroke-opacity:1"
         d="m 93.854705,280.01223 c -1.258402,-0.29607 -1.63077,-1.92751 -1.838604,-2.68935 -0.362463,-1.32866 -2.325726,-8.14881 -2.165433,-8.29625 0.06285,-0.0577 0.439026,-0.009 0.836002,0.10748 0.396966,0.11707 6.366864,0.21699 6.984778,0.0824 1.927803,-0.42001 1.258978,1.00323 1.347286,1.34514 0.14919,0.57777 1.350486,8.77876 1.350486,9.23585 -2.15291,0.40888 -4.169684,0.76637 -6.514515,0.21469 z"
         id="path7804-2-4-9"
         sodipodi:nodetypes="csscsscc" />
      <path
         style="fill:#32863c;fill-opacity:0.960784;stroke-width:0.0941882;paint-order:stroke fill markers"
         d="m 187.63462,248.18164 c 0,0 -0.21154,1.85347 0.91666,5.94657 1.12821,4.0931 2.67949,8.88126 2.96154,9.88522 0.28205,1.00398 0.35257,1.31289 0.35257,1.31289 0,0 8.74359,0.15446 9.44871,0.15446 0.70513,0 0.77565,-0.15446 0.77565,-0.15446 0,0 -3.31411,-9.49908 -3.31411,-11.27534 0,-1.77625 -0.21154,-9.65353 -0.21154,-9.65353 z"
         id="path7358" />
      <path
         style="fill:#32863c;fill-opacity:0.960784;stroke-width:0.0945374;paint-order:stroke fill markers"
         d="m 83.183904,247.13326 6.68126,22.33586 c 0,0 3.39048,0.11001 5.38489,0.22006 1.9944,0.11 3.78936,-0.22006 3.78936,-0.22006 0,0 -2.89188,-13.64359 -4.58713,-16.50433 -1.69524,-2.86076 -7.87789,-5.83153 -11.26838,-5.83153 z"
         id="path5308" />
      <path
         style="fill:#912753;fill-opacity:0.647059;stroke:none;stroke-width:0.866608;stroke-opacity:1"
         d="m 54.066536,160.4411 c 0,-0.65012 0.0526,-6.8867 3.55771,-7.70568 4.09229,-0.95616 6.44445,0.95744 7.73984,1.55313 0.88696,0.40794 0.91352,0.4657 0.32221,0.70067 -0.74994,0.29807 -10.62334,5.30504 -11.21699,5.56604 -0.22151,0.0973 -0.40277,0.046 -0.40277,-0.11408 z"
         id="path4941-6-0-2"
         sodipodi:nodetypes="csssccc" />
      <path
         style="fill:#912653;fill-opacity:0.843137;stroke:none;stroke-width:0.132354;stroke-opacity:1"
         d="m 240.28365,185.25007 c -0.008,-0.14279 -0.21344,-0.72684 -0.39958,-1.13656 -0.91519,-2.01443 -2.24817,-8.94858 -3.62289,-9.97214 -1.36694,-1.01778 -4.52876,-0.62544 -6.12582,0.17887 -0.19565,0.0985 -0.36286,0.17226 -0.37132,0.16363 -0.0262,-0.0267 -0.18091,-0.65136 -0.16464,-0.66457 0.0756,-0.0617 2.90496,-0.94311 3.27698,-1.03925 1.46292,-0.3781 2.55274,-0.37538 3.36994,0.008 1.83998,0.86402 3.53242,8.40624 3.99946,10.68963 0.10184,0.49882 0.14735,1.31545 0.0899,1.62587 -0.0254,0.13777 -0.0488,0.20352 -0.0521,0.1464 z"
         id="path4943-4-2-8"
         sodipodi:nodetypes="cssscssccscc" />
      <path
         style="fill:#912653;fill-opacity:0.843137;stroke:none;stroke-width:0.132354;stroke-opacity:1"
         d="m 239.50388,185.24814 c -1.69372,-0.2467 -2.83453,-1.67787 -3.87106,-4.85637 -0.67809,-2.07927 0.18929,-4.30095 0.94379,-5.19326 0.42812,-0.50627 0.43611,-0.50777 0.59518,-0.10765 0.0719,0.18116 0.1649,0.49531 0.20631,0.6982 0.0618,0.30104 0.0595,0.35793 -0.0125,0.3093 -0.0817,-0.0562 -0.10906,-0.032 -0.456,0.4003 -0.67338,0.83935 -1.00724,2.58558 -0.71098,3.72075 0.2559,0.98052 0.73458,2.07536 1.19305,2.72892 0.59441,0.84731 1.65831,1.71129 2.6262,2.13263 0.25477,0.1111 0.34112,0.16922 0.28358,0.19132 -0.10592,0.041 -0.41925,0.0312 -0.79844,-0.0229 z"
         id="path4945-6-1-1"
         sodipodi:nodetypes="cssssccsssccc" />
      <path
         style="fill:#912653;fill-opacity:0.843137;stroke:none;stroke-width:0.132354;stroke-opacity:1"
         d="m 244.35661,184.32205 c -0.37923,-0.88097 -2.27495,-4.60989 -2.57828,-5.07145 -0.67596,-1.02873 -1.43234,-1.61548 -2.31851,-1.79854 -0.18852,-0.0389 -0.34875,-0.0778 -0.35619,-0.0866 -0.008,-0.008 -0.1743,-0.30126 -0.37103,-0.65004 -0.19667,-0.34877 -0.55788,-0.93409 -0.80274,-1.30068 -0.24492,-0.3666 -0.43818,-0.67361 -0.4296,-0.6822 0.0344,-0.0344 0.67418,0.10294 1.05158,0.22512 1.59727,0.51804 3.04259,1.76838 4.00123,3.46149 0.51764,0.91421 1.13994,2.57205 1.52332,4.0581 0.20504,0.79509 0.42371,1.91582 0.39212,2.01055 -0.009,0.029 -0.0599,-0.0452 -0.11204,-0.16565 z"
         id="path4947-4-0-0" />
      <path
         style="fill:#00577a;fill-opacity:0.909804;stroke-width:0.0899999;paint-order:stroke fill markers"
         d="m 115.0771,154.96517 c 0,0 -19.944042,-1.39608 -32.508784,-2.19384 -12.564743,-0.79776 -23.135081,3.19105 -26.126681,5.38489 -2.991616,2.19384 -8.177063,8.57594 -7.778179,11.96642 0.398884,3.39049 -0.797768,2.9916 -0.797768,5.38489 0,2.39329 0,3.58993 0.398884,4.58714 0.398884,0.99719 -0.398884,6.78097 -0.398884,6.78097 0,0 -13.163054,5.9832 -14.958017,8.17704 -1.794963,2.19385 -2.53647,5.9763 -2.193851,8.27678 0.349015,2.34343 -0.598323,8.8751 7.379299,11.26838 7.977605,2.39329 9.573126,1.9944 11.168663,4.38769 1.595521,2.39329 2.792158,8.77538 6.182643,10.76978 3.390484,1.99441 10.171469,4.3877 13.761395,4.58714 3.589927,0.19943 5.38489,0.39887 6.382085,2.79216 0.997195,2.39329 3.191042,8.17705 5.384889,9.3737 2.193848,1.19663 9.972027,2.59271 12.564743,6.78097 2.592732,4.18825 3.988811,10.76978 4.387695,12.3653 0.398869,1.59553 0.199442,2.79217 1.196637,3.98879 0.997211,1.19667 14.758591,1.19667 15.157471,0.19944 0.39889,-0.99717 4.58712,-15.75576 5.9832,-17.3513 1.3961,-1.59552 0.19945,-2.9916 3.19106,-1.99439 2.9916,0.99719 15.95523,4.78656 27.52278,4.58712 11.56754,-0.19944 36.0987,-6.3821 36.0987,-6.3821 4.34357,-0.82642 8.73536,-2.30714 10.38998,-2.37976 -0.42868,5.00598 1.19173,10.44737 4.31876,19.18262 l 0.84762,2.34341 c 0,0 8.37649,0.79778 12.56475,0.59834 4.18823,-0.19944 5.38488,-0.79778 5.38488,-0.79778 0,0 -1.19665,0.19944 4.58713,-15.55633 5.78377,-15.7558 12.56474,-39.68863 11.16866,-55.44443 -1.39608,-15.75579 -9.17426,-32.50878 -17.35132,-36.69704 -8.17705,-4.18823 -26.72501,-10.76978 -51.05673,-9.57312 -24.33173,1.19663 -41.88249,5.58433 -52.85171,4.58712 z"
         id="path4501"
         sodipodi:nodetypes="cssssscsssssssssssssssccccscssssc" />
      <path
         style="fill:#8212b6;fill-opacity:0.873595;stroke:none;stroke-width:0.529418;stroke-opacity:1"
         d="m 102.03581,282.82559 c -1.34793,-0.23731 -1.96561,-0.62646 -2.302207,-1.44994 -0.289511,-0.70826 -1.832911,-12.08291 -1.662601,-12.25321 0.0595,-0.0596 0.81649,0.069 1.682201,0.28622 4.364177,1.09354 8.368077,1.23726 13.784897,0.49479 l 0.95086,-0.1304 -0.12986,0.88141 c -0.095,0.64523 -1.03335,6.85993 -1.12159,10.23644 -0.002,0.0824 -0.12557,1.35073 -1.00801,1.35073 0,0 -1.05412,0.2751 -1.60442,-0.30021 -0.32516,-0.22511 -0.24155,-1.85101 -0.24155,-1.85101 -0.15215,-1.94881 -0.0157,-2.15017 -0.36667,-2.3274 -0.25585,-0.0709 -0.33948,1.27506 -0.31694,2.142 0.0535,2.05639 -0.66097,2.1548 -1.04656,2.49896 -0.49851,0.44494 -5.10148,0.68858 -6.61754,0.42152 z"
         id="path7802-7-8-6"
         sodipodi:nodetypes="csscccssscccsscc" />
      <path
         style="fill:#7510a6;fill-opacity:0.901685;stroke:none;stroke-width:0.529418;stroke-opacity:1"
         d="m 193.78811,274.32197 c -0.35776,-0.16337 -0.671,-0.48557 -0.73513,-0.75602 -0.27793,-1.17203 -1.59359,-9.19203 -1.52003,-9.26561 0.0454,-0.0452 0.73345,0.10953 1.52913,0.34365 1.40799,0.41462 1.52712,0.41828 4.44803,0.1362 l 3.97411,-0.37837 0.29618,0.86951 c 0.26802,0.78686 0.59655,1.43361 0.90182,4.18508 0.1854,1.67152 0.96724,4.15602 -1.11832,4.80875 -1.48077,0.46341 -6.98549,0.41794 -7.77581,0.057 z"
         id="path7806-3-9-6"
         sodipodi:nodetypes="ssssscsssss" />
      <path
         style="fill:#8212b6;fill-opacity:0.873595;stroke:none;stroke-width:0.540452;stroke-opacity:1"
         d="m 205.61555,282.28425 c -0.74079,-0.40976 -1.3308,-1.71663 -1.33644,-3.6977 -0.009,-3.80691 -0.26279,-5.35129 -1.63299,-10.01988 l -0.50472,-1.71983 0.44848,0.10293 c 4.06777,0.931 11.39533,1.11059 15.40123,0.37741 1.34229,-0.24569 2.50498,-0.44664 2.58376,-0.44664 0.13903,0 -0.17796,6.23182 -0.44248,12.02517 -7.5e-4,1.27342 0.0168,1.801 -0.81021,2.73212 -0.27898,0.31456 -0.90413,0.20148 -1.2678,0.202 -1.11518,-0.17583 -0.99214,-1.0897 -1.26102,-4.39264 -0.13008,-1.59772 0.0188,-1.78517 -0.49964,-1.79018 -0.51935,-0.003 -0.20702,0.8669 -0.33712,2.35251 -0.41574,4.07559 -0.72859,4.44891 -5.80681,4.57051 -1.10356,-0.12067 -3.79347,0.11407 -4.53427,-0.29572 z"
         id="path7808-0-8-7"
         sodipodi:nodetypes="zcsccsscccszcczz" />
      <path
         style="fill:#5c4646;fill-opacity:1;stroke:none;stroke-width:0.086802;stroke-opacity:1"
         d="m 59.461802,176.09282 c -0.93396,-0.0874 -1.82427,-0.21622 -3.5736,-0.5177 -1.42892,-0.24621 -2.09626,-0.83877 -3.52084,-0.96812 -0.59668,-0.0541 -3.60807,-0.27056 -3.86035,-0.27128 -0.0577,-1.7e-4 -0.0371,-0.1384 0.0475,-0.39565 0.12069,-0.46798 0.28843,-0.33289 0.49092,-0.49955 0.25507,0.14735 0.83559,0.1326 2.04936,0.24037 2.2227,0.19767 2.51012,0.2824 3.38677,0.39101 1.12162,0.13902 1.99297,0.5332 2.68931,0.67027 1.24451,0.24493 2.36897,0.35653 3.06543,0.389 0.89558,0.0416 2.50491,-0.005 4.00757,-0.24646 4.22197,-0.97505 5.85431,-0.87555 9.81595,-1.14429 0.7265,-0.0443 0.84966,-0.67346 0.87737,-0.64463 0.0325,0.0331 0.54402,0.583 0.68094,1.04866 l 0.13821,0.28594 -0.22902,-0.003 c -0.31658,-0.005 -2.28142,-0.001 -3.07358,0.0336 -2.84554,0.12679 -5.66394,0.89209 -9.17653,1.37331 -1.72186,0.23579 -1.93324,0.25535 -2.86527,0.2634 -0.45444,0.005 -0.88203,0.001 -0.95021,-0.005 z"
         id="path25330-1-4-7"
         sodipodi:nodetypes="csssccscssccsscscsccc" />
      <path
         style="fill:#fff6e7;fill-opacity:0.823034;stroke-width:0.0119927;paint-order:stroke fill markers"
         d="m 49.852566,187.01688 c -0.252082,-0.025 -0.711181,-0.0806 -1.02022,-0.12342 -0.34888,-0.0484 -0.631582,-0.0697 -0.745728,-0.0563 l -0.183838,0.0216 -0.02991,-0.41416 c -0.01646,-0.22779 -0.02968,-0.91392 -0.0294,-1.52474 5.29e-4,-0.94163 0.01281,-1.2098 0.08121,-1.76282 0.776628,-3.3672 -0.586378,-3.34252 1.663012,-2.85583 0.136279,0.0193 0.315087,0.0501 0.397352,0.0683 0.630798,0.14001 1.86369,0.25769 6.140709,0.58617 0.137086,0.0105 0.30081,0.0269 0.363831,0.0365 l 0.114583,0.0173 -2.64e-4,0.46555 c -7.94e-4,1.15654 -0.165169,2.09642 -0.49557,2.83282 -0.229458,0.51142 -0.674852,1.08622 -1.210099,1.5617 -0.728297,0.64698 -1.553384,1.00047 -2.676445,1.14668 -0.506944,0.066 -1.707483,0.0663 -2.369188,5.2e-4 z"
         id="path8954"
         sodipodi:nodetypes="ccscsccccscccssscc" />
      <path
         style="fill:#000000;fill-opacity:1;stroke:none;stroke-width:1.02634;stroke-opacity:1"
         d="m 53.722129,181.45598 c 0,0 0.34109,2.83678 -1.42364,3.47403 -1.76475,0.63729 -2.80977,-1.13245 -2.98813,-2.4823 -0.17837,-1.34988 0.15905,-2.37126 0.15905,-2.37126 l 4.17766,0.62722 z"
         id="path35762-4-8-6-8"
         sodipodi:nodetypes="cssccc" />
      <path
         style="fill:#fff6e7;fill-opacity:0.823034;stroke-width:0.0119927;paint-order:stroke fill markers"
         d="m 64.801286,189.3211 c -1.791986,-0.20247 -3.551449,-1.16675 -4.699084,-2.57536 -0.721485,-0.88555 -1.310619,-2.10343 -1.420466,-2.93644 -0.04835,-0.36665 -0.03205,-0.9143 0.05829,-1.95851 l 0.06269,-0.72454 0.09063,0.009 c 0.04985,0.005 1.185341,0.0358 2.523323,0.068 l 2.432693,0.0586 0.73379,-0.0775 c 0.403585,-0.0426 0.911275,-0.10911 1.128205,-0.1478 0.334996,-0.0598 0.60421,-0.073 1.787043,-0.0879 0.765945,-0.01 2.027243,-0.0293 2.802885,-0.0436 0.775639,-0.0143 1.414452,-0.0238 1.419579,-0.0209 0.02837,0.0158 0.0028,3.21798 -0.02856,3.58303 -0.0867,1.00762 -0.288467,1.51987 -0.940782,2.38837 -1.335384,1.77797 -3.6273,2.72743 -5.950233,2.46498 z"
         id="path8956" />
      <path
         style="fill:#5c4646;fill-opacity:1;stroke:none;stroke-width:0.0994406;stroke-opacity:1"
         d="m 63.551972,181.29073 c -0.29906,-0.0157 -3.83215,-0.10231 -4.55209,-0.12318 -1.66536,-0.0483 -2.48336,-0.13778 -3.81209,-0.24746 -2.42154,-0.20048 -4.39039,-0.28801 -5.70494,-0.59555 -0.37342,0.0381 -1.02122,-0.37196 -1.11792,-0.47532 0.0254,-0.17353 -0.17226,-0.36377 -0.0993,-0.53095 l 0.0358,-0.0821 0.26679,0.0841 c 0.46683,0.14766 1.09752,0.22182 2.65836,0.31283 1.65784,0.0968 3.19112,0.38803 5.78515,0.65936 1.22663,0.12804 2.37739,0.20123 3.76627,0.24747 1.1053,0.0366 2.10167,-0.28924 3.80494,-0.35761 3.92074,-0.15753 11.33836,-0.0595 11.37706,-0.0259 0.0127,0.009 0.16696,0.11047 0.14526,0.44334 -0.0375,0.57448 0.27868,0.043 -0.13443,0.20353 -0.15768,0.0615 -0.48253,0.0229 -1.00126,0.0373 -1.15871,0.034 -6.32465,0.11047 -7.74143,0.14076 -2.17436,-0.0278 -0.56505,0.0463 -3.67614,0.30944 z"
         id="path25457-7-5-8"
         sodipodi:nodetypes="cssccscsssssscsscc" />
      <path
         style="fill:#5c4646;fill-opacity:1;stroke:none;stroke-width:0.201116;stroke-opacity:1"
         d="m 39.980602,214.47716 -0.22256,-0.10498 0.34005,-0.37477 c 0.18701,-0.20606 0.47383,-0.50438 0.63735,-0.66274 0.4412,-0.42729 0.99216,-1.37863 1.35584,-2.21032 0.9031,-2.06513 1.21526,-4.35409 1.14056,-7.67085 -0.0427,-1.89258 -0.25611,-2.76887 -0.58911,-3.68648 -0.40629,-1.11949 -1.39542,-2.41115 -2.36082,-3.28254 -0.70368,-0.63514 -2.11287,-1.60729 -2.80268,-1.96908 -0.55521,-0.29117 -0.58921,-0.64118 -0.66752,-1.07386 -0.0417,-0.23019 -0.0333,-0.24112 0.14839,-0.19234 0.7573,0.20327 3.22885,1.59262 4.14168,2.55501 1.20939,1.275 2.30663,3.46268 2.72455,5.11244 0.13975,0.55194 0.21826,4.29065 0.0772,5.79502 -0.31629,3.37829 -0.83148,4.93485 -2.54503,6.9828 -0.44723,0.5345 -1.13906,0.8691 -1.14493,0.8755 -0.005,0.005 -0.11078,-0.0356 -0.23324,-0.0932 z"
         id="path44133-8-1-6"
         sodipodi:nodetypes="ccssssssssssscsscc" />
      <path
         style="fill:#5c4646;fill-opacity:1;stroke:none;stroke-width:0.301824;stroke-opacity:1"
         d="m 52.886052,205.37412 c -0.26254,-0.0698 -0.333,-0.18904 -0.53587,-0.90584 -0.34084,-1.20435 -1.98067,-5.21483 -2.67458,-6.54112 -1.25913,-2.40658 -2.94715,-4.55296 -4.79641,-6.09869 -1.27872,-1.06887 -2.40554,-1.5857 -3.45734,-1.5857 -0.43219,0 -0.48562,-0.0264 -0.37784,-0.18751 0.19691,-0.29405 1.25392,-0.86843 2.8711,-1.56014 2.54798,-1.08979 3.80719,-1.51949 4.14991,-1.41608 0.16897,0.0512 0.99904,0.15905 1.84438,0.23959 1.94403,0.186 3.01671,0.41778 4.21688,0.91113 1.81094,0.74435 3.35522,2.17021 4.41668,4.07794 1.3604,2.44504 2.81009,7.02982 3.04528,9.63095 0.0735,0.81308 -0.0537,1.05067 -0.52638,0.98277 l -0.28501,-0.041 -0.004,-1.14311 c -0.003,-0.98298 -0.0589,-1.34322 -0.39542,-2.57103 -0.21526,-0.7853 -0.72946,-2.2739 -1.14264,-3.30795 -1.32422,-3.31408 -2.56126,-5.01011 -4.55363,-6.2432 -2.48062,-1.53521 -4.35447,-1.6945 -9.10093,-0.77374 -1.59208,0.30883 -2.89469,0.59633 -2.89469,0.63884 0,0.0424 0.57717,0.41116 1.28259,0.8192 1.78825,1.03448 2.69653,1.80856 3.9514,3.36761 1.39771,1.7365 2.62199,4.00499 3.89225,7.21183 0.51418,1.29812 1.16527,2.8159 1.44686,3.37287 0.60979,1.20605 0.55573,1.3689 -0.37256,1.12205 z"
         id="path44135-4-4-5" />
      <path
         style="fill:#5c4646;fill-opacity:1;stroke:none;stroke-width:0.535327;stroke-opacity:1"
         d="m 99.492329,279.93124 c -0.144014,-0.0152 -0.264017,-1.12184 -0.492337,-2.81916 -0.71529,-5.3174 -0.86778,-6.75451 -1.34146,-9.58383 -0.52609,-3.14252 -0.83204,-4.52079 -1.51354,-6.63034 -0.67352,-2.08479 -2.27627,-7.25705 -3.02543,-8.18542 -0.70865,-0.87817 -2.290384,-1.76377 -3.797394,-2.61453 -0.68274,-0.38544 -1.728838,-1.31179 -3.088178,-1.60889 -1.34378,-0.28903 -1.987938,-0.5609 -2.296868,-0.75941 -0.26156,-0.16794 -0.83529,-0.34127 -0.79114,-0.38492 0.0754,-0.0744 2.13394,0.66992 3.5471,0.90394 0.63532,0.10514 4.9944,2.21061 6.22608,3.74923 2.2207,2.7741 2.82771,6.03028 3.58545,8.48101 0.75284,2.43492 2.37264,8.99189 2.68282,12.06026 0.0727,0.7192 0.31681,2.73568 0.542451,4.48106 -0.08682,1.9902 0.208247,2.62675 -0.237554,2.911 z"
         id="path44141-9-8-2"
         sodipodi:nodetypes="csssssccscssscc" />
      <path
         style="fill:#5c4646;fill-opacity:1;stroke:none;stroke-width:0.264709;stroke-opacity:1"
         d="m 202.31895,268.21869 c -0.39102,-1.15563 -1.02755,-3.06916 -1.41447,-4.25231 -0.38691,-1.18311 -1.2809,-3.90707 -1.98662,-6.05323 -1.6339,-4.96876 -1.76399,-5.54077 -2.19193,-9.64016 -0.10529,-1.00976 -0.21325,-1.85751 -0.23961,-1.88389 -0.0929,-0.0931 -3.7383,0.94822 -7.50196,2.14285 -1.7544,0.55685 -2.03226,0.59185 -2.1369,0.26916 -0.016,-0.051 0.90375,-0.35943 2.04516,-0.6852 1.14141,-0.32577 3.426,-1.00488 5.07688,-1.5092 1.65088,-0.50428 3.13256,-0.94954 3.29258,-0.98942 l 0.29101,-0.0725 -0.0601,1.88668 c -0.11738,3.67655 0.22778,5.36749 2.23362,10.94288 1.10552,3.07279 1.53323,4.39741 2.59713,8.04343 0.68556,1.67913 0.17344,2.97195 -0.005,1.80089 z"
         id="path44147-6-57-6"
         sodipodi:nodetypes="csscsscsssccscc" />
      <path
         style="fill:#836363;fill-opacity:1;stroke-width:0.485754"
         d="m 45.451352,216.42165 c 0,0 6.62203,1.42714 13.187,0.45667 6.56497,-0.97047 14.55709,-5.0807 14.89961,-5.42322 0.34252,-0.34252 1.59842,-0.11408 -0.11419,1.08463 -1.7126,1.19885 -9.41929,4.96654 -14.15748,5.19489 -4.73819,0.22841 -10.10432,0.45671 -10.78937,0.22841 -0.68504,-0.22841 -3.02559,-1.54134 -3.02559,-1.54134 z"
         id="path41238-0-5" />
      <path
         style="fill:#912653;fill-opacity:0.843137;stroke:none;stroke-width:0.947265;stroke-opacity:1"
         d="m 78.110157,192.82817 c -1.41385,-0.84296 -2.99606,-1.76183 -2.59578,-7.50724 0.29005,-4.16313 0.24669,-4.8885 -0.4542,-7.59705 -0.42617,-1.64696 -1.52353,-4.59437 -2.43858,-6.54983 -2.16302,-4.62248 -2.9131,-6.9285 -3.43097,-10.54818 -0.48931,-3.42014 -0.3191,-3.93035 2.47517,-7.41889 1.41042,-1.76086 4.63963,-1.96646 6.01381,-2.16792 1.71362,-0.25127 8.10504,0.65144 9.88414,1.39336 3.11024,1.2971 7.668882,10.63948 7.639822,13.66629 -0.0127,1.32614 -1.48232,4.58875 -3.721962,8.26309 -1.14972,1.88622 -2.68877,5.1875 -3.66241,7.85596 -2.57691,7.06259 -3.46123,8.95832 -4.62579,9.91649 -0.12856,0.10577 -0.254,0.20148 -0.37718,0.28719 -1.42624,0.60654 -3.74488,0.96567 -4.70607,0.40673 z"
         id="path4939-1-1-2"
         sodipodi:nodetypes="cssssssscssscc" />
      <path
         style="fill:#8211b6;fill-opacity:0.768627;stroke:none;stroke-width:0.37692;stroke-opacity:1"
         d="m 36.317161,207.94364 c -0.6787,-0.53288 -0.84771,-1.30091 -0.7928,-3.60294 0.0437,-1.83465 0.0833,-2.1139 0.34913,-2.47001 0.44761,-0.59961 0.96422,-0.7368 1.44738,-0.38438 0.70456,0.51394 0.91285,1.1599 0.90281,2.79972 -0.0152,2.52361 -0.42944,3.94381 -1.14967,3.94381 -0.21572,0 -0.55636,-0.12883 -0.75685,-0.2862 z"
         id="path7810-2-3-7" />
      <path
         style="fill:#8211b6;fill-opacity:0.768627;stroke:none;stroke-width:0.520456;stroke-opacity:1"
         d="m 31.029711,207.21497 c -0.0254,-0.20708 -0.253745,-1.9657 -0.342155,-3.49661 -0.0884,-1.53091 -0.01173,-2.17499 -0.04272,-2.37585 -0.0473,-0.30349 0.207245,-0.70601 0.709225,-0.60438 1.26347,0.2557 1.36069,1.0052 1.19789,3.80795 -0.11027,1.89761 -0.42825,2.75947 -1.08421,2.93824 -0.382297,0.24577 -0.407138,0.0181 -0.43803,-0.26935 z"
         id="path7812-2-6-8"
         sodipodi:nodetypes="csscscc" />
      <path
         style="fill:#000000;fill-opacity:1;stroke:none;stroke-width:1.21671;stroke-opacity:1"
         d="m 61.56883,182.23984 c 0,0 -0.47119,2.79456 2.05866,3.48595 2.52985,0.69135 2.98637,-0.32033 3.32992,-1.6129 0.34356,-1.29258 0.43249,-3.44351 0.43249,-3.44351 l -5.75054,0.50651 z"
         id="path35762-3-8-7"
         sodipodi:nodetypes="cssccc" />
    </g>
  </g>
</svg>
