<?xml version="1.0" encoding="UTF-8" standalone="no"?>
<!-- Created with Inkscape (http://www.inkscape.org/) -->

<svg
   width="210mm"
   height="297mm"
   viewBox="0 0 210 297"
   version="1.1"
   id="svg13783"
   inkscape:version="1.2.2 (732a01da63, 2022-12-09)"
   sodipodi:docname="cochon_silhouette.svg"
   xmlns:inkscape="http://www.inkscape.org/namespaces/inkscape"
   xmlns:sodipodi="http://sodipodi.sourceforge.net/DTD/sodipodi-0.dtd"
   xmlns="http://www.w3.org/2000/svg"
   xmlns:svg="http://www.w3.org/2000/svg">
  <sodipodi:namedview
     id="namedview13785"
     pagecolor="#ffffff"
     bordercolor="#000000"
     borderopacity="0.25"
     inkscape:showpageshadow="2"
     inkscape:pageopacity="0.0"
     inkscape:pagecheckerboard="0"
     inkscape:deskcolor="#d1d1d1"
     inkscape:document-units="mm"
     showgrid="false"
     inkscape:zoom="0.93806818"
     inkscape:cx="335.79649"
     inkscape:cy="561.79285"
     inkscape:window-width="2560"
     inkscape:window-height="1369"
     inkscape:window-x="-8"
     inkscape:window-y="-8"
     inkscape:window-maximized="1"
     inkscape:current-layer="layer1" />
  <defs
     id="defs13780" />
  <g
     inkscape:label="Calque 1"
     inkscape:groupmode="layer"
     id="layer1">
    <g
       id="g20915-5-0"
       transform="matrix(1.4555809,0,0,1.4555809,-26.171734,-179.93292)">
      <path
         style="fill:#000000;fill-opacity:1;stroke:none;stroke-width:0.104041;stroke-opacity:1"
         d="m 34.462356,205.81175 c -0.368931,-0.0775 -0.756224,-0.22989 -1.194229,-0.46951 l -0.350456,-0.19173 -0.04372,-0.30392 c -0.19508,-1.35773 -0.266664,-2.69426 -0.187907,-3.50809 0.09569,-0.9894 0.425069,-3.09811 0.483829,-3.09811 0.01765,0 0.432565,0.1339 0.922173,0.29786 2.011413,0.67302 2.906197,0.8573 4.655262,0.95864 l 0.501032,0.0291 -2.95e-4,1.00175 c -3.27e-4,1.13147 -0.03531,1.59312 -0.163416,2.15661 -0.288684,1.26984 -1.225623,2.39008 -2.428214,2.90321 -0.655264,0.27957 -1.51402,0.36736 -2.194094,0.22424 z"
         id="path43069-6-8"
         inkscape:export-filename="cochon.png"
         inkscape:export-xdpi="96"
         inkscape:export-ydpi="96" />
      <path
         style="fill:#000000;fill-opacity:1;stroke:none;stroke-width:0.109197;stroke-opacity:1"
         d="m 44.215804,207.43898 c -1.927952,-0.28387 -3.596425,-1.53704 -4.469424,-3.35694 -0.308526,-0.64317 -0.3928,-0.99465 -0.393298,-1.64026 -3.37e-4,-0.43741 0.110072,-1.87032 0.194578,-2.5253 l 0.0246,-0.1905 0.438616,-0.0282 c 0.241234,-0.0162 0.958037,-0.0827 1.592884,-0.14977 1.970691,-0.20755 2.470042,-0.2441 3.936901,-0.28814 0.782225,-0.0235 2.015855,-0.0609 2.741398,-0.0832 0.725548,-0.0222 1.439749,-0.0406 1.587125,-0.0408 l 0.267957,-3.4e-4 -0.02604,2.20052 c -0.01474,1.25022 -0.04532,2.31709 -0.07069,2.47044 -0.07584,0.45824 -0.201965,0.79581 -0.438306,1.17318 -0.828996,1.32363 -2.090805,2.17651 -3.604946,2.43658 -0.415474,0.0712 -1.367606,0.0834 -1.781344,0.0225 z"
         id="path43071-0-7" />
      <path
         style="fill:#000000;fill-opacity:1;stroke:none;stroke-width:0.654064;stroke-opacity:1"
         d="m 36.518351,200.23613 c 0,0 0.217368,1.80782 -0.907254,2.21392 -1.124636,0.40613 -1.790607,-0.72168 -1.904273,-1.58191 -0.113667,-0.86025 0.101361,-1.51115 0.101361,-1.51115 l 2.662328,0.39971 z"
         id="path35762-4-8-9"
         sodipodi:nodetypes="cssccc" />
      <path
         style="fill:#000000;fill-opacity:1;stroke:none;stroke-width:0.775383;stroke-opacity:1"
         d="m 41.284273,200.73196 c 0,0 -0.300273,1.78091 1.311943,2.22152 1.612215,0.44058 1.903142,-0.20414 2.122081,-1.02787 0.218945,-0.82373 0.275616,-2.19447 0.275616,-2.19447 l -3.66469,0.32279 z"
         id="path35762-3-9"
         sodipodi:nodetypes="cssccc" />
      <path
         style="fill:#000000;fill-opacity:1;stroke:none;stroke-width:0.55227;stroke-opacity:1"
         d="m 36.365952,186.598 c 0,-0.41431 0.03355,-4.38874 2.267246,-4.91066 2.607927,-0.60934 4.106909,0.61016 4.93243,0.98978 0.565236,0.25997 0.582163,0.29678 0.205338,0.44652 -0.477921,0.18995 -6.770022,3.38078 -7.148342,3.54711 -0.141161,0.062 -0.256672,0.0293 -0.256672,-0.0727 z"
         id="path4941-6-2"
         sodipodi:nodetypes="csssccc" />
      <path
         style="fill:#000000;fill-opacity:1;stroke:none;stroke-width:0.55227;stroke-opacity:1"
         d="m 33.305033,195.92463 c -0.125487,-0.73592 0.187104,-4.7802 0.731764,-6.52568 0.765194,-2.45216 4.986537,-5.13825 10.312726,-6.5621 2.988944,-0.79905 3.174316,-0.80148 2.89056,-0.0377 -0.524238,1.41106 0.31396,5.55745 1.785268,8.83134 0.622423,1.385 0.726714,6.20033 0.530409,6.37796 -2.974063,0.72589 -15.841473,0.21904 -16.250727,-2.08382 z"
         id="path4517-7-3"
         sodipodi:nodetypes="csscscc" />
      <path
         style="fill:#000000;fill-opacity:1;stroke:none;stroke-width:0.55227;stroke-opacity:1"
         d="m 38.640353,200.00222 c -1.217325,-0.11836 -2.734516,-0.61307 -3.689009,-0.67024 -1.346577,-0.0806 -1.795189,-0.18836 -2.002055,-0.48076 -0.355848,-0.50293 -0.337212,-1.62007 0.04275,-2.55979 l 0.309329,-0.76507 1.520689,0.14233 c 0.836373,0.0784 2.013914,0.28366 2.616751,0.45628 2.935607,0.84065 3.107663,0.85189 5.28407,0.34465 2.289967,-0.53372 4.893218,-0.88102 6.621625,-0.88345 1.372208,-0.002 1.395981,0.0342 1.556973,2.36377 l 0.112145,1.62266 -3.467306,0.12371 c -1.907016,0.068 -4.224668,0.35303 -5.128158,0.40413 -1.411598,0.01 -2.560443,0.0202 -3.777769,-0.0983 z"
         id="path4519-6-3"
         sodipodi:nodetypes="zsssccsscscscz" />
      <path
         style="fill:#000000;fill-opacity:1;stroke:none;stroke-width:0.477136;stroke-opacity:1"
         d="m 60.220798,255.25515 c -0.621522,-1.64213 -0.09386,-0.68574 -0.69971,-2.2989 -0.776975,-2.04141 -1.7846,-5.11133 -2.360629,-7.19208 l -0.878038,-2.77879 1.342925,0.10152 c 0.659239,0.0499 2.089564,0.50808 2.120332,0.53885 0.03077,0.0308 2.45124,1.79036 3.174024,3.52077 1.268189,3.03614 2.189371,6.62791 2.461914,8.13112 -1.074803,0.85033 -3.150917,0.67016 -5.160818,-0.0223 z"
         id="path4521-7-9"
         sodipodi:nodetypes="ccscscscc" />
      <path
         style="fill:#000000;fill-opacity:1;stroke:none;stroke-width:0.0843465;stroke-opacity:1"
         d="m 154.78782,200.52431 c -0.005,-0.091 -0.13602,-0.4632 -0.25464,-0.72431 -0.58323,-1.28375 -1.43271,-5.70273 -2.30879,-6.35502 -0.87112,-0.64861 -2.88608,-0.39858 -3.90385,0.11399 -0.12468,0.0628 -0.23124,0.10978 -0.23663,0.10428 -0.0167,-0.017 -0.11529,-0.4151 -0.10492,-0.42352 0.0482,-0.0393 1.85126,-0.60102 2.08834,-0.66229 0.93229,-0.24095 1.62681,-0.23922 2.14759,0.005 1.17258,0.55062 2.25113,5.35711 2.54877,6.81226 0.0649,0.31789 0.0939,0.83831 0.0573,1.03613 -0.0162,0.0878 -0.0311,0.1297 -0.0332,0.0933 z"
         id="path4943-4-6"
         sodipodi:nodetypes="cssscssccscc" />
      <path
         style="fill:#000000;fill-opacity:1;stroke:none;stroke-width:0.0843465;stroke-opacity:1"
         d="m 154.29089,200.52308 c -1.07937,-0.15722 -1.80638,-1.06928 -2.46694,-3.09486 -0.43213,-1.32507 0.12063,-2.7409 0.60146,-3.30955 0.27283,-0.32263 0.27792,-0.32359 0.37929,-0.0686 0.0458,0.11545 0.10509,0.31565 0.13148,0.44495 0.0394,0.19184 0.0379,0.2281 -0.008,0.19711 -0.0521,-0.0358 -0.0695,-0.0204 -0.2906,0.2551 -0.42913,0.5349 -0.64189,1.64773 -0.45309,2.37115 0.16308,0.62486 0.46813,1.32258 0.7603,1.73908 0.37881,0.53997 1.05681,1.09057 1.67362,1.35908 0.16236,0.0708 0.21739,0.10784 0.18072,0.12192 -0.0675,0.0261 -0.26718,0.0199 -0.50883,-0.0146 z"
         id="path4945-6-2"
         sodipodi:nodetypes="cssssccsssccc" />
      <path
         style="fill:#000000;fill-opacity:1;stroke:none;stroke-width:0.0843465;stroke-opacity:1"
         d="m 157.38343,199.9329 c -0.24168,-0.56142 -1.44978,-2.93778 -1.64308,-3.23192 -0.43078,-0.65559 -0.9128,-1.02951 -1.47754,-1.14617 -0.12014,-0.0248 -0.22225,-0.0496 -0.22699,-0.0552 -0.005,-0.005 -0.11108,-0.19199 -0.23645,-0.41426 -0.12533,-0.22226 -0.35552,-0.59527 -0.51157,-0.82889 -0.15608,-0.23363 -0.27924,-0.42928 -0.27377,-0.43475 0.0219,-0.0219 0.42964,0.0656 0.67015,0.14346 1.0179,0.33014 1.93897,1.12695 2.54989,2.20593 0.32988,0.58261 0.72646,1.63911 0.97078,2.58614 0.13067,0.50669 0.27002,1.22091 0.24989,1.28128 -0.006,0.0185 -0.0382,-0.0288 -0.0714,-0.10557 z"
         id="path4947-4-2" />
      <path
         style="fill:#000000;fill-opacity:1;stroke:none;stroke-width:0.337386;stroke-opacity:1"
         d="m 67.298875,263.87471 c -0.859006,-0.15123 -1.252638,-0.39923 -1.467147,-0.92401 -0.184498,-0.45136 -1.168071,-7.70017 -1.059541,-7.8087 0.03792,-0.038 0.520336,0.044 1.072029,0.1824 2.781198,0.69689 5.332795,0.78848 8.784813,0.31532 l 0.605962,-0.0831 -0.08276,0.5617 c -0.06057,0.41119 -0.65853,4.37168 -0.714764,6.52346 -0.0016,0.0525 -0.08002,0.86079 -0.642382,0.86079 0,0 -0.671769,0.17531 -1.022459,-0.19132 -0.20722,-0.14346 -0.153936,-1.17961 -0.153936,-1.17961 -0.09696,-1.24193 -0.01004,-1.37025 -0.233671,-1.4832 -0.163045,-0.0452 -0.216346,0.81257 -0.201979,1.36505 0.0341,1.31049 -0.421219,1.37321 -0.66695,1.59253 -0.31769,0.28355 -3.251056,0.43882 -4.217212,0.26863 z"
         id="path7802-7-1"
         sodipodi:nodetypes="csscccssscccsscc" />
      <path
         style="fill:#000000;fill-opacity:1;stroke:none;stroke-width:0.337386;stroke-opacity:1"
         d="m 62.547515,262.21663 c -0.737497,-0.18868 -0.955729,-1.22836 -1.077529,-1.71386 -0.212426,-0.84673 -1.363008,-5.19306 -1.269066,-5.28702 0.0368,-0.0368 0.25729,-0.006 0.489942,0.0685 0.232645,0.0746 3.731354,0.13828 4.093484,0.0525 1.129802,-0.26766 0.737831,0.63934 0.789581,0.85723 0.08744,0.3682 0.791465,5.59451 0.791465,5.8858 -1.261725,0.26057 -2.443674,0.48839 -3.817877,0.13682 z"
         id="path7804-2-2"
         sodipodi:nodetypes="csscsscc" />
      <path
         style="fill:#000000;fill-opacity:1;stroke:none;stroke-width:0.337386;stroke-opacity:1"
         d="m 125.68069,258.18593 c -0.22799,-0.10411 -0.42761,-0.30944 -0.46848,-0.48179 -0.17712,-0.74691 -1.01556,-5.85788 -0.96868,-5.90477 0.0289,-0.0288 0.46741,0.0698 0.97448,0.219 0.89728,0.26423 0.9732,0.26656 2.83463,0.0868 l 2.53261,-0.24113 0.18875,0.55412 c 0.1708,0.50145 0.38017,0.91361 0.57471,2.66706 0.11815,1.06522 0.6164,2.64854 -0.71268,3.06451 -0.94366,0.29532 -4.4517,0.26634 -4.95535,0.0363 z"
         id="path7806-3-4"
         sodipodi:nodetypes="ssssscsssss" />
      <path
         style="fill:#000000;fill-opacity:1;stroke:none;stroke-width:0.337386;stroke-opacity:1"
         d="m 124.26829,252.05805 c -0.14301,-0.12257 -0.0147,0.0329 -0.81561,-2.40772 -1.6433,-5.00782 -1.85533,-6.22118 -1.72658,-6.33517 0.15899,-0.14071 5.84485,-1.85013 5.91865,-1.77631 0.0353,0.0353 0.22333,1.82512 0.28015,2.54472 0.0568,0.71962 0.32812,1.83455 0.46509,2.36744 0.2147,0.83515 0.0242,-0.18269 0.85717,2.67318 0.2367,0.81155 1.07762,3.09989 1.07762,3.09989 l -2.13875,0.14281 c -1.914,-0.013 -3.51697,-0.0351 -3.91774,-0.30877 z"
         id="path8540-7-2"
         sodipodi:nodetypes="cssssssccc" />
      <path
         style="fill:#000000;fill-opacity:1;stroke:none;stroke-width:0.477136;stroke-opacity:1"
         d="m 67.641298,255.93932 c -0.805068,-0.0406 -1.821211,-0.3821 -2.283765,-0.53414 -0.828494,-0.27236 -0.651606,-0.27448 -0.776625,-1.19805 -0.958331,-5.40288 -1.829506,-8.02229 -5.335093,-10.7137 l -1.245643,-0.13974 c -3.602868,-0.40395 -5.087468,-2.50938 -5.91741,-3.73026 -0.829942,-1.22089 -1.877605,-5.06666 -2.969567,-5.5149 -1.339745,-0.3688 -4.700375,0.11123 -9.383316,-1.8005 -4.682938,-1.91168 -4.522234,-8.14535 -7.916917,-9.66527 -0.938754,0.0437 -4.324662,-0.77562 -4.482645,-0.91147 -0.272719,-0.25643 -1.649592,-0.62898 -3.329932,-1.42859 -1.137752,-1.29444 -1.489277,-1.83973 -1.936431,-3.0342 -0.447153,-1.19449 -0.58323,-5.71504 -0.551834,-6.31232 0.04955,-0.94298 0.547252,-2.09358 1.053619,-2.43608 0.215886,-0.14605 0.773306,-0.35962 1.238708,-0.47463 1.153507,-0.28509 2.242667,-0.84978 2.80394,-1.12804 0.999134,-0.49532 2.546831,-1.35082 3.222241,-1.62608 0.67541,-0.27526 1.171479,-0.66591 1.809696,-0.96719 0.638202,-0.3013 1.001984,-0.62385 1.457913,-0.55985 1.213757,0.17037 2.962345,0.41364 4.082909,-0.57021 0.86429,-0.75888 1.143008,-1.48223 1.143008,-2.96646 v -1.63455 l 0.82352,0.0656 c 0.673658,0.0536 0.78703,-0.0722 0.694661,0.16849 -0.06215,0.16192 -0.143719,1.39611 -0.200831,2.00776 -0.08569,0.91809 -0.03452,1.25529 0.293564,1.93303 1.527882,3.15618 5.857907,3.52958 7.643342,0.65909 0.341803,-0.54952 0.39421,-0.89188 0.3938,-2.57259 -3.33e-4,-1.43314 -0.120759,-2.63918 0.04623,-2.63918 0.161157,0 -4.659292,-13.6699 -4.659292,-12.69211 1.261584,-3.94271 7.471506,-4.19735 11.299633,-3.8393 3.828126,0.35804 7.600016,0.88375 10.46385,1.13559 5.379525,0.52759 6.505991,0.5825 11.722494,0.57134 6.330357,-0.013 5.474223,0.0711 17.042725,-1.68529 6.67201,-1.013 9.64669,-1.28878 15.14905,-1.40447 11.81346,-0.24838 23.15505,1.57527 31.0248,4.98856 7.30839,3.16983 11.16498,10.68146 13.05931,25.4361 0.85161,6.63284 -0.47526,7.49029 -2.60599,19.24182 -0.53587,2.95553 -0.834,4.03397 -2.16874,7.84505 -0.85109,2.43016 -1.98191,5.71698 -2.51292,7.30402 -0.90299,2.69874 -2.87172,5.52543 -3.1454,7.88363 l -0.11944,1.02917 c -2.34913,0.40275 -6.19735,0.78774 -8.68209,0.42046 -2.68426,-0.39684 -2.74441,-0.3499 -3.09174,-1.41906 -0.1692,-0.52086 -0.24011,-0.89873 -0.9103,-2.68416 -1.53032,-4.07689 -1.88094,-5.59462 -1.75583,-7.60023 0.0517,-0.82899 0.0534,-1.50725 0.004,-1.50725 -0.0494,0 -0.99415,0.28138 -2.09911,0.62526 -8.58137,2.67081 -17.38177,4.62636 -23.19969,5.15525 -4.88294,0.44389 -13.374168,-0.58564 -20.344557,-2.46671 -1.320041,-0.35624 -2.420916,-0.61862 -2.446365,-0.58308 -1.844338,2.57374 -1.630422,3.04238 -2.471846,5.37096 -0.590296,2.15197 -2.368427,6.33429 -2.5105,6.41289 -0.410772,0.22725 -2.955318,0.47614 -4.532858,0.459 -0.793519,-0.01 -2.080485,-0.23274 -2.885537,-0.27335 z"
         id="path14436-1-7"
         sodipodi:nodetypes="ssccszczccczcssszzssscsccssssczcsssssssssccsssscssccscss" />
      <path
         style="fill:#000000;fill-opacity:1;stroke:none;stroke-width:0.240203;stroke-opacity:1"
         d="m 25.249277,217.11372 c -0.432516,-0.33959 -0.540224,-0.82904 -0.505234,-2.29607 0.02785,-1.16918 0.05311,-1.34714 0.222492,-1.57408 0.285252,-0.38212 0.61448,-0.46955 0.922384,-0.24496 0.449,0.32752 0.581741,0.73918 0.575345,1.7842 -0.0097,1.60824 -0.273674,2.5133 -0.732664,2.5133 -0.137469,0 -0.354553,-0.0821 -0.482323,-0.18239 z"
         id="path7810-2-6" />
      <path
         style="fill:#000000;fill-opacity:1;stroke:none;stroke-width:0.331675;stroke-opacity:1"
         d="m 21.879707,216.64936 c -0.01619,-0.13197 -0.07432,-1.03822 -0.130668,-2.01383 -0.05635,-0.97562 -0.118686,-1.87859 -0.13844,-2.00659 -0.03012,-0.19341 0.02882,-0.21956 0.348708,-0.15479 0.805187,0.16295 0.994243,0.68825 0.890486,2.47438 -0.07027,1.20931 -0.272914,1.75855 -0.690938,1.87248 -0.301201,0.24627 -0.25609,0.0233 -0.279083,-0.17164 z"
         id="path7812-2-7"
         sodipodi:nodetypes="ssscscs" />
      <path
         style="fill:#000000;fill-opacity:1;stroke:none;stroke-width:0.0633713;stroke-opacity:1"
         d="m 42.856309,200.1915 c -0.190581,-0.01 -2.442145,-0.0652 -2.900946,-0.0785 -1.061302,-0.0308 -1.582587,-0.0878 -2.429355,-0.1577 -1.543197,-0.12776 -2.7979,-0.18354 -3.635634,-0.37953 -0.237971,0.0243 -0.650798,-0.23704 -0.712424,-0.30291 0.01619,-0.11059 -0.109781,-0.23182 -0.06331,-0.33836 l 0.02283,-0.0523 0.170014,0.0536 c 0.297509,0.0941 0.699423,0.14136 1.69412,0.19936 1.056504,0.0617 2.033622,0.24728 3.686742,0.42019 0.781699,0.0816 1.515055,0.12824 2.400156,0.15771 0.704387,0.0233 1.339356,-0.18433 2.424808,-0.2279 2.498606,-0.10039 7.225687,-0.0379 7.25035,-0.0165 0.0081,0.006 0.106397,0.0704 0.09257,0.28253 -0.02388,0.3661 0.177589,0.0274 -0.08567,0.1297 -0.100487,0.0392 -0.307506,0.0146 -0.63808,0.0238 -0.738426,0.0217 -4.030558,0.0704 -4.933442,0.0897 -1.38567,-0.0177 -0.360092,0.0295 -2.342722,0.1972 z"
         id="path25457-7-4"
         sodipodi:nodetypes="cssccscsssssscsscc" />
      <path
         style="fill:#000000;fill-opacity:1;stroke:none;stroke-width:0.128167;stroke-opacity:1"
         d="m 27.834806,221.34047 -0.141841,-0.0669 0.216712,-0.23883 c 0.119172,-0.13132 0.301961,-0.32143 0.406172,-0.42235 0.281155,-0.2723 0.632275,-0.87857 0.864045,-1.40859 0.575523,-1.31606 0.774455,-2.77476 0.726851,-4.88846 -0.0272,-1.2061 -0.163213,-1.76454 -0.375423,-2.34931 -0.258924,-0.71343 -0.889272,-1.53657 -1.504497,-2.09189 -0.448449,-0.40476 -1.346497,-1.02429 -1.786089,-1.25485 -0.353824,-0.18556 -0.375489,-0.40861 -0.425392,-0.68435 -0.02655,-0.14669 -0.02121,-0.15366 0.09456,-0.12257 0.482614,0.12954 2.057675,1.01494 2.639399,1.62825 0.770715,0.81253 1.46996,2.20669 1.736299,3.25804 0.08906,0.35174 0.139088,2.73434 0.04922,3.69304 -0.201556,2.15291 -0.529878,3.14487 -1.621887,4.44998 -0.285009,0.34063 -0.725897,0.55386 -0.729637,0.55794 -0.0032,0.003 -0.0706,-0.0227 -0.148641,-0.0594 z"
         id="path44133-8-4"
         sodipodi:nodetypes="ccssssssssssscsscc" />
      <path
         style="fill:#000000;fill-opacity:1;stroke:none;stroke-width:0.192346;stroke-opacity:1"
         d="m 36.110528,215.79617 c -0.167309,-0.0445 -0.212209,-0.12047 -0.341501,-0.57727 -0.217213,-0.76751 -1.262234,-3.3233 -1.704449,-4.16851 -0.802419,-1.53366 -1.878156,-2.9015 -3.056647,-3.88656 -0.814902,-0.68117 -1.532994,-1.01053 -2.203288,-1.01053 -0.275423,0 -0.309474,-0.0168 -0.240788,-0.1195 0.125486,-0.18739 0.799099,-0.55343 1.829693,-0.99424 1.623766,-0.6945 2.426234,-0.96834 2.644645,-0.90244 0.107676,0.0326 0.636663,0.10136 1.175382,0.15269 1.238886,0.11853 1.922476,0.26624 2.687322,0.58064 1.154073,0.47436 2.138208,1.38303 2.814648,2.59878 0.866954,1.55817 1.79081,4.47995 1.940692,6.13759 0.04686,0.51816 -0.03423,0.66957 -0.335453,0.6263 l -0.181627,-0.0261 -0.0026,-0.72848 c -0.0021,-0.62643 -0.03752,-0.856 -0.251995,-1.63846 -0.137177,-0.50045 -0.464865,-1.4491 -0.728179,-2.10808 -0.843895,-2.11199 -1.632236,-3.19283 -2.901927,-3.97865 -1.58084,-0.97836 -2.775004,-1.07987 -5.799817,-0.49309 -1.014597,0.19681 -1.84472,0.38003 -1.84472,0.40712 0,0.027 0.367814,0.26202 0.817364,0.52206 1.139614,0.65925 1.71844,1.15255 2.518138,2.1461 0.890729,1.10663 1.670933,2.55229 2.480444,4.59594 0.327674,0.82726 0.742598,1.79451 0.922055,2.14945 0.388601,0.76859 0.35415,0.87237 -0.237426,0.71506 z"
         id="path44135-4-6" />
      <path
         style="fill:#000000;fill-opacity:1;stroke:none;stroke-width:0.603671;stroke-opacity:1"
         d="m 52.453856,207.1793 c -0.901017,-0.5372 -1.909325,-1.12278 -1.654234,-4.7842 0.184841,-2.65307 0.157207,-3.11533 -0.289452,-4.84143 -0.27159,-1.04957 -0.970911,-2.92789 -1.55405,-4.17406 -1.378447,-2.9458 -1.856456,-4.41538 -2.186482,-6.72212 -0.311829,-2.17958 -0.203359,-2.50472 1.577366,-4.72789 0.898835,-1.12216 2.956736,-1.25318 3.832469,-1.38157 1.092055,-0.16013 5.165161,0.41515 6.29894,0.88796 1.982086,0.82661 4.887209,6.7803 4.868689,8.70922 -0.0081,0.84512 -0.944647,2.92431 -2.371925,5.26588 -0.73269,1.20205 -1.713489,3.30588 -2.333969,5.00643 -1.642205,4.50083 -2.205766,5.70894 -2.947911,6.31956 -0.08193,0.0674 -0.16187,0.1284 -0.240368,0.18302 -0.908911,0.38653 -2.386532,0.6154 -2.999073,0.2592 z"
         id="path4939-1-6"
         sodipodi:nodetypes="cssssssscssscc" />
      <path
         style="fill:#000000;fill-opacity:1;stroke:none;stroke-width:0.344418;stroke-opacity:1"
         d="m 133.03831,263.43986 c -0.47209,-0.26113 -0.84809,-1.09397 -0.85168,-2.35646 -0.006,-2.42606 -0.16747,-3.41026 -1.04067,-6.38545 l -0.32165,-1.09601 0.28581,0.0656 c 2.5923,0.5933 7.26199,0.70775 9.81485,0.24051 0.85541,-0.15657 1.59637,-0.28463 1.64657,-0.28463 0.0886,0 -0.1134,3.9714 -0.28198,7.66337 -4.7e-4,0.81152 0.0107,1.14774 -0.51632,1.74112 -0.1778,0.20046 -0.57619,0.1284 -0.80794,0.12873 -0.71068,-0.11205 -0.63227,-0.69444 -0.80362,-2.79933 -0.0829,-1.01819 0.012,-1.13765 -0.31841,-1.14084 -0.33097,-0.002 -0.13193,0.55245 -0.21484,1.4992 -0.26494,2.59728 -0.46431,2.83519 -3.70055,2.91268 -0.70327,-0.0769 -2.41749,0.0727 -2.88959,-0.18845 z"
         id="path7808-0-9"
         sodipodi:nodetypes="zcsccsscccszcczz" />
      <path
         style="fill:#000000;fill-opacity:1;stroke:none;stroke-width:0.168693;stroke-opacity:1"
         d="m 131.28941,255.58875 c -0.24919,-0.73646 -0.65484,-1.95591 -0.90141,-2.7099 -0.24657,-0.75397 -0.81629,-2.48989 -1.26603,-3.85759 -1.04125,-3.16648 -1.12415,-3.53101 -1.39687,-6.14346 -0.0671,-0.6435 -0.1359,-1.18375 -0.1527,-1.20056 -0.0592,-0.0593 -2.38233,0.60428 -4.78083,1.36559 -1.11804,0.35487 -1.29511,0.37717 -1.3618,0.17153 -0.0102,-0.0325 0.57594,-0.22906 1.30334,-0.43666 0.72739,-0.20761 2.18331,-0.64039 3.23538,-0.96178 1.05207,-0.32137 1.99631,-0.60512 2.09829,-0.63054 l 0.18545,-0.0462 -0.0383,1.20234 c -0.0748,2.34298 0.14516,3.42058 1.42344,6.97365 0.70452,1.95822 0.97709,2.80237 1.65509,5.1259 0.43689,1.07007 0.11053,1.89396 -0.003,1.14767 z"
         id="path44147-6-5"
         sodipodi:nodetypes="csscsscsssccscc" />
      <path
         style="fill:#000000;fill-opacity:1;stroke-width:0.30956"
         d="m 31.321183,222.57965 c 0,0 4.220079,0.90949 8.40379,0.29103 4.183703,-0.61846 9.276905,-3.23782 9.495184,-3.4561 0.218281,-0.21828 1.01864,-0.0727 -0.07277,0.69121 -1.091401,0.764 -6.002704,3.16507 -9.022245,3.31059 -3.019539,0.14556 -6.439258,0.29105 -6.875823,0.14556 -0.436564,-0.14556 -1.92814,-0.98226 -1.92814,-0.98226 z"
         id="path41238-9" />
    </g>
  </g>
</svg>
