<?xml version="1.0" encoding="UTF-8" standalone="no"?>
<!-- Created with Inkscape (http://www.inkscape.org/) -->

<svg
   width="210mm"
   height="297mm"
   viewBox="0 0 210 297"
   version="1.1"
   id="svg1133"
   inkscape:version="1.2.2 (732a01da63, 2022-12-09)"
   sodipodi:docname="poule_03.svg"
   xmlns:inkscape="http://www.inkscape.org/namespaces/inkscape"
   xmlns:sodipodi="http://sodipodi.sourceforge.net/DTD/sodipodi-0.dtd"
   xmlns="http://www.w3.org/2000/svg"
   xmlns:svg="http://www.w3.org/2000/svg">
  <sodipodi:namedview
     id="namedview1135"
     pagecolor="#ffffff"
     bordercolor="#000000"
     borderopacity="0.25"
     inkscape:showpageshadow="2"
     inkscape:pageopacity="0.0"
     inkscape:pagecheckerboard="0"
     inkscape:deskcolor="#d1d1d1"
     inkscape:document-units="mm"
     showgrid="false"
     inkscape:zoom="0.93806818"
     inkscape:cx="335.79649"
     inkscape:cy="561.79285"
     inkscape:window-width="2560"
     inkscape:window-height="1369"
     inkscape:window-x="-8"
     inkscape:window-y="-8"
     inkscape:window-maximized="1"
     inkscape:current-layer="layer1" />
  <defs
     id="defs1130" />
  <g
     inkscape:label="Calque 1"
     inkscape:groupmode="layer"
     id="layer1">
    <g
       id="g69"
       transform="matrix(1.896193,0,0,1.896193,-195.81271,-69.574498)"
       style="display:inline">
      <path
         style="fill:#a43d17;fill-opacity:1;stroke-width:0.198215"
         d="m 145.15996,97.838325 c 0,0 -4.48248,-1.56998 -5.58373,-0.418672 -1.10125,1.151307 -3.95449,7.058017 -3.65415,7.858927 0.30034,0.80091 8.19753,4.00368 8.19753,4.00368 z"
         id="path70"
         sodipodi:nodetypes="csscc" />
      <path
         style="fill:#e8b720;fill-opacity:1;stroke-width:0.264583"
         d="m 151.17432,137.04245 1.43658,11.32554 c 0,0 -3.40769,2.97338 -3.37428,3.14042 0.0334,0.16705 3.24064,-1.9377 3.24064,-1.9377 0,0 -0.13363,3.37427 0,3.24064 0.13364,-0.13363 0.7684,-3.10701 0.90204,-2.93996 0.13363,0.16704 0.96885,2.93996 1.26953,2.87314 0.30068,-0.0668 -0.73499,-3.64154 -0.56795,-3.57473 0.16704,0.0668 1.83748,0.73499 1.80407,0.53454 -0.0334,-0.20045 -1.90429,-1.26953 -1.87089,-1.50339 0.0334,-0.23386 0.86863,-11.1585 0.86863,-11.1585 0,0 -2.6727,0.26727 -3.70837,0 z"
         id="path65" />
      <path
         style="display:inline;fill:#e8b720;fill-opacity:1;stroke-width:0.264583"
         d="m 167.47616,136.84602 -1.2066,11.35235 c 0,0 3.46729,2.90366 3.43727,3.07134 -0.03,0.16769 -3.27927,-1.87158 -3.27927,-1.87158 0,0 0.20204,3.37086 0.0657,3.23997 -0.13632,-0.13089 -0.83125,-3.09079 -0.96147,-2.92106 -0.13022,0.16972 -0.90903,2.959 -1.211,2.8983 -0.30198,-0.0607 0.66098,-3.6557 0.49533,-3.58552 -0.16565,0.0702 -1.82219,0.77211 -1.79286,0.57102 0.0293,-0.20109 1.87815,-1.30789 1.84002,-1.54102 -0.0381,-0.23314 -1.09475,-11.13859 -1.09475,-11.13859 0,0 2.67757,0.21301 3.70761,-0.0752 z"
         id="path65-3" />
      <path
         style="fill:#a43d17;fill-opacity:1;stroke-width:0.290551"
         d="m 166.60772,103.77965 c -0.0369,-0.21838 -1.03548,-5.459432 -0.11094,-6.405731 0.92453,-0.946303 2.3668,-1.455851 3.47624,-0.800718 1.10944,0.655131 0.81359,1.783414 0.81359,1.783414 0,0 0.73962,-1.637831 1.96001,-1.455848 1.22038,0.181979 0.96151,3.057282 0.96151,3.057282 0,0 0.9985,-0.509549 1.22038,-0.291169 0.22189,0.218376 -0.22188,2.76611 -0.22188,2.76611 0,0 0.48075,-0.43675 0.92454,0 0.44377,0.43676 0.3698,2.32936 -0.70266,3.31206 -1.07245,0.9827 -3.58718,2.62053 -3.58718,2.62053 z"
         id="path60" />
      <path
         style="fill:#863312;fill-opacity:1;stroke-width:0.264583"
         d="m 157.13688,72.633496 c -1.21942,-0.183748 -5.09595,-1.857456 -6.98584,1.449835 -1.88988,3.307292 -6.80611,29.339939 -7.65656,34.537109 -0.85044,5.19717 -2.92677,13.93834 -1.79284,17.62361 1.13393,3.68527 4.6302,8.22098 16.34747,8.31548 11.71726,0.0945 18.9933,-2.17337 21.07217,-5.76414 2.07887,-3.59077 3.59077,-15.02455 -5.76414,-23.34003 -9.35491,-8.31548 -8.31548,-11.906254 -8.40997,-15.308039 -0.0945,-3.401785 1.5119,-11.244792 -0.75595,-15.024554 -1.93003,-3.216719 -4.61777,-2.405749 -6.05434,-2.489271 z"
         id="path44"
         sodipodi:nodetypes="cssssssssc" />
      <path
         style="display:inline;fill:none;fill-opacity:1;stroke:#6f290e;stroke-width:0.254948;stroke-dasharray:none;stroke-opacity:1"
         d="m 198.03914,8.7462893 c 0,0 1.33508,0.078247 2.03922,-1.1121968 0.70414,-1.1904393 0.85986,-1.7971641 0.85986,-1.7971641 0,0 -1.00283,3.4721141 -0.054,4.0614559 0.94879,0.5893417 1.72495,-2.4033736 1.72495,-2.4033736 0,0 -0.5367,3.5815453 0.95544,3.6689913 1.49214,0.08744 2.39356,-4.2938613 2.39356,-4.2938613 0,0 -0.90274,3.7653783 0.25756,4.1207743 1.16032,0.355396 1.10814,-1.9879 1.10814,-1.9879 0,0 -0.74062,3.692767 1.10238,3.841833 1.84301,0.149065 2.18072,-4.6758495 2.18072,-4.6758495 0,0 -0.0185,4.7615075 1.69525,4.4513725 1.71376,-0.310134 1.33601,-3.124136 1.33601,-3.124136 0,0 0.14717,3.991153 1.33293,3.937459 1.18559,-0.05366 1.49681,-3.812679 1.49681,-3.812679 0,0 0.1497,3.950243 1.48494,4.02848 1.33508,0.07823 1.91849,-4.8964998 1.91849,-4.8964998 0,0 -0.25918,4.8295148 1.66237,4.9831838 1.92152,0.153668 1.81986,-3.301063 1.81986,-3.301063 0,0 0.15474,3.868428 2.2664,3.499481 2.1115,-0.368937 1.63112,-3.435295 1.63112,-3.435295 0,0 0.57914,2.743689 1.32774,2.746504 0.7486,0.0028 1.12957,-2.972005 1.12957,-2.972005 0,0 1.59368,2.269409 2.77675,2.256628 1.18304,-0.01278 1.11812,-3.4243023 1.11812,-3.4243023 0,0 -0.30883,2.4453103 2.11054,2.8334363 2.41935,0.388129 1.98066,-3.9896056 1.98066,-3.9896056 0,0 1.1656,2.8191186 2.59944,2.5746936 1.43384,-0.244427 0.99512,-4.6221596 0.99512,-4.6221596 0,0 0.13194,1.6910615 0.92362,2.2711974 0.79173,0.5801382 0.79135,-3.2381693 0.79135,-3.2381693 0,0 0.52724,2.9459334 2.14223,2.9584653 1.61501,0.012528 1.21303,-4.3219899 1.21303,-4.3219899 0,0 0.63491,3.116471 1.67993,3.4240547 1.04503,0.3075833 0.91287,-3.9290119 0.91287,-3.9290119 0,0 1.12382,2.8577215 1.26824,3.071471"
         id="path4066-0"
         transform="matrix(0.74915896,0,0,0.74915896,-7.9015338,118.18465)" />
      <path
         style="fill:none;fill-opacity:1;stroke:#6f290e;stroke-width:0.198215;stroke-opacity:1"
         d="m 145.57274,97.911629 c 0,0 0.10011,1.301479 1.25142,1.852104 1.1513,0.550627 1.65187,-2.302615 1.65187,-2.302615 0,0 0.3504,2.402729 1.15131,2.703072 0.80091,0.30034 1.10125,-1.802048 1.10125,-1.802048 0,0 0.7008,2.602958 1.80205,2.552898 1.10125,-0.0501 1.20136,-3.103523 1.20136,-3.103523 0,0 0.60068,2.903293 1.50171,2.903293 0.90102,0 0.80091,-1.001134 0.80091,-1.001134 0,0 1.00113,1.351534 1.65187,1.351534 0.65074,0 1.15131,-3.053466 1.15131,-3.053466 0,0 0.45051,2.402726 1.45165,2.502846 1.00113,0.10011 0.80091,-1.952221 0.80091,-1.952221 0,0 0.40045,1.952221 1.25142,1.902161 0.85096,-0.0501 0.50056,-3.053469 0.50056,-3.053469 0,0 0.50057,2.903299 1.50171,2.753129 1.00114,-0.15017 0.60068,-2.302616 0.60068,-2.302616"
         id="path74" />
      <path
         style="fill:#9d2525;fill-opacity:1;stroke-width:0.264583"
         d="m 153.50795,88.824405 c 0,0 -0.89769,1.771761 -0.73233,2.69308 0.16537,0.921316 0.8977,2.196986 2.07888,2.078868 1.18117,-0.118118 1.18117,-2.126115 1.18117,-2.126115 0,0 0.73233,1.937126 1.98437,1.795386 1.25205,-0.14174 1.84264,-1.653646 1.79539,-2.385975 -0.0473,-0.732327 -1.6064,-2.267858 -1.6064,-2.267858 0,0 -3.66164,-0.07087 -4.70108,0.212614 z"
         id="path58" />
      <path
         style="fill:#e8b720;fill-opacity:1;stroke-width:0.231991"
         d="m 153.14438,82.873881 c 1.64085,-0.453544 2.34179,-0.874678 3.0661,-0.745687 0.78494,0.139789 1.46797,0.864941 2.33794,1.15493 0.86996,0.289989 4.08325,0.460725 4.29039,1.040703 0.20713,0.579978 -1.90565,5.302657 -7.58116,4.681252 -5.6755,-0.621405 -6.75259,-4.929814 -5.96548,-5.965491 0.78711,-1.035674 2.21135,0.287837 3.85221,-0.165707 z"
         id="path45"
         sodipodi:nodetypes="zsssssz" />
      <path
         style="display:inline;fill:#95740f;fill-opacity:1;stroke-width:0.280223"
         d="m 155.19808,83.033113 c -0.37517,-0.0081 -0.46767,0.289129 -0.51962,0.578258 -0.0519,0.289129 0.44168,0.385505 0.51962,0.240942 0.078,-0.144566 0.21435,-0.650542 0,-0.8192 z"
         id="path47"
         sodipodi:nodetypes="ccsc" />
      <path
         style="fill:#95740f;fill-opacity:1;stroke-width:0.231991"
         d="m 149.92778,84.136761 c 0,0 3.82277,2.035886 5.63896,2.196998 1.81618,0.161114 6.73746,-1.347493 6.73746,-1.347493 0,0 0.2197,-0.117171 -0.29293,0.26364 -0.51264,0.380813 -5.31674,1.450019 -5.9612,1.450019 -0.64445,0 -2.72428,-0.556572 -4.15964,-1.215671 -1.43538,-0.659101 -1.96265,-1.347493 -1.96265,-1.347493 z"
         id="path46" />
      <path
         style="fill:#95740f;fill-opacity:1;stroke-width:0.356789"
         d="m 156.64431,83.294499 c -0.10075,0.144322 -0.13545,0.615649 0.1022,0.765137 0.23759,0.149483 0.40732,0.02991 0.44125,-0.328874 0.0339,-0.358769 -0.35893,-0.725247 -0.54345,-0.436263 z"
         id="path48"
         sodipodi:nodetypes="cssc" />
      <path
         style="display:inline;fill:#fff6e7;fill-opacity:1;stroke-width:0.264583"
         d="m 162.61368,80.133568 c 0.0473,0.47247 -0.9661,2.459014 -2.54868,2.584124 -1.5826,0.125108 -2.98524,-1.888697 -2.78123,-2.984944 0.16295,-0.875584 0.54973,-1.890708 1.88943,-2.028349 1.3397,-0.137647 2.87219,0.263101 3.44048,2.429169 z"
         id="path49-4"
         sodipodi:nodetypes="csssc" />
      <path
         style="display:inline;fill:#fff6e7;fill-opacity:1;stroke-width:0.264583"
         d="m 150.28193,79.204082 c -0.10472,0.463141 0.65818,2.558693 2.21359,2.876373 1.55543,0.317681 3.19377,-1.509507 3.12533,-2.622473 -0.0547,-0.888939 -0.31442,-1.943739 -1.62724,-2.244158 -1.31281,-0.300426 -2.8828,-0.09007 -3.71168,1.990258 z"
         id="path49-4-3"
         sodipodi:nodetypes="csssc" />
      <path
         style="fill:#9d2525;fill-opacity:1;stroke-width:0.264583"
         d="m 156.38765,72.217075 c 0,0 -1.98438,-4.842819 -0.51972,-5.905878 1.46466,-1.063059 2.17336,0.236236 2.17336,0.236236 0,0 0.28349,-0.54334 0.85045,-0.307107 0.56696,0.236236 0.8032,1.630024 0.77957,1.960753 -0.0236,0.330729 -0.0709,0.496094 -0.0709,0.496094 0,0 0.18898,-0.165365 0.40159,0.354351 0.21262,0.519718 0.21262,1.748141 0,2.456846 -0.21261,0.708705 -0.45165,1.196692 -0.45165,1.196692 0,0 -0.84879,-0.138088 -1.58399,0.116215 -0.57573,0.199139 -0.8445,0.683995 -1.31136,0.79812 z"
         id="path49"
         sodipodi:nodetypes="cscsscsscscc" />
      <path
         inkscape:connector-curvature="0"
         id="path4633-6"
         d="m 152.45381,82.094825 c -0.30176,-0.08093 -0.37689,-0.04393 -0.44089,-0.680316 -0.0504,-0.502216 -0.0434,-0.568622 0.0946,-0.888825 0.19315,-0.448168 0.50871,-0.868071 0.73563,-0.978876 0.47754,-0.233182 1.15579,0.18571 1.21554,0.75073 0.017,0.161659 -0.31152,1.227487 -0.46628,1.51228 -0.0734,0.135042 -0.21496,0.200728 -0.27678,0.237904 -0.26835,0.161361 -0.76888,0.07203 -0.86182,0.0471 z"
         style="display:inline;fill:#111111;fill-opacity:1;stroke:none;stroke-width:0.0547019"
         sodipodi:nodetypes="scsscsss" />
      <path
         inkscape:connector-curvature="0"
         id="path4633-6-0"
         d="m 159.53406,82.706694 c 0.32062,0.03054 0.47405,0.06019 0.77896,-0.502047 0.24052,-0.443746 0.25972,-0.5077 0.25615,-0.856357 -0.005,-0.487992 -0.13383,-0.997208 -0.30032,-1.187081 -0.35036,-0.399576 -1.13779,-0.275258 -1.4112,0.222803 -0.0781,0.142538 -0.18692,1.252529 -0.15421,1.575001 0.0155,0.152914 0.0631,0.325602 0.10575,0.383776 0.19809,0.221115 0.43262,0.336066 0.72487,0.363905 z"
         style="display:inline;fill:#111111;fill-opacity:1;stroke:none;stroke-width:0.0547019"
         sodipodi:nodetypes="scsscsss" />
      <path
         style="fill:#a43d17;fill-opacity:1;stroke-width:0.293271"
         d="m 164.56138,100.6457 c 0,0 -7.89025,1.50925 -12.18973,0.81267 -4.29948,-0.69658 -9.73288,-2.379971 -10.06361,-2.844357 -0.33073,-0.464385 -0.94494,-0.812675 -0.94494,-0.812675 0,0 -3.35454,5.572622 -3.44904,6.385302 -0.0945,0.81267 -0.54777,1.53428 0.72786,2.34695 1.27567,0.81268 3.38263,4.27054 13.06827,3.63201 9.68564,-0.63854 14.59933,-6.09507 14.59933,-6.09507"
         id="path59"
         sodipodi:nodetypes="csscsssc" />
      <path
         style="display:inline;fill:#069214;fill-opacity:1;stroke-width:0.264583"
         d="m 145.49721,99.313242 c 0,0 -1.37017,0.377976 -4.63021,5.835008 -3.26004,5.45703 -4.8192,10.22898 -4.48847,11.74088 0.33073,1.51191 9.75651,6.28386 11.12668,6.4256 1.37016,0.14174 8.3391,-11.9535 8.57533,-12.82757 0.23624,-0.87407 0.23624,-3.66164 -0.11812,-4.51209 -0.35435,-0.85044 -2.4096,-3.5199 -5.22079,-5.17355 -2.8112,-1.653643 -3.68527,-2.315101 -5.24442,-1.488278 z"
         id="path52" />
      <path
         style="display:inline;fill:#2c7034;fill-opacity:1;stroke-width:0.264583"
         d="m 154.08088,104.03467 c 0,0 -5.21175,-4.543591 -7.21627,-4.677224 -2.00453,-0.133635 -2.53906,2.037934 -1.73726,3.340874 0.80181,1.30294 5.01131,3.97563 5.84652,4.40994 0.83522,0.43432 1.57021,0.735 2.00453,0.83522 0.43431,0.10023 2.63928,0.13364 2.90655,-0.10022 0.26727,-0.23386 0.10023,-2.6727 -1.80407,-3.80859 z"
         id="path51" />
      <path
         style="fill:#7aedf1;fill-opacity:1;stroke:none;stroke-width:0.198215;stroke-opacity:1"
         d="m 144.72399,101.61954 c 0,0 0.63712,-0.56633 1.09727,-0.28316 0.46014,0.28316 0.99107,1.5928 2.22991,2.12373 1.23885,0.53093 1.38043,1.38042 2.79625,2.05294 1.41582,0.67252 2.76085,1.16805 3.36257,1.34503 0.60173,0.17698 1.45122,0.7787 1.45122,0.92028 0,0.14159 -1.27424,0.88489 -2.93783,0.31856 -1.66359,-0.56632 -7.29148,-4.07048 -7.68083,-4.95537 -0.38935,-0.88489 -0.31856,-1.52201 -0.31856,-1.52201 z"
         id="path75" />
      <path
         style="display:inline;fill:#069214;fill-opacity:1;stroke-width:0.264583"
         d="m 152.41045,115.12635 c 0,0 10.05602,-4.28508 10.92464,-5.28734 0.86863,-1.00226 2.41353,-2.13007 2.41353,-2.13007 -1.10293,5.51465 -1.57831,3.07428 -0.70969,4.41062 0.86863,1.33635 2.02084,0.86953 2.02084,0.86953 0,0 -3.64944,0.70084 -5.52032,1.50266 -1.87089,0.80181 -11.8017,5.71272 -11.8017,5.71272 0,0 -1.80407,-2.40543 2.6727,-5.07812 z"
         id="path53"
         sodipodi:nodetypes="cscscscc" />
      <path
         style="display:inline;fill:#1d3422;fill-opacity:1;stroke-width:0.264583"
         d="m 167.82143,104.95926 c 0,0 -2.26786,2.12612 -3.40179,3.28367 -1.13393,1.15755 -1.29929,1.6064 -1.86626,1.79539 -0.56696,0.18898 -1.72451,0.99219 -1.72451,0.99219 0,0 -0.30711,1.03943 -0.0236,1.93712 0.28348,0.8977 0.96856,1.6064 0.96856,1.6064 0,0 1.72452,-0.66146 2.69308,-0.7087 0.96857,-0.0473 4.93732,-0.11812 4.93732,-0.11812 0,0 -2.92932,-4.91369 -1.58278,-8.78795 z"
         id="path55" />
      <ellipse
         style="display:inline;fill:#152619;fill-opacity:1;stroke-width:0.296224"
         id="path54"
         cx="147.2672"
         cy="155.82899"
         rx="3.3945212"
         ry="4.7480898"
         transform="matrix(0.95436362,-0.29864709,0.18537196,0.98266843,0,0)" />
      <ellipse
         style="display:inline;fill:#1d3422;fill-opacity:1;stroke-width:0.264583"
         id="path56"
         cx="171.27802"
         cy="106.60713"
         rx="0.22550866"
         ry="0.35079125" />
      <ellipse
         style="display:inline;fill:#1d3422;fill-opacity:1;stroke-width:0.264583"
         id="path56-581"
         cx="170.1387"
         cy="105.6275"
         rx="0.22550866"
         ry="0.35079125" />
      <ellipse
         style="display:inline;fill:#1d3422;fill-opacity:1;stroke-width:0.264583"
         id="path56-38"
         cx="168.73495"
         cy="105.40707"
         rx="0.22550866"
         ry="0.35079125" />
      <ellipse
         style="display:inline;fill:#1d3422;fill-opacity:1;stroke-width:0.264583"
         id="path56-6"
         cx="171.87538"
         cy="107.99357"
         rx="0.22550866"
         ry="0.35079125" />
      <ellipse
         style="display:inline;fill:#1d3422;fill-opacity:1;stroke-width:0.264583"
         id="path56-7"
         cx="169.60686"
         cy="106.85557"
         rx="0.22550866"
         ry="0.35079125" />
      <ellipse
         style="display:inline;fill:#1d3422;fill-opacity:1;stroke-width:0.264583"
         id="path56-5"
         cx="167.7688"
         cy="106.45736"
         rx="0.22550866"
         ry="0.35079125" />
      <ellipse
         style="display:inline;fill:#1d3422;fill-opacity:1;stroke-width:0.264583"
         id="path56-1"
         cx="167.06662"
         cy="107.9855"
         rx="0.22550866"
         ry="0.35079125" />
      <ellipse
         style="display:inline;fill:#1d3422;fill-opacity:1;stroke-width:0.264583"
         id="path56-55"
         cx="168.51395"
         cy="107.5324"
         rx="0.22550866"
         ry="0.35079125" />
      <ellipse
         style="display:inline;fill:#1d3422;fill-opacity:1;stroke-width:0.264583"
         id="path56-74"
         cx="170.81703"
         cy="108.01682"
         rx="0.22550866"
         ry="0.35079125" />
      <ellipse
         style="display:inline;fill:#1d3422;fill-opacity:1;stroke-width:0.264583"
         id="path56-9"
         cx="172.05374"
         cy="109.49814"
         rx="0.22550866"
         ry="0.35079125" />
      <ellipse
         style="display:inline;fill:#1d3422;fill-opacity:1;stroke-width:0.264583"
         id="path56-58"
         cx="170.86833"
         cy="109.75734"
         rx="0.22550866"
         ry="0.35079125" />
      <ellipse
         style="display:inline;fill:#1d3422;fill-opacity:1;stroke-width:0.264583"
         id="path56-57"
         cx="170.31111"
         cy="111.02688"
         rx="0.22550866"
         ry="0.35079125" />
      <ellipse
         style="display:inline;fill:#1d3422;fill-opacity:1;stroke-width:0.264583"
         id="path56-97"
         cx="168.38147"
         cy="110.49293"
         rx="0.22550866"
         ry="0.35079125" />
      <ellipse
         style="display:inline;fill:#1d3422;fill-opacity:1;stroke-width:0.264583"
         id="path56-24"
         cx="169.13527"
         cy="108.82786"
         rx="0.22550866"
         ry="0.35079125" />
      <ellipse
         style="display:inline;fill:#1d3422;fill-opacity:1;stroke-width:0.264583"
         id="path56-70"
         cx="169.99583"
         cy="108.76583"
         rx="0.22550866"
         ry="0.35079125" />
      <ellipse
         style="display:inline;fill:#1d3422;fill-opacity:1;stroke-width:0.264583"
         id="path56-22"
         cx="169.57018"
         cy="110.06339"
         rx="0.22550866"
         ry="0.35079125" />
      <ellipse
         style="display:inline;fill:#1d3422;fill-opacity:1;stroke-width:0.264583"
         id="path56-2"
         cx="168.01399"
         cy="108.96687"
         rx="0.22550866"
         ry="0.35079125" />
      <ellipse
         style="display:inline;fill:#1d3422;fill-opacity:1;stroke-width:0.264583"
         id="path56-588"
         cx="167.01114"
         cy="109.88829"
         rx="0.22550866"
         ry="0.35079125" />
      <ellipse
         style="display:inline;fill:#1d3422;fill-opacity:1;stroke-width:0.264583"
         id="path56-50"
         cx="167.57849"
         cy="111.65894"
         rx="0.22550866"
         ry="0.35079125" />
      <ellipse
         style="display:inline;fill:#1d3422;fill-opacity:1;stroke-width:0.264583"
         id="path56-8"
         cx="169.24088"
         cy="111.62612"
         rx="0.22550866"
         ry="0.35079125" />
      <ellipse
         style="display:inline;fill:#1d3422;fill-opacity:1;stroke-width:0.264583"
         id="path56-0"
         cx="170.99274"
         cy="111.73769"
         rx="0.22550866"
         ry="0.35079125" />
      <ellipse
         style="display:inline;fill:#1d3422;fill-opacity:1;stroke-width:0.264583"
         id="path56-3"
         cx="171.94815"
         cy="110.87175"
         rx="0.22550866"
         ry="0.35079125" />
      <ellipse
         style="display:inline;fill:#1d3422;fill-opacity:1;stroke-width:0.264583"
         id="path56-11"
         cx="170.06921"
         cy="112.95114"
         rx="0.22550866"
         ry="0.35079125" />
      <ellipse
         style="display:inline;fill:#1d3422;fill-opacity:1;stroke-width:0.264583"
         id="path56-747"
         cx="168.71826"
         cy="112.84614"
         rx="0.22550866"
         ry="0.35079125" />
      <path
         style="fill:#6f290e;fill-opacity:1;stroke-width:0.334416"
         d="m 151.00994,75.248692 c 0,0 0.83083,-1.261931 1.58253,-1.442209 0.75169,-0.180273 1.89903,0.04507 2.29466,0.450691 0.39562,0.405624 0.98907,1.081656 0.79126,1.036587 -0.19783,-0.04507 -1.06821,-0.946449 -1.5034,-1.081653 -0.4352,-0.135208 -0.94951,-0.270416 -1.74078,0.225343 -0.79126,0.49576 -1.42427,0.811241 -1.42427,0.811241 z"
         id="path61" />
      <path
         style="display:inline;fill:#6f290e;fill-opacity:1;stroke-width:0.334416"
         d="m 162.25011,76.025896 c 0,0 -0.62123,-1.377254 -1.33505,-1.673925 -0.71381,-0.296664 -1.88234,-0.255249 -2.33703,0.08284 -0.45469,0.338092 -1.14741,0.911976 -0.94496,0.898695 0.20246,-0.01328 1.20421,-0.765971 1.65528,-0.830787 0.45109,-0.06482 0.98029,-0.11715 1.68339,0.497293 0.70309,0.614442 1.27837,1.025886 1.27837,1.025886 z"
         id="path61-5" />
      <path
         style="fill:#000000;fill-opacity:1;stroke-width:0.264583"
         d="m 157.27353,79.481306 c 0,0 0.21261,-1.854446 1.99619,-1.807199 1.78357,0.04725 1.83082,0.224422 2.50409,0.803198 0.67327,0.578776 0.87407,1.346541 1.03943,1.523717 0.16537,0.177175 0.28348,0.307107 0.18899,0.318918 -0.0945,0.0118 -0.36616,0.14174 -0.66146,-0.602401 -0.29529,-0.74414 -1.12211,-1.700892 -1.39379,-1.771764 -0.27166,-0.07087 -1.28748,-0.330729 -1.75995,-0.212611 -0.47247,0.118118 -1.08668,0.507908 -1.45284,1.027623 -0.36617,0.519719 -0.46066,0.720519 -0.46066,0.720519 z"
         id="path63" />
      <path
         style="display:inline;fill:#000000;fill-opacity:1;stroke-width:0.264583"
         d="m 155.65402,79.259782 c 0,0 0.0762,-1.865037 -1.69329,-2.093688 -1.76948,-0.228646 -1.84352,-0.06089 -2.59806,0.407013 -0.75455,0.467906 -1.07146,1.19547 -1.26219,1.344996 -0.19074,0.149523 -0.32749,0.259665 -0.23596,0.28592 0.0915,0.02625 0.3399,0.196566 0.74653,-0.49307 0.40662,-0.689636 1.37122,-1.507283 1.65059,-1.535366 0.27934,-0.02808 1.3231,-0.128016 1.77167,0.06162 0.44858,0.189637 0.99525,0.669571 1.27679,1.23958 0.28156,0.570015 0.34392,0.782994 0.34392,0.782995 z"
         id="path63-8" />
      <path
         style="fill:#863312;fill-opacity:1;stroke-width:0.264583"
         d="m 147.13968,132.38616 c 0,0 0.22441,4.94879 5.48065,5.33891 5.85825,0.43481 5.90588,-2.45684 6.37835,-3.68527 0.47247,-1.22842 1.74814,-1.18117 0.18899,-1.08668 -1.55915,0.0945 -12.04799,-0.56696 -12.04799,-0.56696 z"
         id="path64"
         sodipodi:nodetypes="csssc" />
      <path
         style="display:inline;fill:#863312;fill-opacity:1;stroke-width:0.264583"
         d="m 171.48053,131.66277 c 0,0 0.94248,5.29053 -4.94384,5.83952 -4.98436,0.46486 -6.11412,-1.87961 -6.70213,-3.05712 -0.58801,-1.17749 -1.85328,-1.00822 -0.29225,-1.06357 1.56103,-0.0553 11.93822,-1.71883 11.93822,-1.71883 z"
         id="path64-7"
         sodipodi:nodetypes="csssc" />
      <path
         style="display:inline;fill:none;fill-opacity:1;stroke:#6f290e;stroke-width:0.16175;stroke-dasharray:none;stroke-opacity:1"
         d="m 143.73688,130.60276 c 0,0 0.86349,0.0487 1.31891,-0.69217 0.45541,-0.74087 0.55613,-1.11846 0.55613,-1.11846 0,0 -0.6486,2.16085 -0.035,2.52763 0.61366,0.36677 1.11566,-1.49573 1.11566,-1.49573 0,0 -0.34713,2.22896 0.61794,2.28338 0.96507,0.0544 1.54809,-2.67226 1.54809,-2.67226 0,0 -0.58387,2.34336 0.16658,2.56454 0.75046,0.22118 0.71671,-1.23716 0.71671,-1.23716 0,0 -0.47901,2.29818 0.71298,2.39094 1.19201,0.0928 1.41043,-2.90999 1.41043,-2.90999 0,0 -0.012,2.9633 1.09644,2.77029 1.10841,-0.19301 0.86409,-1.94429 0.86409,-1.94429 0,0 0.0952,2.48388 0.8621,2.45046 0.7668,-0.0334 0.96809,-2.3728 0.96809,-2.3728 0,0 0.0968,2.45841 0.96042,2.5071 0.86348,0.0487 1.24082,-3.04731 1.24082,-3.04731 0,0 -0.16764,3.00563 1.07517,3.10126 1.24278,0.0956 1.17702,-2.0544 1.17702,-2.0544 0,0 0.10009,2.4075 1.46585,2.17789 1.36565,-0.22961 1.05496,-2.13794 1.05496,-2.13794 0,0 0.37456,1.70752 0.85874,1.70927 0.48418,0.002 0.73057,-1.84961 0.73057,-1.84961 0,0 1.03074,1.41235 1.79592,1.4044 0.76515,-0.008 0.72317,-2.1311 0.72317,-2.1311 0,0 -0.19974,1.52183 1.36503,1.76338 1.56477,0.24155 1.28103,-2.48292 1.28103,-2.48292 0,0 0.75388,1.75447 1.68124,1.60236 0.92737,-0.15213 0.64362,-2.87659 0.64362,-2.87659 0,0 0.0853,1.05243 0.59736,1.41347 0.51207,0.36105 0.51183,-2.01526 0.51183,-2.01526 0,0 0.341,1.83339 1.38553,1.84119 1.04454,0.007 0.78454,-2.68977 0.78454,-2.68977 0,0 0.41065,1.93952 1.08654,2.13094 0.67589,0.19142 0.59041,-2.4452 0.59041,-2.4452 0,0 0.72685,1.77849 0.82027,1.91152"
         id="path4066-0-9" />
      <path
         style="fill:#7aedf1;fill-opacity:1;stroke-width:0.264583"
         d="m 169.9166,113.12182 c 0,0 1.5368,7.14947 1.46998,10.95806 -0.0668,3.80859 -0.80163,8.09582 -0.46772,8.0849 1.4444,-0.0473 1.46999,-7.81764 1.00226,-10.69079 -0.46772,-2.87314 -2.00452,-8.35217 -2.00452,-8.35217 z"
         id="path66"
         sodipodi:nodetypes="csssc" />
      <path
         style="fill:#7aedf1;fill-opacity:1;stroke-width:0.264583"
         d="m 168.3798,110.51595 c 0,0 0.80181,2.73951 0.53454,4.81085 -0.26727,2.07134 -0.26727,3.34087 0.20045,2.6727 0.46772,-0.66818 0.40091,-5.34539 -0.73499,-7.48355 z"
         id="path67" />
      <path
         style="fill:#7aedf1;fill-opacity:1;stroke-width:0.264583"
         d="m 170.89248,107.9122 c 0,0 0.66146,2.26786 0.70871,3.9215 0.0472,1.65365 0.0472,8.17374 0.51971,8.17374 0.47248,0 0.80321,-4.91369 0.28349,-7.32329 -0.51972,-2.4096 -1.51191,-4.77195 -1.51191,-4.77195 z"
         id="path68" />
      <path
         style="fill:#7aedf1;fill-opacity:1;stroke-width:0.264583"
         d="m 168.68048,105.58817 c 0,0 0.51783,1.78736 0.51783,3.27405 0,1.48668 -0.15033,2.6894 0.0668,2.7061 0.21716,0.0167 0.80181,-1.82077 -0.58465,-5.98015 z"
         id="path69" />
      <path
         style="fill:#069214;fill-opacity:1;stroke-width:0.264583"
         d="m 137.73257,111.67951 c 0,0 -1.97111,-3.64155 -0.10023,-7.684 1.87089,-4.04244 7.18288,-10.523725 10.18966,-10.857812 3.00678,-0.334087 8.28535,0.73499 8.92012,5.278571 0.63476,4.543581 -1.30294,9.721921 -1.30294,9.721921 0,0 -1.2437,0.42076 -1.67802,0.42076 -0.43431,0 -0.92786,-0.28716 -0.92786,-0.28716 0,0 2.17157,-3.70837 1.87089,-7.11606 -0.30067,-3.407673 -0.59664,-4.478728 -4.14268,-5.879917 -2.37176,-0.937183 -7.42373,3.554554 -8.35217,4.911077 -4.30279,6.28664 -2.63929,7.78422 -2.63929,7.78422 z"
         id="path50"
         sodipodi:nodetypes="cssscscssscc" />
      <path
         style="fill:#a43d17;fill-opacity:1;stroke-width:0.388776"
         d="m 141.0813,97.392005 c 0.2727,0.353488 1.79679,1.311933 2.35396,2.071345 0.59463,0.81053 -0.4198,2.40832 -1.62496,2.00839 -1.20515,-0.39992 -1.06709,-0.40151 -1.06709,-0.40151 0,0 1.88004,0.49992 1.78362,0.74988 -0.0964,0.24996 -0.42611,1.97232 -2.11333,1.22248 -1.68721,-0.74988 -1.69495,-0.82255 -1.69495,-0.82255 0,0 2.29816,0.89429 2.43382,1.32323 0.16307,0.51561 0.12269,1.05122 -0.15384,1.27947 -0.49952,0.41227 -1.205,0.57707 -2.61741,-0.55306 -0.38796,-0.31042 -0.37793,-0.54211 -0.37793,-0.54211 0,0 1.4944,1.07089 1.63901,1.27087 0.14463,0.19995 0.0883,2.16681 -0.43302,2.0678 -2.33677,-0.44379 -3.14196,-1.39682 -3.14196,-1.84674 0,-0.44992 1.39925,-4.70694 5.01408,-7.827495 z"
         id="path57"
         sodipodi:nodetypes="csscsscssscsssc" />
      <path
         style="display:inline;fill:none;fill-opacity:1;stroke:#6f290e;stroke-width:0.264583;stroke-opacity:1"
         d="m 214.83222,19.938244 c 0,0 2.2206,1.511905 6.66182,1.937128 1.1689,0.111916 6.25566,0.375341 8.72012,0.247356 0.62422,-0.03242 1.27723,-0.07782 1.95257,-0.138894 2.89971,-0.262223 4.77045,-0.177055 7.49885,-0.473495 2.67771,-0.290934 7.74346,-1.524851 7.74346,-1.524851"
         id="path71"
         sodipodi:nodetypes="cssssc"
         transform="matrix(0.74915896,0,0,0.74915896,-13.847983,118.04307)" />
      <path
         style="display:inline;fill:#6f290e;fill-opacity:1;stroke:none;stroke-width:0.198215;stroke-opacity:1"
         d="m 170.73971,98.39855 c 0,0 -0.3069,0.979574 -0.37647,1.7461 -0.10899,1.20089 -0.50842,2.57216 -0.29605,2.32439 0.21237,-0.24777 0.67251,-4.07049 0.67251,-4.07049 z"
         id="path72"
         sodipodi:nodetypes="csscc" />
      <path
         style="display:inline;fill:#6f290e;fill-opacity:1;stroke:none;stroke-width:0.198215;stroke-opacity:1"
         d="m 173.71331,99.958275 c 0,0 -0.001,-0.05963 -0.16702,0.167275 -0.22692,0.31166 -0.54408,0.81957 -0.74156,1.14806 -0.62127,1.03347 -1.07382,1.50714 -0.78228,1.36053 0.29154,-0.14661 1.70962,-2.56324 1.70962,-2.56324 z"
         id="path72-7"
         sodipodi:nodetypes="cssscc" />
      <path
         style="display:inline;fill:#6f290e;fill-opacity:1;stroke:none;stroke-width:0.198215;stroke-opacity:1"
         d="m 174.68301,102.43141 c 0,0 -1.45164,1.17633 -1.93971,1.46416 -0.48805,0.28783 -0.90102,0.438 -0.78839,0.45051 0.11263,0.0125 1.17634,-0.42548 1.97725,-1.0637 0.80091,-0.63823 0.75085,-0.85097 0.75085,-0.85097 z"
         id="path73" />
    </g>
  </g>
</svg>
