<?xml version="1.0" encoding="UTF-8" standalone="no"?>
<!-- Created with Inkscape (http://www.inkscape.org/) -->

<svg
   width="210mm"
   height="297mm"
   viewBox="0 0 210 297"
   version="1.1"
   id="svg562"
   inkscape:version="1.2.2 (732a01da63, 2022-12-09)"
   sodipodi:docname="poule_02.svg"
   xmlns:inkscape="http://www.inkscape.org/namespaces/inkscape"
   xmlns:sodipodi="http://sodipodi.sourceforge.net/DTD/sodipodi-0.dtd"
   xmlns="http://www.w3.org/2000/svg"
   xmlns:svg="http://www.w3.org/2000/svg">
  <sodipodi:namedview
     id="namedview564"
     pagecolor="#ffffff"
     bordercolor="#000000"
     borderopacity="0.25"
     inkscape:showpageshadow="2"
     inkscape:pageopacity="0.0"
     inkscape:pagecheckerboard="0"
     inkscape:deskcolor="#d1d1d1"
     inkscape:document-units="mm"
     showgrid="false"
     inkscape:zoom="0.93806818"
     inkscape:cx="335.79649"
     inkscape:cy="561.79285"
     inkscape:window-width="2560"
     inkscape:window-height="1369"
     inkscape:window-x="-8"
     inkscape:window-y="-8"
     inkscape:window-maximized="1"
     inkscape:current-layer="layer1" />
  <defs
     id="defs559" />
  <g
     inkscape:label="Calque 1"
     inkscape:groupmode="layer"
     id="layer1">
    <g
       id="g30"
       transform="matrix(1.4959803,0,0,1.4959803,-112.89314,32.112257)"
       style="display:inline">
      <path
         style="fill:#e8b720;fill-opacity:1;stroke:none;stroke-width:0.365001;stroke-dasharray:none;stroke-opacity:1"
         d="m 111.62768,86.158851 c 0,0 3.27405,10.156245 3.27405,10.891235 0,0.734991 -0.4009,10.490334 -0.4009,10.490334 0,0 0.4009,5.61266 0.73499,5.61266 0.33409,0 0.33409,-4.47676 0.33409,-4.47676 l 1.87088,3.8754 c 0,0 1.00227,0.73499 0.26727,-1.46998 -0.73499,-2.20497 -1.46998,-2.80633 -0.93544,-2.73951 0.53454,0.0668 4.00904,2.13816 3.94222,1.67043 -0.0668,-0.46772 -3.8754,-3.0736 -3.8754,-3.0736 0,0 2.13815,0.13364 1.87088,-0.20045 -0.26726,-0.33409 -2.27179,-0.26727 -2.13815,-0.93544 0.13363,-0.66817 1.60361,-8.886724 1.73725,-9.888984 0.13364,-1.00226 -1.06908,-9.755335 -1.06908,-9.755335 z"
         id="path20" />
      <path
         style="fill:#e8b720;fill-opacity:1;stroke:none;stroke-width:0.365001;stroke-dasharray:none;stroke-opacity:1"
         d="m 125.79297,84.287967 c 0,0 -1.1359,7.617175 -1.60362,8.485805 -0.46772,0.86863 -4.87767,7.550368 -4.87767,7.550368 0,0 1.67044,0 2.27179,0.0668 0.60136,0.0668 2.20498,0.33409 1.80407,0.46772 -0.4009,0.13364 -3.20723,-0.20045 -2.60588,0.0668 0.60136,0.26727 2.73951,1.20271 2.73951,1.60362 0,0.4009 -3.80859,-1.46999 -3.80859,-1.46999 l 2.07134,2.73952 -4.07586,-3.0736 c 0,0 -0.86862,1.60361 -0.93544,1.00226 -0.0668,-0.60136 4.2095,-9.087178 4.47677,-9.888978 0.26726,-0.80181 0.33408,-8.686261 0.33408,-8.686261 0,0 2.53906,0.534538 3.20724,0.400904 0.66817,-0.133635 1.00226,0.734992 1.00226,0.734992 z"
         id="path21" />
      <path
         style="fill:#863312;fill-opacity:1;stroke:none;stroke-width:0.365001;stroke-dasharray:none;stroke-opacity:1"
         d="m 130.91244,80.454842 c 0,0 -2.43342,3.591266 -5.24778,4.19213 -1.77757,0.379511 -3.44904,0.276766 -5.04594,-0.290202 -0.82098,-0.29148 -2.81246,-2.857752 -2.81246,-2.857752 z"
         id="path17"
         sodipodi:nodetypes="csscc" />
      <path
         style="fill:#863312;fill-opacity:1;stroke:none;stroke-width:0.365001;stroke-dasharray:none;stroke-opacity:1"
         d="m 103.88714,78.045245 c 0,0 -0.14174,4.157736 3.35454,6.47284 3.49628,2.315105 9.44941,3.307292 11.48103,2.220611 2.03162,-1.08668 3.40178,-4.063243 3.54352,-4.960937"
         id="path16" />
      <path
         style="fill:#f1d4a0;fill-opacity:1;stroke-width:0.264583"
         d="m 146.12598,80.454842 c 0,0 -1.98437,6.331101 -1.5119,14.646574 0.47247,8.315484 3.1183,18.615334 13.89062,23.245544 10.77232,4.63021 16.81994,5.57515 30.33259,1.22842 13.51265,-4.34672 13.04018,-16.06399 10.39435,-20.788693 -2.64584,-4.724705 -10.58334,-8.598955 -13.60715,-9.921875 -3.02381,-1.322917 -14.45759,-2.834821 -18.52083,-4.346727 -4.06324,-1.511903 -7.55952,-4.630208 -7.55952,-4.630208 0,0 -4.06325,-0.850445 -7.65402,-0.661458 -3.59077,0.188989 -5.76414,1.228423 -5.76414,1.228423 z"
         id="path11" />
      <path
         style="fill:#a43d17;fill-opacity:1;stroke:#6f290e;stroke-width:0.365;stroke-dasharray:none;stroke-opacity:1"
         d="m 136.95147,42.460285 c 0,0 4.6104,5.479026 8.95353,9.354434 4.34313,3.875408 11.42577,14.699824 13.0962,16.637529 1.67044,1.937702 3.67496,4.81085 3.74178,6.280832 0.0668,1.469983 -0.20045,5.412209 -2.07134,5.813113 -1.87089,0.400905 -5.0113,0.467723 -5.94675,-1.336347 -0.93544,-1.804069 -0.33409,-2.271792 0.80181,-1.670436 1.1359,0.601358 3.40769,0.868627 4.2095,0.06682 0.8018,-0.801809 0.4009,-1.870887 0.4009,-2.271789 0,-0.400905 -7.28309,-1.536801 -10.82442,-4.543584 -3.54132,-3.006781 -6.5481,-4.476763 -8.81989,-9.421249 -2.27179,-4.944488 -6.08038,-17.506156 -6.08038,-17.506156 z"
         id="path9" />
      <path
         style="fill:#9d2525;fill-opacity:1;stroke-width:0.264583"
         d="m 132.38284,15.192865 c 0,0 1.03943,-1.464658 2.26785,-2.173363 1.22842,-0.708705 3.11831,-3.9687503 0.99219,-5.3389143 -2.12612,-1.370163 -4.15774,-0.755952 -4.7247,-0.04725 -0.56697,0.708706 -0.56697,0.708706 -0.56697,0.708706 0,0 0.33073,-2.598586 -0.94494,-3.6852683 -1.27567,-1.086682 -4.11049,-0.944941 -4.81919,0.6614583 -0.70871,1.606399 -0.66146,1.984375 -0.66146,1.984375 0,0 -0.99219,-2.126116 -3.63802,-0.992187 -2.64584,1.133928 -3.77976,2.22061 -3.26005,4.7719493 0.51972,2.551339 2.45685,5.71689 2.45685,5.71689 0,0 3.82701,-2.740328 5.90588,-3.02381 2.07886,-0.283482 5.5279,0.992188 6.00037,1.228423 0.47247,0.236235 0.99219,0.188988 0.99219,0.188988 z"
         id="path5" />
      <path
         style="fill:#a43d17;fill-opacity:1;stroke-width:0.264583"
         d="m 108.08636,38.317608 c 0,0 3.60814,-1.469983 2.93996,-5.34539 C 110.35815,29.09681 108.22,31.90314 108.22,31.90314 c 0,0 1.60361,-2.939966 0.8018,-4.409948 -0.8018,-1.469983 -3.0736,-1.336347 -3.4745,0.267271 -0.4009,1.603616 -0.53454,1.870885 -0.53454,1.870885 0,0 0.40091,-4.944486 -2.80633,-4.81085 -3.20723,0.133633 -3.60814,2.939965 -3.60814,4.142676 0,1.202714 0,1.336347 0,1.336347 0,0 -1.73725,-0.400902 -2.539061,1.069078 -0.80181,1.469983 -0.93544,3.073601 -0.13363,4.276313 0.801811,1.202713 2.939961,3.608138 3.741771,3.608138 0.80181,0 1.73725,-1.336347 4.54358,-1.336347 2.80633,0 3.87541,0.400905 3.87541,0.400905 z"
         id="path2" />
      <path
         style="fill:#863312;fill-opacity:1;stroke-width:0.264583"
         d="m 132.27425,15.06516 c 0,0 -3.20723,-2.539061 -5.07812,-2.539061 -1.87089,0 -3.20723,0.668174 -5.47902,2.004521 -2.27179,1.336348 -4.81085,2.405426 -6.1472,12.828939 -1.33635,10.423511 -2.80633,13.49711 -2.80633,13.49711 l -7.48355,-4.677217 c 0,0 -2.40543,-0.801809 -4.94449,0.935442 -2.53906,1.737254 -11.107211,10.061333 -9.755331,21.648833 0.93544,8.018085 3.20724,15.100727 13.096201,20.045214 9.11307,4.556539 21.1143,5.612659 27.92967,2.00452 6.81537,-3.608139 14.03165,-8.418989 12.82894,-18.040691 -1.20272,-9.621702 -5.27858,-17.071841 -5.67949,-19.610904 -0.25552,-1.618354 -0.10179,-9.074978 -0.17477,-14.567415 -0.0415,-3.124724 -0.56557,-6.505759 -0.69246,-7.661811 -0.37798,-3.443468 -1.67518,-5.396401 -3.19311,-6.614632 -1.33467,-1.071158 -2.42094,0.747152 -2.42094,0.747152 z"
         id="path1"
         sodipodi:nodetypes="csssccsssssssssc" />
      <path
         style="fill:#e8b720;fill-opacity:1;stroke-width:0.264583"
         d="m 123.77293,30.813447 c 0,0 -1.32188,2.594416 0.68265,3.596676 2.00452,1.00226 2.80737,0.633433 5.6137,1.50206 2.80633,0.868624 6.01356,0.534538 7.08264,-0.200454 1.06908,-0.734991 2.00452,-0.868624 0.53454,-0.734991 -1.46998,0.133636 -7.88445,-1.469983 -9.28762,-1.336347 -1.40316,0.133636 -3.60813,0.200454 -3.54132,-1.336347 0.0668,-1.5368 0.90882,-1.548263 0.90882,-1.548263 z"
         id="path4"
         sodipodi:nodetypes="csssssscc" />
      <path
         style="fill:#9d2525;fill-opacity:1;stroke-width:0.369273"
         d="m 126.60298,35.315865 c 0,0 -2.43682,1.530148 -1.74059,2.66683 0.69623,1.136678 3.33196,0.08744 3.33196,0.08744 0,0 -1.19354,3.453759 1.19355,3.934661 2.38708,0.480904 3.82927,-0.830649 4.12765,-2.142204 0.2984,-1.311554 0.0497,-3.235167 0.0497,-3.235167 0,0 -5.56985,-1.530148 -6.96231,-1.311558 z"
         id="path7" />
      <path
         style="fill:#e8b720;fill-opacity:1;stroke-width:0.264583"
         d="m 123.6364,31.12895 c 0,0 0.80668,-2.244233 4.08687,-2.244233 3.1183,-10e-7 3.827,-0.59059 4.86644,-1.630024 1.03943,-1.039434 1.5119,-0.94494 2.92931,-0.283481 1.41741,0.661458 2.91599,0.196947 3.20135,0.958084 0.62804,1.675182 2.83271,5.226055 3.00451,6.137482 0.16332,0.866384 -2.22494,1.775411 -7.03268,1.314405 -5.02861,-0.482185 -7.55952,-4.819198 -8.78794,-4.630208 -1.22843,0.188986 -2.26786,0.377975 -2.26786,0.377975 z"
         id="path3"
         sodipodi:nodetypes="csssssssc" />
      <path
         style="display:inline;fill:#fff6e7;fill-opacity:1;stroke:none;stroke-width:0.0155241"
         d="m 130.25924,27.572515 c 0.47433,-0.358923 0.8483,-0.832073 1.25227,-1.584373 0.56024,-1.043284 0.62363,-2.067609 0.29431,-3.27087 -0.24644,-0.900448 -0.48539,-1.535611 -1.90594,-1.533374 -1.1648,0.0018 -2.3974,-0.837333 -3.3945,0.06716 -2.0087,1.822129 -1.9972,2.333482 -2.0116,2.618971 -0.003,0.858474 0.38469,1.113555 0.86533,1.714325 0.7434,0.915057 1.96981,1.784389 2.98815,2.316052 0.65691,0.243264 1.3459,0.05002 1.91198,-0.327894 z"
         id="path5227-4"
         inkscape:connector-curvature="0"
         sodipodi:nodetypes="sssssscss" />
      <path
         inkscape:connector-curvature="0"
         id="path4633-41"
         d="m 129.77302,26.995993 c -0.41555,0.05996 -0.60334,-0.113606 -0.90129,-0.832951 -0.23502,-0.567718 -0.24841,-0.647601 -0.17767,-1.069624 0.0989,-0.59067 0.36619,-1.191592 0.62292,-1.400863 0.54029,-0.440403 1.56104,-0.191414 1.82938,0.446233 0.0767,0.182456 0.0107,1.541028 -0.0936,1.927676 -0.0495,0.183336 -0.14528,0.38665 -0.21288,0.451816 -0.179,0.172589 -0.7623,0.433772 -1.06689,0.477715 z"
         style="display:inline;fill:#111111;fill-opacity:1;stroke:none;stroke-width:0.0698512" />
      <path
         style="display:inline;fill:none;fill-opacity:1;stroke:#6f290e;stroke-width:0.251498;stroke-dasharray:none;stroke-opacity:1"
         d="m 143.14722,64.372282 c 0,0 -1.33988,-0.135177 -1.85114,-1.381036 -0.51126,-1.245865 -0.56984,-1.848924 -0.56984,-1.848924 0,0 0.44625,3.468644 -0.59066,3.881553 -1.0369,0.412911 -1.33382,-2.562943 -1.33382,-2.562943 0,0 -0.0346,3.499741 -1.53212,3.34866 -1.49751,-0.15108 -1.69866,-4.470798 -1.69866,-4.470798 0,0 0.30024,3.732567 -0.90989,3.889153 -1.21008,0.156585 -0.78642,-2.069809 -0.78642,-2.069809 0,0 0.15052,3.63785 -1.70565,3.49039 -1.85617,-0.147412 -1.42644,-4.801623 -1.42644,-4.801623 0,0 -0.73705,4.543551 -2.39184,3.978498 -1.65482,-0.565036 -0.83274,-3.189149 -0.83274,-3.189149 0,0 -0.77974,3.782856 -1.95007,3.545361 -1.17031,-0.237504 -0.88336,-3.871024 -0.88336,-3.871024 0,0 -0.77576,3.743444 -2.11563,3.608267 -1.33989,-0.135178 -1.13072,-4.970831 -1.13072,-4.970831 0,0 -0.50855,4.646213 -2.44353,4.490804 -1.93499,-0.155366 -1.28576,-3.433899 -1.28576,-3.433899 0,0 -0.7678,3.664629 -2.80873,2.981009 -2.04093,-0.683618 -1.07678,-3.532247 -1.07678,-3.532247 0,0 -1.01118,2.525409 -1.75596,2.410464 -0.74477,-0.114989 -0.65159,-3.011645 -0.65159,-3.011645 0,0 -1.94469,1.913709 -3.11899,1.715618 -1.1743,-0.198085 -0.56843,-3.441149 -0.56843,-3.441149 0,0 -0.0809,2.380401 -2.54811,2.370352 -2.46716,-0.01005 -1.33638,-4.115773 -1.33638,-4.115773 0,0 -1.60625,2.505186 -2.99317,2.046788 -1.38688,-0.458395 -0.25609,-4.564119 -0.25609,-4.564119 0,0 -0.39947,1.591887 -1.27872,2.020702 -0.87927,0.428822 -0.27305,-3.212308 -0.27305,-3.212308 0,0 -0.99162,2.726433 -2.59943,2.484606 -1.607783,-0.241817 -0.520379,-4.312119 -0.520379,-4.312119 0,0 -1.125758,2.872138 -2.213652,3.00124 -1.087876,0.129106 -0.284289,-3.890194 -0.284289,-3.890194 0,0 -1.570827,2.548563 -1.74834,2.729699"
         id="path4066-8" />
      <path
         inkscape:export-ydpi="96"
         inkscape:export-xdpi="96"
         style="display:inline;fill:none;stroke:#6f290e;stroke-width:0.208543;stroke-linecap:butt;stroke-linejoin:miter;stroke-miterlimit:4;stroke-dasharray:none;stroke-opacity:1"
         d="m 144.2999,73.353711 -0.78025,-1.215248 c 0,0 -0.27082,1.566191 -0.93928,2.062979 -0.66848,0.496785 -1.08123,-1.496163 -1.08123,-1.496163 0,0 -0.24753,2.442276 -1.60729,2.220252 -1.3598,-0.222017 -1.15333,-2.427008 -1.15333,-2.427008 0,0 -0.62232,2.588482 -2.19371,2.242447 -1.57137,-0.346032 -0.86785,-2.730137 -0.86785,-2.730137 0,0 -0.55754,2.887797 -1.76279,2.782509 -1.20518,-0.105292 -0.55092,-2.204631 -0.55092,-2.204631 0,0 -1.03907,3.650985 -2.69939,2.808532 -1.66032,-0.842463 -0.60571,-3.909379 -0.60571,-3.909379 0,0 -0.80243,3.29312 -2.22741,3.111282 -1.42501,-0.181838 -1.05574,-2.317538 -1.05574,-2.317538 0,0 0.0612,3.015261 -1.91735,2.665767 -1.97858,-0.349494 -0.80955,-3.741347 -0.80955,-3.741347 0,0 -1.50372,3.979742 -3.56259,2.746866 -2.05888,-1.232868 -0.39502,-3.106356 -0.39502,-3.106356 0,0 -1.77919,2.87743 -2.72355,2.6114 -0.94438,-0.266032 -0.65716,-1.927131 -0.65716,-1.927131 0,0 -0.0679,2.077153 -1.84306,1.899129 -1.77522,-0.178029 -0.85837,-3.796085 -0.85837,-3.796085 0,0 -1.82064,3.454226 -3.84713,2.371015 -2.02648,-1.08322 0.26438,-2.876699 0.26438,-2.876699 0,0 -2.17687,1.808025 -2.65749,1.892227 -0.48061,0.0842 -0.1761,-2.350823 -0.1761,-2.350823 0,0 -1.70533,2.450282 -2.89369,1.910593 -1.18834,-0.539703 0.29808,-3.745547 0.29808,-3.745547 0,0 -2.01494,2.556313 -3.17092,2.166263 -1.15595,-0.390045 0.26438,-2.876695 0.26438,-2.876695 0,0 -1.52658,2.764142 -3.17913,2.213717 -1.65256,-0.550425 -0.10049,-4.135955 -0.10049,-4.135955 0,0 -0.92328,2.307558 -2.09567,2.012417 -1.172366,-0.295118 0.0687,-2.756142 0.0687,-2.756142 0,0 -1.378402,1.570383 -2.615982,1.315445 -1.237582,-0.254947 0.05411,-4.01921 0.05411,-4.01921 0,0 -1.884788,2.419515 -2.057556,2.419563 0,0 -0.764556,0.27262 -0.867026,-0.502138 -0.102479,-0.774761 0.03328,-2.585478 0.03328,-2.585478"
         id="path5382-4-3"
         inkscape:connector-curvature="0"
         sodipodi:nodetypes="ccccccscccccscccscccccccccccscscccccc" />
      <path
         style="fill:#a43d17;fill-opacity:1;stroke:#6f290e;stroke-width:0.365;stroke-dasharray:none;stroke-opacity:1"
         d="m 110.7852,47.381927 c 0,0 6.80358,14.646575 14.07962,23.434522 7.27604,8.787948 15.53895,10.227302 18.46826,10.227302 2.92932,0 2.62668,-1.13966 2.62668,-1.13966 0,0 1.03299,1.09845 3.11608,0.673594 1.28897,-0.262892 1.37322,-0.789884 1.87743,-1.618125 0.90986,0.467899 1.30357,1.019717 2.90403,0.733598 1.64568,-0.294203 1.81258,-1.789656 1.81258,-1.789656 0,0 4.8192,0.850448 5.38616,-0.755951 0.56696,-1.6064 -0.47247,-3.779764 -0.47247,-3.779764 0,0 -0.28348,3.212799 -7.84301,-1.606396 -7.55952,-4.819198 -16.86802,-9.853978 -21.54463,-12.756699 -5.48066,-3.401783 -16.81995,-13.985119 -16.81995,-13.985119"
         id="path6"
         sodipodi:nodetypes="csscscscscssc" />
      <path
         style="fill:#6f290e;fill-opacity:1;stroke-width:0.264583"
         d="m 123.49466,21.419688 c 0,0 1.13393,-1.27567 2.07887,-1.417413 0.94494,-0.14174 2.10249,0.448847 3.6144,0.73233 1.5119,0.283482 2.52771,0.377976 2.29147,0.496093 -0.23623,0.118118 -1.53552,0.118118 -2.10249,-0.04725 -0.56696,-0.165365 -2.57496,-0.755952 -3.14192,-0.755952 -0.56697,0 -1.58278,0.496094 -1.96076,0.708705 -0.37797,0.212611 -0.77957,0.283483 -0.77957,0.283483 z"
         id="path8" />
      <path
         style="fill:#f1d4a0;fill-opacity:1;stroke-width:0.264583"
         d="m 152.31534,71.714141 c 0,0 1.84264,-4.346725 2.31511,-6.945312 0.47247,-2.598584 1.93712,-4.630208 2.59858,-5.055431 0.66146,-0.425222 1.74814,-1.181174 2.07887,-0.850445 0.33073,0.33073 1.32292,3.307292 2.69308,3.401785 1.37017,0.09449 5.48066,-0.09449 6.37835,1.370164 0.89769,1.464656 1.6064,2.267857 0.8032,2.173364 -0.8032,-0.0945 -3.1183,-0.04725 -2.31511,1.511903 0.80321,1.559153 1.37017,1.984375 1.37017,3.732514 0,1.748142 -0.33073,3.165552 -0.8032,2.456847 -0.47247,-0.708705 -0.99219,-1.464659 -2.74033,-1.13393 -1.74814,0.330729 -5.38616,1.889881 -5.38616,1.889881 0,0 -3.96875,0.283483 -6.99256,-2.55134 z"
         id="path10" />
      <path
         style="fill:none;fill-opacity:1;stroke:#6f290e;stroke-width:0.365001;stroke-dasharray:none;stroke-opacity:1"
         d="m 135.37728,73.202423 c 0,0 3.49628,3.023811 4.77195,3.945128 1.27567,0.921316 5.78776,2.787573 5.78776,2.787573"
         id="path12"
         sodipodi:nodetypes="csc" />
      <path
         style="fill:none;fill-opacity:1;stroke:#6f290e;stroke-width:0.365001;stroke-dasharray:none;stroke-opacity:1"
         d="m 138.56645,70.698332 c 0,0 3.89789,3.118302 5.76415,4.582961 1.86625,1.464657 6.61458,3.685268 6.61458,3.685268"
         id="path13"
         sodipodi:nodetypes="csc" />
      <path
         style="fill:none;fill-opacity:1;stroke:#6f290e;stroke-width:0.365001;stroke-dasharray:none;stroke-opacity:1"
         d="m 142.86594,69.75339 c 0,0 6.09523,4.526787 7.08705,5.102681 2.19699,1.275667 5.74051,3.023809 5.74051,3.023809"
         id="path14"
         sodipodi:nodetypes="csc" />
      <path
         style="fill:#fff6e7;fill-opacity:1;stroke:none;stroke-width:0.365001;stroke-dasharray:none;stroke-opacity:1"
         d="m 137.2686,20.045961 c 0,0 -1.11174,0.499656 -1.72595,0.783139 -0.61421,0.283482 -1.08668,0.897691 -0.89769,2.173361 0.18898,1.27567 0.7087,3.071059 1.79538,3.496281 1.08669,0.425223 1.98438,-0.236236 2.12612,-0.519718 0.14174,-0.283483 0.28348,-2.031622 -0.0945,-4.063244 -0.37797,-2.031621 -0.73089,-1.917066 -1.20336,-1.869819 z"
         id="path15"
         sodipodi:nodetypes="csssssc" />
      <path
         inkscape:connector-curvature="0"
         id="path4633-41-2"
         d="m 136.76276,26.245882 c -0.30931,0.07543 -0.4615,-0.07081 -0.73043,-0.701827 -0.21215,-0.498011 -0.22718,-0.569106 -0.2,-0.952037 0.038,-0.535953 0.20213,-1.089845 0.38258,-1.291223 0.37974,-0.423793 1.16404,-0.252954 1.40561,0.306173 0.0691,0.159994 0.1033,1.384341 0.0487,1.737217 -0.026,0.167329 -0.0855,0.355008 -0.13242,0.417076 -0.12415,0.164382 -0.54738,0.429344 -0.7741,0.484627 z"
         style="display:inline;fill:#111111;fill-opacity:1;stroke:none;stroke-width:0.0576073" />
      <path
         style="fill:#6f290e;fill-opacity:1;stroke:none;stroke-width:0.365001;stroke-dasharray:none;stroke-opacity:1"
         d="m 134.51264,20.94509 c 0,0 1.1693,-0.567949 1.67043,-0.868627 0.50113,-0.300677 1.23612,-1.26953 1.23612,-1.26953 l 0.16704,0.434312 c 0,0 -0.16704,0.267272 -0.33408,0.434314 -0.16704,0.167044 -0.93545,1.035669 -1.70385,1.236122 -0.7684,0.200451 -1.03566,0.03341 -1.03566,0.03341 z"
         id="path18" />
      <path
         style="fill:#6f290e;fill-opacity:1;stroke:none;stroke-width:0.365001;stroke-dasharray:none;stroke-opacity:1"
         d="m 125.75382,19.02192 c 0.90204,0.200452 3.10701,0.334087 5.07812,0.801809 1.97111,0.46772 4.07586,-0.300679 5.0113,-0.835218 0.93545,-0.534539 1.36976,-0.734991 1.36976,-0.734991 l -0.10023,-0.26727 c 0,0 -0.63476,0 -1.1693,0.400905 -0.53454,0.400904 -1.46998,1.00226 -2.83974,1.035669 -1.36976,0.03341 -4.34313,-0.367496 -5.07812,-0.534539 -0.73499,-0.167043 -2.27179,0.133635 -2.27179,0.133635 z"
         id="path19" />
      <path
         style="fill:#95740f;fill-opacity:1;stroke:none;stroke-width:0.365001;stroke-dasharray:none;stroke-opacity:1"
         d="m 134.17855,29.664757 c 0,0 -0.20045,0.53454 -0.0668,0.668173 0.13363,0.133636 0.86862,0.30068 0.90203,0.100227 0.0334,-0.200451 -0.10023,-0.935442 -0.83522,-0.7684 z"
         id="path23" />
      <path
         style="display:inline;fill:#95740f;fill-opacity:1;stroke:none;stroke-width:0.32847;stroke-dasharray:none;stroke-opacity:1"
         d="m 136.91864,29.175585 c 0,0 0.48551,0.03606 0.54996,0.204702 0.0644,0.168635 -0.0309,0.87274 -0.20003,0.822944 -0.16912,-0.04981 -0.70991,-0.454881 -0.34992,-1.027638 z"
         id="path23-6" />
      <path
         style="fill:#6f290e;fill-opacity:1;stroke:none;stroke-width:0.457731;stroke-dasharray:none;stroke-opacity:1"
         d="m 98.59829,30.583497 c 0,0 1.65501,3.691659 2.15415,4.025746 0.49913,0.334087 0.91945,0.584653 0.91945,0.484426 0,-0.100224 -1.15588,-1.135896 -1.8389,-2.589173 -0.68303,-1.453277 -1.2347,-2.355313 -1.2347,-2.355313 z"
         id="path24" />
      <path
         style="display:inline;fill:#6f290e;fill-opacity:1;stroke:none;stroke-width:0.391277;stroke-dasharray:none;stroke-opacity:1"
         d="m 105.12869,29.722688 c 0,0 -0.072,3.166702 -0.37853,3.560394 -0.30654,0.393688 -0.57594,0.703049 -0.61257,0.63085 -0.0366,-0.0722 0.5775,-1.172625 0.63288,-2.428903 0.0553,-1.25628 0.19946,-2.0752 0.19946,-2.0752 z"
         id="path24-0" />
      <path
         style="display:inline;fill:#6f290e;fill-opacity:1;stroke:none;stroke-width:0.272983;stroke-dasharray:none;stroke-opacity:1"
         d="m 108.28648,31.904606 c 0,0 -1.15489,1.935992 -1.46701,2.062053 -0.31213,0.126055 -0.57355,0.214123 -0.5689,0.155242 0.005,-0.05887 0.73964,-0.504715 1.21299,-1.262422 0.4733,-0.757739 0.84307,-1.210035 0.84307,-1.210035 z"
         id="path24-0-3" />
      <path
         style="fill:none;fill-opacity:1;stroke:#6f290e;stroke-width:0.265;stroke-dasharray:none;stroke-opacity:1"
         d="m 138.31397,44.018127 c 0,0 -0.28349,2.787576 -0.8977,3.354541 -0.61421,0.566963 -1.25204,0.377976 -1.77176,-0.755954 -0.51972,-1.133927 -0.51972,-1.41741 -0.51972,-1.41741 0,0 0.44885,2.929317 -1.63002,2.858445 -0.70197,-0.02393 -0.96856,-2.078869 -0.96856,-2.078869 0,0 0.25985,2.338727 -1.01582,2.669456 -1.27567,0.330729 -1.5119,-3.732514 -1.5119,-3.732514 0,0 -0.33073,3.307291 -1.65365,3.63802 -1.32291,0.33073 -2.45684,-0.708705 -2.4096,-1.653645 0.0472,-0.944941 0.18899,-1.984375 0.18899,-1.984375 0,0 -0.56696,3.212798 -1.79538,3.260045 -1.22843,0.04725 -1.98438,-1.700893 -1.98438,-2.362351 v -0.661459 c 0,0 -0.42522,2.409598 -1.41741,2.55134 -0.99219,0.14174 -1.65365,-0.425225 -1.55915,-0.850447 0.0945,-0.425223 0.37798,-2.078868 0.37798,-2.078868 0,0 -0.8032,0.897691 -1.37017,1.08668 -0.56696,0.18899 -2.03162,-0.330729 -1.79539,-1.559152 0.23624,-1.228421 0.23624,-1.27567 0.23624,-1.27567 0,0 -0.51972,2.4096 -1.70089,1.889882 -1.18118,-0.519716 -2.22061,-0.897695 -2.07887,-3.401785"
         id="path25"
         sodipodi:nodetypes="csscscscsccsscsscsscsc" />
      <path
         style="fill:none;fill-opacity:1;stroke:#6f290e;stroke-width:0.264999;stroke-dasharray:none;stroke-opacity:1"
         d="m 104.01263,78.93368 c 0,0 5.76414,3.330914 8.22099,3.992372 2.45684,0.661459 8.74069,1.535528 8.74069,1.535528 0,0 2.31511,-0.21261 4.25224,-0.874068 1.93712,-0.661458 4.6474,-2.003945 4.6474,-2.003945"
         id="path26"
         sodipodi:nodetypes="cscsc" />
      <path
         style="fill:#6f290e;fill-opacity:1;stroke:none;stroke-width:0.264999;stroke-dasharray:none;stroke-opacity:1"
         d="m 129.66837,17.971715 c 0,0 1.85419,0.267271 2.92327,0.167045 1.06907,-0.100227 2.62258,-0.785104 2.88985,-0.835218 0.26727,-0.05011 0.58465,-0.100225 0.46772,-0.0167 -0.11693,0.08352 -1.65373,0.80181 -2.45554,1.002261 -0.80181,0.20045 -3.17383,0.0167 -3.49121,-0.05011 -0.31738,-0.06682 -0.91874,-0.233862 -0.33409,-0.267271 z"
         id="path27" />
      <path
         style="fill:none;fill-opacity:1;stroke:#6f290e;stroke-width:0.264999;stroke-dasharray:none;stroke-opacity:1"
         d="m 141.24329,50.821701 c 0,0 1.02093,3.20793 -0.8032,3.897879 -0.87542,0.331112 -2.88207,-2.952941 -2.88207,-2.952941 0,0 0.37797,3.023812 -0.56697,3.212799 -0.94494,0.188989 -2.00799,-2.976561 -2.00799,-2.976561 0,0 0.16536,3.968748 -1.34654,3.685265 -1.51191,-0.28348 -2.69309,-3.071055 -2.69309,-3.071055 0,0 1.03944,3.779761 -0.18898,3.874257 -1.22843,0.09449 -2.12612,-2.504094 -2.17337,-3.071059 -0.0472,-0.566962 -0.14174,-0.54334 -0.14174,-0.54334 0,0 -0.14174,2.527715 -0.51972,2.740329 -0.37797,0.212611 -1.01581,0.236233 -1.01581,0.236233"
         id="path28"
         sodipodi:nodetypes="cscscscsccsc" />
      <path
         style="fill:#d4b06d;fill-opacity:1;stroke:none;stroke-width:0.264999;stroke-dasharray:none;stroke-opacity:1"
         d="m 192.8108,110.81447 c 0,0 2.15633,-0.82842 2.47224,-3.27404 0.30531,-2.36363 -0.10025,-9.287633 -0.10025,-9.287633 0.0295,-0.0295 1.27947,9.645183 -0.23385,11.626233 -1.13644,1.48768 -0.93545,1.60362 -0.93545,1.60362 0,0 0.33409,0.46772 1.40317,-0.13364 1.06908,-0.60135 1.87088,-1.20271 1.87088,-1.20271 0,0 -0.60135,1.40317 -2.00452,1.93771 -1.40316,0.53453 -1.60362,-0.13364 -2.27179,1.20271 -0.66817,1.33635 -1.9377,2.67269 -1.9377,2.67269 0,0 1.26953,-1.26953 1.33634,-2.67269 0.0668,-1.40317 0.53454,-1.46999 -0.53454,-2.00452 -1.06907,-0.53454 -2.20497,-1.60362 -2.20497,-1.60362 0,0 1.87089,0.93544 3.14042,1.13589 z"
         id="path29"
         sodipodi:nodetypes="cscscscsscsscsc" />
      <path
         style="fill:#d4b06d;fill-opacity:1;stroke:none;stroke-width:0.0334613;stroke-dasharray:none;stroke-opacity:1"
         d="m 167.78769,73.558 c 0,-0.0738 -0.92808,-1.914713 -1.23502,-2.449761 -0.3617,-0.630481 -0.24935,-1.335069 -1.16005,-1.753957 -1.48586,-0.683446 -3.84422,1.027792 -5.05913,-0.05504 -2.24574,-2.001573 2.42553,-3.366577 -2.06252,-6.367168 -0.918,-0.613746 0.19888,-1.670098 0.41441,-2.798588 0.0652,-0.34153 0.22721,-0.859804 0.33621,-1.075743 l 0.0793,-0.157001 -0.0739,-0.0518 c -0.0723,-0.05066 -0.0711,-0.0518 0.0537,-0.0518 0.0978,0 0.14884,0.02267 0.21814,0.09685 0.0498,0.05326 0.28469,0.477287 0.52209,0.942271 0.23739,0.464987 0.55133,1.02652 0.69764,1.247855 0.32035,0.484621 0.71168,0.888902 1.01539,1.049012 0.25793,0.135969 0.43584,0.154839 1.92742,0.204425 1.16641,0.03878 1.62963,0.07282 2.3052,0.169442 1.19552,0.170981 2.01147,0.481293 2.42571,0.922522 0.11188,0.119171 0.92002,1.365306 1.15572,1.782096 0.0572,0.10106 0.12294,0.248288 0.14619,0.327173 0.0707,0.239689 0.0655,0.241237 -0.83997,0.252693 -0.67779,0.0086 -0.81796,0.01955 -1.04396,0.0817 -0.86187,0.237008 -1.1123,0.69279 -0.77329,1.407414 0.066,0.13911 0.30156,0.573463 0.52349,0.965229 0.60616,1.07003 0.74956,1.450969 0.8323,2.210959 0.0748,0.6869 -0.0147,2.051941 -0.17261,2.633379 -0.0857,0.31559 -0.23236,0.610851 -0.23236,0.467852 z"
         id="path31"
         sodipodi:nodetypes="ssssssscssssssssssssssssss" />
      <path
         style="fill:#701a1a;fill-opacity:1;stroke:none;stroke-width:0.264999;stroke-dasharray:none;stroke-opacity:1"
         d="m 130.32922,8.3702497 c 0,0 -0.75595,1.7717633 -0.75595,2.6930803 0,0.921317 -0.11812,1.393788 0.0236,0.850447 0.14174,-0.543341 0.63783,-2.6222103 0.80319,-3.0946803 0.16537,-0.47247 0.18899,-0.755953 0.18899,-0.755953 z"
         id="path32" />
      <path
         style="fill:#701a1a;fill-opacity:1;stroke:none;stroke-width:0.264999;stroke-dasharray:none;stroke-opacity:1"
         d="m 123.97219,7.2642307 c 0,0 0.26727,2.8731473 0.35079,3.5747303 0.0835,0.701582 0.30068,1.286234 0.18375,1.169304 -0.11693,-0.116931 -0.55124,-1.553504 -0.60135,-3.0401913 -0.0501,-1.486687 0.0668,-1.703843 0.0668,-1.703843 z"
         id="path33" />
      <path
         style="fill:#090202;fill-opacity:1;stroke:none;stroke-width:0.264999;stroke-dasharray:none;stroke-opacity:1"
         d="m 127.99794,20.744638 c 0,0 -1.50339,0.283975 -1.98782,0.952148 -0.48442,0.668174 -1.06907,1.837479 -1.40316,2.021226 -0.33409,0.183748 -0.78511,0.11693 -0.51784,-0.05011 0.26727,-0.167042 0.85193,-1.102487 1.18601,-1.503392 0.33409,-0.400904 0.96885,-1.302938 2.72281,-1.419868 z"
         id="path34" />
      <path
         style="fill:none;fill-opacity:1;stroke:#6f290e;stroke-width:0.264999;stroke-dasharray:none;stroke-opacity:1"
         d="m 98.24849,39.009945 c 0,0 -1.46465,2.078868 -1.37016,3.449031 0.0945,1.370164 1.79539,1.748142 2.59859,1.181177 0.8032,-0.566965 1.74814,-1.181177 1.74814,-1.181177 0,0 -2.03162,2.69308 -1.08669,3.071059 0.94494,0.377975 3.02382,-1.511906 3.02382,-1.511906 0,0 -2.88207,3.307291 -2.07888,4.11049 0.80321,0.803201 2.22062,-0.04725 3.07106,-0.850445 0.85045,-0.803201 1.27567,-1.511906 1.27567,-1.511906 0,0 -1.74814,2.645833 -0.33073,3.732517 1.41741,1.08668 3.30729,-1.370166 3.30729,-1.370166 0,0 -1.08668,3.68527 0.37798,3.96875 1.46466,0.283482 2.26786,-1.700893 2.26786,-1.700893 0,0 -0.33073,1.984375 0.28348,2.220611 0.61421,0.236236 1.65364,-0.519718 1.65364,-0.519718"
         id="path35" />
      <path
         style="display:inline;fill:none;fill-opacity:1;stroke:#6f290e;stroke-width:0.226782;stroke-dasharray:none;stroke-opacity:1"
         d="m 133.10337,79.815923 c 0,0 -0.94089,-1.212121 -1.1428,-1.775932 -0.20192,-0.563805 0.23202,1.936662 -0.84661,2.070986 -1.07862,0.134327 -1.27231,-1.834306 -1.27231,-1.834306 0,0 -0.6497,2.405985 -1.79571,2.263681 -1.14603,-0.142266 -1.13806,-1.813177 -1.13806,-1.813177 0,0 -1.24412,2.502476 -2.77415,1.88173 -1.53004,-0.620753 -1.06669,-2.372006 -1.06669,-2.372006 0,0 -0.32854,2.304509 -0.86563,2.220007 -0.53708,-0.08449 -0.88405,-1.925243 -0.88405,-1.925243 0,0 -0.74591,2.086831 -1.93052,1.710438 -1.18459,-0.376386 -0.65436,-2.383137 -0.65436,-2.383137 0,0 -1.46455,2.619809 -2.68297,1.972082 -1.21843,-0.647741 -1.06617,-1.83988 -1.06617,-1.83988 0,0 -0.0653,1.851877 -1.34083,1.651197 -1.27553,-0.200678 -0.96676,-3.15434 -0.96676,-3.15434 0,0 -0.2226,2.815215 -1.9921,2.460802 -1.7695,-0.354395 -1.33149,-3.51575 -1.33149,-3.51575 0,0 -0.94125,3.348198 -2.14012,3.083573 -1.19887,-0.264618 -0.74079,-2.510747 -0.74079,-2.510747 0,0 -1.11989,2.065992 -2.33329,1.647067 -1.21341,-0.418926 -0.08,-3.394871 -0.08,-3.394871 0,0 -1.69951,2.58285 -3.45024,1.813361 -1.75072,-0.769481 -0.29594,-3.580846 -0.29594,-3.580846 0,0 -1.31704,1.464928 -2.12264,1.338184 -0.80559,-0.126745 -0.63032,-2.303354 -0.63032,-2.303354 0,0 -0.97239,0.911103 -1.624421,0.922523 -0.65203,0.01143 -0.41092,-3.48493 -0.41092,-3.48493 0,0 -0.69357,1.677026 -0.96685,1.672029 -0.27329,-0.0051 -0.373982,-0.02087 -0.373982,-0.02087"
         id="path4796-0" />
      <path
         style="fill:#f6e1a0;fill-opacity:1;stroke:#95740f;stroke-width:0.267772;stroke-dasharray:none;stroke-opacity:1"
         d="m 130.36996,33.890958 c -0.18762,-0.08352 -1.65441,-1.469983 -2.59248,-2.22168 -0.93807,-0.751694 -2.16608,-1.520095 -2.55837,-0.88533 -0.39227,0.634764 -0.85278,2.321904 -0.18761,2.739514 0.66518,0.417608 2.04669,0.517835 3.17238,0.46772 1.12567,-0.05011 2.16608,-0.100224 2.16608,-0.100224 z"
         id="path36" />
      <path
         style="fill:none;fill-opacity:1;stroke:#ddcd90;stroke-width:0.264999;stroke-dasharray:none;stroke-opacity:1"
         d="m 125.11166,32.018764 c 0,0 1.90169,1.039437 2.68127,1.299295 0.77957,0.259858 2.27941,0.492808 2.27941,0.492808"
         id="path37"
         sodipodi:nodetypes="csc" />
      <path
         style="fill:#95740f;fill-opacity:1;stroke:none;stroke-width:0.365001;stroke-dasharray:none;stroke-opacity:1"
         d="m 130.06936,33.647407 c 0,0 2.8112,1.228423 4.67746,1.535528 1.86626,0.307107 2.83482,0.307107 2.83482,0.307107 0,0 -1.15755,0.259858 -1.9135,0.188986 -0.75596,-0.07087 -5.6482,-1.708057 -5.78994,-1.778928 -0.14174,-0.07087 0.19116,-0.252693 0.19116,-0.252693 z"
         id="path22"
         sodipodi:nodetypes="cscssc" />
      <path
         style="fill:none;fill-opacity:1;stroke:#ddcd90;stroke-width:0.264999;stroke-dasharray:none;stroke-opacity:1"
         d="m 126.22196,31.097448 c 0,0 -0.31892,1.665457 -0.49609,1.996186 -0.17718,0.330729 -0.17718,0.330729 -0.17718,0.330729"
         id="path38" />
      <path
         style="fill:none;fill-opacity:1;stroke:#ddcd90;stroke-width:0.264999;stroke-dasharray:none;stroke-opacity:1"
         d="m 127.79293,32.077825 c 0,0 -0.0354,0.590587 -0.30711,1.133927 -0.27167,0.543341 -0.30711,0.626023 -0.30711,0.626023"
         id="path39" />
      <path
         style="fill:#c5f7f9;fill-opacity:1;stroke:none;stroke-width:0.385181;stroke-dasharray:none;stroke-opacity:1"
         d="m 121.95122,19.938441 c -0.95749,2.12788 -3.61715,4.6104 -1.5958,4.6104 2.02133,0 1.17025,-2.12788 1.5958,-4.6104 z"
         id="path40" />
      <path
         style="display:inline;fill:#c5f7f9;fill-opacity:1;stroke:none;stroke-width:0.385181;stroke-dasharray:none;stroke-opacity:1"
         d="m 137.5421,16.623249 c 1.55496,1.739755 4.83976,3.303972 2.91264,3.913934 -1.9271,0.609956 -1.75781,-1.675553 -2.91264,-3.913934 z"
         id="path40-88" />
      <path
         style="display:inline;fill:#c5f7f9;fill-opacity:1;stroke:none;stroke-width:0.278576;stroke-dasharray:none;stroke-opacity:1"
         d="m 139.15253,21.235131 c 1.51637,1.398969 2.32981,2.292653 1.3673,2.889506 -0.77473,0.480412 -0.99168,-1.33074 -1.3673,-2.889506 z"
         id="path40-88-0"
         sodipodi:nodetypes="csc" />
      <path
         style="display:inline;fill:#c5f7f9;fill-opacity:1;stroke:none;stroke-width:0.200589;stroke-dasharray:none;stroke-opacity:1"
         d="m 118.86836,24.283246 c -0.437,1.264393 -1.65088,2.739513 -0.72833,2.739513 0.92254,0 0.53411,-1.264392 0.72833,-2.739513 z"
         id="path40-8" />
      <path
         style="fill:#a47f2d;fill-opacity:1;stroke:none;stroke-width:0.264999;stroke-dasharray:none;stroke-opacity:1"
         d="m 201.5195,119.08223 c 0,0 -1.13393,-0.99219 -0.8977,-1.18118 0.23624,-0.18899 0.51972,0.0945 0.8977,0.28348 0.37797,0.18899 0.61421,1.08669 0,0.8977 z"
         id="path41" />
      <path
         style="display:inline;fill:#a47f2d;fill-opacity:1;stroke:none;stroke-width:0.264999;stroke-dasharray:none;stroke-opacity:1"
         d="m 198.42463,114.77568 c 0,0 -1.13393,0.99219 -0.8977,1.18118 0.23624,0.18899 0.51972,-0.0945 0.8977,-0.28348 0.37797,-0.18899 0.61421,-1.08669 0,-0.8977 z"
         id="path41-4" />
      <path
         style="display:inline;fill:#a47f2d;fill-opacity:1;stroke:none;stroke-width:0.264999;stroke-dasharray:none;stroke-opacity:1"
         d="m 195.25117,117.90789 c 0,0 1.09761,1.03223 1.26277,0.77876 0.16516,-0.25347 -0.14452,-0.50808 -0.36931,-0.86593 -0.2248,-0.35783 -1.1412,-0.50578 -0.89346,0.0872 z"
         id="path41-4-2" />
      <path
         style="display:inline;fill:#a47f2d;fill-opacity:1;stroke:none;stroke-width:0.264999;stroke-dasharray:none;stroke-opacity:1"
         d="m 196.79389,115.66278 c 0,0 0.19161,1.4945 -0.11055,1.47948 -0.30216,-0.015 -0.32659,-0.41519 -0.48439,-0.80722 -0.15783,-0.39201 0.26023,-1.22084 0.59497,-0.67222 z"
         id="path41-4-2-4" />
      <path
         style="display:inline;fill:#a47f2d;fill-opacity:1;stroke:none;stroke-width:0.264999;stroke-dasharray:none;stroke-opacity:1"
         d="m 198.48878,116.59115 c 0,0 -0.32287,1.47174 -0.0206,1.48346 0.3023,0.0117 0.36198,-0.38473 0.5538,-0.76129 0.19185,-0.37653 -0.1514,-1.23905 -0.53329,-0.72214 z"
         id="path41-4-2-4-5" />
      <path
         style="fill:#f5e2bd;fill-opacity:1;stroke:none;stroke-width:0.264999;stroke-dasharray:none;stroke-opacity:1"
         d="m 159.97842,86.178569 c 0,0 -5.14993,3.307292 -5.24442,6.283854 -0.0945,2.976563 -0.37798,11.811757 8.55171,16.111237 8.92969,4.29948 18.94606,-0.14174 20.36347,-2.83482 1.41741,-2.69308 2.4096,-7.417783 0,-10.394348 -2.4096,-2.976562 -8.50447,-3.023809 -13.5599,-4.91369 -5.05543,-1.889879 -5.48065,-5.102678 -10.11086,-4.252233 z"
         id="path42" />
      <path
         style="fill:none;fill-opacity:1;stroke:#e9bb69;stroke-width:0.264999;stroke-dasharray:none;stroke-opacity:1"
         d="m 162.83895,93.113486 c 0,0 1.80963,5.999311 8.14073,9.779074 6.3311,3.77976 6.70908,3.77976 6.70908,3.77976"
         id="path43"
         sodipodi:nodetypes="csc" />
      <path
         style="display:inline;fill:#e9bb69;fill-opacity:1;stroke:none;stroke-width:0.348378;stroke-dasharray:none;stroke-opacity:1"
         d="m 171.81236,103.01565 c 0,0 -1.00911,-1.23106 -0.54843,-2.50608 0.46068,-1.275023 0.89943,-1.538823 0.89943,-1.538823 0,0 1.03105,1.253043 1.00911,2.044443 -0.0219,0.79138 -1.36011,2.00046 -1.36011,2.00046 z"
         id="path45-7" />
      <path
         style="display:inline;fill:#e9bb69;fill-opacity:1;stroke:none;stroke-width:0.348378;stroke-dasharray:none;stroke-opacity:1"
         d="m 169.0466,101.28977 c 0,0 -0.80732,-1.371873 -0.15564,-2.560663 0.65168,-1.18878 1.12585,-1.381806 1.12585,-1.381806 0,0 0.82561,1.396966 0.68196,2.175526 -0.1436,0.778553 -1.65217,1.766943 -1.65217,1.766943 z"
         id="path45-7-2" />
      <path
         style="display:inline;fill:#e9bb69;fill-opacity:1;stroke:none;stroke-width:0.348378;stroke-dasharray:none;stroke-opacity:1"
         d="m 166.97564,99.727367 c 0,0 -0.87048,-1.33269 -0.275,-2.550608 0.59549,-1.217905 1.06014,-1.432854 1.06014,-1.432854 0,0 0.88991,1.356917 0.78269,2.141352 -0.20506,0.82096 -0.80653,1.5056 -1.56783,1.84211 z"
         id="path45-7-2-2-9"
         sodipodi:nodetypes="csccc" />
      <path
         style="display:inline;fill:#e9bb69;fill-opacity:1;stroke:none;stroke-width:0.348378;stroke-dasharray:none;stroke-opacity:1"
         d="m 165.13328,97.357777 c 0,0 -0.7519,-1.403008 -0.0533,-2.564829 0.69862,-1.161816 1.18012,-1.335757 1.18012,-1.335757 0,0 0.76917,1.428825 0.5945,2.201041 -0.24747,0.851444 -0.98315,1.325061 -1.72135,1.699545 z"
         id="path45-7-2-2-9-1"
         sodipodi:nodetypes="csccc" />
      <path
         style="display:inline;fill:#e9bb69;fill-opacity:1;stroke:none;stroke-width:0.348378;stroke-dasharray:none;stroke-opacity:1"
         d="m 159.17714,94.669003 c 0,0 1.14366,1.107184 2.45233,0.753216 1.30866,-0.353965 1.60774,-0.769474 1.60774,-0.769474 0,0 -1.16375,-1.130865 -1.95426,-1.17426 -0.7905,-0.04343 -2.10581,1.190518 -2.10581,1.190518 z"
         id="path45-4" />
      <path
         style="display:inline;fill:#e9bb69;fill-opacity:1;stroke:none;stroke-width:0.287089;stroke-dasharray:none;stroke-opacity:1"
         d="m 165.29317,91.702058 c 0,0 0.35475,1.244973 -0.43006,2.039412 -0.7848,0.794433 -1.20997,0.845904 -1.20997,0.845904 0,0 -0.36408,-1.268488 -0.079,-1.848371 0.28509,-0.579889 1.719,-1.036945 1.719,-1.036945 z"
         id="path45-4-4" />
      <path
         style="display:inline;fill:#e9bb69;fill-opacity:1;stroke:none;stroke-width:0.348378;stroke-dasharray:none;stroke-opacity:1"
         d="m 160.76494,97.391417 c 0,0 1.14366,1.10717 2.45232,0.75321 1.30867,-0.35398 1.60774,-0.76948 1.60774,-0.76948 0,0 -1.16374,-1.130864 -1.95426,-1.174258 -0.7905,-0.04342 -2.1058,1.190528 -2.1058,1.190528 z"
         id="path45-7-5" />
      <path
         style="display:inline;fill:#e9bb69;fill-opacity:1;stroke:none;stroke-width:0.348378;stroke-dasharray:none;stroke-opacity:1"
         d="m 162.9037,100.58352 c 0,0 1.30063,0.9177 2.53911,0.36627 1.23848,-0.55143 1.46995,-1.008083 1.46995,-1.008083 0,0 -1.32414,-0.93799 -2.11189,-0.85903 -0.78774,0.0789 -1.89717,1.500843 -1.89717,1.500843 z"
         id="path45-7-2-6" />
      <path
         style="display:inline;fill:#e9bb69;fill-opacity:1;stroke:none;stroke-width:0.348378;stroke-dasharray:none;stroke-opacity:1"
         d="m 165.21595,103.39477 c 0,0 1.5091,0.50638 2.53754,-0.37692 1.02845,-0.8833 1.11932,-1.38712 1.11932,-1.38712 0,0 -1.53743,-0.5191 -2.2695,-0.21759 -0.74274,0.40543 -1.25363,1.16006 -1.38737,1.9816 z"
         id="path45-7-2-2-9-9"
         sodipodi:nodetypes="csccc" />
      <path
         style="display:inline;fill:#e9bb69;fill-opacity:1;stroke:none;stroke-width:0.348378;stroke-dasharray:none;stroke-opacity:1"
         d="m 167.85975,105.20839 c 0,0 1.50909,0.50639 2.53754,-0.37692 1.02843,-0.8833 1.11931,-1.38712 1.11931,-1.38712 0,0 -1.53745,-0.51907 -2.26951,-0.21758 -0.798,0.38653 -1.14175,1.19112 -1.38734,1.9816 z"
         id="path45-7-2-2-9-1-9"
         sodipodi:nodetypes="csccc" />
      <path
         style="display:inline;fill:#e9bb69;fill-opacity:1;stroke:none;stroke-width:0.348378;stroke-dasharray:none;stroke-opacity:1"
         d="m 162.84098,93.082359 c 0,0 -1.45657,-0.642014 -1.62194,-1.987588 -0.16535,-1.34557 0.10679,-1.779198 0.10679,-1.779198 0,0 1.48608,0.651715 1.82417,1.367618 0.32957,0.823158 0.0418,1.649433 -0.30902,2.399168 z"
         id="path45-7-2-2-9-1-1"
         sodipodi:nodetypes="csccc" />
      <path
         style="fill:#c5f7f9;fill-opacity:1;stroke-width:0.264583"
         d="m 126.29129,14.882812 c 0,0 -0.18899,0.992188 -0.47247,1.511905 -0.28348,0.519717 0.23624,1.74814 0.85045,1.27567 0.61421,-0.472471 -0.0472,-1.606399 -0.37798,-2.787575 z"
         id="path30" />
    </g>
  </g>
</svg>
