<?xml version="1.0" encoding="UTF-8" standalone="no"?>
<!-- Created with Inkscape (http://www.inkscape.org/) -->

<svg
   width="210mm"
   height="297mm"
   viewBox="0 0 210 297"
   version="1.1"
   id="svg5"
   xml:space="preserve"
   inkscape:version="1.2.2 (732a01da63, 2022-12-09)"
   sodipodi:docname="dessin_chat.svg"
   xmlns:inkscape="http://www.inkscape.org/namespaces/inkscape"
   xmlns:sodipodi="http://sodipodi.sourceforge.net/DTD/sodipodi-0.dtd"
   xmlns="http://www.w3.org/2000/svg"
   xmlns:svg="http://www.w3.org/2000/svg"><sodipodi:namedview
     id="namedview7"
     pagecolor="#ffffff"
     bordercolor="#000000"
     borderopacity="0.25"
     inkscape:showpageshadow="2"
     inkscape:pageopacity="0.0"
     inkscape:pagecheckerboard="0"
     inkscape:deskcolor="#d1d1d1"
     inkscape:document-units="mm"
     showgrid="false"
     inkscape:zoom="1.3266287"
     inkscape:cx="387.44826"
     inkscape:cy="391.21721"
     inkscape:window-width="2560"
     inkscape:window-height="1369"
     inkscape:window-x="-8"
     inkscape:window-y="-8"
     inkscape:window-maximized="1"
     inkscape:current-layer="g19048" /><defs
     id="defs2" /><g
     inkscape:groupmode="layer"
     id="layer2"
     inkscape:label="Calque 2"><g
       id="g1734"
       transform="translate(-174.25058,-90.012434)"
       style="display:inline"><path
         style="display:inline;fill:none;stroke:#000000;stroke-width:0.3;stroke-opacity:1"
         d="m 89.561449,56.018001 c 0,0 2.490603,-1.047274 4.533387,-1.038646 2.042784,0.0086 3.990485,1.388885 5.17444,3.566247 1.183954,2.17736 1.242234,3.985501 1.812744,5.702197 0.57051,1.716699 1.2269,4.283982 2.50287,5.08626 1.27597,0.802275 4.34015,2.467213 4.34015,2.467213 0,0 0.35273,0.752242 -1.26984,2.705309 -1.62257,1.95307 -7.438269,4.170855 -9.591271,4.972389 -2.238919,0.83352 -4.745027,3.090055 -4.7757,5.386464 -0.03067,2.296406 1.96917,6.695985 3.987416,7.393016 2.018247,0.697032 5.453565,1.488956 6.373735,2.168734 0.92017,0.679778 -0.0613,1.368182 0.71774,2.116974 0.77908,0.748789 2.27589,0.93685 3.72363,2.518973 1.44774,1.582129 2.00291,2.827809 2.35258,3.966519 0.34966,1.13872 2.56115,2.7726 3.52733,4.13216 0.96618,1.35955 2.03358,3.15562 1.98757,4.70668 -0.046,1.55107 0.34353,3.27985 1.81581,5.41752 1.47228,2.13768 2.4906,4.62905 2.53048,6.78226 0.0399,2.1532 0.0245,3.04002 0.42941,5.43822 0.40488,2.3982 1.2453,3.72584 0.53677,5.81176 -0.70854,2.08591 -1.39253,3.70599 -1.02753,5.07418 0.36501,1.36818 0.40181,3.53519 0.18097,4.63595 -0.22084,1.10075 -1.13488,2.45168 -1.84648,3.07798 -0.7116,0.62629 -15.12152,0.51414 -17.771616,0.97135 -2.650098,0.45721 -9.039169,-0.9334 -9.256942,-1.79606 -0.217776,-0.86266 0.549037,-3.68702 2.027449,-3.52829 1.47841,0.15873 3.40464,1.18875 4.097837,1.16632 0.693198,-0.0224 1.628707,-0.2588 0.444752,-2.48964 -1.183958,-2.23085 -4.677548,-9.48412 -2.487536,-14.58417 2.190012,-5.10006 7.106806,-11.14733 8.781516,-12.13767 1.67472,-0.99033 1.84648,-0.90752 1.84648,-0.90752"
         id="path357"
         sodipodi:nodetypes="ccssscssssscssssssssssssssssssc" /><path
         style="fill:none;stroke:#000000;stroke-width:0.3;stroke-opacity:1"
         d="m 94.003071,130.25068 c 0,0 -0.451136,3.00207 -2.539932,7.54657 -2.088792,4.54451 -3.045772,7.23774 -3.778845,8.53173 -0.73307,1.294 -1.941565,2.65183 -1.941565,2.65183 0,0 -2.156272,0.23292 -4.852379,-0.35024 -2.69611,-0.58316 -3.742039,-0.81091 -3.242077,-2.58972 0.499959,-1.77881 1.407863,-2.33264 2.929218,-2.30158 1.521354,0.0311 3.349431,0.53485 4.011956,1.34575 0.662525,0.81091 1.036727,1.01622 1.036727,1.01622"
         id="path967"
         sodipodi:nodetypes="csscsscsc" /><path
         style="fill:none;stroke:#000000;stroke-width:0.3;stroke-opacity:1"
         d="m 85.432939,113.03711 c -0.318995,2.74327 -1.01219,1.11974 -1.426269,4.02864 -0.414078,2.90889 -1.09194,2.49827 0.09202,3.65941 1.183955,1.16114 1.610302,0.47102 1.269839,1.99275 -0.340463,1.52174 -0.254582,1.7236 -0.80055,3.04175 -0.54597,1.31815 -0.852694,0.55728 -0.499962,1.451 0.352735,0.89372 -0.127846,2.65106 -0.330284,3.13416"
         id="path973"
         sodipodi:nodetypes="csssssc" /><path
         style="fill:none;stroke:#000000;stroke-width:0.3;stroke-opacity:1"
         d="m 98.349103,102.84044 c 1.137949,1.8185 2.423127,2.50863 1.628706,4.6049 -0.794414,2.09626 -1.720723,2.23429 -1.285174,3.3178 0.43555,1.0835 0.73614,0.75569 1.088872,1.62698 0.352733,0.87129 1.006053,0.73844 0.687063,2.10662 -0.31899,1.36818 -0.0399,0.90407 -0.41408,1.76673 -0.374202,0.86266 -0.545967,2.97964 -0.545967,2.97964"
         id="path975" /><path
         style="fill:none;stroke:#000000;stroke-width:0.3;stroke-opacity:1"
         d="m 73.716064,119.64683 2.950689,19.44787 c 0,0 -0.05214,3.75603 -0.85576,4.60144 -0.803619,0.84541 -1.923164,0.0241 -3.015102,0.17598 -1.091938,0.15183 -1.441603,0.24845 -1.487612,2.06694 -0.04601,1.81849 -0.484626,1.95307 1.619504,2.19979 2.104128,0.24672 5.065139,-0.39842 5.065139,-0.39842"
         id="path979"
         sodipodi:nodetypes="ccscssc" /><path
         style="display:inline;fill:none;stroke:#000000;stroke-width:0.3;stroke-opacity:1"
         d="m 84.301125,55.574017 c 0,0 -0.447818,-1.230157 -1.251437,-2.598338 -0.803616,-1.368185 -2.742115,-2.66563 -4.830908,-1.954795 -2.088795,0.710835 -5.695873,4.14423 -7.324579,5.284671 -1.628709,1.140439 -3.622416,1.24396 -5.241922,1.161143 -1.619504,-0.08282 -1.729925,-0.196686 -1.729925,-0.196686 0,0 -1.472277,4.70151 -0.950847,7.361959 0.521433,2.660452 3.100986,7.550023 4.416833,10.810888 1.315847,3.260863 2.705309,6.714964 1.71459,8.852641 -0.990719,2.137677 -3.843259,6.628699 -4.137713,9.937872 -0.294455,3.309173 0.01535,8.830218 0.460086,10.793628 0.444752,1.96342 0.849628,3.65252 1.760599,4.37888 0.910971,0.72636 0.910971,0.804 1.325049,1.98412 0.414078,1.18013 -0.61345,0.44859 0.561305,1.71498 1.174756,1.26638 1.107276,0.80227 1.745264,2.1601 0.637987,1.35783 -0.637988,0.71946 0.693197,1.70463 1.331182,0.98516 1.46921,-0.16219 1.953834,1.41994 0.484624,1.58212 1.101141,2.50517 2.183876,2.49654 1.082739,-0.009 1.312781,-1.46653 1.828078,0.0621 0.515297,1.52864 -0.530632,0.73327 0.54597,1.98585 1.076603,1.25259 0.914041,0.43133 1.683917,1.3354 0.76988,0.90407 -0.291388,0.57109 0.886434,1.53899 1.177822,0.96791 1.297445,0.16563 1.677784,1.70808 0.380338,1.54243 0.01841,1.39923 0.745339,1.87197 0.726937,0.47274 0.671727,0.98516 0.671727,0.98516"
         id="path1033" /><path
         style="fill:none;stroke:#000000;stroke-width:0.3;stroke-opacity:1"
         d="m 66.655269,96.267531 c 0,0 -0.168698,3.724976 0.656389,5.276039 0.82509,1.55107 0.429416,-0.84541 1.22383,-2.817452 0.794417,-1.972045 0.745342,-1.699445 1.058201,2.270532 0.31286,3.96997 1.533621,8.04864 2.048918,6.56831 0.515297,-1.48033 -0.334328,-1.53036 0.693197,-4.58419 1.027528,-3.053824 0.82509,-1.88406 1.254504,0.8109 0.429413,2.69496 1.22383,5.74361 1.659379,4.63595 0.435549,-1.10766 0.04601,-0.30193 0.794417,-5.21911 0.748406,-4.917173 2.640896,-9.159749 2.984428,-7.782939 0.34353,1.37681 -0.803619,3.317801 0.49076,6.135259 1.294376,2.81745 1.159418,3.64043 2.282029,-0.58316 1.122611,-4.223597 1.334251,-3.210833 2.027449,-1.55452 0.693198,1.65631 0.917107,1.95479 2.404718,-1.582124 1.487615,-3.536915 2.321904,-3.750855 2.321904,-3.750855"
         id="path1576" /><path
         style="fill:none;stroke:#000000;stroke-width:0.3;stroke-opacity:1"
         d="m 84.814531,49.967817 c 0,0 0.414078,-2.606966 -2.407788,-5.244988 -2.821863,-2.638021 -4.68368,-2.905446 -4.68368,-2.905446 0,0 -0.276053,2.436157 -0.61345,3.597302 -0.337397,1.161142 -1.512152,4.161483 -1.512152,5.034497 0,0.873016 0.277228,1.886809 0.277228,1.886809"
         id="path1578"
         sodipodi:nodetypes="cscssc" /><path
         style="fill:none;stroke:#000000;stroke-width:0.3;stroke-opacity:1"
         d="m 78.042055,41.988191 c 0,0 1.395598,1.561417 2.331106,4.430633 0.935508,2.869215 0.217773,4.635947 0.217773,4.635947"
         id="path1580"
         sodipodi:nodetypes="csc" /><path
         style="fill:none;stroke:#000000;stroke-width:0.3;stroke-opacity:1"
         d="m 94.637207,54.059338 c 0,0 1.672178,-1.616787 2.552479,-4.558464 0.880297,-2.94168 1.073536,-3.445476 1.073536,-3.445476 0,0 4.091698,4.955136 4.153048,7.094538 0.0613,2.139402 0.25458,6.16631 -0.22698,7.976177 -0.48155,1.809866 -1.14682,2.761643 -1.14682,2.761643"
         id="path1582"
         sodipodi:nodetypes="csccsc" /><path
         style="fill:none;stroke:#000000;stroke-width:0.3;stroke-opacity:1"
         d="m 98.293892,46.160644 c 0,0 1.162487,0.967907 1.426271,4.27708 0.263782,3.309173 -0.672974,7.657419 -0.672974,7.657419"
         id="path1584"
         sodipodi:nodetypes="csc" /><path
         style="fill:none;stroke:#000000;stroke-width:0.3;stroke-opacity:1"
         d="m 73.630183,58.772768 c 0,0 0.650253,-2.089367 2.186943,-2.632845 1.536689,-0.543478 4.085571,-0.286403 4.824777,1.708071 0.739206,1.994477 0.613447,6.570038 0.613447,6.570038 0.0141,-0.184345 -1.514307,-2.43979 -3.139372,-4.082876 -0.720777,-0.72877 -1.883926,-1.128301 -4.485795,-1.562388 z"
         id="path1586"
         sodipodi:nodetypes="csscsc" /><path
         style="fill:none;stroke:#000000;stroke-width:0.3;stroke-opacity:1"
         d="m 73.200767,60.004652 c 0,0 -0.12269,1.061075 1.71459,2.879567 1.83728,1.818491 2.610226,1.88923 4.143849,1.818491 1.53362,-0.07074 2.094925,-0.543478 2.094925,-0.543478"
         id="path1590" /><path
         style="fill:none;stroke:#000000;stroke-width:0.3;stroke-opacity:1"
         d="m 94.698274,66.369526 c 0,0 0.534503,-1.903184 0.463963,-2.631272 -0.07055,-0.728086 -1.137947,-2.694956 -2.539678,-3.309173 -1.40173,-0.614214 -2.616361,-0.310557 -4.183721,0.438232 -1.567362,0.748792 -3.498952,5.015369 -3.498952,5.015369 0,0 2.998992,-0.746914 4.020384,-1.250709 1.021392,-0.503794 2.969093,-0.436507 4.309478,0.443409 1.340386,0.879916 2.328039,2.675979 3.06111,2.957207 0.733072,0.281228 0.653323,0.464112 0.653323,0.464112 0,0 -0.831223,0.415804 -2.374047,-0.779847 -1.542824,-1.19565 -3.168463,-1.997926 -4.042628,-2.242922 -0.874165,-0.244996 -3.389372,0.506718 -4.223663,0.59816 -0.83429,0.09144 -1.456842,-0.154154 -1.456842,-0.154154"
         id="path1592"
         sodipodi:nodetypes="cssscssscsssc" /><path
         style="fill:none;stroke:#000000;stroke-width:0.3;stroke-opacity:1"
         d="m 84.836949,66.027612 c 0,0 0.276995,1.592624 2.138812,2.272402 1.861817,0.679778 3.622416,1.152517 4.649944,0.916147 1.027525,-0.236369 2.959891,-1.564871 2.959891,-1.564871"
         id="path1594"
         sodipodi:nodetypes="cssc" /><path
         style="fill:none;stroke:#000000;stroke-width:0.3;stroke-opacity:1"
         d="m 77.749492,67.810022 c 0,0 1.220763,-0.346792 2.573416,-0.03106 1.352656,0.315735 2.929218,1.744303 2.929218,1.744303 0,0 -1.303578,0.612492 -2.370978,1.221531 -1.067401,0.609039 -1.736061,0.503796 -1.736061,0.503796 0,0 -1.153285,-2.236023 -1.558161,-2.638023 -0.404876,-0.402 0.162566,-0.80055 0.162566,-0.80055 z"
         id="path1596" /><path
         style="fill:none;stroke:#000000;stroke-width:0.3;stroke-opacity:1"
         d="m 78.913561,71.582112 c -0.196479,0.0073 0.01709,1.398744 -0.77844,1.863344 -1.580521,0.923042 -2.198372,0.241023 -2.198372,0.241023"
         id="path1598"
         sodipodi:nodetypes="csc" /><path
         style="fill:none;stroke:#000000;stroke-width:0.3;stroke-opacity:1"
         d="m 78.264789,73.348315 c 0,0 0.07055,0.919596 1.309711,1.419942 1.239168,0.500343 1.729928,0.329536 1.729928,0.329536"
         id="path1600" /><path
         style="fill:none;stroke:#000000;stroke-width:0.3;stroke-opacity:1"
         d="m 81.18198,51.128414 c 0,0 3.455249,-1.844373 7.364452,-0.970928 3.909203,0.873448 6.978748,5.043988 6.978748,5.043988"
         id="path1698" /><path
         style="fill:none;stroke:#000000;stroke-width:0.3;stroke-opacity:1"
         d="m 73.689723,58.778639 c 0,0 -0.561341,0.18124 -1.486115,-0.10387 -0.924774,-0.28511 -1.097324,-0.294341 -1.097324,-0.294341 0,0 -0.12954,0.40924 0.945531,1.092902 1.075068,0.683659 3.202576,0.450496 4.460914,1.048754 1.258337,0.598254 4.646874,3.664587 4.646874,3.664587"
         id="path1700"
         sodipodi:nodetypes="cscssc" /><path
         style="fill:none;stroke:#000000;stroke-width:0.3;stroke-opacity:1"
         d="m 83.801298,130.14428 -3.953676,13.53604"
         id="path1702" /><path
         style="fill:none;stroke:#000000;stroke-width:0.3;stroke-opacity:1"
         d="m 119.72013,137.14567 c 0,0 2.2483,2.9227 5.11617,2.6639 2.86787,-0.2588 5.81243,-0.39855 6.52096,0.29848 0.70853,0.69703 0.61038,1.37508 2.40165,1.13009 1.79127,-0.245 5.46276,-0.5245 5.67134,0.59696 0.20857,1.12146 -0.76375,1.8599 0.77908,2.34299 1.54282,0.48309 5.17444,1.9548 5.58545,2.79675 0.41101,0.84196 0.0552,2.45342 0.0552,2.45342 0,0 -0.0491,0.30193 0.61345,2.69495 0.66252,2.39303 -0.18097,3.86991 -1.30972,4.51 -1.12874,0.6401 -1.62563,1.69945 -2.66236,2.39648 -1.03673,0.69703 -4.15919,0.46066 -5.49957,0.57453 -1.34039,0.11388 -2.15014,0.28813 -3.13166,-0.6884 -0.98152,-0.97654 -0.63799,-0.36405 -1.71459,-1.38889 -1.0766,-1.02484 -1.30664,-0.63837 -0.50609,-1.75638 0.80055,-1.11801 -1.37413,-2.51552 0.81588,-1.97205 2.19002,0.54348 2.49981,1.21463 4.09784,0 1.59803,-1.21462 2.11333,-0.63491 2.50287,-2.08591 0.38954,-1.451 0.26072,-1.74431 0.41101,-2.27053"
         id="path1704" /><path
         style="fill:none;stroke:#000000;stroke-width:0.3;stroke-opacity:1"
         d="m 118.70884,146.84407 c 0,0 0.85576,1.03519 2.88935,1.14906 2.03358,0.11388 2.53047,-0.91097 3.66842,-0.3071 1.13795,0.60386 2.08879,1.0559 3.63162,1.40614 1.54282,0.35024 1.20542,-1.1784 2.68691,0.40372 1.48148,1.58213 0.92324,1.24396 2.3311,1.16115 1.40787,-0.0828 0.8619,-0.51588 1.91396,0.85058 1.05207,1.36646 1.05513,1.41822 1.16249,1.86163"
         id="path1706" /><path
         style="fill:none;stroke:#000000;stroke-width:0.3;stroke-opacity:1"
         d="m 86.631912,147.87257 c 0,0 0.822692,0.26177 1.570592,0.26177 0.747901,0 2.617656,-0.54847 2.617656,-0.54847"
         id="path1708"
         sodipodi:nodetypes="csc" /></g><g
       id="g19048"
       inkscape:export-filename="chat.png"
       inkscape:export-xdpi="96"
       inkscape:export-ydpi="96"
       transform="matrix(1.5777642,0,0,1.5777642,-73.071217,-1.1467503)"><path
         style="fill:#97928b;fill-opacity:1;stroke:none;stroke-width:0.159903;stroke-opacity:1"
         d="m 95.245571,21.176937 c -0.005,-1.608831 -0.04876,-1.927635 -0.402228,-2.933219 -0.218117,-0.620514 -0.676854,-1.661155 -1.019415,-2.312538 -0.342564,-0.651383 -0.592794,-1.214381 -0.556067,-1.251108 0.110712,-0.110712 1.269436,0.624276 2.397805,1.520949 1.874919,1.48993 3.018594,3.266689 3.149078,4.89226 l 0.07125,0.887616 -0.394663,0.10272 c -0.223922,0.0016 -0.959017,0.09426 -1.618311,0.327677 -0.659296,0.233415 -1.29391,0.457301 -1.410258,0.497522 -0.180639,0.06245 -0.212363,-0.190515 -0.217191,-1.731883 z"
         id="path2565"
         sodipodi:nodetypes="ssssssccssss" /><path
         style="fill:#d4a0a0;fill-opacity:1;stroke:none;stroke-width:0.113069;stroke-opacity:1"
         d="m 90.954994,23.962852 c -0.03441,-0.137123 -0.08913,-0.508479 -0.121597,-0.825236 -0.07191,-0.701646 0.04972,-1.202293 0.915797,-3.769749 0.469286,-1.391179 0.70726,-2.294088 0.891889,-3.383949 0.138499,-0.817568 0.591289,-1.265035 0.61009,-1.283834 0.06275,-0.06275 0.205859,0.376612 0.723424,1.279251 0.577426,1.007039 1.105728,2.309424 1.41611,3.491032 0.220086,0.837848 0.312201,2.634467 0.162627,3.171825 l -0.07792,0.27994 -0.674637,-0.06648 c -1.07487,-0.105915 -2.037813,0.213662 -3.470563,1.151797 l -0.312643,0.204711 z"
         id="path3918"
         sodipodi:nodetypes="sssssssscsscs" /><path
         style="fill:#97928b;fill-opacity:1;stroke:none;stroke-width:0.159903;stroke-opacity:1"
         d="m 151.19162,130.81948 c -0.22542,-0.0675 -2.47069,-0.33752 -2.71065,-0.56138 -3.1059,-1.55036 -2.65609,-2.33061 -2.73215,-3.49085 0.24045,-0.63133 1.34682,-1.20344 2.15481,-0.95398 1.38947,0.43015 1.95938,0.3757 2.94962,-0.28178 0.40646,-0.26987 1.05138,-0.64908 1.43316,-0.84268 0.92422,-0.46867 1.1254,-0.72084 1.37391,-1.72222 0.37017,-1.49166 0.42662,-2.1859 0.17771,-2.1859 -0.11962,0 -0.2438,0.14279 -0.27596,0.31731 -0.0322,0.17452 -0.13198,0.71847 -0.22183,1.20877 -0.0898,0.49031 -0.23137,1.04072 -0.31448,1.22314 -0.14904,0.3271 -1.52598,1.15987 -1.52598,0.92291 0,-0.14689 1.66703,-1.52642 -1.4436,-3.29591 -3.11064,-1.76948 -10.42426,-1.62502 -16.4174,-2.70479 l -0.3033,-0.19838 0.36733,-0.88733 c 0.32418,-0.78306 0.36811,-1.0862 0.37382,-2.57964 0.004,-0.93077 -0.0844,-2.15994 -0.19557,-2.73148 -0.16004,-0.82306 -0.16954,-1.22904 -0.0457,-1.9522 0.086,-0.50216 0.19061,-0.94724 0.23243,-0.98906 0.0418,-0.0418 0.42893,0.24649 0.86024,0.64068 0.43131,0.3942 1.20941,0.92613 1.7291,1.18208 7.79489,1.11788 14.39047,1.14988 20.5202,6.31637 0.42144,0.39919 3.00442,2.64086 3.28862,4.17474 0.28421,1.53388 1.57792,4.58313 -0.96788,6.33977 -0.32696,0.21457 -1.10216,0.87889 -1.72268,1.47628 -0.62051,0.59738 -2.06586,1.15691 -2.32354,1.24339 -2.73104,0.77708 -3.28386,0.29345 -4.26023,0.33214 z"
         id="path2561"
         sodipodi:nodetypes="ccccssssccsszccsccssscczcscc" /><path
         style="fill:#c2bbb1;fill-opacity:1;stroke:none;stroke-width:0.159903;stroke-opacity:1"
         d="m 92.000548,115.79368 c -0.465383,-0.22621 -0.843256,-0.45932 -0.839716,-0.51803 0.0035,-0.0587 0.114848,-0.45701 0.247346,-0.88512 0.132501,-0.4281 0.301053,-1.41175 0.374563,-2.18589 0.131511,-1.38496 0.111146,-1.55614 -1.269781,-10.67243 -0.77189,-5.095693 -1.403437,-9.333651 -1.403437,-9.417683 0,-0.08403 0.195702,-0.0081 0.434893,0.168743 4.506074,-0.483563 5.26877,6.363275 8.326601,8.85103 0.337373,0.27112 0.75737,0.52246 0.756777,0.71435 -5.29e-4,0.17086 -0.680865,3.3089 -1.84119,6.79784 l -1.822603,6.29327 -0.958782,0.40269 c -0.370332,0.15555 -0.739137,0.44272 -0.836961,0.59936 -0.214919,0.34414 -0.13384,0.35442 -1.16771,-0.14811 z"
         id="path2557"
         sodipodi:nodetypes="ssssssccsscssss" /><path
         style="display:inline;fill:#f0ecdd;fill-opacity:1;stroke:none;stroke-width:0.113069;stroke-opacity:1"
         d="m 102.33784,119.39336 c -0.33981,-0.0515 -0.33981,-0.0868 0,-0.57719 0.15083,-0.21766 0.52439,-0.88799 0.83014,-1.48961 0.50347,-0.99068 0.58813,-1.10236 0.89748,-1.18395 0.33339,-0.0879 1.65833,-0.0313 1.76507,0.0754 0.0295,0.0295 -0.0197,0.22239 -0.10926,0.42862 -0.26338,0.60617 -0.38875,1.26714 -0.35168,1.85412 l 0.0346,0.54866 -0.97607,0.20766 c -0.92271,0.19632 -1.46183,0.23146 -2.09033,0.13625 z"
         id="path7349" /><path
         style="display:inline;fill:#f0ecdd;fill-opacity:1;stroke:none;stroke-width:0.113069;stroke-opacity:1"
         d="m 87.820891,119.45734 c -0.800941,-0.10393 -1.280848,-0.26189 -1.350989,-0.44468 -0.08898,-0.23188 0.107381,-2.565 0.240435,-2.85683 0.232968,-0.51098 0.551296,-0.55852 3.003825,-0.44855 1.107908,0.0497 1.205693,0.0721 2.077331,0.47712 0.7831,0.36384 0.907859,0.45464 0.867188,0.63111 -0.02612,0.11337 -0.126125,0.50959 -0.222213,0.88049 -0.159287,0.61483 -0.161208,0.70872 -0.02178,1.06371 l 0.152945,0.38936 -0.611979,0.10508 c -0.774041,0.1329 -2.695387,0.31416 -3.154844,0.29762 -0.191961,-0.007 -0.632931,-0.0494 -0.979935,-0.0944 z"
         id="path7345" /><path
         style="display:inline;fill:#f0ecdd;fill-opacity:1;stroke:none;stroke-width:0.113069;stroke-opacity:1"
         d="m 97.675921,120.25163 c -0.944578,-0.10704 -3.055768,-0.55161 -3.744004,-0.78839 -1.117802,-0.38458 -1.346402,-0.75151 -1.087901,-1.74615 0.236516,-0.91007 0.637662,-1.54501 1.195395,-1.89209 0.461548,-0.28723 0.52477,-0.29885 1.584947,-0.29117 1.89856,0.0137 2.910906,0.39136 4.086148,1.52421 0.640794,0.61767 0.966524,0.84698 1.578264,1.11106 0.4982,0.21507 0.74256,0.37078 0.69091,0.44027 -0.0439,0.0591 -0.36838,0.47763 -0.72096,0.92999 l -0.64105,0.82248 -1.096925,-0.0127 c -0.603306,-0.007 -1.433476,-0.0509 -1.844824,-0.0975 z"
         id="path7347" /><path
         style="display:inline;fill:#f0ecdd;fill-opacity:1;stroke:none;stroke-width:0.113069;stroke-opacity:1"
         d="m 110.78542,120.26248 c -1.97665,-0.2994 -3.48804,-0.69141 -4.52109,-1.17262 l -0.53599,-0.24967 0.0506,-0.65998 c 0.0659,-0.85964 0.38656,-1.68382 0.86469,-2.22235 0.36507,-0.41119 0.40936,-0.43166 0.91832,-0.42441 0.37271,0.005 1.03972,0.17906 2.20117,0.57339 0.91653,0.31118 1.78179,0.56578 1.92281,0.56578 0.14102,0 0.41731,-0.0672 0.61398,-0.14941 0.34093,-0.14245 0.38057,-0.13689 0.85133,0.11933 0.78514,0.42733 1.57883,1.3533 1.9988,2.33193 0.1981,0.46163 0.38932,0.95601 0.42492,1.09862 0.0634,0.25382 0.0517,0.26065 -0.55527,0.32409 -1.08692,0.11361 -2.99586,0.0529 -4.23425,-0.1347 z"
         id="path7351" /><path
         style="display:inline;fill:#c2bbb1;fill-opacity:1;stroke:none;stroke-width:0.159903;stroke-opacity:1"
         d="m 115.90989,119.71427 c -0.45174,-1.50957 -1.59117,-3.04709 -2.59818,-3.50591 -0.24518,-0.11171 -0.35568,-0.30145 -0.40957,-0.70323 -0.0406,-0.30264 -0.45695,-1.35903 -0.92523,-2.34753 -1.54444,-3.26017 -2.35205,-5.69989 -2.68919,-8.12381 -0.20711,-1.48904 -0.19176,-2.53653 0.0564,-3.84927 0.41766,-2.209448 3.00699,-6.729087 5.93088,-10.352272 1.69287,-2.097762 3.01434,-3.335097 4.11832,-3.856138 0.91564,-0.432149 1.23883,-0.787974 0.71571,-0.787974 -0.87047,0 -2.99429,1.668732 -4.75635,3.737178 l -0.60068,0.705128 0.0952,-0.830225 c 0.0523,-0.456626 0.18934,-1.122974 0.30444,-1.48077 0.18061,-0.539429 0.23631,-2.636766 0.0597,-2.141299 -0.0926,0.509659 -0.29215,1.330798 -0.44337,1.824751 -0.34301,1.120471 -0.52291,2.839083 -0.29717,2.839083 0.087,0 -0.21494,0.49612 -0.67094,1.102489 -1.67942,2.233211 -3.44184,5.163736 -4.24502,7.058533 -0.24229,0.571577 -0.59774,1.809076 -0.7899,2.749996 -0.44343,2.17129 -1.32781,4.79597 -2.52469,7.49283 -0.51636,1.16346 -1.43529,3.2666 -2.04208,4.67364 -1.29888,3.0119 -1.83914,4.14046 -1.98211,4.14046 -0.38093,0 -1.67995,-0.7934 -2.358095,-1.44023 -0.982988,-0.93761 -2.041946,-1.37536 -3.591362,-1.48457 -0.60112,-0.0424 -1.092948,-0.10935 -1.092948,-0.14883 0,-0.0395 0.927084,-3.24484 2.060186,-7.12303 1.133099,-3.87819 1.825151,-7.77399 1.865624,-8.220363 0.17615,-0.733815 0.189236,2.068913 -0.436122,1.782863 -0.577378,-0.12616 -7.699483,-8.601301 -10.158734,-10.941269 -1.932421,-2.140815 -3.82144,-5.564382 -4.743632,-6.681806 -1.507812,-2.240978 -2.419086,-4.459756 -2.87854,-6.358149 -0.57834,-2.389627 -0.726154,-4.098439 -0.719736,-8.320514 0.0058,-3.815437 0.01215,-3.898749 0.392041,-5.147437 0.216766,-0.712491 1.188869,-2.908514 2.216164,-5.006408 l 1.830017,-3.737179 -0.003,-1.128207 c -0.0059,-2.191324 -0.736455,-4.395933 -3.59822,-10.858974 -2.435362,-5.50005 -2.759548,-6.415495 -2.853234,-8.057091 -0.07626,-1.336278 0.149441,-3.103089 0.645601,-5.053751 l 0.249936,-0.982639 1.754982,0.04122 c 2.000051,0.04698 3.366881,-0.178718 4.471151,-0.738293 0.388435,-0.196834 1.88038,-1.296599 3.31543,-2.443922 3.671298,-2.935198 4.700085,-3.507846 6.098823,-3.394742 1.607788,0.130006 2.826843,1.179328 3.829775,3.296539 0.345543,0.729446 0.683937,1.326264 0.751988,1.326264 0.325684,0 0.222861,-0.375986 -0.494929,-1.809845 -0.579067,-1.156748 -0.944579,-1.700112 -1.432595,-2.129682 -0.360346,-0.31719 -0.997667,-0.671383 -0.966287,-0.69352 0.649417,-0.45815 3.338997,-0.864841 4.895836,-0.865966 2.25704,-0.0016 3.74092,0.471213 5.56615,1.773669 1.02409,0.730776 2.66874,2.22654 2.87791,2.617388 0.12123,0.226512 0.09,0.246705 -0.27039,0.174636 -0.56677,-0.113353 -2.25765,0.161163 -3.72442,0.604665 -1.00167,0.302871 -1.23397,0.424865 -1.23397,0.648023 0,0.208243 0.0598,0.249169 0.24679,0.168756 0.63727,-0.274113 2.59716,-0.79452 3.44515,-0.914786 1.7883,-0.253627 3.23973,0.290057 4.66615,1.747869 1.1467,1.171938 1.79128,2.56667 2.57725,5.576552 0.96172,3.682923 1.82851,5.85344 2.63613,6.601102 0.17576,0.162703 1.28734,0.847501 2.47019,1.521773 2.47339,1.40993 2.45767,1.383678 1.61164,2.692648 -1.19513,1.849104 -3.17515,3.062772 -8.41612,5.158716 -2.9143,1.165469 -3.65285,1.584008 -4.80702,2.724156 -1.35413,1.337677 -1.80419,2.269019 -1.79822,3.721195 0.0102,2.475111 1.99852,6.391587 3.68864,7.26558 2.76872,2.112267 5.17686,3.815043 6.98606,5.22122 1.8092,1.406176 2.2297,1.693089 4.62859,4.204607 1.056,1.105592 2.71306,4.181237 3.72358,5.235294 1.97538,3.211461 4.4315,7.53666 5.21723,10.055997 1.56109,4.986856 2.47548,9.47825 3.46986,13.866611 1.05427,4.40845 0.55823,7.42646 0.0215,11.11746 -0.1847,2.38266 -0.62503,3.59663 -1.76834,5.19128 -0.25545,0.35614 -0.61538,0.70504 -0.79986,0.77535 -0.49971,0.19044 -3.93961,0.37549 -10.10049,0.54335 -3.025,0.0824 -5.6331,0.17854 -5.79579,0.21362 -0.24531,0.0529 -0.32628,-0.0381 -0.47435,-0.53287 z M 96.408268,46.66771 c -0.03195,-0.09585 -0.330319,-0.220742 -0.663043,-0.277543 -0.841504,-0.143658 -1.835743,-0.651957 -2.00596,-1.025538 -0.104158,-0.228605 -0.0821,-0.491498 0.08175,-0.97409 0.123426,-0.363537 0.224409,-0.809302 0.224409,-0.990589 0,-0.275789 0.09261,-0.344422 0.567119,-0.420299 0.590359,-0.0944 3.478262,-2.057794 3.478262,-2.252916 0,-0.175697 -1.261562,-1.045848 -2.019363,-1.390841 -0.945213,-0.430313 -3.082383,-0.441394 -3.269565,-0.108275 -0.198427,0.353131 0.201195,0.614886 0.552149,1.281443 0.683148,1.297487 0.678976,2.357408 0.536757,2.445306 -0.06804,0.04205 -0.279987,0.370514 -0.333886,0.729924 -0.06336,0.422532 -0.219643,0.766212 -0.442216,0.972487 -0.434044,0.402259 -1.38893,0.656505 -1.832409,0.487894 -0.201459,-0.07659 -0.36199,-0.07256 -0.413255,0.0104 -0.270264,0.437296 0.740642,0.667705 1.612145,0.367448 0.612675,-0.211082 0.612746,-0.211069 0.964264,0.206687 0.557202,0.662197 1.495523,1.078582 2.480339,1.100664 0.370395,0.0083 0.522311,-0.04275 0.482507,-0.16215 z m 10.551842,-5.814663 c 0.38316,-0.113787 1.11884,-0.461516 1.63484,-0.772729 l 1.26228,-1.632307 c 0.17123,-0.678281 0.044,-0.399984 0.0965,-0.609762 l 0.22533,-0.990719 c 0.30802,-1.354269 0.28757,-1.65109 -0.18107,-2.627347 -1.18216,-2.462635 -3.21972,-3.323142 -5.71988,-2.415632 -1.18514,0.430183 -1.75272,0.8724 -2.54534,1.983155 -0.83601,1.171564 -2.040165,3.4456 -2.043618,3.859353 -0.0056,0.673386 0.848418,1.730727 1.760118,2.179108 0.64668,0.318045 2.67003,0.961602 3.42044,1.087919 1.02358,0.172305 1.33529,0.1632 2.0904,-0.06104 z m -11.250548,-4.690399 0.772263,-0.243435 -0.08289,-2.400795 c -0.142888,-4.138416 -0.678553,-5.392345 -2.595734,-6.07632 -0.673127,-0.240144 -2.15596,-0.255561 -2.914491,-0.0303 -0.724583,0.215177 -1.748656,1.214289 -2.17223,2.119288 -0.172439,0.36843 -0.392528,0.668785 -0.489085,0.667454 -0.09656,-0.0013 -0.651523,-0.127164 -1.233252,-0.279633 -0.581731,-0.152471 -1.07356,-0.278304 -1.092948,-0.279635 -0.01939,-0.0013 -0.21944,-0.159809 -0.108797,-0.03453 0.361487,0.409279 1.651026,1.023025 2.203926,1.195314 0.153437,0.04781 -0.08252,0.885856 0.184711,1.543359 0.558829,1.374963 2.202696,3.108844 3.537466,3.731162 0.898451,0.418891 2.80792,0.461031 3.991065,0.08808 z"
         id="path2417"
         sodipodi:nodetypes="sssssssssscsccssssssssssssccccsssscsssscssssssssscsssssssssssssssczsccccssssssssssssssssssssssssssssccsssssssssscssssssssssss" /><path
         style="display:inline;fill:#c2bbb1;fill-opacity:1;stroke:none;stroke-width:0.159903;stroke-opacity:1"
         d="m 109.76978,115.65654 c -1.86385,-0.65589 -2.68571,-0.71218 -3.26803,-0.22384 -0.36329,0.30467 -0.49403,0.32813 -1.47452,0.2646 l -1.07589,-0.0697 1.0249,-2.34473 c 0.5637,-1.2896 1.36103,-3.10626 1.77184,-4.03703 0.4108,-0.93077 1.01427,-2.45385 1.34103,-3.38462 0.58643,-1.67043 0.59532,-1.68501 0.68738,-1.1282 0.51448,3.11202 1.17797,5.20778 2.61184,8.25 1.11732,2.37059 1.22006,2.71175 0.90996,3.02185 -0.32524,0.32524 -0.80049,0.25977 -2.52851,-0.34832 z"
         id="path2559" /><path
         style="fill:#97928b;fill-opacity:1;stroke:none;stroke-width:0.159903;stroke-opacity:1"
         d="M 95.31465,34.112125 C 94.965612,33.63061 94.267535,32.797614 93.763369,32.261021 92.711986,31.142018 92.010192,30.7728 90.224927,30.399426 c -0.652254,-0.136417 -1.795349,-0.452718 -1.824165,-0.474367 -0.121319,-0.09116 1.063054,-1.678154 1.871398,-2.217734 1.322054,-0.882492 3.319386,-0.917877 4.89444,0.485785 0.657804,0.586224 1.160282,2.134632 1.241486,5.154221 0.02662,0.989864 0.103264,1.796227 0.07189,1.793965 -0.03137,-0.0024 -0.81629,-0.547656 -1.165328,-1.029171 z"
         id="path3188"
         sodipodi:nodetypes="ssssssscs" /><path
         style="fill:#97928b;fill-opacity:1;stroke:none;stroke-width:0.159903;stroke-opacity:1"
         d="m 108.87675,36.820323 c -1.29341,-1.150974 -3.48844,-1.47302 -5.27536,-0.773983 -1.16365,0.455216 -3.45846,0.824714 -3.636193,0.764265 -0.193125,-0.06569 1.641053,-3.052937 2.347183,-3.852042 1.03776,-1.174406 3.458,-1.865355 4.89676,-1.414778 1.27855,0.400405 2.23175,1.44557 2.78026,2.56839 0.38192,0.781802 0.48818,1.307513 0.32562,2.271247 -0.0921,0.545857 -0.34641,1.516444 -0.39762,1.547455 -0.0512,0.03101 -0.70461,-0.811524 -1.04065,-1.110554 z"
         id="path3190"
         sodipodi:nodetypes="sssssssss" /><path
         style="fill:#010101;fill-opacity:1;stroke:none;stroke-width:0.131105;stroke-opacity:1"
         d="m 110.10623,38.737578 c -1.20287,-0.880042 -2.35938,-1.565775 -3.46813,-2.056367 -1.15856,-0.512627 -2.5276,-0.646324 -4.77134,-0.17429 -2.170679,0.456664 -2.572704,0.433516 -0.94159,-0.05421 0.71939,-0.215113 2.22152,-0.608172 2.66569,-0.709383 0.82778,-0.188625 0.89135,-0.218183 2.09267,-0.214495 2.1093,0.0065 2.61766,0.716187 4.71998,2.781143 0.39352,0.386532 0.8129,0.672794 1.06175,0.693579 1.07022,0.08939 0.10498,0.308784 -0.36407,0.176921 -0.46905,-0.131863 -0.53825,-0.121516 -0.99496,-0.442898 z"
         id="path3922"
         sodipodi:nodetypes="csssscsszc" /><path
         style="fill:#010101;fill-opacity:1;stroke:none;stroke-width:0.151041;stroke-opacity:1"
         d="M 94.863327,34.013212 C 93.505382,32.760011 92.136393,31.736744 91.572415,31.553379 91.315271,31.469772 90.342799,31.275115 89.411371,31.120801 87.380822,30.784392 86.73391,30.560794 86.108,29.979027 c -0.535374,-0.497619 -0.537711,-0.630626 -0.0069,-0.396408 0.199304,0.08795 0.983325,0.215551 1.74227,0.283555 1.554649,0.139298 3.57098,0.651327 4.614892,1.17191 0.384184,0.191587 0.961463,0.621648 1.282846,0.955693 0.66595,0.692192 2.848936,3.081522 2.770941,3.169473 -0.02842,0.03206 -1.099396,-0.64315 -1.648656,-1.150038 z"
         id="path3924"
         sodipodi:nodetypes="csssssssscc" /><path
         style="fill:#97928b;fill-opacity:1;stroke:none;stroke-width:0.159903;stroke-opacity:1"
         d="m 115.456,34.651817 c -0.45906,-1.904778 -0.7463,-2.829626 -1.17064,-3.769283 l -0.49215,-1.089795 0.24819,-1.519179 c 0.31221,-1.911043 0.29767,-6.033636 0.0755,-7.069768 -0.0884,-0.412007 -0.8409,-2.131814 -0.81154,-2.161177 0.0854,-0.0854 2.29869,3.112572 2.79665,4.115612 0.39138,0.788366 0.47307,1.143664 0.58365,2.538463 0.1621,2.044668 0.0314,5.865381 -0.23922,6.994628 -0.11337,0.473006 -0.35965,1.202814 -0.54728,1.621795 l -0.34116,0.761781 z"
         id="path2563"
         sodipodi:nodetypes="sscscssssscs" /><path
         style="fill:#d4a0a0;fill-opacity:1;stroke:none;stroke-width:0.113069;stroke-opacity:1"
         d="m 113.20668,29.273879 c -0.56892,-0.636061 -1.60888,-1.396003 -2.26797,-1.657297 -0.31696,-0.125656 -0.62262,-0.409522 -0.97801,-0.908267 -0.11431,-0.160425 -0.0764,-0.253659 0.30754,-0.756256 1.06015,-1.387798 1.61941,-2.605926 2.42623,-5.284602 0.26837,-0.891 0.52452,-1.620205 0.56922,-1.620451 0.14789,-7.94e-4 0.74208,1.43197 0.93029,2.243253 0.28584,1.232125 0.25858,4.840968 -0.0524,6.930552 -0.1265,0.850117 -0.26047,1.578096 -0.29771,1.617736 -0.0373,0.03964 -0.32401,-0.21446 -0.63724,-0.564668 z"
         id="path3920" /><path
         style="fill:#836363;fill-opacity:1;stroke:none;stroke-width:0.125656;stroke-opacity:1"
         d="m 93.858323,41.523255 c -0.308194,-0.591351 -0.704988,-1.303078 -0.881761,-1.581615 -0.238804,-0.376277 -0.294452,-0.552542 -0.216527,-0.685847 0.164112,-0.280734 0.753202,-0.391824 1.759484,-0.331797 0.742697,0.0443 1.064889,0.125648 1.632127,0.412069 0.696038,0.35146 1.977653,1.251712 1.975558,1.387702 -0.002,0.13318 -2.935202,1.721007 -3.32065,1.797598 l -0.387871,0.07707 z"
         id="path3926" /><path
         style="fill:#f0ecdd;fill-opacity:1;stroke:none;stroke-width:0.0799515;stroke-opacity:1"
         d="m 92.645203,50.101457 c -1.557914,-0.228536 -3.086954,-1.601243 -4.225046,-2.79844 -0.915829,-0.96339 -1.183095,-1.681462 -0.983568,-2.642579 0.197464,-0.951177 0.384991,-1.670682 1.394425,-2.50892 0.240132,-0.199406 0.887952,-0.781906 1.155274,-1.031013 0.277189,-0.258302 0.837573,-0.643265 1.220134,-0.892528 0.382561,-0.249264 1.519187,-0.854963 1.527942,-0.843239 0.107114,0.143431 1.298961,2.455072 1.426343,2.688546 l 0.161466,0.295946 -0.560936,1.251245 c -0.170067,0.379358 -0.240435,0.814567 -0.31338,0.9131 -0.352222,0.475766 -1.0961,0.748173 -1.839281,0.67354 -0.38219,-0.03838 -0.492119,-0.0266 -0.564419,0.06052 -0.127611,0.15376 -0.0036,0.129636 0.226686,0.301401 0.263787,0.196784 0.405191,-0.05631 1.052553,-0.09183 l 0.77565,-0.116937 0.786533,0.583834 c 0.782422,0.580783 0.786693,0.787059 1.703188,0.787059 0.527807,0 0.638449,0.159505 0.758813,-0.01986 0.07675,-0.114376 -0.08394,-0.142981 -0.819328,-0.338098 -0.994863,-0.263962 -1.90038,-0.72406 -1.90038,-1.096459 0,-0.09613 0.07767,-0.676172 0.172604,-1.030449 0.09493,-0.354275 0.182192,-0.736881 0.19391,-0.850236 0.01548,-0.149683 0.299979,-0.797465 0.428007,-0.834771 0.696807,-0.203049 0.783383,-0.337952 1.637144,-0.733094 0.532421,-0.246417 1.20037,-0.535327 1.50211,-0.72769 l 0.529794,-0.379199 0.836585,1.233348 c 0.161028,0.237398 0.512513,0.715545 0.780229,1.063128 1.164205,1.511511 1.537265,1.898331 1.106525,3.946767 -0.13081,0.622134 -1.331271,1.843772 -1.889806,2.17458 -0.581711,0.344533 -1.532128,0.717594 -2.470373,0.856908 -1.144662,0.04196 -2.67418,0.255089 -3.809398,0.105423 z"
         id="path7864"
         sodipodi:nodetypes="cssssssscsssssscsssssssssscssssccc" /><path
         style="fill:#fffeda;fill-opacity:1;stroke:none;stroke-width:0.0399759;stroke-opacity:1"
         d="M 93.058241,36.368931 C 92.37968,36.298766 91.983289,36.18672 91.485973,35.924505 90.991901,35.664004 90.467925,35.249373 89.848126,34.628446 89.073799,33.852714 88.553033,33.14175 88.255972,32.454799 88.103125,32.101342 88.069459,31.902828 88.069459,31.354992 v -0.458134 l 0.114583,0.01976 c 0.06302,0.01087 0.43189,0.07708 0.819711,0.147135 2.215399,0.400167 2.493171,0.461621 2.810478,0.621797 0.590137,0.297903 1.651387,1.106313 2.795291,2.129325 0.493242,0.441116 0.949579,0.790384 1.451277,1.110771 0.403826,0.257887 0.399685,0.25056 0.399685,0.707239 v 0.275685 l -0.396634,0.122807 c -0.644438,0.199533 -0.766723,0.230423 -1.137018,0.287202 -0.437158,0.06703 -1.444686,0.09418 -1.868591,0.05035 z"
         id="path10176" /><path
         style="fill:#fffeda;fill-opacity:1;stroke:none;stroke-width:0.0399759;stroke-opacity:1"
         d="m 105.32747,40.969466 c -0.49396,-0.06673 -1.34873,-0.277466 -2.11538,-0.52152 -1.7012,-0.54156 -2.15313,-0.772872 -2.76126,-1.413288 -0.43172,-0.454644 -0.74393,-1.021702 -0.746012,-1.354971 -7.94e-4,-0.107423 0.216913,-0.722008 0.279826,-0.790392 0.01418,-0.0154 0.286046,-0.06682 0.604166,-0.114253 0.63843,-0.09519 0.72263,-0.110831 1.5127,-0.280929 0.87385,-0.188137 1.37163,-0.244044 2.16827,-0.24352 1.23614,7.94e-4 1.93734,0.189884 3.22596,0.86985 0.76061,0.401349 2.25641,1.334452 2.25641,1.407586 0,0.01463 -0.2677,0.372126 -0.59489,0.794464 l -0.59489,0.767887 -0.45399,0.23517 c -1.17054,0.606358 -1.86635,0.767471 -2.78091,0.643916 z"
         id="path10178" /><path
         style="fill:#000000;fill-opacity:1;stroke:none;stroke-width:0.286281;stroke-opacity:1"
         d="m 93.750956,32.96352 c 0,0 -0.857435,1.451135 -1.38692,1.919499 -0.529457,0.468389 -0.892172,0.913155 -1.241132,0.819975 -0.348983,-0.09323 -0.738952,-0.560621 -0.429186,-2.151524 0.309766,-1.590906 0.9332,-2.527191 0.9332,-2.527191 0,0 1.719855,1.120979 2.124039,1.93924 z"
         id="path10098" /><path
         style="fill:#000000;fill-opacity:1;stroke:none;stroke-width:0.295079;stroke-opacity:1"
         d="m 103.61964,36.128805 c 0,0 -0.55998,1.773381 -0.58823,2.558621 -0.0283,0.785235 -0.13962,1.412922 0.14012,1.639333 0.27977,0.226422 0.86209,0.216269 1.85631,-1.197084 0.99422,-1.413354 1.31317,-2.616687 1.31317,-2.616687 0,0 -1.86999,-0.63651 -2.72137,-0.384187 z"
         id="path10098-9" /><path
         style="fill:#444444;fill-opacity:1;stroke:none;stroke-width:0.3;stroke-opacity:1"
         d="m 93.562465,22.761131 c 0,0 1.022132,-0.448741 2.243703,0.199441 1.221573,0.648181 1.931193,1.506127 2.280213,2.32882 0.349022,0.822693 0.836044,1.610127 1.035484,1.884357 0.19944,0.27423 0.448741,0.448741 0.398881,0.02492 -0.04986,-0.423812 -0.373952,-1.246503 -0.772832,-2.019335 -0.398881,-0.772832 -1.495804,-2.168913 -1.770034,-2.368354 -0.27423,-0.19944 -1.196641,-0.47367 -1.670312,-0.448741 -0.49666,0.16342 -1.318652,0.04566 -1.745103,0.398892 z"
         id="path12591"
         sodipodi:nodetypes="csssssscc" /><path
         style="fill:#444444;fill-opacity:1;stroke:none;stroke-width:0.3;stroke-opacity:1"
         d="m 109.09991,26.287496 c 0,0 -1.63942,0.05288 -2.52084,0.299677 -0.88141,0.246796 -1.83333,0.546476 -1.95673,0.669872 -0.12339,0.123399 -0.26442,0.299681 -0.19391,0.423077 0.0705,0.123399 0.26443,0.03526 0.59936,-0.07051 0.33494,-0.10577 1.33975,-0.387822 2.04487,-0.511219 0.70513,-0.123399 2.16827,-0.405449 2.57372,-0.299679 0.40545,0.10577 0.85862,0.180374 1.1583,0.356658 0.29968,0.176281 1.14156,0.606661 1.14156,0.606661 0,0 -1.96902,-1.495282 -2.21581,-1.495282 -0.24679,0 -0.63052,0.02074 -0.63052,0.02074 z"
         id="path12647"
         sodipodi:nodetypes="cssssssscscc" /><path
         style="fill:#444444;fill-opacity:1;stroke:none;stroke-width:0.3;stroke-opacity:1"
         d="m 94.292216,42.382044 c 0,0 -0.652246,1.850962 -0.828527,2.044872 -0.176281,0.193911 -0.405448,0.511218 -0.951923,0.599361 -0.546473,0.08814 -1.163461,0 -1.375,0.07051 -0.211537,0.07051 -0.282051,0.264425 -0.176282,0.387821 0.10577,0.123397 0.05289,0.282051 0.616988,0.282051 0.564102,0 1.26923,-0.352565 1.480769,-0.264421 0.211537,0.08814 0.846154,0.634613 1.251601,0.916664 0.40545,0.282051 0.846156,0.458335 1.498399,0.475962 0.652243,0.01762 0.793269,0.08814 0.775639,-0.123396 -0.01762,-0.21154 -0.193907,-0.370192 -0.669869,-0.493591 -0.475962,-0.123397 -1.092949,-0.211537 -1.516026,-0.511218 -0.423079,-0.29968 -0.669872,-0.246795 -0.511219,-0.828526 0.158654,-0.581729 0.423076,-1.727563 0.546475,-2.009614 0.123397,-0.282051 0.211537,-0.493591 0.211537,-0.493591 z"
         id="path14101" /><path
         style="fill:#444444;fill-opacity:1;stroke:none;stroke-width:0.0399759;stroke-opacity:1"
         d="m 115.42711,119.65528 c -0.27673,-0.83942 -0.47802,-1.28555 -0.69816,-1.54731 -0.23194,-0.2758 -0.95538,-0.95285 -1.40426,-1.31422 -0.40893,-0.32921 -0.54453,-0.38137 -0.85364,-0.32836 -0.12871,0.0221 -0.31846,0.0752 -0.42167,0.11811 l -0.18766,0.078 -0.41135,-0.11662 c -0.22625,-0.0641 -0.70487,-0.19165 -1.0636,-0.28336 -0.35874,-0.0917 -0.99674,-0.27973 -1.41779,-0.41781 -0.6587,-0.21602 -0.82354,-0.25673 -1.18109,-0.29171 -0.36753,-0.036 -0.43971,-0.0336 -0.62462,0.0201 -0.18406,0.0535 -0.24523,0.0974 -0.51122,0.36645 -0.16618,0.16811 -0.35291,0.38254 -0.41495,0.47649 -0.20606,0.31205 -0.37036,0.93328 -0.48625,1.83858 -0.0323,0.25196 -0.0614,0.46051 -0.0647,0.46344 -0.003,0.003 -0.0656,0.03 -0.13832,0.0601 l -0.13223,0.0548 -0.053,-0.10258 c -0.093,-0.17992 -0.16626,-0.56829 -0.14283,-0.75762 0.0139,-0.11266 0.112,-0.36354 0.27172,-0.69516 0.29557,-0.61368 0.32822,-0.77193 0.19253,-0.93319 -0.0505,-0.06 -0.15822,-0.13566 -0.23942,-0.16815 -0.19583,-0.0784 -0.74508,-0.1221 -1.09285,-0.087 -0.6124,0.0617 -0.8276,0.20923 -1.03428,0.70886 -0.17862,0.43182 -0.86537,1.78012 -1.06073,2.08254 l -0.15373,0.23798 h -0.21225 c -0.11674,0 -0.21225,-0.009 -0.21225,-0.0194 0,-0.0426 0.10492,-0.21733 0.20871,-0.3476 0.0639,-0.0803 0.10202,-0.1623 0.0912,-0.19644 -0.0107,-0.0337 0.20068,-0.50768 0.49614,-1.1127 1.43809,-2.94478 2.82816,-5.92024 3.68471,-7.88718 1.11305,-2.55594 1.73043,-4.4535 2.65837,-8.17067 0.18152,-0.72716 0.38768,-1.48677 0.45813,-1.688015 0.39772,-1.136224 1.00601,-2.452031 1.51912,-3.286043 0.22296,-0.362389 1.88818,-2.854597 2.95095,-4.416438 l 0.6681,-0.981839 -0.043,-0.463672 c -0.0735,-0.792422 -7.9e-4,-1.404779 0.2662,-2.244122 0.31651,-0.994746 0.53976,-2.374601 0.53976,-2.762888 0.0178,-1.120089 -0.0443,-3.806556 0.0882,-5.552896 0.066,-0.74647 -0.0637,-1.242589 -0.23417,-1.870309 -0.17051,-0.62772 -0.0652,-0.821997 -1.03166,-2.314146 -0.72161,-1.114121 -0.77679,-1.219666 -0.72611,-1.388833 0.0209,-0.06969 0.0623,-0.15813 0.0921,-0.19654 0.0525,-0.06772 0.059,-0.06448 0.2143,0.106447 0.57783,0.635961 1.21958,1.511477 1.46351,1.996631 0.4122,0.81983 0.62286,2.274545 0.6812,3.335063 0.006,1.185745 -0.0817,1.518879 -0.13081,2.427919 0.053,0.24733 -0.027,1.422214 0.0275,1.956982 0.0756,0.741222 0.11519,0.693105 0.0787,1.406435 -0.0367,0.717542 -0.32571,2.276086 -0.7116,3.837581 -0.12621,0.510709 -0.22947,0.94053 -0.22947,0.955156 0,0.02209 0.23118,0.10827 0.29039,0.10827 0.01,0 0.10122,-0.128405 0.20319,-0.285348 0.53859,-0.828945 1.63495,-1.96066 2.68987,-2.776603 0.59173,-0.457685 1.33462,-0.889664 1.79392,-1.043131 0.35214,-0.117663 0.48634,-0.117104 0.60596,0.0026 0.15734,0.15734 0.12776,0.206325 -0.23317,0.386019 -0.50303,0.250442 -1.34455,0.761908 -1.77267,1.077405 -0.76289,0.562194 -2.46552,2.38108 -3.86215,4.125857 -0.60934,0.761227 -0.8526,1.112102 -1.13881,1.642573 -0.13331,0.247081 -0.59265,1.060053 -1.02075,1.806609 -1.96652,3.429315 -2.26025,3.974195 -2.53726,4.706731 -0.32737,0.865685 -0.52125,1.671425 -0.59495,2.472525 -0.0328,0.35639 -0.0293,0.61241 0.0191,1.39698 0.18686,3.02817 0.15264,2.90577 2.02276,7.23626 0.84707,1.96148 1.10501,2.58635 1.17162,2.83825 0.0686,0.25941 0.35365,1.12208 0.48345,1.46303 0.1387,0.36433 0.1701,0.40209 0.70992,0.85352 0.60262,0.50394 0.86848,0.76694 1.13085,1.11868 0.38799,0.52017 0.84381,1.30405 1.09806,1.88838 0.10498,0.24126 0.24304,0.69413 0.24452,0.80208 5.3e-4,0.0311 -0.0713,0.0441 -0.24327,0.0441 h -0.24387 l -0.14819,-0.44952 z m -3.29247,-3.60252 c 0.11461,-0.0507 0.17201,-0.10274 0.2078,-0.18839 0.0804,-0.1924 0.0922,-0.16001 -0.78225,-2.14098 -1.29867,-2.94191 -1.59961,-3.72854 -1.949,-5.09455 -0.24944,-0.97521 -0.98436,-3.50851 -1.05749,-3.64516 -0.017,-0.0317 -0.0709,0.068 -0.15267,0.28205 -1.74427,4.56692 -2.13843,5.53348 -3.15946,7.74768 -0.98792,2.14238 -1.10452,2.40726 -1.0724,2.43613 0.0975,0.0876 0.76857,0.21258 1.14301,0.21281 0.35102,2.7e-4 0.60798,-0.0601 0.99933,-0.23472 1.35487,-0.60443 1.84991,-0.56189 4.11819,0.35387 0.4529,0.18285 0.86253,0.34079 0.91029,0.35099 0.17407,0.0371 0.63496,-0.009 0.79465,-0.0797 z"
         id="path17086"
         sodipodi:nodetypes="ssscsccssccssccccscssccsscsscsssscsscsccczsccssccsssssssscsssscsscsssssscsccscscsccscccsccc" /><path
         style="fill:#444444;fill-opacity:1;stroke:none;stroke-width:0.3;stroke-opacity:1"
         d="m 89.224638,91.094391 c 0,0 -0.112186,0.88501 -0.08725,1.00966 0.02492,0.12465 0.535995,0.44874 1.034597,0.52353 2.93229,1.477508 5.458588,5.458215 7.080134,8.114779 0.174511,0.29916 0.523531,0.64338 0.67311,0.71817 0.14958,0.0748 0.598322,-0.14478 0.423811,0.95214 -0.174509,1.09692 -3.540066,12.48995 -3.540066,12.48995 0,0 -1.670314,0.57339 -1.745104,0.79776 -0.07479,0.22438 -0.249301,0.27423 -0.59832,0.12465 -0.34902,-0.14958 -1.196642,-0.62325 -1.196642,-0.62325 0,0 -0.299162,0.29916 -0.299162,0.52354 0,0.22436 0.324091,0.22436 0.598321,0.44873 0.27423,0.22438 0.947343,0.42382 0.972272,0.59833 0.02492,0.17451 -0.373951,0.94734 -0.32409,1.39608 0.04986,0.44874 0.299161,0.97227 0.299161,0.97227 l 0.648182,-0.0997 c 0,0 -0.324091,-0.27423 -0.249301,-0.84762 0.07479,-0.57339 0.12465,-1.32129 0.598321,-1.7451 0.47367,-0.42382 0.722971,-0.77284 1.296363,-0.77284 0.573389,0 2.218772,-0.17451 3.016535,0.27423 0.797761,0.44875 1.022131,0.77284 1.844824,1.34623 0.822686,0.57339 1.271436,0.84762 1.595526,1.04706 0.32409,0.19944 0.64818,0.27423 0.64818,0.27423 l 0.37395,-0.69804 c 0,0 -0.42381,-0.19944 -0.84762,-0.37395 -0.42381,-0.17451 -1.39609,-0.97227 -1.670318,-1.19664 -0.27423,-0.22437 -1.421011,-0.87256 -1.819891,-0.99721 -0.398883,-0.12465 -2.119056,-0.42381 -2.343425,-0.42381 -0.224372,0 -0.27423,-0.0499 -0.27423,-0.0499 l 3.265834,-11.21852 0.859202,-3.40811 c -0.117686,-5.096838 0.01994,-11.363479 1.111538,-14.764119 0,-0.39888 0.33619,-0.96648 0.062,-1.04127 -0.27423,-0.0748 -0.31527,-0.10423 -0.41499,0.16997 -0.0997,0.27423 -0.11735,0.56004 -0.242003,0.8592 -1.968299,5.983835 -1.161031,9.504058 -1.075015,14.21013 0,0.448739 -0.02644,0.758229 -0.126162,0.982599 -0.09972,0.22437 -0.07656,0.4369 -0.475443,0.0879 -0.398881,-0.34902 -0.54669,-0.56155 -0.596548,-1.134949 -2.604152,-4.047967 -5.647992,-6.952085 -7.628594,-7.74071 -0.398881,-0.14958 -0.585858,-0.43628 -0.585858,-0.43628 z"
         id="path17088"
         sodipodi:nodetypes="csccsscsscssssccssssssccssssccccssccsscccc" /><path
         style="fill:none;fill-opacity:1;stroke:#444444;stroke-width:0.3;stroke-opacity:1"
         d="m 81.670831,39.289753 c 0,0 -1.047062,-2.493004 -1.595523,-3.988809 -0.700598,-1.910726 -0.9972,-5.98321 -0.9972,-5.98321 0,0 0.747902,1.445943 1.794964,3.041466 1.047062,1.595523 1.346222,2.393285 1.346222,2.393285"
         id="path17090"
         sodipodi:nodetypes="cscsc" /><path
         style="fill:none;fill-opacity:1;stroke:#444444;stroke-width:0.3;stroke-opacity:1"
         d="m 78.928528,29.118294 c 0,0 1.944542,1.545662 3.340627,1.844823 1.396081,0.299159 1.396081,0.299159 1.396081,0.299159"
         id="path17092" /><path
         style="fill:none;fill-opacity:1;stroke:#444444;stroke-width:0.3;stroke-opacity:1"
         d="m 115.87486,42.480797 c 0,0 1.79496,0.349023 3.34062,0.797764 1.54566,0.448741 3.29077,0.398881 3.29077,0.398881 0,0 -0.14958,0.797761 -3.63979,1.047062 -3.4902,0.2493 -5.63419,-0.04986 -5.63419,-0.04986"
         id="path17094" /><path
         style="fill:none;fill-opacity:1;stroke:#444444;stroke-width:0.3;stroke-opacity:1"
         d="m 122.50625,43.77716 c 0,0 -1.34622,1.944545 -4.08853,2.792167 -2.7423,0.847622 -3.93895,1.29636 -3.93895,1.29636"
         id="path17096" /><path
         style="fill:#010101;fill-opacity:1;stroke:none;stroke-width:0.3;stroke-opacity:1"
         d="m 88.560327,30.599103 c 0,0 -1.304485,-0.458333 -1.621795,-0.987179 -0.317307,-0.528847 -0.246795,-0.634617 -0.246795,-0.634617 0,0 0.528846,0.634617 1.092948,0.846154 0.564105,0.211539 1.410259,0.669872 1.410259,0.669872 z"
         id="path17359" /><path
         style="fill:#010101;fill-opacity:1;stroke:none;stroke-width:0.3;stroke-opacity:1"
         d="m 108.92362,37.569545 c 0,0 1.09295,0.10577 1.65706,0.387821 0.5641,0.282051 0.88141,0.387821 1.16346,0.423076 0.28205,0.03526 0.31731,0.03526 0.31731,0.03526 0,0 -0.2468,0.246796 -0.84616,0.141026 -0.59936,-0.10577 -2.00961,-0.528847 -2.00961,-0.528847 z"
         id="path17361" /><path
         style="fill:#444444;fill-opacity:1;stroke:none;stroke-width:0.3;stroke-opacity:1"
         d="m 151.50114,124.43316 c 0,0 0.84762,0.0499 1.2465,-0.9972 0.39888,-1.04706 0.44875,-2.14398 0.64819,-2.49301 0.19944,-0.34902 0.53688,-0.43111 0.58674,-0.0821 0.0499,0.34902 -0.0382,1.62776 -0.33744,2.42552 -0.29916,0.79776 -0.38523,0.91709 -0.63453,1.11653 -0.2493,0.19944 -1.88868,0.94406 -1.88868,0.94406 0.24043,-0.17967 0.12067,-0.36073 0.37922,-0.9138 z"
         id="path18938"
         sodipodi:nodetypes="csscsscc" /><path
         style="fill:#9d2525;stroke:none;stroke-width:0.213673;stroke-opacity:1;fill-opacity:1"
         d="m 383.42664,371.05506 c -3.30766,-0.51476 -6.26127,-1.13139 -6.83517,-1.42699 -0.56766,-0.29239 -4.06965,-4.05311 -5.90671,-6.3431 -1.55607,-1.93972 -3.44654,-4.76534 -4.2271,-6.31811 -0.32564,-0.64778 -0.69685,-1.17754 -0.82492,-1.17722 -0.12807,3.7e-4 -1.12326,0.17443 -2.21155,0.38693 -5.0099,0.97822 -14.36725,2.30699 -21.10613,2.99713 -9.52869,0.97584 -16.84817,1.34685 -26.57111,1.34684 -8.16142,0 -12.70717,-0.18563 -19.31588,-0.78877 -23.89283,-2.18056 -50.95005,-9.56156 -71.46923,-19.49623 -3.47209,-1.68107 -3.62076,-1.77542 -3.45767,-2.19413 0.26518,-0.68084 6.64874,-15.8855 6.68719,-15.92789 0.0188,-0.0207 1.98178,0.59965 4.36221,1.37855 16.68559,5.45974 37.13951,10.19235 53.60711,12.40358 21.93857,2.94585 42.98272,2.49905 62.65883,-1.33037 3.7902,-0.73766 9.15821,-2.04311 11.58952,-2.81847 0.881,-0.28095 1.70101,-0.5126 1.82226,-0.51478 0.12125,-0.002 0.92686,-0.63844 1.79025,-1.41392 15.61355,-14.02363 28.84414,-22.41106 36.97108,-23.43751 2.19652,-0.27743 3.49655,-0.0671 7.2821,1.17804 5.69185,1.8722 7.84856,3.63231 8.49134,6.92989 0.47969,2.46091 -0.26317,11.34521 -1.23565,14.77791 -1.89367,6.68427 -7.71386,11.52247 -16.02812,13.32382 -3.53797,0.76654 -5.22175,0.72715 -20.06005,-0.4692 -3.16121,-0.25487 -6.21406,-0.50803 -6.78411,-0.56257 -0.85551,-0.0819 -0.34553,0.14208 2.92093,1.2826 10.46969,3.65557 16.74469,7.04793 19.73861,10.67099 0.97775,1.1832 1.38831,2.13966 1.7554,4.08944 0.56835,3.01878 -0.0728,6.36033 -1.68689,8.7921 -1.02157,1.53905 -3.2323,3.53004 -4.76021,4.28704 -1.15567,0.57257 -1.47694,0.6443 -3.08048,0.68778 -1.07763,0.0292 -2.71598,-0.0955 -4.11585,-0.31338 z m 4.05901,-3.4119 c 1.25208,-0.60611 1.80822,-1.69877 1.90604,-3.74483 0.16508,-3.45282 -1.58121,-7.51484 -4.61829,-10.74252 -1.83487,-1.95001 -3.82812,-3.33733 -7.01332,-4.88135 -2.22181,-1.07701 -7.20021,-2.86506 -8.76219,-3.14704 l -0.73629,-0.13292 0.12321,1.17882 c 0.33411,3.19663 1.94529,8.71911 3.40713,11.67832 1.46753,2.97071 2.78122,4.63888 4.94656,6.28131 4.34749,3.29763 8.43109,4.6314 10.74715,3.51021 z m 11.87839,-32.54629 c 4.02132,-0.88552 7.10546,-3.19063 8.91019,-6.65955 1.24404,-2.3912 1.562,-3.8924 1.5709,-7.41684 0.008,-3.38411 -0.168,-4.29095 -1.02541,-5.2675 -0.78753,-0.89694 -1.58442,-1.1141 -3.63921,-0.99172 -1.94309,0.11573 -3.26977,0.44191 -8.21564,2.01992 -5.42115,1.72965 -8.82159,3.35843 -15.92383,7.62734 -4.69322,2.82094 -13.45106,8.53069 -13.46709,8.78 -0.008,0.11905 3.88903,0.74458 8.09634,1.29971 2.28794,0.30188 5.56451,0.63016 10.17617,1.01955 0.46641,0.0394 3.30725,0.0492 6.31299,0.0219 4.67396,-0.0425 5.71678,-0.10517 7.20459,-0.43279 z"
         id="path22029"
         transform="matrix(0.16769511,0,0,0.16769511,46.313142,0.72681983)" /></g></g></svg>
