<?xml version="1.0" encoding="UTF-8" standalone="no"?>
<!-- Created with Inkscape (http://www.inkscape.org/) -->

<svg
   width="210mm"
   height="297mm"
   viewBox="0 0 210 297"
   version="1.1"
   id="svg8"
   inkscape:version="1.2.2 (732a01da63, 2022-12-09)"
   sodipodi:docname="dessin_poussin.svg"
   xmlns:inkscape="http://www.inkscape.org/namespaces/inkscape"
   xmlns:sodipodi="http://sodipodi.sourceforge.net/DTD/sodipodi-0.dtd"
   xmlns="http://www.w3.org/2000/svg"
   xmlns:svg="http://www.w3.org/2000/svg"
   xmlns:rdf="http://www.w3.org/1999/02/22-rdf-syntax-ns#"
   xmlns:cc="http://creativecommons.org/ns#"
   xmlns:dc="http://purl.org/dc/elements/1.1/">
  <defs
     id="defs2" />
  <sodipodi:namedview
     id="base"
     pagecolor="#ffffff"
     bordercolor="#666666"
     borderopacity="1.0"
     inkscape:pageopacity="0.0"
     inkscape:pageshadow="2"
     inkscape:zoom="0.7"
     inkscape:cx="180"
     inkscape:cy="688.57143"
     inkscape:document-units="mm"
     inkscape:current-layer="g858"
     showgrid="false"
     inkscape:snap-global="false"
     inkscape:window-width="2560"
     inkscape:window-height="1369"
     inkscape:window-x="-8"
     inkscape:window-y="-8"
     inkscape:window-maximized="1"
     inkscape:showpageshadow="2"
     inkscape:pagecheckerboard="0"
     inkscape:deskcolor="#d1d1d1" />
  <metadata
     id="metadata5">
    <rdf:RDF>
      <cc:Work
         rdf:about="">
        <dc:format>image/svg+xml</dc:format>
        <dc:type
           rdf:resource="http://purl.org/dc/dcmitype/StillImage" />
        <dc:title />
      </cc:Work>
    </rdf:RDF>
  </metadata>
  <g
     inkscape:label="Calque 1"
     inkscape:groupmode="layer"
     id="layer1">
    <path
       style="fill:none;stroke:#000000;stroke-width:0.26458332px;stroke-linecap:butt;stroke-linejoin:miter;stroke-opacity:1"
       d="m 12.733612,20.4679 c 0,0 -0.283484,-7.110677 4.393973,-8.976934 3.996975,-1.5947501 4.724705,-1.6063991 4.724705,-1.6063991 0,0 -3.023813,-2.834822 -1.984379,-2.929316 1.039439,-0.09449 3.307289,1.700893 3.307289,1.700893 0,0 1.13393,-4.063243 1.98438,-4.063243 0.85045,0 -0.18899,4.535712 -0.18899,4.535712 0,0 5.10268,0.472472 7.37054,3.9687501 2.26785,3.496281 2.74032,7.559524 1.88987,9.638395 -0.85044,2.078868 -0.37797,3.590771 3.11831,4.535712 3.49628,0.944941 6.45605,1.445089 7.40099,1.917558 0.94494,0.472472 2.75654,0.80459 2.75654,0.80459 0,0 -1.33913,-2.127506 -0.77216,-2.410989 0.56696,-0.28348 1.79538,0.566965 2.26785,1.511906 0.47247,0.944941 -0.0945,0.944941 -0.0945,0.944941 0,0 1.51191,-3.96875 2.55135,-3.96875 1.03943,0 1.98437,3.023809 1.41741,3.874257 -0.56697,0.850444 -1.53287,3.196579 -1.53287,3.196579 0,0 -2.72134,7.89362 -4.80021,9.87799 -2.07887,1.98438 -7.00009,5.39763 -12.17433,5.5704 -5.57284,0.18608 -11.38318,0.41515 -16.202371,-3.83708 -4.819198,-4.25223 -6.709077,-9.07143 -5.291667,-12.85119 1.41741,-3.779764 0.212611,-6.968939 0.212611,-6.968939"
       id="path826"
       inkscape:connector-curvature="0"
       sodipodi:nodetypes="cscccscssscccscscccsssc" />
    <path
       style="fill:none;stroke:#000000;stroke-width:0.26458332px;stroke-linecap:butt;stroke-linejoin:miter;stroke-opacity:1"
       d="m 24.02565,30.956738 c 0,0 1.70089,5.575154 4.44122,6.803574 2.74033,1.22843 6.42559,1.7009 8.31547,1.6064 1.88989,-0.0945 2.07887,-3.1183 1.7009,-4.15774 -0.37798,-1.03943 -3.96875,-4.535714 -5.48066,-5.386162 -1.5119,-0.850447 -3.0238,-1.41741 -3.0238,-1.41741"
       id="path828"
       inkscape:connector-curvature="0" />
    <path
       style="fill:none;stroke:#000000;stroke-width:0.26458332px;stroke-linecap:butt;stroke-linejoin:miter;stroke-opacity:1"
       d="m 18.508414,15.164283 c 0,0 -1.336347,1.00226 -1.570207,2.204971 -0.233863,1.202714 -0.133636,2.271792 0.668173,2.772923 0.801809,0.501129 2.271789,0.768401 2.839739,-0.100227 0.567941,-0.868627 1.302941,-2.204974 0.734991,-3.441094 -0.567949,-1.236122 -1.77066,-1.670436 -2.672696,-1.436573 z"
       id="path830"
       inkscape:connector-curvature="0" />
    <path
       style="fill:none;stroke:#000000;stroke-width:0.26458332px;stroke-linecap:butt;stroke-linejoin:miter;stroke-opacity:1"
       d="m 13.998241,14.663151 c 0,0 1.403165,-0.300678 1.570207,0.467723 0.167045,0.7684 0.167045,1.870884 -0.167042,2.53906 -0.334087,0.668174 -0.05215,1.080223 -1.336347,1.135894 -1.2842,0.05567 -1.2842,0.05567 -1.2842,0.05567"
       id="path832"
       inkscape:connector-curvature="0" />
    <path
       style="fill:none;stroke:#000000;stroke-width:0.26458332px;stroke-linecap:butt;stroke-linejoin:miter;stroke-opacity:1"
       d="M 13.730973,19.874906 9.2542068,22.61442 c 0,0 -0.668174,0.467723 -0.367496,0.801809 0.300678,0.334087 3.1465862,1.16359 4.2763122,1.46998 1.129729,0.306393 2.639288,0.56795 3.474503,0.200454 0.835218,-0.367496 3.006783,-1.904296 3.040192,-2.238383 0.03341,-0.334087 -0.133635,-1.069078 -1.469982,-1.202711 -1.336347,-0.133636 -2.57247,-0.467723 -2.873148,-0.868627 -0.300677,-0.400905 -0.601355,-0.835218 -0.734991,-0.868627 -0.133633,-0.03341 0.133638,-0.23386 -0.868624,-0.03341 z"
       id="path836"
       inkscape:connector-curvature="0" />
    <path
       style="fill:none;stroke:#000000;stroke-width:0.26458332px;stroke-linecap:butt;stroke-linejoin:miter;stroke-opacity:1"
       d="m 29.22954,48.558922 c 0.56696,0.61421 0.27676,0.9659 2.07215,1.86359 1.79539,0.8977 4.77195,0.80321 5.57515,0.37798 0.8032,-0.42522 2.4096,-1.84263 2.74033,-2.36235 0.33073,-0.51972 0.89769,-1.3587 0.89769,-1.3587"
       id="path838"
       inkscape:connector-curvature="0"
       sodipodi:nodetypes="cccsc" />
    <path
       style="fill:none;stroke:#000000;stroke-width:0.26458332px;stroke-linecap:butt;stroke-linejoin:miter;stroke-opacity:1"
       d="m 24.15118,47.902212 c 0,0 1.48087,2.75654 3.79597,2.94553 2.3151,0.18899 2.97656,-0.61421 2.97656,-0.61421"
       id="path840"
       inkscape:connector-curvature="0"
       sodipodi:nodetypes="csc" />
    <path
       style="fill:none;stroke:#000000;stroke-width:0.26458332px;stroke-linecap:butt;stroke-linejoin:miter;stroke-opacity:1"
       d="m 27.38019,50.942232 0.28348,5.14993"
       id="path842"
       inkscape:connector-curvature="0" />
    <path
       style="fill:none;stroke:#000000;stroke-width:0.26458332px;stroke-linecap:butt;stroke-linejoin:miter;stroke-opacity:1"
       d="m 29.78979,50.800492 c 0,0 -0.85045,4.11049 -0.94495,4.7247 -0.0945,0.61422 -0.14173,0.75596 -0.14173,0.75596 l 1.84263,0.47247 c 0,0 -1.08668,-0.0945 -1.84263,0.89769 -0.75596,0.99219 -1.84264,2.69308 -1.84264,2.69308 0,0 -0.33073,-0.37798 -0.0945,-0.99219 0.23624,-0.61421 0.42522,-1.18117 0.42522,-1.18117 0,0 -1.70089,1.37016 -1.79538,1.55915 -0.0945,0.18899 -0.51972,0 -0.0472,-0.70871 0.47247,-0.7087 1.27567,-1.37016 1.27567,-1.37016 0,0 -1.41741,0.89769 -1.6064,1.22842 -0.18899,0.33073 -0.51972,0.61421 -0.51972,0.61421 0,0 0.33073,-1.60639 1.22842,-2.3151 0.8977,-0.7087 1.93713,-1.08668 1.93713,-1.08668"
       id="path844"
       inkscape:connector-curvature="0" />
    <path
       style="fill:none;stroke:#000000;stroke-width:0.26458332px;stroke-linecap:butt;stroke-linejoin:miter;stroke-opacity:1"
       d="m 33.47505,51.178472 0.70871,5.19717 c 0,0 -1.81243,0.95624 -2.02643,1.21604 -0.29856,0.36246 0.94904,0.0848 0.71672,0.29665 -0.4154,0.37878 -0.33145,0.3165 -0.95815,0.9914 -1.22842,1.32292 -1.32292,1.6064 -1.32292,1.6064 0,0 2.88207,-1.98437 2.88207,-1.93713 0,0.0473 -1.03943,1.6064 -1.08668,2.22061 -0.0473,0.61421 -0.0955,0.65286 0.42424,0.32213 0.51972,-0.33073 1.79637,-2.44824 1.79637,-2.44824 0,0 0.56697,0.89769 0.56697,1.70089 0,0.8032 0.14174,1.18118 0.47247,0.89769 0.33073,-0.28348 -0.0945,-3.68526 -0.14175,-3.96875 -0.0472,-0.28348 0.51972,-6.04761 0.51972,-6.04761"
       id="path846"
       inkscape:connector-curvature="0"
       sodipodi:nodetypes="ccssccscccsccc" />
    <path
       style="fill:none;stroke:#000000;stroke-width:0.26458332px;stroke-linecap:butt;stroke-linejoin:miter;stroke-opacity:1"
       d="m 8.9201198,23.082143 c 0,0 4.0758612,1.035669 5.8131132,0.801806 1.737251,-0.23386 3.741772,-1.135896 3.741772,-1.135896"
       id="path848"
       inkscape:connector-curvature="0" />
    <path
       style="fill:none;stroke:#000000;stroke-width:0.26458332px;stroke-linecap:butt;stroke-linejoin:miter;stroke-opacity:1"
       d="m 24.02085,30.933185 c 0,0 0.83522,-1.369759 2.3052,-1.971114 1.46998,-0.601356 3.77518,-0.601356 3.77518,-0.601356"
       id="path867"
       inkscape:connector-curvature="0" />
    <path
       style="fill:#111111;fill-opacity:1;stroke:none;stroke-width:0.30886075px;stroke-linecap:butt;stroke-linejoin:miter;stroke-opacity:1"
       d="m 17.87372,16.610639 c 0,0 -0.553409,0.321561 -0.595979,1.071865 -0.04257,0.750303 -0.21285,1.750707 0.383128,1.822165 0.595977,0.07146 1.447374,-0.07146 1.617654,-0.821761 0.170277,-0.750305 0.255418,-1.42915 -0.17028,-1.750708 -0.425699,-0.321561 -1.234523,-0.321561 -1.234523,-0.321561 z"
       id="path850"
       inkscape:connector-curvature="0" />
    <path
       style="fill:#111111;fill-opacity:1;stroke:none;stroke-width:0.26458332px;stroke-linecap:butt;stroke-linejoin:miter;stroke-opacity:1"
       d="m 14.840438,15.575628 c 0,0 0.366342,0.380566 0.260471,1.074919 -0.10587,0.694352 -0.159698,1.637757 -0.631402,1.610843 -0.471704,-0.02691 -1.1003,-0.289937 -1.092681,-1.00409 0.0076,-0.714156 0.06754,-1.349609 0.454451,-1.578349 0.386911,-0.228742 1.009161,-0.103323 1.009161,-0.103323 z"
       id="path850-2"
       inkscape:connector-curvature="0" />
    <g
       id="g858"
       transform="translate(33.261904,-86.556548)">
      <g
         id="g2651">
        <path
           inkscape:export-ydpi="96"
           inkscape:export-xdpi="96"
           sodipodi:nodetypes="ccccscscsccsscccccccccscccccc"
           inkscape:connector-curvature="0"
           id="path891"
           d="m 127.50628,254.51695 c -0.0938,-0.41528 -0.17233,-1.18538 -0.49681,-2.48715 -1.05478,-2.42829 -0.51311,-1.46966 -1.23677,-3.01958 -0.53471,-1.0956 -0.58654,-1.14744 -0.7922,-0.79194 -0.12114,0.20918 -0.78474,0.85892 -1.67191,2.53264 -0.88718,1.67375 -0.83521,1.54606 -1.35945,2.39178 -0.89205,1.43912 -2.1509,2.96846 -2.4434,2.96846 -0.23955,0 0.0631,-1.87064 0.52836,-3.2668 0.25388,-0.76232 -0.33372,0.47227 0.3656,-1.02101 0.69946,-1.49324 1.31198,-2.8436 1.36108,-3.00081 0.0577,-0.18495 -0.0741,-0.36877 -0.37232,-0.52066 -0.44149,-0.22453 -0.59982,-0.12113 -3.63077,2.37308 -1.74302,1.43431 -3.20951,2.5583 -3.25888,2.49766 -0.0836,-0.10271 1.4872,-2.27203 4.26863,-5.8958 1.23312,-1.60657 1.32949,-2.00288 0.5729,-2.35609 -0.21532,-0.10066 -0.73144,-0.18529 -1.14686,-0.18802 l -0.75532,-0.003 1.12857,-0.88171 c 0.6207,-0.485 2.14425,-1.56855 3.38566,-2.40802 1.24144,-0.83944 2.27753,-1.54197 2.30247,-1.56118 0.0239,-0.0205 -0.50103,-4.93892 -1.16886,-10.93266 -0.6678,-5.99381 -1.21425,-10.92837 -1.21425,-10.9658 -3e-5,-0.0379 1.70484,-0.0679 3.78862,-0.0679 2.97447,0 3.78872,0.0546 3.78879,0.25387 7e-5,0.13957 -0.25115,3.52529 -0.55826,7.52363 -1.20217,15.65159 -1.26134,16.82523 -0.98422,19.5148 0.78743,7.64293 0.58064,9.73739 -0.0406,9.99181 -0.10612,0.0433 -0.26377,-0.25388 -0.35956,-0.67745 z"
           style="fill:#e88b20;fill-opacity:1;stroke:none;stroke-width:0.178663"
           inkscape:export-filename="poussin_svg.png" />
        <path
           inkscape:export-ydpi="96"
           inkscape:export-xdpi="96"
           inkscape:connector-curvature="0"
           id="path889"
           d="m 98.541716,242.97355 c 0,-0.34414 0.262068,-1.3417 0.582316,-2.21683 0.962688,-2.63067 1.658878,-4.735 1.566398,-4.735 -0.2044,0 -5.268856,4.20445 -6.568138,5.45265 -0.905704,0.87011 -0.947471,0.89158 -0.839163,0.432 0.19928,-0.84534 1.578275,-2.68735 3.2609,-4.35558 1.566435,-1.55299 1.620555,-1.62983 1.391041,-1.9755 -0.131375,-0.19792 -0.305746,-0.3597 -0.387505,-0.3597 -0.189726,0 -3.309288,2.17052 -4.527732,3.15017 -0.509872,0.40993 -0.927031,0.65985 -0.927031,0.55536 0,-0.10442 0.306428,-0.78146 0.681342,-1.5044 0.940236,-1.81389 2.41621,-3.25609 4.740423,-4.63187 0.985211,-0.58321 2.309029,-1.27243 2.941783,-1.53163 0.72771,-0.29824 1.12235,-0.54529 1.074,-0.67278 -0.042,-0.1109 0.0341,-0.20167 0.16686,-0.20167 0.20338,0 0.22794,-0.19211 0.14912,-1.16886 -0.0955,-1.18344 -0.88653,-15.48677 -0.88656,-16.02947 -4e-5,-0.27572 0.21771,-0.29448 3.46625,-0.29448 1.90644,0 3.46629,0.056 3.46629,0.12455 4e-5,0.0686 -0.54631,2.82545 -1.21411,6.12644 -1.83236,9.05765 -2.37273,12.0846 -2.17881,12.20444 0.0925,0.057 1.02647,0.31018 2.07579,0.56222 l 1.90788,0.45845 -1.1101,0.55536 c -0.61054,0.3054 -1.4915,0.92928 -1.95763,1.38629 -0.87697,0.85978 -3.09974,3.907 -5.34226,7.32381 -0.70939,1.08086 -1.344221,1.96656 -1.410694,1.96827 -0.06654,0.002 -0.120797,-0.27845 -0.120797,-0.62258 z"
           style="fill:#e88b20;fill-opacity:1;stroke:none;stroke-width:0.161223" />
        <path
           inkscape:export-ydpi="96"
           inkscape:export-xdpi="96"
           sodipodi:nodetypes="ccccccccccccccccccccsccccccccsccscccccsccccccccccssccccscccsccczccccccccccccccccsccccsccscccs"
           inkscape:connector-curvature="0"
           id="path869"
           d="m 109.92607,214.46396 c -12.524758,-0.83272 -22.378881,-4.1117 -30.690181,-10.21215 -2.550076,-1.87177 -6.675903,-5.60501 -9.04806,-8.18709 -9.146846,-9.95639 -13.747363,-19.69415 -13.755178,-29.11504 -0.0027,-3.43473 0.320419,-5.25634 1.636764,-9.22148 2.34711,-7.07037 2.795286,-13.95336 1.343301,-20.6295 -0.243299,-1.11898 -0.412859,-2.06413 -0.376654,-2.10037 0.03617,-0.0362 1.087206,0.14571 2.335543,0.40406 3.237219,0.67015 7.071256,0.67366 8.778211,0.007 2.28074,-0.88942 9.263992,-5.73 10.46012,-7.25064 0.63838,-0.81156 0.60279,-1.99028 -0.09589,-3.18276 -0.834454,-1.42387 -2.245491,-2.03184 -6.042402,-2.60338 -5.396514,-0.81234 -7.2819,-1.49563 -8.578896,-3.10892 -0.485815,-0.60427 -1.320542,-1.55149 -1.854983,-2.10495 l -0.971732,-1.00629 -1.476451,0.13785 c -1.161936,0.10852 -1.749439,0.31254 -2.758229,0.95784 -0.704989,0.45097 -1.333099,0.76866 -1.395784,0.70596 -0.09486,-0.0948 0.141954,-3.7706 0.244665,-3.79674 0.01706,-0.004 1.339344,-0.0978 2.935637,-0.20699 4.104738,-0.28077 4.385915,-0.44423 5.471858,-3.18099 1.13921,-2.87099 1.394726,-4.33023 1.27154,-7.26115 -0.164475,-3.916305 -0.975349,-4.918635 -4.001412,-4.947215 -0.783098,-0.007 -1.424345,-0.0703 -1.425028,-0.1398 -0.0027,-0.25313 1.452702,-2.41778 2.580924,-3.83923 1.439393,-1.813458 3.615374,-3.626198 5.612583,-4.675708 3.769647,-1.9809 15.958902,-6.28443 17.816648,-6.29033 0.449337,-0.002 0.881987,-0.0675 0.961358,-0.14697 0.07951,-0.0794 -1.148184,-1.49017 -2.727961,-3.13505 -2.835825,-2.952661 -5.092508,-5.822498 -5.092508,-6.476142 0,-0.576695 1.871088,-0.192251 3.972953,0.816273 1.843278,0.884475 4.37445,2.474193 6.490988,4.076709 0.550991,0.41718 1.07383,0.75851 1.161868,0.75851 0.08804,0 0.161404,-1.878178 0.441762,-2.850042 0.769687,-2.668314 2.012393,-5.845752 2.925365,-7.595112 0.445788,-0.854157 1.227009,-2.104848 1.596736,-2.500628 0.646502,-0.692098 1.482389,-1.272974 1.788408,-0.85446 0.762797,1.043159 -0.01024,9.112249 -1.395409,14.541242 -0.138882,0.54452 -0.09282,0.62702 0.349219,0.62702 0.280154,0 1.779467,0.25722 3.332147,0.5716 7.32528,1.48319 13.82964,4.61446 18.14144,8.73345 5.16147,4.930678 9.56926,14.712163 10.78716,23.938143 0.65981,4.99817 0.35614,8.52016 -1.09475,12.69786 -0.89011,2.56301 -0.95105,2.89776 -0.95494,5.24575 -0.003,2.20813 0.0607,2.63071 0.53915,3.53406 8.77823,10.4694 16.89067,12.48312 26.70974,15.8001 1.25403,0.44411 3.27195,1.15576 4.48426,1.58141 2.27859,0.79999 7.10459,1.98073 7.61064,1.86201 0.18495,-0.0433 -0.11022,-0.7173 -0.82858,-1.89146 -1.22135,-1.99615 -2.48818,-5.01061 -2.48818,-5.92075 0,-0.51335 0.0932,-0.57737 0.84005,-0.57737 0.462,0 1.30846,0.22454 1.88102,0.49937 1.30133,0.62422 3.66328,2.94843 4.33568,4.26641 l 0.87029,1.31727 0.088,1.36497 c -0.26173,0.68424 -1.40309,0.84284 -1.40309,0.89441 0,0.16174 1.24161,0.0949 1.50488,-0.0809 0.4134,-0.27606 0.32485,-1.30552 0.26377,-1.8399 -0.0826,-0.72184 0.62357,-1.17541 2.26368,-4.47511 2.22617,-4.47894 4.16657,-6.96268 5.43951,-6.96268 1.99492,0 4.7124,5.60798 4.75086,9.80414 0.0137,1.62226 -0.0379,1.80451 -1.02469,3.55043 -0.94822,1.67744 -5.38966,0.99043 -6.56282,3.70058 -0.2549,0.58911 1.10987,3.84261 0.66797,10.30527 -0.4419,6.46267 -3.31199,14.99946 -6.01551,19.65399 -2.57741,4.3955 -8.1009,9.28215 -12.70077,12.97362 -9.77629,7.84568 -12.63721,10.53133 -23.24997,12.41187 -4.31702,0.76494 -19.30378,1.1172 -26.67641,0.62702 z m 31.12249,-30.86162 c 1.36456,-0.72 2.04088,-1.31914 2.76782,-2.45197 1.59578,-2.48681 2.37488,-6.9884 1.79946,-10.39726 -0.22931,-1.35808 -0.48698,-1.97565 -1.38466,-3.31775 -2.84548,-4.25434 -11.67757,-12.79724 -16.72855,-16.18074 -1.61254,-1.08018 -6.73914,-3.66506 -9.59647,-4.8386 -0.87779,-0.36051 -1.66433,-0.75365 -1.74786,-0.87359 -0.20782,-0.29858 -6.07233,0.22931 -8.96828,0.80709 -4.80181,0.95811 -8.180745,2.93864 -11.05281,6.47849 -1.079494,1.33051 -1.191418,1.57033 -1.087683,2.33033 0.272305,1.99488 3.192961,8.84202 5.467283,12.81736 2.01369,3.5198 3.20313,5.11964 5.51411,7.41676 1.5825,1.57302 2.47452,2.25654 3.78114,2.89738 4.88934,2.39809 13.37744,4.61976 20.63432,5.40081 3.8437,0.41368 4.01814,0.42317 6.95411,0.37731 2.26979,-0.0355 3.01252,-0.13036 3.64807,-0.46562 z M 81.054598,119.74041 c 1.62871,-0.48367 2.683635,-1.63496 4.118729,-4.49498 1.996116,-3.97813 2.268182,-6.86805 0.915804,-9.72762 -1.722789,-3.64286 -5.618214,-5.836605 -9.178138,-5.16877 -0.975861,0.18307 -3.452606,2.56001 -4.758475,4.56676 -1.18978,1.82833 -1.572747,3.20511 -1.720024,6.18333 -0.213954,4.32808 0.705911,6.28753 3.628171,7.72761 2.56376,1.26342 4.822558,1.5585 6.993933,0.91367 z"
           style="fill:#f4c434;fill-opacity:1;stroke:none;stroke-width:0.228004" />
        <path
           inkscape:export-ydpi="96"
           inkscape:export-xdpi="96"
           inkscape:connector-curvature="0"
           id="path871"
           d="m 133.77724,185.32011 c -2.76321,-0.23135 -10.36106,-1.57247 -13.28039,-2.34468 -4.83809,-1.27977 -10.68301,-3.59224 -12.67872,-5.01618 -3.27561,-2.33721 -6.51464,-6.81536 -9.727457,-13.44885 -2.1235,-4.38431 -4.281873,-9.95765 -4.281873,-11.05663 0,-0.99545 4.090031,-5.16123 6.26915,-6.38527 2.42938,-1.3647 6.33208,-2.42372 10.74645,-2.91609 3.53368,-0.39419 3.82332,-0.373 5.75361,0.42184 4.2797,1.76192 10.43,5.1902 13.30827,7.41812 3.84834,2.97883 14.08437,13.52423 15.88728,16.36739 1.28938,2.03338 1.39486,2.40423 1.51395,5.32264 0.22214,5.44128 -1.61158,10.15901 -4.42099,11.37507 -1.15928,0.50185 -4.92729,0.61074 -9.08928,0.26275 z"
           style="fill:#efce68;fill-opacity:1;stroke:none;stroke-width:0.363226" />
        <path
           inkscape:export-ydpi="96"
           inkscape:export-xdpi="96"
           sodipodi:nodetypes="ccccccccccccccccc"
           inkscape:connector-curvature="0"
           id="path873"
           d="m 64.644926,136.03742 c -2.697352,-0.33031 -6.009302,-0.91525 -10.92877,-2.56993 -5.738294,-1.93012 -9.198646,-4.10167 -9.002334,-4.31538 0.06927,-0.0754 1.839832,0.2566 3.934258,0.73785 9.559637,2.19713 14.590791,2.43245 19.934858,0.93242 3.05633,-0.85783 9.341486,-3.2937 9.333262,-3.61715 -0.0273,-1.05537 -0.683355,-1.01756 -3.669972,0.21191 -7.320289,3.01244 -11.977178,3.63233 -18.627693,2.47967 -4.283032,-0.74235 -10.058896,-2.00427 -10.568666,-2.30906 -0.509462,-0.30438 13.159486,-10.82938 14.893739,-11.35068 1.128905,-0.33929 3.651512,-0.34514 4.541177,0.79797 2.665413,3.4248 2.816307,3.16724 5.136698,3.96857 1.271916,0.43917 3.792646,1.1418 5.531916,1.42206 3.608447,0.58139 4.831259,1.50047 5.597842,2.45422 1.15866,1.44151 1.07028,2.88339 -0.448757,4.29931 -1.82509,1.70115 -6.860852,4.97942 -8.587325,5.92119 -2.273028,0.72516 -4.724078,0.78249 -7.070233,0.93703 z"
           style="fill:#e88b20;fill-opacity:1;stroke:none;stroke-width:0.347317" />
        <path
           inkscape:export-ydpi="96"
           inkscape:export-xdpi="96"
           inkscape:connector-curvature="0"
           id="path881"
           d="m 57.667236,113.90253 c 0.02389,-0.17075 0.124892,-0.91472 0.225897,-1.65327 0.61835,-4.54007 1.80796,-8.99506 3.329523,-12.468475 l 0.411358,-0.93895 1.050659,-0.1152 c 2.533287,-0.27773 4.080681,0.24897 4.435224,1.509635 0.396411,1.40961 0.534236,4.68817 0.275034,6.54399 -0.175053,1.25369 -0.344612,1.86267 -0.867724,3.11375 -0.235451,0.56368 -0.534679,1.3763 -0.664553,1.80582 -0.277765,0.9184 -0.478069,1.27664 -0.891781,1.59478 -0.594942,0.45746 -1.734493,0.65356 -4.397551,0.75674 -0.750613,0.029 -1.721082,0.0774 -2.156565,0.10725 l -0.791902,0.0543 z"
           style="fill:#fff6e7;fill-opacity:1;stroke:none;stroke-width:0.09179" />
        <path
           inkscape:export-ydpi="96"
           inkscape:export-xdpi="96"
           inkscape:connector-curvature="0"
           id="path883"
           d="m 77.181865,119.9394 c -1.639596,-0.27759 -3.529828,-1.00582 -4.692071,-1.80761 -1.072157,-0.73963 -1.855562,-2.02031 -2.252452,-3.68224 -0.118749,-0.49623 -0.15492,-1.07254 -0.150484,-2.37434 0.01365,-4.48683 1.094713,-6.88695 4.625018,-10.28658 1.60612,-1.54665 1.609294,-1.54852 2.844356,-1.65958 1.408068,-0.12663 3.409645,0.36576 4.838528,1.19029 0.894272,0.516 2.292103,1.79782 2.868789,2.63064 2.074157,2.99552 2.221979,5.98256 0.491445,9.93033 -0.533758,1.21763 -1.352071,2.67344 -2.227712,3.96333 -0.639234,0.94165 -1.205512,1.44077 -2.014885,1.77595 -1.083042,0.44853 -2.814942,0.57643 -4.330498,0.31981 z"
           style="fill:#fff6e7;fill-opacity:1;stroke:none;stroke-width:0.0920194" />
        <path
           inkscape:export-ydpi="96"
           inkscape:export-xdpi="96"
           sodipodi:nodetypes="cccczc"
           inkscape:connector-curvature="0"
           id="path850-4"
           d="m 78.952889,105.98894 c 0,0 -2.254192,1.19524 -2.427573,3.98412 -0.173347,2.78888 -0.455679,5.3316 2.697426,6.48395 2.427573,0.26575 4.758674,0.0234 5.452267,-2.76541 0.693558,-2.78891 0.752314,-4.81978 -0.693593,-6.50742 -1.445907,-1.68764 -5.02839,-1.19542 -5.028527,-1.19524 z"
           style="fill:#111111;fill-opacity:1;stroke:none;stroke-width:1.20179px;stroke-linecap:butt;stroke-linejoin:miter;stroke-opacity:1" />
        <path
           inkscape:export-ydpi="96"
           inkscape:export-xdpi="96"
           inkscape:connector-curvature="0"
           id="path1963"
           d="m 59.985626,131.7119 c -0.125406,-0.0119 -0.587113,0.14019 -1.026015,0.10699 -2.558618,-0.19325 -5.600866,-0.6344 -10.360086,-1.69217 -1.126231,-0.25031 -2.512815,-0.56112 -2.973803,-0.7302 l -0.878851,-0.32233 c -0.07731,-0.56137 -0.08468,-1.46733 0.444977,-1.6379 3.13139,0.82495 6.240475,1.53837 9.103472,2.06249 3.135872,0.57454 4.212249,0.88051 6.475527,0.91973 2.348273,0.0407 4.027224,-0.36388 6.080166,-0.78665 2.24672,-0.46263 3.731718,-0.90175 7.140946,-2.24848 2.081968,-0.82244 2.907449,-1.11617 3.386871,-1.11617 0.408006,0 0.621301,0.40585 0.699777,0.75515 0.04957,0.22062 -0.123613,0.29872 -0.212633,0.36509 -0.351082,0.26169 -2.714643,1.42823 -4.975132,2.25871 -3.783322,1.38993 -5.889326,1.8053 -8.430591,2.10239 -0.722541,0.0845 -3.905316,0.20642 -4.474571,0.15227 z"
           style="fill:#ae6612;fill-opacity:1;stroke:none;stroke-width:0.0570009"
           sodipodi:nodetypes="ccsscccscssscsccc" />
        <path
           inkscape:export-ydpi="96"
           inkscape:export-xdpi="96"
           sodipodi:nodetypes="ccc"
           inkscape:connector-curvature="0"
           id="path1969"
           d="m 171.25241,155.12145 c 0.59449,-0.2317 1.37036,-0.40286 1.57189,-1.33006 0.20167,-0.92707 0.0805,-1.2898 0.0805,-1.2898"
           style="fill:none;stroke:#c7980b;stroke-width:0.902848px;stroke-linecap:butt;stroke-linejoin:miter;stroke-opacity:1" />
        <path
           inkscape:export-ydpi="96"
           inkscape:export-xdpi="96"
           inkscape:connector-curvature="0"
           id="path1971"
           d="m 96.52417,161.37064 c 0,0 3.70812,16.76718 19.99164,20.63654 16.28352,3.86935 23.69976,4.03058 25.47322,3.06325 1.77346,-0.96736 4.83669,-1.28979 5.32035,-8.06117 0.48367,-6.77135 -1.93466,-12.41417 -11.76926,-20.15284 -9.8346,-7.73871 -17.41209,-11.44683 -17.41209,-11.44683"
           style="fill:none;stroke:#c7980b;stroke-width:0.902848px;stroke-linecap:butt;stroke-linejoin:miter;stroke-opacity:1" />
        <path
           inkscape:export-ydpi="96"
           inkscape:export-xdpi="96"
           inkscape:connector-curvature="0"
           id="path1973"
           d="m 62.506139,156.69519 c 0,0 -2.418359,6.93257 -2.418359,8.5448 0,1.61223 2.418359,4.03059 3.708122,2.90203 1.289796,-1.12857 3.546923,-7.09381 3.546923,-7.09381 0,0 -0.322466,7.25501 1.612228,6.93257 1.934661,-0.32246 3.224457,-8.22237 3.224457,-8.22237 0,0 2.740792,6.44891 4.675452,5.15915 1.934695,-1.2898 1.934695,-7.25504 1.934695,-7.25504 0,0 2.740792,6.77138 4.675452,6.61014 1.934695,-0.1614 0.96733,-9.99583 0.96733,-9.99583"
           style="fill:none;stroke:#c7980b;stroke-width:0.902848px;stroke-linecap:butt;stroke-linejoin:miter;stroke-opacity:1" />
        <path
           inkscape:export-ydpi="96"
           inkscape:export-xdpi="96"
           inkscape:connector-curvature="0"
           id="path1975"
           d="m 92.591447,79.524217 c 0,0 1.197015,1.08303 1.368042,1.53903 0.170958,0.45601 0.170958,0.45601 0.170958,0.45601"
           style="fill:none;stroke:#c7980b;stroke-width:0.902848px;stroke-linecap:butt;stroke-linejoin:miter;stroke-opacity:1" />
        <path
           inkscape:export-ydpi="96"
           inkscape:export-xdpi="96"
           inkscape:connector-curvature="0"
           id="path1977"
           d="m 58.937616,121.53385 c 0,0 -2.427743,0.63944 -2.427743,1.27881 0,0.63944 1.213906,1.8383 2.147624,1.03906 0.933719,-0.79928 2.054195,-2.31787 0.280153,-2.31787 z"
           style="fill:#ae6612;fill-opacity:1;stroke:none;stroke-width:1.36833px;stroke-linecap:butt;stroke-linejoin:miter;stroke-opacity:1" />
        <path
           inkscape:export-ydpi="96"
           inkscape:export-xdpi="96"
           inkscape:connector-curvature="0"
           id="path1979"
           d="m 113.16878,214.38837 c 0,0 5.24408,3.07804 7.52414,3.42006 2.28003,0.34202 8.89212,0.79801 10.83016,0.34202 1.93804,-0.45603 6.1561,-4.56009 6.1561,-4.56009 z"
           style="fill:#f4c434;fill-opacity:1;stroke:none;stroke-width:0.902848px;stroke-linecap:butt;stroke-linejoin:miter;stroke-opacity:1" />
        <path
           style="fill:#111111;fill-opacity:1;stroke:none;stroke-width:0.7"
           d="m 60.406875,101.79487 c 0,0 -0.902034,2.73951 -1.302938,4.34313 -0.400905,1.60361 -0.876733,4.23283 -0.876733,4.23283 0,0 2.643053,0.35365 3.344635,-0.68202 0.701583,-1.03567 1.608827,-5.5592 1.406523,-6.29368 -0.436689,-1.58544 -2.638302,-1.63367 -2.571487,-1.60026 z"
           id="path420"
           sodipodi:nodetypes="cscssc" />
      </g>
      <g
         id="g2669"
         transform="translate(1.8898805,5.6696429)"
         inkscape:export-filename="poussin_assis_svg.png"
         inkscape:export-xdpi="96"
         inkscape:export-ydpi="96">
        <path
           inkscape:export-ydpi="96"
           inkscape:export-xdpi="96"
           sodipodi:nodetypes="ccccscscsccsscccccccccscccccc"
           inkscape:connector-curvature="0"
           id="path891-2"
           d="m 22.843956,374.78745 c 0.335176,-0.26251 0.997567,-0.66309 2.035205,-1.5135 1.7432,-1.99259 1.108633,-1.09274 2.199706,-2.41014 0.761328,-0.95217 0.785997,-1.0212 0.376682,-1.05492 -0.240901,-0.0199 -1.112141,-0.34162 -3.004522,-0.42708 -1.892412,-0.0855 -1.754766,-0.0931 -2.743484,-0.20497 -1.682442,-0.19028 -3.603413,-0.67345 -3.728602,-0.93781 -0.102526,-0.2165 1.717655,-0.7436 3.178607,-0.92066 0.79763,-0.0968 -0.569659,-0.0995 1.079244,-0.10656 1.648928,-0.007 3.131513,-0.0313 3.294611,-0.0542 0.19185,-0.027 0.301573,-0.2248 0.311211,-0.55933 0.01397,-0.49511 -0.147245,-0.59395 -3.698698,-2.26575 -2.042307,-0.96143 -3.685799,-1.80576 -3.652124,-1.87633 0.05705,-0.11951 2.689932,0.37168 7.155466,1.33453 1.979757,0.42686 2.37918,0.34434 2.374587,-0.49062 -0.0012,-0.23769 -0.145592,-0.74037 -0.320922,-1.11698 l -0.320563,-0.68393 1.279896,0.64261 c 0.703991,0.3534 2.335355,1.2666 3.62537,2.02927 1.290002,0.76271 2.368377,1.39843 2.396413,1.41275 0.02876,0.0128 4.249261,-2.56666 9.380459,-5.73553 5.131274,-3.16887 9.357156,-5.77471 9.390984,-5.79073 0.03424,-0.0162 0.791031,1.51174 1.682881,3.39502 1.273061,2.68827 1.57221,3.44754 1.392144,3.53289 -0.126111,0.0598 -3.293581,1.28183 -7.038645,2.71554 -14.660128,5.61232 -15.746166,6.06115 -18.058341,7.46273 -6.570516,3.98281 -8.551954,4.69234 -9.047782,4.23976 -0.08455,-0.0774 0.11656,-0.34704 0.458376,-0.6149 z"
           style="fill:#e88b20;fill-opacity:1;stroke:none;stroke-width:0.178663"
           inkscape:export-filename="poussin_svg.png" />
        <path
           inkscape:export-ydpi="96"
           inkscape:export-xdpi="96"
           inkscape:connector-curvature="0"
           id="path889-6"
           d="m -11.129553,354.181 c 0.326018,-0.1102 1.3549689,-0.18137 2.2865669,-0.15822 2.80042,0.0696 5.016876,0.0553 4.987263,-0.0323 -0.06545,-0.19364 -5.670256,-3.64506 -7.2687879,-4.47622 -1.114318,-0.57939 -1.148032,-0.61208 -0.67797,-0.65664 0.864641,-0.0819 3.0512389,0.63462 5.1704369,1.69444 1.97282,0.98665 2.062945,1.01331 2.316917,0.68519 0.145429,-0.18783 0.242853,-0.40483 0.216672,-0.48228 -0.06075,-0.17974 -3.115931,-2.43999 -4.434168,-3.28056 -0.551616,-0.35176 -0.921959,-0.66692 -0.822971,-0.70038 0.09892,-0.0334 0.838435,0.0401 1.643363,0.16372 2.019459,0.30988 3.858355,1.24631 5.905953,3.00758 0.86798601,0.74658 1.94482801,1.77998 2.39299901,2.29641 0.51556599,0.5939 0.87597799,0.88864 0.98127099,0.80201 0.09162,-0.0753 0.201977,-0.0323 0.244484,0.0935 0.06513,0.19267 0.254987,0.15442 1.155063,-0.23303 1.090526,-0.46948 14.3873941,-5.79904 14.9015051,-5.97286 0.261191,-0.0883 0.348689,0.11195 1.388943,3.18944 0.610483,1.80605 1.056929,3.30169 0.991989,3.32365 -0.06498,0.022 -2.851611,0.38722 -6.192622,0.81163 -9.1674601,1.16459 -12.2080591,1.62196 -12.2594911,1.84405 -0.02438,0.10586 0.03485,1.07174 0.132099,2.14652 l 0.176633,1.95422 -0.881595,-0.87381 c -0.48482499,-0.4806 -1.35795699,-1.11539 -1.94016499,-1.41063 -1.09533101,-0.55547 -4.69387001,-1.6854 -8.64886401,-2.7157 -1.2511069,-0.32593 -2.2934549,-0.64371 -2.3163609,-0.70613 -0.0232,-0.0624 0.225106,-0.20361 0.551115,-0.3138 z"
           style="fill:#e88b20;fill-opacity:1;stroke:none;stroke-width:0.161223" />
        <path
           inkscape:export-ydpi="96"
           inkscape:export-xdpi="96"
           sodipodi:nodetypes="ccccccccccccccccccccsccccccccccccccssccccscccsccczccccccccccccccccsccccsccscccs"
           inkscape:connector-curvature="0"
           id="path869-3"
           d="m 33.003661,359.40711 c -12.524756,-0.83272 -22.378879,-4.1117 -30.6901791,-10.21215 -2.550076,-1.87177 -6.675903,-5.60501 -9.04806,-8.18709 -9.1468459,-9.95639 -13.7473629,-19.69415 -13.7551779,-29.11504 -0.0027,-3.43473 0.320419,-5.25634 1.636764,-9.22148 2.34711,-7.07037 2.795286,-13.95336 1.343301,-20.6295 -0.243299,-1.11898 -0.412859,-2.06413 -0.376654,-2.10037 0.03617,-0.0362 1.087206,0.14571 2.335543,0.40406 3.237219,0.67015 7.0712559,0.67366 8.7782109,0.007 2.28074,-0.88942 9.263992,-5.73 10.46012,-7.25064 0.63838,-0.81156 0.60279,-1.99028 -0.09589,-3.18276 -0.834454,-1.42387 -2.245491,-2.03184 -6.042402,-2.60338 -5.396514,-0.81234 -7.2819,-1.49563 -8.5788959,-3.10892 -0.485815,-0.60427 -1.320542,-1.55149 -1.854983,-2.10495 l -0.971732,-1.00629 -1.476451,0.13785 c -1.161936,0.10852 -1.749439,0.31254 -2.758229,0.95784 -0.704989,0.45097 -1.333099,0.76866 -1.395784,0.70596 -0.09486,-0.0948 0.141954,-3.7706 0.244665,-3.79674 0.01706,-0.004 1.339344,-0.0978 2.935637,-0.20699 4.104738,-0.28077 4.385915,-0.44423 5.471858,-3.18099 1.1392099,-2.87099 1.3947259,-4.33023 1.2715399,-7.26115 -0.164475,-3.91631 -0.9753489,-4.91864 -4.0014119,-4.94722 -0.783098,-0.007 -1.424345,-0.0703 -1.425028,-0.1398 -0.0027,-0.25313 1.452702,-2.41778 2.580924,-3.83923 1.439393,-1.81346 3.6153739,-3.6262 5.6125829,-4.67571 26.9979561,-5.85329 32.0404371,-4.42711 49.7630111,0.27607 5.16147,4.93068 9.56926,14.71217 10.78716,23.93815 0.65981,4.99817 0.35614,8.52016 -1.09475,12.69786 -0.89011,2.56301 -0.95105,2.89776 -0.95494,5.24575 -0.003,2.20813 0.0607,2.63071 0.53915,3.53406 8.77823,10.4694 24.31891,23.98571 30.5534,32.26506 0.78467,1.0743 2.049005,2.80054 2.809649,3.83606 1.429686,1.94626 4.747564,5.64439 5.232337,5.83194 0.177117,0.0686 0.313783,-0.65438 0.383315,-2.02909 0.118136,-2.33717 0.773367,-5.54069 1.286964,-6.29207 0.289687,-0.42381 0.402758,-0.42406 1.019331,-0.003 0.38141,0.26071 0.953508,0.92375 1.271106,1.47373 0.722082,1.24969 1.681341,4.48473 1.492707,5.95225 l -0.01927,1.6531 -0.82364,1.92045 c -0.602198,0.4172 -1.41244,0.23172 -1.441541,0.27429 -0.09127,0.13353 0.549504,-0.35049 0.866054,-0.34705 0.497071,0.005 1.004897,-0.89447 1.256027,-1.37011 0.339149,-0.64254 1.178084,-0.61849 4.394161,-2.41708 4.36534,-2.44142 7.36885,-3.39693 8.41974,-2.6786 1.64694,1.12574 0.72578,7.28899 -1.61038,10.7749 -0.90415,1.34701 -1.04959,1.46835 -2.84949,2.35287 -1.72941,0.84974 -5.008419,-2.22376 -7.506303,-0.64837 -0.542874,0.3425 -1.252136,3.79863 -5.263874,8.88461 -4.011744,5.08599 -1.248632,1.90833 -5.007192,5.7615 -3.572998,3.63279 -10.122806,7.02223 -15.485033,9.4783 -11.396569,5.22003 -3.007443,1.1161 -11.541332,3.5636 -4.31702,0.76494 -19.30378,1.1172 -26.676409,0.62702 z M 51.481386,336.5315 c 1.540469,0.0859 2.428797,-0.0792 3.635454,-0.67558 2.648877,-1.30927 5.635787,-4.76611 6.898798,-7.98421 0.503127,-1.28212 0.600447,-1.94418 0.522497,-3.55693 -0.247019,-5.11226 -3.415633,-16.98437 -6.001588,-22.48649 -0.82558,-1.75655 -3.887785,-6.61315 -5.73215,-9.09102 -0.566605,-0.76121 -1.038192,-1.50338 -1.047992,-1.64921 -0.02429,-0.36297 -5.322598,-2.93184 -8.10232,-3.92859 -4.609133,-1.65265 -8.525485,-1.69596 -12.810751,-0.14168 -1.610671,0.58422 -1.83015,0.7321 -2.132783,1.43692 -0.794347,1.85006 -1.818665,9.22327 -1.917433,13.80216 -0.08746,4.05417 0.107767,6.03814 0.905009,9.19754 0.545935,2.16348 0.958326,3.20887 1.74805,4.43127 2.955082,4.57427 9.085477,10.85136 14.902807,15.25942 3.081231,2.33478 3.225851,2.43278 5.765834,3.90605 1.963677,1.13894 2.649126,1.44028 3.366568,1.48035 z M 4.1321909,264.68356 c 1.62871,-0.48367 2.683635,-1.63496 4.118729,-4.49498 1.9961161,-3.97813 2.2681821,-6.86805 0.915804,-9.72762 -1.722789,-3.64286 -5.618214,-5.83661 -9.178138,-5.16877 -0.975861,0.18307 -3.452606,2.56001 -4.758475,4.56676 -1.18978,1.82833 -1.572747,3.20511 -1.720024,6.18333 -0.213954,4.32808 0.705911,6.28753 3.628171,7.72761 2.56376,1.26342 4.822558,1.5585 6.993933,0.91367 z"
           style="fill:#f4c434;fill-opacity:1;stroke:none;stroke-width:0.228004" />
        <path
           inkscape:export-ydpi="96"
           inkscape:export-xdpi="96"
           inkscape:connector-curvature="0"
           id="path871-4"
           d="m 46.692899,335.07043 c -2.352569,-1.46774 -8.499324,-6.13072 -10.743771,-8.15093 -3.719625,-3.34803 -7.863328,-8.07459 -8.988457,-10.25278 -1.846678,-3.57518 -2.683064,-9.0383 -2.511814,-16.40687 0.113164,-4.87019 0.738319,-10.81408 1.240214,-11.79176 0.454614,-0.88558 5.995685,-2.72368 8.493294,-2.81743 2.784486,-0.10459 6.740066,0.7356 10.892061,2.31359 3.323674,1.26312 3.571667,1.41424 4.925905,3.0029 3.002674,3.52195 6.908467,9.38063 8.451576,12.67712 2.063172,4.40755 6.353404,18.46371 6.658868,21.81643 0.218437,2.3978 0.142906,2.77589 -1.083962,5.42657 -2.287366,4.94215 -6.073233,8.30171 -9.127917,8.10051 -1.260515,-0.083 -4.66236,-1.70692 -8.206051,-3.91724 z"
           style="fill:#efce68;fill-opacity:1;stroke:none;stroke-width:0.363226" />
        <path
           inkscape:export-ydpi="96"
           inkscape:export-xdpi="96"
           sodipodi:nodetypes="ccccccccccccccccc"
           inkscape:connector-curvature="0"
           id="path873-7"
           d="m -12.277481,280.98057 c -2.697352,-0.33031 -6.009302,-0.91525 -10.92877,-2.56993 -5.738294,-1.93012 -9.198646,-4.10167 -9.002334,-4.31538 0.06927,-0.0754 1.839832,0.2566 3.934258,0.73785 9.559637,2.19713 14.590791,2.43245 19.9348579,0.93242 3.05633,-0.85783 9.341486,-3.2937 9.333262,-3.61715 -0.0273,-1.05537 -0.683355,-1.01756 -3.669972,0.21191 -7.320289,3.01244 -11.9771779,3.63233 -18.6276929,2.47967 -4.283032,-0.74235 -10.058896,-2.00427 -10.568666,-2.30906 -0.509462,-0.30438 13.159486,-10.82938 14.893739,-11.35068 1.128905,-0.33929 3.651512,-0.34514 4.541177,0.79797 2.6654129,3.4248 2.8163069,3.16724 5.1366979,3.96857 1.271916,0.43917 3.792646,1.1418 5.531916,1.42206 3.608447,0.58139 4.831259,1.50047 5.597842,2.45422 1.15866,1.44151 1.07028,2.88339 -0.448757,4.29931 -1.82509,1.70115 -6.860852,4.97942 -8.587325,5.92119 -2.273028,0.72516 -4.724078,0.78249 -7.0702329,0.93703 z"
           style="fill:#e88b20;fill-opacity:1;stroke:none;stroke-width:0.347317" />
        <path
           inkscape:export-ydpi="96"
           inkscape:export-xdpi="96"
           inkscape:connector-curvature="0"
           id="path881-0"
           d="m -19.255171,258.84568 c 0.02389,-0.17075 0.124892,-0.91472 0.225897,-1.65327 0.61835,-4.54007 1.80796,-8.99506 3.329523,-12.46848 l 0.411358,-0.93895 1.050659,-0.1152 c 2.533287,-0.27773 4.080681,0.24897 4.4352239,1.50964 0.396411,1.40961 0.534236,4.68817 0.275034,6.54399 -0.175053,1.25369 -0.344612,1.86267 -0.8677239,3.11375 -0.235451,0.56368 -0.534679,1.3763 -0.664553,1.80582 -0.277765,0.9184 -0.478069,1.27664 -0.891781,1.59478 -0.594942,0.45746 -1.734493,0.65356 -4.397551,0.75674 -0.750613,0.029 -1.721082,0.0774 -2.156565,0.10725 l -0.791902,0.0543 z"
           style="fill:#fff6e7;fill-opacity:1;stroke:none;stroke-width:0.09179" />
        <path
           inkscape:export-ydpi="96"
           inkscape:export-xdpi="96"
           inkscape:connector-curvature="0"
           id="path883-3"
           d="m 0.2594579,264.88255 c -1.639596,-0.27759 -3.529828,-1.00582 -4.692071,-1.80761 -1.072157,-0.73963 -1.855562,-2.02031 -2.252452,-3.68224 -0.118749,-0.49623 -0.15492,-1.07254 -0.150484,-2.37434 0.01365,-4.48683 1.094713,-6.88695 4.625018,-10.28658 1.60612,-1.54665 1.609294,-1.54852 2.844356,-1.65958 1.408068,-0.12663 3.409645,0.36576 4.838528,1.19029 0.894272,0.516 2.292103,1.79782 2.868789,2.63064 2.0741571,2.99552 2.2219791,5.98256 0.491445,9.93033 -0.533758,1.21763 -1.352071,2.67344 -2.227712,3.96333 -0.639234,0.94165 -1.205512,1.44077 -2.014885,1.77595 -1.083042,0.44853 -2.814942,0.57643 -4.330498,0.31981 z"
           style="fill:#fff6e7;fill-opacity:1;stroke:none;stroke-width:0.0920194" />
        <path
           inkscape:export-ydpi="96"
           inkscape:export-xdpi="96"
           sodipodi:nodetypes="cccczc"
           inkscape:connector-curvature="0"
           id="path850-4-3"
           d="m 2.0304819,250.93209 c 0,0 -2.254192,1.19524 -2.427573,3.98412 -0.173347,2.78888 -0.455679,5.3316 2.697426,6.48395 2.427573,0.26575 4.758674,0.0234 5.452267,-2.76541 0.693558,-2.78891 0.752314,-4.81978 -0.693593,-6.50742 -1.445907,-1.68764 -5.02839,-1.19542 -5.028527,-1.19524 z"
           style="fill:#111111;fill-opacity:1;stroke:none;stroke-width:1.20179px;stroke-linecap:butt;stroke-linejoin:miter;stroke-opacity:1" />
        <path
           inkscape:export-ydpi="96"
           inkscape:export-xdpi="96"
           inkscape:connector-curvature="0"
           id="path1963-2"
           d="m -16.936781,276.65505 c -0.125406,-0.0119 -0.587113,0.14019 -1.026015,0.10699 -2.558618,-0.19325 -5.600866,-0.6344 -10.360086,-1.69217 -1.126231,-0.25031 -2.512815,-0.56112 -2.973803,-0.7302 l -0.878851,-0.32233 c -0.07731,-0.56137 -0.08468,-1.46733 0.444977,-1.6379 3.13139,0.82495 6.240475,1.53837 9.103472,2.06249 3.135872,0.57454 4.212249,0.88051 6.475527,0.91973 2.348273,0.0407 4.027224,-0.36388 6.080166,-0.78665 2.2467199,-0.46263 3.7317179,-0.90175 7.1409459,-2.24848 2.081968,-0.82244 2.907449,-1.11617 3.386871,-1.11617 0.408006,0 0.621301,0.40585 0.699777,0.75515 0.04957,0.22062 -0.123613,0.29872 -0.212633,0.36509 -0.351082,0.26169 -2.714643,1.42823 -4.975132,2.25871 -3.783322,1.38993 -5.889326,1.8053 -8.4305909,2.10239 -0.722541,0.0845 -3.905316,0.20642 -4.474571,0.15227 z"
           style="fill:#ae6612;fill-opacity:1;stroke:none;stroke-width:0.0570009"
           sodipodi:nodetypes="ccsscccscssscsccc" />
        <path
           inkscape:export-ydpi="96"
           inkscape:export-xdpi="96"
           sodipodi:nodetypes="ccc"
           inkscape:connector-curvature="0"
           id="path1969-1"
           d="m 94.145063,325.86721 c 0.59449,-0.2317 1.37036,-0.40286 1.57189,-1.33006 0.20167,-0.92707 0.0805,-1.2898 0.0805,-1.2898"
           style="fill:none;stroke:#c7980b;stroke-width:0.902848px;stroke-linecap:butt;stroke-linejoin:miter;stroke-opacity:1" />
        <path
           inkscape:export-ydpi="96"
           inkscape:export-xdpi="96"
           inkscape:connector-curvature="0"
           id="path1971-4"
           d="m 24.489163,296.75122 c 0,0 -4.358598,16.60998 8.36052,27.48881 12.719126,10.87881 19.243171,14.40918 21.262653,14.35855 2.019499,-0.0507 4.891875,1.06144 8.414584,-4.74166 3.522709,-5.80309 3.948331,-11.92751 -1.266587,-23.3034 -5.214902,-11.37593 -10.262559,-18.13535 -10.262559,-18.13535"
           style="fill:none;stroke:#c7980b;stroke-width:0.902848px;stroke-linecap:butt;stroke-linejoin:miter;stroke-opacity:1" />
        <path
           inkscape:export-ydpi="96"
           inkscape:export-xdpi="96"
           inkscape:connector-curvature="0"
           id="path1973-0"
           d="m -14.416268,301.63834 c 0,0 -2.418359,6.93257 -2.418359,8.54481 0,1.61223 2.418359,4.03058 3.708122,2.90203 1.289796,-1.12857 3.5469229,-7.09382 3.5469229,-7.09382 0,0 -0.322466,7.25502 1.612228,6.93258 1.934661,-0.32246 3.224457,-8.22238 3.224457,-8.22238 0,0 2.740792,6.44892 4.675452,5.15916 1.934695,-1.28981 1.934695,-7.25505 1.934695,-7.25505 0,0 2.740792,6.77138 4.675452,6.61015 1.934695,-0.1614 0.96733,-9.99584 0.96733,-9.99584"
           style="fill:none;stroke:#c7980b;stroke-width:0.902848px;stroke-linecap:butt;stroke-linejoin:miter;stroke-opacity:1" />
        <path
           inkscape:export-ydpi="96"
           inkscape:export-xdpi="96"
           inkscape:connector-curvature="0"
           id="path1977-4"
           d="m -17.984791,266.477 c 0,0 -2.427743,0.63944 -2.427743,1.27881 0,0.63944 1.213906,1.8383 2.147624,1.03906 0.933719,-0.79928 2.054195,-2.31787 0.280153,-2.31787 z"
           style="fill:#ae6612;fill-opacity:1;stroke:none;stroke-width:1.36833px;stroke-linecap:butt;stroke-linejoin:miter;stroke-opacity:1" />
        <path
           inkscape:export-ydpi="96"
           inkscape:export-xdpi="96"
           inkscape:connector-curvature="0"
           id="path1979-2"
           d="m 40.704668,355.18824 c 0,0 4.791783,3.74346 7.006725,4.38353 2.214916,0.64004 8.708918,1.96504 10.690197,1.76891 1.981283,-0.19617 6.704271,-3.70739 6.704271,-3.70739 z"
           style="fill:#f4c434;fill-opacity:1;stroke:none;stroke-width:0.902848px;stroke-linecap:butt;stroke-linejoin:miter;stroke-opacity:1" />
        <path
           style="fill:#111111;fill-opacity:1;stroke:none;stroke-width:0.7"
           d="m -16.515532,246.73802 c 0,0 -0.902034,2.73951 -1.302938,4.34313 -0.400905,1.60361 -0.876733,4.23283 -0.876733,4.23283 0,0 2.643053,0.35365 3.344635,-0.68202 0.701583,-1.03567 1.608827,-5.5592 1.406523,-6.29368 -0.436689,-1.58544 -2.638302,-1.63367 -2.571487,-1.60026 z"
           id="path420-4"
           sodipodi:nodetypes="cscssc" />
        <path
           style="fill:#ffcf8e;fill-opacity:1;stroke:none;stroke-width:0.7"
           d="m -23.467218,265.198 c 0,0 4.159709,-30.92918 27.3482589,-41.82035 23.1885491,-10.89116 29.7642411,-8.64415 35.5158811,-7.48259 5.75165,1.16155 21.13027,17.25815 18.73106,33.68907 -2.39919,16.43091 -4.7289,33.99364 -7.24733,29.98272 -2.51843,-4.01092 -4.63643,-7.66774 -4.63643,-7.66774 0,0 -4.90446,0.30118 -10.5866,0.27142 -5.682152,-0.0298 -5.821155,-2.29336 -10.163005,1.00278 -4.341849,3.29613 -0.807454,5.35122 -7.667737,4.63643 -6.860282,-0.71479 -7.330216,-2.20069 -12.3273371,-3.40857 -4.997118,-1.20789 -5.089787,-2.71696 -10.156409,-5.05664 -5.066621,-2.33968 -5.8674869,-3.04789 -9.2628789,-2.83938 -3.395389,0.2085 -9.547473,-1.30715 -9.547473,-1.30715 z"
           id="path1079-5" />
      </g>
    </g>
  </g>
</svg>
