<?xml version="1.0" encoding="UTF-8" standalone="no"?>
<!-- Created with Inkscape (http://www.inkscape.org/) -->

<svg
   width="297mm"
   height="210mm"
   viewBox="0 0 297 210"
   version="1.1"
   id="svg951"
   inkscape:version="1.2.2 (732a01da63, 2022-12-09)"
   sodipodi:docname="poule_silhouette.svg"
   xmlns:inkscape="http://www.inkscape.org/namespaces/inkscape"
   xmlns:sodipodi="http://sodipodi.sourceforge.net/DTD/sodipodi-0.dtd"
   xmlns="http://www.w3.org/2000/svg"
   xmlns:svg="http://www.w3.org/2000/svg"
   xmlns:rdf="http://www.w3.org/1999/02/22-rdf-syntax-ns#"
   xmlns:cc="http://creativecommons.org/ns#"
   xmlns:dc="http://purl.org/dc/elements/1.1/">
  <defs
     id="defs945" />
  <sodipodi:namedview
     id="base"
     pagecolor="#ffffff"
     bordercolor="#666666"
     borderopacity="1.0"
     inkscape:pageopacity="0.0"
     inkscape:pageshadow="2"
     inkscape:zoom="0.98994949"
     inkscape:cx="470.73109"
     inkscape:cy="303.04576"
     inkscape:document-units="mm"
     inkscape:current-layer="g52198"
     showgrid="false"
     inkscape:window-width="2560"
     inkscape:window-height="1369"
     inkscape:window-x="-8"
     inkscape:window-y="-8"
     inkscape:window-maximized="1"
     inkscape:pagecheckerboard="true"
     inkscape:showpageshadow="2"
     inkscape:deskcolor="#d1d1d1" />
  <metadata
     id="metadata948">
    <rdf:RDF>
      <cc:Work
         rdf:about="">
        <dc:format>image/svg+xml</dc:format>
        <dc:type
           rdf:resource="http://purl.org/dc/dcmitype/StillImage" />
      </cc:Work>
    </rdf:RDF>
  </metadata>
  <g
     inkscape:label="Calque 1"
     inkscape:groupmode="layer"
     id="layer1"
     transform="translate(0,-87)">
    <g
       style="display:inline;fill:#000000;fill-opacity:1"
       id="g4844"
       transform="matrix(1.3752358,0,0,1.3752358,-80.608909,91.62633)"
       inkscape:export-filename="poule.png"
       inkscape:export-xdpi="96"
       inkscape:export-ydpi="96">
      <g
         id="g52198"
         transform="translate(13.607143,1.1339286)"
         style="fill:#000000;fill-opacity:1">
        <path
           style="fill:#000000;fill-opacity:1;stroke:none;stroke-width:0.0727149"
           d="m 129.79026,27.860406 c 0,0 -1.02031,1.603342 -1.26324,2.575065 -0.24293,0.971722 -0.82596,2.526478 -0.92314,3.449615 -0.0972,0.923136 -0.0972,0.923136 -0.0972,0.923136 0,0 2.52648,0.923137 3.06093,-0.923136 0.53444,-1.846273 1.45758,-3.449615 0.87455,-4.567097 -0.58304,-1.11748 -1.65193,-1.457583 -1.65193,-1.457583 z"
           id="path1093" />
        <path
           inkscape:connector-curvature="0"
           id="path4603"
           d="m 152.92126,131.28272 c -0.351,-0.27061 -0.30801,-0.33971 0.9955,-1.60008 0.74929,-0.72449 1.27546,-1.37094 1.16927,-1.43657 -0.1062,-0.0656 -0.34325,0.0166 -0.52678,0.18266 -0.37561,0.33992 -3.04427,0.4438 -3.04427,0.1185 0,-0.10092 1.23315,-0.57545 2.74033,-1.0545 1.50718,-0.47906 2.74032,-0.90334 2.74032,-0.94284 0,-0.0395 -0.97801,-4.56773 -2.17336,-10.0627 -1.19535,-5.49498 -2.17347,-10.06955 -2.17361,-10.16571 -1.4e-4,-0.1005 0.90794,-0.14822 2.13603,-0.11224 1.17496,0.0344 2.5783,-0.0178 3.11855,-0.11594 l 0.98227,-0.17853 8e-4,1.81683 c 5.3e-4,0.99926 -0.0934,5.67 -0.20845,10.37941 -0.18527,7.58246 -0.17641,8.5992 0.0774,8.88245 0.59336,0.66223 2.58714,3.70839 2.58714,3.95271 0,0.50849 -0.74924,-0.13959 -1.84349,-1.59459 l -1.08583,-1.4438 -0.0543,1.73439 c -0.0569,1.8152 -0.16804,2.00263 -0.87938,1.48248 -0.25205,-0.1843 -0.3776,-0.61293 -0.46781,-1.59711 -0.0678,-0.73986 -0.17231,-1.39422 -0.23222,-1.45413 -0.0599,-0.0599 -0.35109,0.21231 -0.64708,0.60493 -0.67016,0.88896 -2.55268,2.88721 -2.72,2.88721 -0.0682,0 -0.28918,-0.12727 -0.49095,-0.28282 z"
           style="fill:#000000;fill-opacity:1;stroke:none;stroke-width:0.188988" />
        <path
           inkscape:connector-curvature="0"
           id="path4605"
           d="m 135.93551,129.43943 c 0.0726,-0.23388 0.4174,-0.99494 0.76621,-1.69126 0.36859,-0.73581 0.55679,-1.31389 0.44936,-1.3803 -0.10167,-0.0628 -1.01478,0.3954 -2.02915,1.01831 -2.05271,1.26051 -2.9142,1.65322 -2.15277,0.98133 0.34929,-0.30823 0.39999,-0.45207 0.2311,-0.65559 -0.17258,-0.20794 -0.0719,-0.34498 0.49746,-0.67695 0.39261,-0.22894 1.41372,-0.94032 2.26912,-1.58085 l 1.55529,-1.16461 0.004,-9.68564 0.004,-9.68564 h 1.98437 1.98438 l -0.002,0.51972 c -0.001,0.28584 -0.42398,4.8524 -0.9394,10.1479 -0.51543,5.2955 -0.91837,9.63989 -0.89543,9.65421 1.3641,0.85121 3.63319,2.7025 3.48906,2.84664 -0.11536,0.11536 -2.02957,-0.42086 -3.01934,-0.84581 l -0.8949,-0.38422 -0.7115,0.85292 c -0.72915,0.87407 -2.24527,2.15507 -2.55063,2.15507 -0.0939,0 -0.11131,-0.19135 -0.0387,-0.42522 z"
           style="fill:#000000;fill-opacity:1;stroke:none;stroke-width:0.188988" />
        <path
           inkscape:connector-curvature="0"
           id="path4607"
           d="m 151.88422,106.25262 c -3.18037,-0.45773 -4.77593,-1.09185 -6.8698,-2.73026 -1.01474,-0.79402 -3.029,-3.595163 -2.87182,-3.752344 0.036,-0.03596 0.82001,-0.20153 1.74232,-0.0821 2.48511,0.321784 8.58986,0.270238 11.6933,-0.09874 2.25802,-0.268465 8.81234,-1.293612 10.23326,-1.498407 l 0.44215,-0.110974 -0.30205,0.72889 c -1.22303,2.951295 -1.75717,4.369175 -2.94925,5.265275 -1.41526,1.06388 -2.74104,1.75949 -4.02232,2.11044 -1.4071,0.38541 -4.99561,0.4705 -7.09579,0.16822 z"
           style="fill:#000000;fill-opacity:1;stroke:none;stroke-width:0.188988"
           sodipodi:nodetypes="sccsssccscs" />
        <path
           inkscape:connector-curvature="0"
           id="path4609"
           d="m 137.43537,105.023 c -0.72761,-0.084 -1.74075,-0.3491 -2.25143,-0.58923 -1.16819,-0.54928 -3.08336,-2.32815 -4.01836,-3.73234 -0.72375,-1.086947 -2.08253,-4.550054 -1.98417,-4.648418 0.0293,-0.02935 0.68661,0.204565 1.46058,0.519819 2.41923,0.985398 8.04529,2.300155 10.5963,2.66686 0.69409,0.09978 0.93311,0.236714 1.19909,0.686972 0.1827,0.309297 0.74468,1.407437 1.37254,2.078617 1.09638,1.17204 1.12865,1.2346 0.81536,1.58079 -0.61066,0.67477 -2.08167,1.41926 -4.00036,1.50558 -1.02665,0.0462 -2.46195,0.0153 -3.18955,-0.0687 z"
           style="fill:#000000;fill-opacity:1;stroke:none;stroke-width:0.188988"
           sodipodi:nodetypes="ccsccccccsc" />
        <path
           inkscape:connector-curvature="0"
           id="path4611"
           d="m 143.57748,100.01741 c -7.21586,-0.922613 -13.98176,-3.086841 -18.14286,-5.803408 -2.02721,-1.323467 -4.11122,-3.565443 -5.42129,-5.832237 -1.59234,-4.283294 -1.39509,-3.664676 -1.50371,-8.88501 0.72248,-6.34205 0.86162,-7.189478 1.60116,-12.592299 0.73954,-5.402821 0.84951,-5.427713 1.62028,-8.588696 0.77078,-3.160982 1.63537,-6.810298 1.92132,-8.10959 0.42048,-1.910559 0.60657,-2.430147 0.97307,-2.716845 0.24924,-0.194968 0.74588,-0.789146 1.10364,-1.320392 l 0.65048,-0.965901 v 1.174827 c 0,1.595448 0.44537,2.662867 1.25162,2.999739 1.30851,0.546733 2.94456,0.156181 3.7069,-0.884898 0.19534,-0.266775 0.45115,-1.045343 0.56845,-1.730151 0.20276,-1.183727 0.13059,-1.788459 -0.346,-2.899245 -0.0502,-0.117097 0.50816,-0.344017 1.34166,-0.537361 2.14198,-0.496867 3.83672,-1.457082 3.78393,-3.272512 -0.0462,-1.589157 -0.31287,-2.206337 -3.9442,-2.401211 -2.02807,-0.108836 -2.32621,-0.798277 -3.10746,-1.548264 -0.7914,-0.759733 -0.97414,-0.849146 -1.61253,-0.789022 -0.64593,0.06084 -0.70937,0.02831 -0.61679,-0.316236 0.0567,-0.211224 0.10434,-0.445158 0.10577,-0.519856 0.001,-0.07469 0.12574,-0.08854 0.27627,-0.03078 0.67671,0.259678 2.11203,-1.222023 2.64381,-2.729254 0.14431,-0.409006 0.32102,-1.212982 0.39269,-1.786612 0.11361,-0.909368 0.0794,-1.093862 -0.26703,-1.440299 -0.21853,-0.218533 -0.57829,-0.397333 -0.79946,-0.397333 -0.36435,0 -0.3906,-0.07214 -0.27934,-0.767916 0.2235,-1.397685 0.69616,-2.141225 1.48522,-2.33639 0.61768,-0.152776 0.76743,-0.118692 1.17955,0.268478 0.57981,0.544706 0.82666,0.374147 0.40029,-0.276577 -0.30527,-0.46591 -0.5776,-0.564158 -1.33531,-0.481745 -0.31863,0.03466 -0.33464,-0.0013 -0.11701,-0.263628 0.29383,-0.35405 2.42077,-1.03123 2.70189,-0.857486 0.10531,0.06508 0.33954,0.329298 0.33954,0.738936 0,0.409642 -0.1586,0.49117 -0.12665,0.49117 0.0319,0 0.21774,-0.09044 0.91156,-0.457766 2.10889,-1.116489 4.38324,-1.680588 5.632,1.041442 0.0774,0.0011 0.2748,0.07794 0.35909,0.193276 0,-0.1777 3.86757,0.191653 4.59949,0.428932 2.06761,0.670298 4.12294,4.043913 4.67448,7.409878 0.10819,0.660273 0.41292,3.709308 0.67718,6.775633 0.54152,6.283489 0.7399,7.354234 1.76453,9.523581 1.41562,2.997155 3.04043,4.709642 6.63979,6.998089 4.29357,2.729825 5.96761,2.853987 8.3954,2.723264 1.89162,-0.101852 4.23136,-0.955882 4.84557,-1.159134 0.18432,-0.06099 -0.11212,0.06022 -0.34254,0.160329 -1.01964,0.443024 -2.43137,0.861558 -3.02339,0.896348 l -0.67776,0.03983 -0.7407,-1.700892 c -1.65697,-3.804976 -1.98086,-5.650545 -1.33993,-7.635068 0.17219,-0.533165 0.58797,-1.287074 0.92396,-1.675347 0.57248,-0.661575 0.67523,-0.704488 1.63443,-0.682622 1.12023,0.02553 2.11087,0.438113 2.4146,1.005633 0.10702,0.19998 0.19458,0.968973 0.19458,1.708878 0,1.484707 0.44339,3.72999 0.84506,4.279304 0.4423,0.604888 0.46608,0.207606 0.0581,-0.971298 -0.5492,-1.587106 -0.5392,-4.771549 0.0205,-6.534407 0.45563,-1.435007 1.2797,-2.664899 2.15306,-3.213385 0.93043,-0.584322 2.58217,-0.431322 3.37072,0.312229 1.15859,1.092465 2.2794,4.380301 2.3152,6.7915 0.0228,1.537364 -0.0645,1.995744 -0.90815,4.767728 -0.51338,1.686758 -0.87482,3.12543 -0.8032,3.197047 0.0716,0.07162 0.16807,0.09236 0.21434,0.04609 0.0463,-0.04627 0.51401,-1.509573 1.03943,-3.251785 0.74659,-2.475593 0.95531,-3.450569 0.95531,-4.462566 v -1.294905 l 0.75977,-0.304001 c 1.6556,-0.66244 3.75582,-0.245742 4.37011,0.867061 0.29241,0.529709 0.26862,3.357065 -0.0408,4.847431 -0.51791,2.494801 -1.21286,3.387952 -4.10229,5.272323 -1.17233,0.76454 -2.08068,1.4723 -2.01857,1.5728 0.13248,0.214354 0.0552,0.255537 2.35467,-1.254075 0.98747,-0.648256 2.04517,-1.442008 2.35047,-1.76389 1.06221,-1.119939 2.51479,-0.472845 2.94271,1.310926 0.37384,1.558353 -0.11095,3.090876 -1.35511,4.283765 -0.66591,0.638469 -2.9834,1.785993 -5.12165,2.536029 -0.96297,0.337783 -1.25085,0.518409 -1.16764,0.732621 0.36675,0.944205 1.27019,4.410067 1.68134,6.450165 0.9908,4.916139 0.42087,12.033748 -1.22457,15.293354 -1.31633,2.607635 -6.48321,5.974251 -11.86361,7.730053 -2.1652,0.706572 -7.5257,1.803286 -11.66083,2.385708 -2.89015,0.407068 -10.56216,0.516828 -13.13468,0.187908 z m -7.62904,-64.083682 c 0.5315,-0.264854 1.30741,-0.669216 2.19567,-1.277216 0.91058,-0.544721 0.54799,-0.76843 1.11,-0.84381 0.78206,-0.104897 0.98996,-0.508304 0.36429,-0.706885 -0.42464,-0.134773 -0.4986,-0.342543 -0.67384,-1.892948 -0.11408,-1.009301 -0.21518,-1.217583 -0.91983,-1.895052 -0.75836,-0.729114 -1.86794,-1.223253 -2.74679,-1.223253 -0.7214,0 -1.48955,0.537509 -2.49538,1.746136 -1.31416,1.579129 -1.55474,2.206903 -1.44319,3.765934 0.10039,1.403032 0.55933,2.384613 1.28715,2.75295 0.78826,0.398925 2.2508,0.107906 3.32192,-0.425856 z m 4.14583,-9.325799 c -0.42797,-0.827585 -1.7751,-2.06678 -2.39477,-2.202882 -0.63786,-0.140096 -2.30802,0.567526 -2.91032,1.233057 -0.61075,0.674878 -0.13133,0.638222 0.89466,-0.0684 1.26764,-0.873056 1.96999,-0.899409 2.87163,-0.107754 0.36344,0.319098 0.8414,0.872418 1.06216,1.2296 0.46885,0.758614 0.8753,0.687309 0.47664,-0.08362 z"
           style="fill:#000000;fill-opacity:1;stroke:none;stroke-width:0.188988"
           sodipodi:nodetypes="cscczsccccsccsssssscsccsssscscccccsssccccssssscccsccccscscsccssccscccssccsscscscssccccccssssssccccccccc" />
        <path
           inkscape:connector-curvature="0"
           id="path4625"
           d="m 127.46719,49.502406 c -1.1956,-0.6338 -1.67181,-3.299542 -0.75383,-5.373894 0.30323,-0.685228 0.86122,-1.148481 0.9801,-1.144943 0.11888,0.0036 1.00791,0.126943 1.97205,0.295315 2.51683,0.439524 2.01579,0.11638 2.21962,1.075433 0.33927,1.59629 0.51286,3.830552 -0.61903,4.750705 -0.45763,0.372029 -0.93632,0.507723 -1.98002,0.561278 -0.75706,0.03884 -1.57556,-0.0349 -1.81889,-0.163894 z"
           style="fill:#000000;fill-opacity:1;stroke:none;stroke-width:0.22321799"
           sodipodi:nodetypes="cccssccc" />
        <path
           inkscape:connector-curvature="0"
           id="path4627"
           d="m 123.90633,47.395875 c -1.09141,-1.120511 -0.83949,-2.703534 0.6712,-4.217714 l 1.01219,-1.014533 1.21839,0.464956 1.21839,0.464959 -1.6471,2.275998 c -0.9059,1.251801 -1.7506,2.304363 -1.8771,2.339027 -0.1265,0.03467 -0.39469,-0.106046 -0.59597,-0.312693 z"
           style="fill:#000000;fill-opacity:1;stroke:none;stroke-width:0.206618" />
        <path
           inkscape:connector-curvature="0"
           id="path4629"
           d="m 146.18284,26.241767 c -0.81656,-0.486465 -3.29942,-0.920054 -4.75569,-0.8305 -0.73664,0.0453 -0.87414,-0.01347 -1.2415,-0.530553 -0.22721,-0.319823 -0.69356,-0.773666 -1.03633,-1.008537 -0.53946,-0.369644 -0.7945,-0.414697 -1.89753,-0.335203 -0.86459,0.06231 -1.59331,0.253759 -2.26649,0.595445 l -0.99219,0.503605 v -0.563496 c 0,-0.360037 -0.12955,-0.632833 -0.35879,-0.75552 -0.21046,-0.112636 -0.6133,-0.877174 -0.9744,-1.849284 -0.50956,-1.371796 -0.61866,-1.939484 -0.63339,-3.29569 -0.0149,-1.374574 0.045,-1.724573 0.37238,-2.173362 0.92654,-1.270314 3.64202,-1.800082 5.24623,-1.023498 0.45856,0.221983 0.98747,0.573474 1.17536,0.781092 0.32954,0.364139 0.66348,0.415767 0.33009,1.459889 -0.38639,1.209874 -0.97819,4.956657 -0.67503,4.956657 0.10187,0 0.10491,-0.829183 0.1701,-1.842633 0.20748,-1.321438 0.26233,-2.072661 0.73407,-3.070983 0.47174,-0.998322 1.46165,-2.02019 3.2686,-2.264969 1.79333,-0.242933 2.95403,-0.122801 3.80323,0.393631 0.76388,0.464539 1.55187,1.582303 1.43968,2.875102 -0.11179,1.288291 -1.09149,2.318273 -2.08829,3.450697 -0.41878,0.475758 -0.85033,0.709284 -0.79567,0.763941 0.18282,0.182822 0.89847,-0.391649 1.41601,-1.136673 0.58621,-0.843886 1.39452,-1.246982 2.50052,-1.246982 1.56085,0 2.55603,1.327669 2.41866,3.226721 -0.0969,1.339586 -0.66888,2.162445 -1.94678,2.800662 -1.28028,0.639403 -2.27885,0.676836 -3.21279,0.120441 z"
           style="fill:#000000;fill-opacity:1;stroke:none;stroke-width:0.188988"
           sodipodi:nodetypes="csccsscsccccsccsczsccsccssccc" />
        <path
           inkscape:connector-curvature="0"
           id="path4631"
           d="m 128.44067,43.216368 c -0.87486,-0.284138 -2.31605,-0.758676 -2.75348,-0.972867 -0.91076,-0.445959 -3.34389,-2.696401 -3.23526,-2.815275 0.0397,-0.04348 1.26116,0.318462 2.08134,0.641014 1.40103,0.550975 2.91048,0.536459 4.90318,0.638517 1.96844,9.3e-4 5.42591,-0.468113 5.836,-0.564844 0.92657,-0.218551 0.98444,-0.703458 0.0643,-0.518211 -0.35541,0.07155 -3.25726,0.588002 -4.64424,0.669886 -3.66672,0.216466 -6.27752,-0.333421 -8.40013,-1.769243 l -0.78147,-0.528619 1.77102,-0.953382 c 0.97406,-0.524364 1.84205,-0.894248 2.2997,-1.030865 0.45766,-0.136619 0.52999,-0.197213 0.84852,-0.325293 0.31853,-0.128082 0.79439,-0.477246 1.33146,-0.620538 0,0 0.6953,-0.157697 1.09072,-0.06421 0.21969,0.0935 0.90245,0.820294 0.90245,0.820294 0.90245,0.820293 1.3517,1.132941 3.2608,1.795764 2.49962,0.0767 3.11001,0.670429 3.39504,0.919789 1.07617,0.941478 0.45147,3.486446 -2.27485,4.67438 -3.03699,0.766302 -3.84624,0.619974 -5.69507,0.0037 z m -0.80997,-5.84738 c 0.45885,-0.195831 0.40183,-0.971461 -0.0714,-0.971461 -0.45756,0 -0.68685,0.337725 -0.53267,0.784572 0.12496,0.362182 0.16461,0.374448 0.60409,0.186889 z"
           style="fill:#000000;fill-opacity:1;stroke:none;stroke-width:0.20968799"
           sodipodi:nodetypes="ccccccccscszzccscccccsccc" />
        <path
           inkscape:connector-curvature="0"
           id="path4639"
           d="m 139.02293,32.9697 c -0.0121,-1.08485 -0.20334,-1.833395 -0.7174,-2.808107 -0.35485,-0.672845 -0.96983,-1.348455 -1.42046,-1.56052 -0.14345,-0.0675 -0.21287,-0.137407 -0.15427,-0.155347 0.17768,-0.05439 1.08282,0.493861 1.54219,0.934125 0.60284,0.577749 0.79799,1.085838 0.85869,2.235687 0.0605,1.144978 0.42389,1.189698 0.79531,1.562338 0.16498,0.165526 -0.0141,0.553211 -0.0515,0.572795 -0.0374,0.01957 -0.24222,0.05845 -0.45515,0.08637 l -0.38714,0.05076 z"
           style="fill:#000000;fill-opacity:1;stroke:none;stroke-width:0.0819076"
           sodipodi:nodetypes="cccccsccccc" />
        <path
           inkscape:connector-curvature="0"
           id="path4641"
           d="m 134.04422,28.512628 c 0.0895,-0.07276 0.32373,-0.21491 0.52058,-0.315896 0.42122,-0.216101 0.92002,-0.2354 1.49665,-0.0579 0.38682,0.119073 0.71068,0.29741 0.35789,0.197077 -0.10737,-0.03053 -0.4734,-0.05316 -0.8134,-0.05028 -0.49114,0.0042 -0.72209,0.04192 -1.12385,0.183748 -0.60111,0.212199 -0.65179,0.217205 -0.43787,0.04325 z"
           style="display:inline;fill:#000000;fill-opacity:1;stroke:none;stroke-width:0.0659387" />
        <path
           style="fill:#000000;fill-opacity:1;stroke:none;stroke-width:0.0944941"
           d="m 179.68084,66.790814 c -0.36252,-1.026391 -1.42996,-3.170833 -2.13696,-4.29305 -1.24651,-1.978573 -2.60786,-3.463354 -3.63716,-3.966946 -0.84663,-0.414215 -1.36398,-0.416687 -2.37709,-0.01135 -0.71306,0.285289 -2.77071,0.861314 -2.82899,0.791959 -0.19721,-0.234667 -1.47802,-3.218807 -1.85475,-4.321366 -0.6736,-1.971373 -0.78336,-3.047913 -0.45179,-4.431046 0.30231,-1.261065 0.87523,-2.234832 1.56609,-2.661803 0.29387,-0.181626 0.4292,-0.200507 1.15395,-0.160997 1.17467,0.06404 1.83121,0.33332 2.15351,0.88327 0.23323,0.39798 0.24522,0.483375 0.23466,1.670483 -0.006,0.703279 0.0487,1.614607 0.12558,2.08135 0.14394,0.874163 0.54395,2.191864 0.75159,2.475826 0.11759,0.160816 0.13374,0.160739 0.38175,-0.0019 0.16449,-0.107778 0.24019,-0.22438 0.20749,-0.319606 -0.0283,-0.08246 -0.17876,-0.513284 -0.33433,-0.957393 -0.76403,-2.181103 -0.55715,-5.535252 0.47038,-7.626143 0.44009,-0.895548 1.47952,-2.011638 2.06279,-2.214925 0.56013,-0.195228 1.58877,-0.143626 2.16456,0.108588 0.82047,0.359388 1.22156,0.89926 1.83995,2.47659 0.95823,2.444173 1.32436,4.341719 1.11982,5.803804 -0.0607,0.433615 -0.51146,2.094257 -1.01222,3.728768 -0.49658,1.620835 -0.86746,2.981489 -0.8242,3.023677 0.0433,0.04219 0.18767,0.103589 0.32089,0.136453 l 0.24223,0.05975 0.918,-3.006003 c 1.01112,-3.310921 1.14154,-3.930671 1.08334,-5.147942 l -0.0395,-0.825301 0.52498,-0.231535 c 1.00123,-0.441584 2.00622,-0.545772 2.91955,-0.302667 1.10825,0.294986 1.61271,0.969568 1.6892,2.258856 0.0578,0.97426 -0.19463,3.386024 -0.45121,4.311055 -0.27267,0.983049 -0.85149,2.047867 -1.43662,2.642875 -0.43144,0.438719 -2.50077,1.891109 -4.01926,2.820969 l -0.50039,0.306419 0.16752,0.283581 c 0.0921,0.155969 0.21547,0.265178 0.27408,0.242686 0.20718,-0.0795 2.8377,-1.787834 3.60178,-2.339102 0.42611,-0.307424 0.94195,-0.754565 1.14631,-0.993642 0.36526,-0.427316 0.37885,-0.433597 0.80111,-0.370277 1.19522,0.179234 1.82314,1.279956 1.75019,3.068048 -0.0314,0.769471 -0.0812,1.002284 -0.32574,1.522579 -0.57388,1.221047 -1.51496,1.995006 -3.48515,2.866268 -0.80112,0.354269 -3.51535,1.386478 -3.64381,1.385718 -0.0228,-9.5e-5 -0.16328,-0.345159 -0.31217,-0.766717 z"
           id="path5114"
           inkscape:connector-curvature="0" />
        <path
           style="fill:#000000;fill-opacity:1;stroke:none;stroke-width:0.0631345"
           d="m 652.14451,207.08335 c -0.25167,-0.19725 -0.87835,-1.06753 -1.12543,-1.46165 -0.90833,-1.44886 -1.8827,-5.69312 -2.45155,-10.02014 -0.26378,-2.00651 -0.22022,-3.325 -0.28512,-5.62663 -0.11027,-2.24635 -0.0788,-3.61851 -0.45852,-5.66814 0.10683,-0.10682 4.47529,-7.90974 4.49295,-7.89282 0.0115,0.011 -1.15337,5.65258 -1.22456,6.09826 -0.13953,0.87354 -0.33765,2.58482 -0.45196,3.90391 -0.11054,1.27569 -0.15105,5.95785 -0.0646,7.47102 0.1647,2.8837 0.75398,4.78769 1.25787,6.7929 0.0873,0.34724 0.35781,1.57699 0.60122,2.32356 0.77815,2.38659 1.01086,3.61511 0.78761,3.88412 -0.71557,0.74623 -0.99005,0.21756 -1.07791,0.19561 z"
           id="path5203"
           inkscape:connector-curvature="0"
           transform="scale(0.26458333)"
           sodipodi:nodetypes="ccccccccccccc" />
        <path
           style="fill:#000000;fill-opacity:1;stroke:none;stroke-width:0.0631345"
           d="m 674.77228,221.90962 c 0.25411,-1.83962 1.32352,-5.87251 3.31915,-12.517 2.01991,-6.72534 2.60038,-8.48153 3.11773,-11.74302 0.25409,-1.60181 0.3113,-2.55686 0.27348,-4.44645 -0.0358,-1.79134 -0.14874,-3.70511 -0.45955,-5.86882 -0.0867,-0.6037 -0.52585,-2.87602 -0.51286,-2.88902 0.013,-0.013 0.99562,2.27545 1.64346,3.00198 l 1.71454,1.29728 0.0625,2.74394 c -3.5e-4,1.59164 -0.0135,3.51102 -0.0484,3.9277 -0.24786,2.9532 -1.06206,6.33273 -2.77645,12.17708 -1.50847,5.14237 -3.88424,12.86913 -4.46318,14.42633 -0.26877,0.72292 -0.85977,0.92014 -1.23446,0.75684 -0.50958,-0.11349 -0.48502,-0.26112 -0.63592,-0.86684 z"
           id="path5205"
           inkscape:connector-curvature="0"
           transform="scale(0.26458333)"
           sodipodi:nodetypes="csccccccccsccc" />
        <path
           style="fill:#000000;fill-opacity:1;stroke:none;stroke-width:0.0631345"
           d="m 679.67033,234.89012 -0.18391,-0.8454 0.652,-0.44712 c 0.92434,-0.94685 2.4629,-1.92817 6.19204,-4.43434 4.10024,-2.75558 5.82703,-3.87882 7.96391,-5.54147 1.76203,-1.37099 2.26437,-2.03218 3.38152,-3.50322 0.30944,-0.40748 0.50647,-0.56028 0.72017,-0.64646 0.009,0.009 -0.21345,0.92267 -0.41612,1.7903 -0.22585,0.96685 0.53947,1.65552 0.5776,1.67908 0.0661,0.0409 -1.47463,1.6005 -2.31494,2.29856 -1.29451,1.07537 -3.85833,3.03914 -6.03106,4.52294 -1.4365,0.98101 -5.8413,3.77431 -7.38503,4.74797 -1.07701,0.67929 -2.02359,1.30347 -2.18285,1.30347 -0.0435,0 -0.8635,-0.74582 -0.97333,-0.92431 z"
           id="path5207"
           inkscape:connector-curvature="0"
           transform="scale(0.26458333)"
           sodipodi:nodetypes="ccccsccccscssc" />
        <path
           style="fill:#000000;fill-opacity:1;stroke:none;stroke-width:0.0132654"
           d="m 127.04089,37.441929 c -0.0415,-0.03844 -0.0635,-0.104143 -0.0822,-0.245835 -0.032,-0.241437 -0.0146,-0.394959 0.0612,-0.539567 0.11885,-0.226952 0.35396,-0.32188 0.65476,-0.264481 0.172,0.03287 0.23598,0.07288 0.31081,0.194656 0.186,0.302739 -0.0273,0.781077 -0.38264,0.858226 -0.0856,0.01858 -0.27031,0.04271 -0.35759,0.04669 -0.0772,0.0035 -0.17162,-0.01944 -0.20425,-0.04974 z"
           id="path5213"
           inkscape:connector-curvature="0" />
        <path
           style="fill:#000000;fill-opacity:1;stroke:none;stroke-width:0.0631345"
           d="m 523.00243,83.73626 c -0.1135,-0.203859 -0.20766,-1.974936 -0.11724,-3.04497 0.39527,-4.680178 1.78657,-11.821419 2.88431,-15.532152 0.36179,-1.222982 0.59414,-1.968972 0.59521,-2.47265 l 0.012,-0.379748 0.85153,-0.482111 c 1.24475,-0.704086 3.21393,-1.432363 3.4721,-1.432363 0.0346,0 -0.4763,0.532698 -0.78815,0.836533 -2.60701,2.540005 -4.04005,5.687455 -4.87585,10.496116 -0.5107,2.938309 -0.79349,5.095069 -0.88574,6.755395 -0.23759,4.276323 -0.30939,4.956244 -0.45222,5.319085 -0.13452,0.09869 -0.53762,-0.01052 -0.69594,-0.06314 z"
           id="path5219"
           inkscape:connector-curvature="0"
           transform="scale(0.26458333)"
           sodipodi:nodetypes="ccccccsscccc" />
        <path
           style="fill:#000000;fill-opacity:1;stroke:none;stroke-width:0.0631345"
           d="m 548.00746,85.096545 c -0.1925,-0.164465 0.0315,-0.503035 0.90631,-1.220664 0.92511,-0.758851 1.8434,-1.730938 3.22711,-3.305129 2.04217,-2.323282 2.90148,-3.263028 3.79242,-4.535659 0.26422,-0.377423 0.61434,-0.841746 0.61434,-0.786294 0,0.149014 -0.28994,1.132127 -0.8019,2.228989 -0.43658,0.935372 -0.45315,1.239718 -1.03907,1.850297 -0.33452,0.348594 -0.74644,0.744315 -0.8881,0.933943 -0.14167,0.189628 -0.54576,0.760785 -0.84342,1.160111 -1.63285,2.19055 -3.4662,3.758092 -4.41841,3.758092 -0.11658,0 -0.35483,0.07395 -0.39303,0.02792 z"
           id="path5221"
           inkscape:connector-curvature="0"
           transform="scale(0.26458333)"
           sodipodi:nodetypes="ccccscccsscc" />
        <path
           style="fill:#000000;fill-opacity:1;stroke:none;stroke-width:0.36054701"
           d="m 148.27961,55.722366 c 0,0 -0.48134,8.095021 0.0943,12.982991 0.57568,4.887968 1.98666,9.969577 5.25767,10.359345 3.27101,0.389769 13.86932,-5.413087 16.72267,-7.066361 1.61513,-0.935829 2.52629,-3.682275 -0.82314,-2.816327 -0.6256,0.161737 3.13543,-1.766385 2.9841,-2.283689 -0.2926,-1.000209 -6.06259,-0.153872 -5.40657,-0.255621 1.32605,-0.205666 5.4046,-2.583762 5.02475,-3.56318 -0.5398,-1.391818 -6.50572,0.641608 -5.80006,0.528986 3.45076,-0.550732 5.76624,-4.127826 1.07999,-3.544088 -2.30986,0.287726 -3.65533,0.9849 -4.77407,1.094217 -2.459,0.24028 -4.97852,-0.582518 -5.83387,-1.851811 -0.85491,-1.26863 -3.77205,-4.320621 -3.77205,-4.320621"
           id="path564"
           sodipodi:nodetypes="csssssssssssc"
           inkscape:connector-curvature="0" />
        <path
           style="fill:#000000;fill-opacity:1;stroke:none;stroke-width:0.0727149"
           d="m 131.87946,29.755265 c 0,0 1.94345,-2.234962 4.46993,-1.846273 2.52647,0.388689 3.06092,2.332135 3.10951,3.595374 0.0486,1.263239 0.87455,1.943446 -0.14576,3.158098 -1.02031,1.214653 -1.89486,2.429307 -3.8383,2.526478 -1.94345,0.09717 -3.74113,0.583034 -4.227,-0.680205 -0.48586,-1.263239 -1.06889,-2.915168 -0.58303,-4.032649 0.48586,-1.11748 1.21465,-2.720823 1.21465,-2.720823 z"
           id="path1035" />
        <path
           style="fill:#000000;fill-opacity:1;stroke:none;stroke-width:0.0727149"
           d="m 121.53062,38.063493 c 0,0 0.97172,1.50617 1.16606,1.700514 0.19435,0.194346 5.34448,2.623651 9.71723,1.943446 4.37275,-0.680207 5.44165,-1.89486 4.42134,-2.380721 -1.02031,-0.485861 -5.83034,-0.437274 -8.84268,-0.63162 -3.01234,-0.194344 -6.46195,-0.631619 -6.46195,-0.631619 z"
           id="path1091" />
        <path
           style="fill:#000000;fill-opacity:1;stroke:none;stroke-width:0.0727149"
           d="m 131.19926,24.192153 c 0,0 -0.60733,0.461568 -0.80167,0.728792 -0.19435,0.267223 -0.43728,1.068895 0.21863,1.141774 0.65592,0.07288 4.25129,0.753085 5.00438,0.631619 0.75308,-0.121464 4.32416,1.943446 4.73714,1.651929 0.41298,-0.291517 1.43329,-0.437275 0.48586,-1.7491 -0.94743,-1.311826 -0.55874,-2.089204 -2.57506,-2.405014 -2.01633,-0.31581 -3.01234,0.194344 -4.44563,0.242931 -1.43329,0.04859 -2.62365,-0.242931 -2.62365,-0.242931 z"
           id="path1095" />
      </g>
    </g>
  </g>
</svg>
