<?xml version="1.0" encoding="UTF-8" standalone="no"?>
<!-- Created with Inkscape (http://www.inkscape.org/) -->

<svg
   width="210mm"
   height="297mm"
   viewBox="0 0 210 297"
   version="1.1"
   id="svg1410"
   inkscape:version="1.4 (86a8ad7, 2024-10-11)"
   sodipodi:docname="titre.svg"
   xml:space="preserve"
   xmlns:inkscape="http://www.inkscape.org/namespaces/inkscape"
   xmlns:sodipodi="http://sodipodi.sourceforge.net/DTD/sodipodi-0.dtd"
   xmlns="http://www.w3.org/2000/svg"
   xmlns:svg="http://www.w3.org/2000/svg"
   xmlns:rdf="http://www.w3.org/1999/02/22-rdf-syntax-ns#"
   xmlns:cc="http://creativecommons.org/ns#"
   xmlns:dc="http://purl.org/dc/elements/1.1/"><defs
     id="defs1404" /><sodipodi:namedview
     id="base"
     pagecolor="#ffffff"
     bordercolor="#666666"
     borderopacity="1.0"
     inkscape:pageopacity="0.0"
     inkscape:pageshadow="2"
     inkscape:zoom="0.35"
     inkscape:cx="-92.857143"
     inkscape:cy="270"
     inkscape:document-units="mm"
     inkscape:current-layer="layer1"
     showgrid="false"
     inkscape:window-width="1920"
     inkscape:window-height="1009"
     inkscape:window-x="-8"
     inkscape:window-y="-8"
     inkscape:window-maximized="1"
     inkscape:showpageshadow="2"
     inkscape:pagecheckerboard="0"
     inkscape:deskcolor="#d1d1d1" /><metadata
     id="metadata1407"><rdf:RDF><cc:Work
         rdf:about=""><dc:format>image/svg+xml</dc:format><dc:type
           rdf:resource="http://purl.org/dc/dcmitype/StillImage" /><dc:title /></cc:Work></rdf:RDF></metadata><g
     inkscape:label="Calque 1"
     inkscape:groupmode="layer"
     id="layer1"><g
       transform="matrix(1.9222312,0,0,1.9222312,-166.92553,-51.505048)"
       id="g3507"
       inkscape:label="cadre_S"
       style="display:inline;fill:#926315;fill-opacity:1"
       inkscape:export-filename="titre_svg.png"
       inkscape:export-xdpi="96"
       inkscape:export-ydpi="96"><path
         transform="scale(0.26458333)"
         inkscape:connector-curvature="0"
         id="path3438"
         d="m 266.4947,390.90274 c -0.4261,-0.51311 -0.7619,-2.46129 -0.87151,-5.05614 l -0.17832,-4.22139 2.21406,-0.97939 c 3.41747,-1.5117 6.14065,-3.70038 8.61451,-6.92365 2.94012,-3.83078 8.62757,-13.37469 11.47652,-19.25834 2.50346,-5.17014 2.7749,-5.32495 6.42828,-3.66626 3.91658,1.77819 7.41128,8.19357 9.86341,18.10673 1.59093,6.43158 1.61414,17.02675 0.0448,20.43407 l -1.105,2.39912 h -17.89677 c -16.02685,0 -17.96919,-0.0872 -18.58995,-0.83475 z"
         style="fill:#926315;fill-opacity:1;stroke:none;stroke-width:0.505076" /><path
         transform="scale(0.26458333)"
         inkscape:connector-curvature="0"
         id="path3440"
         d="m 265.62301,369.47472 v -8.5756 l 1.04185,-1.70908 c 1.4572,-2.39043 3.51147,-5.27788 4.77359,-6.70967 2.17076,-2.46258 5.73957,-3.56998 11.52768,-3.57702 1.96888,-0.002 3.67276,0.0886 3.78639,0.20225 0.42264,0.42264 -6.35018,12.94041 -10.13367,18.72942 -3.95018,6.04405 -6.51563,8.51192 -10.3731,9.97853 l -0.62274,0.23676 z"
         style="fill:#926315;fill-opacity:1;stroke:none;stroke-width:0.252538" /><path
         transform="scale(0.26458333)"
         inkscape:connector-curvature="0"
         id="path3442"
         d="m 265.62301,347.53469 v -7.60023 l 1.19956,-0.88944 c 4.87258,-3.61288 14.49804,-6.49436 26.13839,-7.82477 l 1.45278,-0.16605 -0.27186,0.71274 c -0.14953,0.39201 -0.67451,1.79234 -1.16662,3.11185 -0.92438,2.47857 -2.93525,7.40471 -4.02599,9.8627 l -0.62244,1.40268 -1.94487,-0.2237 c -2.70893,-0.31159 -7.60215,-0.0327 -10.12392,0.57698 -4.08487,0.98761 -6.35592,2.62603 -9.22297,6.65376 l -1.41206,1.98371 z"
         style="fill:#926315;fill-opacity:1;stroke:none;stroke-width:0.252538" /><path
         transform="scale(0.26458333)"
         inkscape:connector-curvature="0"
         id="path3444"
         d="m 265.62301,311.5126 v -24.57976 l 1.32583,-0.49275 c 2.90468,-1.07952 6.2739,-1.27179 8.83916,-0.50441 1.92575,0.57608 4.14632,3.48464 6.86815,8.99609 1.75297,3.54959 2.08253,4.40169 3.03101,7.83674 2.81355,10.18966 10.89899,17.83696 24.60522,23.27188 l 2.40767,0.95472 -2.38845,0.1453 c -1.31365,0.0799 -4.37719,0.20567 -6.80787,0.27943 -15.20737,0.46154 -28.31422,3.22081 -35.93885,7.56589 l -1.94187,1.10662 z"
         style="fill:#926315;fill-opacity:1;stroke:none;stroke-width:0.252538" /><path
         transform="scale(0.26458333)"
         inkscape:connector-curvature="0"
         id="path3446"
         d="m 306.62749,391.25793 c 3.58164,-6.93235 1.90406,-23.76647 -3.4415,-34.53459 -2.91549,-5.87297 -6.0211,-8.80235 -10.31896,-9.73342 l -1.41906,-0.30742 1.36237,-3.18707 c 1.54798,-3.62129 4.63248,-11.69835 4.63248,-12.13062 0,-0.79964 1.36657,-0.88231 14.77348,-0.8937 l 13.38452,-0.0114 4.29315,0.82655 c 6.41385,1.23485 18.46361,2.85413 22.47589,3.02038 1.94455,0.0806 3.36507,0.20038 3.15673,0.26625 -2.08093,0.65785 -8.9889,3.36675 -11.99306,4.70296 -6.87323,3.05714 -11.78841,6.08789 -15.32137,9.44732 -3.75907,3.57444 -5.24408,6.51835 -5.45401,10.81215 -0.15639,3.19853 0.32262,5.53218 1.73709,8.46286 3.30479,6.84727 9.67479,11.56827 15.2304,11.28773 1.59351,-0.0805 2.1719,-0.25219 4.04012,-1.19946 6.8688,-3.4828 10.54465,-10.85855 8.04449,-16.14162 -0.61123,-1.29158 -4.94821,-5.55036 -6.69594,-6.57519 -3.12799,-1.83418 -5.00225,-2.02421 -8.87462,-0.89978 -2.72011,0.78985 -3.38088,1.32829 -3.0836,2.51274 0.288,1.14749 1.07725,1.26144 3.6368,0.52508 1.25812,-0.36196 2.78776,-0.6581 3.39919,-0.6581 1.86917,0 4.00783,1.26268 6.66539,3.93527 2.58616,2.6008 2.91287,3.34621 2.574,5.87279 -0.43475,3.24154 -3.44246,6.95067 -7.09333,8.74758 -1.80186,0.88686 -2.07398,0.95011 -3.57068,0.82997 -6.25907,-0.50242 -13.06063,-8.76812 -13.0342,-15.84 0.0137,-3.66747 1.01972,-5.84652 4.15248,-8.99442 1.34344,-1.34993 3.32191,-2.98015 4.81323,-3.966 5.87103,-3.88112 15.45935,-8.05375 25.75211,-11.20678 l 4.54569,-1.39249 3.78807,0.28904 c 20.10406,1.53401 31.92855,8.59143 38.38374,22.90927 5.53992,12.28771 6.38316,23.33553 2.4257,31.78053 l -1.00192,2.13804 H 385.1859 361.77944 l 2.99762,-3.10263 c 4.49514,-4.6526 7.63167,-9.59303 8.67132,-13.65843 0.25324,-0.99027 0.70371,-3.67559 1.00104,-5.96737 1.61625,-12.45798 2.8341,-15.86069 6.37554,-17.81338 1.23945,-0.68341 1.58277,-0.74842 4.39793,-0.83273 2.22768,-0.0667 3.49125,0.0186 4.67196,0.31552 5.25654,1.32181 8.28589,4.70035 8.51072,9.49175 0.25071,5.343 -2.16971,9.79533 -6.19866,11.40234 -1.20865,0.48209 -1.9309,0.58006 -4.32058,0.58604 l -2.86933,0.007 -1.09982,-1.2148 c -2.46508,-2.72277 -3.488,-6.46796 -2.23225,-8.17294 0.63813,-0.86641 2.67062,-2.0203 3.93787,-2.2356 0.90602,-0.15393 0.92473,-0.17971 0.78786,-1.0857 -0.21244,-1.40623 -0.3861,-1.46853 -2.33948,-0.8394 -5.06723,1.63201 -6.57432,5.49727 -4.08785,10.48423 1.36369,2.73509 2.96699,4.53711 4.50218,5.0602 1.56437,0.53303 5.35696,0.53316 7.17133,2.2e-4 5.70164,-1.67472 9.07172,-6.59522 9.06417,-13.23416 -0.004,-3.86535 -0.95205,-6.30882 -3.38122,-8.71824 -2.89444,-2.8709 -6.45129,-4.16297 -11.50198,-4.17824 -4.48487,-0.0136 -6.99661,0.99468 -9.07925,3.64448 -1.50323,1.91261 -2.87439,5.67166 -3.55904,9.75708 l -0.3174,1.89403 -0.57179,-2.52538 c -2.16311,-9.55376 -5.39476,-12.48974 -13.75328,-12.495 -2.81849,-0.002 -5.17366,0.2542 -7.14724,0.77679 -1.00026,0.26486 -1.46852,0.9444 -1.24356,1.80467 0.2288,0.8749 0.93241,0.99219 3.14901,0.52493 3.13473,-0.66081 7.65474,-0.61576 9.91374,0.0988 2.35252,0.74415 3.4569,1.70494 4.52984,3.94088 1.55946,3.2498 2.44798,7.23653 3.15756,14.16763 0.4529,4.42395 0.45258,4.55671 -0.0145,5.91417 -1.46249,4.2508 -5.79613,10.14173 -10.53012,14.31409 l -2.14325,1.88896 h -25.97995 -25.97995 z"
         style="fill:#926315;fill-opacity:1;stroke:none;stroke-width:0.252538" /><path
         transform="scale(0.26458333)"
         inkscape:connector-curvature="0"
         id="path3448"
         d="m 412.23201,391.51047 c 1.59281,-3.6871 2.38833,-6.70951 2.77515,-10.54347 0.0981,-0.97227 0.45446,-2.62008 0.79193,-3.6618 2.81233,-8.68131 7.89956,-28.95106 7.91528,-31.53792 0.002,-0.2932 0.69529,-0.63059 2.46224,-1.1979 1.35287,-0.43435 3.4496,-1.24882 4.6594,-1.80993 2.37878,-1.10327 2.83517,-1.70638 2.25494,-2.97986 -0.55603,-1.22034 -1.25068,-1.19659 -4.37116,0.14946 -1.57373,0.67885 -3.14544,1.3028 -3.49268,1.38657 l -0.63134,0.1523 -0.005,-6.26189 c -0.005,-6.61688 -0.22479,-8.90275 -1.53079,-15.9127 -0.96705,-5.19065 -1.12484,-4.6413 1.53542,-5.34551 1.85401,-0.49079 2.94763,-0.60713 5.93465,-0.63135 3.52332,-0.0286 3.71591,-0.003 5.09254,0.67292 0.90047,0.4422 2.00025,1.31141 2.96732,2.34522 l 1.53658,1.64261 v 21.20336 21.20336 l -7.8083,15.78424 -7.80831,15.78423 h -6.23458 c -5.84206,0 -6.22256,-0.0278 -6.04366,-0.44194 z"
         style="fill:#926315;fill-opacity:1;stroke:none;stroke-width:0.252538" /><path
         transform="scale(0.26458333)"
         inkscape:connector-curvature="0"
         id="path3450"
         d="m 434.12944,380.20663 5.87116,-11.74578 0.0702,10.6725 c 0.0386,5.86987 0.007,10.93171 -0.0699,11.24853 -0.077,0.31683 -0.50637,0.79938 -0.95405,1.07235 -0.73647,0.44904 -1.28884,0.49638 -5.80124,0.49724 l -4.98727,9.4e-4 z"
         style="fill:#926315;fill-opacity:1;stroke:none;stroke-width:0.252538" /><path
         transform="scale(0.26458333)"
         inkscape:connector-curvature="0"
         id="path3452"
         d="m 414.37418,370.06476 c -1.67599,-8.49449 -6.2041,-18.31308 -10.88596,-23.60476 -1.0971,-1.23999 -1.71341,-2.24662 -2.36486,-3.86254 -3.64275,-9.03584 -5.49064,-19.51894 -4.70833,-26.71044 0.99445,-9.14156 5.0863,-15.33436 12.64851,-19.14285 1.56172,-0.78651 4.30616,-1.83973 4.44004,-1.70392 0.0346,0.0351 0.3998,0.9161 0.81159,1.95782 1.43331,3.62593 3.2292,9.56889 4.43576,14.67887 0.14266,0.60416 0.0101,0.74866 -1.49394,1.62825 -4.55715,2.66512 -7.81533,7.17843 -8.84282,12.24931 -0.51479,2.54058 -0.37812,8.02536 0.26066,10.46071 0.67358,2.56802 1.99298,4.93567 3.72649,6.6871 2.10929,2.13109 3.69865,2.86875 6.44921,2.99319 1.51897,0.0687 2.08344,0.18534 2.08344,0.43044 0,0.76557 -1.88568,9.41812 -3.025,13.8804 -1.19232,4.66985 -3.02337,11.27999 -3.17099,11.44738 -0.0403,0.0457 -0.20405,-0.5793 -0.3638,-1.38896 z"
         style="fill:#926315;fill-opacity:1;stroke:none;stroke-width:0.252538" /><path
         transform="scale(0.26458333)"
         inkscape:connector-curvature="0"
         id="path3454"
         d="m 417.77724,342.23517 c -1.22815,-0.32033 -1.74117,-0.68403 -3.22397,-2.28564 -2.25482,-2.43547 -2.96514,-4.8573 -2.96022,-10.09283 0.004,-4.62012 0.75131,-6.94706 3.20788,-9.99316 1.22052,-1.51343 4.49311,-4.13398 4.79081,-3.83628 0.21176,0.21175 0.9925,4.29025 1.6025,8.3712 0.86213,5.76777 1.11984,10.53056 0.7744,14.31212 -0.16845,1.84397 -0.33731,3.38371 -0.37525,3.42165 -0.19401,0.19401 -3.16021,0.27402 -3.81615,0.10294 z"
         style="fill:#926315;fill-opacity:1;stroke:none;stroke-width:0.252538" /><path
         transform="scale(0.26458333)"
         inkscape:connector-curvature="0"
         id="path3456"
         d="m 439.51043,312.4195 c -0.84066,-0.92913 -3.95897,-2.30249 -5.91567,-2.60536 -2.227,-0.3447 -6.97872,0.0535 -9.9815,0.83651 -1.09596,0.28578 -2.07581,0.4276 -2.17744,0.31517 -0.10163,-0.11243 -0.3844,-1.05674 -0.62837,-2.09846 -0.69438,-2.96485 -2.78272,-9.74526 -3.76858,-12.23576 -0.62581,-1.58096 -0.80839,-2.31392 -0.60734,-2.43818 0.15811,-0.0977 1.54835,-0.38537 3.08943,-0.63923 3.86478,-0.63664 13.12989,-0.63634 17.44504,5.6e-4 1.66447,0.24567 3.05799,0.47835 3.0967,0.51706 0.0387,0.0387 0.0406,4.30468 0.004,9.47992 -0.0657,9.33409 -0.0702,9.40518 -0.55641,8.86777 z"
         style="fill:#926315;fill-opacity:1;stroke:none;stroke-width:0.252538" /><path
         transform="scale(0.26458333)"
         inkscape:connector-curvature="0"
         id="path3458"
         d="m 395.68015,339.77439 c -2.52096,-1.81248 -9.5282,-4.70321 -14.3025,-5.90029 -0.7838,-0.19652 -1.32652,-0.59224 -2.17606,-1.58664 -7.19704,-8.42422 -10.07905,-18.60821 -7.47845,-26.42614 0.7476,-2.24743 2.80316,-5.16143 4.85878,-6.88788 3.69449,-3.10289 9.8032,-5.43244 16.16416,-6.16416 1.79222,-0.20616 2.55627,-0.81153 2.31079,-1.83087 -0.33669,-1.39809 -0.94716,-1.51736 -4.68002,-0.91437 -5.11234,0.82583 -10.33884,2.76909 -13.92056,5.17578 -2.05082,1.37803 -4.89563,4.29427 -6.01058,6.1615 -3.82222,6.40117 -3.56192,15.80628 0.67143,24.25983 0.99324,1.98339 3.37241,5.75262 4.19734,6.64968 l 0.54143,0.58877 -0.63135,-0.14439 c -2.07379,-0.47426 -7.85369,-0.87303 -20.32932,-1.40258 -5.49867,-0.2334 -13.66271,-1.20354 -22.21099,-2.63936 l -3.52318,-0.59177 -1.21608,-1.35644 c -1.88199,-2.09923 -5.3145,-6.67108 -6.89612,-9.18513 -3.16491,-5.03077 -5.58952,-10.92333 -6.7023,-16.28871 -0.70318,-3.39047 -0.77684,-8.63682 -0.15681,-11.16976 1.67207,-6.8307 7.16098,-12.35879 14.88193,-14.98816 l 1.70311,-0.58 0.68134,1.184 c 5.10841,8.87704 11.49573,14.39222 19.04897,16.44797 1.95731,0.53272 5.57702,1.01915 7.60999,1.02266 l 1.19956,0.002 v 2.46732 c 0,4.93049 -1.69757,8.81315 -5.55584,12.70724 -2.06279,2.08194 -2.73544,2.58639 -4.79822,3.59841 -2.96346,1.45388 -5.08167,2.01155 -7.70242,2.02785 -1.59196,0.01 -2.23447,-0.10127 -3.03045,-0.52435 -3.15682,-1.6779 -7.0493,-5.40822 -8.34692,-7.99917 -1.5642,-3.12321 -0.99995,-5.24511 1.91179,-7.1895 3.23094,-2.15753 6.35585,-1.61315 9.92947,1.7298 1.70552,1.59543 2.54561,1.87985 3.30615,1.11931 0.21826,-0.21826 0.39684,-0.69691 0.39684,-1.06367 0,-1.05524 -2.95476,-3.7807 -5.41932,-4.99875 -1.90981,-0.94388 -2.1184,-0.99061 -4.42188,-0.99061 -2.22615,0 -2.55194,0.0662 -4.11565,0.83599 -5.70312,2.80764 -7.04127,7.91415 -3.4965,13.34297 1.89452,2.90148 6.47625,6.90082 9.29481,8.11333 4.89082,2.10397 13.32609,-0.42887 18.55,-5.56998 4.26886,-4.2012 6.57016,-9.54832 6.572,-15.27021 10e-4,-2.83993 10e-4,-2.84106 0.61451,-2.84106 2.1293,0 8.94255,-2.0427 13.50482,-4.04892 9.05656,-3.98255 19.21457,-11.74892 24.47146,-18.70982 1.85567,-2.45719 2.3599,-3.49592 3.08072,-6.34638 0.46362,-1.83336 0.50902,-2.55916 0.38295,-6.12225 -0.10663,-3.01334 -0.30144,-4.71728 -0.76532,-6.69396 -1.36435,-5.81371 -3.89624,-12.51832 -7.27235,-19.25769 -0.97111,-1.93852 -1.73042,-3.55534 -1.68735,-3.59295 0.0431,-0.0376 1.73296,1.0257 3.75531,2.3629 7.31823,4.83889 14.67056,8.45772 19.85582,9.77307 1.34372,0.34086 2.48141,0.65804 2.52821,0.70484 0.0468,0.0468 -0.38297,1.7164 -0.95503,3.71023 -1.72966,6.02848 -2.52334,10.26064 -2.68345,14.30918 -0.0942,2.3819 -0.0372,4.12283 0.1694,5.17291 0.70944,3.60601 3.14917,8.31621 5.7449,11.09126 3.60575,3.85484 9.09413,6.03083 15.21122,6.03083 h 1.78252 v 4.94456 4.94456 l -0.69448,-0.14036 c -2.8911,-0.58428 -5.91166,-0.78143 -11.67988,-0.76234 -5.39914,0.0179 -6.90994,0.10741 -9.34964,0.55411 -1.60045,0.29303 -3.0778,0.59595 -3.28299,0.67316 -0.24961,0.0939 -0.57487,-0.21345 -0.98279,-0.92876 -1.26618,-2.22032 -5.46802,-5.92774 -8.40503,-7.41604 -2.096,-1.06213 -3.78663,-0.57608 -3.39694,0.97659 0.11751,0.46821 0.42909,0.73634 1.11048,0.95563 2.13444,0.68695 7.11971,4.63936 8.21051,6.50943 l 0.44486,0.76267 -1.45501,0.54251 c -4.27116,1.59252 -8.78079,4.714 -11.45826,7.93118 -1.74359,2.09505 -4.01031,6.48354 -4.77387,9.24245 -2.07166,7.48531 -1.49254,17.00578 1.67038,27.46068 0.47225,1.56101 0.85864,2.89631 0.85864,2.96732 0,0.2582 -0.39717,0.0911 -1.26269,-0.53113 z"
         style="fill:#926315;fill-opacity:1;stroke:none;stroke-width:0.252538" /><path
         transform="scale(0.26458333)"
         inkscape:connector-curvature="0"
         id="path3460"
         d="m 323.32798,326.86169 c -2.08748,-0.39449 -9.26883,-2.64703 -12.42632,-3.89771 -6.63667,-2.62877 -11.55977,-5.67359 -15.47587,-9.57145 -2.05844,-2.04885 -2.2087,-2.27305 -2.75371,-4.10892 -0.92219,-3.10641 -1.27194,-5.61182 -1.28137,-9.17901 -0.0197,-7.44898 1.63795,-15.51736 5.80066,-28.23407 4.0241,-12.29327 5.12951,-17.49831 5.1219,-24.11739 -0.004,-3.08839 -0.10922,-4.30242 -0.50079,-5.75349 l -0.4963,-1.83914 2.50814,-2.0752 c 1.37947,-1.14136 3.58519,-2.85019 4.90159,-3.7974 2.36766,-1.70365 2.41665,-1.7246 4.54586,-1.94428 6.49996,-0.67062 14.15363,-0.52632 20.78908,0.39195 4.52501,0.62621 4.36361,0.51158 2.38696,1.69537 -3.67422,2.20046 -7.1587,6.33338 -8.69213,10.30969 -1.42043,3.68331 -1.65047,5.18386 -1.64259,10.71491 0.007,4.64025 0.065,5.29707 0.71901,8.08122 0.39151,1.66675 1.13718,4.18669 1.65706,5.59986 l 0.94523,2.5694 -1.53798,0.55714 c -10.17203,3.68485 -16.50323,11.36693 -17.21708,20.89067 -0.30572,4.07864 0.58096,9.69043 2.34312,14.82964 1.7643,5.14544 5.91131,12.54345 9.60053,17.12672 0.7623,0.94704 1.34642,1.75003 1.29804,1.78442 -0.0484,0.0344 -0.31525,0.0196 -0.59304,-0.0329 z"
         style="fill:#926315;fill-opacity:1;stroke:none;stroke-width:0.252538" /><path
         transform="scale(0.26458333)"
         inkscape:connector-curvature="0"
         id="path3462"
         d="m 288.39919,301.45766 c -0.73126,-3.2522 -1.93992,-9.92168 -2.33042,-12.85945 -0.68869,-5.18101 -0.91088,-12.78192 -0.49894,-17.06805 l 0.32201,-3.35043 1.81924,-1.22761 c 5.57339,-3.76089 7.94111,-9.84422 6.16451,-15.83838 l -0.53837,-1.81644 1.13766,-1.59283 c 0.62571,-0.87606 1.91194,-2.42852 2.85829,-3.44991 1.67,-1.80242 1.72828,-1.83958 1.9804,-1.26269 0.43965,1.00598 0.30844,9.0992 -0.19183,11.83233 -0.74119,4.04935 -2.30222,9.69551 -4.70741,17.0265 -3.8199,11.643 -5.44959,19.47233 -5.89156,28.3041 -0.0417,0.83337 -0.0973,1.41966 -0.12358,1.30286 z"
         style="fill:#926315;fill-opacity:1;stroke:none;stroke-width:0.252538" /><path
         transform="scale(0.26458333)"
         inkscape:connector-curvature="0"
         id="path3464"
         d="m 282.16645,288.47633 c -1.27053,-2.00827 -3.54964,-4.24386 -4.98959,-4.89431 -1.19764,-0.54099 -1.66842,-0.5979 -4.86159,-0.58771 -2.90051,0.009 -3.81902,0.10648 -5.1139,0.54132 l -1.57836,0.53003 v -8.81235 c 0,-4.84679 0.0529,-8.81235 0.1175,-8.81235 0.0646,0 0.6487,0.33687 1.29794,0.74861 1.32241,0.83865 4.22884,1.85266 6.5895,2.29899 1.60102,0.3027 7.50436,0.20152 8.599,-0.14739 0.53365,-0.17009 0.55641,-0.12989 0.37881,0.66912 -0.32363,1.45593 -0.21624,14.0205 0.14399,16.84793 0.18313,1.43733 0.29345,2.65283 0.24517,2.70111 -0.0483,0.0483 -0.42109,-0.43907 -0.82847,-1.083 z"
         style="fill:#926315;fill-opacity:1;stroke:none;stroke-width:0.252538" /><path
         transform="scale(0.26458333)"
         inkscape:connector-curvature="0"
         id="path3466"
         d="m 274.04773,266.84306 c -3.40173,-0.65006 -5.53727,-1.59295 -7.31108,-3.22798 l -1.11364,-1.02652 v -11.5284 c 0,-9.81943 0.0559,-11.60827 0.37739,-12.06719 0.66697,-0.95224 3.47206,-2.89677 5.8098,-4.02744 5.41375,-2.61841 11.93376,-3.20553 18.09539,-1.62947 1.06313,0.27194 2.52716,0.79553 3.2534,1.16355 1.50164,0.76093 3.52817,2.56066 4.31267,3.83001 l 0.5303,0.85806 -2.24364,2.32556 c -1.234,1.27905 -2.62914,2.86535 -3.1003,3.52511 -0.47117,0.65976 -0.92263,1.19878 -1.00326,1.19783 -0.0806,-9.6e-4 -0.42364,-0.40849 -0.76227,-0.90565 -1.01576,-1.49132 -3.56015,-3.61527 -5.44333,-4.54388 -3.10261,-1.52991 -6.40864,-1.43523 -9.90861,0.28376 -2.07859,1.0209 -4.04822,2.80539 -4.86624,4.40883 -0.73317,1.43713 -1.55803,5.51113 -1.2372,6.1106 0.3452,0.645 1.0296,0.93237 1.6564,0.69549 0.62908,-0.23774 0.69803,-0.41614 1.21479,-3.14323 0.45627,-2.40786 1.22827,-3.64008 3.09966,-4.94749 2.68816,-1.87803 6.35645,-2.28478 9.02914,-1.00118 1.331,0.63923 4.53153,3.67437 5.16867,4.90156 0.33472,0.6447 0.32508,0.7905 -0.1,1.51166 -2.5874,4.38996 -4.34894,8.62632 -5.57137,13.39866 l -0.84477,3.29799 -1.22032,0.32391 c -1.8906,0.50181 -5.76558,0.60875 -7.82161,0.21585 z"
         style="fill:#926315;fill-opacity:1;stroke:none;stroke-width:0.252538" /><path
         transform="scale(0.26458333)"
         inkscape:connector-curvature="0"
         id="path3468"
         d="m 299.39525,236.41978 c -0.72429,-1.22614 -3.37079,-3.4872 -5.04027,-4.30621 -4.04929,-1.98651 -10.84678,-2.80336 -16.06594,-1.93066 -4.31308,0.7212 -7.91503,2.12929 -11.08767,4.33443 l -1.57836,1.09705 v -8.79269 c 0,-5.78384 0.0958,-9.06747 0.27992,-9.59567 0.57342,-1.64492 -1.77068,-1.54563 36.3887,-1.54132 l 34.67341,0.004 -7.07107,3.22639 c -11.68164,5.33011 -19.21723,9.78419 -26.75833,15.81611 -1.66086,1.32847 -3.0853,2.4154 -3.16541,2.4154 -0.0801,0 -0.33886,-0.32704 -0.57498,-0.72675 z"
         style="fill:#926315;fill-opacity:1;stroke:none;stroke-width:0.252538" /><path
         transform="scale(0.26458333)"
         inkscape:connector-curvature="0"
         id="path3470"
         d="m 286.83621,263.91091 c 0,-1.32284 4.03299,-11.35955 4.56454,-11.35955 0.3169,0 0.55497,2.62274 0.36405,4.01083 -0.25029,1.81983 -1.60341,4.46628 -3.14645,6.15383 -1.28092,1.40089 -1.78214,1.73694 -1.78214,1.19489 z"
         style="fill:#926315;fill-opacity:1;stroke:none;stroke-width:0.252538" /><path
         transform="scale(0.26458333)"
         inkscape:connector-curvature="0"
         id="path3472"
         d="m 360.35816,287.3019 c -2.18765,-4.46777 -5.6644,-8.43321 -10.64152,-12.13731 -5.00584,-3.72547 -7.38187,-4.50486 -13.36294,-4.38334 l -3.89433,0.0791 -0.72637,-1.76777 c -0.92733,-2.25687 -2.10632,-6.72165 -2.48899,-9.42568 -0.43077,-3.04397 -0.18693,-8.49239 0.49699,-11.10477 1.61397,-6.16489 4.49548,-9.53939 11.4205,-13.37442 l 1.41856,-0.78558 3.31269,1.10908 c 9.39899,3.14678 16.11763,8.07022 24.64422,18.05937 l 1.12889,1.32253 -0.73846,1.07333 c -2.86824,4.16884 -7.30975,7.07167 -11.61274,7.58971 -1.62542,0.19569 -2.27284,0.66723 -2.27284,1.6554 0,1.66755 2.15347,1.87254 6.03652,0.57462 3.42464,-1.14469 7.36724,-4.02338 9.51209,-6.94525 0.50105,-0.68257 1.00474,-1.18312 1.11929,-1.11232 0.32836,0.20294 2.34374,3.3461 3.50367,5.46427 1.2812,2.3396 2.50083,5.6051 2.75382,7.37321 l 0.18665,1.30442 1.3543,0.0774 1.35431,0.0774 -0.18007,-1.44119 c -0.42363,-3.39063 -2.48457,-8.08768 -5.5842,-12.72683 l -1.91143,-2.86079 0.75036,-1.66452 c 1.63083,-3.61765 2.31789,-6.65419 2.31789,-10.24414 0,-4.89644 -1.63481,-8.13065 -5.62659,-11.13133 -7.35954,-5.53227 -18.58492,-6.00378 -29.22748,-1.22768 l -1.55248,0.69671 -2.82052,-0.55941 c -5.54414,-1.09959 -7.99992,-1.33466 -15.41054,-1.47513 l -7.2867,-0.13812 3.75117,-2.1097 c 2.06314,-1.16034 8.37644,-4.21407 14.02955,-6.78606 l 10.27838,-4.67635 h 19.71218 19.71218 l 1.14357,1.78409 c 4.06245,6.33784 8.96383,15.43707 11.48589,21.32315 1.67338,3.90543 3.58209,9.63875 4.32978,13.00572 0.49155,2.21349 0.58621,3.34017 0.57289,6.81853 -0.0138,3.60587 -0.0884,4.36233 -0.55449,5.61865 -1.73957,4.68941 -9.33369,12.18481 -17.62533,17.39621 -6.33148,3.97942 -13.71326,6.97018 -19.48544,7.89462 l -2.07333,0.33206 z"
         style="fill:#926315;fill-opacity:1;stroke:none;stroke-width:0.252538" /><path
         transform="scale(0.26458333)"
         inkscape:connector-curvature="0"
         id="path3474"
         d="m 370.14624,249.11908 c -7.13544,-7.88732 -13.54305,-12.50938 -21.52359,-15.5258 l -2.23199,-0.84363 0.9693,-0.34712 c 4.69065,-1.6798 11.32167,-2.30234 15.50645,-1.45579 5.40678,1.09376 10.01876,4.20661 11.63036,7.84989 0.69954,1.58144 0.92043,5.04161 0.48052,7.52739 -0.26983,1.52475 -1.67573,5.9748 -1.88761,5.9748 -0.0367,0 -1.36129,-1.43088 -2.94344,-3.17974 z"
         style="fill:#926315;fill-opacity:1;stroke:none;stroke-width:0.252538" /><path
         transform="scale(0.26458333)"
         inkscape:connector-curvature="0"
         id="path3476"
         d="m 355.02151,289.92113 c -3.62935,-0.35979 -6.89508,-1.47519 -9.77637,-3.33908 -2.57902,-1.66836 -5.10992,-3.94473 -7.00826,-6.30345 -1.93222,-2.40081 -4.22171,-5.98329 -4.02608,-6.29981 0.22242,-0.35989 5.4212,-0.23292 7.15015,0.17463 2.05478,0.48434 3.87229,1.45559 6.71183,3.5867 4.23354,3.17732 7.58099,6.91777 9.3753,10.47595 0.47104,0.93408 0.85643,1.75798 0.85643,1.8309 0,0.1563 -0.71253,0.12899 -3.283,-0.12584 z"
         style="fill:#926315;fill-opacity:1;stroke:none;stroke-width:0.252538" /><path
         transform="scale(0.26458333)"
         inkscape:connector-curvature="0"
         id="path3478"
         d="m 418.26029,237.27308 c -6.26251,-1.85264 -14.25253,-6.13502 -22.26017,-11.9307 -1.87262,-1.35534 -3.68048,-2.64685 -4.01747,-2.87002 -0.48883,-0.32373 -4.38372,-6.26075 -4.38372,-6.68215 0,-0.0602 9.65959,-0.10942 21.46574,-0.10942 11.80616,0 21.46575,0.0407 21.46575,0.0905 0,0.0497 -0.84414,2.08831 -1.87587,4.53015 -1.53996,3.6447 -4.38442,11.03099 -6.3655,16.52946 -0.34627,0.96106 -0.47034,1.07188 -1.18657,1.05985 -0.43992,-0.007 -1.71891,-0.28533 -2.84219,-0.61763 z"
         style="fill:#926315;fill-opacity:1;stroke:none;stroke-width:0.252538" /><path
         transform="scale(0.26458333)"
         inkscape:connector-curvature="0"
         id="path3480"
         d="m 425.36835,237.31115 c 0.50646,-1.72519 4.63906,-12.39214 6.44774,-16.64273 l 2.12229,-4.98763 h 2.35605 c 2.26735,0 2.38385,0.0278 3.09425,0.73819 l 0.73818,0.73819 v 6.055 6.055 l -1.39472,1.2747 c -3.63423,3.32148 -8.81266,6.25428 -12.50994,7.08501 -0.96324,0.21643 -1.00549,0.2008 -0.85385,-0.31573 z"
         style="fill:#926315;fill-opacity:1;stroke:none;stroke-width:0.252538" /><path
         transform="scale(0.26458333)"
         inkscape:connector-curvature="0"
         id="path3482"
         d="m 434.94983,277.77991 c -2.25175,-0.32131 -5.08687,-1.40097 -6.9931,-2.66307 -3.12941,-2.07196 -5.42335,-5.26143 -6.93248,-9.63883 -0.74867,-2.1716 -0.84364,-2.74763 -0.84564,-5.12945 -0.003,-4.15057 1.17694,-10.30337 3.29878,-17.19426 l 0.7551,-2.45226 0.93925,-0.16118 c 3.91403,-0.67169 8.62617,-2.82374 12.38938,-5.65827 1.29731,-0.97717 2.40532,-1.77667 2.46225,-1.77667 0.0569,0 0.10349,2.49347 0.10349,5.54103 v 5.54103 l -1.53103,0.81604 c -1.9688,1.04936 -3.52263,2.79336 -4.78281,5.36817 -1.84206,3.76372 -2.24907,7.13242 -1.25183,10.3611 0.75044,2.42965 2.14125,3.11007 3.16462,1.54821 0.34833,-0.53163 0.33607,-0.72705 -0.133,-2.11946 -0.92922,-2.75836 -0.54975,-5.6534 1.17002,-8.92612 0.80588,-1.5336 2.57271,-3.48278 3.15695,-3.48278 0.1139,0 0.20708,6.81853 0.20708,15.15228 v 15.15229 l -1.8309,-0.0308 c -1.00699,-0.017 -2.51275,-0.12809 -3.34613,-0.24701 z"
         style="fill:#926315;fill-opacity:1;stroke:none;stroke-width:0.252538" /></g><g
       transform="matrix(1.9222312,0,0,1.9222312,-166.16821,-52.305457)"
       style="display:inline;fill:#b8a430;fill-opacity:1"
       id="g2845"
       inkscape:label="trait"><rect
         ry="0.49020374"
         y="64.80481"
         x="98.050156"
         height="37.230648"
         width="0.59128392"
         id="rect2243-9"
         style="display:inline;opacity:1;vector-effect:none;fill:#c7b2be;fill-opacity:1;fill-rule:nonzero;stroke:none;stroke-width:0.231864;stroke-linecap:round;stroke-linejoin:miter;stroke-miterlimit:4;stroke-dasharray:none;stroke-dashoffset:0;stroke-opacity:1" /><rect
         ry="0.49020371"
         y="64.580032"
         x="98.465996"
         height="37.655872"
         width="1.1346207"
         id="rect2243"
         style="display:inline;opacity:1;vector-effect:none;fill:#ecefd9;fill-opacity:1;fill-rule:nonzero;stroke:none;stroke-width:0.334847;stroke-linecap:round;stroke-linejoin:miter;stroke-miterlimit:4;stroke-dasharray:none;stroke-dashoffset:0;stroke-opacity:1" /></g><g
       transform="matrix(2.0704606,0,0,2.0704606,-254.81116,-154.61339)"
       id="g1585"
       style="display:inline;fill:#ecefda;fill-opacity:1"
       inkscape:label="soeurs"><path
         style="display:inline;fill:#ecefda;fill-opacity:1;stroke:none;stroke-width:0.0944941"
         d="m 157.37942,143.14799 c -2.10833,-1.41187 -3.88513,-4.26631 -4.4837,-7.20304 -0.28674,-1.40685 -0.35069,-2.75903 -0.25007,-5.28701 0.15028,-3.77479 0.49186,-4.94216 1.83767,-6.28015 0.64948,-0.64572 4.67485,-3.49633 5.93805,-4.20511 0.57714,-0.32383 0.56128,-0.32922 0.68475,0.23266 0.066,0.30038 0.72168,0.98045 2.7185,2.8197 0.61125,0.56301 1.31021,1.30701 1.55325,1.65331 0.24304,0.34632 0.45486,0.64707 0.47072,0.66834 0.0159,0.0213 0.27364,-0.19248 0.57286,-0.475 0.75847,-0.71615 1.20011,-1.05978 2.71741,-2.11448 1.49415,-1.0386 2.00522,-1.45365 3.20042,-2.59912 l 0.83809,-0.8032 0.56599,0.61421 c 0.72524,0.78703 1.66526,2.19898 2.14364,3.21979 1.07252,2.28871 1.05769,4.14354 -0.0484,6.04974 -0.87551,1.50885 -2.65113,3.43258 -4.62377,5.00945 l -1.09946,0.87887 0.0639,0.42574 c 0.17435,1.16264 0.89005,2.17926 1.84922,2.62671 0.95038,0.44336 2.1914,0.49416 2.92534,0.11972 0.43441,-0.22161 1.01477,-0.88254 1.11516,-1.26995 0.0914,-0.35244 0.34618,-0.42801 0.42692,-0.1266 0.18383,0.6863 -0.0217,1.12111 -1.01097,2.13873 -1.1077,1.13947 -3.80864,3.13765 -5.50719,4.07427 l -0.38955,0.21481 -0.48756,-0.32835 c -1.46425,-0.98609 -3.17281,-2.79002 -3.83372,-4.04773 l -0.34757,-0.66142 -0.58559,0.54737 c -1.20013,1.1218 -2.48823,1.95869 -4.69153,3.0481 -1.19447,0.59059 -1.66774,0.93091 -1.71965,1.23655 -0.0245,0.14449 -0.0998,0.11997 -0.54314,-0.17693 z m 3.99564,-6.22982 c 0.0899,-2.97498 0.0738,-6.45338 -0.0347,-7.48234 -0.14769,-1.40244 -0.21889,-1.57666 -0.92841,-2.27215 -0.85973,-0.84271 -3.42649,-2.57402 -3.58343,-2.41707 -0.12356,0.12356 -0.0766,7.88605 0.0532,8.7934 0.31395,2.19439 1.08941,3.33726 3.23287,4.76459 0.5457,0.36339 1.03857,0.66253 1.09526,0.66476 0.0696,0.002 0.12318,-0.66387 0.16513,-2.05119 z m 9.37405,-4.31052 c 1.09688,-0.51077 1.73448,-1.95949 1.77305,-4.02857 0.0168,-0.90208 -0.005,-1.0417 -0.23694,-1.53726 -0.14231,-0.30369 -0.4814,-0.77104 -0.76573,-1.05538 -0.51642,-0.51641 -1.55199,-1.24408 -1.64217,-1.1539 -0.027,0.027 -0.0177,1.83776 0.0208,4.02392 0.0787,4.48351 0.002,4.14644 0.85107,3.75119 z"
         id="path1491"
         inkscape:connector-curvature="0" /><path
         style="fill:#ecefda;fill-opacity:1;stroke:none;stroke-width:0.133635"
         d="m 180.96829,142.00617 c -1.50566,-1.19649 -1.64888,-1.43451 -1.81585,-3.01781 -0.20482,-1.94227 -0.39263,-5.97534 -0.49161,-10.55714 -0.0659,-3.04846 -0.13064,-4.07948 -0.27035,-4.30301 -0.14851,-0.23762 -0.33063,-0.30167 -0.94998,-0.33409 l -0.76625,-0.0401 2.23346,-1.97971 c 2.06625,-1.83151 2.25324,-1.96585 2.49779,-1.79457 0.42758,0.29949 1.08748,1.18425 1.42479,1.91029 0.56371,1.21336 0.6254,2.30928 0.45849,8.14482 -0.16401,5.73376 -0.0897,7.40879 0.35499,8.00768 0.34308,0.46199 1.23696,1.01327 1.63633,1.00917 0.53701,-0.006 1.24465,-0.39789 2.31436,-1.28325 l 0.98957,-0.81904 0.0883,-3.12319 c 0.17336,-6.13113 0.0788,-9.53438 -0.27462,-9.88784 -0.0789,-0.0789 -0.45892,-0.18266 -0.84458,-0.23068 l -0.70121,-0.0873 2.09841,-1.77787 c 1.15412,-0.97783 2.17504,-1.80727 2.26871,-1.84322 0.23896,-0.0917 1.25071,1.04505 1.59631,1.79354 0.27945,0.60522 0.29122,0.83661 0.37524,7.37339 0.12084,9.40134 0.21764,9.81677 2.17146,9.31916 0.41201,-0.10494 0.74911,-0.1688 0.74911,-0.14193 0,0.0269 -0.15912,0.30326 -0.3536,0.61417 -0.38027,0.60791 -1.77313,2.01569 -3.02834,3.06077 -0.64145,0.53407 -0.82032,0.62246 -1.03124,0.50957 -0.14034,-0.0751 -0.79128,-0.64674 -1.44653,-1.27029 -0.99518,-0.94704 -1.27493,-1.30973 -1.69894,-2.20264 -0.27918,-0.5879 -0.52644,-1.06892 -0.54948,-1.06892 -0.023,0 -1.32211,1.04074 -2.88683,2.31277 -1.56472,1.27202 -2.91342,2.35509 -2.99712,2.40682 -0.0861,0.0532 -0.58607,-0.25074 -1.1508,-0.69952 z"
         id="path1508"
         inkscape:connector-curvature="0" /><path
         style="fill:#ecefda;fill-opacity:1;stroke:none;stroke-width:0.133635"
         d="m 198.93905,141.33014 c -0.93043,-0.9863 -1.75107,-2.46888 -2.14688,-3.87857 -0.54587,-1.94415 -0.64437,-3.05838 -0.73838,-8.35218 -0.0995,-5.60401 -0.12794,-5.82067 -0.81123,-6.1828 -0.20891,-0.11071 -0.57603,-0.1516 -0.97976,-0.10914 l -0.64567,0.0679 2.04883,-1.54439 c 1.12686,-0.84941 2.18028,-1.66584 2.34092,-1.81428 l 0.29208,-0.2699 0.38896,0.27696 c 0.67076,0.47762 1.34128,1.3157 1.83153,2.28921 0.38669,0.76786 0.53076,0.93877 0.79132,0.93877 0.43278,0 0.96111,-0.63195 1.86931,-2.23596 l 0.74898,-1.32281 0.65638,0.63267 c 0.96163,0.92689 1.45633,0.92081 2.81788,-0.0346 l 0.73499,-0.51576 0.0411,0.61151 c 0.0519,0.77245 -0.26305,1.73259 -0.77024,2.3479 -0.61291,0.74356 -2.06084,1.4225 -4.12099,1.93234 -0.99591,0.24646 -1.87557,0.51294 -1.95481,0.59218 -0.21877,0.21877 -0.19681,9.91307 0.0241,10.63949 0.33143,1.08987 1.71958,2.1442 3.03492,2.30507 l 0.66966,0.0819 -1.46644,1.26954 c -0.80654,0.69824 -1.92277,1.70551 -2.48051,2.23838 -0.55774,0.53287 -1.07764,0.96885 -1.15533,0.96885 -0.0777,0 -0.53702,-0.41952 -1.02072,-0.93228 z"
         id="path1510"
         inkscape:connector-curvature="0" /><path
         style="fill:#ecefda;fill-opacity:1;stroke:none;stroke-width:0.137684"
         d="m 210.40459,141.59587 c -1.4766,-1.40191 -2.7613,-1.90619 -4.00353,-1.5715 -0.34537,0.0931 -0.24811,-0.0484 0.70208,-1.02097 0.7766,-0.79489 1.39878,-1.28415 2.10257,-1.65338 0.95944,-0.50335 1.04125,-0.52127 2.03743,-0.44629 1.18169,0.089 2.04062,0.43205 2.75993,1.10248 0.27053,0.25213 0.51125,0.43396 0.53495,0.40408 0.0237,-0.0299 0.15001,-0.77212 0.28069,-1.64941 0.33558,-2.25288 0.24211,-4.12441 -0.26045,-5.21479 -0.44911,-0.97441 -0.9916,-1.38969 -1.69649,-1.29867 -0.26856,0.0347 -1.29086,0.44397 -2.27179,0.90955 -2.21256,1.05015 -2.68714,1.21566 -3.1658,1.10406 -0.42534,-0.0992 -1.22206,-0.91637 -1.53216,-1.57156 -0.33456,-0.70689 -0.64812,-2.1922 -0.67165,-3.18165 -0.0446,-1.87725 0.9285,-2.91413 5.65745,-6.02787 1.87583,-1.23512 3.59992,-2.26331 3.66344,-2.18474 0.0232,0.0287 0.11538,0.2014 0.2049,0.38385 0.33344,0.67957 1.09798,1.43295 1.54439,1.52185 0.59822,0.11913 0.93164,-0.0139 1.5706,-0.62666 0.50355,-0.48293 0.53287,-0.49372 0.44225,-0.16279 -0.42475,1.55102 -1.67404,3.10446 -3.09297,3.84597 -1.03466,0.54069 -1.49978,0.51884 -3.05332,-0.14343 -1.22318,-0.52145 -1.63477,-0.49414 -2.13899,0.14194 -0.40838,0.5152 -0.53742,1.13787 -0.54084,2.60973 -0.004,1.76428 0.61063,2.61864 1.96295,2.72824 0.61882,0.0501 0.84896,-0.0168 1.84302,-0.53594 1.65609,-0.86492 2.46075,-1.12839 3.44623,-1.12839 0.8096,0 0.89271,0.0308 1.29035,0.47836 0.85667,0.96422 1.41062,3.35642 1.41062,6.09171 0,2.61719 -0.3804,3.08609 -3.877,4.77913 -2.02324,0.97963 -3.43404,1.91267 -4.03124,2.66606 l -0.32208,0.40632 z"
         id="path1512"
         inkscape:connector-curvature="0" /><path
         sodipodi:nodetypes="cscszcczzsszczzszzsssszscc"
         inkscape:connector-curvature="0"
         id="path1158-1"
         d="m 150.60233,103.52512 c 0,0 -4.13706,3.28404 -6.71347,3.02637 -2.57641,-0.25767 -5.31903,-3.86503 -5.31903,-3.86503 0,0 -0.67163,3.66034 -9.059,6.18404 -7.7546,2.3333 -11.7993,4.26816 -11.74393,8.0831 0.0554,3.81495 2.60184,9.26658 10.41418,8.49358 8.25083,-1.74418 16.27987,-0.39158 15.62467,8.50306 -0.51283,9.56446 -9.10821,11.83381 -13.93468,8.32274 -4.82647,-3.51107 -7.17179,-9.20376 -11.51074,-9.14346 -4.33895,0.0603 -9.46077,3.31151 -10.37497,8.46488 -0.91422,5.15337 2.32355,10.06336 9.14209,12.62575 3.65684,1.37423 15.65149,2.35685 16.28956,-3.17791 0.63807,-5.53475 -8.06167,-4.12269 -8.06167,-4.12269 0,0 4.53143,1.38684 3.24129,4.12269 -1.29014,2.73585 -8.22747,3.69405 -12.38339,1.03067 -4.15593,-2.66338 -4.49321,-10.06944 -1.82842,-12.79753 2.93324,-3.00291 11.09991,1.05562 14.52587,3.66565 3.42596,2.61004 5.72065,3.10147 8.15392,3.15396 2.43327,0.0525 9.23444,-3.21225 11.81085,-7.42083 2.57641,-4.20859 2.16085,-12.19631 -1.82842,-15.03066 -3.98928,-2.83435 -6.64879,-1.80368 -10.63808,-0.34356 -3.98927,1.46012 -10.47185,0.0859 -11.05362,-5.49693 -0.58177,-5.58281 1.55388,-7.03705 3.82306,-7.64416 2.26918,-0.60711 5.8181,1.74656 9.72386,1.28834 5.44605,-0.63892 8.16096,-2.0997 9.82316,-3.90337 1.6622,-1.80369 1.87691,-4.0187 1.87691,-4.0187 z"
         style="display:inline;fill:#ecefda;fill-opacity:1;stroke:none;stroke-width:0.365352;stroke-linecap:butt;stroke-linejoin:miter;stroke-miterlimit:4;stroke-dasharray:none;stroke-opacity:1" /></g><g
       transform="matrix(1.9222312,0,0,1.9222312,-192.23176,-159.42863)"
       id="g1656"
       style="display:inline;fill:#ecefd9;fill-opacity:1"
       inkscape:label="pouvoir"><path
         transform="matrix(1.1502252,0,0,1.1502252,-22.662119,-25.572287)"
         inkscape:connector-curvature="0"
         id="path1587"
         d="m 122.83333,189.32071 c -0.0695,-2.62838 -0.18574,-8.22667 -0.25822,-12.44069 -0.0725,-4.214 -0.1945,-8.09281 -0.27113,-8.61955 l -0.13934,-0.95773 -1.02373,-0.10642 -1.02373,-0.10642 0.81091,-0.75856 c 0.44598,-0.4172 1.39634,-1.25331 2.1119,-1.85803 1.20663,-1.01973 1.32339,-1.07277 1.60952,-0.73125 0.62469,0.74562 1.06538,1.60062 1.74462,3.38477 l 0.69553,1.82693 1.68765,-1.44566 c 0.9282,-0.7951 2.33234,-2.0721 3.12031,-2.83777 l 1.43265,-1.39212 0.65428,0.62685 c 0.35986,0.34477 0.96021,1.24869 1.33411,2.00872 l 0.67984,1.38189 -0.0127,5.32424 c -0.0135,5.65535 -0.25897,8.04514 -0.93933,9.14599 -0.2315,0.3746 -1.15681,1.10449 -2.17309,1.71416 -0.97345,0.58399 -2.23697,1.52429 -2.80782,2.08957 l -1.03793,1.02778 -0.78009,-0.76174 c -0.42905,-0.41896 -0.84789,-0.76175 -0.93075,-0.76175 -0.0829,0 -0.15065,1.06024 -0.15065,2.35607 v 2.35608 l -2.10318,2.15673 -2.10318,2.15673 z m 8.71171,-8.44938 c 0.18248,-1.45877 -0.043,-8.26724 -0.34361,-10.37616 -0.32708,-2.29455 -0.56726,-2.87319 -1.19263,-2.87319 -0.65623,0 -1.28424,0.3144 -2.04458,1.02355 l -0.58527,0.54589 v 5.58464 5.58465 l 0.7981,0.65799 c 0.43896,0.36188 1.17219,0.8431 1.62941,1.06935 1.17693,0.58242 1.54582,0.32425 1.73858,-1.21672 z"
         style="display:inline;fill:#ecefd9;fill-opacity:1;stroke:none;stroke-width:0.212829" /><path
         transform="matrix(1.1502252,0,0,1.1502252,-22.662119,-25.572287)"
         inkscape:connector-curvature="0"
         id="path1589"
         d="m 140.74051,185.30626 c -1.42519,-1.49414 -2.52726,-3.64676 -3.03466,-5.92742 -0.28199,-1.26748 -0.33132,-2.30341 -0.24434,-5.12953 0.16542,-5.37428 0.41243,-5.81594 4.98601,-8.91524 1.42509,-0.9657 2.62152,-1.75571 2.65876,-1.75555 0.0373,1.6e-4 1.14002,1.02973 2.45064,2.28792 3.22913,3.09993 3.33685,3.34834 3.43371,7.91825 0.11003,5.19055 -0.27628,6.66939 -2.23458,8.55437 -1.32255,1.27303 -3.29402,2.50448 -6.68388,4.17498 -0.0672,0.0331 -0.66647,-0.51038 -1.33166,-1.20778 z m 5.78312,-8.21341 c 0.009,-4.5349 -0.13701,-5.83297 -0.75146,-6.66403 -0.50303,-0.68035 -4.18979,-3.23249 -4.66958,-3.23249 -0.5032,0 -0.31643,10.07058 0.21337,11.50466 0.51774,1.40147 1.49392,2.47351 3.31832,3.64416 l 1.60384,1.02914 0.13857,-1.11885 c 0.0762,-0.61536 0.14233,-2.93852 0.14694,-5.16259 z"
         style="display:inline;fill:#ecefd9;fill-opacity:1;stroke:none;stroke-width:0.212829" /><path
         transform="matrix(1.1502252,0,0,1.1502252,-22.662119,-25.572287)"
         inkscape:connector-curvature="0"
         id="path1591"
         d="m 155.1612,186.11698 c -0.59736,-0.47217 -1.22444,-1.07299 -1.39353,-1.33515 -0.37483,-0.58115 -0.69177,-4.80458 -0.89475,-11.92297 -0.0866,-3.03631 -0.23081,-5.11492 -0.36047,-5.19506 -0.11888,-0.0734 -0.49057,-0.19012 -0.826,-0.25924 -0.59711,-0.12304 -0.56519,-0.16497 1.52925,-2.00884 1.34988,-1.18839 2.2553,-1.83858 2.45411,-1.76229 0.52222,0.2004 1.54905,2.01902 1.79977,3.18755 0.16183,0.75427 0.18917,3.09077 0.0876,7.48758 -0.1604,6.94236 -0.0878,7.60577 0.91814,8.3971 0.89646,0.70514 1.74844,0.55644 3.20574,-0.55957 l 1.29086,-0.98853 0.14233,-1.93786 c 0.0783,-1.06582 0.11014,-4.07243 0.0707,-6.68134 -0.0778,-5.15895 -0.0738,-5.14306 -1.30939,-5.14979 -0.53902,-0.003 -0.37836,-0.19383 1.59621,-1.89661 2.48889,-2.14633 2.59454,-2.15892 3.57894,-0.42644 0.53161,0.9356 0.53219,0.94284 0.66244,8.38541 0.0975,5.57596 0.20561,7.66306 0.42961,8.30031 0.29745,0.84618 0.30588,0.85127 1.39604,0.84313 0.92517,-0.007 1.06842,0.043 0.91541,0.31924 -0.46659,0.84222 -3.61412,3.83911 -4.0321,3.83911 -0.45634,0 -2.84703,-2.49486 -3.34946,-3.4954 -0.29841,-0.59422 -0.57322,-1.11463 -0.6107,-1.15644 -0.0375,-0.0418 -1.34284,0.9529 -2.90079,2.21047 -1.55794,1.25756 -2.94092,2.37146 -3.07327,2.47532 -0.15527,0.12185 -0.6259,-0.11571 -1.32672,-0.66969 z"
         style="display:inline;fill:#ecefd9;fill-opacity:1;stroke:none;stroke-width:0.212829" /><path
         transform="matrix(1.1502252,0,0,1.1502252,-22.662119,-25.572287)"
         inkscape:connector-curvature="0"
         id="path1593"
         d="m 174.67787,185.11521 c -2.47235,-1.78315 -2.76214,-2.25743 -2.97896,-4.87532 -0.10023,-1.21068 -0.18649,-4.32767 -0.19159,-6.92666 -0.006,-3.13395 -0.0931,-4.90935 -0.25811,-5.27156 -0.17082,-0.3749 -0.53615,-0.62993 -1.16509,-0.81332 l -0.91626,-0.26716 1.76015,-1.89575 1.76013,-1.89575 0.87977,0.79482 c 0.48389,0.43716 1.18816,1.27538 1.56504,1.86271 l 0.68527,1.06789 -0.14437,5.89102 c -0.16715,6.82162 -0.25791,6.44568 2.01234,8.335 1.63231,1.35842 2.31626,1.65864 2.6716,1.17269 0.38012,-0.51984 0.55271,-4.09168 0.47127,-9.75291 -0.0685,-4.76223 -0.0986,-5.09088 -0.49396,-5.37968 -0.29884,-0.21832 -0.7003,-0.26788 -1.3834,-0.17072 l -0.96238,0.13686 1.73375,-1.72732 c 1.0026,-0.9989 1.91191,-1.72732 2.15623,-1.72732 1.04658,0 2.41011,2.19715 2.96336,4.77505 0.42258,1.969 0.25408,9.21599 -0.25368,10.91097 -0.47175,1.57471 -1.05215,2.14337 -3.54021,3.46856 -1.47096,0.78345 -2.55543,1.54006 -3.27936,2.2879 -0.59487,0.61454 -1.18527,1.11736 -1.31197,1.11736 -0.1267,0 -0.92752,-0.50282 -1.77957,-1.11736 z"
         style="display:inline;fill:#ecefd9;fill-opacity:1;stroke:none;stroke-width:0.212829" /><path
         transform="matrix(1.1502252,0,0,1.1502252,-22.662119,-25.572287)"
         inkscape:connector-curvature="0"
         id="path1595"
         d="m 189.81887,184.62888 c -1.30163,-1.40593 -2.20487,-3.00639 -2.81799,-4.99321 -0.31919,-1.03432 -0.38923,-1.96651 -0.383,-5.09675 0.012,-6.05606 0.31957,-6.64291 5.2137,-9.94889 l 2.44052,-1.64858 2.37055,2.28706 c 1.37657,1.32809 2.56723,2.67895 2.83965,3.22167 0.70237,1.39936 0.97922,4.49159 0.68685,7.6715 -0.33078,3.59751 -1.01043,4.92708 -3.42447,6.69915 -0.97278,0.71409 -5.26381,3.10442 -5.57293,3.10442 -0.084,0 -0.69276,-0.58337 -1.35288,-1.29637 z m 5.83541,-7.37641 c -5.9e-4,-3.34155 -0.093,-5.81257 -0.23636,-6.33164 -0.138,-0.49948 -0.56899,-1.16973 -1.04286,-1.62178 -0.98293,-0.93763 -4.00299,-2.84948 -4.19612,-2.65634 -0.25298,0.25297 -0.32242,7.43489 -0.0901,9.32205 0.27802,2.25885 0.94549,3.67533 2.2429,4.75983 0.92959,0.77703 2.85616,1.9976 3.16414,2.0046 0.0878,0.002 0.15909,-2.46252 0.15844,-5.47672 z"
         style="display:inline;fill:#ecefd9;fill-opacity:1;stroke:none;stroke-width:0.212829" /><path
         transform="matrix(1.1502252,0,0,1.1502252,-22.662119,-25.572287)"
         inkscape:connector-curvature="0"
         id="path1597"
         d="m 204.61521,185.2537 c -0.42066,-0.36935 -0.97468,-1.0637 -1.23116,-1.543 -0.45229,-0.84521 -0.46758,-1.09938 -0.50777,-8.43529 -0.0244,-4.45799 -0.12952,-7.79546 -0.25593,-8.12797 -0.17545,-0.46146 -0.36993,-0.57614 -1.06859,-0.63008 l -0.8541,-0.0659 1.60715,-1.75583 c 1.06671,-1.16541 1.76204,-1.75558 2.06776,-1.75505 0.76613,10e-4 1.79824,0.78031 2.31427,1.74669 0.48203,0.90273 0.48676,0.98563 0.42525,7.45943 -0.0787,8.27896 0.18621,10.02684 1.54554,10.19912 0.49618,0.0628 0.40941,0.19494 -1.19825,1.82363 -0.95324,0.9657 -1.81105,1.75583 -1.90625,1.75583 -0.0952,0 -0.51725,-0.30219 -0.93792,-0.67154 z"
         style="display:inline;fill:#ecefd9;fill-opacity:1;stroke:none;stroke-width:0.212829" /><path
         inkscape:connector-curvature="0"
         id="path1599"
         d="m 213.40269,154.20458 c -0.22101,-0.3373 -0.75475,-1.27038 -1.30877,-0.97605 -0.37784,0.25847 -0.1375,1.2827 0.0583,1.66971 0.65541,1.51808 0.99254,3.0051 1.06311,5.21821 0.9589,-1.32187 0.80435,-4.4808 0.18733,-5.91187 z"
         style="display:inline;fill:#ecefd9;fill-opacity:1;stroke:none;stroke-width:0.129171"
         sodipodi:nodetypes="cccccc" /><path
         transform="matrix(1.1502252,0,0,1.1502252,-22.662119,-25.572287)"
         inkscape:connector-curvature="0"
         id="path1601"
         d="m 213.7508,184.82356 c -0.39968,-0.42378 -0.99755,-1.30968 -1.3286,-1.96866 -1.08573,-2.16125 -1.34101,-3.85447 -1.48342,-9.83871 -0.1434,-6.02635 -0.45192,-6.15103 -1.45801,-6.15103 -1.00609,0 -0.50248,-0.18435 1.46135,-1.68233 1.96383,-1.49798 2.28019,-1.64239 2.58596,-1.47875 0.39813,0.21307 1.28253,1.37725 1.90018,2.50129 0.62967,1.14589 0.92569,0.91711 2.80979,-2.17145 l 0.3639,-0.59655 0.75881,0.66624 c 0.83957,0.73716 1.37245,0.7329 2.42893,-0.0194 0.76413,-0.54412 0.83144,-0.52505 0.83144,0.23546 0,1.82212 -1.5102,3.05227 -4.67516,3.80819 -0.9688,0.23139 -1.82164,0.48067 -1.89519,0.55393 -0.19495,0.19419 -0.2983,7.83819 -0.12794,9.46327 0.13043,1.24436 0.22779,1.46223 0.96881,2.16791 0.5351,0.50959 1.1373,0.84654 1.71831,0.96144 l 0.89451,0.17689 -1.90014,1.68455 c -1.04507,0.92651 -2.02527,1.85862 -2.17824,2.07139 -0.41477,0.57692 -0.867,0.47335 -1.67529,-0.38369 z"
         style="display:inline;fill:#ecefd9;fill-opacity:1;stroke:none;stroke-width:0.212829"
         sodipodi:nodetypes="ccczzccccccscccccccccc" /></g><g
       transform="matrix(1.3372293,0,0,1.3372293,-113.07977,-94.383867)"
       id="g1619"
       style="display:inline;fill:#edefda;fill-opacity:1"
       inkscape:label="de"><path
         style="fill:#edefda;fill-opacity:1;stroke:none;stroke-width:0.505076"
         d="m 309.52407,509.11039 c -7.26061,-6.9936 -9.09607,-10.39989 -10.13035,-18.80013 -0.62802,-5.10073 0.54611,-21.21861 1.86606,-25.61626 0.88974,-2.96434 2.85951,-4.92839 8.39428,-8.36989 l 3.33547,-2.07399 -1.36748,-3.06384 c -2.83027,-6.34124 -4.53263,-16.94101 -3.51295,-21.87341 0.89111,-4.3104 3.11386,-8.27528 6.87349,-12.26068 1.84248,-1.95313 3.43991,-3.46122 3.54982,-3.35131 0.10992,0.10992 -0.26575,1.8767 -0.83481,3.92618 -2.07434,7.47075 -1.84343,14.99625 0.61026,19.88877 1.54414,3.07893 4.90736,7.62231 9.16006,12.37437 4.68652,5.2368 6.53655,8.59972 8.26518,15.02414 1.20447,4.47639 1.32802,5.80292 1.35259,14.52282 0.046,16.31824 -1.84836,20.39 -12.68574,27.26723 -2.99995,1.90372 -6.40185,4.21823 -7.55977,5.14336 -1.15792,0.92513 -2.2454,1.68206 -2.41664,1.68206 -0.17123,0 -2.376,-1.98874 -4.89947,-4.41942 z m 16.01643,-24.73922 0.38499,-14.25889 -1.78289,-1.65102 c -2.21206,-2.04843 -10.16792,-7.03849 -11.37618,-7.13534 -0.83186,-0.0667 -0.90101,0.9599 -1.0257,15.22637 -0.0847,9.69502 0.055,15.65043 0.38148,16.2605 0.28336,0.52945 3.18458,3.25504 6.44716,6.05687 l 5.93197,5.09422 0.32709,-2.66691 c 0.1799,-1.4668 0.50033,-9.08341 0.71208,-16.9258 z"
         id="path1613"
         inkscape:connector-curvature="0"
         transform="matrix(0.26458333,0,0,0.26458333,0,87)" /><path
         style="fill:#edefda;fill-opacity:1;stroke:none;stroke-width:0.505076"
         d="m 354.35747,510.08286 c -8.82093,-7.27261 -11.42381,-13.66439 -11.41793,-28.03848 0.003,-8.36603 0.5244,-12.13356 2.1215,-15.34184 1.58471,-3.18339 5.84279,-7.36755 11.26795,-11.07234 2.49581,-1.70436 6.20803,-4.59694 8.24939,-6.42796 l 3.71155,-3.32912 1.69039,2.02325 c 4.70341,5.62962 7.52712,12.45337 7.19968,17.39866 -0.42901,6.47921 -6.88948,14.94898 -17.56241,23.02457 l -1.72643,1.30629 0.65755,2.93824 c 1.28701,5.75098 6.89601,9.45761 13.06887,8.63639 l 2.38123,-0.3168 -2.27285,2.05408 c -2.56228,2.31565 -13.10912,9.58879 -13.89871,9.58459 -0.28281,-0.002 -1.84421,-1.09929 -3.46978,-2.43953 z m 6.64495,-26.62919 c 1.02901,-0.42995 2.38309,-1.26288 3.00907,-1.85096 1.5849,-1.48893 3.10375,-5.8348 3.48939,-9.98413 0.29315,-3.15416 0.18897,-3.77873 -1.05402,-6.31931 -1.31423,-2.6862 -4.34093,-5.53916 -7.72661,-7.2831 l -1.13642,-0.58537 v 13.40229 c 0,14.88528 -0.20351,14.13399 3.41859,12.62058 z"
         id="path1615"
         inkscape:connector-curvature="0"
         transform="matrix(0.26458333,0,0,0.26458333,0,87)" /></g><g
       style="display:inline;fill:#f9dc35;fill-opacity:1"
       id="g3167"
       inkscape:label="ornements_pouvoir"
       transform="matrix(1.9222312,0,0,1.9222312,-167.16552,-51.534818)"><g
         id="g2"
         inkscape:label="fonce"
         style="fill:#e2d5dd;fill-opacity:1"><path
           sodipodi:nodetypes="ccccccccccc"
           inkscape:connector-curvature="0"
           id="path2946"
           d="m 102.0416,110.48935 4.90129,-3.91455 c 0,0 0.37729,1.57594 0.31047,6.25316 -0.0668,4.67721 -0.66818,10.15624 -0.66818,10.15624 0,0 0.80181,-1.87089 1.20272,-4.2095 0.4009,-2.3386 0.66817,-2.60587 0.66817,-2.60587 0,0 0,4.00904 -0.66817,9.88897 -0.66818,5.87993 -2.06509,15.48206 -2.06509,15.48206 0,0 -0.80806,-27.44237 -0.94169,-28.77872 -0.13364,-1.33635 -0.0835,-1.5368 -0.18375,-1.95441 -0.33409,-0.20045 -2.55577,-0.31738 -2.55577,-0.31738 z"
           style="fill:#e2d5dd;fill-opacity:1;stroke:none;stroke-width:0.264583px;stroke-linecap:butt;stroke-linejoin:miter;stroke-opacity:1" /><path
           sodipodi:nodetypes="cssccccczc"
           inkscape:connector-curvature="0"
           id="path2956"
           d="m 125.48202,110.36581 c -0.0664,-0.01 -3.32358,1.82236 -3.23035,6.41581 0.0911,4.48691 -0.22097,7.79576 0.68508,9.68564 0.9045,1.88663 1.13394,2.78757 2.40961,4.15774 1.27567,1.37016 1.46465,1.55915 1.88987,1.93712 0.42523,0.37798 0.37798,0.28349 0.37798,0.28349 -3.29274,-7.93194 -2.53693,-11.46682 -2.43147,-13.11056 -0.65032,0.96979 -0.67593,1.91391 -1.30581,4.14963 -0.20921,-0.82785 -0.21907,-6.34987 -0.0425,-8.16612 0.17657,-1.81625 1.39177,-5.00178 1.64759,-5.35275 z"
           style="fill:#e2d5dd;fill-opacity:1;stroke:none;stroke-width:0.264583px;stroke-linecap:butt;stroke-linejoin:miter;stroke-opacity:1" /><path
           sodipodi:nodetypes="cccczcsszzcc"
           inkscape:connector-curvature="0"
           id="path2964"
           d="m 142.92238,106.56669 c 0,0 0.20045,1.80407 -0.0668,6.61492 -0.26727,4.81085 -1.13589,9.88897 -1.13589,9.88897 1.09471,-1.84431 1.23048,-2.59228 2.08615,-4.60426 0,0 -0.57715,5.87956 -1.49904,9.61303 -0.92189,3.73346 1.29489,4.95038 1.29489,4.95038 0,0 -2.14098,-1.4056 -2.66795,-2.35713 -0.47621,-0.85988 -0.89051,-10.71745 -1.00649,-15.68822 -0.034,-1.45524 -0.2075,-3.46843 -0.26339,-3.75228 -0.0559,-0.28385 -1.33167,-0.28288 -1.45377,-0.60542 -0.1221,-0.32253 4.24459,-3.99317 4.71231,-4.05999 z"
           style="fill:#e2d5dd;fill-opacity:1;stroke:none;stroke-width:0.264583px;stroke-linecap:butt;stroke-linejoin:miter;stroke-opacity:1" /><path
           sodipodi:nodetypes="cssccccsczcc"
           inkscape:connector-curvature="0"
           id="path2956-9"
           d="m 181.95909,109.62824 c -0.0664,-0.01 -3.2409,1.89323 -3.14767,6.48668 0.0911,4.48691 -0.22097,7.79576 0.68508,9.68564 0.9045,1.88663 1.13394,2.78757 2.40961,4.15774 1.27567,1.37016 1.46465,1.55915 1.88987,1.93712 0.42523,0.37798 0.37798,0.28349 0.37798,0.28349 -3.29274,-7.93194 -2.19726,-11.80639 -2.98449,-13.07631 -0.0897,1.03283 -0.18762,1.6403 -0.26897,2.24756 -0.0759,0.56639 -0.14362,0.91217 -0.48382,1.86782 -0.20921,-0.82785 -0.52646,-5.99975 -0.0425,-8.16612 0.48398,-2.16637 1.56489,-5.42362 1.56489,-5.42362 z"
           style="display:inline;fill:#e2d5dd;fill-opacity:1;stroke:none;stroke-width:0.264583px;stroke-linecap:butt;stroke-linejoin:miter;stroke-opacity:1" /><path
           inkscape:connector-curvature="0"
           id="path2958-3"
           d="m 182.91142,109.87563 c 0,0 -0.90204,5.14493 -1.33635,6.88219 -0.43431,1.73725 -0.46772,1.73725 -0.46772,1.73725 0,0 1.30294,-2.6727 1.46998,-3.20724 0.16704,-0.53454 0.16704,-1.13589 0.16704,-1.13589 0,0 -0.13363,-2.80633 0.16705,-4.27631 z"
           style="display:inline;fill:#e2d5dd;fill-opacity:1;stroke:none;stroke-width:0.264583px;stroke-linecap:butt;stroke-linejoin:miter;stroke-opacity:1" /><path
           inkscape:connector-curvature="0"
           id="path2960-9"
           d="m 183.24551,123.17228 c 0,0 0.0668,3.57473 0.73499,5.51244 0.66817,1.9377 0.80181,2.10475 0.80181,2.10475 0,0 -0.20046,-1.10249 -0.13364,-2.40543 0.0668,-1.30294 0.30068,-1.87089 0.30068,-1.87089 0,0 0.60135,1.16931 0.63476,2.33861 0.0334,1.16931 0.0334,1.16931 0.0334,1.16931 0,0 1.63703,-0.33409 2.3052,-0.86863 0.66818,-0.53454 0.96885,-0.63477 0.96885,-0.63477 0,0 -3.27405,-2.07133 -4.04245,-2.83973 -0.7684,-0.7684 -1.60361,-2.50566 -1.60361,-2.50566 z"
           style="display:inline;fill:#e2d5dd;fill-opacity:1;stroke:none;stroke-width:0.264583px;stroke-linecap:butt;stroke-linejoin:miter;stroke-opacity:1" /><path
           sodipodi:nodetypes="czcccczccccccczc"
           inkscape:connector-curvature="0"
           id="path2994"
           d="m 167.13951,132.47931 c -0.26727,0 -2.98017,-4.27169 -3.063,-6.48485 -0.0828,-2.21317 0.56152,-8.13563 0.62834,-9.67243 0.0668,-1.5368 0.0668,-2.00452 0.0668,-2.00452 0,0 -0.27873,1.90667 -0.9469,3.44347 -0.66818,1.5368 -0.9908,1.76828 -0.9908,1.76828 0,0 0.24865,-3.93535 0.53454,-6.21401 0.28589,-2.27866 -0.60136,-7.34991 -0.60136,-7.34991 l -4.00069,4.36818 c 0,0 1.39481,0.35079 1.75396,0.5763 0.35914,0.22551 0.68487,0.42596 0.7684,1.3447 0.0835,0.91874 0.15869,5.88828 0.15869,5.88828 0,0 0.11693,6.31425 0.16704,7.01583 0.0501,0.70158 0.16705,2.71445 0.7684,3.58308 0.7684,1.27789 3.05113,2.70876 3.66661,3.13206 0.61548,0.4233 0.9761,0.61494 1.08997,0.60554 z"
           style="fill:#e2d5dd;fill-opacity:1;stroke:none;stroke-width:0.264583px;stroke-linecap:butt;stroke-linejoin:miter;stroke-opacity:1" /><path
           inkscape:connector-curvature="0"
           id="path3000"
           d="m 199.33295,105.74818 c 0,0 -0.30067,1.83748 -0.60135,4.64381 -0.30068,2.80633 -0.23386,8.18513 -0.23386,8.18513 0,0 0.63476,-3.24064 1.00226,-3.94222 0.36749,-0.70159 0.63476,-1.00227 0.63476,-1.00227 0,0 -0.66817,10.3567 -0.26727,12.89576 0.40091,2.53906 0.83522,5.51243 0.83522,5.51243 0,0 -0.20045,0.43432 -1.33635,-0.80181 -1.13589,-1.23612 -1.83748,-1.73725 -1.87088,-4.94448 -0.0334,-3.20724 -0.16705,-13.16303 -0.16705,-13.16303 0,0 -0.0501,-2.60587 -0.25056,-2.88985 -0.20045,-0.28397 -0.60136,-0.4009 -1.08579,-0.45102 -0.48442,-0.0501 -1.05237,-0.0501 -1.05237,-0.0501 0,0 2.18827,-2.42213 2.42213,-2.7061 0.23386,-0.28398 1.31964,-1.20271 1.50339,-1.28624 0.18375,-0.0835 0.46772,0 0.46772,0 z"
           style="fill:#e2d5dd;fill-opacity:1;stroke:none;stroke-width:0.264583px;stroke-linecap:butt;stroke-linejoin:miter;stroke-opacity:1" /><path
           sodipodi:nodetypes="cccscccccscsczc"
           inkscape:connector-curvature="0"
           id="path3004"
           d="m 209.54055,106.57626 c 0,0 -1.32292,5.00819 -1.37016,6.52009 -0.0472,1.51191 0.0472,6.23661 0.0472,6.23661 0,0 0.94494,-2.03162 1.13393,-3.16555 0.18899,-1.13393 0.18899,-1.51191 0.18899,-1.51191 0,0 0.23623,2.45685 0.14174,4.86645 -0.0945,2.40959 -0.47247,7.55952 -0.23623,8.78794 0.23623,1.22843 1.32291,3.26005 1.32291,3.26005 0,0 -2.22061,-1.84264 -2.92931,-4.58296 -0.70871,-2.74033 -0.8032,-4.44122 -0.94494,-7.27604 -0.14174,-2.83483 -0.15869,-7.33999 -0.53667,-8.42667 -0.2922,-1.12026 -0.54017,-0.94341 -1.46902,-1.07395 -0.10076,-0.0142 -0.31562,-0.008 -0.34427,-0.10083 -0.0886,-0.23034 1.53525,-1.27282 2.44464,-2.01411 0.90939,-0.74129 1.17013,-1.09827 2.55119,-1.51912 z"
           style="fill:#e2d5dd;fill-opacity:1;stroke:none;stroke-width:0.264583px;stroke-linecap:butt;stroke-linejoin:miter;stroke-opacity:1" /></g><g
         id="g1"
         inkscape:label="clair"
         style="display:none;fill:#d7d7d7;fill-opacity:1"><path
           sodipodi:nodetypes="cccccc"
           inkscape:connector-curvature="0"
           id="path2948"
           d="m 110.60528,112.81287 c 0,0 -0.2052,5.26399 -0.77216,9.27999 -0.56697,4.016 -1.82167,9.79078 -1.82167,9.79078 1.20345,-2.19895 1.95232,-5.19573 2.64108,-6.36132 0,0 0.14174,-11.10305 -0.0473,-12.70945 z"
           style="fill:#d7d7d7;fill-opacity:1;stroke:none;stroke-width:0.264583px;stroke-linecap:butt;stroke-linejoin:miter;stroke-opacity:1" /><path
           sodipodi:nodetypes="cscccscccscczc"
           inkscape:connector-curvature="0"
           id="path2950"
           d="m 117.59784,106.10379 c 0,0 -0.85045,5.95313 -1.13393,7.37054 -0.28348,1.41741 -0.37797,2.12611 -0.37797,2.12611 0,0 0.99218,-0.94494 1.74814,-2.97656 0.75595,-2.03162 0.8032,-2.95294 0.8032,-2.95294 0,0 0,5.81139 -0.70871,10.15812 -0.70871,4.34672 -1.65364,7.67763 -1.65364,7.67763 0,0 1.25204,-1.08667 2.14974,-3.1183 0.89769,-2.03162 1.27567,-3.5199 1.27567,-3.5199 0,0 -0.42523,3.35454 -0.70871,4.91369 -0.28348,1.55915 -0.8464,2.81119 -0.8464,2.81119 0,0 1.58614,-0.8371 1.93308,-2.59858 0.73233,-3.42541 0.63784,-13.867 0.59059,-15.02455 -0.0472,-1.15755 -1.18118,-3.26005 -3.07106,-4.86645 z"
           style="fill:#d7d7d7;fill-opacity:1;stroke:none;stroke-width:0.264583px;stroke-linecap:butt;stroke-linejoin:miter;stroke-opacity:1" /><path
           inkscape:connector-curvature="0"
           id="path2958"
           d="m 126.35167,110.54233 c 0,0 -0.90204,5.14493 -1.33635,6.88219 -0.43431,1.73725 -0.46772,1.73725 -0.46772,1.73725 0,0 1.30294,-2.6727 1.46998,-3.20724 0.16704,-0.53454 0.16704,-1.13589 0.16704,-1.13589 0,0 -0.13363,-2.80633 0.16705,-4.27631 z"
           style="fill:#d7d7d7;fill-opacity:1;stroke:none;stroke-width:0.264583px;stroke-linecap:butt;stroke-linejoin:miter;stroke-opacity:1" /><path
           inkscape:connector-curvature="0"
           id="path2960"
           d="m 126.68576,123.83898 c 0,0 0.0668,3.57473 0.73499,5.51244 0.66817,1.9377 0.80181,2.10475 0.80181,2.10475 0,0 -0.20046,-1.10249 -0.13364,-2.40543 0.0668,-1.30294 0.30068,-1.87089 0.30068,-1.87089 0,0 0.60135,1.16931 0.63476,2.33861 0.0334,1.16931 0.0334,1.16931 0.0334,1.16931 0,0 1.63703,-0.33409 2.3052,-0.86863 0.66818,-0.53454 0.96885,-0.63477 0.96885,-0.63477 0,0 -3.27405,-2.07133 -4.04245,-2.83973 -0.7684,-0.7684 -1.60361,-2.50566 -1.60361,-2.50566 z"
           style="fill:#d7d7d7;fill-opacity:1;stroke:none;stroke-width:0.264583px;stroke-linecap:butt;stroke-linejoin:miter;stroke-opacity:1" /><path
           sodipodi:nodetypes="cscccccccccczc"
           inkscape:connector-curvature="0"
           id="path2962"
           d="m 131.15774,106.48177 c 0,0 1.41741,2.59858 1.70089,4.7247 0.28348,2.12612 0.23624,4.15774 0.23624,4.15774 0,0 0.75595,-0.47247 0.99218,-1.98438 0.23624,-1.5119 0.51972,-2.36235 0.51972,-2.36235 0,0 0.8032,3.16555 0.28348,8.31548 -0.51971,5.14992 -1.13393,6.89806 -1.13393,6.89806 0,0 2.36236,-4.7247 2.64584,-6.18935 0.28348,-1.46466 0.51971,-2.22062 0.51971,-2.22062 0,0 -0.7087,7.2288 -1.08668,8.36273 -0.37797,1.13393 -1.88988,2.97656 -1.88988,2.97656 0,0 3.49628,-1.88988 3.77976,-6.09487 0.28349,-4.20498 0.20553,-8.56544 -0.4134,-10.06361 -0.61894,-1.49817 -4.19542,-4.85728 -6.15393,-6.52009 z"
           style="fill:#d7d7d7;fill-opacity:1;stroke:none;stroke-width:0.264583px;stroke-linecap:butt;stroke-linejoin:miter;stroke-opacity:1" /><path
           sodipodi:nodetypes="cccszc"
           inkscape:connector-curvature="0"
           id="path2966"
           d="m 144.41053,107.98777 c 0,0 0.0709,2.88797 -0.21262,5.67555 -0.28348,2.78757 -0.61421,3.82701 -0.61421,3.82701 0,0 1.41742,-5.00819 1.65365,-5.81139 0.23623,-0.8032 0.0798,-1.58154 -0.0945,-2.07887 -0.17434,-0.49733 -0.47296,-1.18358 -0.73232,-1.6123 z"
           style="fill:#d7d7d7;fill-opacity:1;stroke:none;stroke-width:0.264583px;stroke-linecap:butt;stroke-linejoin:miter;stroke-opacity:1" /><path
           sodipodi:nodetypes="cccscccccscccscsccc"
           inkscape:connector-curvature="0"
           id="path2968"
           d="m 155.15922,106.8125 c 0,0 0.28349,3.49628 -0.28348,5.90587 -0.56696,2.40961 -1.27567,4.9137 -1.27567,4.9137 0,0 1.18118,-1.13393 1.51191,-2.07887 0.33073,-0.94494 0.75595,-2.03162 0.75595,-2.03162 0,0 0.11811,5.33891 -0.82682,8.5517 -0.94495,3.2128 -2.17337,5.48066 -2.17337,5.48066 0,0 1.53553,-0.42522 2.24424,-1.32292 0.7087,-0.89769 1.03943,-1.37016 1.03943,-1.37016 0,0 -0.28347,2.48047 -0.61421,3.63802 -0.33092,1.15822 -1.27567,2.26786 -1.27567,2.26786 0,0 3.49628,-0.56697 4.48847,-1.22842 0.99219,-0.66146 1.51149,-1.05553 1.51149,-1.05553 0,0 0.0835,-0.16704 -0.65147,-0.16704 -0.73499,0 -1.35305,0.11693 -1.63703,-0.15034 -0.28397,-0.26727 -0.58465,-1.13589 -0.70158,-3.74177 -0.11693,-2.60588 -0.26727,-11.1251 -0.26727,-11.1251 0,0 -0.0167,-4.09256 -0.48442,-4.89437 -0.46773,-0.80181 -0.78328,-1.31246 -1.3605,-1.59167 z"
           style="fill:#d7d7d7;fill-opacity:1;stroke:none;stroke-width:0.264583px;stroke-linecap:butt;stroke-linejoin:miter;stroke-opacity:1" /><path
           sodipodi:nodetypes="cscccccccccczc"
           inkscape:connector-curvature="0"
           id="path2962-4"
           d="m 187.71749,105.81507 c 0,0 1.41741,2.59858 1.70089,4.7247 0.28348,2.12612 0.23624,4.15774 0.23624,4.15774 0,0 0.75595,-0.47247 0.99218,-1.98438 0.23624,-1.5119 0.51972,-2.36235 0.51972,-2.36235 0,0 0.8032,3.16555 0.28348,8.31548 -0.51971,5.14992 -1.13393,6.89806 -1.13393,6.89806 0,0 2.36236,-4.7247 2.64584,-6.18935 0.28348,-1.46466 0.51971,-2.22062 0.51971,-2.22062 0,0 -0.7087,7.2288 -1.08668,8.36273 -0.37797,1.13393 -1.88988,2.97656 -1.88988,2.97656 0,0 3.49628,-1.88988 3.77976,-6.09487 0.28349,-4.20498 0.20553,-8.56544 -0.4134,-10.06361 -0.61894,-1.49817 -4.19542,-4.85728 -6.15393,-6.52009 z"
           style="display:inline;fill:#d7d7d7;fill-opacity:1;stroke:none;stroke-width:0.264583px;stroke-linecap:butt;stroke-linejoin:miter;stroke-opacity:1" /><path
           inkscape:connector-curvature="0"
           id="path2996"
           d="m 173.30208,106.52902 c 0,0 1.37016,3.07105 0.99219,4.86644 -0.37798,1.79539 -1.27567,4.91369 -1.27567,4.91369 0,0 1.37016,-0.99219 1.88988,-2.22061 0.51972,-1.22842 0.75595,-1.5119 0.75595,-1.5119 0,0 0.47247,2.69307 -0.37797,5.71688 -0.85045,3.02381 -1.93713,4.96094 -1.93713,4.96094 0,0 2.07887,-1.27567 2.36235,-2.07887 0.28348,-0.80319 0.33073,-1.22842 0.33073,-1.22842 0,0 -0.14174,2.4096 -0.85045,4.53571 -0.7087,2.12612 -3.49628,4.53572 -3.49628,4.53572 0,0 2.33873,-1.08668 3.18918,-1.93713 0.85044,-0.85045 1.77176,-1.32292 1.93713,-4.74832 0.16536,-3.42541 0.37797,-7.29967 0.16536,-8.7407 -0.21261,-1.44104 -1.18118,-6.59096 -3.68527,-7.06343 z"
           style="fill:#d7d7d7;fill-opacity:1;stroke:none;stroke-width:0.264583px;stroke-linecap:butt;stroke-linejoin:miter;stroke-opacity:1" /><path
           sodipodi:nodetypes="czccc"
           inkscape:connector-curvature="0"
           id="path2998"
           d="m 164.90688,108.10589 c 0,0.18899 0.23915,1.68251 0.13874,2.76985 -0.1004,1.08734 -0.9095,2.97657 -0.9095,2.97657 0,0 1.61821,-1.75995 2.25605,-3.6144 -0.77094,-1.40019 -0.58864,-1.02085 -1.48529,-2.13202 z"
           style="fill:#d7d7d7;fill-opacity:1;stroke:none;stroke-width:0.264583px;stroke-linecap:butt;stroke-linejoin:miter;stroke-opacity:1" /><path
           inkscape:connector-curvature="0"
           id="path3002"
           d="m 200.71941,106.36624 c 0,0 -0.26727,3.14042 -0.53454,4.17609 -0.26726,1.03566 -0.63476,2.10474 -0.63476,2.10474 0,0 1.26953,-1.63702 1.50339,-2.3052 0.23386,-0.66817 0.26727,-1.20271 0.26727,-1.20271 0,0 0.30068,6.68174 0,9.05376 -0.30068,2.37201 -0.93544,6.41446 -0.93544,6.41446 0,0 0.83521,-1.63702 1.03567,-2.3052 0.20045,-0.66817 0.23386,-1.13589 0.23386,-1.13589 0,0 -0.33409,4.10927 0.33408,5.17835 0.66818,1.06907 1.40317,1.40316 1.40317,1.40316 0,0 -0.64332,-1.02068 -0.78506,-2.3436 -0.14174,-1.32292 -0.24805,-6.85082 -0.23624,-8.02018 0.0118,-1.16936 0.0472,-4.25223 0.0472,-4.25223 0,0 0.10631,-4.05144 -0.18899,-4.76014 -0.29529,-0.70871 -1.10581,-1.84927 -1.50966,-2.00541 z"
           style="fill:#d7d7d7;fill-opacity:1;stroke:none;stroke-width:0.264583px;stroke-linecap:butt;stroke-linejoin:miter;stroke-opacity:1" /><path
           sodipodi:nodetypes="cccsczcc"
           inkscape:connector-curvature="0"
           id="path3006"
           d="m 215.6177,106.27211 c 0,0 0.49019,0.96561 -0.0768,2.47752 -0.56696,1.5119 -1.32292,2.07887 -1.32292,2.07887 0,0 2.92932,-1.13393 4.1105,-2.17337 1.18117,-1.03943 1.73633,-2.07296 1.73633,-2.07296 -0.11369,0 -0.30076,0.0767 -0.58582,0.29082 -0.28506,0.21406 -1.37231,0.86631 -1.80935,0.78363 -0.43703,-0.0827 -1.05977,-0.46319 -2.05196,-1.38451 z"
           style="fill:#d7d7d7;fill-opacity:1;stroke:none;stroke-width:0.264583px;stroke-linecap:butt;stroke-linejoin:miter;stroke-opacity:1" /><path
           sodipodi:nodetypes="cscccccccc"
           inkscape:connector-curvature="0"
           id="path3008"
           d="m 212.60456,112.68884 c 0,0 -0.45937,4.26795 -1.06073,7.30815 -0.60136,3.04019 -1.20271,4.87766 -1.20271,4.87766 0,0 0.63476,-0.86862 0.96885,-1.50339 0.33409,-0.63476 0.46772,-1.23612 0.46772,-1.23612 0,0 0,3.14042 0.56795,3.97564 0.56795,0.83521 4.30972,0.86862 4.30972,0.86862 0,0 -1.78771,-0.13416 -2.80352,-1.07911 -1.01581,-0.94494 -1.3111,-1.48828 -1.38198,-3.36634 -0.0709,-1.87808 0.1347,-9.84511 0.1347,-9.84511 z"
           style="fill:#d7d7d7;fill-opacity:1;stroke:none;stroke-width:0.264583px;stroke-linecap:butt;stroke-linejoin:miter;stroke-opacity:1" /></g></g><g
       id="g23881-5-2-1"
       style="display:inline"
       transform="matrix(-0.34493835,4.0062504,-4.0062504,-0.34493835,1088.0164,-844.08567)"
       inkscape:label="fleur_02"><g
         id="g4"
         style="fill:#e3b6cb;fill-opacity:1"><path
           style="display:inline;fill:#e3b6cb;fill-opacity:1;stroke-width:0.0856684"
           d="m 262.1786,194.15842 c 0,0 0.41909,-0.0828 0.56292,-0.19352 0.14382,-0.11074 0.36321,-0.14799 0.53499,-0.18214 0.17176,-0.0342 0.63431,-0.33012 0.55255,-0.93857 -0.0818,-0.60845 -0.16871,-1.2376 -0.58055,-1.33693 -0.41185,-0.0993 -0.58259,-0.0786 -0.74091,-0.0434 -0.15837,0.035 -0.16868,-0.006 -0.47705,-0.13141 -0.30837,-0.1252 -0.58569,-0.0383 -0.63019,0.10037 -0.0445,0.13866 -0.10654,0.59398 -0.061,1.05755 0.0455,0.46359 0.058,0.65399 -0.031,0.75541 -0.089,0.10139 -0.0735,0.25144 -0.19144,-0.0621 -0.11796,-0.31355 -0.13456,-0.71401 -0.4874,-0.96442 -0.35288,-0.25041 -0.45015,-0.30525 -0.62812,-0.27834 -0.17798,0.0269 -0.22559,-0.058 -0.36011,-0.0683 -0.13452,-0.0103 -0.22662,0.13143 -0.34355,0.24421 -0.11694,0.11279 -0.65295,0.0445 -0.86818,0.20388 -0.21523,0.15937 -0.49254,0.4222 -0.41493,0.73264 0.0776,0.31044 0.13246,0.30112 0.089,0.51429 -0.0435,0.21317 -0.0611,0.35388 0.13455,0.53808 0.19555,0.18421 1.12896,0.27627 1.38145,0.33627 0.25249,0.06 0.53602,0.15624 0.4967,0.22765 -0.0394,0.0714 -0.27939,0.11384 -0.58361,0.11075 -0.30423,-0.003 -0.6157,-0.088 -0.87751,-0.0269 -0.26179,0.0611 -0.84851,0.21216 -0.93336,0.3477 -0.0849,0.13557 0.008,0.42014 -0.0341,0.61985 -0.0424,0.19972 -0.18314,0.53395 -0.0848,0.75126 0.0983,0.2173 0.37358,0.5091 0.63745,0.59706 0.26387,0.088 0.47911,0.10449 0.62915,0.26489 0.15001,0.16043 0.35392,0.32491 0.61467,0.2773 0.26076,-0.0477 0.74297,-0.42324 0.99235,-0.93857 0.24936,-0.51533 0.44699,-1.32557 0.44699,-1.32557 0,0 -0.34457,0.52153 -0.54532,0.66847 -0.20073,0.14697 -0.39838,0.16559 -0.36838,0.1273 0.03,-0.0382 0.17177,-0.47394 0.18832,-0.51327 0.0165,-0.0393 -0.14797,0.2525 -0.31871,0.36116 -0.17075,0.10865 -0.48634,0.16558 -0.32699,-0.059 0.15935,-0.22455 0.40873,-0.47601 0.40873,-0.47601 0,0 -0.20178,0.16041 -0.66847,0.2463 -0.46668,0.0859 -0.90441,0.059 -0.64468,-0.15105 0.25972,-0.21009 0.68502,-0.37358 1.21069,-0.43465 0.52568,-0.061 0.90958,-0.12627 0.8537,-0.19144 -0.0559,-0.0652 -0.16247,-0.43875 -0.57018,-0.59189 -0.40771,-0.15313 -0.87233,-0.35801 -0.91372,-0.34767 -0.0414,0.0102 0.23903,-0.11693 0.59294,-0.0559 0.35388,0.0611 0.51946,0.19556 0.54325,0.15003 0.0238,-0.0455 -0.26181,-0.81851 -0.36218,-0.92095 -0.10034,-0.10248 -0.10034,-0.10248 -0.10034,-0.10248 0,0 0.73263,0.32698 0.85681,0.5598 0.12417,0.23283 0.32702,1.0265 0.32702,1.0265 0,0 0.19869,-0.12004 0.34044,-0.46773 0.14175,-0.3477 0.53391,-1.66396 0.53391,-1.66396 0,0 0.2587,0.50704 0.24112,0.73573 -0.0176,0.22869 -0.0455,0.32804 -0.0455,0.32804 0,0 0.29699,-0.16662 0.46049,-0.35701 0.16349,-0.19041 0.30836,-0.40254 0.30836,-0.40254 0,0 -0.0745,0.52878 -0.20487,0.7285 -0.13038,0.19972 -0.54118,0.61468 -0.54118,0.61468 z"
           id="path4065-2-4-3-2"
           inkscape:connector-curvature="0" /><path
           style="display:inline;fill:#e3b6cb;fill-opacity:1;stroke-width:0.0856684"
           d="m 262.68741,195.01018 c 0,0 1.02729,-0.29416 1.58487,0.0453 0.55756,0.3395 0.9922,0.78437 0.92343,1.18096 -0.0686,0.39661 -0.33218,0.46244 -0.43462,0.55026 -0.10244,0.0878 -0.32926,0.17561 -0.38487,0.40097 -0.0556,0.22537 -0.24731,0.35416 -0.47853,0.25027 -0.23122,-0.10391 -0.5883,-0.81073 -1.00685,-1.21608 -0.41857,-0.40533 -0.96441,-0.77266 -0.96441,-0.77266 0,0 0.64829,0.0307 1.21318,0.27509 0.56488,0.24438 1.03027,0.1652 0.8239,-0.0132 -0.20632,-0.17855 -0.79026,-0.67316 -1.27611,-0.70095 z"
           id="path4931-0-0-5-0"
           inkscape:connector-curvature="0" /><path
           style="display:inline;fill:#e3b6cb;fill-opacity:1;stroke-width:0.0856684"
           d="m 261.68352,195.8707 c 0,0 0.69806,0.37901 1.15172,0.94972 0.45367,0.57073 0.56052,0.9234 0.41126,1.24683 -0.14926,0.32341 -0.25023,0.51658 -0.4551,0.5678 -0.20488,0.0512 -0.2883,0.0161 -0.39951,0.21806 -0.11121,0.20195 -0.50781,0.38196 -0.70829,0.25173 -0.2005,-0.13023 -0.4039,-0.22243 -0.73903,-0.34389 -0.33512,-0.12145 -0.75513,-0.50778 -0.63662,-0.80484 0.11853,-0.29708 0.50779,-0.50635 0.61314,-1.00538 0.10537,-0.49902 0.16387,-0.88683 0.16387,-0.88683 0,0 0.31027,0.81803 0.26637,1.0156 -0.0439,0.19757 -0.21949,0.49025 -0.21949,0.49025 0,0 0.42438,-0.29269 0.46973,-0.50928 0.0454,-0.21659 0.0351,-0.58098 0.0351,-0.58098 0,0 0.41855,0.52976 0.43612,0.79902 0.0176,0.26925 0.0366,0.39511 0.0366,0.39511 0,0 0.20047,-0.61609 0.0117,-1.02292 -0.18879,-0.40682 -0.43758,-0.77999 -0.43758,-0.77999 z"
           id="path4933-5-7-4-9"
           inkscape:connector-curvature="0" /><path
           style="display:inline;fill:#e3b6cb;fill-opacity:1;stroke:none;stroke-width:0.0496286;stroke-dasharray:none;stroke-opacity:1"
           d="m 260.95205,194.13776 c 0,0 -0.17208,-0.705 -0.50368,-0.962 -0.33161,-0.25699 -1.33471,-0.22383 -1.33471,-0.22383 0,0 0.81243,0.12435 1.16891,0.37306 0.35647,0.2487 0.61974,0.63868 0.66948,0.81277 z"
           id="path23330-7-8-6-2"
           sodipodi:nodetypes="cscsc"
           inkscape:connector-curvature="0" /></g><g
         id="g3"
         style="fill:#c76087;fill-opacity:1"><path
           style="display:inline;fill:#c76087;fill-opacity:1;stroke:none;stroke-width:0.0496286;stroke-dasharray:none;stroke-opacity:1"
           d="m 262.22932,194.1344 c 0,0 1.30985,-0.28186 1.50881,-0.71295 0.19896,-0.43108 0.14922,-0.88704 0.0663,-1.20207 -0.0829,-0.31502 -0.30674,-0.56372 -0.30674,-0.56372 0,0 0.0746,0.88704 -0.0912,1.3347 -0.1658,0.44767 -0.29844,0.66321 -1.1772,1.14404 z"
           id="path23255-4-1-1-5"
           sodipodi:nodetypes="csscssc"
           inkscape:connector-curvature="0" /><path
           style="display:inline;fill:#c76087;fill-opacity:1;stroke:none;stroke-width:0.0496286;stroke-dasharray:none;stroke-opacity:1"
           d="m 261.10187,194.64839 c 0,0 0.21554,-0.86217 0.0829,-1.343 -0.13265,-0.48083 -0.21555,-0.86218 -0.58031,-1.14404 -0.36477,-0.28186 -0.94508,-0.28186 -0.94508,-0.28186 0,0 0.93679,1.12746 1.08601,1.62487 0.14922,0.4974 0.35648,1.14403 0.35648,1.14403 z"
           id="path23326-5-2-3-9"
           sodipodi:nodetypes="csscsc"
           inkscape:connector-curvature="0" /><path
           style="display:inline;fill:#c76087;fill-opacity:1;stroke:none;stroke-width:0.0496286;stroke-dasharray:none;stroke-opacity:1"
           d="m 262.14642,193.57067 c 0,0 0.43109,-0.51398 0.13264,-0.94507 -0.29844,-0.43109 -0.64662,-0.67979 -0.64662,-0.67979 0,0 0.3316,0.46424 0.44766,0.82901 0.11606,0.36477 0.0663,0.79585 0.0663,0.79585 z"
           id="path23328-3-1-5-4"
           inkscape:connector-curvature="0" /><path
           style="display:inline;fill:#c76087;fill-opacity:1;stroke:none;stroke-width:0.0494298;stroke-dasharray:none;stroke-opacity:1"
           d="m 260.37035,195.02999 c 0,0 -0.90527,-0.24883 -1.42694,-0.24883 -0.52168,0 -1.02801,0.12442 -1.21214,0.31993 -0.18412,0.1955 0.15344,1.67069 0.15344,1.67069 0,0 0.23015,-0.74648 0.44496,-0.97753 0.21481,-0.23105 1.27351,-0.81758 2.04068,-0.76426 z"
           id="path23332-6-5-4-1"
           inkscape:connector-curvature="0" /></g></g><g
       id="g3238"
       inkscape:label="fleur_01"
       transform="matrix(1.9222312,0,0,1.9222312,-107.33009,196.36558)"
       style="display:inline"><g
         id="g3203"
         inkscape:label="gris_clair"
         style="fill:#e4e5e6;fill-opacity:1"><path
           style="fill:#e4e5e6;fill-opacity:1;stroke:none;stroke-width:0.107262px;stroke-linecap:butt;stroke-linejoin:miter;stroke-opacity:1"
           d="m 58.19071,-29.4198 c 0,0 -0.288786,0.08656 -1.032496,0.746507 -0.743714,0.659943 -1.519024,1.491969 -1.754656,2.48491 -0.235627,0.992938 -0.193703,3.005384 -0.193703,3.005384 0,0 0.761194,0.231715 1.273351,0.751509 0.512155,0.519789 1.439811,1.540071 1.439811,1.540071 0,0 0.952842,-1.787223 1.244866,-2.715762 0.292028,-0.928538 0.741691,-1.833187 0.526826,-2.950247 C 59.479841,-27.674493 58.19071,-29.4198 58.19071,-29.4198 Z"
           id="path2604-4-3"
           inkscape:connector-curvature="0" /><path
           sodipodi:nodetypes="czcccccsc"
           style="fill:#e4e5e6;fill-opacity:1;stroke:none;stroke-width:0.0949139px;stroke-linecap:butt;stroke-linejoin:miter;stroke-opacity:1"
           d="m 50.212679,-23.239713 c 0,0 -0.18021,0.795573 0.197531,1.48606 0.377739,0.69049 1.064492,1.544604 1.887663,1.970666 0.823171,0.426058 1.554193,0.601672 1.554193,0.601672 0,0 1.048803,-0.705731 1.61742,-1.011663 0.568611,-0.305932 2.370469,-0.745443 2.370469,-0.745443 0,0 -1.543632,-1.310557 -2.297884,-1.768645 -0.754249,-0.45809 -1.483889,-1.042137 -2.513949,-1.121965 -1.030065,-0.07983 -2.815443,0.589318 -2.815443,0.589318 z"
           id="path2604-1-77-3"
           inkscape:connector-curvature="0" /><path
           sodipodi:nodetypes="czcccccsc"
           style="fill:#e4e5e6;fill-opacity:1;stroke:none;stroke-width:0.0949139px;stroke-linecap:butt;stroke-linejoin:miter;stroke-opacity:1"
           d="m 52.780771,-15.006373 c 0,0 0.684162,0.463814 1.477927,0.380801 0.793767,-0.08301 1.857809,-0.385225 2.568516,-0.972862 0.710703,-0.587637 1.150297,-1.185945 1.150297,-1.185945 0,0 -0.274098,-1.219522 -0.350253,-1.851779 -0.07616,-0.632252 0.183189,-2.435946 0.183189,-2.435946 0,0 -1.816071,0.909038 -2.531232,1.421947 -0.715163,0.512906 -1.540112,0.955946 -2.001164,1.862211 -0.461054,0.90627 -0.49728,2.781573 -0.49728,2.781573 z"
           id="path2604-1-7-6-7"
           inkscape:connector-curvature="0" /><path
           sodipodi:nodetypes="czcccccsc"
           style="fill:#e4e5e6;fill-opacity:1;stroke:none;stroke-width:0.0949139px;stroke-linecap:butt;stroke-linejoin:miter;stroke-opacity:1"
           d="m 60.775487,-13.830124 c 0,0 0.742852,-0.364492 1.049637,-1.087076 0.306787,-0.722584 0.547399,-1.783337 0.36336,-2.677986 -0.184042,-0.894646 -0.507738,-1.561324 -0.507738,-1.561324 0,0 -1.221385,-0.35274 -1.822955,-0.592325 -0.601565,-0.239582 -2.08897,-1.332877 -2.08897,-1.332877 0,0 -0.05926,2.00019 0.05586,2.862613 0.115117,0.862423 0.115106,1.785536 0.703711,2.619257 0.588608,0.833724 2.247094,1.769718 2.247094,1.769718 z"
           id="path2604-1-7-8-0-4"
           inkscape:connector-curvature="0" /><path
           sodipodi:nodetypes="czcccccsc"
           style="fill:#e4e5e6;fill-opacity:1;stroke:none;stroke-width:0.0964237px;stroke-linecap:butt;stroke-linejoin:miter;stroke-opacity:1"
           d="m 65.591548,-21.479614 c 0,0 -0.107422,-0.828769 -0.703351,-1.343623 -0.595927,-0.514857 -1.539648,-1.067705 -2.462706,-1.159538 -0.923055,-0.09183 -2.63028,0.31697 -2.63028,0.31697 0,0 -0.471718,0.891221 -0.900327,1.401031 -0.428604,0.509808 -1.15529,1.240606 -1.15529,1.240606 0,0 1.781549,0.926881 2.650896,1.075679 0.869346,0.148801 1.75939,0.427312 2.756595,0.109296 0.99721,-0.318018 2.444463,-1.640421 2.444463,-1.640421 z"
           id="path2604-1-7-8-7-4-3"
           inkscape:connector-curvature="0" /></g><g
         id="g3184"
         inkscape:label="gris_fonce"
         style="display:inline;fill:#4f5da6;fill-opacity:1"><path
           style="fill:#4f5da6;fill-opacity:1;stroke:none;stroke-width:0.107262px;stroke-linecap:butt;stroke-linejoin:miter;stroke-opacity:1"
           d="m 57.920855,-20.889354 c 0,0 1.377563,-2.096584 1.766246,-3.005821 0.388683,-0.909234 0.312274,-2.791924 -0.409491,-4.097513 -0.721766,-1.305585 -1.440708,-2.194816 -1.530514,-2.456793 -0.0898,-0.261971 -0.102932,-0.397266 -0.102932,-0.397266 0,0 0.383346,0.759753 1.386721,2.032384 1.191332,1.511025 1.293424,3.968489 1.11233,4.490276 -0.44414,1.112617 -2.22236,3.434733 -2.22236,3.434733 z"
           id="path2598-8-3"
           inkscape:connector-curvature="0"
           sodipodi:nodetypes="csczcscc" /><path
           sodipodi:nodetypes="cccccccczc"
           style="fill:#4f5da6;fill-opacity:1;stroke:none;stroke-width:0.107262px;stroke-linecap:butt;stroke-linejoin:miter;stroke-opacity:1"
           d="m 55.184846,-23.19574 c 0,0 0.634821,0.0073 1.138947,0.389823 0.504132,0.382481 0.607909,0.556187 0.607909,0.556187 0,0 -0.207193,-0.521792 -0.43349,-0.9642 -0.226293,-0.442406 -0.507846,-0.616725 -0.507846,-0.616725 0,0 0.738361,0.04278 1.020868,0.770166 0.282505,0.727391 0.347721,1.234252 0.571132,1.544571 0.223415,0.31032 0.347161,0.619523 0.347161,0.619523 -0.171239,0.159899 -1.297211,-1.28808 -1.693724,-1.582217 -0.396515,-0.294133 -1.050957,-0.717128 -1.050957,-0.717128 z"
           id="path2606-9-9"
           inkscape:connector-curvature="0" /><path
           style="fill:#4f5da6;fill-opacity:1;stroke:none;stroke-width:0.107262px;stroke-linecap:butt;stroke-linejoin:miter;stroke-opacity:1"
           d="m 57.612496,-21.441162 c 0,0 -0.08578,-0.24107 -0.06751,-0.799171 0.01827,-0.558099 0.01827,-0.558099 0.01827,-0.558099 0,0 0.136072,0.02526 0.13937,0.581989 0.0033,0.556714 0.201111,1.296502 0.201111,1.296502 z"
           id="path2608-8-7"
           inkscape:connector-curvature="0" /><path
           style="fill:#4f5da6;fill-opacity:1;stroke:none;stroke-width:0.0949139px;stroke-linecap:butt;stroke-linejoin:miter;stroke-opacity:1"
           d="m 57.664766,-21.039732 c 0,0 -1.547444,-1.632126 -2.263758,-2.1662 -0.716312,-0.534072 -2.390465,-0.906439 -3.696343,-0.608002 -1.305876,0.29844 -2.244564,0.690943 -2.494677,0.705029 -0.250108,0.01409 -0.372072,-0.0063 -0.372072,-0.0063 0,0 0.751978,-0.143149 2.089854,-0.68362 1.588494,-0.641715 3.774267,-0.157626 4.194432,0.113938 0.883363,0.627329 2.542564,2.645172 2.542564,2.645172 z"
           id="path2598-0-6-2"
           inkscape:connector-curvature="0"
           sodipodi:nodetypes="csczcscc" /><path
           sodipodi:nodetypes="cccccccczc"
           style="fill:#4f5da6;fill-opacity:1;stroke:none;stroke-width:0.0949139px;stroke-linecap:butt;stroke-linejoin:miter;stroke-opacity:1"
           d="m 54.874258,-19.848921 c 0,0 0.242257,-0.437915 0.742459,-0.68347 0.500206,-0.24556 0.769586,-0.207729 0.769586,-0.207729 0,0 -0.50557,-0.03953 -0.952852,-0.0336 -0.447278,0.0059 -0.694308,0.158216 -0.694308,0.158216 0,0 0.306882,-0.558978 1.00933,-0.498937 0.702448,0.06004 1.143489,0.204472 1.481026,0.149898 0.337542,-0.05457 0.637487,-0.0319 0.637487,-0.0319 0.09843,0.101419 -1.610157,0.42117 -1.964127,0.623169 -0.353971,0.201998 -1.028601,0.524354 -1.028601,0.524353 z"
           id="path2606-8-1-9"
           inkscape:connector-curvature="0" /><path
           style="fill:#4f5da6;fill-opacity:1;stroke:none;stroke-width:0.0949139px;stroke-linecap:butt;stroke-linejoin:miter;stroke-opacity:1"
           d="m 57.302097,-20.959224 c 0,0 -0.229915,-0.02601 -0.682399,-0.255255 -0.452484,-0.229237 -0.452484,-0.229237 -0.452484,-0.229237 0,0 0.07085,-0.09632 0.530144,0.115584 0.459281,0.211892 1.140765,0.342716 1.140765,0.342716 z"
           id="path2608-2-7-2"
           inkscape:connector-curvature="0" /><path
           style="fill:#4f5da6;fill-opacity:1;stroke:none;stroke-width:0.0949139px;stroke-linecap:butt;stroke-linejoin:miter;stroke-opacity:1"
           d="m 57.649145,-20.951052 c 0,0 -2.121305,0.791245 -2.894052,1.241015 -0.772744,0.449768 -1.751313,1.831228 -1.958255,3.13086 -0.206938,1.29963 -0.187542,2.300941 -0.267872,2.533616 -0.08033,0.23267 -0.145264,0.335846 -0.145264,0.335846 0,0 0.146283,-0.737556 0.13654,-2.157542 -0.01157,-1.685984 1.264092,-3.4904 1.677956,-3.769946 0.923391,-0.566459 3.450947,-1.313849 3.450947,-1.313849 z"
           id="path2598-0-0-67-0"
           inkscape:connector-curvature="0"
           sodipodi:nodetypes="csczcscc" /><path
           sodipodi:nodetypes="cccccccczc"
           style="fill:#4f5da6;fill-opacity:1;stroke:none;stroke-width:0.0949139px;stroke-linecap:butt;stroke-linejoin:miter;stroke-opacity:1"
           d="m 57.729469,-17.965334 c 0,0 -0.32303,-0.385351 -0.367755,-0.932649 -0.04473,-0.547305 0.09186,-0.777916 0.09186,-0.777916 0,0 -0.226626,0.444676 -0.388471,0.853512 -0.161844,0.408832 -0.110458,0.690814 -0.110458,0.690814 0,0 -0.413211,-0.489748 -0.0935,-1.105661 0.319707,-0.615914 0.621277,-0.962376 0.696084,-1.28979 0.07481,-0.327418 0.208521,-0.591531 0.208521,-0.591531 0.132668,-0.05124 -0.204904,1.622513 -0.146583,2.020456 0.05832,0.397944 0.110303,1.132765 0.110302,1.132765 z"
           id="path2606-8-5-4-1"
           inkscape:connector-curvature="0" /><path
           style="fill:#4f5da6;fill-opacity:1;stroke:none;stroke-width:0.0949139px;stroke-linecap:butt;stroke-linejoin:miter;stroke-opacity:1"
           d="m 57.58943,-20.591014 c 0,0 -0.110652,0.199193 -0.496632,0.524077 -0.385975,0.324885 -0.385975,0.324885 -0.385975,0.324885 0,0 -0.06448,-0.100726 0.307674,-0.438337 0.372133,-0.337605 0.750865,-0.907771 0.750865,-0.907771 z"
           id="path2608-2-2-5-9"
           inkscape:connector-curvature="0" /><path
           style="fill:#4f5da6;fill-opacity:1;stroke:none;stroke-width:0.0949139px;stroke-linecap:butt;stroke-linejoin:miter;stroke-opacity:1"
           d="m 57.799582,-20.884606 c 0,0 -0.311023,2.205814 -0.279965,3.087288 0.03106,0.881471 0.79594,2.38947 1.858039,3.194492 1.062099,0.805018 1.966233,1.271479 2.13561,1.452818 0.169372,0.181336 0.23041,0.286956 0.23041,0.286956 0,0 -0.588911,-0.48166 -1.862563,-1.158434 -1.512239,-0.80355 -2.512508,-2.771085 -2.56369,-3.261835 -0.06304,-1.06731 0.482159,-3.601285 0.482159,-3.601285 z"
           id="path2598-0-0-2-8-8"
           inkscape:connector-curvature="0"
           sodipodi:nodetypes="csczcscc" /><path
           sodipodi:nodetypes="cccccccczc"
           style="fill:#4f5da6;fill-opacity:1;stroke:none;stroke-width:0.0949139px;stroke-linecap:butt;stroke-linejoin:miter;stroke-opacity:1"
           d="m 61.091968,-19.198059 c 0,0 -1.085045,-0.22316 -1.595606,-0.448777 -0.510568,-0.225616 -0.651098,-0.454339 -0.651098,-0.454339 0,0 0.288617,0.409426 0.576298,0.745857 0.287677,0.336428 0.564334,0.428301 0.564334,0.428301 0,0 -0.635986,0.118998 -1.032956,-0.453088 -0.396969,-0.572086 -0.561848,-0.998566 -0.818538,-1.220869 -0.256695,-0.222306 -0.428545,-0.464717 -0.428545,-0.464717 0.01788,-0.138799 1.085238,0.7403 1.433719,0.949713 0.348481,0.209417 1.952392,0.917919 1.952392,0.917919 z"
           id="path2606-8-5-8-9-5"
           inkscape:connector-curvature="0" /><path
           style="fill:#4f5da6;fill-opacity:1;stroke:none;stroke-width:0.0949139px;stroke-linecap:butt;stroke-linejoin:miter;stroke-opacity:1"
           d="m 58.092672,-20.659539 c 0,0 0.124902,0.191258 0.229984,0.679907 0.105086,0.488645 0.105086,0.488645 0.105086,0.488645 0,0 -0.12096,0.0068 -0.244054,-0.476058 -0.123096,-0.482881 -0.450854,-1.083647 -0.450854,-1.083647 z"
           id="path2608-2-2-0-4-5"
           inkscape:connector-curvature="0" /><path
           style="fill:#4f5da6;fill-opacity:1;stroke:none;stroke-width:0.0964237px;stroke-linecap:butt;stroke-linejoin:miter;stroke-opacity:1"
           d="m 57.812213,-20.728379 c 0,0 2.024639,0.966442 2.884741,1.202329 0.860099,0.235885 2.565335,-0.04927 3.690404,-0.834113 1.125066,-0.78484 1.871811,-1.518972 2.102293,-1.628155 0.230477,-0.10918 0.352363,-0.136377 0.352363,-0.136377 0,0 -0.657855,0.42453 -1.728761,1.452764 -1.271514,1.220849 -3.497146,1.595132 -3.98713,1.496599 -1.049787,-0.26101 -3.31391,-1.553047 -3.31391,-1.553047 z"
           id="path2598-0-0-2-7-99-4"
           inkscape:connector-curvature="0"
           sodipodi:nodetypes="csczcscc" /><path
           sodipodi:nodetypes="cccccccczc"
           style="fill:#4f5da6;fill-opacity:1;stroke:none;stroke-width:0.0964237px;stroke-linecap:butt;stroke-linejoin:miter;stroke-opacity:1"
           d="m 59.760194,-23.689578 c 0,0 0.02755,0.515721 -0.265499,1.007328 -0.29305,0.491614 -0.541224,0.608342 -0.541224,0.608342 0,0 0.449057,-0.246465 0.824603,-0.500119 0.375546,-0.253654 0.503796,-0.523429 0.503796,-0.523429 0,0 0.03716,0.656993 -0.589483,0.994983 -0.626647,0.337993 -1.076805,0.457315 -1.33359,0.692332 -0.256795,0.235021 -0.522795,0.381927 -0.522795,0.381927 -0.137235,-0.03354 1.139509,-1.261096 1.331881,-1.633552 0.192374,-0.372462 0.592297,-1.027816 0.592297,-1.027816 z"
           id="path2606-8-5-8-2-7-3"
           inkscape:connector-curvature="0" /><path
           style="fill:#4f5da6;fill-opacity:1;stroke:none;stroke-width:0.0964237px;stroke-linecap:butt;stroke-linejoin:miter;stroke-opacity:1"
           d="m 58.209949,-21.231766 c 0,0 0.225435,-0.06316 0.731099,-0.01741 0.505662,0.04574 0.505662,0.04574 0.505662,0.04574 0,0 -0.03314,0.119108 -0.539174,0.09253 -0.50602,-0.02657 -1.19293,0.109324 -1.19293,0.109324 z"
           id="path2608-2-2-0-8-1-1"
           inkscape:connector-curvature="0" /></g><g
         id="g3196"
         inkscape:label="gris_moyen"
         style="display:inline;fill:#90a7cc;fill-opacity:1"><path
           sodipodi:nodetypes="cccccccc"
           style="fill:#90a7cc;fill-opacity:1;stroke:none;stroke-width:0.107262px;stroke-linecap:butt;stroke-linejoin:miter;stroke-opacity:1"
           d="m 57.980943,-30.048929 c 0,0 -0.0011,0.52314 0.449819,1.203642 0.450913,0.680501 1.306618,1.455257 1.267554,3.039005 -0.03907,1.583747 -1.775905,4.917861 -1.775905,4.917861 0,0 1.086011,-1.464587 1.567818,-2.487554 0.481812,-1.022966 0.580444,-1.913105 0.446407,-2.710151 -0.134039,-0.797043 -0.442608,-1.636989 -0.872378,-2.366951 -0.429769,-0.729953 -1.083315,-1.595852 -1.083315,-1.595852 z"
           id="path2602-3-5"
           inkscape:connector-curvature="0" /><path
           sodipodi:nodetypes="cccccccc"
           style="fill:#90a7cc;fill-opacity:1;stroke:none;stroke-width:0.0949139px;stroke-linecap:butt;stroke-linejoin:miter;stroke-opacity:1"
           d="m 49.613318,-23.210796 c 0,0 0.460357,0.122049 1.157198,-0.09569 0.696839,-0.217742 1.564371,-0.750589 2.950305,-0.351331 1.385931,0.39926 3.945103,2.617005 3.945103,2.617005 0,0 -1.054177,-1.243102 -1.850447,-1.881024 -0.796267,-0.637925 -1.558612,-0.926149 -2.289406,-0.999151 -0.730792,-0.073 -1.537172,-0.01066 -2.272979,0.178026 -0.735798,0.188691 -1.639774,0.532163 -1.639774,0.532163 z"
           id="path2602-0-8-6"
           inkscape:connector-curvature="0" /><path
           sodipodi:nodetypes="cccccccc"
           style="fill:#90a7cc;fill-opacity:1;stroke:none;stroke-width:0.0949139px;stroke-linecap:butt;stroke-linejoin:miter;stroke-opacity:1"
           d="m 52.583702,-14.450625 c 0,0 0.287656,-0.372462 0.342829,-1.088023 0.05517,-0.715561 -0.123459,-1.70511 0.772611,-2.814427 0.896072,-1.109315 3.949418,-2.599437 3.949418,-2.599437 0,0 -1.5691,0.48954 -2.469893,0.972833 -0.900795,0.48329 -1.458505,1.067609 -1.801069,1.704403 -0.342561,0.636793 -0.58556,1.393332 -0.682765,2.13336 -0.0972,0.740023 -0.111131,1.691291 -0.111131,1.691291 z"
           id="path2602-0-3-4-2"
           inkscape:connector-curvature="0" /><path
           sodipodi:nodetypes="cccccccc"
           style="fill:#90a7cc;fill-opacity:1;stroke:none;stroke-width:0.0949139px;stroke-linecap:butt;stroke-linejoin:miter;stroke-opacity:1"
           d="m 61.177549,-13.392519 c 0,0 -0.194791,-0.42706 -0.807774,-0.819764 -0.612986,-0.3927 -1.583033,-0.716568 -2.144309,-2.022319 -0.561273,-1.30575 -0.427469,-4.650205 -0.427469,-4.650205 0,0 -0.315612,1.585418 -0.316052,2.593169 -4.43e-4,1.007752 0.254062,1.769244 0.658721,2.371059 0.40466,0.601812 0.964116,1.175793 1.578792,1.616444 0.614673,0.440645 1.458091,0.911616 1.458091,0.911616 z"
           id="path2602-0-3-9-4-7"
           inkscape:connector-curvature="0" /><path
           sodipodi:nodetypes="cccccccc"
           style="fill:#90a7cc;fill-opacity:1;stroke:none;stroke-width:0.0964237px;stroke-linecap:butt;stroke-linejoin:miter;stroke-opacity:1"
           d="m 66.145549,-21.736636 c 0,0 -0.475749,0.05964 -1.055742,0.534301 -0.57999,0.474664 -1.210901,1.315593 -2.654251,1.464756 -1.443349,0.149159 -4.690951,-1.278393 -4.690951,-1.278393 0,0 1.491852,1.072773 2.463362,1.377235 0.971509,0.304465 1.789326,0.28794 2.502509,0.07795 0.71318,-0.209993 1.450374,-0.578167 2.077153,-1.039999 0.62677,-0.46183 1.357921,-1.135851 1.357921,-1.135851 z"
           id="path2602-0-3-9-0-8-4"
           inkscape:connector-curvature="0" /><path
           inkscape:connector-curvature="0"
           id="path1704-9-8"
           d="m 56.500652,-27.189399 c 0,0 1.191675,-0.79178 1.492776,-0.76973 0.301111,0.0221 1.34066,1.27579 1.168701,2.29074 -0.171952,1.01494 -0.787281,3.04639 -0.995066,3.55765 -0.207786,0.51125 -0.330751,1.13831 -0.330751,1.13831 0,0 -0.03911,-0.78821 0.216221,-1.616 0.25537,-0.82778 0.907932,-2.76519 0.894715,-3.22672 -0.01325,-0.46153 -0.284668,-1.64395 -0.971704,-1.6347 -0.68703,0.009 -1.474892,0.26045 -1.474892,0.26045 z"
           style="fill:#90a7cc;fill-opacity:1;stroke-width:0.226745" /><path
           inkscape:connector-curvature="0"
           id="path1704-64-3-8"
           d="m 51.475128,-21.177719 c 0,0 -0.493783,-1.32761 -0.399331,-1.6097 0.09448,-0.2821 1.582784,-0.97315 2.542981,-0.56523 0.960198,0.40792 2.816594,1.4832 3.271025,1.80433 0.454424,0.32113 1.043622,0.58912 1.043622,0.58912 0,0 -0.787377,-0.152 -1.542728,-0.59454 -0.755332,-0.44259 -2.509939,-1.53082 -2.968639,-1.62907 -0.458703,-0.0982 -1.69121,-0.12318 -1.847937,0.53479 -0.156734,0.65797 -0.09899,1.4703 -0.09899,1.4703 z"
           style="display:inline;fill:#90a7cc;fill-opacity:1;stroke-width:0.226745" /><path
           inkscape:connector-curvature="0"
           id="path1704-5-5-2"
           d="m 61.774119,-16.239619 c 0,0 -0.689434,1.24116 -0.967323,1.3575 -0.2779,0.11632 -1.786969,-0.52786 -2.10792,-1.50689 -0.320957,-0.97902 -0.722376,-3.061 -0.776377,-3.60886 -0.05407,-0.54785 -0.237419,-1.16028 -0.237419,-1.16028 0,0 0.402693,0.68239 0.562189,1.53283 0.159437,0.85046 0.483898,2.86571 0.711082,3.26965 0.227212,0.40392 1.020366,1.33153 1.626614,1.01317 0.606249,-0.31834 1.189154,-0.89712 1.189154,-0.89712 z"
           style="display:inline;fill:#90a7cc;fill-opacity:1;stroke-width:0.226745" /><path
           inkscape:connector-curvature="0"
           sodipodi:nodetypes="cssscscsc"
           id="path1704-6-7-5"
           d="m 63.018555,-22.630719 c 0,0 0.765839,1.02538 0.767179,1.29778 0.0013,0.2724 -1.012926,1.28335 -1.902727,1.18934 -0.889794,-0.094 -2.689138,-0.5263 -3.145576,-0.68273 -0.456424,-0.15644 -1.007297,-0.22958 -1.007297,-0.22958 0,0 0.679321,-0.0824 1.412836,0.0979 0.733517,0.18032 2.454018,0.65176 2.852451,0.61221 0.398443,-0.0392 1.492333,-0.47734 1.437756,-1.09529 -0.0546,-0.61797 -0.414622,-1.18958 -0.414622,-1.18958 z"
           style="display:inline;fill:#90a7cc;fill-opacity:1;stroke-width:0.200637" /><path
           inkscape:connector-curvature="0"
           sodipodi:nodetypes="cssscscsc"
           id="path1704-6-0-0-7"
           d="m 55.706946,-16.202929 c 0,0 -1.291529,-0.0795 -1.504884,-0.2531 -0.213355,-0.17359 -0.350892,-1.5868 0.293646,-2.19781 0.64454,-0.61101 2.136833,-1.69137 2.551877,-1.93544 0.415032,-0.24406 0.825713,-0.61277 0.825713,-0.61277 0,0 -0.371775,0.56534 -0.983297,1.00314 -0.611538,0.43779 -2.083762,1.43358 -2.30868,1.75952 -0.225176,0.32574 -0.585622,1.43181 -0.06852,1.78675 0.51711,0.35491 1.19415,0.44971 1.19415,0.44971 z"
           style="display:inline;fill:#90a7cc;fill-opacity:1;stroke-width:0.200637" /></g></g></g></svg>
