<?xml version="1.0" encoding="UTF-8" standalone="no"?>
<!-- Created with Inkscape (http://www.inkscape.org/) -->

<svg
   width="210mm"
   height="297mm"
   viewBox="0 0 210 297"
   version="1.1"
   id="svg5"
   xml:space="preserve"
   inkscape:version="1.2.2 (732a01da63, 2022-12-09)"
   sodipodi:docname="dessin_canard.svg"
   xmlns:inkscape="http://www.inkscape.org/namespaces/inkscape"
   xmlns:sodipodi="http://sodipodi.sourceforge.net/DTD/sodipodi-0.dtd"
   xmlns="http://www.w3.org/2000/svg"
   xmlns:svg="http://www.w3.org/2000/svg"><sodipodi:namedview
     id="namedview7"
     pagecolor="#ffffff"
     bordercolor="#000000"
     borderopacity="0.25"
     inkscape:showpageshadow="2"
     inkscape:pageopacity="0.0"
     inkscape:pagecheckerboard="0"
     inkscape:deskcolor="#d1d1d1"
     inkscape:document-units="mm"
     showgrid="false"
     inkscape:zoom="0.93806818"
     inkscape:cx="385.89946"
     inkscape:cy="657.73471"
     inkscape:window-width="2560"
     inkscape:window-height="1369"
     inkscape:window-x="-8"
     inkscape:window-y="-8"
     inkscape:window-maximized="1"
     inkscape:current-layer="g29345" /><defs
     id="defs2" /><g
     inkscape:label="Calque 1"
     inkscape:groupmode="layer"
     id="layer1"
     style="display:inline" /><g
     inkscape:groupmode="layer"
     id="layer2"
     inkscape:label="Calque 2"><g
       id="g4923"
       transform="translate(-34.303744,-38.292552)"><path
         style="display:inline;fill:none;fill-opacity:1;stroke:#290f05;stroke-width:0.3;stroke-opacity:1"
         d="m 87.176051,89.657821 c 0,0 7.215827,6.945397 10.742411,7.734731 3.526578,0.789332 11.811658,1.261467 13.596638,0.601454 1.78498,-0.660014 2.8911,-1.124829 2.8911,-1.124829"
         id="path3753" /><path
         style="display:inline;fill:none;fill-opacity:1;stroke:#290f05;stroke-width:0.3;stroke-opacity:1"
         d="m 110.31355,94.042462 4.11001,2.869414"
         id="path3809" /><path
         style="display:inline;fill:none;fill-opacity:1;stroke:#290f05;stroke-width:0.3;stroke-opacity:1"
         d="m 110.66057,94.12054 c 0,0 4.31822,2.076424 8.18097,2.46316 3.86276,0.386736 13.31035,-0.631955 13.31035,-0.631955"
         id="path3811" /><path
         style="display:inline;fill:none;fill-opacity:1;stroke:#290f05;stroke-width:0.3;stroke-opacity:1"
         d="m 132.22347,96.096922 -4.08832,-2.956031 c 0,0 6.57601,2.863314 10.59276,3.32813 4.01674,0.464816 9.89438,-1.883663 9.89438,-1.883663"
         id="path3813" /><path
         style="fill:none;stroke:#290f05;stroke-width:0.3;stroke-opacity:1"
         d="m 73.200213,30.018516 c 0,0 -3.116321,-2.956343 -3.817186,-5.546056 -0.700865,-2.589713 -0.837356,-4.292609 -0.837356,-4.292609 0,0 -1.740662,2.57246 -1.456941,5.197541 0.28372,2.625082 1.009123,4.537606 1.009123,4.537606"
         id="path357" /><path
         style="fill:none;stroke:#290f05;stroke-width:0.3;stroke-opacity:1"
         d="m 67.024352,25.957625 c 0,0 -1.530556,-2.026394 -2.936888,-1.522599 -1.406332,0.503795 -3.334094,5.052614 -3.334094,5.052614 0,0 1.653244,-1.796925 3.235944,-1.777084 1.582698,0.01984 3.171529,2.521561 3.171529,2.521561"
         id="path967" /><path
         style="fill:none;stroke:#290f05;stroke-width:0.3;stroke-opacity:1"
         d="m 66.058168,29.070974 c -0.144158,-0.251899 -1.036727,-1.023979 -2.28663,0.641821 -1.249902,1.665801 -2.329571,5.854891 -3.015101,7.607819 -0.685528,1.75293 -2.420054,4.089884 -3.556469,5.641813 -1.136414,1.55193 -7.039326,6.982391 -8.129732,7.738946 -1.090404,0.756555 -5.947387,1.914247 -7.303109,2.314522 -1.35572,0.400275 -3.384703,0.905796 -2.633228,2.024669 0.751474,1.118872 4.884586,4.628184 9.594339,5.705649 4.709755,1.077466 6.08848,1.193925 7.120609,1.185299 1.032127,-0.0086 4.330949,-0.385609 6.010265,-0.791062 1.679315,-0.40545 6.214237,-1.783984 8.503935,-3.468764 2.289697,-1.684782 4.90759,-4.141644 5.332405,-5.940295 0.424812,-1.798651 0.25918,-4.076081 -0.783683,-4.682532 -1.042863,-0.606452 -2.924617,1.188749 -4.209793,1.608865 -1.285174,0.420118 -3.962879,1.608005 -5.50877,-0.653034 -1.545889,-2.261039 -0.558237,-3.171148 -1.102673,-4.064865 -0.544435,-0.893721 -3.088716,-2.787264 -3.847859,-2.787264 -0.759142,0 -2.053521,0.355417 -2.053521,0.355417"
         id="path969" /><path
         style="fill:none;stroke:#290f05;stroke-width:0.3;stroke-opacity:1"
         d="m 71.56234,28.306654 c 0,0 3.804915,-1.599375 8.3199,0.08109 4.514982,1.680467 9.258477,4.758444 9.103582,12.431829 C 88.830924,48.492957 87.13934,61.23333 87.13934,61.23333 l -4.288344,21.01543"
         id="path971"
         sodipodi:nodetypes="csscc" /><path
         style="fill:none;stroke:#290f05;stroke-width:0.3;stroke-opacity:1"
         d="m 72.2402,56.542172 c 0,0 4.275738,2.260177 1.970704,11.095564 -2.305034,8.83539 -6.111483,17.050525 -7.007119,21.142131 -0.895636,4.09161 -0.822021,6.686497 -0.87263,7.405958"
         id="path973" /><path
         style="fill:none;stroke:#290f05;stroke-width:0.3;stroke-opacity:1"
         d="m 85.17359,71.399438 c 0,0 3.854082,-1.038209 8.69066,-1.383467 4.836578,-0.345257 11.29005,0.07869 13.79943,0.511175 2.50938,0.432486 5.3788,1.512176 5.96005,1.933684 0.58126,0.421505 0.36437,0.770421 -0.0846,1.293796 -0.44896,0.523375 -1.13541,1.093722 -1.13541,1.093722"
         id="path977" /><path
         style="fill:none;stroke:#290f05;stroke-width:0.3;stroke-opacity:1"
         d="m 69.88658,80.898149 c 0,0 -4.153313,6.03004 -6.771137,9.410629 -2.617825,3.380589 -5.311561,9.994142 -4.793202,16.912702 0.518361,6.91856 2.678554,12.07911 5.801725,14.52031 3.123173,2.4412 10.106932,6.15606 15.869618,5.52411 5.762686,-0.63196 21.460956,-4.77138 24.271806,-5.81569 2.81086,-1.04431 11.96864,-6.10329 15.14603,-8.82997 3.1774,-2.72667 6.60677,-7.89967 7.90809,-10.99845 1.30132,-3.098767 5.74428,-17.738955 6.15854,-19.954454 0.41425,-2.215499 1.1038,-6.377842 0.33168,-6.790198 -0.77212,-0.412359 -4.68042,3.096331 -6.87965,3.21955 -2.19923,0.123219 -8.72753,-1.754343 -14.12585,-3.154891 -5.39831,-1.400548 -14.401285,-0.22936 -18.140416,0.511175 -3.739131,0.740534 -7.920709,1.184608 -9.397709,1.24927 -1.477002,0.06466 -1.262282,0.247655 -1.262282,0.247655"
         id="path979"
         sodipodi:nodetypes="csssssssssssssc" /><path
         style="fill:none;stroke:#290f05;stroke-width:0.3;stroke-opacity:1"
         d="m 96.937754,82.887715 c 0,0 10.294586,-3.964624 17.149896,-4.459792 6.85529,-0.495167 13.96209,0.263975 21.36335,5.548646 7.40126,5.284671 10.06056,8.134908 11.82423,9.470308 1.76366,1.335402 3.41997,2.077291 2.11946,2.979637 -1.30051,0.902345 -8.17113,3.462727 -12.91616,1.499306 -4.74503,-1.96342 -4.30641,-2.011727 -4.30641,-2.011727 0,0 -2.41699,2.601788 -7.26324,2.763969 -4.84624,0.162182 -7.68958,-0.208764 -9.06064,-0.783296 -1.37106,-0.574535 -1.47228,-0.850585 -1.47228,-0.850585 0,0 -2.47833,3.985499 -7.6037,4.006209 -5.12537,0.0207 -10.198586,0.35714 -15.455844,-3.866459 -5.257255,-4.223596 -5.812427,-5.125939 -5.812427,-5.125939"
         id="path981"
         sodipodi:nodetypes="cssssscsscssc" /><path
         style="fill:none;stroke:#290f05;stroke-width:0.3;stroke-opacity:1"
         d="m 90.332899,125.29188 c 0,0 -0.834394,1.09371 -0.101321,2.85871 0.73307,1.76501 1.177822,2.42409 1.886355,6.28881 0.708533,3.86473 2.119466,11.03863 1.386393,11.9634 -0.733071,0.92478 -9.033034,5.71773 -10.14951,6.26121 -1.116478,0.54348 -2.711444,1.71842 -2.984431,2.49827 -0.272984,0.77985 1.447742,1.08696 1.447742,1.08696 0,0 1.791269,2.5759 2.57035,2.97963 0.779079,0.40373 1.20236,0.74017 1.20236,0.74017 l 0.07668,1.80123 c 0,0 0.444749,0.45204 1.052066,-0.31918 0.607314,-0.77122 0.901768,-0.9334 0.901768,-0.9334 0,0 1.236099,0.70566 2.337239,0.91097 1.101141,0.20531 1.763668,0.34161 1.763668,0.34161 0,0 -0.104288,0.5314 0.582774,1.14907 0.687065,0.61767 1.076603,0.27605 1.107276,-0.6884 0.03067,-0.96446 0.447818,-4.74637 1.033661,-7.32746 0.585845,-2.58108 1.012192,-4.99826 1.309714,-6.02483 0.297524,-1.02657 0.365003,-8.0659 0.233111,-11.31468 -0.131892,-3.24879 -0.37289,-5.89896 0.234424,-7.68812 0.607314,-1.78916 0.780733,-2.09507 0.734722,-4.01018 -0.04601,-1.91511 -0.874063,-2.22853 -0.874063,-2.22853"
         id="path983"
         sodipodi:nodetypes="cssssscsccscscsssssssc" /><path
         style="fill:none;stroke:#290f05;stroke-width:0.3;stroke-opacity:1"
         d="m 76.79733,127.45482 c 0,0 1.259105,4.63854 1.46921,7.3818 0.210109,2.74327 -0.02299,4.60403 -0.346596,4.77915 -0.323596,0.17512 -4.783367,0.87474 -8.172675,1.78399 -3.389304,0.90924 -5.251122,2.28174 -5.843098,2.87698 -0.591978,0.59524 0.134959,0.77985 0.564373,0.68323 0.429413,-0.0966 0.846558,0.95496 1.886354,1.8599 1.039797,0.90493 1.25757,1.51656 1.25757,1.51656 0,0 -0.799018,0.89026 -0.900237,1.49672 -0.101219,0.60645 0.256117,0.32522 0.973852,-0.15615 0.717735,-0.48136 0.285253,-0.54088 0.935509,-0.1639 0.650256,0.37698 2.208416,1.77881 2.208416,1.77881 0,0 0.164097,0.75138 0.374203,1.03865 0.210108,0.28726 0.119623,0.59696 0.875699,-0.0147 0.756076,-0.61163 2.663902,-2.46377 3.872397,-4.45738 1.208492,-1.99361 3.627014,-6.45617 3.786513,-7.16441 0.159496,-0.70825 0.05828,-5.18201 0.280651,-8.25396 0.222377,-3.07194 0.174834,-4.97842 0.174834,-4.97842"
         id="path1034" /><path
         style="fill:none;stroke:#290f05;stroke-width:0.3;stroke-opacity:1"
         d="m 69.068565,31.488647 c 0.275739,-0.244302 0.672349,-1.017471 1.933549,-0.704546 1.261197,0.312928 2.246947,1.962962 3.021235,3.289091 0.774284,1.326129 2.310929,2.528427 2.310929,2.528427"
         id="path1038"
         sodipodi:nodetypes="cssc" /><path
         style="fill:none;stroke:#290f05;stroke-width:0.3;stroke-opacity:1"
         d="m 69.800559,34.741135 c -0.461968,0.145791 -0.986835,-0.250097 -1.963912,1.384689 -0.977075,1.634784 -2.075606,4.390131 -2.018131,5.011105 0.05747,0.620975 0.351357,1.563415 2.415035,1.922701 2.063679,0.359288 3.496217,0.04026 4.26725,-0.694174 0.771033,-0.734433 0.900081,-2.194759 0.567158,-3.525158 -0.332919,-1.330396 -1.046477,-3.425118 -1.556162,-3.651427 -0.509683,-0.226306 -1.711238,-0.447736 -1.711238,-0.447736 z"
         id="path1040" /><path
         style="fill:none;stroke:#290f05;stroke-width:0.3;stroke-opacity:1"
         d="m 62.34202,32.545687 c 0,0 1.210028,-0.283568 2.165415,0.123909 0.955386,0.407474 1.365303,1.758003 1.012862,2.419847 -0.352441,0.661845 -1.712323,3.713647 -2.180799,4.186391 -0.468477,0.472747 -1.3794,0.265959 -2.112479,0.161039 -0.733078,-0.104918 -1.113716,-0.731382 -1.113716,-0.731382"
         id="path1042"
         sodipodi:nodetypes="cssssc" /><path
         style="fill:none;stroke:#290f05;stroke-width:0.3;stroke-opacity:1"
         d="m 53.942945,61.858344 c 1.507551,-0.03537 3.370903,-0.572807 5.625327,-1.532088 2.254425,-0.959281 4.938263,-3.140953 7.318444,-4.830911 2.380184,-1.689954 2.824932,-2.196338 4.426035,-3.289331 1.601102,-1.092994 2.317303,-1.582124 2.317303,-1.582124"
         id="path1044" /><path
         style="fill:none;stroke:#290f05;stroke-width:0.3;stroke-opacity:1"
         d="m 57.436538,44.67756 c 0,0 -0.389541,-0.02588 -0.774481,0.596098 -0.384937,0.62198 -0.697796,1.012767 0.0077,0.729813 0.705464,-0.282953 0.559771,-0.0043 0.81742,-0.405452 0.257648,-0.401138 -0.05061,-0.920459 -0.05061,-0.920459 z"
         id="path1046" /><path
         style="fill:none;stroke:#290f05;stroke-width:0.3;stroke-opacity:1"
         d="m 59.828988,46.056092 c -0.210106,0.09576 -0.415611,-0.0923 -0.369602,0.374396 0.04601,0.466701 0.476956,0.763458 0.797483,0.412353 0.320527,-0.351102 0.608849,-0.313145 0.371136,-0.714285 -0.237712,-0.401138 -0.736139,0.01553 -0.799017,-0.07246 z"
         id="path1048" /><path
         style="fill:none;stroke:#290f05;stroke-width:0.3;stroke-opacity:1"
         d="m 85.630236,92.320492 c 0,0 -0.52143,-1.739127 3.093315,-4.603167 3.614748,-2.864038 8.34444,-4.847299 8.34444,-4.847299"
         id="path1157" /></g><g
       id="g30528"
       inkscape:export-filename="canard.png"
       inkscape:export-xdpi="96"
       inkscape:export-ydpi="96"><g
         id="g29345"
         transform="matrix(1.3187198,0,0,1.3187198,-5.5667066,-53.066011)"
         inkscape:export-filename="canard.png"
         inkscape:export-xdpi="96"
         inkscape:export-ydpi="96"><g
           id="g30564"
           transform="translate(-0.42776529,-4.277653)"
           inkscape:export-filename="canard.png"
           inkscape:export-xdpi="96"
           inkscape:export-ydpi="96"><path
             style="fill:#fff6e7;fill-opacity:1;stroke:none;stroke-width:0.3;stroke-opacity:1"
             d="m 93.253204,124.45513 c 0,0 -1.375,1.48077 -2.080127,3.77243 -0.705128,2.29167 -1.339745,3.31411 -0.951924,4.30129 0.387821,0.98717 0.669872,1.375 2.820512,1.97435 2.150641,0.59936 4.054488,0.66988 5.182692,0.10577 1.128205,-0.5641 2.080123,-0.91666 2.397433,-2.60897 0.31731,-1.69231 0.14103,-2.82051 -0.31731,-4.47757 -0.458327,-1.65705 -1.163455,-3.73717 -1.833327,-4.01923 -0.669872,-0.28205 -1.798077,-0.81089 -2.85577,-0.63461 -1.057693,0.17628 -1.903846,0.70513 -2.115383,1.1282 -0.21154,0.42308 -0.246796,0.45834 -0.246796,0.45834 z"
             id="path29403"
             transform="matrix(0.75831121,0,0,0.75831121,4.221296,40.240551)" /><path
             style="fill:#fff6e7;fill-opacity:1;stroke:none;stroke-width:0.3;stroke-opacity:1"
             d="m 86.483975,120.01282 c 0,0 -1.092949,1.62179 -2.221156,4.54808 -1.128205,2.92628 -1.410256,4.30128 -1.233974,4.58333 0.176283,0.28205 1.621795,1.30449 3.03205,1.05769 1.410259,-0.24679 2.432693,-1.41026 3.455131,-3.80769 1.022434,-2.39744 1.551281,-2.89103 1.092948,-4.23077 -0.458335,-1.33974 -1.198718,-2.00962 -1.903846,-2.15064 -0.705128,-0.14103 -2.221153,0 -2.221153,0 z"
             id="path29401"
             transform="matrix(0.75831121,0,0,0.75831121,4.221296,40.240551)" /><path
             style="display:inline;fill:#cfcfcf;fill-opacity:1;stroke:none;stroke-width:0.113069;stroke-opacity:1"
             d="m 83.070461,176.66493 c -2.50672,-0.38777 -3.77391,-0.7637 -4.17299,-1.23798 l -0.24232,-0.28798 0.48993,-1.42657 c 0.26945,-0.78462 0.5114,-1.48671 0.53765,-1.5602 0.0325,-0.0911 0.20934,0.0117 0.55565,0.32306 0.61966,0.55713 1.45486,0.84493 2.69184,0.92758 2.55803,0.17092 6.28858,-1.09494 8.32963,-2.82642 0.34972,-0.29667 0.63585,-0.51954 0.63585,-0.49527 0,0.0243 -0.17609,0.90438 -0.3913,1.95579 -0.26228,1.28131 -0.45135,1.97803 -0.57339,2.11295 -0.39484,0.43645 -2.01214,1.67489 -2.62524,2.01025 -0.3565,0.19501 -0.93986,0.42329 -1.29636,0.50728 -0.80684,0.1901 -2.70173,0.1889 -3.93895,-0.002 z"
             id="path1717" /><path
             style="display:inline;fill:#e47625;fill-opacity:1;stroke:none;stroke-width:0.113069;stroke-opacity:1"
             d="m 78.075144,248.75283 c -0.079,-0.15282 -0.19496,-0.45736 -0.25779,-0.67674 -0.11723,-0.40936 -0.58632,-0.86412 -1.96617,-1.90611 -0.81829,-0.61793 -0.90963,-0.62659 -1.54312,-0.14632 -0.84857,0.64333 -0.90203,0.5367 -0.226,-0.45074 l 0.45935,-0.67096 -0.16229,-0.34033 c -0.0893,-0.18718 -0.58098,-0.77435 -1.09271,-1.30482 -0.51173,-0.53047 -1.12008,-1.17523 -1.35189,-1.43281 -0.35339,-0.39266 -0.48743,-0.47321 -0.82977,-0.4986 -0.22456,-0.0167 -0.42579,-0.0835 -0.44718,-0.14861 -0.0533,-0.16227 0.91736,-0.90694 1.90159,-1.45882 1.83842,-1.03086 4.07792,-1.70248 9.02491,-2.70655 1.49932,-0.30431 2.83589,-0.58086 2.97015,-0.61455 0.36443,-0.0915 0.5146,-0.49032 0.63777,-1.69388 0.22912,-2.2389 -0.15266,-5.42632 -1.10586,-9.23262 -0.16058,-0.64123 -0.29197,-1.20889 -0.29197,-1.26145 0,-0.0569 0.58469,-0.0923 1.44595,-0.0875 l 1.44594,0.008 -0.004,1.30328 c -0.002,0.7168 -0.047,1.90908 -0.10005,2.6495 -0.0531,0.74042 -0.13981,3.08931 -0.19271,5.21975 l -0.0962,3.87353 -0.49694,1.04031 c -1.19686,2.50552 -3.24515,6.07537 -4.25537,7.41644 -0.73788,0.97955 -2.42026,2.75602 -3.00293,3.17088 l -0.31965,0.22759 z"
             id="path2624" /><path
             style="display:inline;fill:#e47625;fill-opacity:1;stroke:none;stroke-width:0.113069;stroke-opacity:1"
             d="m 99.105964,259.31336 c -0.19301,-0.19301 -0.37793,-0.47347 -0.41093,-0.62325 -0.033,-0.14978 -0.0702,-0.31458 -0.0826,-0.36623 -0.0124,-0.0516 -0.60489,-0.21421 -1.31661,-0.36128 -0.82563,-0.17059 -1.57739,-0.3983 -2.07687,-0.62907 -0.43056,-0.19893 -0.84659,-0.36169 -0.92453,-0.36169 -0.0779,0 -0.44909,0.3192 -0.8248,0.70934 -0.38037,0.39497 -0.7312,0.67963 -0.79161,0.6423 -0.0597,-0.0369 -0.10888,-0.25512 -0.10936,-0.48498 -5.3e-4,-0.22986 -0.0286,-0.6483 -0.0624,-0.92988 l -0.0615,-0.51196 -0.77849,-0.46308 c -0.83533,-0.49689 -1.34288,-1.00605 -2.35912,-2.3666 -0.56558,-0.75719 -0.69793,-0.87713 -1.08873,-0.98655 -0.54959,-0.15387 -0.93407,-0.44533 -0.93407,-0.70807 0,-0.25338 0.87031,-1.12414 1.64538,-1.64623 0.32908,-0.22167 1.11438,-0.68611 1.7451,-1.03211 4.16594,-2.28526 9.05511,-5.32685 9.596166,-5.96985 0.62452,-0.74221 0.43428,-2.95383 -0.873056,-10.14912 -0.84842,-4.66957 -1.1151,-5.69645 -2.04226,-7.86409 -0.48967,-1.14481 -0.61066,-2.02004 -0.37221,-2.69245 l 0.14146,-0.39888 2.832953,-0.71861 c 1.558133,-0.39524 2.882243,-0.72058 2.942463,-0.72297 0.0602,-0.002 0.19485,0.1851 0.29917,0.41666 0.1593,0.35363 0.18965,0.66085 0.18965,1.91961 0,1.49557 -7.9e-4,1.50113 -0.41973,2.75324 -0.59079,1.76598 -0.67121,2.57396 -0.5649,5.67591 0.12456,3.6346 0.0977,12.4515 -0.0406,13.31264 -0.0617,0.38393 -0.44896,2.27548 -0.86071,4.20346 -0.98679,4.62065 -1.22244,6.0261 -1.503853,8.96944 -0.127543,1.33393 -0.233553,1.73527 -0.458343,1.73527 -0.0463,0 -0.2421,-0.15791 -0.43511,-0.35092 z"
             id="path2626" /><path
             style="fill:#584a41;fill-opacity:1;stroke:none;stroke-width:0.0799515;stroke-opacity:1"
             d="m 76.112181,222.2411 c -2.29663,-1.15241 -4.3974,-2.52863 -5.45476,-3.57343 -2.55611,-2.52574 -4.22583,-6.86105 -4.87023,-12.64525 -0.1473,-1.32218 -0.16455,-4.11002 -0.0325,-5.25321 0.46392,-4.01642 1.73879,-7.87289 3.63002,-10.98078 0.25316,-0.41603 1.06079,-1.55834 1.79472,-2.53846 0.73394,-0.98012 2.0926,-2.84619 3.01927,-4.14681 2.10748,-2.95798 1.95033,-2.7445 1.89264,-2.57112 -0.0258,0.0776 -0.31534,0.90116 -0.64341,1.83023 -1.11,3.14345 -1.54543,4.9512 -1.88602,7.83002 -0.12962,1.09556 -0.27842,3.5316 -0.22434,3.67254 0.0211,0.0549 0.0985,0.0999 0.17199,0.0999 0.1567,0 0.22316,-0.34349 0.22363,-1.15568 10e-4,-1.94997 0.57753,-5.59243 1.23231,-7.78718 0.4204,-1.40912 1.93391,-5.67317 2.16346,-6.09516 0.0471,-0.0866 0.0904,-0.20509 0.0962,-0.26326 0.0105,-0.10518 1.22337,-3.46991 1.26628,-3.51281 0.0124,-0.0124 0.16729,0.0881 0.34428,0.22317 0.54327,0.41468 1.30684,0.64457 3.2882,0.99 1.59481,0.27803 2.39479,0.34686 3.55689,0.30603 1.91872,-0.0674 2.92257,-0.49135 4.67752,-1.97535 0.61004,-0.51586 0.66192,-0.54585 0.62167,-0.35943 -0.45749,2.11928 -1.14349,5.64918 -1.11731,5.74929 0.0318,0.12143 0.0816,0.12785 0.60784,0.0784 0.3153,-0.0296 1.7949,-0.0527 3.28801,-0.0512 2.85698,0.003 3.76659,0.0602 7.791659,0.49231 0.89199,0.0958 1.64831,0.17429 1.68072,0.17452 0.0324,2.4e-4 -0.58634,0.32843 -1.375,0.72932 -2.301019,1.16966 -3.895989,2.14075 -5.545909,3.37663 -2.29923,1.72223 -3.396134,3.56097 -3.662795,4.39045 0.317654,0.39047 0.485938,0.56384 0.807773,0.92521 0.449034,0.10069 0.891295,0.68409 1.445798,1.19369 l 1.153827,1.06038 -0.01791,1.055 c 0.0619,0.89034 -0.25661,3.57877 -0.41267,4.54539 -0.56271,3.48521 -3.14974,10.71252 -5.57809,15.58333 -2.31548,4.64445 -3.97897,6.58099 -6.81429,7.93283 -1.64338,0.78354 -3.02503,1.10396 -5.42057,1.2571 l -0.46992,0.0301 z"
             id="path1232"
             sodipodi:nodetypes="sssssssssssscsssscsssccscssssccsccsssccs" /><path
             style="fill:#26612d;fill-opacity:1;stroke:none;stroke-width:0.159903;stroke-opacity:1"
             d="m 81.526058,173.48639 c -0.47569,-0.16419 -0.94684,-0.45565 -1.2221,-0.75601 l -0.44796,-0.48881 0.48876,-1.53105 c 0.86426,-2.70726 1.57455,-5.71386 1.73605,-7.34853 0.32673,-3.30688 -0.47827,-6.17615 -2.12426,-7.57149 l -0.47685,-0.40425 1.27359,-1.29703 c 0.75505,-0.76895 1.45631,-1.63985 1.72236,-2.13901 1.10858,-2.07991 0.85733,-5.4756 -0.4511,-6.09675 -0.57833,-0.27455 -1.36298,-0.0455 -2.91768,0.85179 -2.30759,1.33178 -4.34859,1.72177 -5.61862,1.07358 -1.14792,-0.58587 -1.97651,-2.25151 -1.97651,-3.97323 v -0.85473 l -1.03292,-0.98826 c -0.56811,-0.54355 -1.40715,-1.21038 -1.86452,-1.48185 -0.74177,-0.44028 -0.92831,-0.49038 -1.72699,-0.46385 -0.49247,0.0163 -0.87507,-0.0154 -0.85023,-0.0705 0.0248,-0.0551 0.2947,-0.49026 0.59967,-0.96693 l 0.55449,-0.86667 0.37385,0.2764 c 0.25896,0.19146 0.69536,0.30014 1.41988,0.35363 1.42801,0.10543 1.57488,-0.0293 2.88634,-2.64785 1.1588,-2.31374 1.23063,-2.672 0.73338,-3.65806 -0.39159,-0.77654 -1.02141,-1.12231 -2.04487,-1.12261 -0.40721,-1.2e-4 -0.74039,-0.0359 -0.74039,-0.0794 0,-0.0436 0.23083,-0.55258 0.51295,-1.13114 0.56803,-1.1649 1.44605,-2.17426 1.89134,-2.17426 0.32504,0 1.11896,0.37549 1.12581,0.53246 0.0115,0.26317 0.72764,0.89762 0.9269,0.82116 0.18635,-0.0715 0.17495,-0.14212 -0.081,-0.50157 -0.50698,-0.712 -1.56319,-1.69641 -2.13084,-1.986 -0.76034,-0.3879 -1.46188,-0.34641 -2.50757,0.14828 -1.03744,0.49079 -1.03649,0.49929 -0.12297,-1.1044 0.70594,-1.23927 1.45714,-2.08577 1.9638,-2.21293 0.49244,-0.12359 1.26094,0.24924 2.01822,0.97912 0.51174,0.49323 0.61942,0.70269 0.76625,1.49054 0.2868,1.53893 0.74186,2.96154 0.94732,2.96154 0.25138,0 0.24624,-0.0508 -0.15827,-1.56232 -0.19144,-0.71534 -0.42378,-1.90983 -0.51632,-2.65441 -0.14694,-1.18234 -0.13734,-1.48773 0.0759,-2.41147 0.13425,-0.58174 0.39012,-1.375 0.56861,-1.76282 0.29664,-0.64454 0.33121,-0.67484 0.40233,-0.35257 0.89947,4.07527 1.11023,4.62479 2.46104,6.41667 1.4007,1.85803 2.09513,2.56861 2.30828,2.36197 0.14782,-0.14332 0.0891,-0.27588 -0.31231,-0.70513 -0.92496,-0.98909 -0.92433,-0.98642 -0.27225,-1.162 2.79631,-0.75297 6.05376,-0.29902 9.19992,1.28208 3.556,1.78706 5.46845,3.93452 6.48489,7.28174 0.71544,2.35601 0.43287,8.82751 -0.88528,20.27467 -0.33509,2.91 -0.68144,4.99988 -1.46911,8.86454 -1.17463,5.7633 -1.01228,5.39417 -2.93683,6.67753 -2.63472,1.75693 -6.46939,2.5998 -8.55412,1.88023 z m -2.75149,-31.37406 c 1.28215,-0.53704 1.87822,-1.73146 1.70549,-3.41746 -0.10791,-1.05321 -0.80273,-3.26064 -1.28589,-4.08523 -0.30587,-0.52201 -0.43662,-0.60844 -1.25608,-0.83025 -1.22685,-0.3321 -1.94727,-0.22717 -2.56745,0.37393 -1.02183,0.9904 -2.85483,5.26893 -2.67286,6.23892 0.11173,0.59558 0.53526,1.15154 1.09955,1.44334 1.19181,0.61632 3.81794,0.76234 4.97724,0.27675 z m 3.79537,-7.58855 c -0.53617,-0.56739 -1.30151,-1.57036 -1.70074,-2.22882 -1.50773,-2.48669 -3.20076,-3.38168 -4.48545,-2.37114 -0.38784,0.30508 -0.47932,0.68514 -0.16491,0.68514 0.10685,0 0.27876,-0.1018 0.38202,-0.22623 0.89254,-1.07544 2.4697,-0.15731 3.95563,2.30273 0.8726,1.44463 2.58262,3.27562 2.82905,3.02919 0.11832,-0.11832 -0.0913,-0.42441 -0.8156,-1.19087 z"
             id="path2133" /><path
             style="fill:#e4b125;fill-opacity:1;stroke:none;stroke-width:0.159903;stroke-opacity:1"
             d="m 58.681722,159.30126 c -3.119455,-0.64786 -4.460205,-1.0652 -6.208442,-1.93254 -2.148258,-1.0658 -4.484536,-2.75159 -5.521946,-3.98448 -0.732319,-0.87031 -0.18855,-1.20686 3.66241,-2.26673 3.966313,-1.09161 5.50999,-1.63774 6.293668,-2.22659 1.94526,-1.46163 6.96262,-6.33389 8.22496,-7.98709 0.73597,-0.96383 0.77461,-0.99133 1.6342,-1.1629 0.81255,-0.16217 0.92608,-0.15287 1.47304,0.12069 0.79848,0.39937 2.57971,1.76271 2.90354,2.22235 0.1829,0.25961 0.45556,0.71021 0.50111,1.49935 0.0752,1.30169 0.36749,2.42293 1.18468,3.26436 0.66529,0.68503 1.23722,0.8959 2.4299,0.8959 1.25994,0 2.97208,-0.54928 4.57342,-1.46721 1.56783,-0.89872 1.96266,-1.01653 2.41457,-0.72043 1.06394,0.69712 1.572801,4.42098 0.576411,6.12734 -0.56348,0.96498 -2.301899,2.9953 -3.706739,4.03414 -13.91603,5.21549 -16.186903,4.1685 -17.406042,4.14601 -0.19391,-0.004 -1.55684,-0.25649 -3.02874,-0.56217 z m 9.28813,-14.15692 c 0.32285,-0.26402 0.38828,-0.40658 0.31698,-0.69066 -0.10754,-0.42845 -0.41158,-0.54159 -1.07637,-0.40054 -0.57943,0.12294 -0.71831,0.54306 -0.36019,1.08962 0.28118,0.42913 0.5962,0.42957 1.11958,0.002 z m -2.98055,-1.0862 c 0.29188,-0.34833 0.31798,-0.81715 0.0648,-1.16342 -0.15142,-0.20709 -0.24111,-0.22199 -0.53368,-0.0887 -0.41904,0.19092 -1.18075,1.33672 -1.04002,1.56442 0.15442,0.24985 1.22324,0.0286 1.50892,-0.31231 z"
             id="path2411"
             sodipodi:nodetypes="ssssssssscsssssccscssscccssscc" /><path
             style="fill:#cfcfcf;fill-opacity:1;stroke:none;stroke-width:0.159903;stroke-opacity:1"
             d="m 98.803259,180.42712 c -2.277426,-0.15246 -4.319053,-0.38225 -6.563062,-0.27932 l -2.400115,0.1101 0.52511,-3.05093 0.50018,-2.45261 0.560195,-0.1016 c 0.231575,-0.042 1.48967,-0.16568 2.79327,-0.28966 2.31029,-0.21971 4.31098,-0.50962 8.629813,-1.25051 3.37519,-0.57901 5.6985,-0.80653 9.11711,-0.89285 3.96329,-0.10006 5.57109,0.0632 8.78291,0.89181 9.50404,2.45196 11.95557,2.96967 13.28824,2.80619 0.88447,-0.10851 2.09743,-0.68568 4.41612,-2.10135 0.96703,-0.59042 1.86848,-1.07349 2.00323,-1.07349 0.52204,0 0.50859,1.5283 -0.044,5.00641 -0.16022,1.00834 -0.78738,1.79557 -0.81477,1.84081 -0.0274,0.0453 -0.43553,-0.2691 -1.48591,-0.78995 -4.58964,-2.27586 -9.45997,-3.25386 -15.16673,-3.04557 -5.1103,0.18651 -9.73271,1.2239 -17.42601,3.91086 -1.09103,0.38106 -2.29793,1.15858 -2.33157,1.1489 -0.71008,-0.0225 -2.10658,-0.23479 -4.384011,-0.38724 z"
             id="path2620"
             sodipodi:nodetypes="zscccssssssssssssscz" /><path
             style="fill:#cfcfcf;fill-opacity:1;stroke:none;stroke-width:0.159903;stroke-opacity:1"
             d="m 83.571627,224.37976 c -1.26579,-0.17446 -3.43181,-0.72255 -4.59319,-1.16225 l -0.909,-0.34414 0.5641,-0.0928 c 1.7797,-0.29281 2.3607,-0.43067 3.37463,-0.80071 2.46578,-0.89989 4.4025,-2.4888 5.99966,-4.92218 2.44717,-3.72842 5.89842,-12.06835 7.20636,-17.41413 0.42343,-1.73064 0.69467,-3.91908 0.69488,-5.60656 l 0.08825,-1.58481 1.942741,1.69058 c 1.344694,1.17015 5.929252,3.13911 8.825582,3.75705 0.71751,0.15308 2.88132,0.29776 5.11218,0.26926 3.62069,-0.0463 3.45838,-0.18105 4.46458,-0.5469 1.4837,-0.53948 2.3803,-0.907 3.36012,-2.17559 l 1.22967,-1.59205 1.30431,0.95188 c 0.91848,0.6703 2.51157,0.86552 3.75336,0.91269 2.25882,0.0858 6.48288,-0.0389 7.66445,-0.47071 0.45851,-0.16756 1.10179,-0.48186 1.13382,-0.44984 0.14449,0.14449 -1.0945,4.69333 -1.83642,6.03448 -2.46767,4.46079 -5.38332,7.95398 -8.54381,10.23623 -2.71835,1.96296 -9.38094,5.7823 -12.39917,7.10783 -1.88759,0.82899 -8.56212,2.75775 -8.98358,2.59602 -0.11314,-0.0434 -0.20571,-0.014 -0.20571,0.0654 0,0.15077 -5.839604,1.61704 -9.907574,2.4877 -4.96145,1.06189 -7.33633,1.32977 -9.34024,1.05357 z"
             id="path2622"
             sodipodi:nodetypes="sscssssscssssscssssssssssss" /><path
             style="fill:#cfcfcf;fill-opacity:1;stroke:none;stroke-width:0.113069;stroke-opacity:1"
             d="m 108.91938,195.58433 c -4.24892,-0.2057 -5.3872,-0.99608 -6.66707,-1.58741 -1.92921,-0.89135 -3.50555,-2.1754 -6.67355,-5.02092 -0.8155,-0.73249 -1.556713,-1.73237 -1.673593,-1.79938 -0.20478,-0.11739 -0.19073,-0.14228 0.3858,-0.68356 2.60335,-2.44415 7.074923,-5.00232 11.379133,-6.50996 5.00064,-1.75157 10.09532,-3.3072 13.84455,-3.8452 1.53541,-0.22033 7.11469,-0.2524 8.72552,-0.0502 4.03986,0.5072 7.44638,1.61758 10.91936,3.55922 2.58679,1.44621 7.40369,5.02441 11.4091,8.47517 2.65879,2.29061 3.30056,2.82448 3.92691,3.26669 l 0.57743,0.40768 -0.31597,0.13285 c -0.49546,0.20833 -2.43417,0.79451 -3.53133,1.06772 -2.30735,0.57457 -4.46728,0.78011 -5.93902,0.56516 -1.98563,-0.29 -5.6631,-1.41119 -8.83113,-2.69245 -0.8079,-0.32674 -1.59705,-0.5706 -1.55137,-0.54312 0.24319,0.1463 0.54238,0.40985 2.17861,1.39742 l 1.76748,1.06677 -1.06015,0.38561 c -0.46697,0.16985 -3.62441,0.33741 -5.81042,0.47952 -2.31614,0.15057 -5.91375,0.12463 -7.08013,-0.0511 -1.77123,-0.26678 -4.4126,-1.06486 -6.46957,-1.95474 -0.48688,-0.21064 -0.9213,-0.36069 -0.96538,-0.33345 -0.0441,0.0272 -0.10968,0.002 -0.14577,-0.0567 -0.0693,-0.11205 -0.34704,0.0524 -0.34704,0.20545 0,0.0429 0.92806,0.46709 1.94047,1.17105 1.01241,0.70397 1.93268,1.16308 1.89269,1.20307 -0.04,0.04 -0.88494,0.63352 -1.60344,0.90761 -1.10212,0.42044 -1.47599,1.03797 -2.39129,1.12476 -0.9929,0.0942 -2.82004,0.0843 -4.32583,0.0115 z"
             id="path3815"
             sodipodi:nodetypes="csssssscssscsssssscsscsscssssccc" /><path
             style="fill:#352d27;fill-opacity:1;stroke:none;stroke-width:0.113069;stroke-opacity:1"
             d="m 108.39585,198.17815 c -3.68433,-0.25646 -6.6491,-1.26322 -9.290533,-3.15479 -1.16201,-0.83214 -4.41547,-3.54023 -5.60008,-4.66133 -0.89834,-0.85019 -0.95382,-0.92572 -0.89901,-1.22398 0.0892,-0.48567 0.39329,-1.13493 0.77493,-1.65483 l 0.34469,-0.46955 0.77944,0.75367 c 1.77437,1.71572 4.68625,4.08154 6.593543,5.35707 1.72875,1.15613 2.70787,1.60761 4.08605,1.88409 2.97677,0.59718 8.88922,0.98402 11.52181,0.75384 1.1441,-0.10003 1.57887,-0.78134 2.74974,-1.22056 0.7208,-0.27038 1.73479,-1.1393 1.75997,-1.11412 0.073,0.073 -1.64486,2.49353 -2.30007,2.99256 -0.77045,0.58679 -2.17728,1.26547 -3.19105,1.53943 -0.72401,0.19565 -1.07431,0.21748 -3.78937,0.23613 -1.64538,0.0113 -3.23841,0.003 -3.54006,-0.0176 z"
             id="path3817"
             sodipodi:nodetypes="ssscscsssssssssss" /><path
             style="fill:#352d27;fill-opacity:1;stroke:none;stroke-width:0.113069;stroke-opacity:1"
             d="m 125.92219,195.74354 c -1.49862,-0.15161 -2.74127,-0.45384 -3.64091,-0.88552 -0.53851,-0.25839 -0.85896,-0.47326 -0.89153,-0.59778 -0.028,-0.10692 -0.65844,-0.38973 -1.30966,-0.84177 -0.65123,-0.45203 -3.03176,-1.53748 -3.10598,-2.1517 -0.0254,-0.21032 2.22891,0.65191 3.18872,1.02143 0.94409,0.36347 2.67998,0.77017 3.36556,0.92495 1.24495,0.28106 1.47526,0.55563 5.01094,0.54817 3.2966,-0.007 6.33966,-0.53691 9.63027,-0.88611 l 0.57858,-0.0614 -0.4986,0.3665 c -0.58426,0.42946 -2.42932,1.27764 -3.2783,1.55822 -1.48719,0.49149 -1.73759,1.03891 -5.03587,1.06673 -1.72765,0.0146 -3.5336,-0.0132 -4.01322,-0.0617 z"
             id="path3819"
             sodipodi:nodetypes="ssssssssscsssss" /><path
             style="fill:#352d27;fill-opacity:1;stroke:none;stroke-width:0.113069;stroke-opacity:1"
             d="m 145.08554,195.18142 c -1.07698,-0.13485 -2.0562,-0.42736 -3.5357,-1.05621 -1.5215,-0.28833 -3.71364,-1.79706 -4.33103,-2.16069 -0.61739,-0.36364 -0.62797,-0.38727 -1.32998,-0.89223 -0.58723,-0.4224 -1.05408,-0.7816 -1.03745,-0.79823 0.0166,-0.0166 0.34003,0.088 0.71867,0.23249 2.61007,0.99608 6.73583,2.4652 8.50947,2.75484 2.24029,0.36585 5.82848,-0.0637 9.32642,-1.26985 0.6298,-0.21716 1.20353,-0.39484 1.27497,-0.39484 0.0714,0 0.32661,0.20044 0.56704,0.44543 0.39686,0.40437 0.42673,0.46833 0.32398,0.69385 -0.12866,0.28236 -1.47576,0.97139 -2.71931,1.39089 -2.60031,0.8772 -5.75873,1.30603 -7.76708,1.05455 z"
             id="path3821"
             sodipodi:nodetypes="sczsscsssssss" /><path
             style="fill:#cfcfcf;fill-opacity:1;stroke:none;stroke-width:0.0799515;stroke-opacity:1"
             d="m 91.176398,174.40728 c 0.002,-0.0221 0.23207,-1.15059 0.51122,-2.50784 l 0.50754,-2.46773 0.27685,-0.0906 c 0.9004,-0.29469 4.73995,-0.95344 6.84495,-1.17439 3.260532,-0.34223 7.665752,-0.34265 11.987182,-0.001 2.91191,0.23011 4.37098,0.49891 6.55769,1.20809 1.64864,0.53467 2.70881,1.01699 2.86116,1.30165 0.10887,0.20344 -0.16381,0.62376 -0.81132,1.25058 -0.51209,0.49572 -0.54982,0.51837 -0.80005,0.48018 -0.14444,-0.022 -0.6763,-0.10299 -1.18191,-0.17988 -3.93354,-0.59818 -10.4115,-0.24487 -16.49737,0.89975 -2.794572,0.5256 -6.098332,0.98265 -8.214742,1.13645 -0.60112,0.0437 -1.30713,0.10318 -1.56891,0.13221 -0.26178,0.029 -0.47431,0.0347 -0.47229,0.0127 z"
             id="path4896" /><path
             style="fill:#000000;fill-opacity:1;stroke:none;stroke-width:0.155265;stroke-opacity:1"
             d="m 75.087062,137.05108 c 0,0 -0.368699,-0.15893 -0.687121,0.59602 -0.318422,0.75494 -0.620084,1.54963 -0.134072,1.92711 0.486011,0.37747 1.072578,0.2384 1.256927,-0.41721 0.18435,-0.65562 0.301664,-1.76817 0.117314,-1.90725 -0.18435,-0.13907 -0.553048,-0.19867 -0.553048,-0.19867 z"
             id="path10061" /><path
             style="fill:#000000;fill-opacity:1;stroke:none;stroke-width:0.139333;stroke-opacity:1"
             d="m 69.604053,134.65583 c 0,0 -0.256829,-0.22467 -0.6505,0.46241 -0.393669,0.68709 -0.781926,1.41649 -0.475733,1.87853 0.306192,0.46204 0.790278,0.43244 1.060289,-0.18117 0.270011,-0.61361 0.575776,-1.6908 0.458842,-1.862 -0.116934,-0.17119 -0.392898,-0.29777 -0.392898,-0.29777 z"
             id="path10061-9" /><path
             style="fill:#000000;fill-opacity:1;stroke:none;stroke-width:0.0327363;stroke-opacity:1"
             d="m 63.360981,144.57978 c -0.175507,-0.064 -0.1956,-0.12054 -0.118745,-0.33412 0.169243,-0.47032 0.731192,-1.21956 1.08745,-1.44987 0.07577,-0.049 0.206325,-0.10852 0.290124,-0.13229 0.135398,-0.0384 0.16178,-0.0385 0.236895,-6.1e-4 0.101571,0.0513 0.223607,0.20179 0.299681,0.36964 0.155139,0.34231 0.07715,0.78909 -0.191137,1.095 -0.271949,0.31008 -1.24324,0.58388 -1.604268,0.45222 z"
             id="path13892" /><path
             style="fill:#000000;fill-opacity:1;stroke:none;stroke-width:0.0375822;stroke-opacity:1"
             d="m 66.320067,145.44703 c -0.01855,-0.3031 0.246784,-0.95969 0.503399,-1.24571 0.102383,-0.11413 0.315562,-0.2525 0.456973,-0.29662 0.276219,-0.0862 0.688603,0.027 0.994502,0.27285 0.201717,0.16258 0.26286,0.34584 0.199025,0.59956 -0.04819,0.19154 -0.261093,0.53672 -0.418293,0.6782 -0.15707,0.14137 -0.465636,0.25601 -0.83931,0.31181 -0.605934,0.0905 -0.877093,-0.006 -0.896296,-0.32009 z"
             id="path13894" /><path
             style="fill:none;fill-opacity:1;stroke:#994d12;stroke-width:0.3;stroke-opacity:1"
             d="m 72.169871,241.22436 c 0,0 4.160255,-2.22116 6.310897,-2.50321 2.150642,-0.28205 2.467949,-0.28205 2.467949,-0.28205 0,0 -4.442307,3.5609 -5.182693,4.65385 -0.740383,1.09294 -0.951923,1.26923 -0.951923,1.26923"
             id="path13896" /><path
             style="fill:none;fill-opacity:1;stroke:#994d12;stroke-width:0.3;stroke-opacity:1"
             d="m 75.977564,245.13782 c 0,0 5.147434,-4.97116 6.205127,-5.71154 1.057693,-0.74038 1.375,-0.88141 1.375,-0.88141 0,0 -3.173076,5.95833 -3.948718,7.01602 -0.77564,1.0577 -1.304486,1.69231 -1.304486,1.69231"
             id="path15032" /><path
             style="fill:none;fill-opacity:1;stroke:#994d12;stroke-width:0.3;stroke-opacity:1"
             d="m 89.586537,252.01282 c 0,0 5.605769,-4.58333 6.910258,-5.25321 1.304486,-0.66987 1.480767,-0.66987 1.480767,-0.66987 0,0 -5.217949,7.96795 -5.323716,8.63782 -0.10577,0.66987 -0.10577,0.66987 -0.10577,0.66987"
             id="path15034" /><path
             style="fill:none;fill-opacity:1;stroke:#994d12;stroke-width:0.3;stroke-opacity:1"
             d="m 94.66346,256.10256 c 0,-0.17628 2.503207,-6.45192 3.913463,-8.42628 1.410255,-1.97436 1.903847,-2.29167 1.903847,-2.29167 0,0 -1.128208,6.09936 -1.69231,8.21475 -0.564103,2.11538 -0.317307,3.8782 -0.317307,3.8782"
             id="path15036" /><path
             style="fill:#95740f;fill-opacity:1;stroke:none;stroke-width:0.3;stroke-opacity:1"
             d="m 61.577214,159.90132 c 0,0 3.739507,-0.4986 8.825238,-3.63979 5.085728,-3.14119 9.523277,-6.58153 9.972018,-7.27957 0.448742,-0.69804 1.296364,-1.59552 1.146781,-1.14678 -0.149579,0.44874 -1.047062,1.7451 -2.742305,3.19104 -1.695241,1.44594 -8.775375,6.53167 -10.071738,7.08013 -1.296363,0.54847 -3.589927,1.79497 -4.287967,1.79497 -0.698042,0 -2.842027,0 -2.842027,0 z"
             id="path21504" /><path
             style="fill:#352d27;fill-opacity:1;stroke:none;stroke-width:0.3;stroke-opacity:1"
             d="m 100.71739,182.0392 c 0,0 7.47901,-4.48741 16.10481,-5.73391 8.6258,-1.2465 13.32783,-0.27326 15.51462,0.30266 3.95666,1.04205 7.14908,2.8002 7.14908,2.8002 l 0.93775,0.98814 c 0,0 -4.85406,-2.54538 -7.84566,-3.34314 -2.99161,-0.79776 -7.42916,-1.14678 -9.92216,-0.94734 -2.49301,0.19944 -4.08853,-0.19944 -10.07174,1.59552 -5.98321,1.79496 -11.8667,4.33783 -11.8667,4.33783 z"
             id="path24886"
             sodipodi:nodetypes="cssccssscc" /><path
             style="fill:#352d27;fill-opacity:1;stroke:none;stroke-width:0.3;stroke-opacity:1"
             d="m 78.163461,175.92949 c 0,0 -2.397437,4.4423 -3.24359,7.29807 -0.846154,2.85577 -1.379752,6.04448 -1.657051,8.4968 -0.279066,2.46795 0.202487,2.78525 0.440706,2.15063 0.226098,-0.60232 0.06079,-4.47031 1.286859,-8.5673 1.239992,-4.14363 3.340913,-9.40617 3.173076,-9.3782 z"
             id="path24942"
             sodipodi:nodetypes="cssssc" /><path
             style="fill:#352d27;fill-opacity:1;stroke:none;stroke-width:0.3;stroke-opacity:1"
             d="m 90.573717,174.58974 c 0,0 9.554493,-1.30449 11.810903,-1.79807 2.25641,-0.4936 6.59295,-0.77565 8.67308,-0.84616 2.08012,-0.0705 5.71153,0.17628 6.76923,0.31731 1.05769,0.14102 2.18589,0.74038 2.18589,0.74038 0,0 -5.2532,-1.02243 -9.09615,-0.66987 -3.84295,0.35257 -9.625,1.09295 -11.282056,1.375 -1.657051,0.28205 -6.945513,0.91667 -7.791667,0.98718 -0.846153,0.0705 -1.26923,-0.10577 -1.26923,-0.10577 z"
             id="path26396" /><path
             style="fill:#352d27;fill-opacity:1;stroke:none;stroke-width:0.3;stroke-opacity:1"
             d="m 92.195511,169.38942 -1.05769,5.16507 -0.440706,0.0881 c 0,0 0.881409,-3.34936 1.040064,-4.03686 0.158655,-0.6875 0.141025,-1.07532 0.458332,-1.21635 z"
             id="path26398" /><path
             style="fill:#352d27;fill-opacity:1;stroke:none;stroke-width:0.306934;stroke-opacity:1"
             d="m 75.812272,130.31396 c 0,0 0.684551,-1.18073 1.85764,-0.95113 1.17309,0.22959 1.963651,0.76531 3.034734,2.29596 1.071083,1.53063 2.346181,3.31637 2.754213,3.67351 0.408031,0.35715 0.233521,0.97665 -0.14902,0.72154 -0.38253,-0.2551 -1.632127,-1.32654 -2.677707,-2.9082 -1.045582,-1.58165 -2.269676,-2.98474 -2.830718,-3.03576 -0.561045,-0.0511 -0.943573,0.4847 -1.428113,0.51021 -0.484536,0.0255 -0.561042,-0.30613 -0.561042,-0.30613 z"
             id="path27126"
             sodipodi:nodetypes="cssssscscc" /><path
             style="fill:#352d27;fill-opacity:1;stroke:none;stroke-width:0.3;stroke-opacity:1"
             d="m 71.78205,128.24519 c 0,0 0.705128,-0.14102 1.339744,0.44071 0.634617,0.58173 1.26923,0.93429 1.392629,0.93429 0.123397,0 0.123397,-0.54647 -0.282051,-0.79327 -0.40545,-0.24679 -0.458335,-0.5641 -0.881412,-0.84615 -0.423076,-0.28205 -0.828524,-0.38782 -1.075319,-0.2468 -0.246796,0.14103 -0.493591,0.51122 -0.493591,0.51122 z"
             id="path27128" /><path
             style="fill:#1b4721;fill-opacity:1;stroke:none;stroke-width:0.3;stroke-opacity:1"
             d="m 78.304487,127.24038 c 0,0 1.128204,1.6218 1.692307,1.90385 0.564102,0.28205 0.881411,0.10577 0.352565,-0.38782 -0.528847,-0.49359 -0.740386,-1.16346 -1.092949,-1.26923 -0.352565,-0.10577 -0.951923,-0.2468 -0.951923,-0.2468 z"
             id="path27856" /><path
             style="fill:#1b4721;fill-opacity:1;stroke:none;stroke-width:0.314788;stroke-opacity:1"
             d="m 73.992878,125.97189 c 0,0 0.271725,1.44551 0.659902,2.43269 0.38818,0.98718 0.970447,1.19872 0.970447,1.19872 0,0 -0.116454,0.0705 -0.388179,-1.16347 -0.271723,-1.23397 -0.388176,-1.76282 -0.543448,-2.04487 -0.155272,-0.28205 -0.698722,-0.42307 -0.698722,-0.42307 z"
             id="path27858" /></g></g></g></g></svg>
