<?xml version="1.0" encoding="UTF-8" standalone="no"?>
<!-- Created with Inkscape (http://www.inkscape.org/) -->

<svg
   xmlns:dc="http://purl.org/dc/elements/1.1/"
   xmlns:cc="http://creativecommons.org/ns#"
   xmlns:rdf="http://www.w3.org/1999/02/22-rdf-syntax-ns#"
   xmlns:svg="http://www.w3.org/2000/svg"
   xmlns="http://www.w3.org/2000/svg"
   xmlns:sodipodi="http://sodipodi.sourceforge.net/DTD/sodipodi-0.dtd"
   xmlns:inkscape="http://www.inkscape.org/namespaces/inkscape"
   width="210mm"
   height="297mm"
   viewBox="0 0 210 297"
   version="1.1"
   id="svg8"
   inkscape:version="0.92.4 (5da689c313, 2019-01-14)"
   sodipodi:docname="dessin_poussin.svg">
  <defs
     id="defs2" />
  <sodipodi:namedview
     id="base"
     pagecolor="#ffffff"
     bordercolor="#666666"
     borderopacity="1.0"
     inkscape:pageopacity="0.0"
     inkscape:pageshadow="2"
     inkscape:zoom="0.7"
     inkscape:cx="425.19892"
     inkscape:cy="670.15899"
     inkscape:document-units="mm"
     inkscape:current-layer="layer1"
     showgrid="false"
     inkscape:snap-global="false"
     inkscape:window-width="1920"
     inkscape:window-height="1009"
     inkscape:window-x="-8"
     inkscape:window-y="-8"
     inkscape:window-maximized="1" />
  <metadata
     id="metadata5">
    <rdf:RDF>
      <cc:Work
         rdf:about="">
        <dc:format>image/svg+xml</dc:format>
        <dc:type
           rdf:resource="http://purl.org/dc/dcmitype/StillImage" />
        <dc:title />
      </cc:Work>
    </rdf:RDF>
  </metadata>
  <g
     inkscape:label="Calque 1"
     inkscape:groupmode="layer"
     id="layer1">
    <path
       style="fill:none;stroke:#000000;stroke-width:0.26458332px;stroke-linecap:butt;stroke-linejoin:miter;stroke-opacity:1"
       d="m 12.733612,20.4679 c 0,0 -0.283484,-7.110677 4.393973,-8.976934 3.996975,-1.5947501 4.724705,-1.6063991 4.724705,-1.6063991 0,0 -3.023813,-2.834822 -1.984379,-2.929316 1.039439,-0.09449 3.307289,1.700893 3.307289,1.700893 0,0 1.13393,-4.063243 1.98438,-4.063243 0.85045,0 -0.18899,4.535712 -0.18899,4.535712 0,0 5.10268,0.472472 7.37054,3.9687501 2.26785,3.496281 2.74032,7.559524 1.88987,9.638395 -0.85044,2.078868 -0.37797,3.590771 3.11831,4.535712 3.49628,0.944941 6.45605,1.445089 7.40099,1.917558 0.94494,0.472472 2.75654,0.80459 2.75654,0.80459 0,0 -1.33913,-2.127506 -0.77216,-2.410989 0.56696,-0.28348 1.79538,0.566965 2.26785,1.511906 0.47247,0.944941 -0.0945,0.944941 -0.0945,0.944941 0,0 1.51191,-3.96875 2.55135,-3.96875 1.03943,0 1.98437,3.023809 1.41741,3.874257 -0.56697,0.850444 -1.53287,3.196579 -1.53287,3.196579 0,0 -2.72134,7.89362 -4.80021,9.87799 -2.07887,1.98438 -7.00009,5.39763 -12.17433,5.5704 -5.57284,0.18608 -11.38318,0.41515 -16.202371,-3.83708 -4.819198,-4.25223 -6.709077,-9.07143 -5.291667,-12.85119 1.41741,-3.779764 0.212611,-6.968939 0.212611,-6.968939"
       id="path826"
       inkscape:connector-curvature="0"
       sodipodi:nodetypes="cscccscssscccscscccsssc" />
    <path
       style="fill:none;stroke:#000000;stroke-width:0.26458332px;stroke-linecap:butt;stroke-linejoin:miter;stroke-opacity:1"
       d="m 24.02565,30.956738 c 0,0 1.70089,5.575154 4.44122,6.803574 2.74033,1.22843 6.42559,1.7009 8.31547,1.6064 1.88989,-0.0945 2.07887,-3.1183 1.7009,-4.15774 -0.37798,-1.03943 -3.96875,-4.535714 -5.48066,-5.386162 -1.5119,-0.850447 -3.0238,-1.41741 -3.0238,-1.41741"
       id="path828"
       inkscape:connector-curvature="0" />
    <path
       style="fill:none;stroke:#000000;stroke-width:0.26458332px;stroke-linecap:butt;stroke-linejoin:miter;stroke-opacity:1"
       d="m 18.508414,15.164283 c 0,0 -1.336347,1.00226 -1.570207,2.204971 -0.233863,1.202714 -0.133636,2.271792 0.668173,2.772923 0.801809,0.501129 2.271789,0.768401 2.839739,-0.100227 0.567941,-0.868627 1.302941,-2.204974 0.734991,-3.441094 -0.567949,-1.236122 -1.77066,-1.670436 -2.672696,-1.436573 z"
       id="path830"
       inkscape:connector-curvature="0" />
    <path
       style="fill:none;stroke:#000000;stroke-width:0.26458332px;stroke-linecap:butt;stroke-linejoin:miter;stroke-opacity:1"
       d="m 13.998241,14.663151 c 0,0 1.403165,-0.300678 1.570207,0.467723 0.167045,0.7684 0.167045,1.870884 -0.167042,2.53906 -0.334087,0.668174 -0.05215,1.080223 -1.336347,1.135894 -1.2842,0.05567 -1.2842,0.05567 -1.2842,0.05567"
       id="path832"
       inkscape:connector-curvature="0" />
    <path
       style="fill:none;stroke:#000000;stroke-width:0.26458332px;stroke-linecap:butt;stroke-linejoin:miter;stroke-opacity:1"
       d="M 13.730973,19.874906 9.2542068,22.61442 c 0,0 -0.668174,0.467723 -0.367496,0.801809 0.300678,0.334087 3.1465862,1.16359 4.2763122,1.46998 1.129729,0.306393 2.639288,0.56795 3.474503,0.200454 0.835218,-0.367496 3.006783,-1.904296 3.040192,-2.238383 0.03341,-0.334087 -0.133635,-1.069078 -1.469982,-1.202711 -1.336347,-0.133636 -2.57247,-0.467723 -2.873148,-0.868627 -0.300677,-0.400905 -0.601355,-0.835218 -0.734991,-0.868627 -0.133633,-0.03341 0.133638,-0.23386 -0.868624,-0.03341 z"
       id="path836"
       inkscape:connector-curvature="0" />
    <path
       style="fill:none;stroke:#000000;stroke-width:0.26458332px;stroke-linecap:butt;stroke-linejoin:miter;stroke-opacity:1"
       d="m 29.22954,48.558922 c 0.56696,0.61421 0.27676,0.9659 2.07215,1.86359 1.79539,0.8977 4.77195,0.80321 5.57515,0.37798 0.8032,-0.42522 2.4096,-1.84263 2.74033,-2.36235 0.33073,-0.51972 0.89769,-1.3587 0.89769,-1.3587"
       id="path838"
       inkscape:connector-curvature="0"
       sodipodi:nodetypes="cccsc" />
    <path
       style="fill:none;stroke:#000000;stroke-width:0.26458332px;stroke-linecap:butt;stroke-linejoin:miter;stroke-opacity:1"
       d="m 24.15118,47.902212 c 0,0 1.48087,2.75654 3.79597,2.94553 2.3151,0.18899 2.97656,-0.61421 2.97656,-0.61421"
       id="path840"
       inkscape:connector-curvature="0"
       sodipodi:nodetypes="csc" />
    <path
       style="fill:none;stroke:#000000;stroke-width:0.26458332px;stroke-linecap:butt;stroke-linejoin:miter;stroke-opacity:1"
       d="m 27.38019,50.942232 0.28348,5.14993"
       id="path842"
       inkscape:connector-curvature="0" />
    <path
       style="fill:none;stroke:#000000;stroke-width:0.26458332px;stroke-linecap:butt;stroke-linejoin:miter;stroke-opacity:1"
       d="m 29.78979,50.800492 c 0,0 -0.85045,4.11049 -0.94495,4.7247 -0.0945,0.61422 -0.14173,0.75596 -0.14173,0.75596 l 1.84263,0.47247 c 0,0 -1.08668,-0.0945 -1.84263,0.89769 -0.75596,0.99219 -1.84264,2.69308 -1.84264,2.69308 0,0 -0.33073,-0.37798 -0.0945,-0.99219 0.23624,-0.61421 0.42522,-1.18117 0.42522,-1.18117 0,0 -1.70089,1.37016 -1.79538,1.55915 -0.0945,0.18899 -0.51972,0 -0.0472,-0.70871 0.47247,-0.7087 1.27567,-1.37016 1.27567,-1.37016 0,0 -1.41741,0.89769 -1.6064,1.22842 -0.18899,0.33073 -0.51972,0.61421 -0.51972,0.61421 0,0 0.33073,-1.60639 1.22842,-2.3151 0.8977,-0.7087 1.93713,-1.08668 1.93713,-1.08668"
       id="path844"
       inkscape:connector-curvature="0" />
    <path
       style="fill:none;stroke:#000000;stroke-width:0.26458332px;stroke-linecap:butt;stroke-linejoin:miter;stroke-opacity:1"
       d="m 33.47505,51.178472 0.70871,5.19717 c 0,0 -1.81243,0.95624 -2.02643,1.21604 -0.29856,0.36246 0.94904,0.0848 0.71672,0.29665 -0.4154,0.37878 -0.33145,0.3165 -0.95815,0.9914 -1.22842,1.32292 -1.32292,1.6064 -1.32292,1.6064 0,0 2.88207,-1.98437 2.88207,-1.93713 0,0.0473 -1.03943,1.6064 -1.08668,2.22061 -0.0473,0.61421 -0.0955,0.65286 0.42424,0.32213 0.51972,-0.33073 1.79637,-2.44824 1.79637,-2.44824 0,0 0.56697,0.89769 0.56697,1.70089 0,0.8032 0.14174,1.18118 0.47247,0.89769 0.33073,-0.28348 -0.0945,-3.68526 -0.14175,-3.96875 -0.0472,-0.28348 0.51972,-6.04761 0.51972,-6.04761"
       id="path846"
       inkscape:connector-curvature="0"
       sodipodi:nodetypes="ccssccscccsccc" />
    <path
       style="fill:none;stroke:#000000;stroke-width:0.26458332px;stroke-linecap:butt;stroke-linejoin:miter;stroke-opacity:1"
       d="m 8.9201198,23.082143 c 0,0 4.0758612,1.035669 5.8131132,0.801806 1.737251,-0.23386 3.741772,-1.135896 3.741772,-1.135896"
       id="path848"
       inkscape:connector-curvature="0" />
    <path
       style="fill:none;stroke:#000000;stroke-width:0.26458332px;stroke-linecap:butt;stroke-linejoin:miter;stroke-opacity:1"
       d="m 24.02085,30.933185 c 0,0 0.83522,-1.369759 2.3052,-1.971114 1.46998,-0.601356 3.77518,-0.601356 3.77518,-0.601356"
       id="path867"
       inkscape:connector-curvature="0" />
    <path
       style="fill:#111111;fill-opacity:1;stroke:none;stroke-width:0.30886075px;stroke-linecap:butt;stroke-linejoin:miter;stroke-opacity:1"
       d="m 17.87372,16.610639 c 0,0 -0.553409,0.321561 -0.595979,1.071865 -0.04257,0.750303 -0.21285,1.750707 0.383128,1.822165 0.595977,0.07146 1.447374,-0.07146 1.617654,-0.821761 0.170277,-0.750305 0.255418,-1.42915 -0.17028,-1.750708 -0.425699,-0.321561 -1.234523,-0.321561 -1.234523,-0.321561 z"
       id="path850"
       inkscape:connector-curvature="0" />
    <path
       style="fill:#111111;fill-opacity:1;stroke:none;stroke-width:0.26458332px;stroke-linecap:butt;stroke-linejoin:miter;stroke-opacity:1"
       d="m 14.840438,15.575628 c 0,0 0.366342,0.380566 0.260471,1.074919 -0.10587,0.694352 -0.159698,1.637757 -0.631402,1.610843 -0.471704,-0.02691 -1.1003,-0.289937 -1.092681,-1.00409 0.0076,-0.714156 0.06754,-1.349609 0.454451,-1.578349 0.386911,-0.228742 1.009161,-0.103323 1.009161,-0.103323 z"
       id="path850-2"
       inkscape:connector-curvature="0" />
    <g
       id="g858"
       transform="translate(33.261904,-86.556548)">
      <path
         inkscape:export-ydpi="96"
         inkscape:export-xdpi="96"
         sodipodi:nodetypes="ccccscscsccsscccccccccscccccc"
         inkscape:connector-curvature="0"
         id="path891"
         d="m 115.78902,276.0616 c -0.0938,-0.41528 -0.17233,-1.18538 -0.49681,-2.48715 -1.05478,-2.42829 -0.51311,-1.46966 -1.23677,-3.01958 -0.53471,-1.0956 -0.58654,-1.14744 -0.7922,-0.79194 -0.12114,0.20918 -0.78474,0.85892 -1.67191,2.53264 -0.88718,1.67375 -0.83521,1.54606 -1.35945,2.39178 -0.89205,1.43912 -2.1509,2.96846 -2.4434,2.96846 -0.23955,0 0.0631,-1.87064 0.52836,-3.2668 0.25388,-0.76232 -0.33372,0.47227 0.3656,-1.02101 0.69946,-1.49324 1.31198,-2.8436 1.36108,-3.00081 0.0577,-0.18495 -0.0741,-0.36877 -0.37232,-0.52066 -0.44149,-0.22453 -0.59982,-0.12113 -3.63077,2.37308 -1.74302,1.43431 -3.20951,2.5583 -3.25888,2.49766 -0.0836,-0.10271 1.4872,-2.27203 4.26863,-5.8958 1.23312,-1.60657 1.32949,-2.00288 0.5729,-2.35609 -0.21532,-0.10066 -0.73144,-0.18529 -1.14686,-0.18802 l -0.75532,-0.003 1.12857,-0.88171 c 0.6207,-0.485 2.14425,-1.56855 3.38566,-2.40802 1.24144,-0.83944 2.27753,-1.54197 2.30247,-1.56118 0.0239,-0.0205 -0.50103,-4.93892 -1.16886,-10.93266 -0.6678,-5.99381 -1.21425,-10.92837 -1.21425,-10.9658 -3e-5,-0.0379 1.70484,-0.0679 3.78862,-0.0679 2.97447,0 3.78872,0.0546 3.78879,0.25387 7e-5,0.13957 -0.25115,3.52529 -0.55826,7.52363 -1.20217,15.65159 -1.26134,16.82523 -0.98422,19.5148 0.78743,7.64293 0.58064,9.73739 -0.0406,9.99181 -0.10612,0.0433 -0.26377,-0.25388 -0.35956,-0.67745 z"
         style="fill:#e88b20;fill-opacity:1;stroke:none;stroke-width:0.17866318" />
      <path
         inkscape:export-ydpi="96"
         inkscape:export-xdpi="96"
         inkscape:connector-curvature="0"
         id="path889"
         d="m 86.824454,264.5182 c 0,-0.34414 0.262068,-1.3417 0.582316,-2.21683 0.962689,-2.63067 1.658875,-4.735 1.5664,-4.735 -0.204399,0 -5.268858,4.20445 -6.56814,5.45265 -0.905704,0.87011 -0.947471,0.89158 -0.839163,0.432 0.19928,-0.84534 1.578275,-2.68735 3.2609,-4.35558 1.566435,-1.55299 1.620555,-1.62983 1.391041,-1.9755 -0.131375,-0.19792 -0.305746,-0.3597 -0.387505,-0.3597 -0.189726,0 -3.309288,2.17052 -4.527732,3.15017 -0.509872,0.40993 -0.927031,0.65985 -0.927031,0.55536 0,-0.10442 0.306428,-0.78146 0.681342,-1.5044 0.940236,-1.81389 2.41621,-3.25609 4.740423,-4.63187 0.985211,-0.58321 2.309029,-1.27243 2.941779,-1.53163 0.727716,-0.29824 1.122353,-0.54529 1.074,-0.67278 -0.04197,-0.1109 0.03412,-0.20167 0.166863,-0.20167 0.203376,0 0.227945,-0.19211 0.14912,-1.16886 -0.09555,-1.18344 -0.886526,-15.48677 -0.886561,-16.02947 -3.4e-5,-0.27572 0.217708,-0.29448 3.466256,-0.29448 1.90644,0 3.466289,0.056 3.466289,0.12455 3.4e-5,0.0686 -0.546315,2.82545 -1.21411,6.12644 -1.832359,9.05765 -2.372737,12.0846 -2.178814,12.20444 0.09248,0.057 1.026466,0.31018 2.075795,0.56222 l 1.907874,0.45845 -1.110103,0.55536 c -0.610536,0.3054 -1.4915,0.92928 -1.957626,1.38629 -0.876971,0.85978 -3.099735,3.907 -5.342257,7.32381 -0.709392,1.08086 -1.344223,1.96656 -1.410696,1.96827 -0.06654,0.002 -0.120797,-0.27845 -0.120797,-0.62258 z"
         style="fill:#e88b20;fill-opacity:1;stroke:none;stroke-width:0.16122295" />
      <path
         inkscape:export-ydpi="96"
         inkscape:export-xdpi="96"
         sodipodi:nodetypes="ccccccccccccccccccccsccccccccsccscccccsccccccccccssccccscccsccczccccccccccccccccsccccsccscccs"
         inkscape:connector-curvature="0"
         id="path869"
         d="m 98.208806,236.00861 c -12.524756,-0.83272 -22.378879,-4.1117 -30.690179,-10.21215 -2.550076,-1.87177 -6.675903,-5.60501 -9.04806,-8.18709 -9.146846,-9.95639 -13.747363,-19.69415 -13.755178,-29.11504 -0.0027,-3.43473 0.320419,-5.25634 1.636764,-9.22148 2.34711,-7.07037 2.795286,-13.95336 1.343301,-20.6295 -0.243299,-1.11898 -0.412859,-2.06413 -0.376654,-2.10037 0.03617,-0.0362 1.087206,0.14571 2.335543,0.40406 3.237219,0.67015 7.071256,0.67366 8.778211,0.007 2.28074,-0.88942 9.263992,-5.73 10.46012,-7.25064 0.63838,-0.81156 0.60279,-1.99028 -0.09589,-3.18276 -0.834454,-1.42387 -2.245491,-2.03184 -6.042402,-2.60338 -5.396514,-0.81234 -7.2819,-1.49563 -8.578896,-3.10892 -0.485815,-0.60427 -1.320542,-1.55149 -1.854983,-2.10495 l -0.971732,-1.00629 -1.476451,0.13785 c -1.161936,0.10852 -1.749439,0.31254 -2.758229,0.95784 -0.704989,0.45097 -1.333099,0.76866 -1.395784,0.70596 -0.09486,-0.0948 0.141954,-3.7706 0.244665,-3.79674 0.01706,-0.004 1.339344,-0.0978 2.935637,-0.20699 4.104738,-0.28077 4.385915,-0.44423 5.471858,-3.18099 1.13921,-2.87099 1.394726,-4.33023 1.27154,-7.26115 -0.164475,-3.91631 -0.975349,-4.91864 -4.001412,-4.94722 -0.783098,-0.007 -1.424345,-0.0703 -1.425028,-0.1398 -0.0027,-0.25313 1.452702,-2.41778 2.580924,-3.83923 1.439393,-1.81346 3.615374,-3.6262 5.612583,-4.67571 3.769647,-1.9809 15.958902,-6.28443 17.816648,-6.29033 0.449337,-0.002 0.881987,-0.0675 0.961358,-0.14697 0.07951,-0.0794 -1.148184,-1.49017 -2.727961,-3.13505 -2.835825,-2.952661 -5.092508,-5.822498 -5.092508,-6.476142 0,-0.576695 1.871088,-0.192251 3.972953,0.816273 1.843278,0.884475 4.37445,2.474193 6.490988,4.076709 0.550991,0.41718 1.07383,0.75851 1.161868,0.75851 0.08804,0 0.161404,-1.878178 0.441762,-2.850042 0.769687,-2.668314 2.012393,-5.845752 2.925365,-7.595112 0.445788,-0.854157 1.227009,-2.104848 1.596736,-2.500628 0.646502,-0.692098 1.482389,-1.272974 1.788408,-0.85446 0.762794,1.043159 -0.01024,9.112249 -1.395409,14.541242 -0.138882,0.54452 -0.09282,0.62702 0.349219,0.62702 0.280154,0 1.779468,0.25722 3.332151,0.5716 7.325271,1.48319 13.829638,4.61446 18.141438,8.73345 5.16147,4.93068 9.56926,14.71217 10.78716,23.93815 0.65981,4.99817 0.35614,8.52016 -1.09475,12.69786 -0.89011,2.56301 -0.95105,2.89776 -0.95494,5.24575 -0.003,2.20813 0.0607,2.63071 0.53915,3.53406 8.77823,10.4694 16.89067,12.48312 26.70974,15.8001 1.25403,0.44411 3.27195,1.15576 4.48426,1.58141 2.27859,0.79999 7.10459,1.98073 7.61064,1.86201 0.18495,-0.0433 -0.11022,-0.7173 -0.82858,-1.89146 -1.22135,-1.99615 -2.48818,-5.01061 -2.48818,-5.92075 0,-0.51335 0.0932,-0.57737 0.84005,-0.57737 0.462,0 1.30846,0.22454 1.88102,0.49937 1.30133,0.62422 3.66328,2.94843 4.33568,4.26641 l 0.87029,1.31727 0.088,1.36497 c -0.26173,0.68424 -1.40309,0.84284 -1.40309,0.89441 0,0.16174 1.24161,0.0949 1.50488,-0.0809 0.4134,-0.27606 0.32485,-1.30552 0.26377,-1.8399 -0.0826,-0.72184 0.62357,-1.17541 2.26368,-4.47511 2.22617,-4.47894 4.16657,-6.96268 5.43951,-6.96268 1.99492,0 4.7124,5.60798 4.75086,9.80414 0.0137,1.62226 -0.0379,1.80451 -1.02469,3.55043 -0.94822,1.67744 -5.38966,0.99043 -6.56282,3.70058 -0.2549,0.58911 1.10987,3.84261 0.66797,10.30527 -0.4419,6.46267 -3.31199,14.99946 -6.01551,19.65399 -2.57741,4.3955 -8.1009,9.28215 -12.70077,12.97362 -9.77629,7.84568 -12.63721,10.53133 -23.24997,12.41187 -4.31702,0.76494 -19.30378,1.1172 -26.676414,0.62702 z M 129.3313,205.14699 c 1.36456,-0.72 2.04088,-1.31914 2.76782,-2.45197 1.59578,-2.48681 2.37488,-6.9884 1.79946,-10.39726 -0.22931,-1.35808 -0.48698,-1.97565 -1.38466,-3.31775 -2.84548,-4.25434 -11.67757,-12.79724 -16.72855,-16.18074 -1.61254,-1.08018 -6.73914,-3.66506 -9.59647,-4.8386 -0.87779,-0.36051 -1.66433,-0.75365 -1.74786,-0.87359 -0.20782,-0.29858 -6.072332,0.22931 -8.968283,0.80709 -4.801811,0.95811 -8.180744,2.93864 -11.052809,6.47849 -1.079494,1.33051 -1.191418,1.57033 -1.087683,2.33033 0.272305,1.99488 3.192961,8.84202 5.467286,12.81736 2.01369,3.5198 3.203129,5.11964 5.514103,7.41676 1.582507,1.57302 2.474526,2.25654 3.781146,2.89738 4.88934,2.39809 13.37744,4.61976 20.63432,5.40081 3.8437,0.41368 4.01814,0.42317 6.95411,0.37731 2.26979,-0.0355 3.01252,-0.13036 3.64807,-0.46562 z M 69.337336,141.28506 c 1.62871,-0.48367 2.683635,-1.63496 4.118729,-4.49498 1.996116,-3.97813 2.268182,-6.86805 0.915804,-9.72762 -1.722789,-3.64286 -5.618214,-5.83661 -9.178138,-5.16877 -0.975861,0.18307 -3.452606,2.56001 -4.758475,4.56676 -1.18978,1.82833 -1.572747,3.20511 -1.720024,6.18333 -0.213954,4.32808 0.705911,6.28753 3.628171,7.72761 2.56376,1.26342 4.822558,1.5585 6.993933,0.91367 z"
         style="fill:#f4c434;fill-opacity:1;stroke:none;stroke-width:0.22800364" />
      <path
         inkscape:export-ydpi="96"
         inkscape:export-xdpi="96"
         inkscape:connector-curvature="0"
         id="path871"
         d="m 122.05998,206.86476 c -2.76321,-0.23135 -10.36106,-1.57247 -13.28039,-2.34468 -4.83809,-1.27977 -10.683016,-3.59224 -12.678723,-5.01618 -3.275608,-2.33721 -6.514635,-6.81536 -9.727456,-13.44885 -2.1235,-4.38431 -4.281873,-9.95765 -4.281873,-11.05663 0,-0.99545 4.090031,-5.16123 6.269151,-6.38527 2.429382,-1.3647 6.332076,-2.42372 10.74645,-2.91609 3.533681,-0.39419 3.823321,-0.373 5.753611,0.42184 4.2797,1.76192 10.43,5.1902 13.30827,7.41812 3.84834,2.97883 14.08437,13.52423 15.88728,16.36739 1.28938,2.03338 1.39486,2.40423 1.51395,5.32264 0.22214,5.44128 -1.61158,10.15901 -4.42099,11.37507 -1.15928,0.50185 -4.92729,0.61074 -9.08928,0.26275 z"
         style="fill:#efce68;fill-opacity:1;stroke:none;stroke-width:0.36322606" />
      <path
         inkscape:export-ydpi="96"
         inkscape:export-xdpi="96"
         sodipodi:nodetypes="ccccccccccccccccc"
         inkscape:connector-curvature="0"
         id="path873"
         d="m 52.927664,157.58207 c -2.697352,-0.33031 -6.009302,-0.91525 -10.92877,-2.56993 -5.738294,-1.93012 -9.198646,-4.10167 -9.002334,-4.31538 0.06927,-0.0754 1.839832,0.2566 3.934258,0.73785 9.559637,2.19713 14.590791,2.43245 19.934858,0.93242 3.05633,-0.85783 9.341486,-3.2937 9.333262,-3.61715 -0.0273,-1.05537 -0.683355,-1.01756 -3.669972,0.21191 -7.320289,3.01244 -11.977178,3.63233 -18.627693,2.47967 -4.283032,-0.74235 -10.058896,-2.00427 -10.568666,-2.30906 -0.509462,-0.30438 13.159486,-10.82938 14.893739,-11.35068 1.128905,-0.33929 3.651512,-0.34514 4.541177,0.79797 2.665413,3.4248 2.816307,3.16724 5.136698,3.96857 1.271916,0.43917 3.792646,1.1418 5.531916,1.42206 3.608447,0.58139 4.831259,1.50047 5.597842,2.45422 1.15866,1.44151 1.07028,2.88339 -0.448757,4.29931 -1.82509,1.70115 -6.860852,4.97942 -8.587325,5.92119 -2.273028,0.72516 -4.724078,0.78249 -7.070233,0.93703 z"
         style="fill:#e88b20;fill-opacity:1;stroke:none;stroke-width:0.34731728" />
      <path
         inkscape:export-ydpi="96"
         inkscape:export-xdpi="96"
         inkscape:connector-curvature="0"
         id="path881"
         d="m 45.949974,135.44718 c 0.02389,-0.17075 0.124892,-0.91472 0.225897,-1.65327 0.61835,-4.54007 1.80796,-8.99506 3.329523,-12.46848 l 0.411358,-0.93895 1.050659,-0.1152 c 2.533287,-0.27773 4.080681,0.24897 4.435224,1.50964 0.396411,1.40961 0.534236,4.68817 0.275034,6.54399 -0.175053,1.25369 -0.344612,1.86267 -0.867724,3.11375 -0.235451,0.56368 -0.534679,1.3763 -0.664553,1.80582 -0.277765,0.9184 -0.478069,1.27664 -0.891781,1.59478 -0.594942,0.45746 -1.734493,0.65356 -4.397551,0.75674 -0.750613,0.029 -1.721082,0.0774 -2.156565,0.10725 l -0.791902,0.0543 z"
         style="fill:#fff6e7;fill-opacity:1;stroke:none;stroke-width:0.09179001" />
      <path
         inkscape:export-ydpi="96"
         inkscape:export-xdpi="96"
         inkscape:connector-curvature="0"
         id="path883"
         d="m 65.464603,141.48405 c -1.639596,-0.27759 -3.529828,-1.00582 -4.692071,-1.80761 -1.072157,-0.73963 -1.855562,-2.02031 -2.252452,-3.68224 -0.118749,-0.49623 -0.15492,-1.07254 -0.150484,-2.37434 0.01365,-4.48683 1.094713,-6.88695 4.625018,-10.28658 1.60612,-1.54665 1.609294,-1.54852 2.844356,-1.65958 1.408068,-0.12663 3.409645,0.36576 4.838528,1.19029 0.894272,0.516 2.292103,1.79782 2.868789,2.63064 2.074157,2.99552 2.221979,5.98256 0.491445,9.93033 -0.533758,1.21763 -1.352071,2.67344 -2.227712,3.96333 -0.639234,0.94165 -1.205512,1.44077 -2.014885,1.77595 -1.083042,0.44853 -2.814942,0.57643 -4.330498,0.31981 z"
         style="fill:#fff6e7;fill-opacity:1;stroke:none;stroke-width:0.09201942" />
      <path
         inkscape:export-ydpi="96"
         inkscape:export-xdpi="96"
         sodipodi:nodetypes="cccccc"
         inkscape:connector-curvature="0"
         id="path850-4"
         d="m 62.625228,126.73178 c 0,0 -2.254192,1.19524 -2.427573,3.98412 -0.173347,2.78888 -0.786408,5.37885 2.366697,6.5312 2.427573,0.26575 5.089403,-0.0239 5.782996,-2.81266 0.693558,-2.78891 1.040354,-5.31217 -0.693593,-6.50742 -1.071236,-2.07891 -5.02839,-1.19542 -5.028527,-1.19524 z"
         style="fill:#111111;fill-opacity:1;stroke:none;stroke-width:1.20179403px;stroke-linecap:butt;stroke-linejoin:miter;stroke-opacity:1" />
      <path
         inkscape:export-ydpi="96"
         inkscape:export-xdpi="96"
         sodipodi:nodetypes="cccccc"
         inkscape:connector-curvature="0"
         id="path850-2-2"
         d="m 52.924184,123.61218 c 0,0 1.419465,1.40008 1.009267,3.9546 -0.410231,2.55456 -0.618827,6.02534 -2.446545,5.92633 -2.215906,0.19222 -5.497553,-0.14103 -4.233827,-3.69405 0.03412,-2.6274 0.82565,-5.44889 2.325134,-6.29043 1.499178,-0.84154 3.345971,0.10356 3.345971,0.10356 z"
         style="fill:#111111;fill-opacity:1;stroke:none;stroke-width:0.99896139px;stroke-linecap:butt;stroke-linejoin:miter;stroke-opacity:1" />
      <path
         inkscape:export-ydpi="96"
         inkscape:export-xdpi="96"
         inkscape:connector-curvature="0"
         id="path1963"
         d="m 48.268364,153.25655 c -0.125406,-0.0119 -0.587113,-0.0488 -1.026015,-0.082 -2.558618,-0.19325 -5.553619,-0.70527 -10.312839,-1.76304 -1.126231,-0.25031 -2.443189,-0.52575 -2.926556,-0.61208 l -0.878851,-0.15697 0.03611,-0.22959 c 0.01986,-0.12626 0.08803,-0.45227 0.151597,-0.72445 l 0.115529,-0.49487 0.238415,0.0843 c 0.894118,0.31631 5.489336,1.31878 8.959551,1.95457 3.135872,0.57454 4.165002,0.69152 6.42828,0.73074 2.348273,0.0407 3.743742,-0.0804 5.796684,-0.50317 2.24672,-0.46263 4.062447,-1.04349 7.471675,-2.39022 2.081968,-0.82244 2.709863,-1.02405 3.189285,-1.02405 0.408006,0 0.554484,0.10517 0.63296,0.45447 0.04957,0.22062 0.04343,0.26531 -0.04559,0.33168 -0.351082,0.26169 -2.738267,1.26 -4.998756,2.09048 -3.783322,1.38993 -5.815589,1.93202 -8.356854,2.22911 -0.722541,0.0845 -3.905316,0.15917 -4.474571,0.10502 z"
         style="fill:#ae6612;fill-opacity:1;stroke:none;stroke-width:0.05700092" />
      <path
         inkscape:export-ydpi="96"
         inkscape:export-xdpi="96"
         sodipodi:nodetypes="ccc"
         inkscape:connector-curvature="0"
         id="path1969"
         d="m 159.53515,176.6661 c 0.59449,-0.2317 1.37036,-0.40286 1.57189,-1.33006 0.20167,-0.92707 0.0805,-1.2898 0.0805,-1.2898"
         style="fill:none;stroke:#c7980b;stroke-width:0.9028483px;stroke-linecap:butt;stroke-linejoin:miter;stroke-opacity:1" />
      <path
         inkscape:export-ydpi="96"
         inkscape:export-xdpi="96"
         inkscape:connector-curvature="0"
         id="path1971"
         d="m 84.806908,182.91529 c 0,0 3.708122,16.76718 19.991642,20.63654 16.28352,3.86935 23.69976,4.03058 25.47322,3.06325 1.77346,-0.96736 4.83669,-1.28979 5.32035,-8.06117 0.48367,-6.77135 -1.93466,-12.41417 -11.76926,-20.15284 -9.8346,-7.73871 -17.41209,-11.44683 -17.41209,-11.44683"
         style="fill:none;stroke:#c7980b;stroke-width:0.9028483px;stroke-linecap:butt;stroke-linejoin:miter;stroke-opacity:1" />
      <path
         inkscape:export-ydpi="96"
         inkscape:export-xdpi="96"
         inkscape:connector-curvature="0"
         id="path1973"
         d="m 50.788877,178.23984 c 0,0 -2.418359,6.93257 -2.418359,8.5448 0,1.61223 2.418359,4.03059 3.708122,2.90203 1.289796,-1.12857 3.546923,-7.09381 3.546923,-7.09381 0,0 -0.322466,7.25501 1.612228,6.93257 1.934661,-0.32246 3.224457,-8.22237 3.224457,-8.22237 0,0 2.740792,6.44891 4.675452,5.15915 1.934695,-1.2898 1.934695,-7.25504 1.934695,-7.25504 0,0 2.740792,6.77138 4.675452,6.61014 1.934695,-0.1614 0.96733,-9.99583 0.96733,-9.99583"
         style="fill:none;stroke:#c7980b;stroke-width:0.9028483px;stroke-linecap:butt;stroke-linejoin:miter;stroke-opacity:1" />
      <path
         inkscape:export-ydpi="96"
         inkscape:export-xdpi="96"
         inkscape:connector-curvature="0"
         id="path1975"
         d="m 80.874185,101.06886 c 0,0 1.197015,1.08303 1.368042,1.53903 0.170958,0.45601 0.170958,0.45601 0.170958,0.45601"
         style="fill:none;stroke:#c7980b;stroke-width:0.9028483px;stroke-linecap:butt;stroke-linejoin:miter;stroke-opacity:1" />
      <path
         inkscape:export-ydpi="96"
         inkscape:export-xdpi="96"
         inkscape:connector-curvature="0"
         id="path1977"
         d="m 47.220354,143.0785 c 0,0 -2.427743,0.63944 -2.427743,1.27881 0,0.63944 1.213906,1.8383 2.147624,1.03906 0.933719,-0.79928 2.054195,-2.31787 0.280153,-2.31787 z"
         style="fill:#ae6612;fill-opacity:1;stroke:none;stroke-width:1.36833072px;stroke-linecap:butt;stroke-linejoin:miter;stroke-opacity:1" />
      <path
         inkscape:export-ydpi="96"
         inkscape:export-xdpi="96"
         inkscape:connector-curvature="0"
         id="path1979"
         d="m 101.45152,235.93302 c 0,0 5.24408,3.07804 7.52414,3.42006 2.28003,0.34202 8.89212,0.79801 10.83016,0.34202 1.93804,-0.45603 6.1561,-4.56009 6.1561,-4.56009 z"
         style="fill:#f4c434;fill-opacity:1;stroke:none;stroke-width:0.9028483px;stroke-linecap:butt;stroke-linejoin:miter;stroke-opacity:1" />
    </g>
  </g>
</svg>
