<?xml version="1.0" encoding="UTF-8" standalone="no"?>
<!-- Created with Inkscape (http://www.inkscape.org/) -->

<svg
   width="86.624229mm"
   height="188.76155mm"
   viewBox="0 0 86.624229 188.76155"
   version="1.1"
   id="svg1"
   xml:space="preserve"
   xmlns="http://www.w3.org/2000/svg"
   xmlns:svg="http://www.w3.org/2000/svg"><defs
     id="defs1" /><g
     id="layer1"
     transform="translate(-303.62609,-753.2153)"><path
       style="fill:#a0a0a0;fill-opacity:1;stroke:none;stroke-width:0.46071"
       d="m 380.70892,941.9765 c 2.41124,-1.1008 4.38322,-2.7773 9.54142,-3.8571 l -0.65931,-79.9879 -2.12259,0.5859 c -2.73248,-0.5205 -0.67515,-3.5301 -1.71609,-4.8313 -1.4004,-1.648 -1.64278,-0.7256 -1.70999,-3.1275 -0.074,-2.6482 2.15911,-1.9318 3.25517,-2.1903 -0.54674,-0.6603 -2.48111,-3.7548 -2.20119,-4.7063 0.41871,-1.4233 4.14737,-0.4276 4.14737,-0.4276 l -0.39727,-51.95949 -0.26124,-30.32165 -1.41145,-0.9061 c -1.18205,-0.75883 -1.36506,-1.1135 -1.12579,-2.1824 0.25779,-1.1518 0.20133,-1.2258 -0.57838,-0.7581 -0.62129,0.3727 -1.226,0.3844 -2.15245,0.042 -1.11128,-0.4111 -1.28838,-0.7279 -1.28838,-2.305 v -1.8284 l -28.2428,0.02 c -24.30517,0.0172 -44.80872,0.0499 -50.15984,0.32081 0.2736,10.28762 0.49243,20.57598 0.31748,30.86269 V 930.1128 l 1.11092,0.4894 c 0.97158,0.4281 3.10563,-0.7613 3.99016,-1.9181 0.7566,-0.9896 1.39149,-1.3211 2.52004,-1.3159 1.82553,0.01 2.17377,0.2258 3.61599,2.2582 0.61884,0.8721 1.39931,1.7487 1.73433,1.948 1.05245,0.6259 0.71772,3.2943 -0.60376,4.8129 -1.4057,1.6154 -1.4142,1.6106 1.25028,0.7016 2.55561,-0.8719 1.52609,1.2413 1.91508,3.2464 l 0.31223,1.6095 28.17558,-0.047 c 21.95143,-0.037 28.94316,-0.01 32.74449,0.079 z"
       id="path13-3-5" /></g></svg>
