<?xml version="1.0" encoding="UTF-8" standalone="no"?>
<!-- Created with Inkscape (http://www.inkscape.org/) -->

<svg
   width="86.85878mm"
   height="72.435829mm"
   viewBox="0 0 86.85878 72.435829"
   version="1.1"
   id="svg1"
   xml:space="preserve"
   xmlns="http://www.w3.org/2000/svg"
   xmlns:svg="http://www.w3.org/2000/svg"><defs
     id="defs1" /><g
     id="layer1"
     transform="translate(-899.02723,-870.83109)"><path
       style="fill:#a0a0a0;fill-opacity:1;stroke:none;stroke-width:0.46071"
       d="m 908.56866,943.26682 c -2.41124,-1.10086 -4.38322,-2.77729 -9.54142,-3.85708 l 0.65476,-31.35985 10e-4,-29.28066 1.41145,-0.90608 c 1.18207,-0.75881 1.36506,-1.11354 1.12579,-2.18246 -0.25779,-1.15176 -0.20133,-1.22577 0.57838,-0.75809 0.62129,0.3727 1.226,0.38441 2.15245,0.0418 1.11128,-0.41106 1.28838,-0.72791 1.28838,-2.30495 v -1.8284 l 29.80422,0.0204 c 24.30517,0.0156 30.032,0.13491 31.03877,0.64152 1.94697,0.97971 3.35648,2.70266 3.65212,4.46425 0.2284,1.36111 0.0715,1.80154 -0.97712,2.7412 l -1.24925,1.11956 1.60229,0.51134 c 3.1818,1.01542 5.86047,-1.6617 5.34939,-5.34632 -0.14313,-1.03215 -0.20147,-1.87664 -0.12962,-1.87664 0.0719,0 1.02709,0.30581 2.12262,0.67958 2.71582,0.92654 5.09239,0.85037 6.9105,-0.22157 l 1.52266,-0.89774 v 29.36832 29.36831 l -1.11092,0.48947 c -0.97158,0.42806 -3.10563,-0.76128 -3.99016,-1.91817 -0.7566,-0.98953 -1.39149,-1.32107 -2.52004,-1.31588 -1.82553,0.009 -2.17377,0.22586 -3.61599,2.25825 -0.61884,0.87212 -1.39931,1.7487 -1.73433,1.94795 -1.05245,0.62594 -0.71772,3.29428 0.60376,4.81292 1.4057,1.61541 1.4142,1.61062 -1.25028,0.70158 -2.55561,-0.8719 -1.52609,1.2413 -1.91508,3.24646 l -0.31223,1.60946 -28.17558,-0.0475 c -21.95143,-0.0369 -29.4952,-0.007 -33.29653,0.079 z"
       id="path13-3" /></g></svg>
