<?xml version="1.0" encoding="UTF-8" standalone="no"?>
<!-- Created with Inkscape (http://www.inkscape.org/) -->

<svg
   width="108.74154mm"
   height="89.992188mm"
   viewBox="0 0 108.74154 89.992188"
   version="1.1"
   id="svg1"
   xml:space="preserve"
   xmlns="http://www.w3.org/2000/svg"
   xmlns:svg="http://www.w3.org/2000/svg"><defs
     id="defs1" /><g
     id="layer1"
     transform="translate(-391.63958,-851.58492)"><path
       style="fill:#a0a0a0;fill-opacity:1;stroke:none;stroke-width:0.461954"
       d="m 498.24006,939.0729 c -2.70073,-5.8295 -2.56318,-11.3568 0.5033,-20.2253 l 1.63778,-4.7367 v -28.9886 c 0,-25.3441 -0.0877,-29.0219 -0.69705,-29.253 -0.38339,-0.1454 -0.69768,-0.8105 -0.69843,-1.478 -10e-4,-1.0826 -0.18397,-1.2178 -1.69142,-1.2509 -1.00676,-0.022 -1.91935,-0.347 -2.25722,-0.8036 -0.5146,-0.6955 -2.39333,-0.765 -20.26602,-0.7503 -12.94128,0.01 -22.80741,0.2512 -28.76063,0.701 -12.68045,0.958 -35.72496,1.3548 -41.95705,0.7225 -3.82053,-0.3877 -5.50966,-0.3774 -7.10168,0.043 -1.91813,0.5069 -2.06706,0.65 -1.82241,1.7507 0.1466,0.6593 0.0476,1.7674 -0.21982,2.4625 -0.42561,1.1063 -0.65977,1.2262 -1.87802,0.9618 l -1.39178,-0.3021 v 2.8079 45.7709 31.4604 l 1.04559,-0.3084 c 0.57507,-0.1695 1.56838,-0.6399 2.20737,-1.0452 l 1.16176,-0.7369 -1.27474,-0.4508 c -1.61704,-0.572 -2.03308,-1.8408 -1.07662,-3.2833 1.12116,-1.6909 3.52941,-1.5552 5.0983,0.2873 1.27211,1.494 1.48784,2.8386 0.75926,4.7323 -0.47876,1.2444 -0.42632,1.2824 2.59387,1.8809 0.79917,0.1585 2.14679,0.7938 2.99472,1.412 l 1.54169,1.124 h 46.35476 46.35474 z"
       id="path10-0-6" /></g></svg>
