<?xml version="1.0" encoding="UTF-8" standalone="no"?>
<!-- Created with Inkscape (http://www.inkscape.org/) -->

<svg
   width="139.60878mm"
   height="117.03323mm"
   viewBox="0 0 139.60878 117.03323"
   version="1.1"
   id="svg1"
   xml:space="preserve"
   xmlns="http://www.w3.org/2000/svg"
   xmlns:svg="http://www.w3.org/2000/svg"><defs
     id="defs1" /><g
     id="layer1"
     transform="translate(-649.55293,-826.67097)"><path
       style="fill:#a0a0a0;fill-opacity:1;stroke:none;stroke-width:0.463794"
       d="m 649.7384,841.36401 c 0.96821,0.95701 3.94607,-2.33879 4.06522,-2.96656 0.30431,-1.60333 3.19831,-5.73218 4.96927,-5.73218 2.36146,0 5.09546,-1.11298 5.09546,-2.07432 0,-0.40592 -0.3203,-1.35025 -0.71176,-2.09846 l -0.71174,-1.3604 1.52813,0.004 c 0.84047,0.002 4.36216,0.20489 7.82597,0.45038 27.09547,1.92023 77.41845,3.85695 92.83491,3.57279 13.37352,-0.24648 14.68682,-0.44429 20.35399,-3.06551 1.69186,-0.78255 3.89358,-1.42281 3.99304,-1.42281 0.0995,0 0.1809,4.39704 0.1809,9.77117 0,7.91437 -0.84684,9.62696 -1.3192,9.01218 -0.8724,-1.13552 -3.12429,-1.85586 -3.87544,-1.23968 -1.07651,0.88305 -1.3558,3.29235 -0.45697,3.94196 0.72161,0.52154 0.69682,0.58678 -0.27567,0.72535 -0.82493,0.11748 -1.15536,0.56689 -1.44893,1.97034 -0.34504,1.6496 -0.26034,1.91512 0.91401,2.86528 1.7178,1.38984 2.20822,1.34249 3.41272,-0.32949 0.55861,-0.77539 1.13622,-1.29068 1.28355,-1.14505 0.14735,0.14564 0.0196,0.51032 -0.28412,0.81042 -0.85742,0.84748 -0.6513,2.59759 0.38096,3.23479 0.92102,0.5685 0.93303,1.07529 0.93303,39.42775 0,21.3685 -0.15739,38.84524 -0.34988,38.83718 -0.19245,-0.009 -0.7574,-0.31932 -1.25544,-0.69166 -0.49805,-0.37233 -1.30394,-0.67698 -1.79087,-0.67698 -0.79248,0 -0.75381,0.1545 0.36872,1.47306 1.4525,1.70619 1.39211,3.26767 -0.25657,6.6339 l -0.99776,2.03719 c -44.806,0.13909 -89.52576,0.51738 -134.40908,0.31927 -0.0725,-50.81949 -0.37246,-65.12754 0.004,-102.28391 z"
       id="path9-2" /></g></svg>
