<?xml version="1.0" encoding="UTF-8" standalone="no"?>
<!-- Created with Inkscape (http://www.inkscape.org/) -->

<svg
   width="139.60878mm"
   height="117.03318mm"
   viewBox="0 0 139.60878 117.03318"
   version="1.1"
   id="svg1"
   xml:space="preserve"
   xmlns="http://www.w3.org/2000/svg"
   xmlns:svg="http://www.w3.org/2000/svg"><defs
     id="defs1" /><g
     id="layer1"
     transform="translate(-500.66779,-825.37668)"><path
       style="fill:#a0a0a0;fill-opacity:1;stroke:none;stroke-width:0.463794"
       d="m 640.09122,840.0737 c -0.96821,0.957 -3.94607,-2.3388 -4.06522,-2.9666 -0.30431,-1.6033 -3.19831,-5.7321 -4.96927,-5.7321 -2.36146,0 -5.09546,-1.113 -5.09546,-2.0744 0,-0.4059 0.3203,-1.3502 0.71176,-2.0984 l 0.71174,-1.3604 h -1.52813 c -0.84047,0 -4.36216,0.2049 -7.82597,0.4504 -27.09547,1.9202 -77.41845,3.8569 -92.83491,3.5728 -13.37352,-0.2465 -14.68682,-0.4443 -20.35399,-3.0656 -1.69186,-0.7825 -3.89358,-1.4228 -3.99304,-1.4228 -0.0995,0 -0.1809,4.3971 -0.1809,9.7712 0,7.9144 0.84684,9.627 1.3192,9.0122 0.8724,-1.1355 3.12429,-1.8559 3.87544,-1.2397 1.07651,0.8831 1.3558,3.2924 0.45697,3.942 -0.72161,0.5215 -0.69682,0.5867 0.27567,0.7253 0.82493,0.1175 1.15536,0.5669 1.44893,1.9704 0.34504,1.6496 0.26034,1.9151 -0.91401,2.8652 -1.7178,1.3899 -2.20822,1.3425 -3.41272,-0.3295 -0.55861,-0.7753 -1.13622,-1.2906 -1.28355,-1.145 -0.14735,0.1456 -0.0196,0.5103 0.28412,0.8104 0.85742,0.8475 0.6513,2.5976 -0.38096,3.2348 -0.92102,0.5685 -0.93303,1.0753 -0.93303,39.4278 0,21.3685 0.15739,38.8452 0.34988,38.8371 0.19245,-0.01 0.7574,-0.3193 1.25544,-0.6916 0.49805,-0.3724 1.30394,-0.677 1.79087,-0.677 0.79248,0 0.75381,0.1545 -0.36872,1.4731 -1.4525,1.7061 -1.39211,3.2676 0.25657,6.6339 l 0.99776,2.0371 c 44.806,0.1391 89.52576,0.5174 134.40908,0.3193 0.0725,-50.8195 0.37246,-65.1275 -0.004,-102.2839 z"
       id="path9-2-1" /></g></svg>
