<?xml version="1.0" encoding="UTF-8" standalone="no"?>
<!-- Created with Inkscape (http://www.inkscape.org/) -->

<svg
   width="109.4776mm"
   height="99.192978mm"
   viewBox="0 0 109.4776 99.192978"
   version="1.1"
   id="svg1"
   xml:space="preserve"
   xmlns="http://www.w3.org/2000/svg"
   xmlns:svg="http://www.w3.org/2000/svg"><defs
     id="defs1" /><g
     id="layer1"
     transform="translate(-390.1675,-752.08257)"><path
       style="fill:#a0a0a0;fill-opacity:1;stroke:none;stroke-width:0.472417"
       d="m 456.60261,850.3037 c 7.07627,-0.4667 18.65039,-1.2002 25.72023,-1.63 7.06985,-0.4298 12.87508,-0.8226 12.90051,-0.8729 0.90349,-1.7867 2.34925,-3.192 3.28396,-3.192 h 1.13777 v -11.8861 c 0,-10.4369 -0.10427,-12.1382 -0.85444,-13.9531 -3.60175,-8.7126 -3.97818,-20.48174 -0.95265,-29.78486 1.40625,-4.32408 1.47236,-4.82018 1.0094,-7.57594 -0.27246,-1.62189 -1.03716,-4.10309 -1.69933,-5.5138 -0.66214,-1.41071 -1.13309,-2.63713 -1.04654,-2.72539 0.0865,-0.0881 0.91927,0.7471 1.85047,1.85632 l 1.69309,2.01679 v -7.00275 c 0,-6.7251 -0.0378,-7.00275 -0.95216,-7.00275 -0.52369,0 -1.48107,-0.35336 -2.1275,-0.78522 -0.98674,-0.65921 -1.12449,-1.02129 -0.8584,-2.25651 0.27273,-1.26605 0.21988,-1.3892 -0.37871,-0.88264 -0.42312,0.35802 -1.27178,0.47115 -2.16619,0.28877 -1.37992,-0.2814 -1.47055,-0.42847 -1.47055,-2.38687 0,-1.3481 -0.40488,-4.64693 -0.78264,-4.65115 -0.32167,-0.004 -58.05155,-0.27664 -58.05155,-0.27664 -35.27128,-0.0216 -36.18546,8.2e-4 -37.88916,0.93183 -0.96022,0.52473 -2.09836,0.95406 -2.52922,0.95406 -0.62495,0 -0.77674,0.44831 -0.75053,2.21626 0.0229,1.54376 -0.20291,2.39202 -0.74406,2.79549 -0.71398,0.53231 -0.77692,4.04209 -0.77692,43.3254 v 40.6643 l 1.34496,-1.0156 c 0.39013,-0.2945 2.80986,-0.6855 2.3974,2.8655 -0.24224,2.0854 1.09911,5.3251 2.23434,5.8713 1.97194,0.9489 44.28414,0.6741 60.45842,-0.3926 z"
       id="path11-9-5" /></g></svg>
