<?xml version="1.0" encoding="UTF-8" standalone="no"?>
<!-- Created with Inkscape (http://www.inkscape.org/) -->

<svg
   width="85.221283mm"
   height="116.73403mm"
   viewBox="0 0 85.221283 116.73403"
   version="1.1"
   id="svg1"
   xml:space="preserve"
   xmlns="http://www.w3.org/2000/svg"
   xmlns:svg="http://www.w3.org/2000/svg"><defs
     id="defs1" /><g
     id="layer1"
     transform="translate(-900.95942,-753.21633)"><path
       style="fill:#a0a0a0;fill-opacity:1;stroke:none;stroke-width:0.46771"
       d="m 906.32971,869.12074 c 0.12008,-0.48186 -0.37017,-1.47434 -1.17006,-2.36855 -1.20844,-1.35094 -1.52485,-1.48131 -2.58779,-1.06636 -0.66605,0.26003 -1.30135,0.47278 -1.41176,0.47278 -0.11031,0 -0.20071,-1.71369 -0.20071,-3.80821 0,-3.61821 0.0445,-3.78374 0.89277,-3.31758 1.36706,0.75123 4.16827,0.61127 4.48039,-0.22389 0.51061,-1.36634 -0.3613,-4.18123 -1.68991,-5.45561 l -1.32246,-1.26851 1.15148,-0.90164 c 1.22091,-0.95597 2.70816,-4.65491 2.20664,-5.48815 -0.17594,-0.29244 -1.40718,-0.41267 -3.00844,-0.29373 l -2.71047,0.20131 v -43.08581 c 0,-42.79465 0.007,-43.0951 0.95425,-44.46188 0.77615,-1.11925 1.11507,-1.2877 1.8159,-0.90256 0.47392,0.26042 1.72792,0.47351 2.78672,0.47351 h 1.92506 l -0.17612,-1.89578 -0.17612,-2.17947 25.76266,-0.28371 c 13.49599,-0.14863 43.28799,0.0792 52.31523,0.0628 0.0902,6.49937 -0.29485,11.63055 -0.28717,65.30138 0.005,42.13558 -0.0719,47.46686 -0.68907,47.22362 -0.38276,-0.1508 -1.23442,0.0881 -1.89261,0.53094 -0.94228,0.63396 -1.15479,1.09849 -0.99951,2.18483 0.18848,1.31859 0.11901,1.37972 -1.56909,1.37972 -1.40508,0 -1.76632,-0.17775 -1.76632,-0.8689 0,-1.40685 -0.44717,-1.49331 -2.37822,-0.45979 -2.52179,1.34969 -5.25374,1.57159 -8.21859,0.66751 -3.12611,-0.95326 -6.47822,-0.97259 -8.62919,-0.0496 -1.40631,0.60335 -5.58768,0.71094 -27.63568,0.71094 -24.51262,0 -25.96699,-0.0468 -25.77193,-0.82941 z"
       id="path12-7" /></g></svg>
