<?xml version="1.0" encoding="UTF-8" standalone="no"?>
<!-- Created with Inkscape (http://www.inkscape.org/) -->

<svg
   width="108.74154mm"
   height="89.992569mm"
   viewBox="0 0 108.74154 89.992569"
   version="1.1"
   id="svg1"
   xml:space="preserve"
   xmlns="http://www.w3.org/2000/svg"
   xmlns:svg="http://www.w3.org/2000/svg"><defs
     id="defs1" /><g
     id="layer1"
     transform="translate(-789.44839,-852.87518)"><path
       style="fill:#a0a0a0;fill-opacity:1;stroke:none;stroke-width:0.461954"
       d="m 791.58956,940.36322 c 2.70073,-5.82952 2.56318,-11.35684 -0.5033,-20.22536 l -1.63778,-4.73663 v -28.98864 c 0,-25.34406 0.0877,-29.02189 0.69705,-29.25299 0.38339,-0.1454 0.69768,-0.81051 0.69843,-1.47804 10e-4,-1.0826 0.18397,-1.21774 1.69142,-1.25086 1.00676,-0.0221 1.91935,-0.34703 2.25722,-0.80363 0.5146,-0.69545 2.39333,-0.765 20.26602,-0.75023 12.94128,0.0105 22.80741,0.25114 28.76063,0.70093 12.68045,0.95802 35.72496,1.35484 41.95705,0.72249 3.82053,-0.38765 5.50966,-0.37733 7.10168,0.0435 1.91813,0.50693 2.06706,0.65002 1.82241,1.75077 -0.1466,0.6593 -0.0476,1.76741 0.21982,2.46252 0.42561,1.10622 0.65977,1.22612 1.87802,0.96171 l 1.39178,-0.30207 v 2.80796 c 0,2.63384 -0.0557,2.77849 -0.89886,2.33259 -1.75352,-0.92738 -2.82659,-0.56913 -3.57137,1.19231 -0.48537,1.14796 -0.55543,1.81564 -0.2248,2.14235 0.33063,0.32675 0.26481,0.6304 -0.21118,0.97433 -0.38031,0.27482 -0.81816,1.27094 -0.97297,2.21365 -0.23589,1.43645 -0.1025,1.86127 0.82386,2.62373 1.42134,1.16988 2.57399,1.17751 3.30434,0.0219 0.84045,-1.32988 1.12497,-1.13278 0.91616,0.6346 -0.10091,0.85416 0.0457,1.69296 0.32568,1.86398 0.36104,0.22049 0.50914,9.46268 0.50914,31.77135 v 31.46039 l -1.04559,-0.30839 c -0.57507,-0.16957 -1.56838,-0.63996 -2.20737,-1.04522 l -1.16176,-0.73687 1.27474,-0.45089 c 1.61704,-0.57199 2.03308,-1.84076 1.07662,-3.28325 -1.12116,-1.6909 -3.52941,-1.55519 -5.0983,0.28731 -1.27211,1.49397 -1.48784,2.8386 -0.75926,4.73229 0.47876,1.24437 0.42632,1.28243 -2.59387,1.88093 -0.79917,0.15846 -2.14679,0.79375 -2.99472,1.41196 l -1.54169,1.12399 h -46.35476 -46.35474 z"
       id="path10-0" /></g></svg>
