<?xml version="1.0" encoding="UTF-8" standalone="no"?>
<!-- Created with Inkscape (http://www.inkscape.org/) -->

<svg
   width="238.67464mm"
   height="190.88319mm"
   viewBox="0 0 238.67464 190.88319"
   version="1.1"
   id="svg1"
   xml:space="preserve"
   xmlns="http://www.w3.org/2000/svg"
   xmlns:svg="http://www.w3.org/2000/svg"><defs
     id="defs1" /><g
     id="layer1"
     transform="translate(-303.28776,-551.11349)"><path
       style="fill:#a0a0a0;stroke:none;stroke-width:0.455526"
       d="m 303.28776,646.55508 v -95.44162 h 90.86716 126.198 l 0.27674,1.22697 c 0.15224,0.67482 0.82316,1.8028 1.49102,2.50659 l 1.2143,1.27964 -1.35624,0.88913 c -1.56418,1.02543 -2.95613,3.37675 -2.95613,4.99352 0,0.76424 -0.26621,1.12426 -0.84657,1.14493 -0.7239,0.0257 -0.70637,0.0836 0.12101,0.3988 1.56565,0.59657 5.45644,0.47999 7.34605,-0.2201 0.96352,-0.35698 1.78802,-0.59827 1.83223,-0.5362 0.0442,0.0621 0.34222,0.92194 0.66226,1.91079 0.59652,1.84298 3.88234,4.85083 5.29916,4.85083 0.48041,0 0.62356,0.33103 0.46375,1.07237 -0.45303,2.1014 0.4832,1.02599 1.50159,-1.72481 1.13399,-3.06311 1.26155,-4.44534 0.59916,-6.4933 -0.42245,-1.30618 -0.38425,-1.35462 1.19738,-1.51836 1.59577,-0.1652 1.66115,-0.10846 2.81133,2.43917 1.78531,3.95446 2.29757,7.08421 1.73507,10.60102 -0.9385,5.86768 -3.11198,10.4178 -10.59175,22.17351 -2.16071,3.39592 -3.84525,6.24831 -3.74338,6.33862 0.56071,0.4972 7.20131,-4.84131 9.84381,-7.91363 1.67966,-1.95286 3.05392,-3.40049 3.05392,-3.21697 0,0.18353 -0.32276,1.68481 -0.71722,3.33617 -0.39447,1.65138 -0.721,4.51693 -0.72563,6.3679 -0.006,2.60821 -0.21481,3.62245 -0.92587,4.50793 -0.50461,0.62838 -1.17444,2.00937 -1.48852,3.06886 -0.8104,2.73389 -2.63376,4.89186 -5.12249,6.06256 -1.18058,0.55535 -2.14649,1.13121 -2.14649,1.27965 0,0.57838 1.51317,1.34012 2.66211,1.34012 1.55256,0 1.52138,0.32382 -0.16953,1.76031 -1.78907,1.51986 -4.1223,1.73761 -4.33681,0.40473 -0.27964,-1.73737 -3.44165,-1.78914 -4.47724,-0.0734 -0.71907,1.19139 -0.14294,3.08174 1.30717,4.28868 0.97709,0.81326 1.7033,1.00597 3.59694,0.95441 4.36921,-0.11901 7.01909,-2.32739 8.14485,-6.78792 l 0.62131,-2.46189 0.8496,1.23877 c 0.81906,1.19431 0.80317,1.50416 -0.44247,8.62771 -1.14892,6.57051 -1.43283,7.51927 -2.56306,8.56584 -3.58464,3.31922 -4.76165,9.5322 -3.63596,19.19287 0.69567,5.9702 0.68864,6.8519 -0.0974,12.22509 -0.46594,3.18498 -1.2327,6.56296 -1.70387,7.50666 -2.30449,4.61547 -2.68361,8.48497 -1.35719,13.85175 1.29685,5.24708 1.27105,5.32478 -2.92699,8.81386 l -3.69554,3.07146 0.0111,3.00265 c 0.013,3.54287 0.75478,4.67672 3.63607,5.55729 1.05406,0.32214 1.99572,0.51664 2.09257,0.43222 0.0968,-0.0844 -0.2841,-0.67225 -0.84656,-1.30631 -1.17048,-1.31946 -1.26896,-2.21281 -0.4313,-3.91235 0.9356,-1.89823 3.3249,-5.27484 3.73253,-5.27484 0.20398,0 0.509,1.59249 0.67782,3.53885 0.33784,3.89513 1.5331,10.47498 2.50859,13.80959 0.57015,1.949 0.54788,2.19087 -0.24718,2.68467 -0.54824,0.34051 -1.18314,1.78386 -1.70411,3.87399 -0.45669,1.83221 -1.06113,3.71734 -1.34319,4.18919 -0.48489,0.81111 -0.54668,0.78772 -1.13314,-0.42896 -0.34551,-0.7168 -0.62994,-3.01505 -0.6421,-5.18817 -0.0186,-3.16191 -0.18236,-4.02637 -0.86839,-4.5612 -0.91184,-0.71077 -5.68404,-2.04676 -7.3111,-2.04676 -1.38805,0 -2.94583,1.6288 -5.59985,5.85516 -2.04438,3.25555 -2.22827,3.76638 -1.77282,4.92485 0.75437,1.91887 3.15824,4.41441 5.74399,5.96305 l 2.28824,1.37046 -1.935,-0.28623 c -1.06425,-0.15741 -3.54528,-0.95548 -5.51341,-1.77345 -1.96813,-0.81798 -3.92732,-1.38084 -4.35375,-1.25079 -1.32042,0.4027 -3.34067,3.16921 -4.42581,6.0607 -0.96145,2.56186 -0.98043,2.83245 -0.2603,3.71108 1.46541,1.78799 3.18518,4.14792 3.18518,4.37082 0,0.12263 -53.65986,0.223 -119.24413,0.223 h -83.91323 z"
       id="path3-8-8-8" /></g></svg>
