<?xml version="1.0" encoding="UTF-8" standalone="no"?>
<!-- Created with Inkscape (http://www.inkscape.org/) -->

<svg
   width="71.957542mm"
   height="81.185272mm"
   viewBox="0 0 71.957542 81.185272"
   version="1.1"
   id="svg1"
   xml:space="preserve"
   xmlns="http://www.w3.org/2000/svg"
   xmlns:svg="http://www.w3.org/2000/svg"><defs
     id="defs1" /><g
     id="layer1"
     style="display:inline"
     transform="translate(-199.35944,-93.857981)"><g
       id="g2"
       style="display:inline"><g
         id="g7"
         transform="translate(-0.77142857)"
         style="display:inline"><ellipse
           style="opacity:1;fill:#892a2a;fill-opacity:1;stroke:none;stroke-width:0.0890269;stroke-linecap:round"
           id="path3"
           cx="228.88382"
           cy="134.26498"
           rx="28.752974"
           ry="28.62631" /><path
           style="fill:#9d7931;fill-opacity:1;stroke:none;stroke-width:0.264583px;stroke-linecap:butt;stroke-linejoin:miter;stroke-opacity:1"
           d="m 231.41711,106.01868 c 0,0 3.16663,-7.979904 3.67329,-8.486565 0.50666,-0.506659 8.23323,1.899978 8.23323,2.533305 0,0.63332 -1.51998,9.11988 -1.51998,9.11988 0,0 -4.68661,-0.37999 -10.38654,-3.16662 z"
           id="path4" /><path
           style="fill:none;stroke:#9d7931;stroke-width:2.065;stroke-linecap:butt;stroke-linejoin:miter;stroke-dasharray:none;stroke-opacity:1"
           d="m 236.67371,98.735433 c 0,0 1.15096,-4.360874 3.73662,-3.79995 2.69094,0.583762 1.35561,3.510611 0.69666,4.813272"
           id="path7" /><path
           style="fill:#b13737;fill-opacity:1;stroke:none;stroke-width:0.677032"
           d="m 787.54477,582.82907 c -31.76913,-32.7434 -37.63288,-77.10623 -23.31662,-114.36134 9.2661,-24.11311 28.5532,-43.10642 33.65909,-46.73823 14.11672,6.30625 7.22379,171.5295 -3.79085,167.23843 -0.21903,-0.0853 -3.11444,-2.59627 -6.55162,-6.13886 z"
           id="path6"
           transform="scale(0.26458333)" /><g
           id="g8"
           transform="translate(-1.7739511,3.6372803)"><ellipse
             style="fill:#685721;fill-opacity:1;stroke:none;stroke-width:0.0642156;stroke-linecap:round"
             id="path3-2"
             cx="143.78296"
             cy="250.78247"
             rx="21.031281"
             ry="20.362041"
             transform="matrix(0.88784017,-0.46015196,0.49826188,0.86702659,0,0)" /><path
             style="fill:#9d7931;fill-opacity:1;stroke:none;stroke-width:0.190755px;stroke-linecap:butt;stroke-linejoin:miter;stroke-opacity:1"
             d="m 244.24583,133.00033 c 0,0 -0.77178,-5.98718 -0.62231,-6.47018 0.14946,-0.483 6.02011,-1.59936 6.24457,-1.20877 0.22446,0.39058 2.24514,6.136 2.24514,6.136 0,0 -3.17819,1.34305 -7.8674,1.54295 z"
             id="path4-4" /><path
             style="fill:none;stroke:#9d7931;stroke-width:1.48879;stroke-linecap:butt;stroke-linejoin:miter;stroke-dasharray:none;stroke-opacity:1"
             d="m 245.07821,126.73936 c 0,0 -0.79812,-3.07683 1.07983,-3.60117 1.95441,-0.54569 2.12455,1.7088 2.15831,2.73396"
             id="path7-5" /></g></g></g></g></svg>
