<?xml version="1.0" encoding="UTF-8" standalone="no"?>
<!-- Created with Inkscape (http://www.inkscape.org/) -->

<svg
   width="9.7174788mm"
   height="8.0651083mm"
   viewBox="0 0 9.7174788 8.0651083"
   version="1.1"
   id="svg1"
   xml:space="preserve"
   xmlns="http://www.w3.org/2000/svg"
   xmlns:svg="http://www.w3.org/2000/svg"><defs
     id="defs1" /><g
     id="layer1"
     style="display:inline"
     transform="translate(-162.11686,-77.587503)"><g
       id="g81"
       style="display:inline"
       transform="translate(42.052809,-1.519981)"><g
         id="g79-8-6"
         transform="rotate(-130.675,108.63751,75.366388)"><path
           style="display:inline;fill:#daafc6;fill-opacity:1;stroke:none;stroke-width:0.264583px;stroke-linecap:butt;stroke-linejoin:miter;stroke-opacity:1"
           d="m 89.565741,79.444813 c 0,0 -1.970447,4.657418 -1.791314,5.284377 0.179131,0.626962 1.253919,2.060014 2.776537,2.507843 1.522617,0.447828 2.776538,-0.179134 3.313933,-0.447829 0.537393,-0.268697 2.50784,-5.821775 2.50784,-6.448734 0,-0.626959 -1.164355,-1.612183 -2.776537,-2.239142 -1.612183,-0.626962 -4.030459,1.343485 -4.030459,1.343485 z"
           id="path78-6-0" /><path
           style="fill:#c37da2;fill-opacity:1;stroke:none;stroke-width:0.264583px;stroke-linecap:butt;stroke-linejoin:miter;stroke-opacity:1"
           d="m 89.647214,79.595343 c 0,0 1.709978,1.329983 3.609956,1.329983 1.899976,0 2.913296,-0.601657 2.913296,-0.601657 0,0 -1.61498,0.474993 -2.723298,0.379995 -1.108321,-0.095 -3.799954,-1.108321 -3.799954,-1.108321 z"
           id="path79-5-2" /></g></g></g></svg>
