<?xml version="1.0" encoding="UTF-8" standalone="no"?>
<!-- Created with Inkscape (http://www.inkscape.org/) -->

<svg
   width="54.510185mm"
   height="30.915503mm"
   viewBox="0 0 54.510185 30.915503"
   version="1.1"
   id="svg1"
   xml:space="preserve"
   xmlns="http://www.w3.org/2000/svg"
   xmlns:svg="http://www.w3.org/2000/svg"><defs
     id="defs1" /><g
     id="layer1"
     style="display:inline"
     transform="translate(-122.53318,-59.653418)"><g
       id="g74"
       style="display:inline"
       transform="translate(42.052809,-1.519981)"><path
         style="display:inline;fill:#faf9f5;fill-opacity:1;stroke:none;stroke-width:0.245793px;stroke-linecap:butt;stroke-linejoin:miter;stroke-opacity:1"
         d="m 19.523362,64.213806 c 0,0 13.581334,3.947501 25.928,3.768069 12.346665,-0.179431 23.767332,-1.076591 25.927998,-3.588639 2.160666,-2.512047 1.234667,-6.459549 -2.160666,-6.638983 -3.395333,-0.179432 -9.105666,0.179434 -17.748334,0.538298 -8.642665,0.358863 -20.217665,-0.179433 -24.538996,-1.076592 -4.321334,-0.897162 -5.710334,-0.358865 -7.099333,0.717728 -1.389003,1.076591 -3.086668,5.024094 -0.308669,6.280119 z"
         id="path71"
         transform="translate(62.448866,24.101095)" /><path
         style="fill:#faf9f5;fill-opacity:1;stroke:none;stroke-width:0.264583px;stroke-linecap:butt;stroke-linejoin:miter;stroke-opacity:1"
         d="m 86.072675,80.877864 c 0,0 -0.80609,-3.672194 3.582631,-4.299156 4.388723,-0.62696 14.420084,0.985223 19.525334,0.716526 5.10525,-0.268698 16.65923,-1.343486 18.98794,-1.164355 2.3287,0.179131 3.67219,2.866105 3.58263,3.940892 -0.0896,1.074791 0.26869,1.970448 -1.16436,2.239145 -1.43305,0.268698 -22.39143,1.522616 -28.4819,1.253921 C 96.014473,83.29614 90.550963,83.29614 86.072675,80.877864 Z"
         id="path72" /><path
         style="fill:#faf9f5;fill-opacity:1;stroke:none;stroke-width:0.264583px;stroke-linecap:butt;stroke-linejoin:miter;stroke-opacity:1"
         d="m 91.088358,76.399577 c 0,0 -0.80609,-3.582631 3.493064,-4.030459 4.299158,-0.447828 13.209588,-0.669692 17.017488,-1.074789 4.20959,-0.447829 12.00181,-1.433051 12.98704,-0.358263 0.98522,1.07479 2.50784,4.926117 0.62696,5.642643 -1.88088,0.716526 -3.58263,0.358263 -11.55399,0.806091 -7.97135,0.447829 -18.719234,0.08957 -22.570562,-0.985223 z"
         id="path73" /><path
         style="fill:#faf9f5;fill-opacity:1;stroke:none;stroke-width:0.264583px;stroke-linecap:butt;stroke-linejoin:miter;stroke-opacity:1"
         d="m 104.25452,72.100422 c 0,0 7.34439,-3.224367 9.04614,-5.373945 1.70175,-2.149578 3.1348,-5.553075 3.1348,-5.553075 0,0 3.22437,3.672195 3.58263,5.821773 0.35826,2.149578 0.2687,3.582629 0.2687,3.582629 0,0 -12.62878,2.418275 -16.03227,1.522618 z"
         id="path74" /><path
         style="fill:#f1ede2;fill-opacity:1;stroke:none;stroke-width:0.264583px;stroke-linecap:butt;stroke-linejoin:miter;stroke-opacity:1"
         d="m 131.57207,81.952653 c 0,0 -13.70356,3.134801 -21.67491,3.403499 -7.97135,0.268695 -21.406208,-2.418276 -21.406208,-2.418276 0,0 5.015682,1.522616 11.553978,2.418276 6.5383,0.895657 15.9427,1.701747 23.55579,0 7.61309,-1.70175 7.97135,-3.403499 7.97135,-3.403499 z"
         id="path75" /><path
         style="fill:#f1ede2;fill-opacity:1;stroke:none;stroke-width:0.264583px;stroke-linecap:butt;stroke-linejoin:miter;stroke-opacity:1"
         d="m 91.072196,76.442379 c 0,0 14.629814,1.963308 17.036454,1.899975 2.40664,-0.06333 12.47651,-0.886653 12.47651,-0.886653 0,0 -7.47324,1.519981 -12.8565,1.773309 -5.38327,0.25333 -13.743166,-0.759989 -15.389813,-1.456648 -1.646645,-0.696658 -1.266651,-1.329983 -1.266651,-1.329983 z"
         id="path76" /><path
         style="fill:#f1ede2;fill-opacity:1;stroke:none;stroke-width:0.264583px;stroke-linecap:butt;stroke-linejoin:miter;stroke-opacity:1"
         d="m 120.28679,70.488238 c 0,0 -10.03136,1.343485 -11.46442,1.343485 -1.43305,0 -2.3287,0.13435 -2.3287,0.13435 0,0 3.4035,0.403045 5.91134,0.223914 2.50783,-0.179131 7.88178,-1.701749 7.88178,-1.701749 z"
         id="path77" /></g></g></svg>
