<?xml version="1.0" encoding="UTF-8" standalone="no"?>
<!-- Created with Inkscape (http://www.inkscape.org/) -->

<svg
   width="22.407724mm"
   height="54.261314mm"
   viewBox="0 0 22.407724 54.261314"
   version="1.1"
   id="svg1"
   xml:space="preserve"
   xmlns="http://www.w3.org/2000/svg"
   xmlns:svg="http://www.w3.org/2000/svg"><defs
     id="defs1" /><g
     id="layer1"
     style="display:inline"
     transform="translate(-138.50141,-21.088856)"><g
       id="g40"
       transform="matrix(0.93288138,0,0,0.93516785,74.929436,0.72470846)"
       style="display:inline"><path
         style="fill:#eeeeee;fill-opacity:1;stroke:none;stroke-width:0.264583px;stroke-linecap:butt;stroke-linejoin:miter;stroke-opacity:1"
         d="m 77.519027,79.799004 c 0,0 -7.09324,-10.386536 -6.58658,-14.693151 0.50666,-4.306612 8.3599,-11.399856 11.39986,-20.773072 3.03996,-9.373216 2.02664,-16.213132 -3.03996,-18.493102 -5.06661,-2.279973 -11.14653,0.759989 -11.14653,0.759989 0,0 10.63986,-9.119886 16.71979,-2.279973 6.07992,6.839916 5.31993,17.479783 1.26665,22.546387 -4.05328,5.066604 -10.8932,14.693151 -10.8932,18.999763 0,4.306612 2.27997,13.933159 2.27997,13.933159 z"
         id="path39" /><path
         style="fill:#eeeeee;fill-opacity:1;stroke:none;stroke-width:0.264583px;stroke-linecap:butt;stroke-linejoin:miter;stroke-opacity:1"
         d="m 81.183317,76.257654 c 0,0 -1.51998,-5.826593 0.75999,-11.399858 2.27997,-5.573263 8.86655,-14.693149 9.11988,-17.986441 0.25334,-3.293293 0.50666,-4.053282 0.50666,-4.053282 0,0 1.20332,2.596634 0.19,7.599905 -1.01332,5.003271 -6.26992,11.336525 -7.34657,15.073145 -1.07666,3.736618 -3.22996,10.766531 -3.22996,10.766531 z"
         id="path40" /></g></g></svg>
