<?xml version="1.0" encoding="UTF-8" standalone="no"?>
<!-- Created with Inkscape (http://www.inkscape.org/) -->

<svg
   width="260.22318mm"
   height="25.776882mm"
   viewBox="0 0 260.22318 25.776882"
   version="1.1"
   id="svg1"
   xml:space="preserve"
   xmlns="http://www.w3.org/2000/svg"
   xmlns:svg="http://www.w3.org/2000/svg"><defs
     id="defs1" /><g
     id="layer1"
     style="display:inline"
     transform="translate(-15.912528,-121.91857)"><g
       id="g2"
       style="display:inline"><g
         id="g118"
         transform="translate(-1.7618473,104.65373)"
         style="display:inline"><path
           style="fill:none;stroke:#1c1d1d;stroke-width:0.665;stroke-linecap:butt;stroke-linejoin:miter;stroke-dasharray:none;stroke-opacity:1"
           d="m 18.313468,39.616891 c 0,-0.87207 -1.494978,-6.22907 2.117884,-8.097793 3.612861,-1.86872 10.091094,-4.484931 13.953116,-4.983255 3.86202,-0.498327 5.48158,-1.245814 6.10449,-2.989955 0.62291,-1.744139 -1.49497,-3.862023 -2.49163,-3.363699 -0.99665,0.498327 -2.49162,0.622909 -0.87207,5.481585 1.61956,4.858673 2.98996,7.599466 5.60617,8.346953 2.61621,0.74749 5.10784,0.872069 6.72739,-1.370396 1.61956,-2.242465 3.3637,-5.606164 5.97991,-4.858673 2.61621,0.747487 3.3637,0.373742 4.23577,4.734091 0.87207,4.360352 0.87207,5.979909 -0.87207,6.353654 -1.74414,0.373745 -2.24247,-1.744141 -1.12123,-4.235767 1.12123,-2.491629 3.23911,-6.478236 8.09779,-7.848629 4.85868,-1.370396 8.09779,-0.124582 9.46819,0.747487 1.37039,0.87207 3.3637,3.612862 2.74079,6.22907 -0.62291,2.61621 -1.86872,5.357003 -2.86537,3.986606 -0.99665,-1.370396 -0.62291,-4.983257 2.11788,-7.474886 2.74079,-2.491626 5.85533,-3.737441 8.09779,-3.737441 2.24247,0 7.84863,3.363698 9.96652,4.734095 2.11788,1.370393 6.104492,2.740789 8.471532,1.993302 2.36705,-0.747491 3.86203,-4.111189 2.61621,-5.481582 -1.24581,-1.370396 -2.98995,-2.117884 -4.36035,-0.622909 -1.37039,1.494978 -0.87207,5.481582 -0.12458,6.478236 0.74749,0.996651 3.73744,2.117883 6.85198,2.242465 3.11453,0.124579 8.84528,-1.619559 11.33691,-3.239119 2.49163,-1.619557 7.84863,-5.730745 9.21902,-5.730745 1.3704,0 5.10784,1.370396 5.357,3.239119 0.24917,1.86872 -2.11788,3.239116 -3.73744,2.491626 -1.61956,-0.747488 -2.11788,-2.989953 -0.37374,-3.612859 1.74414,-0.622908 5.357,0 8.09779,1.494975 2.74079,1.494978 12.52043,1.588416 14.63831,1.588416"
           id="path116" /><path
           style="fill:none;stroke:#1c1d1d;stroke-width:0.665;stroke-linecap:butt;stroke-linejoin:miter;stroke-dasharray:none;stroke-opacity:1"
           d="m 153.02123,32.135785 c 3.86202,0.498327 9.93537,1.494977 10.55828,3.239118 0.62291,1.744139 -1.49497,3.862023 -2.49163,3.363699 -0.99665,-0.498327 -2.49162,-0.622909 -0.87207,-5.481585 1.61956,-4.858673 2.98996,-7.599466 5.60617,-8.346953 2.61621,-0.74749 5.10784,-0.872069 6.72739,1.370396 1.61956,2.242465 3.3637,5.606164 5.97991,4.858673 2.61621,-0.747487 3.3637,-0.373742 4.23577,-4.734091 0.87207,-4.360352 0.87207,-5.979909 -0.87207,-6.353654 -1.74414,-0.373745 -2.24247,1.744141 -1.12123,4.235767 1.12123,2.491629 3.23911,6.478236 8.09779,7.848629 4.85868,1.370396 8.09779,0.124582 9.46819,-0.747487 1.37039,-0.87207 3.3637,-3.612862 2.74079,-6.22907 -0.62291,-2.61621 -1.86872,-5.357003 -2.86537,-3.986606 -0.99665,1.370396 -0.62291,4.983257 2.11788,7.474886 2.74079,2.491626 5.85533,3.737441 8.09779,3.737441 2.24247,0 7.84862,-3.363698 9.96651,-4.734095 2.11788,-1.370393 6.1045,-2.740789 8.47154,-1.993302 2.36705,0.747491 3.86203,4.111189 2.61621,5.481582 -1.24581,1.370396 -2.98995,2.117884 -4.36035,0.622909 -1.37039,-1.494978 -0.87207,-5.481582 -0.12458,-6.478236 0.74749,-0.996651 3.64935,-1.236959 6.76389,-1.361541 3.11453,-0.124579 8.581,3.469498 11.07263,5.089058 2.49163,1.619557 8.201,2.999882 9.57139,2.999882 1.3704,0 5.10784,-1.370396 5.357,-3.239119 0.24917,-1.86872 -2.11788,-3.239116 -3.73744,-2.491626 -1.61956,0.747488 -2.11788,2.989953 -0.37374,3.612859 1.74414,0.622908 5.357,0 8.09779,-1.494975 2.74079,-1.494978 6.10449,-3.114538 8.22237,-3.114538 2.11789,0 7.47489,1.868723 7.59947,2.491629"
           id="path116-3" /><ellipse
           style="opacity:1;fill:#fcbb06;fill-opacity:1;stroke:none;stroke-width:0.0519999;stroke-linecap:round;stroke-dasharray:none;stroke-opacity:1"
           id="path117"
           cx="25.545452"
           cy="23.278481"
           rx="2.7407913"
           ry="2.8030818" /><path
           style="fill:#1c1d1d;fill-opacity:1;stroke:none;stroke-width:0.264583px;stroke-linecap:butt;stroke-linejoin:miter;stroke-opacity:1"
           d="m 24.536871,25.892802 1.376064,3.072379 2.678501,-0.965507 -0.739931,-3.218984 c -0.763912,0.468917 -1.697344,0.984546 -3.314634,1.112112 z"
           id="path118" /><ellipse
           style="fill:#01a6f8;fill-opacity:1;stroke:none;stroke-width:0.0519999;stroke-linecap:round;stroke-dasharray:none;stroke-opacity:1"
           id="path117-1"
           cx="-12.642121"
           cy="-50.472271"
           rx="2.7407913"
           ry="2.8030818"
           transform="rotate(134.33061)" /><path
           style="fill:#1c1d1d;fill-opacity:1;stroke:none;stroke-width:0.264583px;stroke-linecap:butt;stroke-linejoin:miter;stroke-opacity:1"
           d="m 43.772801,23.678402 -3.159323,-1.162646 -1.181084,2.590678 2.819665,1.720131 c 0.198394,-0.874119 0.481834,-1.902141 1.520742,-3.148163 z"
           id="path118-3" /><ellipse
           style="fill:#2db601;fill-opacity:1;stroke:none;stroke-width:0.0519999;stroke-linecap:round;stroke-dasharray:none;stroke-opacity:1"
           id="path117-1-2"
           cx="-47.88908"
           cy="-41.272858"
           rx="2.7407913"
           ry="2.8030818"
           transform="rotate(177.21832)" /><path
           style="fill:#1c1d1d;fill-opacity:1;stroke:none;stroke-width:0.264583px;stroke-linecap:butt;stroke-linejoin:miter;stroke-opacity:1"
           d="m 50.716161,36.239962 -1.523546,-3.001979 -2.628488,1.094359 0.895278,3.179282 c 0.740255,-0.505437 1.647563,-1.065759 3.256756,-1.271662 z"
           id="path118-3-7" /><ellipse
           style="fill:#fe6907;fill-opacity:1;stroke:none;stroke-width:0.0519999;stroke-linecap:round;stroke-dasharray:none;stroke-opacity:1"
           id="path117-1-2-1"
           cx="61.293545"
           cy="25.267902"
           rx="2.7407913"
           ry="2.8030818"
           transform="rotate(-2.8605274)" /><path
           style="fill:#1c1d1d;fill-opacity:1;stroke:none;stroke-width:0.264583px;stroke-linecap:butt;stroke-linejoin:miter;stroke-opacity:1"
           d="m 61.601309,24.838968 1.527676,2.999879 2.626979,-1.097975 -0.899652,-3.178047 c -0.739559,0.506455 -1.646095,1.068025 -3.255003,1.276143 z"
           id="path118-3-7-9" /><ellipse
           style="fill:#db0711;fill-opacity:1;stroke:none;stroke-width:0.0519999;stroke-linecap:round;stroke-dasharray:none;stroke-opacity:1"
           id="path117-1-2-1-0"
           cx="-15.062199"
           cy="-89.088554"
           rx="2.7407913"
           ry="2.8030818"
           transform="rotate(122.32107)" /><path
           style="fill:#1c1d1d;fill-opacity:1;stroke:none;stroke-width:0.264583px;stroke-linecap:butt;stroke-linejoin:miter;stroke-opacity:1"
           d="m 81.668823,32.65373 -3.332092,-0.479824 -0.616178,2.779729 3.115865,1.095782 c 0.01217,-0.896268 0.0755,-1.960767 0.832405,-3.395687 z"
           id="path118-3-7-9-2" /><ellipse
           style="fill:#fcbb06;fill-opacity:1;stroke:none;stroke-width:0.0519999;stroke-linecap:round;stroke-dasharray:none;stroke-opacity:1"
           id="path117-1-2-1-0-2"
           cx="84.90139"
           cy="-47.539417"
           rx="2.7407913"
           ry="2.8030818"
           transform="rotate(43.826098)" /><path
           style="fill:#1c1d1d;fill-opacity:1;stroke:none;stroke-width:0.264583px;stroke-linecap:butt;stroke-linejoin:miter;stroke-opacity:1"
           d="m 91.633403,25.682433 -1.134782,3.169438 2.600978,1.158225 1.695236,-2.8347 c -0.875832,-0.19069 -1.906311,-0.465066 -3.161432,-1.492963 z"
           id="path118-3-7-9-2-4" /><ellipse
           style="fill:#2db601;fill-opacity:1;stroke:none;stroke-width:0.0519999;stroke-linecap:round;stroke-dasharray:none;stroke-opacity:1"
           id="path117-1-2-1-0-2-1"
           cx="108.02569"
           cy="58.609329"
           rx="2.7407913"
           ry="2.8030818"
           transform="rotate(-16.465016)" /><path
           style="fill:#1c1d1d;fill-opacity:1;stroke:none;stroke-width:0.264583px;stroke-linecap:butt;stroke-linejoin:miter;stroke-opacity:1"
           d="m 119.98129,28.381199 2.19044,2.55638 2.29501,-1.685085 -1.62195,-2.877266 c -0.59968,0.666201 -1.34869,1.425251 -2.8635,2.005971 z"
           id="path118-3-7-9-2-4-3" /><ellipse
           style="fill:#fe6907;fill-opacity:1;stroke:none;stroke-width:0.0519999;stroke-linecap:round;stroke-dasharray:none;stroke-opacity:1"
           id="path117-1-2-1-0-2-1-4"
           cx="-129.51363"
           cy="56.182243"
           rx="2.7407913"
           ry="2.8030818"
           transform="rotate(-142.0581)" /><path
           style="fill:#1c1d1d;fill-opacity:1;stroke:none;stroke-width:0.264583px;stroke-linecap:butt;stroke-linejoin:miter;stroke-opacity:1"
           d="m 139.08608,33.884114 0.80389,-3.269079 -2.70602,-0.885474 -1.39569,2.993563 c 0.89076,0.0999 1.94394,0.267184 3.29782,1.16099 z"
           id="path118-3-7-9-2-4-3-4" /><ellipse
           style="fill:#db0711;fill-opacity:1;stroke:none;stroke-width:0.0519999;stroke-linecap:round;stroke-dasharray:none;stroke-opacity:1"
           id="path117-1-2-1-0-2-1-4-6"
           cx="152.50282"
           cy="-45.060112"
           rx="2.7407913"
           ry="2.8030818"
           transform="rotate(26.239826)" /><path
           style="fill:#1c1d1d;fill-opacity:1;stroke:none;stroke-width:0.264583px;stroke-linecap:butt;stroke-linejoin:miter;stroke-opacity:1"
           d="m 154.64953,28.908292 -0.12414,3.36418 2.82938,0.318227 0.75952,-3.214421 c -0.89251,0.08288 -1.95773,0.132642 -3.46476,-0.467986 z"
           id="path118-3-7-9-2-4-3-4-1" /><ellipse
           style="fill:#01a6f8;fill-opacity:1;stroke:none;stroke-width:0.0519999;stroke-linecap:round;stroke-dasharray:none;stroke-opacity:1"
           id="path117-1-2-1-0-2-1-4-6-2"
           cx="-58.89537"
           cy="-180.95604"
           rx="2.7407913"
           ry="2.8030818"
           transform="rotate(115.22028)" /><path
           style="fill:#1c1d1d;fill-opacity:1;stroke:none;stroke-width:0.264583px;stroke-linecap:butt;stroke-linejoin:miter;stroke-opacity:1"
           d="m 186.86654,21.797663 -3.36586,-0.06426 -0.26783,2.834595 3.22742,0.702204 c -0.0987,-0.890894 -0.16745,-1.95506 0.40627,-3.472539 z"
           id="path118-3-7-9-2-4-3-4-1-9" /><ellipse
           style="fill:#2db601;fill-opacity:1;stroke:none;stroke-width:0.0519999;stroke-linecap:round;stroke-dasharray:none;stroke-opacity:1"
           id="path117-1-2-1-0-2-1-4-6-2-9"
           cx="-177.99236"
           cy="-102.07558"
           rx="2.7407913"
           ry="2.8030818"
           transform="rotate(160.08877)" /><path
           style="fill:#1c1d1d;fill-opacity:1;stroke:none;stroke-width:0.264583px;stroke-linecap:butt;stroke-linejoin:miter;stroke-opacity:1"
           d="m 202.17337,32.55436 -2.34014,-2.420097 -2.18958,1.820007 1.79198,2.774559 c 0.55855,-0.701033 1.26058,-1.503739 2.73774,-2.174469 z"
           id="path118-3-7-9-2-4-3-4-1-9-8" /><ellipse
           style="fill:#fe6907;fill-opacity:1;stroke:none;stroke-width:0.0519999;stroke-linecap:round;stroke-dasharray:none;stroke-opacity:1"
           id="path117-1-2-1-0-2-1-4-6-2-9-6"
           cx="214.13118"
           cy="33.747265"
           rx="2.7407913"
           ry="2.8030818"
           transform="rotate(-2.8567977)" /><path
           style="fill:#1c1d1d;fill-opacity:1;stroke:none;stroke-width:0.264583px;stroke-linecap:butt;stroke-linejoin:miter;stroke-opacity:1"
           d="m 214.67005,25.694394 1.52747,2.999993 2.62707,-1.097814 -0.89946,-3.178104 c -0.73959,0.506394 -1.64616,1.067911 -3.25508,1.275925 z"
           id="path118-3-7-9-2-4-3-4-1-9-8-3" /><ellipse
           style="fill:#db0711;fill-opacity:1;stroke:none;stroke-width:0.0519999;stroke-linecap:round;stroke-dasharray:none;stroke-opacity:1"
           id="path117-1-2-1-0-2-1-4-6-2-9-6-4"
           cx="-124.71476"
           cy="-201.52997"
           rx="2.7407913"
           ry="2.8030818"
           transform="rotate(129.56431)" /><path
           style="fill:#1c1d1d;fill-opacity:1;stroke:none;stroke-width:0.264583px;stroke-linecap:butt;stroke-linejoin:miter;stroke-opacity:1"
           d="m 233.42477,29.776752 -3.24501,-0.896129 -0.96174,2.679878 2.95285,1.47988 c 0.12509,-0.887571 0.32212,-1.935592 1.2539,-3.263629 z"
           id="path118-3-7-9-2-4-3-4-1-9-8-3-2" /><ellipse
           style="fill:#fcbb06;fill-opacity:1;stroke:none;stroke-width:0.0519999;stroke-linecap:round;stroke-dasharray:none;stroke-opacity:1"
           id="path117-1-2-1-0-2-1-4-6-2-9-6-4-3"
           cx="171.1375"
           cy="-172.22234"
           rx="2.7407913"
           ry="2.8030818"
           transform="rotate(50.334459)" /><path
           style="fill:#1c1d1d;fill-opacity:1;stroke:none;stroke-width:0.264583px;stroke-linecap:butt;stroke-linejoin:miter;stroke-opacity:1"
           d="m 239.15564,22.700852 -1.48674,3.020385 2.45295,1.445586 2.00561,-2.624286 c -0.84856,-0.288747 -1.84131,-0.678153 -2.97182,-1.84169 z"
           id="path118-3-7-9-2-4-3-4-1-9-8-3-2-7" /><ellipse
           style="fill:#2db601;fill-opacity:1;stroke:none;stroke-width:0.0519999;stroke-linecap:round;stroke-dasharray:none;stroke-opacity:1"
           id="path117-1-2-1-0-2-1-4-6-2-9-6-4-3-4"
           cx="248.19589"
           cy="-110.6651"
           rx="2.7407913"
           ry="2.8030818"
           transform="rotate(28.263097)" /><path
           style="fill:#1c1d1d;fill-opacity:1;stroke:none;stroke-width:0.264583px;stroke-linecap:butt;stroke-linejoin:miter;stroke-opacity:1"
           d="m 268.88263,21.879166 -0.24285,3.3577 2.81639,0.417925 0.87252,-3.1856 c -0.89487,0.05127 -1.96119,0.06344 -3.44607,-0.590027 z"
           id="path118-3-7-9-2-4-3-4-1-9-8-3-2-7-1" /><ellipse
           style="fill:#01a6f8;fill-opacity:1;stroke:none;stroke-width:0.0519999;stroke-linecap:round;stroke-dasharray:none;stroke-opacity:1"
           id="path117-1-2-1-0-2-1-4-6-2-9-6-4-3-1"
           cx="-245.68057"
           cy="74.485817"
           rx="2.7407913"
           ry="2.8030818"
           transform="rotate(-156.05671)" /><path
           style="fill:#1c1d1d;fill-opacity:1;stroke:none;stroke-width:0.264583px;stroke-linecap:butt;stroke-linejoin:miter;stroke-opacity:1"
           d="m 256.75062,29.648909 -0.0108,-3.366453 -2.83986,-0.204598 -0.6301,3.242271 c 0.88847,-0.118528 1.95085,-0.21098 3.48072,0.328785 z"
           id="path118-3-7-9-2-4-3-4-1-9-8-3-2-7-6" /><ellipse
           style="fill:#fcbb06;fill-opacity:1;stroke:none;stroke-width:0.0519999;stroke-linecap:round;stroke-dasharray:none;stroke-opacity:1"
           id="path117-1-2-1-0-2-1-4-6-6"
           cx="-119.55886"
           cy="126.99726"
           rx="2.7407913"
           ry="2.8030818"
           transform="rotate(-122.23039)" /><path
           style="fill:#1c1d1d;fill-opacity:1;stroke:none;stroke-width:0.264583px;stroke-linecap:butt;stroke-linejoin:miter;stroke-opacity:1"
           d="m 173.9414,32.864095 1.86509,-2.802603 -2.24526,-1.750848 -2.32835,2.342687 c 0.80409,0.396086 1.73807,0.910718 2.70852,2.210764 z"
           id="path118-3-7-9-2-4-3-4-1-3" /><ellipse
           style="fill:#01a6f8;fill-opacity:1;stroke:none;stroke-width:0.0519999;stroke-linecap:round;stroke-dasharray:none;stroke-opacity:1"
           id="path117-1-2-1-0-2-0"
           cx="-104.93862"
           cy="33.259354"
           rx="2.7407913"
           ry="2.8030818"
           transform="rotate(-140.96055)" /><path
           style="fill:#1c1d1d;fill-opacity:1;stroke:none;stroke-width:0.264583px;stroke-linecap:butt;stroke-linejoin:miter;stroke-opacity:1"
           d="m 104.88575,38.867889 0.86634,-3.253078 -2.68855,-0.937144 -1.45278,2.966272 c 0.88869,0.11694 1.93847,0.304372 3.27499,1.22395 z"
           id="path118-3-7-9-2-4-9" /></g></g></g></svg>
