<?xml version="1.0" encoding="UTF-8" standalone="no"?>
<!-- Created with Inkscape (http://www.inkscape.org/) -->

<svg
   width="54.149323mm"
   height="12.056765mm"
   viewBox="0 0 54.149323 12.056765"
   version="1.1"
   id="svg1"
   xml:space="preserve"
   xmlns="http://www.w3.org/2000/svg"
   xmlns:svg="http://www.w3.org/2000/svg"><defs
     id="defs1" /><g
     id="layer1"
     style="display:inline"
     transform="translate(-122.49408,-82.037893)"><g
       id="g35"
       transform="translate(104.50167,22.581114)"
       style="display:inline"><path
         style="fill:#b57b48;fill-opacity:1;stroke:none;stroke-width:0.264583px;stroke-linecap:butt;stroke-linejoin:miter;stroke-opacity:1"
         d="m 17.992409,65.061749 c 0,0 5.003299,-5.750805 25.586348,-5.602132 25.332432,0.182978 28.562972,4.625911 28.562972,4.625911 l -0.18999,5.509932 c 0,0 -16.08647,2.150669 -25.649684,1.897341 C 36.738841,71.23947 18.625734,70.888345 18.625734,70.888345 Z"
         id="path16" /><path
         style="fill:#d89e6e;fill-opacity:1;stroke:none;stroke-width:0.126665"
         d="m 22.842777,68.138957 c -0.317644,-0.08193 -0.916137,-0.338305 -1.329984,-0.569733 -0.724012,-0.404873 -2.795698,-2.002134 -3.254205,-2.50898 -0.214142,-0.236718 -0.203228,-0.258482 0.316662,-0.631576 3.294671,-2.364391 8.732851,-3.932463 16.181586,-4.66588 5.876507,-0.578615 17.588389,-0.300564 24.69969,0.586388 5.872009,0.732383 10.70069,2.084036 12.127355,3.39471 l 0.360746,0.331417 -0.04677,1.714283 -0.04677,1.714283 -2.904683,0.361675 c -3.003746,0.374007 -3.960302,0.380127 -4.63799,0.02968 -0.203435,-0.105198 -0.678177,-0.608724 -1.054981,-1.118941 -0.915424,-1.239544 -3.412426,-3.720867 -4.407979,-4.380299 -0.440587,-0.291835 -1.010579,-0.588801 -1.266651,-0.659924 -0.708498,-0.196784 -1.862375,-0.153212 -3.125554,0.118023 -0.626991,0.13463 -1.966474,0.42183 -2.976629,0.638222 -3.435914,0.736029 -5.826458,0.712896 -8.836782,-0.0855 -2.395632,-0.635376 -3.67212,-0.655365 -4.794922,-0.07509 -0.937225,0.484373 -2.195594,1.477227 -3.974742,3.136085 -0.731491,0.682032 -1.592117,1.44912 -1.912504,1.704639 l -0.58252,0.464579 -2.204111,0.215273 c -1.212263,0.118404 -2.831105,0.245531 -3.597429,0.282509 -0.766323,0.03698 -1.564313,0.08656 -1.773311,0.110173 -0.208997,0.02363 -0.639885,-0.02408 -0.957529,-0.106016 z"
         id="path18" /><ellipse
         style="opacity:1;fill:#b57b48;fill-opacity:1;stroke:none;stroke-width:0.1;stroke-linecap:round;stroke-opacity:1"
         id="path19"
         cx="31.127947"
         cy="62.635883"
         rx="1.4249823"
         ry="0.5699929" /><ellipse
         style="opacity:1;fill:#b57b48;fill-opacity:1;stroke:none;stroke-width:0.1;stroke-linecap:round;stroke-opacity:1"
         id="path20"
         cx="32.266056"
         cy="64.218636"
         rx="0.42543727"
         ry="0.24630579" /><ellipse
         style="opacity:1;fill:#b57b48;fill-opacity:1;stroke:none;stroke-width:0.1;stroke-linecap:round;stroke-opacity:1"
         id="path21"
         cx="34.348461"
         cy="61.509274"
         rx="0.38065439"
         ry="0.20152292" /><ellipse
         style="opacity:1;fill:#b57b48;fill-opacity:1;stroke:none;stroke-width:0.1;stroke-linecap:round;stroke-opacity:1"
         id="path22"
         cx="26.6682"
         cy="64.173851"
         rx="0.78370023"
         ry="0.35826296" /><ellipse
         style="opacity:1;fill:#b57b48;fill-opacity:1;stroke:none;stroke-width:0.1;stroke-linecap:round;stroke-opacity:1"
         id="path23"
         cx="23.559706"
         cy="64.155869"
         rx="0.37999526"
         ry="0.25333017" /><ellipse
         style="opacity:1;fill:#b57b48;fill-opacity:1;stroke:none;stroke-width:0.1;stroke-linecap:round;stroke-opacity:1"
         id="path24"
         cx="26.599669"
         cy="62.382553"
         rx="0.37999526"
         ry="0.18999763" /><ellipse
         style="opacity:1;fill:#b57b48;fill-opacity:1;stroke:none;stroke-width:0.1;stroke-linecap:round;stroke-opacity:1"
         id="path25"
         cx="29.03797"
         cy="65.074188"
         rx="0.28499645"
         ry="0.22166389" /><ellipse
         style="opacity:1;fill:#b57b48;fill-opacity:1;stroke:none;stroke-width:0.1;stroke-linecap:round;stroke-opacity:1"
         id="path26"
         cx="36.004551"
         cy="60.213413"
         rx="0.28499645"
         ry="0.14249822" /><ellipse
         style="opacity:1;fill:#b57b48;fill-opacity:1;stroke:none;stroke-width:0.1;stroke-linecap:round;stroke-opacity:1"
         id="path27"
         cx="46.201092"
         cy="60.625076"
         rx="0.34832898"
         ry="0.17416449" /><ellipse
         style="opacity:1;fill:#b57b48;fill-opacity:1;stroke:none;stroke-width:0.1;stroke-linecap:round;stroke-opacity:1"
         id="path28"
         cx="47.594406"
         cy="61.2584"
         rx="0.37999526"
         ry="0.23749703" /><ellipse
         style="opacity:1;fill:#b57b48;fill-opacity:1;stroke:none;stroke-width:0.1;stroke-linecap:round;stroke-opacity:1"
         id="path29"
         cx="48.354397"
         cy="60.577576"
         rx="0.31666273"
         ry="0.18999763" /><ellipse
         style="opacity:1;fill:#b57b48;fill-opacity:1;stroke:none;stroke-width:0.1;stroke-linecap:round;stroke-opacity:1"
         id="path30"
         cx="65.047119"
         cy="63.479721"
         rx="0.91804886"
         ry="0.47022015" /><ellipse
         style="opacity:1;fill:#b57b48;fill-opacity:1;stroke:none;stroke-width:0.1;stroke-linecap:round;stroke-opacity:1"
         id="path31"
         cx="68.226707"
         cy="64.979942"
         rx="0.69413453"
         ry="0.31348011" /><ellipse
         style="opacity:1;fill:#b57b48;fill-opacity:1;stroke:none;stroke-width:0.1;stroke-linecap:round;stroke-opacity:1"
         id="path32"
         cx="67.823662"
         cy="63.211021"
         rx="0.38065439"
         ry="0.24630579" /><ellipse
         style="opacity:1;fill:#b57b48;fill-opacity:1;stroke:none;stroke-width:0.1;stroke-linecap:round;stroke-opacity:1"
         id="path33"
         cx="64.129074"
         cy="62.136234"
         rx="0.44782871"
         ry="0.20152292" /><ellipse
         style="opacity:1;fill:#b57b48;fill-opacity:1;stroke:none;stroke-width:0.1;stroke-linecap:round;stroke-opacity:1"
         id="path34"
         cx="66.144295"
         cy="65.248642"
         rx="0.35826296"
         ry="0.26869723" /><ellipse
         style="opacity:1;fill:#b57b48;fill-opacity:1;stroke:none;stroke-width:0.1;stroke-linecap:round;stroke-opacity:1"
         id="path35"
         cx="69.697464"
         cy="64.045029"
         rx="0.31666273"
         ry="0.20583077" /></g></g></svg>
