<?xml version="1.0" encoding="UTF-8" standalone="no"?>
<!-- Created with Inkscape (http://www.inkscape.org/) -->

<svg
   width="22.823303mm"
   height="68.365852mm"
   viewBox="0 0 22.823303 68.365852"
   version="1.1"
   id="svg1"
   xml:space="preserve"
   xmlns="http://www.w3.org/2000/svg"
   xmlns:svg="http://www.w3.org/2000/svg"><defs
     id="defs1" /><g
     id="layer1"
     style="display:inline"
     transform="translate(-154.30103,-25.422501)"><g
       id="g70"
       style="display:inline"
       transform="translate(42.052809,-1.519981)"><path
         style="display:inline;fill:#b57b48;fill-opacity:1;stroke:none;stroke-width:0.264583px;stroke-linecap:butt;stroke-linejoin:miter;stroke-opacity:1"
         d="m 120.80994,47.682268 c -4.90484,15.061248 -5.62321,23.755979 -8.5533,43.634255 -0.25333,2.533304 5.26001,3.991814 8.5533,3.991814 3.29329,0 8.87183,0.01801 8.87183,-5.301928 0,0 -2.15858,-25.09769 0.1214,-42.830803 2.27997,-17.733113 8.29134,-18.478878 3.40573,-20.183163 -3.48891,-0.684079 -7.49412,5.628576 -12.39896,20.689825 z"
         id="path67" /><path
         style="fill:#d89e6e;fill-opacity:1;stroke:none;stroke-width:0.264583px;stroke-linecap:butt;stroke-linejoin:miter;stroke-opacity:1"
         d="m 133.63167,30.399619 c 0,0 -5.8266,7.21991 -8.48656,23.559706 -2.65997,16.339796 -2.53331,39.772839 -2.53331,39.772839 0,0 3.67329,1.899975 3.92662,-6.079924 0.25333,-7.979902 0.12667,-37.239535 1.89998,-43.319459 1.77331,-6.079926 5.19327,-13.933162 5.19327,-13.933162 z"
         id="path70" /></g></g></svg>
