<?xml version="1.0" encoding="UTF-8" standalone="no"?>
<!-- Created with Inkscape (http://www.inkscape.org/) -->

<svg
   width="16.557461mm"
   height="8.8498068mm"
   viewBox="0 0 16.557461 8.8498068"
   version="1.1"
   id="svg1"
   xml:space="preserve"
   xmlns="http://www.w3.org/2000/svg"
   xmlns:svg="http://www.w3.org/2000/svg"><defs
     id="defs1" /><g
     id="layer1"
     style="display:inline"
     transform="translate(-135.4631,-107.5542)"><g
       id="g83"
       transform="translate(42.052809,-1.519981)"
       style="display:inline"><g
         id="g126"><path
           style="display:inline;fill:#f95400;fill-opacity:1;stroke:none;stroke-width:0.264583px;stroke-linecap:butt;stroke-linejoin:miter;stroke-opacity:1"
           d="m 105.15018,109.25484 c 2.40664,-0.50666 3.1348,0.10493 4.29915,1.17972 1.16436,1.07479 0.27526,4.43834 -1.74705,5.05279 -3.60618,1.09569 -14.003344,3.25484 -14.285182,2.11247 -0.3114,-1.2622 10.164012,-7.60745 11.733082,-8.34498 z"
           id="path83" /><path
           style="display:inline;fill:none;stroke:#ff6f25;stroke-width:0.264583px;stroke-linecap:butt;stroke-linejoin:miter;stroke-opacity:1"
           d="m 144.45215,109.63165 c 0,0 1.9933,0.68519 2.55392,1.80643 0.56062,1.12123 0.43604,2.18017 0.43604,2.18017"
           id="path124"
           transform="translate(-42.052809,1.519981)" /><path
           style="display:inline;fill:none;stroke:#ff6f25;stroke-width:0.264583px;stroke-linecap:butt;stroke-linejoin:miter;stroke-opacity:1"
           d="m 140.83929,111.9987 c 0,0 1.55727,0.31145 2.11789,1.05894 0.56061,0.74748 0.6229,1.12123 0.6229,1.12123"
           id="path125"
           transform="translate(-42.052809,1.519981)" /><path
           style="display:inline;fill:none;stroke:#ff6f25;stroke-width:0.264583px;stroke-linecap:butt;stroke-linejoin:miter;stroke-opacity:1"
           d="m 138.0985,114.42803 c 0,0 0.12458,-0.12458 0.56062,0.37375 0.43603,0.49832 0.49832,0.56061 0.49832,0.56061"
           id="path126"
           transform="translate(-42.052809,1.519981)" /></g></g></g></svg>
