<?xml version="1.0" encoding="UTF-8" standalone="no"?>
<!-- Created with Inkscape (http://www.inkscape.org/) -->

<svg
   width="72.930534mm"
   height="74.858727mm"
   viewBox="0 0 72.930534 74.858727"
   version="1.1"
   id="svg1"
   xml:space="preserve"
   xmlns="http://www.w3.org/2000/svg"
   xmlns:svg="http://www.w3.org/2000/svg"><defs
     id="defs1" /><g
     id="layer1"
     style="display:inline"
     transform="translate(-106.01906,-83.836025)"><g
       id="g17"
       transform="translate(59.09757,33.537588)"
       style="display:inline"><path
         style="fill:#bab69e;fill-opacity:1;stroke:none;stroke-width:0.179131"
         d="m 87.057899,125.00785 c -4.298763,-0.39495 -10.381205,-1.68715 -13.407099,-2.8483 -1.950503,-0.74849 -3.581281,-1.84974 -4.099597,-2.76842 -1.542272,-2.73358 -3.86112,-10.68086 -5.226677,-17.91315 -1.723951,-9.130403 -1.918523,-12.548772 -2.282153,-40.093942 l -0.120187,-9.104199 0.811763,0.547852 c 1.002937,0.676873 2.733471,1.461733 4.422198,2.005623 l 1.280599,0.412444 -0.13861,2.605558 c -0.232661,4.373549 -0.167201,17.721307 0.100187,20.42914 0.514692,5.212257 1.227111,8.347932 2.813138,12.381855 1.310954,3.3343 4.742645,10.292149 6.262084,12.696549 3.830269,6.06113 8.061727,10.14238 12.450458,12.00851 2.954927,1.25647 11.579247,3.91131 18.607677,5.72805 0.43594,0.11268 0.71432,0.27 0.62696,0.35431 -0.38145,0.36811 -3.50464,1.49932 -5.67172,2.05427 -5.403839,1.38383 -11.580984,1.94926 -16.429021,1.50385 z"
         id="path9" /><path
         style="fill:#e3dcc6;fill-opacity:1;stroke:none;stroke-width:0.179131"
         d="m 105.38721,120.46674 c -6.846991,-1.45406 -14.739192,-4.28291 -16.798667,-5.32651 -2.578131,-1.30642 -5.840499,-3.9311 -8.207649,-6.85525 -3.261688,-4.02917 -6.500622,-10.981568 -9.259686,-17.878113 -2.342137,-5.854398 -3.045672,-10.21367 -3.257997,-20.187327 -0.09817,-4.61123 0.171029,-14.796923 0.39715,-15.027198 0.03766,-0.03835 1.05814,0.142349 2.267741,0.401548 6.237364,1.336564 9.472504,1.617358 18.768941,1.629047 7.860236,0.0099 10.264486,-0.119684 15.136607,-0.815716 6.21271,-0.88755 11.29931,-2.537388 14.08256,-4.567681 l 0.82683,-0.603147 0.11178,2.371098 c 0.50969,10.811742 0.18724,20.316888 -1.14386,33.719105 -2.08044,20.946944 -4.87639,31.549884 -8.68578,33.904214 -0.88479,0.54684 -2.51302,-0.39775 -4.23797,-0.76407 z"
         id="path10" /><path
         style="fill:#eeeadd;fill-opacity:1;stroke:none;stroke-width:0.161436"
         d="m 108.0621,112.79754 c -1.44995,-1.16413 -2.52486,-4.34474 -3.15458,-9.33426 -0.57542,-4.559224 -0.64445,-6.224334 -0.63939,-15.424455 0.006,-10.047735 0.0814,-11.269863 1.05223,-16.948761 0.86915,-5.08403 2.06245,-7.813481 3.96247,-9.063455 1.67582,-1.102468 4.28441,-0.395259 4.86509,1.648016 0.94668,3.331044 -0.34356,13.207256 -0.95534,24.64205 -0.56013,10.469821 -2.35362,21.813995 -3.81865,24.153895 -0.47183,0.75358 -0.70736,0.81229 -1.31183,0.32697 z"
         id="path11" /><path
         style="fill:#e3dcc6;fill-opacity:1;stroke:none;stroke-width:0.0895657"
         d="m 62.964716,105.15305 c -1.530019,-0.3083 -4.384344,-0.99956 -5.418727,-1.31232 -4.030599,-1.2187 -6.880297,-5.380016 -8.72394,-12.739285 -0.788686,-3.148195 -1.677048,-8.098528 -1.851289,-10.31617 -0.261424,-3.327268 0.52283,-6.436236 2.217197,-8.789506 1.343102,-1.865408 3.763661,-3.65841 5.939756,-4.399815 1.948333,-0.663805 4.45081,-0.785029 6.592162,-0.319336 l 0.456907,0.09937 0.0644,3.221718 c 0.03542,1.771943 0.04764,3.238478 0.02715,3.258962 -0.02048,0.02048 -0.214768,-0.04095 -0.431739,-0.13653 -1.102027,-0.485436 -2.981151,-0.749594 -3.932344,-0.552786 -0.270936,0.05606 -0.815048,0.141986 -1.209137,0.190947 -2.303339,0.286179 -3.824738,1.578885 -4.378886,3.720661 -0.362342,1.40044 -0.445987,2.277017 -0.447969,4.694565 -0.0027,3.329718 0.368731,6.200389 1.11611,8.625372 0.693206,2.249207 2.318983,5.233535 3.338947,6.129076 0.335248,0.294351 1.412399,0.744407 2.429052,1.014912 0.346345,0.09215 1.175792,0.344855 1.843217,0.56156 0.667425,0.216704 1.654887,0.506796 2.194362,0.644652 0.539472,0.137856 1.026144,0.284996 1.081487,0.326977 0.05534,0.04198 0.128029,0.287226 0.161525,0.544986 0.05796,0.44601 0.953339,5.0331 1.083633,5.55151 0.0619,0.24629 0.06188,0.2463 -0.418026,0.23972 -0.263961,-0.004 -1.044194,-0.12028 -1.733848,-0.25924 z"
         id="path12" /><path
         style="fill:#bab69e;fill-opacity:1;stroke:none;stroke-width:0.0895657"
         d="m 56.034404,96.594637 c -0.761169,-0.354336 -1.388567,-1.131375 -2.29059,-2.836913 -1.542058,-2.915711 -2.23965,-5.541219 -2.56545,-9.655493 -0.113472,-1.432919 -0.0591,-4.394192 0.100052,-5.449593 0.364664,-2.418215 1.125085,-3.710676 2.612075,-4.439658 0.360275,-0.176623 0.789731,-0.347086 0.954347,-0.378807 l 0.299302,-0.05768 -0.508947,0.481341 c -1.018011,0.962792 -1.799855,2.665602 -2.155413,4.694367 -0.19817,1.130736 -0.265371,3.539707 -0.137652,4.934389 0.47039,5.136576 2.097077,10.2616 3.970221,12.508537 0.195064,0.233992 0.32068,0.425045 0.279146,0.424563 -0.04153,-5.29e-4 -0.292224,-0.101756 -0.557091,-0.225053 z"
         id="path13" /><path
         style="fill:#eeeadd;fill-opacity:1;stroke:none;stroke-width:0.0895657"
         d="M 84.925833,57.456883 C 74.527499,57.024488 66.595647,55.330204 62.534399,52.673962 c -0.909457,-0.594825 -1.113544,-0.854704 -1.1113,-1.415089 0.0011,-0.257225 0.03059,-0.578517 0.06568,-0.713986 l 0.06381,-0.246303 h 1.007276 1.007277 l 0.155123,0.425436 c 0.144179,0.39542 0.781219,1.186746 0.955365,1.186746 0.04221,0 0.09862,0.05701 0.125362,0.126688 0.140333,0.365694 2.194232,1.300425 4.045792,1.841238 1.840666,0.537631 5.965814,1.340626 6.275861,1.22165 0.07045,-0.02703 0.12809,-0.007 0.12809,0.04446 0,0.05149 0.131569,0.08228 0.292377,0.06843 0.160809,-0.01386 0.336246,0.0019 0.389861,0.03506 0.05361,0.03314 0.395621,0.08705 0.760019,0.119804 0.959191,0.08623 1.246169,0.11499 1.647761,0.165155 0.197043,0.02461 0.607319,0.06625 0.91172,0.09252 0.304403,0.02627 0.746744,0.06733 0.982985,0.09123 3.165415,0.320299 7.826935,0.58275 10.318565,0.580953 7.0918,-0.0051 13.889107,-0.785992 21.552977,-2.476013 0.78817,-0.173802 1.45319,-0.342408 1.47784,-0.374676 0.0247,-0.03227 0.16572,-0.07156 0.31351,-0.08732 0.14778,-0.01577 0.28138,-0.06387 0.29688,-0.106926 0.0155,-0.04305 0.086,-0.05608 0.15673,-0.02894 0.0707,0.02713 0.12857,-0.0021 0.12857,-0.06474 0,-0.06274 0.0265,-0.08756 0.0589,-0.05514 0.0324,0.03241 0.11302,0.01405 0.17913,-0.04082 0.0661,-0.05486 0.1202,-0.07791 0.1202,-0.05121 0,0.0267 0.29089,-0.09302 0.64643,-0.266054 0.74696,-0.363525 1.99709,-1.513377 2.27413,-2.091709 l 0.16946,-0.353766 0.96061,-0.0011 0.96062,-0.0011 -0.0877,0.23069 c -0.92777,2.440218 -7.10286,4.905552 -15.2236,6.07785 -3.34698,0.483163 -6.392247,0.723976 -10.837447,0.856998 -3.26629,0.09774 -6.31327,0.09523 -8.77745,-0.0072 z"
         id="path68" /><ellipse
         style="display:inline;opacity:1;fill:#262626;fill-opacity:1;stroke:none;stroke-width:0.1;stroke-linecap:round;stroke-opacity:1"
         id="path80"
         cx="88.508469"
         cy="120.24942"
         rx="2.2839265"
         ry="2.0600121" /><ellipse
         style="display:inline;fill:#262626;fill-opacity:1;stroke:none;stroke-width:0.1;stroke-linecap:round;stroke-opacity:1"
         id="path80-5"
         cx="88.41021"
         cy="111.94791"
         rx="2.2839265"
         ry="2.0600121" /><g
         id="g66"
         transform="translate(-17.044761,-59.123936)"><g
           id="g55"
           transform="translate(-0.16826534,2.645372)"><path
             style="fill:#da1515;fill-opacity:1;stroke:none;stroke-width:0.0633325"
             d="m 82.428237,155.88195 c -1.010153,-0.20677 -1.855735,-0.37638 -1.879066,-0.37691 -0.169233,-0.004 -0.898742,-4.22812 -1.097219,-6.35353 -0.08454,-0.90536 -0.147661,-3.93942 -0.08329,-4.00379 0.01151,-0.0115 0.604883,0.13371 1.318593,0.32274 0.713711,0.18902 1.881897,0.48176 2.595973,0.65052 l 1.298316,0.30685 -0.01669,0.97567 c -0.0092,0.53662 -0.04467,1.88766 -0.07884,3.00231 -0.03418,1.11466 -0.06229,2.88876 -0.06246,3.94245 -2.52e-4,1.49191 -0.01783,1.91513 -0.07949,1.91272 -0.04354,-0.002 -0.905656,-0.17226 -1.915811,-0.37903 z"
             id="path50" /><path
             style="fill:#da1515;fill-opacity:1;stroke:none;stroke-width:0.0649952"
             d="m 105.16732,159.55115 c -1.24595,-0.0968 -3.1292,-0.3127 -5.202727,-0.59641 -2.512691,-0.3438 -6.031634,-0.89162 -6.091304,-0.94828 -0.02391,-0.0227 -0.04377,-0.85865 -0.04413,-1.85765 -5.57e-4,-1.34277 0.0316,-2.0971 0.123,-2.89303 0.186026,-1.6198 0.619911,-4.84417 0.656532,-4.87894 0.01769,-0.0168 0.672157,0.0555 1.454351,0.16073 2.759517,0.37118 6.060018,0.68733 8.681458,0.83157 l 1.37813,0.0758 0.0371,0.25875 c 0.0606,0.42254 0.17683,4.95299 0.19309,7.5262 l 0.0151,2.39084 -0.26681,-0.009 c -0.14674,-0.005 -0.56695,-0.0322 -0.93381,-0.0607 z"
             id="path51" /><path
             style="fill:#0e8a0f;fill-opacity:1;stroke:none;stroke-width:0.0659492"
             d="m 106.39723,159.10789 c -0.0247,-0.2927 -0.0451,-1.59358 -0.0453,-2.89085 -2.9e-4,-2.15203 -0.0935,-5.77736 -0.16626,-6.47622 l -0.0297,-0.28499 2.65588,0.0198 c 3.16474,0.0236 5.42512,-0.0648 8.77511,-0.3434 l 0.48795,-0.0406 0.0463,1.00539 c 0.0833,1.80736 0.24718,6.87738 0.24772,7.6636 l 5.6e-4,0.76828 -0.73824,0.10354 c -3.58095,0.50228 -7.58316,0.89266 -9.91243,0.96688 l -1.27665,0.0407 z"
             id="path52" /><path
             style="fill:#0e8a0f;fill-opacity:1;stroke:none;stroke-width:0.0649396"
             d="m 92.456893,157.74594 c -3.303853,-0.56801 -7.840156,-1.38476 -8.117367,-1.46152 -0.123209,-0.0341 -0.125676,-0.12121 -0.08554,-3.0202 0.03731,-2.69491 0.160819,-6.75707 0.206778,-6.80078 0.01,-0.01 0.40541,0.0663 0.878677,0.1685 1.985841,0.4288 5.169325,1.01214 7.814513,1.43192 0.786241,0.12478 1.434913,0.23252 1.441498,0.23942 0.0066,0.007 -0.101617,0.86755 -0.240454,1.91254 -0.466168,3.50877 -0.499464,3.90233 -0.499623,5.90577 -9.4e-5,1.19622 -0.02373,1.8506 -0.06673,1.84717 -0.03662,-0.003 -0.635912,-0.10319 -1.331749,-0.22282 z"
             id="path53" /><path
             style="fill:#da1515;fill-opacity:1;stroke:none;stroke-width:0.0663494"
             d="m 118.32924,157.67322 c -5.8e-4,-0.88565 -0.16529,-5.93116 -0.24922,-7.63157 -0.0266,-0.53795 -0.0198,-0.93415 0.016,-0.93415 0.0341,0 0.70287,-0.07 1.48599,-0.15554 2.71195,-0.29625 5.64105,-0.72786 8.43472,-1.24288 0.95046,-0.17521 1.73852,-0.30909 1.75125,-0.29749 0.04,0.0364 0.15869,1.04407 0.2856,2.42423 0.0915,0.99496 0.12296,2.01864 0.12495,4.06384 0.001,1.50363 -0.0174,2.7522 -0.042,2.77461 -0.0995,0.0907 -11.30241,1.86977 -11.77404,1.86977 -0.018,0 -0.0329,-0.39186 -0.0333,-0.87082 z"
             id="path54" /><path
             style="fill:#0e8a0f;fill-opacity:1;stroke:none;stroke-width:0.0633325"
             d="m 130.07158,154.7271 c 0.0346,-2.2782 -0.11123,-5.31001 -0.3404,-7.07625 l -0.037,-0.285 0.52838,-0.11536 c 1.55259,-0.33895 4.78155,-1.17349 5.44199,-1.4065 0.2394,-0.0845 0.24827,-0.0827 0.25551,0.0522 0.004,0.0768 0.006,0.15436 0.005,0.17229 -0.001,0.0179 -0.0335,0.60217 -0.0714,1.29831 -0.21357,3.92687 -0.36718,5.30003 -0.77214,6.90232 -0.14443,0.57148 -0.42699,1.43183 -0.49429,1.50507 -0.0245,0.0266 -0.9974,0.23367 -2.16205,0.46006 -1.16465,0.22641 -2.17742,0.42496 -2.25061,0.44124 l -0.13306,0.0296 z"
             id="path55" /></g><g
           id="g65"
           transform="translate(-55.605973,-17.543115)"><path
             style="fill:#da1515;fill-opacity:1;stroke:none;stroke-width:0.0895657"
             d="m 163.13464,172.33237 c -1.91613,-0.23927 -3.49938,-0.45054 -3.51833,-0.46949 -0.019,-0.0189 -0.007,-0.584 0.0268,-1.25565 0.0537,-1.06957 0.0804,-1.22119 0.21476,-1.22119 0.0844,0 0.61231,-0.1051 1.17312,-0.23355 0.97098,-0.22241 1.06942,-0.22885 2.06247,-0.13477 0.97535,0.0924 3.50181,0.48541 3.8685,0.60177 0.15416,0.0489 0.16041,0.14454 0.10085,1.54393 -0.0349,0.82047 -0.081,1.522 -0.10244,1.55895 -0.0505,0.087 0.19161,0.11166 -3.82575,-0.39 z"
             id="path63" /><path
             style="fill:#0e8a0f;fill-opacity:1;stroke:none;stroke-width:0.0895657"
             d="m 163.95009,180.55833 c -2.24829,-0.12798 -4.766,-0.39145 -4.80889,-0.50324 -0.0229,-0.0597 0.0825,-1.754 0.23427,-3.76509 0.15176,-2.01109 0.27583,-3.83073 0.2757,-4.04363 l -2.4e-4,-0.3871 0.47022,0.0559 c 3.66482,0.43589 6.80143,0.83959 6.84249,0.88064 0.0505,0.0505 -0.27435,6.32012 -0.38021,7.33876 l -0.0535,0.515 -0.73013,-0.0138 c -0.40156,-0.008 -1.23393,-0.0425 -1.84969,-0.0775 z"
             id="path64" /><path
             style="fill:#da1515;fill-opacity:1;stroke:none;stroke-width:0.0895657"
             d="m 160.50181,188.26455 c -0.83744,-0.0356 -1.59034,-0.0931 -1.6731,-0.12779 -0.19309,-0.0809 -0.34213,-0.51043 -0.34213,-0.98591 0,-0.2052 0.0776,-1.21687 0.17243,-2.24817 0.0948,-1.0313 0.22175,-2.54971 0.28202,-3.37424 l 0.10959,-1.49916 0.32255,0.0438 c 0.90684,0.1232 3.40996,0.32162 5.1591,0.40895 1.08374,0.0541 1.97919,0.1069 1.98988,0.11733 0.0403,0.0393 -0.34369,5.25137 -0.46529,6.31612 -0.0775,0.67873 -0.17123,1.13876 -0.24072,1.18171 -0.27685,0.17111 -3.11971,0.26062 -5.31433,0.16733 z"
             id="path65" /></g><g
           id="g60"
           transform="translate(-64.688198,-22.275637)"><path
             style="fill:#0e8a0f;fill-opacity:1;stroke:none;stroke-width:0.126665"
             d="m 168.40825,178.32967 c -0.80115,-0.15591 -2.78351,-0.60883 -4.40523,-1.0065 l -2.94857,-0.72303 0.087,-1.15927 c 0.11082,-1.47744 0.17999,-1.72274 0.56734,-2.01193 0.42678,-0.31864 2.05906,-0.59416 3.55195,-0.59956 1.25342,-0.005 3.5686,0.33288 4.77632,0.6961 l 0.67879,0.20414 -0.0865,0.78266 c -0.0476,0.43046 -0.23905,1.52924 -0.42545,2.44175 l -0.33892,1.6591 z"
             id="path58" /><path
             style="fill:#0e8a0f;fill-opacity:1;stroke:none;stroke-width:0.126665"
             d="m 163.65129,192.76757 c -2.73465,-0.34332 -6.01832,-1.05597 -6.58926,-1.43006 -0.17269,-0.11315 -0.31399,-0.30699 -0.31399,-0.43076 0,-0.12375 0.56937,-1.39067 1.26526,-2.81537 0.69589,-1.4247 1.26589,-2.68697 1.26665,-2.80506 10e-4,-0.19203 0.0716,-0.18382 0.66639,0.0778 1.33323,0.58632 3.12302,1.10517 5.42838,1.57367 l 2.35676,0.47893 -0.71675,2.08213 c -0.72431,2.10412 -1.01785,2.78688 -1.3717,3.19045 -0.21367,0.24368 -0.56455,0.25748 -1.99174,0.0783 z"
             id="path59" /><path
             style="fill:#da1515;fill-opacity:1;stroke:none;stroke-width:0.128029"
             d="m 165.79236,187.19011 c -2.33161,-0.47649 -3.52239,-0.78734 -4.91748,-1.2837 -0.78291,-0.27856 -1.46872,-0.54756 -1.52402,-0.59778 -0.0553,-0.0502 0.0474,-0.62842 0.22835,-1.28488 0.37064,-1.34505 0.99667,-4.52852 1.23726,-6.29184 0.088,-0.64441 0.20451,-1.17165 0.25905,-1.17165 0.0546,0 1.48757,0.33441 3.18447,0.74314 1.69688,0.40873 3.63848,0.84452 4.31463,0.96842 0.67615,0.1239 1.2705,0.26009 1.32076,0.30265 0.0986,0.0834 -0.8526,4.14099 -1.65824,7.07401 l -0.49578,1.80498 -0.39217,-0.0127 c -0.21569,-0.007 -0.91627,-0.11977 -1.55683,-0.25068 z"
             id="path60" /></g></g></g></g></svg>
