<?xml version="1.0" encoding="UTF-8" standalone="no"?>
<!-- Created with Inkscape (http://www.inkscape.org/) -->

<svg
   width="58.33696mm"
   height="12.608678mm"
   viewBox="0 0 58.33696 12.608678"
   version="1.1"
   id="svg1"
   xml:space="preserve"
   xmlns="http://www.w3.org/2000/svg"
   xmlns:svg="http://www.w3.org/2000/svg"><defs
     id="defs1" /><g
     id="layer1"
     style="display:inline"
     transform="translate(-120.64219,-77.380944)"><g
       id="g69"
       transform="translate(42.052809,-1.519981)"
       style="display:inline"><path
         style="display:inline;fill:#da1515;fill-opacity:1;stroke:none;stroke-width:0.192223"
         d="m 103.25459,91.343433 c -13.081519,-0.80125 -21.02131,-2.70997 -22.549503,-5.42087 -0.202724,-0.35962 -0.368898,-0.71931 -0.369278,-0.79932 -0.0013,-0.29237 3.470313,-1.948 5.317943,-2.53609 5.674135,-1.80603 12.813719,-2.65532 22.314108,-2.65437 6.07832,5.9e-4 9.43898,0.20443 14.23225,0.86318 4.96547,0.68242 10.8308,1.83926 12.49516,2.77014 1.56227,0.87377 0.25762,3.23933 -1.96331,4.31081 -1.82172,0.87888 -8.76021,2.28285 -14.34422,2.97243 -5.47079,0.67561 -9.84041,0.81828 -15.13315,0.49409 z"
         id="path15" /><path
         style="fill:#eeeadd;fill-opacity:1;stroke:none;stroke-width:0.0895657"
         d="m 78.739656,85.15503 c 0.246658,-0.476982 1.193107,-1.396015 1.971,-1.913903 3.489632,-2.323248 10.459032,-3.766158 20.498634,-4.24393 3.86744,-0.184049 11.95047,-0.09323 15.9427,0.179126 9.27856,0.632997 16.3556,2.168631 18.7863,4.076398 0.57357,0.450181 0.86205,0.97259 0.93675,1.696397 l 0.0513,0.4966 h -0.95298 -0.95297 v -0.277554 c 0,-0.416269 -0.24181,-0.845208 -0.61614,-1.092927 -0.73393,-0.485696 -3.37342,-1.313347 -5.92216,-1.856986 -6.49984,-1.386401 -12.59963,-1.966103 -20.68968,-1.96627 -8.657472,-1.8e-4 -14.608533,0.583806 -20.197075,1.98197 -3.620591,0.905812 -6.941344,2.360441 -6.941344,3.040594 0,0.158615 -0.07572,0.171173 -1.032306,0.171173 h -1.032307 z"
         id="path69" /></g></g></svg>
