<?xml version="1.0" encoding="UTF-8" standalone="no"?>
<!-- Created with Inkscape (http://www.inkscape.org/) -->

<svg
   width="210mm"
   height="297mm"
   viewBox="0 0 210 297"
   version="1.1"
   id="svg8"
   inkscape:version="1.2.2 (732a01da63, 2022-12-09)"
   sodipodi:docname="logo.svg"
   xmlns:inkscape="http://www.inkscape.org/namespaces/inkscape"
   xmlns:sodipodi="http://sodipodi.sourceforge.net/DTD/sodipodi-0.dtd"
   xmlns="http://www.w3.org/2000/svg"
   xmlns:svg="http://www.w3.org/2000/svg"
   xmlns:rdf="http://www.w3.org/1999/02/22-rdf-syntax-ns#"
   xmlns:cc="http://creativecommons.org/ns#"
   xmlns:dc="http://purl.org/dc/elements/1.1/">
  <defs
     id="defs2" />
  <sodipodi:namedview
     id="base"
     pagecolor="#ffffff"
     bordercolor="#666666"
     borderopacity="1.0"
     inkscape:pageopacity="0.0"
     inkscape:pageshadow="2"
     inkscape:zoom="0.51415728"
     inkscape:cx="861.60406"
     inkscape:cy="731.29374"
     inkscape:document-units="mm"
     inkscape:current-layer="layer5"
     showgrid="false"
     inkscape:snap-global="false"
     inkscape:window-width="2560"
     inkscape:window-height="1369"
     inkscape:window-x="-8"
     inkscape:window-y="-8"
     inkscape:window-maximized="1"
     inkscape:showpageshadow="2"
     inkscape:pagecheckerboard="0"
     inkscape:deskcolor="#d1d1d1" />
  <metadata
     id="metadata5">
    <rdf:RDF>
      <cc:Work
         rdf:about="">
        <dc:format>image/svg+xml</dc:format>
        <dc:type
           rdf:resource="http://purl.org/dc/dcmitype/StillImage" />
        <dc:title />
      </cc:Work>
    </rdf:RDF>
  </metadata>
  <g
     inkscape:groupmode="layer"
     id="layer13"
     inkscape:label="studio" />
  <g
     inkscape:groupmode="layer"
     id="layer10"
     inkscape:label="point"
     style="display:inline">
    <ellipse
       style="opacity:1;vector-effect:none;fill:#0094a0;fill-opacity:1;fill-rule:nonzero;stroke:none;stroke-width:0.12993661;stroke-linecap:butt;stroke-linejoin:miter;stroke-miterlimit:4;stroke-dasharray:none;stroke-dashoffset:0;stroke-opacity:1"
       id="path5135"
       cx="264.96988"
       cy="106.11144"
       rx="8.2884016"
       ry="9.4186382"
       inkscape:transform-center-x="-9.1044191"
       inkscape:transform-center-y="-31.865418"
       inkscape:export-xdpi="96"
       inkscape:export-ydpi="96" />
  </g>
  <g
     inkscape:groupmode="layer"
     id="layer7"
     inkscape:label="d"
     style="display:inline">
    <path
       style="fill:#a14300;fill-opacity:1;stroke:none;stroke-width:0.15708989"
       d="m 217.51665,193.04564 c -3.50059,-1.22862 -7.86555,-5.42901 -11.11763,-8.96371 -1.65233,-1.79595 -3.3019,-4.06228 -3.90782,-5.3689 -2.25393,-4.86059 -4.01361,-13.64406 -4.3149,-21.53774 -0.21102,-5.52685 0.34591,-9.66429 2.03524,-15.11978 1.94544,-6.28283 5.2148,-12.98901 7.47276,-15.32836 4.80194,-4.97508 12.0026,-8.73394 18.08788,-9.44215 1.98772,-0.23133 6.61237,0.33731 8.56582,1.05323 2.34661,0.86 4.79828,2.15885 7.21242,3.82103 2.30155,1.58465 5.9719,4.72646 6.25094,5.35082 0.0842,0.18796 0.21337,0.34863 0.28717,0.35706 0.22219,0.0255 0.57842,-0.49865 0.46839,-0.68906 -0.0561,-0.0975 0.4356,-6.65367 1.09324,-14.5693 1.70099,-20.474831 1.67867,-20.156979 1.48003,-21.055236 -0.22843,-1.032719 -0.81499,-1.961962 -1.54999,-2.455303 -0.83321,-0.559222 -3.271,-1.367471 -5.16334,-1.711907 l -1.57947,-0.28747 -0.53217,-1.537955 c -0.29266,-0.845877 -0.50906,-1.557649 -0.48076,-1.581713 0.0281,-0.0239 5.87262,0.661289 12.98749,1.522917 l 12.93611,1.566664 0.13955,1.187718 c 0.0767,0.653254 0.16164,1.346092 0.18894,1.53965 0.0462,0.328423 -0.0447,0.355154 -1.35314,0.400754 -2.30933,0.08041 -3.34101,0.331925 -3.96185,0.965608 -0.53811,0.549344 -1.18036,1.922903 -1.46258,3.127943 -0.0829,0.353773 -2.04981,21.60015 -4.37006,47.21429 -4.16637,42.89221 -3.54932,44.79252 -2.61029,46.27953 0.58043,0.91915 1.21464,1.3706 2.60211,1.85225 1.30726,0.4539 2.50351,0.48469 3.48757,0.59877 l 0.70833,0.0818 0.52979,1.53092 c 0.43895,1.26844 0.39687,1.90971 0.19776,1.96815 -0.13227,0.0129 -4.29516,0.19958 -9.94426,0.14475 -6.97791,-0.0676 -9.68772,0.1632 -9.79345,-0.0104 -0.29128,-0.47796 -0.69186,-2.09005 -0.38351,-4.23544 0.20349,-1.41147 0.35492,-1.399 -0.39594,-1.39401 -0.49763,0.27038 0.013,-0.16268 -3.10787,1.67176 -3.76112,2.13959 -5.8058,3.19775 -9.1114,3.74246 -3.66842,0.60455 -8.76816,0.30099 -11.59128,-0.68991 z m 10.76738,-10.28955 c 4.26922,-0.74631 7.72597,-2.59956 10.95591,-5.87389 6.95596,-11.93846 8.58762,-24.96747 4.43233,-37.43722 -4.01121,-12.0374 -15.99418,-16.58295 -25.24676,-9.57654 -5.17327,3.91737 -9.0447,10.61077 -10.64864,18.41071 -0.42913,2.08666 -0.81925,7.53399 -0.68162,9.51947 0.34734,5.01577 1.42426,9.20984 3.40602,13.2657 0.99586,2.03813 2.45723,5.77625 3.94222,7.10052 2.11925,1.88982 4.38251,3.22437 6.82828,4.02645 1.56475,0.51309 5.49634,0.82987 7.01226,0.5648 z"
       id="path5089"
       inkscape:connector-curvature="0"
       sodipodi:nodetypes="cccsccscccsccccccccccccccccccccscscccccccccsccccccc"
       inkscape:export-xdpi="96"
       inkscape:export-ydpi="96" />
  </g>
  <g
     inkscape:groupmode="layer"
     id="layer6"
     inkscape:label="u"
     style="display:inline">
    <path
       style="fill:#0094a0;fill-opacity:1;stroke:none;stroke-width:0.146337"
       d="m 178.52364,193.87932 c -6.33604,0.97286 -11.92974,-0.32045 -16.82946,-3.891 -7.64791,-5.57321 -11.9391,-17.56114 -15.73855,-33.65613 -0.76144,-3.22571 -1.46926,-11.93163 -1.85682,-15.85146 -0.28416,-2.87329 -0.3434,-3.22167 -0.6766,-3.965 -0.49762,-1.11078 -1.27223,-1.84714 -2.35722,-2.24086 -1.28217,-0.46525 -2.3608,-0.51046 -4.41873,-0.18518 l -1.80217,0.28485 -0.96754,-1.43988 c -0.53215,-0.79194 -0.93837,-1.48684 -0.90271,-1.54424 0.0357,-0.0574 5.49034,-1.27093 12.12149,-2.69672 l 12.05668,-2.59238 0.77206,1.60279 c 0.42463,0.88155 0.74276,1.64992 0.70698,1.7075 -0.0356,0.0576 -0.85241,0.42693 -1.81471,0.82077 -2.83647,1.16086 -3.7353,1.91138 -3.86235,3.60368 -0.13436,1.77802 -0.82461,7.42785 0.30286,14.45632 1.38086,8.60441 1.88945,10.02297 3.93676,16.12362 5.11506,15.24186 12.70219,22.0752 21.71093,19.55389 8.71768,-2.4399 14.13686,-12.65714 13.45779,-29.81859 -0.21959,-5.5494 -0.35842,-5.50357 -0.69508,-12.69973 -0.50026,-3.95609 -0.28062,-5.24555 -0.44161,-6.96005 -0.1611,-3.17 -0.12178,-4.12964 -0.38007,-4.87841 -0.16862,-0.58543 -3.30865,-1.44274 -5.47067,-1.96065 l -0.83373,-0.19982 0.85087,-1.73567 0.85087,-1.73568 2.30612,0.28592 c 7.06241,0.87543 22.01314,2.88376 22.06742,2.96431 0.0349,0.0518 -0.3754,0.76294 -0.91201,1.58025 l -0.97547,1.4861 -0.87218,-0.15562 c -2.71168,-0.48389 -5.44577,-0.26341 -6.49305,1.68689 0,0 -0.31195,1.05781 -0.53938,2.42234 -0.091,1.7284 -0.12408,3.85107 -0.12408,3.85107 0.31127,6.62444 0.78048,9.18694 1.02854,14.60393 0.96037,20.97065 -4.74575,34.34486 -16.80784,39.39503 -0.97535,0.40841 -5.05783,1.6495 -5.42952,1.65061 -0.0775,0.002 -0.51295,0.0577 -0.96754,0.12708 z"
       id="path5028"
       inkscape:connector-curvature="0"
       sodipodi:nodetypes="csccccccscsccccccsscccccccccccccsccscccc"
       inkscape:export-xdpi="96"
       inkscape:export-ydpi="96" />
  </g>
  <g
     inkscape:groupmode="layer"
     id="layer8"
     inkscape:label="i"
     style="display:inline">
    <path
       style="fill:#0094a0;fill-opacity:1;stroke:none;stroke-width:0.11059517"
       d="m 260.42848,194.03863 c 0.0208,-0.0491 0.26169,-0.55042 0.53515,-1.11403 l 0.49722,-1.02472 1.09602,-0.0719 c 2.08249,-0.13657 3.55459,-0.36722 4.17597,-0.65435 0.73758,-0.3408 1.57172,-1.17195 1.94128,-1.93438 0.61892,-1.27674 0.75793,0.5144 -2.11066,-27.20165 -1.44432,-13.95514 -2.62716,-25.58686 -2.62851,-25.84825 -0.005,-0.68575 -0.40473,-2.29988 -0.69127,-2.78136 -0.13513,-0.22684 -0.3798,-0.47436 -0.54402,-0.55004 -0.20946,-0.0965 -1.15817,-0.1515 -3.17213,-0.18414 -2.2088,-0.0358 -1.56478,-0.13163 -1.56478,-0.23571 0,-0.32234 0.56493,-2.45896 0.66558,-2.51726 0.15099,-0.0875 20.25221,-2.00178 20.32201,-1.93583 0.0306,0.0289 -0.13409,0.57019 -0.366,1.20305 -0.3797,1.03658 -0.44888,1.15074 -0.69776,1.15141 -0.47118,9.9e-4 -2.39562,0.594 -3.02734,0.81722 -1.74856,0.61786 -1.49071,2.48966 -1.1369,4.49951 0.0681,0.38651 1.27466,12.33445 2.68135,26.55099 1.40667,14.21653 2.61237,26.23359 2.67931,26.70456 0.14735,1.03705 0.33395,1.48795 0.71248,1.72218 0.37889,0.23443 1.64283,0.43469 4.05596,0.6426 1.08945,0.0939 1.99568,0.18482 2.01389,0.20182 0.0182,0.0171 -0.17567,0.62035 -0.43058,1.34035 l -0.46369,1.3091 h -12.29029 c -6.75964,0 -12.27316,-0.0403 -12.25229,-0.0894 z"
       id="path5128"
       inkscape:connector-curvature="0"
       sodipodi:nodetypes="ccccccsccccsccccccsccccccscc"
       inkscape:export-xdpi="96"
       inkscape:export-ydpi="96" />
  </g>
  <g
     inkscape:groupmode="layer"
     id="layer9"
     inkscape:label="c">
    <path
       style="fill:#a14300;fill-opacity:1;stroke:none;stroke-width:0.31136411"
       d="m 293.39055,193.11098 c -3.40116,-1.08833 -6.24576,-2.92934 -9.8581,-6.38006 -2.21417,-2.11514 -3.39836,-3.5269 -4.1181,-4.90963 -2.23242,-4.28869 -3.12752,-9.838 -2.8424,-17.62129 0.18322,-5.00458 0.39867,-6.97932 1.39794,-12.82075 2.54572,-14.88145 8.98075,-22.72982 22.23634,-27.12035 3.44519,-1.1411 6.32318,-1.28924 9.76357,-0.50248 3.20779,0.73355 7.85048,2.74911 10.58941,4.59722 2.68742,1.81339 4.78336,2.89835 5.59884,2.89833 0.38209,-2e-5 1.70737,-0.79931 2.94509,-1.77621 l 2.25045,-1.77619 0.81769,1.13292 0.81767,1.13289 -7.2829,8.41249 -7.28289,8.41251 -0.52396,-1.00743 c -0.51393,-0.98807 -0.50371,-1.03763 0.52669,-2.57336 1.3723,-2.04526 1.58184,-3.70524 0.6739,-5.33712 -1.10277,-1.98186 -2.46168,-3.1799 -4.82039,-4.24967 -1.8944,-0.8592 -2.61788,-1.01696 -5.14193,-1.1214 -2.50736,-0.10367 -3.27765,-0.012 -5.26201,0.61983 -7.44059,2.37302 -12.46467,7.19308 -14.67949,14.08342 -1.97786,6.15313 -2.89213,17.302 -1.85284,22.59374 0.78183,3.98059 1.97153,6.12072 4.83234,8.69295 2.56646,2.30761 5.25923,3.77783 8.20937,4.48235 3.78934,0.90486 6.81588,0.47234 11.36693,-1.6245 2.87274,-1.32358 2.94649,-1.3847 4.02471,-3.33403 1.30887,-2.36644 1.24697,-3.16415 -0.44638,-5.74244 -1.09121,-1.66152 -1.11094,-1.74506 -0.61827,-2.61874 0.29041,-0.51517 0.63092,-0.79058 0.79318,-0.64182 0.15645,0.14345 3.49189,3.87552 7.41234,8.29369 l 7.12801,8.03301 -0.82364,1.14135 c -0.81218,1.1255 -0.8331,1.13373 -1.50547,0.59157 -2.88907,-2.32958 -3.94519,-3.0461 -4.48981,-3.04608 -0.71314,0 -3.20841,2.85697 -6.14361,4.82896 -1.08538,0.72921 -4.21389,2.58024 -5.64455,3.20809 -7.30727,3.20669 -13.38464,2.54032 -18.04773,1.04823 z"
       id="path5240"
       inkscape:connector-curvature="0"
       sodipodi:nodetypes="ccccscscccccccccccsscscccscccccccccscc"
       inkscape:export-xdpi="96"
       inkscape:export-ydpi="96" />
  </g>
  <g
     inkscape:groupmode="layer"
     id="layer11"
     inkscape:label="h">
    <path
       style="fill:#0094a0;fill-opacity:1;stroke:none;stroke-width:0.32515737"
       d="m 363.85143,193.79458 c 0,-0.17282 0.23181,-0.80015 0.51505,-1.39417 0.40327,-0.84568 0.92359,-1.23845 2.39805,-1.81018 1.03565,-0.4016 2.13756,-1.01142 2.44866,-1.35518 0.96714,-1.06868 1.47127,-4.44503 1.67556,-11.22164 0.19907,-6.60766 -0.25415,-12.59637 -1.69874,-22.43586 -1.5865,-10.80691 -4.66688,-17.07898 -9.93414,-20.22729 -3.60032,-2.15193 -9.69348,-2.79182 -13.37007,-1.40409 -4.85308,1.8318 -8.38998,6.58619 -9.3742,12.60099 -0.31847,1.94635 -0.24142,3.03285 0.66346,9.35557 1.8089,12.63939 4.55101,30.20069 4.92247,31.52498 0.19828,0.70696 0.84298,1.76778 1.43258,2.35741 0.86605,0.86602 1.32968,1.07201 2.41321,1.07201 1.39447,0 1.45102,0.0587 2.11648,2.1948 l 0.22791,0.73163 h -12.22365 -12.22367 l 0.47365,-0.91596 c 0.37121,-0.71782 0.89672,-1.03354 2.42971,-1.45973 3.4791,-0.96727 5.24226,-3.45898 5.24226,-7.40836 0,-0.53502 -2.04675,-13.07484 -4.54834,-27.86626 -2.50163,-14.79138 -5.06769,-30.25883 -5.70235,-34.37207 -2.89761,-18.7789 -4.73247,-28.759073 -5.50377,-29.936238 -0.54543,-0.832421 -2.03629,-1.190814 -3.78821,-0.910674 -1.24611,0.199271 -1.26738,0.185601 -1.26738,-0.814372 0,-0.559359 0.0533,-1.017027 0.11851,-1.017027 0.0652,0 5.65562,-1.018458 12.42303,-2.263236 6.76743,-1.244784 12.34484,-2.222799 12.39429,-2.173376 0.0494,0.04943 -0.0805,0.54143 -0.2889,1.093339 -0.33011,0.874587 -0.61418,1.053421 -2.21163,1.392418 -4.11826,0.873964 -6.16099,2.807078 -6.17217,5.840983 -0.005,1.184226 5.41005,37.989303 6.04078,41.062873 0.27313,1.33094 0.92209,1.0824 1.34986,-0.51698 0.53373,-1.99555 2.83114,-4.42284 5.51745,-5.82938 4.30631,-2.25474 8.58873,-2.98737 14.60055,-2.49782 12.55825,1.0226 18.54113,6.37765 21.59682,19.33051 0.33753,1.43068 1.05816,5.66856 1.60142,9.41746 1.06176,7.32685 1.19609,11.03347 0.65447,18.05833 -0.17231,2.23547 -0.4085,6.18613 -0.52474,8.77925 -0.32747,7.30436 0.45584,9.15273 4.52376,10.67473 0.94869,0.35497 2.4076,0.74777 3.24201,0.87289 1.08592,0.16295 1.66196,0.44865 2.02696,1.00569 l 0.50986,0.77816 H 376.2148 c -7.73609,0 -12.36347,-0.11746 -12.36347,-0.31413 z"
       id="path5264"
       inkscape:connector-curvature="0"
       inkscape:export-xdpi="96"
       inkscape:export-ydpi="96" />
  </g>
  <g
     inkscape:groupmode="layer"
     id="layer5"
     inkscape:label="A"
     style="display:inline">
    <path
       style="display:inline;fill:#a14300;fill-opacity:1;stroke:none;stroke-width:0.25933513"
       d="m 11.72423,191.21382 1.336659,-2.5893 1.314438,-0.005 c 3.077081,-0.0104 6.246754,-1.75393 8.391955,-4.61844 C 25.31656,180.597 28.930201,173.60217 30.632605,168.7763 30.984811,167.7792 56.990413,98.484868 71.148201,59.403065 85.305988,20.32126 83.482731,22.62286 84.371133,19.984123 c 1.701547,-5.053992 1.820836,-8.212302 3.202948,-8.589578 1.807049,0.114292 2.36982,5.290937 3.672123,8.589578 0.814729,2.063617 4.783179,13.002442 13.746046,39.418942 9.17085,27.029367 23.90267,69.241325 30.68754,87.720095 5.55812,15.1376 7.11523,18.92306 11.46774,27.87854 4.86971,10.01967 7.95528,13.2295 13.03643,13.56143 l 1.89544,0.12396 1.28473,2.56017 1.28476,2.56016 -16.77201,-0.0668 -16.772,-0.0668 -0.86316,-2.57469 c -0.47474,-1.41606 -0.83532,-2.60217 -0.80124,-2.63577 0.034,-0.0335 0.98819,-0.18971 2.12032,-0.34698 5.15599,-0.71613 5.53008,-1.17822 4.6629,-5.75984 -2.60496,-7.58312 -3.92875,-11.75331 -11.07009,-32.64005 -7.92289,-23.17244 -7.79103,-22.80761 -9.40874,-26.0296 -3.05725,-6.08904 -4.81549,-7.82666 -9.26964,-9.20089 -1.28492,-0.39644 -3.06739,-0.43577 -17.979924,-0.39671 -9.104501,0.0239 -17.156854,0.14424 -17.894141,0.26761 -3.018843,0.50505 -4.662403,1.70671 -6.956668,4.112 -2.431425,2.54908 -4.852121,5.93844 -6.130359,9.85245 -0.232847,0.71318 -3.70613,10.69109 -7.718286,22.17315 -7.322811,20.95663 -8.602999,25.11093 -9.854054,31.97691 -0.445708,2.44609 -0.400595,3.43623 -0.196776,3.76037 0.514705,0.81859 0.564793,1.33465 3.153624,1.76542 1.418517,0.23596 2.618846,0.46304 2.667364,0.50452 0.0486,0.0416 -0.297216,1.25132 -0.768315,2.68857 l -0.856542,2.61318 H 27.164337 10.387547 Z m 93.51458,-87.93823 c 1.68894,-0.32097 3.24324,-1.05915 3.46901,-1.64754 0.57667,-1.50272 -1.16418,-5.06524 -3.26465,-11.170005 -0.58893,-1.711616 -4.29651,-12.798193 -8.68733,-24.63684 -4.390842,-11.83865 -2.240943,-7.220597 -6.970045,-19.177212 -0.722993,-2.102494 -1.968366,-5.470466 -2.600715,-5.227817 -0.569512,0.218527 -0.366206,0.583995 -2.025392,5.319506 -5.986829,17.087242 -15.417879,42.271725 -16.287623,45.019037 -2.207701,6.973572 -2.930631,9.417661 -1.820038,10.452341 0.316058,0.29444 1.162128,0.73393 1.880183,0.97664 1.151498,0.38922 2.240053,0.275 16.078456,0.40267 16.442544,0.15169 17.913404,0.12911 20.228144,-0.31078 z"
       id="path4907"
       inkscape:connector-curvature="0"
       sodipodi:nodetypes="cccccsccccsccccccccccccccccccccccccccccccccccccccsc"
       inkscape:export-xdpi="96"
       inkscape:export-ydpi="96"
       inkscape:export-filename="logo_v2_audichu.png" />
  </g>
  <g
     inkscape:groupmode="layer"
     id="layer12"
     inkscape:label="u 1">
    <path
       style="display:inline;fill:#a14300;fill-opacity:1;stroke:none;stroke-width:0.13714616"
       d="m 396.26249,196.34373 c -5.984,-0.86218 -10.67206,-3.53918 -14.10476,-8.05407 -5.35809,-7.04721 -5.91557,-18.88911 -4.89437,-34.25293 0.20453,-3.07912 1.97244,-11.02207 2.70617,-14.61713 0.53781,-2.63527 0.58069,-2.96154 0.48554,-3.71414 -0.14188,-1.12452 -0.63705,-1.9913 -1.50685,-2.63771 -1.02796,-0.7639 -1.98839,-1.09832 -3.93452,-1.3701 l -1.70431,-0.23805 -0.47476,-1.54564 c -0.26104,-0.85012 -0.43545,-1.57952 -0.38744,-1.62088 0.0481,-0.0413 5.30357,0.36616 11.67887,0.90566 l 11.5916,0.98084 0.25338,1.63738 c 0.13928,0.90054 0.21387,1.67132 0.1658,1.71282 -0.0481,0.0416 -0.8869,0.1476 -1.86374,0.2357 -2.87935,0.25961 -3.8975,0.68264 -4.4798,2.15443 -0.61262,1.54614 -2.79668,6.38724 -3.72227,12.95138 -1.13253,8.03614 -1.06581,9.43763 -0.90524,15.42674 0.40127,14.96322 5.35625,23.1156 14.17897,23.32839 8.53767,0.20581 16.24958,-7.41128 20.38009,-22.87332 1.33567,-4.99985 2.49649,-12.88659 2.96599,-18.45812 0.12889,-1.52766 -0.11747,-2.38298 -8.9e-4,-3.51704 0.11642,-1.13409 0.39766,-1.61197 0.13435,-2.30214 -0.17411,-0.54048 -3.15805,-1.257 -5.21046,-1.68297 l -0.79152,-0.16424 0.75684,-1.6374 0.75682,-1.63739 2.18224,0.20635 c 6.683,0.63174 20.83465,2.11346 20.88796,2.18701 0.0343,0.0473 -0.33397,0.71977 -0.81858,1.49433 l -0.88086,1.40835 -0.82659,-0.12214 c -2.56988,-0.38009 -5.22974,0.6213 -6.31826,2.3802 l -0.48685,0.7868 -0.84394,7.31599 c -1.36338,9.13869 -1.38508,10.12149 -2.65845,15.01124 -4.92956,18.92969 -13.77284,29.2788 -26.04857,30.48435 -0.99264,0.0974 -5.01805,0.0888 -5.3536,-0.013 -0.0702,-0.0207 -0.47861,-0.0886 -0.90785,-0.15072 z"
       id="path5028-0"
       inkscape:connector-curvature="0"
       sodipodi:nodetypes="csccccccscsccccccsscccccccccccccsccscccc"
       inkscape:export-xdpi="96"
       inkscape:export-ydpi="96" />
    <g
       id="g310"
       inkscape:export-filename="logo_v2_studio.png"
       inkscape:export-xdpi="96"
       inkscape:export-ydpi="96">
      <path
         style="fill:none;stroke:#c9a78f;stroke-width:2.59873199;stroke-linecap:butt;stroke-linejoin:miter;stroke-miterlimit:4;stroke-dasharray:none;stroke-opacity:1"
         d="m 161.14728,203.34878 265.97896,1.30058"
         id="path5363-1"
         inkscape:connector-curvature="0"
         inkscape:export-xdpi="96"
         inkscape:export-ydpi="96" />
      <path
         style="fill:none;stroke:#c9a78f;stroke-width:2.57822418;stroke-linecap:butt;stroke-linejoin:miter;stroke-miterlimit:4;stroke-dasharray:none;stroke-opacity:1"
         d="m 197.21916,219.04003 -0.92241,54.63709"
         id="path5361-3"
         inkscape:connector-curvature="0"
         sodipodi:nodetypes="cc"
         inkscape:export-xdpi="96"
         inkscape:export-ydpi="96" />
      <path
         style="fill:none;stroke:#c9a78f;stroke-width:2.48442221;stroke-linecap:butt;stroke-linejoin:miter;stroke-miterlimit:4;stroke-dasharray:none;stroke-opacity:1"
         d="m 110.87539,175.82717 c -1.59571,-2.24583 -3.30219,-8.09457 -17.642435,-8.23771 -6.590038,-0.0658 -14.833208,1.26295 -20.179231,8.32069 -4.475597,5.90861 -4.723575,11.7996 0.387626,14.52994 2.872574,1.53449 18.998622,0.21891 34.12064,1.78002 13.75218,1.4197 15.6118,2.98694 20.26495,4.53835 0,0 11.172,4.10424 15.35943,5.04126 3.49883,0.78293 15.52026,1.52494 18.11286,1.47946"
         id="path5478"
         inkscape:connector-curvature="0"
         sodipodi:nodetypes="csssscsc"
         inkscape:export-xdpi="96"
         inkscape:export-ydpi="96" />
      <path
         style="fill:none;stroke:#c9a78f;stroke-width:2.59873199;stroke-linecap:butt;stroke-linejoin:miter;stroke-miterlimit:4;stroke-dasharray:none;stroke-opacity:1"
         d="m 35.654896,206.77111 c 0,10.81148 1.054368,23.53323 4.733104,29.51116 3.678734,5.97795 11.521549,17.47641 34.053803,21.15512 22.532261,3.67874 49.662937,1.37954 60.699147,-6.43779 11.03621,-7.8173 13.09438,-16.52053 8.737,-23.45192 -4.01989,-6.39453 -13.47852,-12.4859 -34.48816,-13.33542 -20.756248,-0.83927 -32.595607,-0.2252 -42.031301,-3.5835 -10.01027,-3.56278 -15.179181,-8.81581 -17.212799,-16.11658"
         id="path5480"
         inkscape:connector-curvature="0"
         sodipodi:nodetypes="ccccsssc"
         inkscape:export-xdpi="96"
         inkscape:export-ydpi="96" />
      <g
         id="g5608"
         transform="matrix(2.598732,0,0,2.598732,-16.970778,-16.371546)"
         inkscape:export-xdpi="96"
         inkscape:export-ydpi="96">
        <path
           sodipodi:nodetypes="csc"
           inkscape:connector-curvature="0"
           id="path5365-2"
           d="m 94.012739,92.589586 c 0,3.649821 -0.801547,12.816974 4.01558,12.732544 4.488491,-0.0785 4.006521,-9.798371 4.054261,-12.589412"
           style="fill:none;stroke:#90c5ca;stroke-width:0.69999999;stroke-linecap:butt;stroke-linejoin:miter;stroke-miterlimit:4;stroke-dasharray:none;stroke-opacity:1" />
        <path
           sodipodi:nodetypes="csc"
           inkscape:connector-curvature="0"
           id="path5365-2-4"
           d="m 87.684001,92.509933 c 0,5.389 -1.836693,19.461637 10.61457,19.337007 11.601839,-0.11609 10.120859,-15.004675 10.244299,-19.125672"
           style="fill:none;stroke:#90c5ca;stroke-width:0.70745522;stroke-linecap:butt;stroke-linejoin:miter;stroke-miterlimit:4;stroke-dasharray:none;stroke-opacity:1" />
      </g>
      <path
         style="fill:none;stroke:#c9a78f;stroke-width:2.56100011;stroke-linecap:butt;stroke-linejoin:miter;stroke-miterlimit:4;stroke-dasharray:none;stroke-opacity:1"
         d="m 178.57331,219.7531 -0.92307,53.8633"
         id="path5361-3-1"
         inkscape:connector-curvature="0"
         sodipodi:nodetypes="cc"
         inkscape:export-xdpi="96"
         inkscape:export-ydpi="96" />
      <g
         id="g5603"
         transform="matrix(2.598732,0,0,2.598732,-16.970778,-14.882737)"
         inkscape:export-xdpi="96"
         inkscape:export-ydpi="96">
        <path
           sodipodi:nodetypes="ccscsc"
           inkscape:connector-curvature="0"
           id="path5367-6"
           d="m 119.22142,98.204828 0.0126,7.340662 c 0,0 2.96839,0.4185 5.29052,-0.40287 1.48294,-0.52455 2.64672,-1.8198 2.78664,-3.18938 0.18094,-1.77136 -1.52683,-2.958068 -3.08448,-3.443094 -1.5325,-0.477206 -3.18034,-0.266595 -5.00518,-0.305318 z"
           style="fill:none;stroke:#90c5ca;stroke-width:0.69999999;stroke-linecap:butt;stroke-linejoin:miter;stroke-miterlimit:4;stroke-dasharray:none;stroke-opacity:1" />
        <path
           sodipodi:nodetypes="ccscscc"
           inkscape:connector-curvature="0"
           id="path5367-6-3"
           d="m 113.57082,92.447156 0.0312,18.484594 c 0,0 7.80274,1.18019 13.56205,-0.88811 3.67798,-1.32086 6.12372,-4.70884 6.47075,-8.15757 0.44878,-4.460471 -3.47213,-7.448741 -7.33533,-8.670087 -3.80088,-1.201654 -8.20253,-0.671312 -12.72845,-0.768827 z"
           style="fill:none;stroke:#90c5ca;stroke-width:0.7056635;stroke-linecap:butt;stroke-linejoin:miter;stroke-miterlimit:4;stroke-dasharray:none;stroke-opacity:1" />
      </g>
      <g
         id="g5598"
         transform="matrix(2.598732,0,0,2.598732,-16.970778,-15.954093)"
         inkscape:export-xdpi="96"
         inkscape:export-ydpi="96">
        <path
           sodipodi:nodetypes="cc"
           inkscape:connector-curvature="0"
           id="path5361-3-5"
           d="m 145.22656,92.619081 -0.35815,19.398159"
           style="fill:none;stroke:#90c5ca;stroke-width:0.69999999;stroke-linecap:butt;stroke-linejoin:miter;stroke-miterlimit:4;stroke-dasharray:none;stroke-opacity:1" />
        <path
           sodipodi:nodetypes="cc"
           inkscape:connector-curvature="0"
           id="path5361-3-5-1"
           d="m 138.605,92.548345 -0.35815,19.398165"
           style="fill:none;stroke:#90c5ca;stroke-width:0.69999999;stroke-linecap:butt;stroke-linejoin:miter;stroke-miterlimit:4;stroke-dasharray:none;stroke-opacity:1" />
      </g>
      <g
         id="g5593"
         inkscape:export-xdpi="96"
         inkscape:export-ydpi="96"
         transform="matrix(2.598732,0,0,2.598732,-16.970778,-16.033255)">
        <path
           inkscape:connector-curvature="0"
           id="path5371-6"
           d="m 159.5269,99.159634 c -0.45027,0 -3.84588,0.417142 -3.84588,3.098776 0,2.6816 1.34942,3.93306 3.98083,3.93306 2.63138,0 3.98082,-1.78776 3.98082,-3.33717 0,-1.54936 -0.60727,-3.396709 -4.11577,-3.694666 z"
           style="fill:none;stroke:#90c5ca;stroke-width:0.6851725;stroke-linecap:butt;stroke-linejoin:miter;stroke-miterlimit:4;stroke-dasharray:none;stroke-opacity:1"
           sodipodi:nodetypes="csssc" />
        <path
           inkscape:connector-curvature="0"
           id="path5371-6-3"
           d="m 159.50668,92.962114 c -2.18703,0.128649 -9.90042,1.195964 -9.90042,8.470926 0,7.27489 3.36098,10.6699 9.91491,10.6699 6.55389,0 10.23653,-4.91429 10.23653,-9.1176 0,-4.203274 -1.64115,-9.922487 -10.25102,-10.023226 z"
           style="fill:none;stroke:#90c5ca;stroke-width:0.75997156;stroke-linecap:butt;stroke-linejoin:miter;stroke-miterlimit:4;stroke-dasharray:none;stroke-opacity:1"
           sodipodi:nodetypes="csssc" />
      </g>
      <path
         style="fill:none;stroke:#c9a78f;stroke-width:2.59873199;stroke-linecap:butt;stroke-linejoin:miter;stroke-miterlimit:4;stroke-dasharray:none;stroke-opacity:1"
         d="m 48.587151,179.21638 c 0,0 2.466074,-11.82755 8.128934,-19.18427 5.40353,-7.01984 13.727418,-13.13818 29.264163,-14.63209 8.454094,-0.8129 20.970522,-0.65718 29.751902,4.79607 2.87264,1.78392 2.76383,1.62578 6.01541,4.95865"
         id="path5610"
         inkscape:connector-curvature="0"
         sodipodi:nodetypes="csssc"
         inkscape:export-xdpi="96"
         inkscape:export-ydpi="96" />
      <path
         style="fill:none;stroke:#c9a78f;stroke-width:2.53588367;stroke-linecap:butt;stroke-linejoin:miter;stroke-miterlimit:4;stroke-dasharray:none;stroke-opacity:1"
         d="m 14.500768,206.9609 c -0.208964,7.68947 0.639876,29.26583 4.553018,37.56815 4.562622,9.6803 14.902379,25.66861 38.460762,32.37961 17.540543,5.20655 40.033714,5.89605 59.673272,3.47647 15.1479,-1.35583 27.83174,-6.13937 38.31528,-15.76229 10.01074,-9.2683 11.76554,-15.22681 12.94754,-22.51342 1.37497,-8.47603 -1.13653,-15.63004 -2.08214,-19.88529"
         id="path5612"
         inkscape:connector-curvature="0"
         sodipodi:nodetypes="cscccsc"
         inkscape:export-xdpi="96"
         inkscape:export-ydpi="96" />
      <path
         style="fill:none;stroke:#c9a78f;stroke-width:2.4278245;stroke-linecap:butt;stroke-linejoin:miter;stroke-miterlimit:4;stroke-dasharray:none;stroke-opacity:1"
         d="m 195.95798,218.4785 231.40087,1.30476"
         id="path5363-1-2"
         inkscape:connector-curvature="0"
         inkscape:export-xdpi="96"
         inkscape:export-ydpi="96" />
      <path
         style="fill:none;stroke:#c9a78f;stroke-width:2.5;stroke-linecap:butt;stroke-linejoin:miter;stroke-miterlimit:4;stroke-dasharray:none;stroke-opacity:1"
         d="m 165.26717,222.99693 c 0,0 10.10436,-3.08375 14.6011,-2.87577"
         id="path869"
         inkscape:connector-curvature="0"
         sodipodi:nodetypes="cc"
         inkscape:export-xdpi="96"
         inkscape:export-ydpi="96" />
      <path
         style="fill:none;stroke:#c9a78f;stroke-width:2.5;stroke-linecap:butt;stroke-linejoin:miter;stroke-miterlimit:4;stroke-dasharray:none;stroke-opacity:1"
         d="m 13.25085,206.91352 23.671421,-0.0643"
         id="path873"
         inkscape:connector-curvature="0"
         sodipodi:nodetypes="cc"
         inkscape:export-xdpi="96"
         inkscape:export-ydpi="96" />
      <path
         style="fill:none;stroke:#c9a78f;stroke-width:2.5;stroke-linecap:butt;stroke-linejoin:miter;stroke-miterlimit:4;stroke-dasharray:none;stroke-opacity:1"
         d="m 48.593785,179.13685 c 0,0 -0.835272,4.60724 -0.28946,7.97308 0.545812,3.36584 1.798246,7.46495 1.798246,7.46495"
         id="path875"
         inkscape:connector-curvature="0"
         sodipodi:nodetypes="csc"
         inkscape:export-xdpi="96"
         inkscape:export-ydpi="96" />
      <path
         style="fill:none;stroke:#c9a78f;stroke-width:2.5;stroke-linecap:butt;stroke-linejoin:miter;stroke-miterlimit:4;stroke-dasharray:none;stroke-opacity:1"
         d="m 109.28812,175.30057 c 4.21326,-2.2192 16.70339,-14.6625 16.70339,-14.6625 0,0 -3.68746,-4.85807 -4.50618,-5.76776"
         id="path877"
         inkscape:connector-curvature="0"
         sodipodi:nodetypes="ccc"
         inkscape:export-xdpi="96"
         inkscape:export-ydpi="96" />
      <path
         style="fill:none;stroke:#c9a78f;stroke-width:2.5;stroke-linecap:butt;stroke-linejoin:miter;stroke-miterlimit:4;stroke-dasharray:none;stroke-opacity:1"
         d="m 427.11475,203.37528 -0.0377,17.59125"
         id="path879"
         inkscape:connector-curvature="0"
         sodipodi:nodetypes="cc"
         inkscape:export-xdpi="96"
         inkscape:export-ydpi="96" />
      <path
         style="fill:none;stroke:#c9a78f;stroke-width:2.5;stroke-linecap:butt;stroke-linejoin:miter;stroke-miterlimit:4;stroke-dasharray:none;stroke-opacity:1"
         d="m 176.41286,273.43912 21.17283,0.091"
         id="path881"
         inkscape:connector-curvature="0"
         sodipodi:nodetypes="cc"
         inkscape:export-xdpi="96"
         inkscape:export-ydpi="96" />
      <path
         style="fill:none;stroke:#90c5ca;stroke-width:2;stroke-linecap:butt;stroke-linejoin:miter;stroke-miterlimit:4;stroke-dasharray:none;stroke-opacity:1"
         d="m 210.00235,224.01102 18.22872,0.18194"
         id="path883"
         inkscape:connector-curvature="0"
         sodipodi:nodetypes="cc"
         inkscape:export-xdpi="96"
         inkscape:export-ydpi="96" />
      <path
         style="fill:none;stroke:#90c5ca;stroke-width:2.01929998;stroke-linecap:butt;stroke-linejoin:miter;stroke-miterlimit:4;stroke-dasharray:none;stroke-opacity:1"
         d="m 247.40313,224.47972 18.60032,0.18176"
         id="path883-8"
         inkscape:connector-curvature="0"
         sodipodi:nodetypes="cc"
         inkscape:export-xdpi="96"
         inkscape:export-ydpi="96" />
      <path
         style="fill:none;stroke:#90c5ca;stroke-width:2.04087853;stroke-linecap:butt;stroke-linejoin:miter;stroke-miterlimit:4;stroke-dasharray:none;stroke-opacity:1"
         d="m 341.39779,274.05292 19.02038,0.18156"
         id="path883-8-5"
         inkscape:connector-curvature="0"
         sodipodi:nodetypes="cc"
         inkscape:export-xdpi="96"
         inkscape:export-ydpi="96" />
      <path
         style="fill:none;stroke:#90c5ca;stroke-width:2.04087853;stroke-linecap:butt;stroke-linejoin:miter;stroke-miterlimit:4;stroke-dasharray:none;stroke-opacity:1"
         d="m 342.33374,224.01918 19.02038,0.18156"
         id="path883-8-5-1"
         inkscape:connector-curvature="0"
         sodipodi:nodetypes="cc"
         inkscape:export-xdpi="96"
         inkscape:export-ydpi="96" />
    </g>
  </g>
</svg>
