<?xml version="1.0" encoding="UTF-8" standalone="no"?>
<!-- Created with Inkscape (http://www.inkscape.org/) -->

<svg
   xmlns:dc="http://purl.org/dc/elements/1.1/"
   xmlns:cc="http://creativecommons.org/ns#"
   xmlns:rdf="http://www.w3.org/1999/02/22-rdf-syntax-ns#"
   xmlns:svg="http://www.w3.org/2000/svg"
   xmlns="http://www.w3.org/2000/svg"
   xmlns:sodipodi="http://sodipodi.sourceforge.net/DTD/sodipodi-0.dtd"
   xmlns:inkscape="http://www.inkscape.org/namespaces/inkscape"
   width="210mm"
   height="297mm"
   viewBox="0 0 210 297"
   version="1.1"
   id="svg8"
   inkscape:version="0.92.4 (5da689c313, 2019-01-14)"
   sodipodi:docname="logo_marche.svg">
  <defs
     id="defs2" />
  <sodipodi:namedview
     id="base"
     pagecolor="#ffffff"
     bordercolor="#666666"
     borderopacity="1.0"
     inkscape:pageopacity="0.0"
     inkscape:pageshadow="2"
     inkscape:zoom="2.9085128"
     inkscape:cx="713.50031"
     inkscape:cy="395.7427"
     inkscape:document-units="mm"
     inkscape:current-layer="layer5"
     showgrid="false"
     inkscape:snap-global="false"
     inkscape:window-width="1920"
     inkscape:window-height="1009"
     inkscape:window-x="-8"
     inkscape:window-y="-8"
     inkscape:window-maximized="1"
     inkscape:showpageshadow="2"
     inkscape:pagecheckerboard="0"
     inkscape:deskcolor="#d1d1d1" />
  <metadata
     id="metadata5">
    <rdf:RDF>
      <cc:Work
         rdf:about="">
        <dc:format>image/svg+xml</dc:format>
        <dc:type
           rdf:resource="http://purl.org/dc/dcmitype/StillImage" />
        <dc:title></dc:title>
      </cc:Work>
    </rdf:RDF>
  </metadata>
  <g
     inkscape:groupmode="layer"
     id="layer10"
     inkscape:label="point"
     style="display:inline">
    <ellipse
       style="opacity:1;vector-effect:none;fill:#848484;fill-opacity:1;fill-rule:nonzero;stroke:none;stroke-width:0.06468391;stroke-linecap:butt;stroke-linejoin:miter;stroke-miterlimit:4;stroke-dasharray:none;stroke-dashoffset:0;stroke-opacity:1"
       id="path5135"
       cx="93.913368"
       cy="0.83219612"
       rx="4.1260605"
       ry="4.688705"
       inkscape:transform-center-x="-4.5322915"
       inkscape:transform-center-y="-15.862968"
       inkscape:export-xdpi="96"
       inkscape:export-ydpi="96" />
  </g>
  <g
     inkscape:groupmode="layer"
     id="layer1"
     inkscape:label="blabla" />
  <g
     inkscape:groupmode="layer"
     id="layer7"
     inkscape:label="d"
     style="display:inline">
    <path
       style="fill:#848484;fill-opacity:1;stroke:none;stroke-width:0.07820113"
       d="m 78.386819,39.742529 c -1.74264,-0.611621 -3.91556,-2.702623 -5.53449,-4.462237 -0.82254,-0.894044 -1.64372,-2.022249 -1.94535,-2.672699 -1.12204,-2.419657 -1.99802,-6.792168 -2.14801,-10.721732 -0.10505,-2.751329 0.1722,-4.810993 1.01317,-7.526798 0.96846,-3.127664 2.59598,-6.4660771 3.72002,-7.6306321 2.39046,-2.476651 5.97503,-4.347854 9.00435,-4.700409 0.98951,-0.115159 3.29171,0.167917 4.26416,0.52431 1.16817,0.428117 2.38864,1.0747 3.59043,1.902152 1.14574,0.788856 2.97288,2.352885 3.11179,2.663699 0.0419,0.09357 0.10622,0.173552 0.14295,0.177748 0.11061,0.01269 0.28795,-0.248233 0.23317,-0.343022 -0.0279,-0.04854 0.21685,-3.312272 0.54423,-7.25276303 0.84677,-10.19260187 0.83566,-10.03437187 0.73678,-10.48153487 -0.11372,-0.514099 -0.40571,-0.976687 -0.77161,-1.222277 -0.41478,-0.278387 -1.62834,-0.680743 -2.57037,-0.852207 l -0.78628,-0.143106 -0.26492,-0.765611 c -0.14569,-0.421088 -0.25341,-0.775416 -0.23932,-0.787395 0.014,-0.0119 2.92346,0.329197 6.46532,0.758125 l 6.439741,0.779903 0.0695,0.59126 c 0.0382,0.325197 0.0805,0.6701 0.0941,0.766455 0.023,0.163493 -0.0223,0.1768 -0.67361,0.1995 -1.14961,0.04003 -1.66319,0.165236 -1.97226,0.480691 -0.26787,0.273469 -0.58759,0.957243 -0.72808,1.5571249 -0.0413,0.176112 -1.020421,10.7528 -2.175471,23.5038091 -2.07407,21.352229 -1.76689,22.298225 -1.29943,23.038476 0.28894,0.457563 0.60466,0.6823 1.29536,0.922071 0.65077,0.225956 1.24627,0.241284 1.73615,0.298074 l 0.352611,0.04072 0.26374,0.76211 c 0.21851,0.631444 0.19757,0.950675 0.0984,0.979767 -0.0659,0.0064 -2.138181,0.09935 -4.950371,0.07206 -3.47368,-0.03365 -4.82266,0.08124 -4.87529,-0.0052 -0.145,-0.237934 -0.34442,-1.040451 -0.19092,-2.10845 0.1013,-0.702646 0.17669,-0.696438 -0.1971,-0.693954 -0.24773,0.134598 0.006,-0.08098 -1.54713,0.832221 -1.87233,1.065112 -2.8902,1.591876 -4.53576,1.863039 -1.82618,0.300952 -4.36489,0.149836 -5.77027,-0.343445 z m 5.36012,-5.122255 c 2.12526,-0.371522 3.84607,-1.294091 5.45397,-2.924089 3.46276,-5.943101 4.27502,-12.42909 2.20647,-18.636674 -1.99683,-5.9923541 -7.96209,-8.2551801 -12.56812,-4.7673101 -2.57532,1.9501111 -4.50256,5.2821621 -5.30102,9.1650611 -0.21362,1.038763 -0.40783,3.750505 -0.33932,4.7389 0.17291,2.496907 0.70902,4.584763 1.69556,6.603816 0.49575,1.014604 1.22324,2.875483 1.96248,3.534719 1.05499,0.940774 2.18167,1.605128 3.3992,2.004413 0.77895,0.255422 2.73613,0.413119 3.49078,0.281164 z"
       id="path5089"
       inkscape:connector-curvature="0"
       sodipodi:nodetypes="cccsccscccsccccccccccccccccccccscscccccccccsccccccc"
       inkscape:export-xdpi="96"
       inkscape:export-ydpi="96" />
  </g>
  <g
     inkscape:groupmode="layer"
     id="layer6"
     inkscape:label="u"
     style="display:inline">
    <path
       style="fill:#848484;fill-opacity:1;stroke:none;stroke-width:0.07284822"
       d="m 76.714529,40.157544 c -3.15415,0.484301 -5.93876,-0.159524 -8.3779,-1.936984 -3.80721,-2.774407 -5.94342,-8.742135 -7.83483,-16.754404 -0.37905,-1.605795 -0.73141,-5.939701 -0.92434,-7.891036 -0.14146,-1.430357 -0.17095,-1.603784 -0.33682,-1.973823 -0.24772,-0.552958 -0.63333,-0.919527 -1.17345,-1.115525 -0.63828,-0.231607 -1.17524,-0.254113 -2.1997,-0.09219 l -0.89714,0.141802 -0.48165,-0.7167891 c -0.26491,-0.394237 -0.46713,-0.740166 -0.44938,-0.76874 0.0178,-0.02857 2.73315,-0.632683 6.03422,-1.342458 l 6.00195,-1.290516 0.38434,0.797887 c 0.21138,0.438846 0.36975,0.821349 0.35194,0.850013 -0.0177,0.02867 -0.42434,0.212531 -0.90338,0.408589 -1.41203,0.577889 -1.85948,0.951506 -1.92272,1.7939521 -0.0669,0.885119 -0.4105,3.697668 0.15076,7.196521 0.68741,4.283373 0.94059,4.989548 1.95977,8.026521 2.54633,7.587571 6.32329,10.989285 10.80794,9.734148 4.33976,-1.21461 7.0375,-6.300868 6.69945,-14.844033 -0.10932,-2.762554 -0.17843,-2.739739 -0.34602,-6.322069 -0.24904,-1.969387 -0.1397,-2.611295 -0.21984,-3.464792 -0.0802,-1.5780621 -0.0606,-2.0557821 -0.1892,-2.4285281 -0.0839,-0.291434 -1.64709,-0.718212 -2.72337,-0.976034 l -0.41504,-0.09947 0.42358,-0.864036 0.42357,-0.864041 1.14801,0.142334 c 3.51575,0.435799 10.95839,1.435569 10.98542,1.475667 0.0174,0.02579 -0.18688,0.379801 -0.45401,0.786667 l -0.4856,0.739797 -0.43418,-0.07747 c -1.34991,-0.240886 -2.71097,-0.131129 -3.23232,0.839753 0,0 -0.15529,0.52659 -0.26851,1.2058681 -0.0453,0.860417 -0.0618,1.917107 -0.0618,1.917107 0.15495,3.297721 0.38853,4.573363 0.51202,7.270002 0.47808,10.439427 -2.36249,17.097261 -8.36713,19.611293 -0.48555,0.203311 -2.51785,0.82114 -2.70288,0.821692 -0.0386,9.96e-4 -0.25535,0.02872 -0.48165,0.06326 z"
       id="path5028"
       inkscape:connector-curvature="0"
       sodipodi:nodetypes="csccccccscsccccccsscccccccccccccsccscccc"
       inkscape:export-xdpi="96"
       inkscape:export-ydpi="96" />
  </g>
  <g
     inkscape:groupmode="layer"
     id="layer8"
     inkscape:label="i"
     style="display:inline">
    <path
       style="fill:#848484;fill-opacity:1;stroke:none;stroke-width:0.05505553"
       d="m 91.106799,40.327818 c 0.0104,-0.02444 0.13027,-0.274005 0.2664,-0.554577 l 0.24753,-0.510117 0.54561,-0.03579 c 1.03668,-0.06799 1.76951,-0.182807 2.07884,-0.325743 0.36718,-0.169654 0.78242,-0.58341 0.96639,-0.962957 0.30811,-0.635575 0.37731,0.256075 -1.05071,-13.54129 -0.719,-6.947027 -1.30783,-12.737429 -1.3085,-12.867552 -0.002,-0.341374 -0.20148,-1.144907 -0.34412,-1.384593 -0.0673,-0.112923 -0.18907,-0.2361421 -0.27082,-0.2738161 -0.10427,-0.04804 -0.57655,-0.07542 -1.57912,-0.09167 -1.09957,-0.01782 -0.77897,-0.06553 -0.77897,-0.117339 0,-0.160465 0.28123,-1.224098 0.33134,-1.253121 0.0752,-0.04356 10.081781,-0.996508 10.116521,-0.963678 0.0152,0.01439 -0.0668,0.283847 -0.1822,0.598892 -0.189011,0.516021 -0.223451,0.572852 -0.347351,0.573185 -0.23456,4.93e-4 -1.19257,0.2957 -1.50704,0.406822 -0.87046,0.307577 -0.7421,1.2393811 -0.56596,2.2399071 0.0339,0.192409 0.63454,6.140229 1.3348,13.217384 0.70026,7.07715 1.300471,13.059379 1.333791,13.293833 0.0734,0.516255 0.16625,0.740719 0.35468,0.857321 0.18862,0.116702 0.81782,0.216394 2.01911,0.319893 0.54234,0.04675 0.99347,0.09201 1.00253,0.100469 0.009,0.0085 -0.0875,0.308817 -0.21434,0.667241 l -0.23083,0.651685 h -6.118251 c -3.36503,0 -6.10972,-0.02006 -6.09933,-0.0445 z"
       id="path5128"
       inkscape:connector-curvature="0"
       sodipodi:nodetypes="ccccccsccccsccccccsccccccscc"
       inkscape:export-xdpi="96"
       inkscape:export-ydpi="96" />
  </g>
  <g
     inkscape:groupmode="layer"
     id="layer9"
     inkscape:label="c">
    <path
       style="fill:#848484;fill-opacity:1;stroke:none;stroke-width:0.1550006"
       d="m 69.126929,38.774402 c -1.69313,-0.541784 -3.10921,-1.458259 -4.90747,-3.176067 -1.10224,-1.05294 -1.69174,-1.755731 -2.05004,-2.444069 -1.11132,-2.134959 -1.55691,-4.897468 -1.41498,-8.772079 0.0912,-2.491336 0.19847,-3.474384 0.69591,-6.382314 1.26729,-7.408155 4.47072,-11.3151631 11.06951,-13.5008191 1.71505,-0.568052 3.14775,-0.641798 4.86041,-0.25014 1.59688,0.36517 3.90806,1.368538 5.27153,2.288548 1.33783,0.902727 2.38121,1.442832 2.78717,1.442822 0.19021,-10e-6 0.84995,-0.397906 1.4661,-0.884217 l 1.1203,-0.884208 0.40705,0.56398 0.40705,0.563966 -3.62551,4.1878331 -3.62551,4.187843 -0.26083,-0.50151 c -0.25584,-0.491873 -0.25075,-0.516544 0.26219,-1.281048 0.68315,-1.018154 0.78746,-1.844511 0.33548,-2.656879 -0.54898,-0.986592 -1.22546,-1.5829901 -2.39965,-2.1155341 -0.94305,-0.427719 -1.30321,-0.506254 -2.55971,-0.558246 -1.24819,-0.05161 -1.63165,-0.006 -2.61949,0.308559 -3.70401,1.1813161 -6.20505,3.5807971 -7.30762,7.0108861 -0.9846,3.063098 -1.43973,8.613132 -0.92236,11.247421 0.3892,1.981582 0.98145,3.046963 2.40559,4.327449 1.27762,1.148754 2.61811,1.880646 4.08672,2.231364 1.88638,0.45045 3.39302,0.235137 5.65859,-0.808694 1.43008,-0.658893 1.46679,-0.689319 2.00354,-1.659718 0.65157,-1.178041 0.62076,-1.57515 -0.22221,-2.858652 -0.54322,-0.827123 -0.55304,-0.868711 -0.30778,-1.303638 0.14457,-0.256458 0.31408,-0.39356 0.39485,-0.319506 0.0779,0.07141 1.73831,1.929278 3.68995,4.128693 l 3.5484,3.998924 -0.41001,0.568177 c -0.40432,0.560287 -0.41473,0.564384 -0.74944,0.29449 -1.43822,-1.159691 -1.96396,-1.516383 -2.23508,-1.516373 -0.35501,0 -1.59718,1.422232 -3.05836,2.403911 -0.54031,0.363009 -2.09772,1.284473 -2.80992,1.597024 -3.63764,1.596326 -6.66303,1.2646 -8.98437,0.521821 z"
       id="path5240"
       inkscape:connector-curvature="0"
       sodipodi:nodetypes="ccccscscccccccccccsscscccscccccccccscc"
       inkscape:export-xdpi="96"
       inkscape:export-ydpi="96" />
  </g>
  <g
     inkscape:groupmode="layer"
     id="layer11"
     inkscape:label="h">
    <path
       style="fill:#848484;fill-opacity:1;stroke:none;stroke-width:0.16186704"
       d="m 91.376589,39.023736 c 0,-0.08603 0.1154,-0.398323 0.2564,-0.694033 0.20075,-0.420989 0.45977,-0.616515 1.19377,-0.901128 0.51556,-0.199921 1.06411,-0.503497 1.21897,-0.674624 0.48146,-0.532001 0.73242,-2.212787 0.83412,-5.58626 0.0991,-3.289368 -0.12652,-6.270616 -0.84565,-11.168826 -0.78978,-5.379803 -2.32323,-8.50211 -4.94533,-10.0693751 -1.79228,-1.071255 -4.82553,-1.389799 -6.65578,-0.698972 -2.41591,0.9118911 -4.17662,3.2786811 -4.66658,6.2729161 -0.15854,0.968915 -0.12018,1.509787 0.33028,4.657309 0.90049,6.292032 2.26554,15.034247 2.45046,15.693493 0.0987,0.351933 0.41965,0.880021 0.71316,1.173546 0.43113,0.431114 0.66193,0.533658 1.20132,0.533658 0.69418,0 0.72233,0.02922 1.05361,1.092597 l 0.11345,0.364213 h -6.08507 -6.08508 l 0.23579,-0.455975 c 0.18479,-0.357339 0.4464,-0.514508 1.20954,-0.72667 1.73193,-0.481518 2.60965,-1.721919 2.60965,-3.687966 0,-0.266339 -1.01889,-6.508803 -2.26421,-13.87214 -1.24534,-7.363317 -2.52276,-15.0631891 -2.8387,-17.1108071 -1.44246,-9.34835 -2.35588,-14.3165929 -2.73984,-14.9025989 -0.27152,-0.414388 -1.01369,-0.5928 -1.88581,-0.453344 -0.62033,0.0992 -0.63092,0.0924 -0.63092,-0.405403 0,-0.278455 0.0265,-0.506288 0.059,-0.506288 0.0325,0 2.81543,-0.507 6.18432,-1.126664 3.36891,-0.619668 6.14541,-1.106535 6.17002,-1.081932 0.0246,0.02461 -0.0401,0.26953 -0.14382,0.544277 -0.16433,0.435379 -0.30574,0.524405 -1.10097,0.693161 -2.05012,0.43507 -3.06701,1.397396 -3.07258,2.907708 -0.002,0.589521 2.69319,18.9115059 3.00717,20.4415639 0.13597,0.662557 0.45903,0.538831 0.67198,-0.257358 0.26569,-0.993408 1.40937,-2.20174 2.74665,-2.901932 2.14373,-1.122435 4.27556,-1.487147 7.26832,-1.243443 6.25164,0.509062 9.22998,3.174866 10.75114,9.6229471 0.16803,0.712209 0.52676,2.821874 0.7972,4.688119 0.52856,3.647389 0.59543,5.492586 0.32581,8.989641 -0.0858,1.112843 -0.20336,3.079526 -0.26123,4.370411 -0.16301,3.636193 0.22693,4.556333 2.251981,5.314002 0.47227,0.176708 1.19853,0.372248 1.61391,0.434534 0.54059,0.08112 0.82735,0.223343 1.00905,0.500644 l 0.25381,0.387377 h -6.154681 c -3.85112,0 -6.15468,-0.05847 -6.15468,-0.156378 z"
       id="path5264"
       inkscape:connector-curvature="0"
       inkscape:export-xdpi="96"
       inkscape:export-ydpi="96" />
  </g>
  <g
     inkscape:groupmode="layer"
     id="layer5"
     inkscape:label="A"
     style="display:inline">
    <path
       style="display:inline;fill:#848484;fill-opacity:1;stroke:none;stroke-width:0.10277321"
       d="m -25.521622,145.15791 0.529711,-1.02613 0.520905,-0.002 c 1.219432,-0.004 2.475558,-0.69507 3.32569,-1.83026 1.010266,-1.34902 2.442334,-4.12104 3.116988,-6.03351 0.139578,-0.39512 10.4454663,-27.85612 16.0561273,-43.344041 5.61066,-15.48792 4.888112,-14.57581 5.240182,-15.62153 0.674314,-2.00287 0.721588,-3.25449 1.269312,-3.404 0.716124,0.0453 0.939148,2.09677 1.455244,3.404 0.322873,0.81781 1.89555,5.15281 5.4474897,15.62153 3.634362,10.711601 9.472504,27.439991 12.161314,34.763031 2.20266,5.99896 2.81973,7.49912 4.54461,11.04813 1.92984,3.97074 3.15264,5.24278 5.16627,5.37433 l 0.75116,0.0491 0.50913,1.01458 0.50914,1.01458 -6.64666,-0.0265 -6.64666,-0.0265 -0.34207,-1.02034 c -0.18813,-0.56118 -0.33103,-1.03123 -0.31752,-1.04454 0.0135,-0.0133 0.39161,-0.0752 0.84027,-0.13751 2.04329,-0.2838 2.19154,-0.46692 1.84788,-2.2826 -1.03233,-3.00515 -1.55694,-4.65777 -4.38702,-12.93508 -3.1398,-9.18313 -3.087544,-9.03855 -3.728635,-10.31541 -1.211572,-2.41305 -1.908354,-3.10166 -3.673512,-3.64626 -0.509207,-0.15711 -1.215591,-0.1727 -7.1253537,-0.15722 -3.608068,0.01 -6.799176,0.0572 -7.091359,0.10606 -1.196352,0.20014 -1.847687,0.67636 -2.756892,1.62956 -0.963562,1.01019 -1.922872,2.35338 -2.429431,3.90448 -0.09228,0.28263 -1.468721,4.23683 -3.0587183,8.78711 -2.901992,8.30501 -3.409325,9.95133 -3.905111,12.67229 -0.176632,0.96937 -0.158754,1.36176 -0.07798,1.49021 0.203975,0.32441 0.223825,0.52892 1.249766,0.69963 0.562151,0.0935 1.037835,0.1835 1.057063,0.19994 0.01926,0.0165 -0.117786,0.49589 -0.30448,1.06547 l -0.339443,1.03559 h -6.648568 -6.648558 z m 37.059359,-34.84948 c 0.669319,-0.1272 1.28528,-0.41974 1.374752,-0.65291 0.228531,-0.59552 -0.461359,-2.00733 -1.293765,-4.42662 -0.23339,-0.67831 -1.7026853,-5.07185 -3.4427455,-9.763451 -1.7400692,-4.6916 -0.8880752,-2.86149 -2.7621942,-7.59983 -0.286519,-0.83321 -0.780054,-2.16792 -1.03065,-2.07176 -0.225695,0.0866 -0.145126,0.23143 -0.802653,2.10809 -2.37255,6.77159 -6.110028,16.752071 -6.454703,17.840811 -0.874901,2.7636 -1.161395,3.73218 -0.721272,4.14222 0.125252,0.11668 0.460545,0.29085 0.745107,0.38703 0.456333,0.15425 0.887721,0.10898 6.371811,0.15958 6.5160987,0.0601 7.0989937,0.0512 8.0163127,-0.12316 z"
       id="path4907"
       inkscape:connector-curvature="0"
       sodipodi:nodetypes="cccccsccccsccccccccccccccccccccccccccccccccccccccsc"
       inkscape:export-xdpi="96"
       inkscape:export-ydpi="96"
       inkscape:export-filename="logo_v2_audichu.png" />
    <path
       style="fill:#848484;fill-opacity:1;stroke:none;stroke-width:0.25729805"
       d="m 75.183917,145.27264 c -0.488693,-0.4887 -0.09783,-1.12348 0.987351,-1.60351 0.781344,-0.34563 1.248849,-0.7477 1.435034,-1.23421 0.342865,-0.8959 2.921849,-13.83893 3.340841,-16.76651 0.365405,-2.55319 0.195945,-4.59396 -0.546177,-6.57746 -0.886463,-2.36928 -0.690444,-2.32468 -8.676661,-1.97415 -6.853849,0.30083 -12.074247,0.6849 -12.730094,0.93657 -0.205999,0.079 -0.792054,1.97435 -1.450827,4.69196 -0.607869,2.50763 -1.354761,5.25403 -1.65976,6.10312 l -0.55454,1.54378 -2.187033,0.43929 c -3.190777,0.6409 -8.108283,1.19874 -12.221659,1.38644 -4.150932,0.18941 -4.245417,0.24138 -4.245417,2.33532 0,1.24385 -0.05642,1.37522 -0.655228,1.52551 -0.360375,0.0905 -0.694729,0.1216 -0.743008,0.0692 -0.102658,-0.11137 -1.436468,-10.34399 -1.357018,-10.41068 0.02949,-0.0248 0.41861,-0.12314 0.864705,-0.21864 0.784511,-0.16794 0.81673,-0.14019 0.983475,0.84676 0.293632,1.738 0.569955,1.92692 2.734046,1.86926 5.155607,-0.13736 11.991236,-1.19203 12.867885,-1.98538 0.761352,-0.68901 1.972115,-4.4614 8.208399,-25.57503 5.254895,-17.791011 6.680915,-22.457791 6.948366,-22.739091 0.248478,-0.26135 1.491292,2.15424 5.080288,9.8743 4.333717,9.32197 13.381763,29.654271 14.963246,33.624611 0.382405,0.96004 0.484209,0.39013 -1.784048,9.9873 -2.336533,9.88604 -2.460064,10.60245 -1.929316,11.18892 0.228201,0.25216 0.959094,0.60006 1.624201,0.77311 0.665107,0.17305 1.394335,0.36238 1.620509,0.42073 0.340228,0.0878 1.003917,1.09491 1.003917,1.52344 0,0.18778 -11.732818,0.13366 -11.921477,-0.055 z m -6.603984,-33.29969 c 4.033147,-0.15466 7.73824,-0.36396 8.233537,-0.46511 0.769342,-0.15712 0.887894,-0.27557 0.813721,-0.81303 -0.208849,-1.51332 -5.303496,-13.617461 -7.953891,-18.897281 -1.483051,-2.95438 -2.223508,-3.98324 -2.592435,-3.60218 -0.582917,0.6021 -6.862604,20.644311 -7.152095,22.826601 -0.162126,1.22217 -0.158094,1.23078 0.57745,1.23149 0.407398,5.3e-4 4.040566,-0.12583 8.073713,-0.28049 z"
       id="path914"
       inkscape:connector-curvature="0" />
    <path
       style="fill:#848484;fill-opacity:1;stroke:none;stroke-width:0.25729805"
       d="m 129.16578,144.84045 c 0,-0.80347 0.0936,-0.91889 0.96487,-1.1893 2.0747,-0.64395 3.50628,-1.65743 4.236,-2.99887 0.87048,-1.60017 3.31865,-7.49414 6.22643,-14.99013 2.73964,-7.06254 2.62398,-6.37015 6.4395,-38.551196 1.40066,-11.81355 1.61745,-12.89567 2.69949,-13.47476 0.41148,-0.22022 0.61438,-0.10601 1.24343,0.69994 3.05513,3.91424 17.00578,25.209721 21.4002,32.667126 l 1.09453,1.85744 -0.31019,1.87338 c -0.1706,1.03036 -0.98383,5.28901 -1.80717,9.46367 -2.21852,11.24874 -2.13438,10.66617 -1.67008,11.56403 0.21929,0.42406 0.64285,0.90168 0.94124,1.06137 0.46217,0.24735 0.52341,0.45997 0.41346,1.43548 -0.071,0.62982 -0.18589,1.20193 -0.25532,1.27137 -0.14944,0.14943 -10.67832,-1.29009 -10.87509,-1.48686 -0.44033,-0.44033 0.35501,-0.97653 2.01853,-1.36084 2.8599,-0.6607 2.9178,-0.70023 3.24246,-2.21406 0.7323,-3.41459 2.59138,-18.18765 2.59203,-20.59742 2.6e-4,-1.26875 -0.13106,-1.64699 -1.05049,-3.02386 -1.09193,-1.63516 -1.86496,-2.34439 -2.55531,-2.34439 -0.93126,0 -14.36638,8.57241 -15.03542,9.59349 -0.22324,0.34071 -0.55137,2.07901 -0.78881,4.17876 -0.2236,1.97745 -0.53222,4.00061 -0.68582,4.49591 -0.34406,1.10942 -2.65433,6.30022 -6.1125,13.73378 -1.44025,3.09589 -2.55762,5.78788 -2.48306,5.98218 0.0839,0.21868 0.5308,0.35329 1.17284,0.35329 h 1.03726 v 1.28649 1.28649 l -5.46758,0.003 c -3.00717,0.002 -5.7281,0.0733 -6.0465,0.15866 -0.51867,0.13901 -0.57893,0.0626 -0.57893,-0.73467 z m 22.58143,-40.19068 c 4.99878,-2.45331 9.06623,-5.120865 9.06623,-5.945885 0,-1.02761 -5.7387,-9.390571 -8.23675,-12.003361 -1.75381,-1.83436 -2.47021,-2.14673 -2.69179,-1.17369 -0.24527,1.07703 -1.43247,12.649361 -1.64106,15.996316 -0.22392,3.59297 -0.15402,4.52321 0.33987,4.52321 0.17484,0 1.59841,-0.62847 3.1635,-1.39659 z"
       id="path916"
       inkscape:connector-curvature="0" />
    <path
       style="fill:#848484;fill-opacity:1;stroke:none;stroke-width:0.25729805"
       d="m 178.16053,142.10069 -3.08991,-1.85493 1.25865,-0.42376 c 1.08851,-0.36648 1.46102,-0.347 2.75582,0.14402 1.65206,0.62653 2.42536,2.09793 3.09899,1.35358 0.30376,-0.33566 2.81183,-11.2594 8.10913,-35.3189 5.22847,-23.746916 9.66241,-31.644209 10.29787,-33.018678 0.91656,-1.982467 2.36987,-4.04009 2.83228,-4.009993 0.98871,0.06435 9.52832,11.35042 19.13169,25.2847 2.68226,3.891894 2.74413,4.014904 2.88256,5.731234 0.15688,1.945047 -0.52262,14.413487 -1.20791,22.164607 -0.39123,4.42502 -0.39653,5.12853 -0.0465,6.12557 0.43067,1.22647 1.34557,2.20995 2.10162,2.25916 0.42386,0.0276 0.68659,0.27721 0.35617,1.91651 l -0.12271,1.88534 -4.28844,-0.10972 c -6.75923,-0.17291 -8.31845,-0.31103 -8.29089,-0.7344 0.013,-0.19946 0.97901,-0.83387 2.14673,-1.40979 1.16772,-0.57591 2.26519,-1.27552 2.4388,-1.55468 0.4462,-0.71743 0.83368,-7.63935 0.84158,-15.03408 0.004,-3.38735 0.0757,-8.1283 0.16009,-10.53544 0.0844,-2.40714 0.0541,-4.89175 -0.0675,-5.521357 -0.23648,-1.22519 -1.69611,-3.23442 -2.38212,-3.27907 -0.76438,-0.0497 -3.61548,2.08038 -15.1477,11.317267 -8.1615,6.53706 -7.70391,5.98907 -9.45128,11.31885 -1.72977,5.27618 -3.73951,19.86752 -3.73951,21.54462 0,1.39987 0.76597,2.1183 2.07174,1.94316 0.93524,-0.12544 0.97204,-0.10354 0.76056,0.45273 -0.12224,0.3215 -0.35084,1.06209 -0.508,1.64574 l -0.28575,1.06118 -4.29982,-0.0532 c -2.36491,-0.0293 -6.61687,-2.27009 -8.31632,-3.2903 z m 19.30339,-37.3842 c 0.25162,-0.24833 2.53435,-2.0551 5.07274,-4.01503 5.58171,-4.309737 9.29967,-7.692215 10.06477,-9.156584 l 0.56785,-1.086844 -0.93837,-1.913646 c -2.50193,-5.10225 -6.79118,-10.932313 -8.10601,-11.017891 -0.43278,-0.02817 -0.74633,0.118317 -0.84771,0.396049 -0.0885,0.242411 -1.18205,4.377298 -2.43014,9.188615 -1.24809,4.811337 -2.41728,9.318384 -2.59821,10.015674 -0.52878,2.03793 -1.75545,7.334037 -1.77972,7.683887 -0.0327,0.47103 0.47035,0.42338 0.9948,-0.0942 z"
       id="path918"
       inkscape:connector-curvature="0"
       sodipodi:nodetypes="cccccscsscscssccscccscsscscccccccccccsscscccc" />
    <path
       style="fill:#848484;fill-opacity:1;stroke:none;stroke-width:0.17506146"
       d="m 107.19019,144.78395 c 0.18197,-0.89807 0.19969,-0.91307 1.07863,-0.91307 0.88304,0 2.51914,-0.41189 3.14556,-0.79189 0.5099,-0.30933 0.88333,-1.38876 1.24116,-3.58769 0.69376,-4.26324 1.60192,-15.44637 1.46367,-18.02367 -0.0522,-0.97278 -0.1819,-4.30801 -0.28825,-7.41161 -0.10636,-3.10361 -0.23122,-5.81348 -0.27748,-6.02193 -0.0628,-0.28299 -0.21166,-0.379 -0.58764,-0.379 h -0.50355 l -0.77846,4.84281 c -0.86409,5.37544 -1.85017,10.49853 -2.34251,12.17019 -0.30441,1.03358 -0.36832,1.11488 -1.14118,1.45162 -0.4503,0.19619 -2.12867,0.71231 -3.72972,1.14692 -4.657757,1.26436 -7.387907,2.13596 -7.754927,2.47575 -0.458758,0.42474 -0.446258,1.57289 0.0293,2.68987 0.2038,0.4787 0.33208,0.90598 0.28506,0.94951 -0.047,0.0435 -0.627828,0.26141 -1.290698,0.48418 l -1.205218,0.40503 -1.370171,-2.65376 c -2.164157,-4.19156 -3.161784,-6.25392 -3.271981,-6.76405 -0.0924,-0.42772 -0.03111,-0.49878 0.646761,-0.74989 0.411856,-0.15257 0.849514,-0.27708 0.972569,-0.27668 0.123057,2.4e-4 0.539797,0.5707 0.926092,1.26737 0.859988,1.55093 1.087088,1.68524 2.244341,1.32732 1.923505,-0.5949 8.644822,-3.70875 10.350032,-4.79496 0.74289,-0.47322 0.77172,-0.52703 1.05298,-1.96497 0.78329,-4.00458 2.75615,-16.86306 5.02099,-32.725073 0.81353,-5.697671 1.597,-10.606585 1.74104,-10.908695 0.1539,-0.322776 0.51327,-0.660279 0.87147,-0.818424 0.5596,-0.247065 0.65646,-0.24668 1.1815,0.0047 1.23366,0.59064 1.13638,-0.484196 2.38729,26.377192 0.92844,19.93676 0.96495,20.92228 0.84261,22.74016 -0.11285,1.67668 -0.88553,8.33495 -1.75802,15.14903 l -0.3976,3.10519 0.48304,0.38467 c 0.28849,0.22975 0.84493,0.42913 1.38155,0.49504 l 0.89852,0.11035 0.12067,0.74504 c 0.0664,0.40977 0.0804,0.78233 0.0312,0.82791 -0.0492,0.0456 -2.73153,0.13022 -5.96068,0.1881 l -5.87118,0.10523 z m 6.46806,-49.088502 c 0,-6.288635 -0.0628,-9.601398 -0.18194,-9.601398 -0.10006,0 -0.18206,0.09475 -0.18222,0.210558 -1.5e-4,0.115807 -0.32751,4.417484 -0.72746,9.559287 -0.39995,5.141805 -0.72731,9.367685 -0.72746,9.390835 -1.6e-4,0.0232 0.40907,0.0421 0.9094,0.0421 h 0.90968 z"
       id="path926"
       inkscape:connector-curvature="0" />
    <path
       style="fill:#848484;fill-opacity:1;stroke:none;stroke-width:0.17726253"
       d="m 232.03652,144.45693 c -1.53706,-0.49706 -6.04653,-2.60413 -6.04653,-2.82528 0,-0.0827 0.1258,-0.43618 0.27955,-0.78549 l 0.27955,-0.63511 1.92001,0.0527 1.92002,0.0527 0.41851,-0.49714 c 0.84492,-1.00364 5.58697,-9.23329 9.56572,-16.60095 l 2.33168,-4.3177 0.82094,-3.54051 c 1.29919,-5.60301 5.48494,-24.911653 8.68605,-40.068251 0.1988,-0.941306 0.85173,-2.204794 1.33686,-2.586997 0.20081,-0.158204 0.66907,0.143803 2.31146,1.490793 6.46807,5.304722 19.24932,16.30614 23.02789,19.821145 l 1.86487,1.734784 V 113.0451 c 0,10.90211 0.0678,17.63287 0.18343,18.21178 0.10091,0.50505 0.31827,1.05969 0.48305,1.23252 0.35618,0.37363 1.05937,0.40349 1.72601,0.0733 0.48204,-0.23875 0.48231,-0.2385 1.01788,0.91252 l 0.5357,1.15134 -5.8392,0.56169 c -3.21156,0.30892 -5.94156,0.55937 -6.06663,0.55655 -0.14684,-0.003 -0.22743,-0.27576 -0.22743,-0.76891 v -0.76377 l 1.7739,-0.52355 c 2.6181,-0.77271 2.45348,-0.53864 2.64234,-3.75688 0.0885,-1.50758 0.12594,-8.60882 0.0833,-15.78051 l -0.0776,-13.03945 -0.48258,-1.342123 c -0.63865,-1.776346 -1.52175,-3.473104 -2.05515,-3.948801 l -0.4313,-0.384626 -1.04484,0.405983 c -2.90284,1.127925 -22.7247,10.226017 -23.6671,10.863017 -0.81633,0.55179 -1.16342,1.8921 -2.19615,8.48061 -0.81048,5.17055 -0.13587,3.63198 -6.28605,14.3364 -2.2649,3.94205 -4.78628,8.43118 -5.60307,9.97582 -1.47417,2.78783 -1.48245,2.81091 -1.1283,3.14436 0.33299,0.3135 2.14327,0.86916 2.83168,0.86916 0.34208,0 0.52706,0.33833 0.52706,0.96401 0,0.41724 -0.002,0.41765 -2.0468,0.41323 -1.69227,-0.004 -2.27576,-0.0785 -3.36872,-0.4319 z m 24.33698,-44.38759 c 7.05862,-2.889028 12.78362,-5.476112 13.76949,-6.222329 0.49495,-0.374658 0.49503,-0.375014 0.15972,-0.872721 -0.18449,-0.273852 -2.9642,-2.992583 -6.17714,-6.041631 -5.32338,-5.051813 -8.35572,-7.668438 -8.88677,-7.668438 -0.44344,0 -0.8666,0.585684 -0.8666,1.199448 0,0.345285 -0.77093,3.850004 -1.71317,7.788267 -2.39883,10.026295 -3.17692,13.770104 -2.93815,14.136844 0.15569,0.23914 1.8138,-0.33897 6.65262,-2.31944 z"
       id="path934"
       inkscape:connector-curvature="0" />
    <path
       style="display:inline;fill:#848484;fill-opacity:1;stroke:none;stroke-width:0.10277322"
       d="m 291.62819,144.49322 0.52971,-1.02613 0.5209,-0.002 c 1.21944,-0.004 2.47556,-0.69507 3.32569,-1.83026 1.01027,-1.34902 2.44234,-4.12104 3.11699,-6.03351 0.13958,-0.395 10.44547,-27.856 16.05613,-43.343918 5.61066,-15.487929 4.88811,-14.575816 5.24018,-15.621534 0.67432,-2.002872 0.72159,-3.254494 1.26931,-3.404007 0.71613,0.04529 0.93915,2.096772 1.45525,3.404007 0.32287,0.817801 1.89555,5.152802 5.44749,15.621534 3.63436,10.711598 9.4725,27.439988 12.16131,34.763028 2.20266,5.99896 2.81973,7.49912 4.54461,11.04813 1.92984,3.97074 3.15264,5.24278 5.16627,5.37433 l 0.75116,0.0491 0.50913,1.01458 0.50914,1.01458 -6.64666,-0.0265 -6.64666,-0.0265 -0.34207,-1.02034 c -0.18813,-0.56118 -0.33103,-1.03123 -0.31752,-1.04454 0.0135,-0.0133 0.39161,-0.0752 0.84027,-0.13751 2.04329,-0.2838 2.19154,-0.46692 1.84788,-2.2826 -1.03233,-3.00515 -1.55694,-4.65777 -4.38702,-12.93508 -3.1398,-9.18313 -3.08754,-9.03855 -3.72863,-10.31541 -1.21158,-2.41305 -1.90836,-3.10166 -3.67352,-3.64626 -0.5092,-0.15711 -1.21559,-0.1727 -7.12535,-0.15722 -3.60807,0.01 -6.79918,0.0572 -7.09136,0.10606 -1.19635,0.20014 -1.84769,0.67636 -2.75689,1.62956 -0.96356,1.01019 -1.92287,2.35338 -2.42943,3.90448 -0.0923,0.28263 -1.46872,4.23683 -3.05872,8.78711 -2.90199,8.30501 -3.40933,9.95133 -3.90511,12.67229 -0.17663,0.96937 -0.15876,1.36176 -0.078,1.49021 0.20397,0.32441 0.22382,0.52892 1.24976,0.69963 0.56216,0.0935 1.03784,0.1835 1.05707,0.19994 0.0193,0.0165 -0.11779,0.49589 -0.30448,1.06547 l -0.33945,1.03559 h -6.64856 -6.64856 z m 37.05936,-34.84948 c 0.66932,-0.1272 1.28528,-0.41974 1.37475,-0.65291 0.22853,-0.59552 -0.46136,-2.00733 -1.29377,-4.42662 -0.23339,-0.67831 -1.70268,-5.071858 -3.44274,-9.763458 -1.74007,-4.691596 -0.88808,-2.86148 -2.7622,-7.599831 -0.28652,-0.833208 -0.78005,-2.167919 -1.03065,-2.071758 -0.22569,0.0866 -0.14512,0.231434 -0.80265,2.108094 -2.37255,6.771585 -6.11003,16.752073 -6.4547,17.840813 -0.8749,2.7636 -1.1614,3.73218 -0.72127,4.14222 0.12525,0.11668 0.46054,0.29085 0.7451,0.38703 0.45634,0.15425 0.88772,0.10898 6.37181,0.15958 6.5161,0.0601 7.099,0.0512 8.01632,-0.12316 z"
       id="path4907-8"
       inkscape:connector-curvature="0"
       sodipodi:nodetypes="cccccsccccsccccccccccccccccccccccccccccccccccccccsc"
       inkscape:export-xdpi="96"
       inkscape:export-ydpi="96"
       inkscape:export-filename="logo_v2_audichu.png" />
    <path
       style="fill:none;stroke:#000000;stroke-width:0.26458332px;stroke-linecap:butt;stroke-linejoin:miter;stroke-opacity:1"
       d="M 6.5611004,79.969092 27.53089,142.87846"
       id="path951"
       inkscape:connector-curvature="0" />
    <path
       style="fill:none;stroke:#000000;stroke-width:0.26458332px;stroke-linecap:butt;stroke-linejoin:miter;stroke-opacity:1"
       d="m 67.798036,84.986404 16.338426,37.050926 -4.245417,21.09844"
       id="path953"
       inkscape:connector-curvature="0" />
    <path
       style="fill:none;stroke:#000000;stroke-width:0.26458332px;stroke-linecap:butt;stroke-linejoin:miter;stroke-opacity:1"
       d="m 114.75493,80.740987 1.41514,43.612013 -1.67244,18.39681"
       id="path955"
       inkscape:connector-curvature="0" />
    <path
       style="fill:none;stroke:#000000;stroke-width:0.26458332px;stroke-linecap:butt;stroke-linejoin:miter;stroke-opacity:1"
       d="m 149.49016,79.068549 -4.24541,39.752551 -10.42058,24.44332"
       id="path961"
       inkscape:connector-curvature="0" />
    <path
       style="fill:none;stroke:#000000;stroke-width:0.26458332px;stroke-linecap:butt;stroke-linejoin:miter;stroke-opacity:1"
       d="M 201.46437,74.823129 185.51189,142.36387"
       id="path963"
       inkscape:connector-curvature="0" />
    <path
       style="fill:none;stroke:#000000;stroke-width:0.26004624px;stroke-linecap:butt;stroke-linejoin:miter;stroke-opacity:1"
       d="m 253.6217,75.939062 -9.09794,42.702438 -12.00927,22.84492"
       id="path965"
       inkscape:connector-curvature="0" />
    <path
       style="fill:none;stroke:#000000;stroke-width:0.26458332px;stroke-linecap:butt;stroke-linejoin:miter;stroke-opacity:1"
       d="m 321.48303,80.44837 -22.56022,62.22252"
       id="path967"
       inkscape:connector-curvature="0" />
    <path
       style="fill:none;stroke:#000000;stroke-width:0.26458332px;stroke-linecap:butt;stroke-linejoin:miter;stroke-opacity:1"
       d="m -47.34284,146.22334 c 449.75699,-1.02919 449.2424,-1.02919 449.2424,-1.02919"
       id="path969"
       inkscape:connector-curvature="0" />
    <path
       style="fill:none;stroke:#000000;stroke-width:0.26458332px;stroke-linecap:butt;stroke-linejoin:miter;stroke-opacity:1"
       d="M 5.4656348,157.40813 -11.09065,203.88756 c 0,0 -0.55133,1.61563 1.2680418,2.43435 1.819372,0.81872 2.7657919,-0.63973 2.7657919,-0.63973 l 14.5237601,-43.90756 -1.613384,-4.37676 c 0,0 -0.09247,-0.19699 -0.176892,-0.19699 -0.08443,0 -0.211033,0.20726 -0.211033,0.20726 z"
       id="path971"
       inkscape:connector-curvature="0"
       sodipodi:nodetypes="ccscccsc"
       inkscape:transform-center-x="7.4876023"
       inkscape:transform-center-y="20.237332" />
    <path
       style="fill:none;stroke:#000000;stroke-width:0.26458332px;stroke-linecap:butt;stroke-linejoin:miter;stroke-opacity:1"
       d="m -11.076194,204.30654 c 0,0 -6.068187,16.19366 -6.964828,17.67549 -0.166377,1.6562 0.179938,2.75539 2.319745,3.21306 1.66797,0.35674 2.078887,0.28453 3.218578,-0.7833 0.06179,-0.96503 5.4833423,-18.44349 5.4833423,-18.44349 0,0 0.7277812,-2.77573 -1.1072369,-3.4463 -2.0602404,-0.70215 -2.9496004,1.78455 -2.9496004,1.78455 z"
       id="path988"
       inkscape:connector-curvature="0"
       sodipodi:nodetypes="ccsccccc"
       inkscape:transform-center-x="3.376681"
       inkscape:transform-center-y="9.3065223" />
    <path
       style="fill:none;stroke:#000000;stroke-width:0.26458332px;stroke-linecap:butt;stroke-linejoin:miter;stroke-opacity:1"
       d="m -18.584158,222.60332 c 0,0 -1.195599,1.39899 -1.834907,1.66596 -0.639287,0.267 -2.186529,0.34364 -2.186529,0.34364 l -1.156019,2.03617 13.327171,0.0325 0.7016186,-2.08587 c 0,0 -2.2273726,-0.1571 -2.2669536,-0.79427 -0.313618,-1.68607 -0.714717,-2.68076 -2.608122,-2.93754 -1.448889,-0.54279 -2.937041,-0.24519 -3.976284,1.73937 z"
       id="path1048"
       inkscape:connector-curvature="0"
       inkscape:transform-center-x="1.4609348"
       inkscape:transform-center-y="0.41834423"
       sodipodi:nodetypes="cccccccccc" />
    <path
       style="display:inline;fill:none;stroke:#000000;stroke-width:0.26458332px;stroke-linecap:butt;stroke-linejoin:miter;stroke-opacity:1"
       d="m 5.8805923,157.52938 16.5562857,46.47943 c 0,0 0.55133,1.61563 -1.268042,2.43435 -1.819372,0.81872 -2.765792,-0.63973 -2.765792,-0.63973 l -14.5237597,-43.90756 1.613384,-4.37676 c 0,0 0.09247,-0.19699 0.176892,-0.19699 0.08443,0 0.211032,0.20726 0.211032,0.20726 z"
       id="path971-5"
       inkscape:connector-curvature="0"
       sodipodi:nodetypes="ccscccsc" />
    <path
       style="display:inline;fill:none;stroke:#000000;stroke-width:0.26458332px;stroke-linecap:butt;stroke-linejoin:miter;stroke-opacity:1"
       d="m 22.422422,204.42779 c 0,0 6.068186,16.19366 6.964827,17.67549 0.166377,1.6562 -0.179938,2.75539 -2.319744,3.21306 -1.667971,0.35674 -2.078887,0.28453 -3.218578,-0.7833 -0.06179,-0.96503 -5.483343,-18.44349 -5.483343,-18.44349 0,0 -0.727781,-2.77573 1.107237,-3.4463 2.060241,-0.70215 2.949601,1.78455 2.949601,1.78455 z"
       id="path988-2"
       inkscape:connector-curvature="0"
       sodipodi:nodetypes="ccsccccc"
       inkscape:transform-center-x="-6.7022444"
       inkscape:transform-center-y="10.379417" />
    <path
       style="display:inline;fill:none;stroke:#000000;stroke-width:0.26458332px;stroke-linecap:butt;stroke-linejoin:miter;stroke-opacity:1"
       d="m 29.930385,222.72457 c 0,0 1.1956,1.39899 1.834907,1.66596 0.639288,0.267 2.186529,0.34364 2.186529,0.34364 l 1.156019,2.03617 -13.32717,0.0325 -0.701619,-2.08587 c 0,0 2.227373,-0.15711 2.266954,-0.79428 0.313618,-1.68607 0.714717,-2.68076 2.608121,-2.93753 1.448889,-0.54279 2.937041,-0.2452 3.976284,1.73936 z"
       id="path1048-7"
       inkscape:connector-curvature="0"
       inkscape:transform-center-x="-1.3850819"
       inkscape:transform-center-y="0.43029976"
       sodipodi:nodetypes="cccccccccc" />
    <path
       style="fill:none;stroke:#000000;stroke-width:0.26458332px;stroke-linecap:butt;stroke-linejoin:miter;stroke-opacity:1"
       d="m -6.0948961,190.56674 23.7428041,0.18193 1.728403,5.00328 -27.4725162,-0.18194 z"
       id="path1071"
       inkscape:connector-curvature="0" />
    <path
       style="display:inline;fill:none;stroke:#000000;stroke-width:0.24864553px;stroke-linecap:butt;stroke-linejoin:miter;stroke-opacity:1"
       d="m 70.023601,165.73806 -16.561877,41.03463 c 0,0 -0.551516,1.42636 1.26847,2.14918 1.819987,0.72281 2.766726,-0.56479 2.766726,-0.56479 l 14.528665,-38.76405 -1.613928,-3.86404 c 0,0 -0.0925,-0.17392 -0.176953,-0.17392 -0.08446,0 -0.211103,0.18299 -0.211103,0.18299 z"
       id="path971-8"
       inkscape:connector-curvature="0"
       sodipodi:nodetypes="ccscccsc" />
    <path
       style="display:inline;fill:none;stroke:#000000;stroke-width:0.24864553px;stroke-linecap:butt;stroke-linejoin:miter;stroke-opacity:1"
       d="m 54.684979,205.73138 c 0,0 -17.151039,1.99337 -18.881024,1.9098 -1.540476,0.55782 -2.348053,1.28391 -1.745738,3.14121 0.469513,1.44774 0.726525,1.73795 2.205307,2.18276 0.881067,-0.35243 18.86231,-3.38294 18.86231,-3.38294 0,0 2.792926,-0.58507 2.521922,-2.29324 -0.349045,-1.89679 -2.962787,-1.55758 -2.962787,-1.55758 z"
       id="path988-24"
       inkscape:connector-curvature="0"
       sodipodi:nodetypes="ccsccccc"
       inkscape:transform-center-x="9.6501687"
       inkscape:transform-center-y="2.0109834" />
    <path
       style="display:inline;fill:none;stroke:#000000;stroke-width:0.24864553px;stroke-linecap:butt;stroke-linejoin:miter;stroke-opacity:1"
       d="m 36.037804,207.29661 c 0,0 -1.592234,-0.81545 -1.97024,-1.32813 -0.378047,-0.51262 -0.732606,-1.84401 -0.732606,-1.84401 l -2.212012,-0.67967 2.372477,11.57819 2.178943,0.27714 c 0,0 -0.247271,-1.95922 0.372518,-2.09506 1.602401,-0.5408 2.508742,-1.04748 2.419785,-2.73256 0.272665,-1.34461 -0.288635,-2.5895 -2.428805,-3.17596 z"
       id="path1048-1"
       inkscape:connector-curvature="0"
       inkscape:transform-center-x="1.346049"
       inkscape:transform-center-y="-0.96288224"
       sodipodi:nodetypes="cccccccccc" />
    <path
       style="display:inline;fill:none;stroke:#000000;stroke-width:0.24864553px;stroke-linecap:butt;stroke-linejoin:miter;stroke-opacity:1"
       d="m 70.438698,165.8451 16.561877,41.03463 c 0,0 0.551518,1.42637 -1.268469,2.14918 -1.819988,0.72282 -2.766727,-0.56479 -2.766727,-0.56479 l -14.528666,-38.76404 1.61393,-3.86404 c 0,0 0.0925,-0.17392 0.176952,-0.17392 0.08446,0 0.211103,0.18298 0.211103,0.18298 z"
       id="path971-5-0"
       inkscape:connector-curvature="0"
       sodipodi:nodetypes="ccscccsc" />
    <path
       style="display:inline;fill:none;stroke:#000000;stroke-width:0.24864553px;stroke-linecap:butt;stroke-linejoin:miter;stroke-opacity:1"
       d="m 86.767745,208.30624 c 0,0 -3.193088,15.00512 -3.193127,16.53423 -0.715335,1.32702 -1.580982,1.99898 -3.649343,1.36664 -1.612273,-0.49291 -1.926556,-0.73527 -2.348935,-2.06275 0.446895,-0.75716 4.858783,-16.43719 4.858783,-16.43719 0,0 0.814652,-2.42924 2.732419,-2.09702 2.126877,0.41132 1.600198,2.6961 1.600198,2.6961 z"
       id="path988-2-9"
       inkscape:connector-curvature="0"
       sodipodi:nodetypes="ccsccccc"
       inkscape:transform-center-x="2.5305314"
       inkscape:transform-center-y="8.5805244" />
    <path
       style="display:inline;fill:none;stroke:#000000;stroke-width:0.24864553px;stroke-linecap:butt;stroke-linejoin:miter;stroke-opacity:1"
       d="m 84.023147,223.92934 c 0,0 1.192101,1.23805 1.830874,1.47531 0.638758,0.23729 2.186303,0.30876 2.186303,0.30876 l 1.150735,1.80047 -13.331713,-0.005 -0.69604,-1.84326 c 0,0 2.228553,-0.13322 2.269924,-0.69564 0.318422,-1.48778 0.72243,-2.36497 2.617182,-2.587 1.450882,-0.47564 2.938703,-0.20926 3.972763,1.54538 z"
       id="path1048-7-4"
       inkscape:connector-curvature="0"
       inkscape:transform-center-x="-1.6316899"
       inkscape:transform-center-y="0.58615363"
       sodipodi:nodetypes="cccccccccc" />
    <path
       style="display:inline;fill:none;stroke:#000000;stroke-width:0.24864553px;stroke-linecap:butt;stroke-linejoin:miter;stroke-opacity:1"
       d="m 58.459165,195.01233 23.750824,0.16061 1.728985,4.41718 -27.481794,-0.16062 z"
       id="path1071-8"
       inkscape:connector-curvature="0" />
    <path
       style="display:inline;fill:none;stroke:#000000;stroke-width:0.25740689px;stroke-linecap:butt;stroke-linejoin:miter;stroke-opacity:1"
       d="m 121.48559,159.16706 -7.77623,46.23287 c 0,0 -0.24655,1.60264 1.69022,2.03032 1.93675,0.42769 2.60014,-1.10123 2.60014,-1.10123 l 6.24924,-43.47016 -2.38416,-3.77242 c 0,0 -0.12683,-0.16615 -0.20974,-0.15069 -0.0829,0.0155 -0.16947,0.23131 -0.16947,0.23131 z"
       id="path971-2"
       inkscape:connector-curvature="0"
       sodipodi:nodetypes="ccscccsc"
       inkscape:transform-center-x="3.4323913"
       inkscape:transform-center-y="19.921432" />
    <path
       style="display:inline;fill:none;stroke:#000000;stroke-width:0.25740689px;stroke-linecap:butt;stroke-linejoin:miter;stroke-opacity:1"
       d="m 114.5469,204.12046 c 0,0 -15.212867,7.08173 -16.853171,7.50139 -1.225583,1.02818 -1.706848,2.01611 -0.456088,3.76255 0.97498,1.36131 1.321878,1.58656 2.862849,1.61432 0.68857,-0.62259 16.28811,-9.02089 16.28811,-9.02089 0,0 2.38049,-1.42284 1.49334,-3.11184 -1.02982,-1.86139 -3.33505,-0.74552 -3.33505,-0.74552 z"
       id="path988-4"
       inkscape:connector-curvature="0"
       sodipodi:nodetypes="ccsccccc"
       inkscape:transform-center-x="8.5524542"
       inkscape:transform-center-y="4.7292145" />
    <path
       style="display:inline;fill:none;stroke:#000000;stroke-width:0.25740689px;stroke-linecap:butt;stroke-linejoin:miter;stroke-opacity:1"
       d="m 97.796662,211.20568 c 0,0 -1.762927,-0.40023 -2.293843,-0.82957 -0.530941,-0.42932 -1.328475,-1.72335 -1.328475,-1.72335 l -2.289532,-0.0811 6.27679,11.45591 2.117098,-0.33127 c 0,0 -0.919225,-1.98251 -0.392625,-2.30169 1.294665,-1.02391 1.956235,-1.81347 1.280255,-3.55389 -0.22085,-1.4868 -1.179576,-2.6312 -3.369543,-2.63528 z"
       id="path1048-0"
       inkscape:connector-curvature="0"
       inkscape:transform-center-x="2.2014563"
       inkscape:transform-center-y="0.11182372"
       sodipodi:nodetypes="cccccccccc" />
    <path
       style="display:inline;fill:none;stroke:#000000;stroke-width:0.25740689px;stroke-linecap:butt;stroke-linejoin:miter;stroke-opacity:1"
       d="m 123.17932,159.25381 11.13875,45.5754 c 0,0 0.36318,1.58144 -1.53737,2.14252 -1.90054,0.56107 -2.67408,-0.9179 -2.67408,-0.9179 l -9.41354,-42.9257 2.1021,-3.92839 c 0,0 0.11435,-0.17452 0.19819,-0.16487 0.0839,0.01 0.18595,0.21894 0.18595,0.21894 z"
       id="path971-5-7"
       inkscape:connector-curvature="0"
       sodipodi:nodetypes="ccscccsc"
       inkscape:transform-center-x="-5.1559755"
       inkscape:transform-center-y="20.005256" />
    <path
       style="display:inline;fill:none;stroke:#000000;stroke-width:0.25740689px;stroke-linecap:butt;stroke-linejoin:miter;stroke-opacity:1"
       d="m 134.12988,205.87124 c 0,0 -1.10148,16.3904 -0.89244,18.02998 -0.52493,1.49036 -1.28786,2.29251 -3.41677,1.80951 -1.65948,-0.37646 -2.00295,-0.60675 -2.60154,-1.9903 0.33778,-0.85399 2.5505,-18.08298 2.5505,-18.08298 0,0 0.47228,-2.68158 2.41145,-2.50619 2.15647,0.24047 1.9488,2.73999 1.9488,2.73999 z"
       id="path988-2-0"
       inkscape:connector-curvature="0"
       sodipodi:nodetypes="ccsccccc"
       inkscape:transform-center-x="1.4208289"
       inkscape:transform-center-y="9.3262496" />
    <path
       style="display:inline;fill:none;stroke:#000000;stroke-width:0.25740689px;stroke-linecap:butt;stroke-linejoin:miter;stroke-opacity:1"
       d="m 133.57444,223.21311 c 0,0 1.17575,1.34083 1.81129,1.60259 0.63553,0.26178 2.18177,0.35643 2.18177,0.35643 l 1.12709,1.94319 -13.32859,-0.15978 -0.67193,-1.98373 c 0,0 2.22976,-0.11681 2.27843,-0.71916 0.33768,-1.59089 0.75299,-2.52635 2.65018,-2.74222 1.45673,-0.4929 2.94075,-0.19002 3.95177,1.70266 z"
       id="path1048-7-5"
       inkscape:connector-curvature="0"
       inkscape:transform-center-x="-1.6548666"
       inkscape:transform-center-y="0.49659128"
       sodipodi:nodetypes="cccccccccc" />
    <path
       style="display:inline;fill:none;stroke:#000000;stroke-width:0.20028898px;stroke-linecap:butt;stroke-linejoin:miter;stroke-opacity:1"
       d="m 116.79681,190.41688 14.18207,0.17453 1.0324,4.79995 -16.40989,-0.17455 z"
       id="path1071-85"
       inkscape:connector-curvature="0" />
    <path
       style="fill:none;stroke:#000000;stroke-width:0.26458332px;stroke-linecap:butt;stroke-linejoin:miter;stroke-opacity:1"
       d="M -44.512563,227.27223 H 266.81808"
       id="path1172"
       inkscape:connector-curvature="0"
       sodipodi:nodetypes="cc" />
    <path
       style="display:inline;fill:none;stroke:#000000;stroke-width:0.26458332px;stroke-linecap:butt;stroke-linejoin:miter;stroke-opacity:1"
       d="M -46.57096,157.54445 H 264.7597"
       id="path1172-3"
       inkscape:connector-curvature="0"
       sodipodi:nodetypes="cc" />
    <path
       style="display:inline;fill:none;stroke:#000000;stroke-width:0.25740689px;stroke-linecap:butt;stroke-linejoin:miter;stroke-opacity:1"
       d="m 168.80656,157.08457 -7.77623,46.23287 c 0,0 -0.24655,1.60264 1.69022,2.03032 1.93675,0.42769 2.60014,-1.10123 2.60014,-1.10123 l 6.24925,-43.47016 -2.38416,-3.77242 c 0,0 -0.12684,-0.16615 -0.20974,-0.15069 -0.0829,0.0155 -0.16948,0.23131 -0.16948,0.23131 z"
       id="path971-2-7"
       inkscape:connector-curvature="0"
       sodipodi:nodetypes="ccscccsc"
       inkscape:transform-center-x="3.4323913"
       inkscape:transform-center-y="19.921432" />
    <path
       style="display:inline;fill:none;stroke:#000000;stroke-width:0.25740689px;stroke-linecap:butt;stroke-linejoin:miter;stroke-opacity:1"
       d="m 161.15019,203.6602 c 0,0 -3.73629,16.35917 -4.41079,17.91216 0.0601,1.59861 0.54566,2.58461 2.69219,2.66776 1.67317,0.0648 2.06384,-0.0707 3.03081,-1.2712 -0.0695,-0.9257 2.86406,-18.39773 2.86406,-18.39773 0,0 0.33609,-2.75288 -1.54207,-3.08798 -2.10181,-0.32816 -2.63421,2.177 -2.63421,2.177 z"
       id="path988-4-5"
       inkscape:connector-curvature="0"
       sodipodi:nodetypes="ccsccccc"
       inkscape:transform-center-x="2.1211253"
       inkscape:transform-center-y="9.271435" />
    <path
       style="display:inline;fill:none;stroke:#000000;stroke-width:0.25740689px;stroke-linecap:butt;stroke-linejoin:miter;stroke-opacity:1"
       d="m 156.35314,221.73866 c 0,0 -1.19198,1.35915 -1.82246,1.62131 -0.63041,0.26223 -2.14813,0.34671 -2.14813,0.34671 l -1.16237,1.97416 13.06263,-0.0589 0.71767,-2.0191 c 0,0 -2.18097,-0.13659 -2.21064,-0.75171 -0.28323,-1.62612 -0.66204,-2.58402 -2.5143,-2.81913 -1.41235,-0.51435 -2.87531,-0.21688 -3.92253,1.70649 z"
       id="path1048-0-3"
       inkscape:connector-curvature="0"
       inkscape:transform-center-x="1.3719691"
       inkscape:transform-center-y="0.52114187"
       sodipodi:nodetypes="cccccccccc" />
    <path
       style="display:inline;fill:none;stroke:#000000;stroke-width:0.25740689px;stroke-linecap:butt;stroke-linejoin:miter;stroke-opacity:1"
       d="m 170.43521,157.15795 11.91469,45.37874 c 0,0 0.39011,1.57501 -1.5006,2.16842 -1.89068,0.59343 -2.68935,-0.87213 -2.68935,-0.87213 l -10.14451,-42.75885 2.03477,-3.96368 c 0,0 0.11131,-0.17645 0.19536,-0.16824 0.084,0.009 0.18964,0.21574 0.18964,0.21574 z"
       id="path971-5-7-2"
       inkscape:connector-curvature="0"
       sodipodi:nodetypes="ccscccsc"
       inkscape:transform-center-x="-5.5148521"
       inkscape:transform-center-y="19.915365" />
    <path
       style="display:inline;fill:none;stroke:#000000;stroke-width:0.25740689px;stroke-linecap:butt;stroke-linejoin:miter;stroke-opacity:1"
       d="m 181.69206,204.39316 c 0,0 -7.78068,14.46789 -8.26836,16.04716 -1.09422,1.1399 -2.12057,1.55476 -3.85919,0.23464 -1.35528,-1.02899 -1.57279,-1.38071 -1.54566,-2.88795 0.66067,-0.63788 9.7999,-15.40977 9.7999,-15.40977 0,0 1.53891,-2.24626 3.23197,-1.2847 1.86403,1.11068 0.64134,3.30063 0.64134,3.30063 z"
       id="path988-2-0-0"
       inkscape:connector-curvature="0"
       sodipodi:nodetypes="ccsccccc"
       inkscape:transform-center-x="5.0846127"
       inkscape:transform-center-y="8.26845" />
    <path
       style="display:inline;fill:none;stroke:#000000;stroke-width:0.25740689px;stroke-linecap:butt;stroke-linejoin:miter;stroke-opacity:1"
       d="m 174.13274,219.38846 c 0,0 0.78422,1.60164 1.32921,2.02048 0.54497,0.41885 2.01266,0.91455 2.01266,0.91455 l 0.57973,2.17029 -12.82305,-3.63954 -0.12983,-2.09041 c 0,0 2.18271,0.47039 2.38721,-0.0984 0.74195,-1.44723 1.38743,-2.24153 3.27505,-1.95381 1.53493,-0.0948 2.88812,0.58561 3.36903,2.67677 z"
       id="path1048-7-5-2"
       inkscape:connector-curvature="0"
       inkscape:transform-center-x="-0.98746488"
       inkscape:transform-center-y="1.6283562"
       sodipodi:nodetypes="cccccccccc" />
    <path
       style="display:inline;fill:none;stroke:#000000;stroke-width:0.21494292px;stroke-linecap:butt;stroke-linejoin:miter;stroke-opacity:1"
       d="m 164.31429,188.3427 16.25929,-0.11552 1.19299,4.78392 -18.83364,0.1155 z"
       id="path1071-85-3"
       inkscape:connector-curvature="0"
       sodipodi:nodetypes="ccccc" />
  </g>
  <g
     inkscape:groupmode="layer"
     id="layer12"
     inkscape:label="u 1"
     style="display:inline">
    <path
       style="display:inline;fill:#848484;fill-opacity:1;stroke:none;stroke-width:0.06827292"
       d="m 104.60019,39.564983 c -2.9789,-0.429203 -5.312671,-1.761844 -7.021511,-4.009407 -2.66731,-3.508181 -2.94483,-9.403214 -2.43647,-17.051498 0.10182,-1.532821 0.9819,-5.486911 1.34716,-7.276573 0.26773,-1.3118671 0.28908,-1.4742881 0.24171,-1.8489411 -0.0706,-0.559799 -0.31713,-0.991292 -0.75013,-1.313082 -0.51173,-0.380278 -0.98984,-0.546756 -1.95865,-0.682051 l -0.84842,-0.118504 -0.23634,-0.769438 c -0.12995,-0.423199 -0.21677,-0.786303 -0.19287,-0.806892 0.0239,-0.02056 2.64017,0.182279 5.81387,0.450848 l 5.770431,0.488273 0.12614,0.815106 c 0.0693,0.448299 0.10646,0.832003 0.0825,0.852662 -0.0239,0.02071 -0.44151,0.07348 -0.92779,0.117334 -1.43337,0.129237 -1.94022,0.339826 -2.23009,1.0725 -0.30497,0.7696861 -1.392221,3.1796401 -1.852991,6.4473441 -0.56379,4.000481 -0.53057,4.698159 -0.45064,7.679606 0.19976,7.448861 2.666401,11.507208 7.058451,11.613137 4.25015,0.102455 8.08923,-3.689419 10.14544,-11.386598 0.66491,-2.488982 1.24278,-6.415091 1.47651,-9.188662 0.0642,-0.760486 -0.0585,-1.186274 -4.5e-4,-1.750822 0.058,-0.564563 0.19796,-0.802457 0.0669,-1.146032 -0.0867,-0.269057 -1.57211,-0.625749 -2.59382,-0.837801 l -0.39403,-0.08176 0.37676,-0.815116 0.37676,-0.8151111 1.08634,0.102723 c 3.32687,0.314487 10.37173,1.0521041 10.39826,1.0887181 0.0171,0.02355 -0.16625,0.35831 -0.40749,0.743895 l -0.43851,0.701092 -0.41148,-0.0608 c -1.27932,-0.189213 -2.60343,0.30929 -3.1453,1.18489 l -0.24236,0.391678 -0.42013,3.641983 c -0.6787,4.549344 -0.6895,5.038593 -1.3234,7.472766 -2.45399,9.423414 -6.85628,14.575319 -12.96728,15.175455 -0.49414,0.04849 -2.49804,0.04421 -2.66508,-0.0065 -0.035,-0.01031 -0.23826,-0.04411 -0.45194,-0.07503 z"
       id="path5028-0"
       inkscape:connector-curvature="0"
       sodipodi:nodetypes="csccccccscsccccccsscccccccccccccsccscccc"
       inkscape:export-xdpi="96"
       inkscape:export-ydpi="96" />
  </g>
</svg>
