<?xml version="1.0" encoding="UTF-8" standalone="no"?>
<!-- Created with Inkscape (http://www.inkscape.org/) -->

<svg
   width="210mm"
   height="297mm"
   viewBox="0 0 210 297"
   version="1.1"
   id="svg5"
   xml:space="preserve"
   inkscape:version="1.2.2 (732a01da63, 2022-12-09)"
   sodipodi:docname="enluminure.svg"
   xmlns:inkscape="http://www.inkscape.org/namespaces/inkscape"
   xmlns:sodipodi="http://sodipodi.sourceforge.net/DTD/sodipodi-0.dtd"
   xmlns="http://www.w3.org/2000/svg"
   xmlns:svg="http://www.w3.org/2000/svg"><sodipodi:namedview
     id="namedview7"
     pagecolor="#ffffff"
     bordercolor="#000000"
     borderopacity="0.25"
     inkscape:showpageshadow="2"
     inkscape:pageopacity="0.0"
     inkscape:pagecheckerboard="0"
     inkscape:deskcolor="#d1d1d1"
     inkscape:document-units="mm"
     showgrid="false"
     inkscape:zoom="0.64693624"
     inkscape:cx="153.02899"
     inkscape:cy="474.54445"
     inkscape:window-width="2560"
     inkscape:window-height="1369"
     inkscape:window-x="-8"
     inkscape:window-y="-8"
     inkscape:window-maximized="1"
     inkscape:current-layer="g1140" /><defs
     id="defs2" /><g
     inkscape:label="Calque 1"
     inkscape:groupmode="layer"
     id="layer1"><g
       id="g1121"
       inkscape:label="Perso"><g
         id="g4423"
         inkscape:label="bras_g"><path
           style="fill:#fafaf0;fill-opacity:1;stroke:#000000;stroke-width:2;stroke-linecap:round;stroke-dasharray:none;stroke-opacity:1;paint-order:stroke fill markers"
           d="m 88.646198,114.82084 c 0,0 8.793046,-1.32918 12.473852,1.73816 3.68081,3.06735 13.18957,14.51876 18.09732,18.81304 4.90775,4.29428 17.27936,16.35916 26.07241,19.83548 8.79305,3.47632 8.17958,3.16958 8.17958,3.16958 0,0 -1.94265,2.65837 -1.73816,4.39653 0.20449,1.73816 0.20449,4.19203 0.20449,4.19203 0,0 -14.92773,-2.96509 -19.93772,-4.49877 -5.01,-1.53367 -20.24447,-7.36162 -24.64099,-10.01998 -4.39652,-2.65836 -17.790579,-13.18957 -19.017518,-16.35916 -1.226937,-3.16959 -9.406517,-11.24692 0.306736,-21.26691 z"
           id="path4180" /><path
           style="display:inline;fill:#efe2c7;fill-opacity:1;stroke:#000000;stroke-width:1.66228;stroke-linecap:round;stroke-dasharray:none;stroke-opacity:1;paint-order:stroke fill markers"
           d="m 170.96565,156.91741 c -1.45891,0.31791 -6.41873,1.6243 -8.8695,2.33615 -0.88142,0.25603 -2.19431,0.52645 -2.91753,0.60094 -1.17045,0.1199 -1.53967,0.0644 -3.35953,-0.51086 -1.12453,-0.35547 -2.10224,-0.64027 -2.17271,-0.63288 -0.20914,0.0219 -0.72819,2.32272 -0.88402,3.91865 -0.0796,0.81583 -0.13923,2.14035 -0.13235,2.94339 0.0113,1.32056 0.0389,1.45733 0.28938,1.4311 0.15229,-0.016 2.35352,0.29716 4.89163,0.69574 3.38313,0.53104 5.28913,0.93685 7.14155,1.51958 5.4861,1.72578 6.85775,1.88259 11.18787,1.27894 3.09665,-0.43169 4.00849,-0.77763 4.77754,-1.81262 0.63106,-0.84926 0.76978,-1.80265 0.53013,-3.64347 -0.41562,-3.19269 -0.66586,-3.75803 -1.92723,-4.35406 -1.56529,-0.73964 -5.26571,-0.70953 -9.52129,0.0774 -1.56478,0.28938 -3.33199,0.58144 -3.92712,0.64904 -1.05183,0.11942 -1.08302,0.10982 -1.11571,-0.33814 -0.0414,-0.56798 0.18657,-0.64165 4.36281,-1.40956 l 2.93376,-0.53945 0.38781,-0.77571 c 0.372,-0.74407 0.59101,-1.47543 0.47158,-1.57475 -0.19256,-0.16015 -1.01389,-0.1064 -2.14706,0.14058 z"
           id="path1547-7" /></g><path
         style="fill:#865690;fill-opacity:1;stroke:#000000;stroke-width:2;stroke-linecap:round;stroke-dasharray:none;stroke-opacity:1;paint-order:stroke fill markers"
         d="m 24.140744,247.5197 c 1.659462,-5.98837 3.821424,-14.85704 4.734602,-19.42201 0.830638,-4.15236 0.980323,-5.83732 0.983194,-11.06762 0.0016,-3.10699 0.02392,-3.6568 0.145812,-3.61003 0.260495,0.1 2.104112,0.2641 5.37233,0.4783 7.15201,0.46875 9.382358,0.81546 13.956408,2.16956 4.325554,1.28052 9.292069,1.91819 14.927733,1.9166 4.169283,-0.001 6.106554,-0.19256 10.324642,-1.01997 5.98214,-1.17344 9.900293,-1.44456 16.310115,-1.12859 2.258793,0.11135 5.975139,0.0104 9.19952,-0.24997 0.98272,-0.0794 1.80203,-0.129 1.82069,-0.11035 0.1689,0.1689 2.25068,9.93235 2.5191,11.81445 0.57721,4.04735 1.20134,12.24448 1.45382,19.09421 l 0.0688,1.86597 H 64.947893 23.938299 Z"
         id="path1475"
         inkscape:label="jupe" /><path
         style="fill:#fafaf0;fill-opacity:1;stroke:#000000;stroke-width:7.55906;stroke-linecap:round;stroke-dasharray:none;stroke-opacity:1;paint-order:stroke fill markers"
         d="m 224.13337,823.04936 c -3.61318,-0.34286 -10.04736,-1.19966 -14.29816,-1.90402 -7.27938,-1.20618 -11.61957,-2.24317 -28.70396,-6.85818 -10.1504,-2.74193 -20.78639,-4.15513 -44.07774,-5.85659 -12.1864,-0.89023 -20.95229,-1.86137 -21.59173,-2.39206 -0.7473,-0.6202 -1.07744,-2.69607 -1.07962,-6.78852 -0.006,-12.06755 -3.28981,-48.58285 -6.19996,-68.95139 -3.51142,-24.57692 -6.25831,-35.58877 -25.721073,-103.1116 -11.035342,-38.28529 -17.994869,-64.44084 -20.564799,-77.28737 -4.159197,-20.79094 -6.05021,-56.3869 -3.92108,-73.80944 4.686673,-38.35074 18.802474,-65.30604 52.114662,-99.51732 6.77676,-6.95966 14.3016,-14.36942 16.72186,-16.46613 l 4.40047,-3.81219 3.20746,5.39896 c 15.18293,25.55667 39.53757,40.36388 84.42956,51.33177 29.56493,6.57313 61.48244,2.32247 90.49726,-8.11593 4.8908,-2.27135 11.00057,-8.23145 14.87823,-14.51374 l 2.90255,-4.70251 3.95673,3.13048 c 16.11371,12.74884 38.96107,34.85805 46.60531,45.09958 5.56052,7.44983 7.64368,12.07848 9.43846,20.9717 5.1864,25.69878 11.70954,85.39393 11.94399,109.30294 0.10501,10.70866 -0.10423,12.85185 -1.97236,20.20217 -2.67918,10.54153 -8.4106,26.47475 -12.19648,33.90596 -8.03618,15.77401 -9.81358,22.34619 -12.13651,44.87623 -1.08817,10.55416 -1.3865,20.07503 -1.3786,43.99727 0.0141,42.66071 1.21099,53.65009 9.40912,86.38829 2.79692,11.16918 4.94925,20.43859 4.78295,20.5987 -0.94147,0.90637 -31.82739,1.81356 -49.37985,1.45039 -22.89932,-0.47379 -32.23599,0.28179 -53.32829,4.31569 -6.58875,1.2601 -15.35681,2.66453 -19.4846,3.12097 -8.4701,0.9366 -29.36314,0.93441 -39.2538,-0.004 z"
         id="path1483"
         transform="scale(0.26458333)"
         sodipodi:nodetypes="ssssscsssssscsccscsssssssssssssss"
         inkscape:label="buste" /><path
         style="fill:#efe2c7;fill-opacity:1;stroke:#000000;stroke-width:7.55906;stroke-linecap:round;stroke-dasharray:none;stroke-opacity:1;paint-order:stroke fill markers"
         d="m 239.49851,411.91578 c -4.07202,-0.25142 -7.48697,-0.74839 -11.97954,-1.74338 -12.79143,-2.83296 -30.72036,-8.04389 -39.62661,-11.51721 -13.88682,-5.41568 -26.23581,-13.06531 -35.50668,-21.99476 -5.00348,-4.81922 -7.56495,-8.0046 -10.16175,-12.63692 -1.13189,-2.01913 -3.17002,-5.30084 -4.52917,-7.29268 l -2.47119,-3.62153 1.65702,-1.40152 c 8.81961,-7.45969 19.62417,-18.60363 28.33616,-29.22623 7.5565,-9.21371 18.99121,-21.84346 22.70878,-28.25164 11.49731,-17.76177 31.00315,-29.08921 36.64458,-25.06464 3.96338,3.80297 5.93652,5.18205 10.50784,7.34421 6.3244,2.99134 15.54862,4.59056 26.53455,6.01827 13.98104,27.73956 23.46577,48.47369 33.65684,64.55327 2.20147,3.47351 11.24813,10.1192 17.26981,19.019 l 10.94853,16.18146 -1.95029,3.26325 c -2.75893,4.61629 -5.88438,8.65237 -8.61084,11.11967 -2.71696,2.45871 -8.00865,5.21061 -12.23825,6.36441 -1.57182,0.42877 -3.13689,1.03115 -3.47794,1.33861 -1.10912,0.99989 -15.04856,4.36629 -23.99951,5.79593 -10.40197,1.66139 -23.85786,2.36085 -33.71234,1.75243 z"
         id="path2752"
         transform="scale(0.26458333)"
         sodipodi:nodetypes="sssssscssccsccscssssss"
         inkscape:label="cou" /><path
         style="fill:#a8a8a8;fill-opacity:1;stroke:#000000;stroke-width:2;stroke-linecap:round;stroke-dasharray:none;stroke-opacity:1;paint-order:stroke fill markers"
         d="m 41.049119,87.273414 c -0.71571,2.556119 2.54885,7.449336 5.71844,11.845858 3.16959,4.396528 11.638357,8.987258 20.635897,8.271548 8.99754,-0.71571 11.5113,-3.65813 13.66571,-6.81018 1.80613,-2.642488 2.47974,-4.660898 1.76403,-5.785592 -0.71571,-1.124691 -1.32918,-2.589074 -2.5221,-3.022861 -0.50608,0 0.26387,1.673251 -1.10289,4.596755 -1.5457,3.30627 -3.86674,5.545558 -13.23405,6.313488 -5.83397,0.47827 -11.388137,0.0179 -15.325187,-3.655638 -3.4848,-3.25157 -5.7693,-8.416149 -7.39282,-13.778602 -1.80745,0.506086 -2.20703,2.025224 -2.20703,2.025224 z"
         id="path1056"
         sodipodi:nodetypes="csssscssscc"
         inkscape:label="collier" /><g
         id="g1140"
         inkscape:label="Head"
         inkscape:transform-center-x="-14.421434"
         inkscape:transform-center-y="-28.001411"
         transform="rotate(-8.6611672,71.62207,70.192036)"
         style="display:inline"><path
           style="fill:#8f8f8f;fill-opacity:1;stroke:none;stroke-width:4.13106;stroke-linecap:round;stroke-dasharray:none;stroke-opacity:1;paint-order:stroke fill markers"
           d="m 469.3321,246.9516 c 8.38065,-12.72421 27.77435,-43.04425 31.79801,-49.73189 11.83708,-19.67417 33.14609,-67.16687 33.14609,-74.05519 0,-2.49957 -4.67052,-15.448 -7.73433,-21.51474 -3.98155,-7.883946 -6.47843,-9.611938 -16.85837,-11.595016 -15.67972,-2.995586 -17.89337,-3.882557 -23.74425,-9.97074 -1.8827,-1.959059 -4.48049,-4.333068 -6.07986,-5.077822 -6.8938,-3.210133 -19.53678,-0.236103 -42.77574,9.171904 -19.37187,7.842467 -24.51711,13.801724 -37.03715,36.342214 -5.30817,9.55658 -8.72211,12.96271 -16.1171,17.55098 -1.28632,0.7981 -8.9276,4.79034 -16.50832,8.63549 -19.31062,9.7949 -22.80376,12.10402 -25.31595,17.14535 -2.59986,5.21721 -1.54318,9.82529 3.82034,25.0451 3.97274,11.27329 5.23531,17.8449 5.60683,25.60567 0.36714,7.6693 0.0175,12.60192 -2.68218,17.667 -2.03728,3.82232 -6.92499,8.90788 -10.79975,10.87137 -7.78097,3.94292 -20.73877,7.35711 -29.86851,7.35711 -9.41617,0 -14.17631,-2.78095 -16.53521,-8.11363 -2.85781,-6.46055 -3.83391,-13.58716 -1.78417,-16.68262 1.45053,-2.19055 7.1117,-5.52512 10.60539,-5.91891 2.27538,-0.25646 2.93981,-0.88109 6.58331,2.6364 2.06533,1.99392 3.91819,3.6253 4.11747,3.6253 1.27501,0 2.04173,-0.0505 2.04173,-1.43696 0,-1.21175 -1.1425,-1.24702 -3.76253,-3.6727 -1.85685,-1.71912 -4.3776,-3.55977 -5.60167,-4.09033 -4.3781,-1.89765 -12.04034,-10.69117 -15.91064,-18.79205 -8.91494,-18.65979 -10.64936,-47.12798 -4.19557,-67.314 4.37,-13.66839 11.62523,-25.41334 22.56961,-32.733913 5.84334,-3.908549 9.96975,-6.023045 19.00813,-9.812631 19.57521,-8.207427 24.21035,-11.732983 33.50793,-26.690238 13.22221,-21.270919 24.13489,-31.496612 38.04283,-35.96823 7.69272,-2.473326 14.42303,-3.027876 36.5777,-3.013857 20.994,0.01328 25.91349,0.456792 33.80598,3.047714 3.85207,1.264545 13.69974,5.857868 16.54354,11.627388 l 3.69172,3.757408 -7.27714,0.711674 c -9.84989,0.963277 -22.99325,4.38361 -34.82305,10.634259 -4.15462,2.19522 -4.94533,2.828951 -5.09102,4.080271 -0.13021,1.118362 0.52815,0.368645 1.49605,0.809645 1.10026,0.501315 0.64249,-0.339177 7.29528,-3.588186 16.92369,-8.264988 33.62418,-11.249694 43.1698,-8.431114 9.1251,2.694411 20.67626,11.343649 26.26581,18.775306 3.19582,4.249047 6.82662,13.775178 8.1884,19.030466 0.45913,1.771838 2.11693,6.45462 2.59859,10.656663 0.78789,6.873815 0.56616,8.365725 2.69159,13.036805 4.91448,10.80061 8.70847,24.22963 8.74811,30.74087 0.0257,4.21676 -1.03225,6.1692 -4.94942,11.90012 -2.43244,3.55872 -4.11648,8.90922 -4.12506,11.00524 -0.007,1.75426 -2.39808,13.04575 -3.76199,17.19439 -2.17206,6.60677 -4.46786,9.38051 -9.96677,15.10739 -6.46437,6.73236 -7.20795,8.74743 -9.7325,18.85665 -2.25938,9.04736 -4.86415,15.44546 -8.36563,20.68058 -3.27862,4.90195 -6.75436,8.17158 -13.5322,12.6016 -5.37053,3.51019 -21.88908,11.72263 -22.55946,11.72328 -0.19906,2e-4 3.24913,-5.89505 5.5753,-9.42684 z M 324.08441,227.45018 c 1.1979,-2.29196 1.65328,-2.94215 1.66164,-6.30919 0.0187,-7.52718 -2.2542,-10.66287 -17.11937,-25.90922 -13.57848,-13.92667 -16.52512,-18.25448 -16.98434,-26.62405 -0.30715,-5.59792 0.65761,-9.56843 3.85049,-15.7234 7.53445,-14.52427 21.56975,-23.68579 41.01264,-23.68579 8.35401,0 19.64241,-2.44555 28.35174,-6.82452 8.48536,-4.26635 11.38316,-7.97557 24.5381,-20.44245 10.84862,-10.281167 25.14094,-20.200115 31.00645,-23.053774 3.54149,-1.722992 5.83889,-2.009229 17.29131,-2.855586 4.2688,-0.315472 5.39813,0.08196 5.87213,-0.672929 0.43744,-0.69666 0.16157,-1.079479 -0.28325,-1.776139 -0.53569,-0.839657 -1.2626,0.0059 -7.92152,0.04804 -8.35764,0.05294 -11.91758,1.808648 -15.73592,3.445377 -5.91261,2.53444 -18.58122,11.731826 -31.01226,23.306151 -15.46551,14.39968 -20.47424,18.10439 -29.32046,21.65634 -7.71197,3.09651 -11.74295,3.99562 -22.1928,4.51661 -7.76229,0.38699 -11.7399,0.84438 -15.7046,2.01186 -13.49192,3.97299 -23.38824,11.8798 -28.95702,23.43554 -5.06631,10.51311 -4.7623,18.36901 -0.46611,27.45041 2.15966,4.56516 4.98011,8.54679 15.35635,19.22931 12.20958,12.57002 15.52909,17.3812 15.52909,22.7954 0,4.82852 -4.62114,10.71613 -11.51666,14.21611 -3.11181,1.57947 -3.82932,1.45998 -3.82932,2.71888 0,0.80666 0.50552,0.98163 0.7059,1.18201 0.82118,0.82118 2.22694,-0.29423 5.70614,-2.1225 4.07146,-2.6697 8.86401,-7.56686 10.16165,-10.01249 z M 300.1617,130.31497 c 0.46089,-0.37572 3.03974,-3.48879 6.55731,-7.6264 3.51758,-4.13762 7.74151,-8.55961 8.85516,-9.29529 3.26189,-2.1548 12.6786,-4.61542 28.17699,-7.95668 7.9653,-1.71722 15.63212,-3.58996 17.27353,-4.16165 6.92066,-2.410395 13.8101,-9.233129 25.34715,-23.466411 4.14186,-5.109814 8.44047,-10.070035 9.302,-10.855724 3.01974,-2.753913 7.09339,-2.98371 22.71216,-3.083265 9.10142,-0.05801 9.19931,-0.03372 9.73693,-0.884937 0.95578,-1.513271 -0.31913,-1.039427 -3.06885,-1.462379 -3.80799,-0.58573 -16.19463,-0.369499 -21.26791,0.266636 -4.67902,0.5867 -8.0205,1.963023 -9.95167,3.675885 -0.58011,0.51453 -4.98592,5.239229 -9.20625,10.499332 -12.11107,15.094928 -18.62077,21.176232 -25.46715,23.209387 -1.51546,0.450046 -9.05198,1.785326 -16.27553,3.321536 -24.63738,5.23954 -29.20153,6.88882 -35.87853,14.70502 -8.41576,9.85163 -9.54583,11.31527 -9.54583,11.84578 0,0.6477 0.79582,1.95229 1.42045,1.95229 0.24313,0 0.81914,-0.30741 1.28004,-0.68313 z M 523.99686,88.104581 c 1.59786,-0.855148 1.79667,-0.808515 -1.33388,-7.192739 -2.0078,-4.094596 -3.96844,-6.884371 -5.89398,-8.815107 -5.0079,-5.021429 -15.65229,-11.452056 -23.54548,-14.128535 -5.25486,-1.781855 -11.31108,-1.057035 -19.26773,1.619118 -6.0827,2.045867 -17.25948,7.052579 -18.37164,8.392646 -0.79079,0.952837 -0.67203,2.508234 0.47968,2.95019 0.55426,0.212689 2.99551,-1.463625 7.72409,-3.794248 13.17339,-6.492892 22.65273,-8.597197 28.54946,-6.889396 7.2318,2.094464 19.86741,10.076308 23.68776,14.616542 0.81766,0.971736 2.73061,4.658637 4.00051,7.274681 3.25938,6.714439 1.81031,7.123328 3.97121,5.966848 z"
           id="path2831"
           sodipodi:nodetypes="sssssssssssssssssssssssssssssssssscsssssssssssscssssssscsssssssssscsssssssssssssccsssssssssssssssssssssssssssssss"
           transform="matrix(0.26156607,0.03984382,-0.03984382,0.26156607,-22.154494,-2.9545804)" /><path
           style="display:inline;fill:#efe2c7;fill-opacity:1;stroke:#000000;stroke-width:2;stroke-linecap:round;stroke-dasharray:none;stroke-opacity:1;paint-order:stroke fill markers"
           d="m 66.330528,88.585147 c -3.30155,-0.249091 -5.957652,-0.935754 -7.529758,-1.946611 -1.46381,-0.941223 -3.278783,-3.105226 -5.049205,-6.020194 -0.653315,-1.075668 -2.341912,-4.282328 -2.28369,-4.33674 0.02045,-0.0191 0.668054,-0.08673 1.439143,-0.15027 6.056582,-0.499121 9.032044,-3.828436 9.008406,-10.07972 -0.0066,-1.746311 -0.174215,-3.0827 -0.763006,-6.083562 -0.501398,-2.555446 -0.598754,-3.88847 -0.347517,-4.758206 0.364893,-1.263173 1.620512,-2.034601 5.167771,-3.17496 1.152808,-0.370602 2.924198,-0.940588 3.936423,-1.266635 4.425815,-1.425601 5.730512,-2.291151 8.019682,-5.320331 2.743954,-3.630975 4.004511,-4.864576 6.156804,-6.025145 1.440624,-0.776819 2.994136,-1.238951 6.885932,-2.048401 2.703935,-0.562388 3.850901,-0.729313 5.418971,-0.788654 2.568726,-0.09721 3.311588,0.224411 4.418446,1.912956 1.20793,1.842762 1.90137,2.29648 5.22757,3.420361 2.07431,0.700887 2.47482,0.874879 3.15472,1.370481 0.81202,0.59191 1.33486,2.056088 2.02769,5.678448 0.36459,1.906161 0.36739,1.940591 0.19609,2.40275 -0.58626,1.581644 -4.17923,7.353347 -8.05705,12.942739 -2.3356,3.366479 -2.68791,3.791037 -10.223916,12.320492 -4.907851,5.554845 -5.089662,5.750049 -6.141169,6.593578 -1.039993,0.834289 -3.343921,2.405679 -4.047567,2.760636 -0.703736,0.355002 -3.217611,1.328145 -4.192035,1.622774 -2.770012,0.837549 -8.391252,1.278379 -12.422735,0.974214 z"
           id="path2750"
           transform="translate(0.30935367,-0.56914032)" /><path
           style="display:inline;fill:#ffffff;fill-opacity:1;stroke:none;stroke-width:2;stroke-linecap:round;stroke-dasharray:none;stroke-opacity:1;paint-order:stroke fill markers"
           d="m 107.48479,38.469585 c 0,0 5.31673,-0.639029 6.74816,0.07668 1.43142,0.715713 2.47943,2.556118 2.47943,3.144025 0,0.587909 -1.38031,1.814846 -3.22071,1.789284 -1.8404,-0.02556 -5.31673,-1.329182 -5.47009,-2.147138 -0.15337,-0.81796 -0.7924,-1.533674 -0.53679,-2.862856 z"
           id="path3613"
           transform="rotate(8.6611672,8.4308263,-147.7556)" /><path
           style="display:inline;fill:#ffffff;fill-opacity:1;stroke:none;stroke-width:2;stroke-linecap:round;stroke-dasharray:none;stroke-opacity:1;paint-order:stroke fill markers"
           d="m 97.349101,58.17701 c 0,0 4.693509,1.075959 6.124939,1.791668 1.43142,0.715713 2.27093,0.869571 0.76544,3.193209 -0.31968,0.493401 -1.67386,3.062933 -3.0527,2.38371 -1.651121,-0.813348 -5.316733,-1.329182 -5.470093,-2.147138 -0.15337,-0.81796 -1.45305,-1.866599 -0.53679,-2.862856 z"
           id="path3613-2"
           sodipodi:nodetypes="csssssc" /><path
           style="fill:none;stroke:#000000;stroke-width:1.1;stroke-linecap:round;stroke-dasharray:none;stroke-opacity:1;paint-order:stroke fill markers"
           d="m 56.681597,74.322296 c -2.964217,1.012172 -11.567673,1.879748 -12.579845,-1.952043 -1.012171,-3.831793 0,-5.422347 1.518256,-5.928434 1.518259,-0.506084 2.819622,-0.650682 3.398004,0 0.578385,0.650682 1.373661,1.807451 1.373661,1.807451"
           id="path356"
           sodipodi:nodetypes="csssc" /><path
           style="fill:none;stroke:#000000;stroke-width:1.1;stroke-linecap:round;stroke-dasharray:none;stroke-opacity:1;paint-order:stroke fill markers"
           d="m 49.234907,71.719571 c 0,0 6.506816,-1.373661 4.193281,-6.434518 -2.313536,-5.060857 -8.531159,-9.037243 -5.856134,-14.89338 2.675024,-5.856134 9.109543,-7.229795 12.941334,-6.506816 3.831791,0.72298 8.603456,-0.216892 12.796737,-3.253406 4.193283,-3.036515 9.904819,-6.579113 12.07376,-6.723711 2.168938,-0.144595 5.205452,0.36149 5.205452,0.36149"
           id="path966" /><path
           style="fill:none;stroke:#000000;stroke-width:1.1;stroke-linecap:round;stroke-dasharray:none;stroke-opacity:1;paint-order:stroke fill markers"
           d="m 87.046738,30.509736 c 0,0 -6.651413,-1.590553 -8.458861,-0.578382 -1.807448,1.012169 -6.723711,7.157495 -10.700097,7.663582 -3.976388,0.506085 -11.206183,0.216895 -13.158229,1.879746 -1.952045,1.662853 -3.904088,3.398004 -3.904088,3.398004"
           id="path968" /><path
           style="fill:none;stroke:#000000;stroke-width:1.1;stroke-linecap:round;stroke-dasharray:none;stroke-opacity:1;paint-order:stroke fill markers"
           d="m 47.933543,65.71884 c -0.289192,-0.506084 -4.120983,-4.048686 -3.831791,-12.869034 0.289192,-8.820351 3.976389,-15.110275 9.54333,-18.074489 5.566942,-2.964217 10.483205,-1.662853 14.531888,-6.579116 4.048686,-4.91626 8.386564,-9.543329 15.399464,-9.109541 7.012903,0.433788 14.676485,1.807449 16.917726,3.759494 2.24123,1.952044 3.97639,4.699368 3.97639,4.699368"
           id="path970" /><path
           style="fill:none;stroke:#000000;stroke-width:1.1;stroke-linecap:round;stroke-dasharray:none;stroke-opacity:1;paint-order:stroke fill markers"
           d="m 94.204236,33.401656 c 0,0 6.868304,-2.819622 9.832524,-1.301364 2.96421,1.518256 5.92843,4.337878 6.43451,5.639239 0.50609,1.301364 0.93988,2.964217 0.93988,2.964217"
           id="path976" /><path
           style="fill:none;stroke:#000000;stroke-width:1.1;stroke-linecap:round;stroke-dasharray:none;stroke-opacity:1;paint-order:stroke fill markers"
           d="m 91.023124,29.280672 c 0,0 9.471036,-3.831792 14.459596,-0.795279 4.98855,3.036515 6.21762,6.362221 7.0129,9.615628 0.79527,3.253409 -0.2169,5.856136 0.43378,7.374392 0.65069,1.518256 1.73515,7.374393 1.15677,9.543331 -0.57838,2.168937 -2.53043,2.530427 -3.18111,4.916259 -0.65068,2.385833 -2.53043,6.434519 -3.90409,7.374393 -1.37366,0.939874 -3.3257,2.024343 -4.33788,4.843962 -1.01217,2.81962 -2.747318,6.289921 -6.506811,8.025072 -3.759494,1.735153 -8.386562,3.325707 -8.820351,3.181112"
           id="path980" /><path
           style="fill:none;stroke:#000000;stroke-width:1.1;stroke-linecap:round;stroke-dasharray:none;stroke-opacity:1;paint-order:stroke fill markers"
           d="m 81.913583,46.559882 c 0.36149,0 3.831791,-0.433787 5.566942,0.795277 1.735151,1.229066 3.325707,3.687196 3.325707,3.687196"
           id="path984" /><path
           style="fill:none;stroke:#000000;stroke-width:1.1;stroke-linecap:round;stroke-dasharray:none;stroke-opacity:1;paint-order:stroke fill markers"
           d="m 107.21787,57.91066 c 0,0 -4.48248,-3.325704 -7.01291,-2.241235 -2.530423,1.084469 -5.13315,5.060858 -6.362216,8.097369 -1.229064,3.036515 -2.964215,6.362221 -4.988558,7.012903 -2.024343,0.650682 -4.120983,0.433787 -5.422347,-0.361489 -1.301363,-0.795277 -2.602727,-1.735151 -2.602727,-1.735151"
           id="path986" /><path
           style="fill:none;stroke:#000000;stroke-width:1.1;stroke-linecap:round;stroke-dasharray:none;stroke-opacity:1;paint-order:stroke fill markers"
           d="m 70.924292,52.705208 c 0,0 -2.891917,1.445959 -5.422344,2.45813 -2.53043,1.012172 -3.108815,1.301364 -2.458133,2.168941 0.650682,0.867574 3.108812,0.506084 3.108812,0.506084"
           id="path988" /><path
           style="fill:none;stroke:#000000;stroke-width:1.23463;stroke-linecap:round;stroke-dasharray:none;stroke-opacity:1;paint-order:stroke fill markers"
           d="m 104.92488,61.705616 c 0,0 -2.33759,-2.293034 -3.81803,-2.686106 -1.480439,-0.393069 -3.751644,-0.564651 -3.751644,-0.564651"
           id="path990" /><path
           style="fill:none;stroke:#000000;stroke-width:1.1;stroke-linecap:round;stroke-dasharray:none;stroke-opacity:1;paint-order:stroke fill markers"
           d="m 94.782618,62.248539 c 0,0 1.229066,1.590555 2.602727,2.313535 1.373661,0.722979 4.410175,1.373661 4.410175,1.373661"
           id="path992" /><path
           style="fill:none;stroke:#000000;stroke-width:1.1;stroke-linecap:round;stroke-dasharray:none;stroke-opacity:1;paint-order:stroke fill markers"
           d="m 76.129747,75.551362 c 0.289189,0 4.699365,0 6.434516,1.156767 1.735153,1.156769 2.53043,2.53043 2.53043,2.53043 0,0 -1.445959,0.578381 -2.81962,0.144594 C 80.901412,78.949366 78.877069,78.15409 78.732472,77.7203 78.587877,77.286513 78.15409,76.780429 78.15409,76.780429"
           id="path994" /><path
           style="fill:none;stroke:#000000;stroke-width:1.1;stroke-linecap:round;stroke-dasharray:none;stroke-opacity:1;paint-order:stroke fill markers"
           d="m 78.677332,51.02013 c 0,0 4.958871,-0.153368 6.64591,1.226936 1.687039,1.380305 1.993773,3.783055 1.789282,4.038667 -0.204488,0.255613 -2.965098,1.380304 -4.805502,0.817959 -1.840405,-0.562346 -2.965099,-1.380305 -3.22071,-1.993773 -0.255611,-0.613468 -0.460102,-1.022448 -0.460102,-1.022448"
           id="path996" /><ellipse
           style="fill:#000000;fill-opacity:1;stroke:#000000;stroke-width:2;stroke-linecap:round;stroke-dasharray:none;stroke-opacity:1;paint-order:stroke fill markers"
           id="path1050"
           cx="84.603058"
           cy="55.183983"
           rx="1.635916"
           ry="1.354743" /><ellipse
           style="fill:#000000;fill-opacity:1;stroke:#000000;stroke-width:1.06816;stroke-linecap:round;stroke-dasharray:none;stroke-opacity:1;paint-order:stroke fill markers"
           id="path1052"
           cx="114.40901"
           cy="-58.503941"
           rx="1.6392335"
           ry="2.2806387"
           transform="matrix(0.49240192,0.87036794,-0.78290321,0.62214352,0,0)" /><path
           style="fill:#efe2c7;fill-opacity:1;stroke:none;stroke-width:2.06147;stroke-linecap:round;stroke-dasharray:none;stroke-opacity:1;paint-order:stroke fill markers"
           d="m 52.451197,76.751014 c -0.4206,-0.105627 -1.805958,-1.150065 -2.016259,-0.199438 -0.210299,0.950629 -0.285611,2.774057 1.595659,6.431334 1.252223,2.434379 3.66059,5.944954 6.203837,6.654397 9.344604,2.606696 9.648051,-0.686542 8.63923,-1.853298 -1.008821,-1.166757 -0.538314,0.50887 -6.851682,-5.434853 -2.102997,-2.006881 -7.570785,-5.598142 -7.570785,-5.598142 z"
           id="path2754"
           sodipodi:nodetypes="cssszcc"
           transform="translate(0.30935367,-0.56914032)" /></g><g
         id="g2540"
         style="display:inline"
         inkscape:transform-center-x="-64.569489"
         inkscape:transform-center-y="28.431589"
         inkscape:label="bras_d"
         transform="rotate(2.8873246,31.110062,123.57876)"><path
           style="fill:#fafaf0;fill-opacity:1;stroke:#000000;stroke-width:2;stroke-linecap:round;stroke-dasharray:none;stroke-opacity:1;paint-order:stroke fill markers"
           d="m 84.454162,182.58104 c -1.855742,-0.10782 -6.318726,-0.22146 -9.917742,-0.25255 -7.437599,-0.0643 -8.335544,-0.20402 -11.305553,-1.7595 -5.302049,-2.77683 -20.352837,-16.50183 -25.28411,-23.05688 -1.695733,-2.25412 -5.479142,-9.97839 -9.905531,-20.22335 -1.026615,-2.37609 -1.866572,-4.46846 -1.866572,-4.64968 0,-0.18121 0.28561,-1.2278 0.63469,-2.32571 1.211935,-3.81177 2.909128,-6.31328 4.947341,-7.29194 2.23004,-1.07077 6.164897,-1.45754 8.337264,-0.81947 1.612254,0.47355 2.353466,1.00049 3.237569,2.30163 0.43171,0.63538 1.208008,1.6255 1.725104,2.20028 0.54351,0.60415 1.45791,2.07936 2.167308,3.49655 4.088765,8.16821 11.13549,15.89214 18.485625,20.26213 2.802033,1.66595 4.977424,2.59244 10.169713,4.33131 11.931308,3.99574 24.231272,6.94201 33.829342,8.10324 2.44398,0.2957 23.8732,0.81401 24.24158,0.58634 0.18743,-0.11583 0.24522,0.19092 0.59824,3.1755 0.12734,1.07657 0.5344,2.85433 0.91303,3.98754 0.48514,1.45198 0.6157,2.0882 0.45028,2.19421 -0.12813,0.0821 -0.8771,0.37307 -1.66439,0.64651 -20.57707,7.14719 -24.63319,8.26344 -32.41158,8.91972 -3.515375,0.29657 -13.543946,0.39703 -17.381608,0.17412 z"
           id="path1545" /><path
           style="fill:#fafaf0;fill-opacity:1;stroke:none;stroke-width:2;stroke-linecap:round;stroke-dasharray:none;stroke-opacity:1;paint-order:stroke fill markers"
           d="m 21.725535,130.49781 c 0,0 3.036514,2.20509 5.458497,2.56658 2.42198,0.36149 10.338607,-1.33752 12.869034,-5.74769 2.53043,-4.41018 2.205088,-5.63924 2.205088,-6.50682 0,-0.86757 -1.538139,-2.99024 -5.179245,-2.99024 -3.641106,0 -8.103751,1.15462 -11.390019,3.05195 -3.286268,1.89733 -5.337016,6.55355 -3.963355,9.62622 z"
           id="path2329" /><path
           style="fill:#efe2c7;fill-opacity:1;stroke:#000000;stroke-width:2;stroke-linecap:round;stroke-dasharray:none;stroke-opacity:1;paint-order:stroke fill markers"
           d="m 159.36748,172.44615 c -1.94452,-0.18074 -8.57684,-1.04222 -11.86039,-1.54054 -1.18092,-0.17923 -2.92931,-0.32472 -3.8853,-0.32332 -1.5471,0.003 -2.02621,0.1061 -4.35876,0.9448 -1.44133,0.51824 -2.69682,0.94226 -2.78998,0.94226 -0.27648,0 -1.17777,-2.45983 -1.53504,-4.18949 -0.18263,-0.88418 -0.38759,-2.3277 -0.45546,-3.20783 -0.11161,-1.4473 -0.0884,-1.60023 0.24264,-1.60023 0.20133,0 3.05935,-0.59534 6.35116,-1.323 4.38773,-0.96988 6.84957,-1.63264 9.22414,-2.48324 7.03247,-2.5191 8.81705,-2.84816 14.55592,-2.68394 4.10411,0.11745 5.33356,0.39164 6.44165,1.43672 0.90926,0.85754 1.18254,1.88558 1.04439,3.92877 -0.23961,3.54367 -0.51379,4.19142 -2.11162,4.98877 -1.98282,0.98949 -6.84062,1.38104 -12.49926,1.00753 -2.08068,-0.13734 -4.4272,-0.25442 -5.21449,-0.26016 -1.39142,-0.0101 -1.43142,0.004 -1.43142,0.49826 0,0.62669 0.30622,0.6812 5.85893,1.04294 l 3.90072,0.25413 0.58307,0.80491 c 0.55931,0.77208 0.91668,1.54779 0.7695,1.67024 -0.23731,0.19746 -1.32004,0.23281 -2.8304,0.0924 z"
           id="path1547" /></g><path
         style="fill:#a8a8a8;fill-opacity:1;stroke:#000000;stroke-width:2;stroke-linecap:round;stroke-dasharray:none;stroke-opacity:1;paint-order:stroke fill markers"
         d="m 73.093232,105.04893 c -1.012171,0.0723 0.0723,2.38583 0.650682,3.3257 0.578382,0.93987 1.151331,1.63589 1.73515,1.37367 0.867451,-0.38962 -1.229067,-4.98856 -2.385832,-4.69937 z"
         id="path4533"
         sodipodi:nodetypes="cssc" /><path
         style="fill:#a8a8a8;fill-opacity:1;stroke:#000000;stroke-width:2;stroke-linecap:round;stroke-dasharray:none;stroke-opacity:1;paint-order:stroke fill markers"
         d="m 70.088775,115.99667 c 0,0 -1.022448,-5.72571 4.601014,-7.92397 2.535463,-1.16499 7.170029,-0.747 8.588558,2.70948 -0.153367,1.07357 -11.400289,5.82796 -13.189572,5.21449 z"
         id="path4604"
         sodipodi:nodetypes="cccc" /><path
         style="fill:#ca9bd1;fill-opacity:1;stroke:#000000;stroke-width:2;stroke-linecap:round;stroke-dasharray:none;stroke-opacity:1;paint-order:stroke fill markers"
         d="m 75.201012,110.47545 c 0,0 -1.226936,1.38031 -1.226936,3.01622 0,1.63592 1.431427,3.06735 2.709486,3.11847 1.27806,0.0511 3.425198,-0.66459 3.374075,-2.81173 -0.05112,-2.14714 -1.482547,-4.60102 -4.856625,-3.32296 z"
         id="path4606" /></g><g
       id="g1279"
       inkscape:label="flamme"
       style="display:inline"
       transform="translate(-5.566274,4.3042541)"><path
         style="fill:none;stroke:#000000;stroke-width:1.1;stroke-linecap:round;stroke-dasharray:none;stroke-opacity:1;paint-order:stroke fill markers"
         d="m 151.26103,154.03459 c -1.44596,-1.44596 -11.71227,-9.83253 -10.5555,-16.77313 1.15676,-6.9406 2.45813,-8.24197 2.02434,-11.56767 -0.43379,-3.32571 -1.30136,-5.85614 -1.30136,-5.85614"
         id="path1086"
         sodipodi:nodetypes="cssc" /><path
         style="fill:none;stroke:#000000;stroke-width:1.1;stroke-linecap:round;stroke-dasharray:none;stroke-opacity:1;paint-order:stroke fill markers"
         d="m 141.40449,113.28718 c 0,0 2.14714,-0.9202 3.37407,1.94265 1.22694,2.86285 -1.22693,3.78306 -3.68081,4.29428 -2.45387,0.51122 -9.09978,-5.21448 -5.62346,-9.71325 3.47632,-4.49877 9.40652,-5.62346 12.06488,-2.24939 2.65837,3.37408 6.03244,10.7357 4.70326,23.5163 -1.32918,12.78059 0.11465,17.12537 2.46627,20.70393 2.35163,3.57857 7.36677,6.07993 8.08248,6.38667"
         id="path1243"
         sodipodi:nodetypes="cssssssc" /><path
         style="fill:none;stroke:#000000;stroke-width:1.1;stroke-linecap:round;stroke-dasharray:none;stroke-opacity:1;paint-order:stroke fill markers"
         d="m 143.55163,105.25947 c 0,-0.61347 1.12469,-10.785322 -0.10225,-13.443686 -1.22694,-2.658364 -10.01999,-14.825488 -6.44142,-26.2769 3.57857,-11.451413 11.14468,-15.950182 17.27936,-16.972629 6.13469,-1.022448 13.59856,1.738161 15.84794,6.134684 2.24938,4.396526 4.19203,5.418974 2.14714,12.371615 -2.04489,6.952644 -6.8504,9.508763 -9.91774,9.304271 -3.06734,-0.204488 -4.90775,-0.920202 -6.13469,-3.067341 -1.22693,-2.147141 0.10225,-5.112236 4.08979,-6.032441"
         id="path1245"
         sodipodi:nodetypes="csssssssc" /><path
         style="fill:none;stroke:#000000;stroke-width:1.1;stroke-linecap:round;stroke-dasharray:none;stroke-opacity:1;paint-order:stroke fill markers"
         d="m 155.41202,71.878057 c 0,0 -2.76061,1.94265 1.53367,8.690803 4.29428,6.748155 15.43895,12.269372 18.40405,20.34671 2.9651,8.07733 5.52122,12.5761 4.39653,17.99507 -1.1247,5.41897 -3.68081,11.24692 -4.08979,11.45141"
         id="path1247" /><path
         style="fill:none;stroke:#000000;stroke-width:1.1;stroke-linecap:round;stroke-dasharray:none;stroke-opacity:1;paint-order:stroke fill markers"
         d="m 169.82853,54.394205 c 0,0 3.98754,-5.725705 4.29428,-10.428965 0.30673,-4.703257 0.30673,-6.236927 -1.22694,-8.793046 -1.53367,-2.556121 -5.00999,-4.29428 -6.8504,-2.862855 -1.84041,1.431428 -1.12469,2.658364 -1.12469,2.658364"
         id="path1249" /><path
         style="fill:none;stroke:#000000;stroke-width:1.1;stroke-linecap:round;stroke-dasharray:none;stroke-opacity:1;paint-order:stroke fill markers"
         d="m 169.93077,33.127299 c 0,0 -0.30673,5.725705 -4.08979,6.134684 -3.78306,0.40898 -7.87284,-3.578566 -5.11224,-9.406516 2.76061,-5.827951 10.12223,-7.463867 15.33672,-6.543665 5.21448,0.920203 12.67834,5.930196 15.33671,16.56365 2.65836,10.633453 1.12469,16.256915 -1.63592,24.743229 -2.76061,8.486312 -6.03244,18.915277 -5.31673,23.618537 0.71572,4.703257 2.76061,8.895291 2.76061,8.895291"
         id="path1251" /><path
         style="fill:none;stroke:#000000;stroke-width:1.1;stroke-linecap:round;stroke-dasharray:none;stroke-opacity:1;paint-order:stroke fill markers"
         d="m 186.28993,76.990296 c 0,0 7.97509,-11.042433 20.34671,-7.975092 12.37161,3.067344 14.00752,14.007531 14.51875,16.56365 0.51122,2.556118 0.40898,12.47386 -4.70326,15.745686 -5.11224,3.27184 -11.45141,3.37408 -14.72324,-0.61346 -3.27183,-3.987548 -2.93231,-8.405294 -0.30674,-10.224478 6.67197,-4.622815 11.1181,5.434752 6.90002,7.53653"
         id="path1255"
         sodipodi:nodetypes="csssssc" /><path
         style="fill:none;stroke:#000000;stroke-width:1.1;stroke-linecap:round;stroke-dasharray:none;stroke-opacity:1;paint-order:stroke fill markers"
         d="m 201.72889,101.12006 c 0,0 -3.27183,4.8055 1.63591,18.60854 4.90775,13.80304 4.80551,23.41405 0.10225,29.54873 -4.70326,6.13469 -9.20203,8.99754 -16.35916,10.53121 -7.15713,1.53367 -9.30427,1.63592 -11.24692,1.53367"
         id="path1257" /><path
         style="fill:none;stroke:#000000;stroke-width:1.1;stroke-linecap:round;stroke-dasharray:none;stroke-opacity:1;paint-order:stroke fill markers"
         d="m 179.95076,153.57161 c 0,0 12.78059,-9.91774 14.31426,-23.51629 1.53367,-13.59855 -2.24938,-22.80058 -2.65836,-32.922811 -0.40898,-10.122228 0.71571,-13.905285 4.49877,-17.381606 3.78305,-3.476321 10.39207,-5.810528 14.18845,-0.229299 4.76915,7.011321 -1.97473,11.081775 -1.97473,11.081775"
         id="path1259"
         sodipodi:nodetypes="cssssc" /><path
         style="fill:none;stroke:#000000;stroke-width:1.1;stroke-linecap:round;stroke-dasharray:none;stroke-opacity:1;paint-order:stroke fill markers"
         d="m 176.98566,143.44938 c 0,0 10.63345,-22.80058 9.81549,-31.0824 -0.81795,-8.28183 -7.7706,-19.937728 -12.37161,-24.129762 -4.60101,-4.192035 8.07733,-27.708328 9.8155,-32.411585 1.73816,-4.70326 -1.22694,-19.630993 -4.60102,-22.493846 -3.37408,-2.862852 -6.74815,-3.578566 -7.66835,-3.374075"
         id="path1261" /><path
         style="fill:none;stroke:#000000;stroke-width:1.1;stroke-linecap:round;stroke-dasharray:none;stroke-opacity:1;paint-order:stroke fill markers"
         d="m 162.56915,61.346849 c 0,0 -3.57857,-1.738162 -7.56611,0.920202 -3.98755,2.658364 -10.22448,7.97509 -3.47632,19.630991 6.74815,11.655901 12.98508,11.758147 17.27936,24.538738 4.29428,12.78059 7.15713,17.79059 4.08979,25.15221"
         id="path1263" /><path
         style="fill:none;stroke:#000000;stroke-width:1.1;stroke-linecap:round;stroke-dasharray:none;stroke-opacity:1;paint-order:stroke fill markers"
         d="m 141.60897,74.740909 c 0,0 8.48632,22.3916 13.80305,29.650981 5.31672,7.25938 7.25937,8.07733 8.79304,16.05242 1.53368,7.97509 2.35163,12.16713 1.73816,16.56365 -0.61346,4.39653 -3.06734,10.63346 -3.68081,10.94019"
         id="path1265" /><path
         style="fill:#ffe47b;fill-opacity:1;stroke:none;stroke-width:5.8422;stroke-linecap:round;stroke-dasharray:none;stroke-opacity:1;paint-order:stroke fill markers"
         d="m 589.9542,532.50597 c -20.60395,-1.71219 -40.01472,-7.67637 -54.00528,-16.59377 -12.96198,-8.26178 -31.26084,-25.28557 -40.75103,-37.91147 -6.24203,-8.3045 -10.93465,-17.53703 -12.25958,-24.12018 -1.17629,-5.84463 -0.45748,-11.05662 3.97194,-28.80002 1.6448,-6.58875 3.22023,-14.0663 3.50096,-16.61678 0.54193,-4.9236 -0.9693,-15.80042 -3.42656,-24.66207 l -1.33943,-4.83039 3.60774,-1.28136 c 9.28027,-3.29606 12.19679,-9.92917 8.13206,-18.49495 -2.64036,-5.56415 -6.58543,-8.32048 -11.87744,-8.29849 -3.6942,0.0154 -4.97678,0.88805 -4.65455,3.16707 0.23383,1.65373 0.64731,1.84478 3.99267,1.84478 3.22131,0 4.03419,0.33798 5.94207,2.47064 4.18842,4.68188 4.46729,10.252 0.63716,12.72629 -2.4923,1.61005 -9.00841,3.74 -11.41483,3.73122 -4.8212,-0.0176 -15.02516,-8.43413 -18.51232,-15.26953 -4.1051,-8.04665 -2.89502,-13.79747 4.42207,-21.01559 10.61399,-10.47042 23.30052,-14.04309 32.74945,-9.22261 7.74529,3.95136 16.84701,21.69953 20.69254,40.35005 3.30241,16.01643 3.84131,30.05063 1.93445,50.37804 -4.14558,44.19256 -1.43167,64.63945 10.88596,82.01597 5.37173,7.57791 15.89526,16.1287 26.38652,21.44008 5.14272,2.60358 7.17477,2.66401 7.17477,0.21334 0,-1.47498 -1.23098,-2.54275 -6.37621,-5.53074 -14.66877,-8.51863 -22.28337,-15.92807 -27.89486,-27.14326 -3.78184,-7.55844 -5.74722,-15.64047 -6.71392,-27.60889 -0.85539,-10.59041 -0.70383,-15.19937 1.31055,-39.85286 1.44687,-17.70791 1.06519,-40.11333 -0.8602,-50.4948 -2.76845,-14.92714 -7.55293,-28.03392 -13.55028,-37.12009 -4.83473,-7.32477 -8.29101,-10.49416 -13.29623,-12.19256 l -4.10966,-1.39452 0.0829,-5.65343 c 0.0456,-3.10938 0.20136,-12.95709 0.34614,-21.88378 0.18793,-11.58716 -0.0203,-17.22531 -0.72773,-19.70828 -0.54504,-1.91286 -3.90253,-8.69482 -7.4611,-15.07103 -10.14703,-18.18136 -16.06461,-32.84471 -19.33797,-47.91817 -2.0825,-9.58965 -1.91698,-25.18062 0.36053,-33.95999 5.70535,-21.99308 17.66663,-41.10976 32.868,-52.5301 7.60041,-5.70996 12.80672,-8.48668 21.11999,-11.26405 14.13671,-4.72291 27.27767,-4.70108 41.51886,0.0689 14.75016,4.94054 21.04286,10.28187 29.35218,24.91456 6.63695,11.68766 8.56964,17.73851 7.79009,24.38918 -0.70267,5.99482 -3.77596,17.44425 -6.08223,22.65914 -6.11765,13.83308 -17.74453,23.98006 -28.78289,25.11932 -4.82717,0.49821 -12.61394,-0.86226 -16.61334,-2.9026 -3.69377,-1.88443 -7.38993,-6.18529 -8.50013,-9.89078 -1.80932,-6.03898 3.08003,-12.50632 11.75587,-15.54994 3.4087,-1.19584 4.18396,-1.80568 4.38527,-3.44962 0.21986,-1.79521 -0.0144,-1.99692 -2.31862,-1.99637 -3.75435,7.7e-4 -11.41768,3.92942 -14.64265,7.50641 -1.54275,1.71115 -3.24753,4.46085 -3.78841,6.11047 -0.54087,1.64961 -1.88706,4.19062 -2.99155,5.64668 -1.82509,2.40605 -2.00627,3.28674 -1.98752,9.66092 0.0181,6.15576 0.32477,7.72247 2.50741,12.81009 5.97941,13.93766 13.78654,23.07017 37.66139,44.05501 25.33649,22.26955 32.61161,31.01555 38.79503,46.6386 13.44068,33.95927 16.45133,43.97298 16.46002,54.74763 0.008,10.3553 -6.11121,32.01822 -13.24343,46.88093 -1.7013,3.54532 -2.90514,6.93631 -2.67521,7.53552 0.66658,1.73705 3.3085,1.26413 5.00803,-0.89647 3.07347,-3.90728 11.08743,-26.14174 14.46609,-40.13568 2.01061,-8.32764 1.71011,-20.62126 -0.7282,-29.79066 -2.25881,-8.49438 -14.89762,-41.94163 -18.71122,-49.51725 -5.38186,-10.69087 -13.85297,-19.85749 -37.97223,-41.08989 -20.8752,-18.3766 -26.63246,-24.84015 -32.50759,-36.49552 -3.79542,-7.52955 -5.98181,-16.75302 -4.3565,-18.37832 0.26038,-0.26038 1.59595,1.15977 2.96792,3.1559 4.82102,7.01424 13.91345,10.55403 25.88753,10.07833 5.88337,-0.23374 7.40445,-0.61632 12.53306,-3.15234 8.50628,-4.20624 15.56492,-11.85373 20.67553,-22.40036 5.3868,-11.11659 7.32966,-18.95643 7.33234,-29.58736 0.002,-9.57186 -0.25849,-10.41483 -7.10669,-22.96108 l -4.09048,-7.49395 1.88939,-2.99299 c 3.70322,-5.86627 8.84442,-16.89048 10.86801,-23.30414 2.53395,-8.031182 3.92534,-23.857649 2.84495,-32.360014 -1.85615,-14.607283 -13.02212,-27.271982 -25.14802,-28.523486 -7.62705,-0.787181 -14.16059,3.974056 -14.89763,10.85647 -0.43486,4.060607 1.25535,6.766123 3.403,5.447186 0.92751,-0.569613 1.3978,-1.787542 1.3978,-3.61997 0,-1.985091 0.6214,-3.410267 2.21009,-5.068813 2.75285,-2.873891 5.07798,-3.487498 9.10559,-2.402977 l 3.14259,0.846213 -0.53827,3.589433 c -0.74446,4.964415 -3.24299,11.357701 -5.47555,14.010954 -3.00106,3.566546 -7.40868,4.95465 -12.42544,3.913174 -8.9291,-1.853673 -14.56798,-9.165718 -14.56798,-18.890565 0,-16.744253 14.37466,-31.222908 35.45143,-35.707903 8.57458,-1.824613 22.3859,-1.046341 29.85639,1.682417 15.59108,5.694973 29.29752,17.592354 38.54129,33.454371 7.81967,13.418308 13.05198,32.13972 14.87811,53.23446 1.61443,18.64936 -0.70786,32.06826 -11.34694,65.56614 -8.64447,27.21768 -14.40464,47.33636 -17.07441,59.63615 -1.827,8.41707 -2.15705,11.73909 -2.17597,21.90158 -0.0209,11.20729 0.13644,12.5276 2.44017,20.48116 3.11812,10.76521 7.37517,21.3397 9.00465,22.36756 0.92707,0.58478 1.58714,0.46159 2.51879,-0.47005 1.16808,-1.16808 1.02483,-1.87039 -1.91559,-9.391 -8.79582,-22.49682 -9.56307,-32.78681 -4.23794,-56.83742 2.147,-9.69682 2.4894,-10.25359 11.85076,-19.27058 9.35972,-9.01541 22.64539,-16.85021 33.64514,-19.84115 6.62087,-1.80028 19.20404,-2.37732 26.44758,-1.21284 26.82067,4.31173 47.06148,22.00282 55.296,48.33041 3.19943,10.22926 3.91945,16.13696 3.45187,28.32217 -0.85846,22.37177 -7.29983,36.5244 -19.90073,43.72489 -13.75695,7.8611 -30.91279,9.07074 -41.40873,2.91971 -7.46567,-4.37517 -14.29458,-14.50187 -15.89103,-23.56506 -0.95732,-5.43477 0.51696,-11.66035 3.64028,-15.3722 2.83712,-3.37174 9.5779,-6.45223 14.11885,-6.45223 7.16302,0 13.65181,5.57681 16.03757,13.78353 1.6887,5.80895 0.94101,9.68606 -2.51527,13.04276 -4.45183,4.32356 -1.66282,7.97894 3.18084,4.16892 6.10451,-4.80181 6.68623,-17.67167 1.15169,-25.4797 l -1.4213,-2.00514 4.08671,-4.2193 c 10.71582,-11.06348 11.79973,-25.32127 2.96092,-38.9478 -10.33283,-15.92979 -26.16977,-19.20244 -45.75732,-9.45563 -8.9024,4.42986 -19.38283,14.61215 -23.49566,22.82726 -4.90859,9.80462 -5.9925,15.90815 -6.43441,36.23255 -0.46627,21.44403 0.12586,28.31891 5.18291,60.17598 4.22156,26.5939 5.10885,33.97252 5.85516,48.69104 0.56961,11.23381 -0.64142,30.86589 -2.4553,39.803 -5.05599,24.91118 -21.6471,51.88334 -45.40709,73.81831 -7.47005,6.89626 -8.77563,9.12444 -5.88414,10.04216 2.09372,0.66452 5.19397,-1.88014 16.61195,-13.63489 14.08126,-14.4966 23.22439,-27.2922 30.57466,-42.78857 9.22007,-19.43843 12.13172,-36.26285 11.30223,-65.30782 -0.45813,-16.04172 -1.50735,-25.79871 -5.23599,-48.69105 -4.52774,-27.79848 -5.38625,-35.22141 -5.85489,-50.62322 -0.95462,-31.37367 2.33533,-43.91887 14.81484,-56.49178 10.92224,-11.004 25.43808,-16.58846 36.0513,-13.86948 8.38979,2.14936 13.99308,7.31283 18.58552,17.12663 4.63609,9.9071 2.82607,19.76344 -5.08152,27.67103 l -3.50187,3.50186 -4.06305,-2.10799 c -8.51846,-4.41953 -19.73737,-2.08998 -26.79181,5.56318 -7.85807,8.525 -7.19445,23.75953 1.57725,36.20844 1.43252,2.03306 1.44738,2.33111 0.28617,5.73909 -2.30447,6.76324 -3.07217,16.50024 -2.07902,26.36886 1.27866,12.7057 3.99997,24.12672 10.53026,44.19431 10.33531,31.76039 12.30903,41.8414 12.33242,62.98921 0.0152,13.72198 -0.18069,16.18087 -1.74453,21.90063 -3.39911,12.43225 -8.76194,21.39303 -19.87015,33.20113 -14.22233,15.11842 -29.44097,23.27924 -52.76383,28.294 -15.36055,3.30275 -21.86714,4.27341 -31.10165,4.63977 -4.88842,0.19393 -12.36598,0.52257 -16.61678,0.73029 -4.25081,0.20772 -11.26736,0.0836 -15.59234,-0.27579 z m -24.4337,-49.07348 c 4.73608,-8.37652 11.05898,-29.26524 12.62542,-41.71017 1.51558,-12.04072 0.40918,-23.53686 -5.07176,-52.69843 -3.33141,-17.72499 -5.80197,-26.62836 -9.50848,-34.26665 -1.65713,-3.415 -8.2584,-13.03584 -16.0345,-23.36906 -20.31373,-26.99377 -30.83984,-47.55632 -54.50885,-106.48194 -6.82173,-16.98316 -7.78786,-18.9354 -9.37074,-18.9354 -2.74771,0 -2.60581,2.74287 0.55243,10.67851 13.24284,33.27495 23.88063,57.66989 33.66758,77.20765 8.93348,17.83397 11.97725,22.63994 26.38761,41.66484 16.70046,22.04836 18.75749,26.78496 24.12554,55.55225 5.64578,30.25568 6.48004,43.91094 3.53516,57.86341 -1.88912,8.95041 -6.98491,24.35145 -10.05851,30.3999 -2.98096,5.86614 -3.03063,7.76044 -0.19484,7.43114 1.52548,-0.17714 2.58784,-1.09674 3.85394,-3.33605 z m 60.66217,-29.58266 c 19.73715,-45.86041 30.74501,-81.50544 30.75686,-99.59508 0.0116,-17.72701 -12.36452,-49.53605 -28.82587,-74.08804 -4.67272,-6.96934 -12.34429,-16.61384 -15.98402,-20.09471 -4.75172,-4.54435 -5.53045,-6.49965 -5.48716,-13.77773 0.0888,-14.92627 7.9938,-37.5074 29.83712,-85.23135 5.66269,-12.37202 10.74894,-24.02309 11.30278,-25.89127 1.45407,-4.90476 1.22732,-23.87584 -0.41439,-34.67052 -2.58926,-17.025118 -7.90701,-34.819102 -13.05825,-43.694914 -3.11389,-5.365348 -5.4849,-7.754403 -11.88407,-11.974509 -7.99195,-5.270501 -15.00048,-7.936409 -21.12994,-8.037419 -4.65354,-0.07669 -5.04191,0.04559 -5.2711,1.659634 -0.27121,1.909934 -0.24217,1.924389 6.36129,3.165799 9.9565,1.87176 22.17401,9.418735 26.79918,16.554323 7.57849,11.691879 13.72199,36.993062 14.39958,59.302756 0.46645,15.35753 0.67307,14.59808 -10.61876,39.03012 -20.99595,45.42878 -29.99039,70.32424 -31.3658,86.81656 -0.80132,9.60856 0.38233,13.13228 6.70005,19.94595 21.51214,23.20087 40.92005,62.02322 43.60704,87.22879 1.6342,15.32979 -9.68557,53.33037 -29.71597,99.75673 -3.83808,8.89588 -6.97955,16.97996 -6.98105,17.96462 -0.002,1.49584 0.34522,1.75008 2.11269,1.54575 1.96332,-0.22697 2.60036,-1.37133 8.85979,-15.91549 z m -20.97802,-32.72831 c 5.26607,-13.45802 4.91829,-28.97059 -1.09925,-49.0329 -3.47257,-11.57742 -18.30252,-53.54928 -21.06532,-59.6192 -5.98465,-13.14845 -12.6393,-22.34249 -27.23858,-37.63275 -14.37358,-15.05387 -19.38032,-21.03656 -26.49254,-31.65662 -21.57265,-32.21257 -22.59091,-54.11888 -3.35688,-72.21766 7.62075,-7.17096 12.95692,-10.47542 19.81412,-12.27004 4.46243,-1.16788 5.78868,-1.21845 10.04735,-0.38305 8.23465,1.61532 8.73813,1.57105 9.011,-0.79236 0.21969,-1.90282 -0.10745,-2.18475 -3.81143,-3.28471 -5.46408,-1.62265 -13.43096,-1.52155 -19.09846,0.24237 -9.76805,3.04017 -24.429,15.29654 -29.24162,24.44566 -3.81105,7.24506 -5.16762,12.90274 -5.09616,21.25403 0.18497,21.61646 13.47734,45.50857 41.92384,75.35518 22.92191,24.05009 26.73917,30.69143 40.58284,70.60676 9.79978,28.2556 12.28179,36.86971 13.61196,47.24179 1.0014,7.80853 0.13492,16.22008 -2.44256,23.71166 -0.82663,2.40266 -1.50298,5.2066 -1.50298,6.23099 0,1.55713 0.3326,1.82243 2.02837,1.61798 1.60809,-0.19389 2.31802,-0.98479 3.4263,-3.81713 z"
         id="path6269"
         transform="matrix(0.26458333,0,0,0.26458333,13.663645,19.698667)" /></g></g></svg>
