<?xml version="1.0" encoding="UTF-8" standalone="no"?>
<!-- Created with Inkscape (http://www.inkscape.org/) -->

<svg
   width="109.81342mm"
   height="61.996109mm"
   viewBox="0 0 109.81342 61.996109"
   version="1.1"
   id="svg8"
   xml:space="preserve"
   xmlns="http://www.w3.org/2000/svg"
   xmlns:svg="http://www.w3.org/2000/svg"
   xmlns:rdf="http://www.w3.org/1999/02/22-rdf-syntax-ns#"
   xmlns:cc="http://creativecommons.org/ns#"
   xmlns:dc="http://purl.org/dc/elements/1.1/"><defs
     id="defs2" /><metadata
     id="metadata5"><rdf:RDF><cc:Work
         rdf:about=""><dc:format>image/svg+xml</dc:format><dc:type
           rdf:resource="http://purl.org/dc/dcmitype/StillImage" /></cc:Work></rdf:RDF></metadata><g
     id="layer1"
     transform="translate(-94.701047,-100.48348)"
     style="display:inline"><g
       id="g2"
       transform="matrix(0.73302321,0,0,0.73302321,40.495758,-5.4975693)"><g
         transform="translate(3.9131686,87.199338)"
         style="display:inline;fill:#ffffee;fill-opacity:1"
         id="g2845"><rect
           ry="0.49020374"
           y="64.80481"
           x="98.050156"
           height="37.230648"
           width="0.59128392"
           id="rect2243-9"
           style="display:inline;opacity:1;vector-effect:none;fill:#ebebeb;fill-opacity:1;fill-rule:nonzero;stroke:none;stroke-width:0.231864;stroke-linecap:round;stroke-linejoin:miter;stroke-miterlimit:4;stroke-dasharray:none;stroke-dashoffset:0;stroke-opacity:1" /><rect
           ry="0.49020371"
           y="64.580032"
           x="98.465996"
           height="37.655872"
           width="1.1346207"
           id="rect2243"
           style="display:inline;opacity:1;vector-effect:none;fill:#ffffee;fill-opacity:1;fill-rule:nonzero;stroke:none;stroke-width:0.334847;stroke-linecap:round;stroke-linejoin:miter;stroke-miterlimit:4;stroke-dasharray:none;stroke-dashoffset:0;stroke-opacity:1" /></g><g
         transform="matrix(1.0771132,0,0,1.0771132,-42.201443,33.975809)"
         id="g1585"
         style="display:inline;fill:#ffffee;fill-opacity:1"><path
           style="display:inline;fill:#ffffee;fill-opacity:1;stroke:none;stroke-width:0.0944941"
           d="m 157.37942,143.14799 c -2.10833,-1.41187 -3.88513,-4.26631 -4.4837,-7.20304 -0.28674,-1.40685 -0.35069,-2.75903 -0.25007,-5.28701 0.15028,-3.77479 0.49186,-4.94216 1.83767,-6.28015 0.64948,-0.64572 4.67485,-3.49633 5.93805,-4.20511 0.57714,-0.32383 0.56128,-0.32922 0.68475,0.23266 0.066,0.30038 0.72168,0.98045 2.7185,2.8197 0.61125,0.56301 1.31021,1.30701 1.55325,1.65331 0.24304,0.34632 0.45486,0.64707 0.47072,0.66834 0.0159,0.0213 0.27364,-0.19248 0.57286,-0.475 0.75847,-0.71615 1.20011,-1.05978 2.71741,-2.11448 1.49415,-1.0386 2.00522,-1.45365 3.20042,-2.59912 l 0.83809,-0.8032 0.56599,0.61421 c 0.72524,0.78703 1.66526,2.19898 2.14364,3.21979 1.07252,2.28871 1.05769,4.14354 -0.0484,6.04974 -0.87551,1.50885 -2.65113,3.43258 -4.62377,5.00945 l -1.09946,0.87887 0.0639,0.42574 c 0.17435,1.16264 0.89005,2.17926 1.84922,2.62671 0.95038,0.44336 2.1914,0.49416 2.92534,0.11972 0.43441,-0.22161 1.01477,-0.88254 1.11516,-1.26995 0.0914,-0.35244 0.34618,-0.42801 0.42692,-0.1266 0.18383,0.6863 -0.0217,1.12111 -1.01097,2.13873 -1.1077,1.13947 -3.80864,3.13765 -5.50719,4.07427 l -0.38955,0.21481 -0.48756,-0.32835 c -1.46425,-0.98609 -3.17281,-2.79002 -3.83372,-4.04773 l -0.34757,-0.66142 -0.58559,0.54737 c -1.20013,1.1218 -2.48823,1.95869 -4.69153,3.0481 -1.19447,0.59059 -1.66774,0.93091 -1.71965,1.23655 -0.0245,0.14449 -0.0998,0.11997 -0.54314,-0.17693 z m 3.99564,-6.22982 c 0.0899,-2.97498 0.0738,-6.45338 -0.0347,-7.48234 -0.14769,-1.40244 -0.21889,-1.57666 -0.92841,-2.27215 -0.85973,-0.84271 -3.42649,-2.57402 -3.58343,-2.41707 -0.12356,0.12356 -0.0766,7.88605 0.0532,8.7934 0.31395,2.19439 1.08941,3.33726 3.23287,4.76459 0.5457,0.36339 1.03857,0.66253 1.09526,0.66476 0.0696,0.002 0.12318,-0.66387 0.16513,-2.05119 z m 9.37405,-4.31052 c 1.09688,-0.51077 1.73448,-1.95949 1.77305,-4.02857 0.0168,-0.90208 -0.005,-1.0417 -0.23694,-1.53726 -0.14231,-0.30369 -0.4814,-0.77104 -0.76573,-1.05538 -0.51642,-0.51641 -1.55199,-1.24408 -1.64217,-1.1539 -0.027,0.027 -0.0177,1.83776 0.0208,4.02392 0.0787,4.48351 0.002,4.14644 0.85107,3.75119 z"
           id="path1491" /><path
           style="fill:#ffffee;fill-opacity:1;stroke:none;stroke-width:0.133635"
           d="m 180.96829,142.00617 c -1.50566,-1.19649 -1.64888,-1.43451 -1.81585,-3.01781 -0.20482,-1.94227 -0.39263,-5.97534 -0.49161,-10.55714 -0.0659,-3.04846 -0.13064,-4.07948 -0.27035,-4.30301 -0.14851,-0.23762 -0.33063,-0.30167 -0.94998,-0.33409 l -0.76625,-0.0401 2.23346,-1.97971 c 2.06625,-1.83151 2.25324,-1.96585 2.49779,-1.79457 0.42758,0.29949 1.08748,1.18425 1.42479,1.91029 0.56371,1.21336 0.6254,2.30928 0.45849,8.14482 -0.16401,5.73376 -0.0897,7.40879 0.35499,8.00768 0.34308,0.46199 1.23696,1.01327 1.63633,1.00917 0.53701,-0.006 1.24465,-0.39789 2.31436,-1.28325 l 0.98957,-0.81904 0.0883,-3.12319 c 0.17336,-6.13113 0.0788,-9.53438 -0.27462,-9.88784 -0.0789,-0.0789 -0.45892,-0.18266 -0.84458,-0.23068 l -0.70121,-0.0873 2.09841,-1.77787 c 1.15412,-0.97783 2.17504,-1.80727 2.26871,-1.84322 0.23896,-0.0917 1.25071,1.04505 1.59631,1.79354 0.27945,0.60522 0.29122,0.83661 0.37524,7.37339 0.12084,9.40134 0.21764,9.81677 2.17146,9.31916 0.41201,-0.10494 0.74911,-0.1688 0.74911,-0.14193 0,0.0269 -0.15912,0.30326 -0.3536,0.61417 -0.38027,0.60791 -1.77313,2.01569 -3.02834,3.06077 -0.64145,0.53407 -0.82032,0.62246 -1.03124,0.50957 -0.14034,-0.0751 -0.79128,-0.64674 -1.44653,-1.27029 -0.99518,-0.94704 -1.27493,-1.30973 -1.69894,-2.20264 -0.27918,-0.5879 -0.52644,-1.06892 -0.54948,-1.06892 -0.023,0 -1.32211,1.04074 -2.88683,2.31277 -1.56472,1.27202 -2.91342,2.35509 -2.99712,2.40682 -0.0861,0.0532 -0.58607,-0.25074 -1.1508,-0.69952 z"
           id="path1508" /><path
           style="fill:#ffffee;fill-opacity:1;stroke:none;stroke-width:0.133635"
           d="m 198.93905,141.33014 c -0.93043,-0.9863 -1.75107,-2.46888 -2.14688,-3.87857 -0.54587,-1.94415 -0.64437,-3.05838 -0.73838,-8.35218 -0.0995,-5.60401 -0.12794,-5.82067 -0.81123,-6.1828 -0.20891,-0.11071 -0.57603,-0.1516 -0.97976,-0.10914 l -0.64567,0.0679 2.04883,-1.54439 c 1.12686,-0.84941 2.18028,-1.66584 2.34092,-1.81428 l 0.29208,-0.2699 0.38896,0.27696 c 0.67076,0.47762 1.34128,1.3157 1.83153,2.28921 0.38669,0.76786 0.53076,0.93877 0.79132,0.93877 0.43278,0 0.96111,-0.63195 1.86931,-2.23596 l 0.74898,-1.32281 0.65638,0.63267 c 0.96163,0.92689 1.45633,0.92081 2.81788,-0.0346 l 0.73499,-0.51576 0.0411,0.61151 c 0.0519,0.77245 -0.26305,1.73259 -0.77024,2.3479 -0.61291,0.74356 -2.06084,1.4225 -4.12099,1.93234 -0.99591,0.24646 -1.87557,0.51294 -1.95481,0.59218 -0.21877,0.21877 -0.19681,9.91307 0.0241,10.63949 0.33143,1.08987 1.71958,2.1442 3.03492,2.30507 l 0.66966,0.0819 -1.46644,1.26954 c -0.80654,0.69824 -1.92277,1.70551 -2.48051,2.23838 -0.55774,0.53287 -1.07764,0.96885 -1.15533,0.96885 -0.0777,0 -0.53702,-0.41952 -1.02072,-0.93228 z"
           id="path1510" /><path
           style="fill:#ffffee;fill-opacity:1;stroke:none;stroke-width:0.137684"
           d="m 210.40459,141.59587 c -1.4766,-1.40191 -2.7613,-1.90619 -4.00353,-1.5715 -0.34537,0.0931 -0.24811,-0.0484 0.70208,-1.02097 0.7766,-0.79489 1.39878,-1.28415 2.10257,-1.65338 0.95944,-0.50335 1.04125,-0.52127 2.03743,-0.44629 1.18169,0.089 2.04062,0.43205 2.75993,1.10248 0.27053,0.25213 0.51125,0.43396 0.53495,0.40408 0.0237,-0.0299 0.15001,-0.77212 0.28069,-1.64941 0.33558,-2.25288 0.24211,-4.12441 -0.26045,-5.21479 -0.44911,-0.97441 -0.9916,-1.38969 -1.69649,-1.29867 -0.26856,0.0347 -1.29086,0.44397 -2.27179,0.90955 -2.21256,1.05015 -2.68714,1.21566 -3.1658,1.10406 -0.42534,-0.0992 -1.22206,-0.91637 -1.53216,-1.57156 -0.33456,-0.70689 -0.64812,-2.1922 -0.67165,-3.18165 -0.0446,-1.87725 0.9285,-2.91413 5.65745,-6.02787 1.87583,-1.23512 3.59992,-2.26331 3.66344,-2.18474 0.0232,0.0287 0.11538,0.2014 0.2049,0.38385 0.33344,0.67957 1.09798,1.43295 1.54439,1.52185 0.59822,0.11913 0.93164,-0.0139 1.5706,-0.62666 0.50355,-0.48293 0.53287,-0.49372 0.44225,-0.16279 -0.42475,1.55102 -1.67404,3.10446 -3.09297,3.84597 -1.03466,0.54069 -1.49978,0.51884 -3.05332,-0.14343 -1.22318,-0.52145 -1.63477,-0.49414 -2.13899,0.14194 -0.40838,0.5152 -0.53742,1.13787 -0.54084,2.60973 -0.004,1.76428 0.61063,2.61864 1.96295,2.72824 0.61882,0.0501 0.84896,-0.0168 1.84302,-0.53594 1.65609,-0.86492 2.46075,-1.12839 3.44623,-1.12839 0.8096,0 0.89271,0.0308 1.29035,0.47836 0.85667,0.96422 1.41062,3.35642 1.41062,6.09171 0,2.61719 -0.3804,3.08609 -3.877,4.77913 -2.02324,0.97963 -3.43404,1.91267 -4.03124,2.66606 l -0.32208,0.40632 z"
           id="path1512" /><path
           id="path1158-1"
           d="m 150.60233,103.52512 c 0,0 -4.13706,3.28404 -6.71347,3.02637 -2.57641,-0.25767 -5.31903,-3.86503 -5.31903,-3.86503 0,0 -0.67163,3.66034 -9.059,6.18404 -7.7546,2.3333 -11.7993,4.26816 -11.74393,8.0831 0.0554,3.81495 2.60184,9.26658 10.41418,8.49358 8.25083,-1.74418 16.27987,-0.39158 15.62467,8.50306 -0.51283,9.56446 -9.10821,11.83381 -13.93468,8.32274 -4.82647,-3.51107 -7.17179,-9.20376 -11.51074,-9.14346 -4.33895,0.0603 -9.46077,3.31151 -10.37497,8.46488 -0.91422,5.15337 2.32355,10.06336 9.14209,12.62575 3.65684,1.37423 15.65149,2.35685 16.28956,-3.17791 0.63807,-5.53475 -8.06167,-4.12269 -8.06167,-4.12269 0,0 4.53143,1.38684 3.24129,4.12269 -1.29014,2.73585 -8.22747,3.69405 -12.38339,1.03067 -4.15593,-2.66338 -4.49321,-10.06944 -1.82842,-12.79753 2.93324,-3.00291 11.09991,1.05562 14.52587,3.66565 3.42596,2.61004 5.72065,3.10147 8.15392,3.15396 2.43327,0.0525 9.23444,-3.21225 11.81085,-7.42083 2.57641,-4.20859 2.16085,-12.19631 -1.82842,-15.03066 -3.98928,-2.83435 -6.64879,-1.80368 -10.63808,-0.34356 -3.98927,1.46012 -10.47185,0.0859 -11.05362,-5.49693 -0.58177,-5.58281 1.55388,-7.03705 3.82306,-7.64416 2.26918,-0.60711 5.8181,1.74656 9.72386,1.28834 5.44605,-0.63892 8.16096,-2.0997 9.82316,-3.90337 1.6622,-1.80369 1.87691,-4.0187 1.87691,-4.0187 z"
           style="display:inline;fill:#ffffee;fill-opacity:1;stroke:none;stroke-width:0.365352;stroke-linecap:butt;stroke-linejoin:miter;stroke-miterlimit:4;stroke-dasharray:none;stroke-opacity:1" /></g><g
         transform="translate(-9.6458404,31.470781)"
         id="g1656"
         style="display:inline;fill:#ffffee;fill-opacity:1"><path
           transform="matrix(1.1502252,0,0,1.1502252,-22.662119,-25.572287)"
           id="path1587"
           d="m 122.83333,189.32071 c -0.0695,-2.62838 -0.18574,-8.22667 -0.25822,-12.44069 -0.0725,-4.214 -0.1945,-8.09281 -0.27113,-8.61955 l -0.13934,-0.95773 -1.02373,-0.10642 -1.02373,-0.10642 0.81091,-0.75856 c 0.44598,-0.4172 1.39634,-1.25331 2.1119,-1.85803 1.20663,-1.01973 1.32339,-1.07277 1.60952,-0.73125 0.62469,0.74562 1.06538,1.60062 1.74462,3.38477 l 0.69553,1.82693 1.68765,-1.44566 c 0.9282,-0.7951 2.33234,-2.0721 3.12031,-2.83777 l 1.43265,-1.39212 0.65428,0.62685 c 0.35986,0.34477 0.96021,1.24869 1.33411,2.00872 l 0.67984,1.38189 -0.0127,5.32424 c -0.0135,5.65535 -0.25897,8.04514 -0.93933,9.14599 -0.2315,0.3746 -1.15681,1.10449 -2.17309,1.71416 -0.97345,0.58399 -2.23697,1.52429 -2.80782,2.08957 l -1.03793,1.02778 -0.78009,-0.76174 c -0.42905,-0.41896 -0.84789,-0.76175 -0.93075,-0.76175 -0.0829,0 -0.15065,1.06024 -0.15065,2.35607 v 2.35608 l -2.10318,2.15673 -2.10318,2.15673 z m 8.71171,-8.44938 c 0.18248,-1.45877 -0.043,-8.26724 -0.34361,-10.37616 -0.32708,-2.29455 -0.56726,-2.87319 -1.19263,-2.87319 -0.65623,0 -1.28424,0.3144 -2.04458,1.02355 l -0.58527,0.54589 v 5.58464 5.58465 l 0.7981,0.65799 c 0.43896,0.36188 1.17219,0.8431 1.62941,1.06935 1.17693,0.58242 1.54582,0.32425 1.73858,-1.21672 z"
           style="display:inline;fill:#ffffee;fill-opacity:1;stroke:none;stroke-width:0.212829" /><path
           transform="matrix(1.1502252,0,0,1.1502252,-22.662119,-25.572287)"
           id="path1589"
           d="m 140.74051,185.30626 c -1.42519,-1.49414 -2.52726,-3.64676 -3.03466,-5.92742 -0.28199,-1.26748 -0.33132,-2.30341 -0.24434,-5.12953 0.16542,-5.37428 0.41243,-5.81594 4.98601,-8.91524 1.42509,-0.9657 2.62152,-1.75571 2.65876,-1.75555 0.0373,1.6e-4 1.14002,1.02973 2.45064,2.28792 3.22913,3.09993 3.33685,3.34834 3.43371,7.91825 0.11003,5.19055 -0.27628,6.66939 -2.23458,8.55437 -1.32255,1.27303 -3.29402,2.50448 -6.68388,4.17498 -0.0672,0.0331 -0.66647,-0.51038 -1.33166,-1.20778 z m 5.78312,-8.21341 c 0.009,-4.5349 -0.13701,-5.83297 -0.75146,-6.66403 -0.50303,-0.68035 -4.18979,-3.23249 -4.66958,-3.23249 -0.5032,0 -0.31643,10.07058 0.21337,11.50466 0.51774,1.40147 1.49392,2.47351 3.31832,3.64416 l 1.60384,1.02914 0.13857,-1.11885 c 0.0762,-0.61536 0.14233,-2.93852 0.14694,-5.16259 z"
           style="display:inline;fill:#ffffee;fill-opacity:1;stroke:none;stroke-width:0.212829" /><path
           transform="matrix(1.1502252,0,0,1.1502252,-22.662119,-25.572287)"
           id="path1591"
           d="m 155.1612,186.11698 c -0.59736,-0.47217 -1.22444,-1.07299 -1.39353,-1.33515 -0.37483,-0.58115 -0.69177,-4.80458 -0.89475,-11.92297 -0.0866,-3.03631 -0.23081,-5.11492 -0.36047,-5.19506 -0.11888,-0.0734 -0.49057,-0.19012 -0.826,-0.25924 -0.59711,-0.12304 -0.56519,-0.16497 1.52925,-2.00884 1.34988,-1.18839 2.2553,-1.83858 2.45411,-1.76229 0.52222,0.2004 1.54905,2.01902 1.79977,3.18755 0.16183,0.75427 0.18917,3.09077 0.0876,7.48758 -0.1604,6.94236 -0.0878,7.60577 0.91814,8.3971 0.89646,0.70514 1.74844,0.55644 3.20574,-0.55957 l 1.29086,-0.98853 0.14233,-1.93786 c 0.0783,-1.06582 0.11014,-4.07243 0.0707,-6.68134 -0.0778,-5.15895 -0.0738,-5.14306 -1.30939,-5.14979 -0.53902,-0.003 -0.37836,-0.19383 1.59621,-1.89661 2.48889,-2.14633 2.59454,-2.15892 3.57894,-0.42644 0.53161,0.9356 0.53219,0.94284 0.66244,8.38541 0.0975,5.57596 0.20561,7.66306 0.42961,8.30031 0.29745,0.84618 0.30588,0.85127 1.39604,0.84313 0.92517,-0.007 1.06842,0.043 0.91541,0.31924 -0.46659,0.84222 -3.61412,3.83911 -4.0321,3.83911 -0.45634,0 -2.84703,-2.49486 -3.34946,-3.4954 -0.29841,-0.59422 -0.57322,-1.11463 -0.6107,-1.15644 -0.0375,-0.0418 -1.34284,0.9529 -2.90079,2.21047 -1.55794,1.25756 -2.94092,2.37146 -3.07327,2.47532 -0.15527,0.12185 -0.6259,-0.11571 -1.32672,-0.66969 z"
           style="display:inline;fill:#ffffee;fill-opacity:1;stroke:none;stroke-width:0.212829" /><path
           transform="matrix(1.1502252,0,0,1.1502252,-22.662119,-25.572287)"
           id="path1593"
           d="m 174.67787,185.11521 c -2.47235,-1.78315 -2.76214,-2.25743 -2.97896,-4.87532 -0.10023,-1.21068 -0.18649,-4.32767 -0.19159,-6.92666 -0.006,-3.13395 -0.0931,-4.90935 -0.25811,-5.27156 -0.17082,-0.3749 -0.53615,-0.62993 -1.16509,-0.81332 l -0.91626,-0.26716 1.76015,-1.89575 1.76013,-1.89575 0.87977,0.79482 c 0.48389,0.43716 1.18816,1.27538 1.56504,1.86271 l 0.68527,1.06789 -0.14437,5.89102 c -0.16715,6.82162 -0.25791,6.44568 2.01234,8.335 1.63231,1.35842 2.31626,1.65864 2.6716,1.17269 0.38012,-0.51984 0.55271,-4.09168 0.47127,-9.75291 -0.0685,-4.76223 -0.0986,-5.09088 -0.49396,-5.37968 -0.29884,-0.21832 -0.7003,-0.26788 -1.3834,-0.17072 l -0.96238,0.13686 1.73375,-1.72732 c 1.0026,-0.9989 1.91191,-1.72732 2.15623,-1.72732 1.04658,0 2.41011,2.19715 2.96336,4.77505 0.42258,1.969 0.25408,9.21599 -0.25368,10.91097 -0.47175,1.57471 -1.05215,2.14337 -3.54021,3.46856 -1.47096,0.78345 -2.55543,1.54006 -3.27936,2.2879 -0.59487,0.61454 -1.18527,1.11736 -1.31197,1.11736 -0.1267,0 -0.92752,-0.50282 -1.77957,-1.11736 z"
           style="display:inline;fill:#ffffee;fill-opacity:1;stroke:none;stroke-width:0.212829" /><path
           transform="matrix(1.1502252,0,0,1.1502252,-22.662119,-25.572287)"
           id="path1595"
           d="m 189.81887,184.62888 c -1.30163,-1.40593 -2.20487,-3.00639 -2.81799,-4.99321 -0.31919,-1.03432 -0.38923,-1.96651 -0.383,-5.09675 0.012,-6.05606 0.31957,-6.64291 5.2137,-9.94889 l 2.44052,-1.64858 2.37055,2.28706 c 1.37657,1.32809 2.56723,2.67895 2.83965,3.22167 0.70237,1.39936 0.97922,4.49159 0.68685,7.6715 -0.33078,3.59751 -1.01043,4.92708 -3.42447,6.69915 -0.97278,0.71409 -5.26381,3.10442 -5.57293,3.10442 -0.084,0 -0.69276,-0.58337 -1.35288,-1.29637 z m 5.83541,-7.37641 c -5.9e-4,-3.34155 -0.093,-5.81257 -0.23636,-6.33164 -0.138,-0.49948 -0.56899,-1.16973 -1.04286,-1.62178 -0.98293,-0.93763 -4.00299,-2.84948 -4.19612,-2.65634 -0.25298,0.25297 -0.32242,7.43489 -0.0901,9.32205 0.27802,2.25885 0.94549,3.67533 2.2429,4.75983 0.92959,0.77703 2.85616,1.9976 3.16414,2.0046 0.0878,0.002 0.15909,-2.46252 0.15844,-5.47672 z"
           style="display:inline;fill:#ffffee;fill-opacity:1;stroke:none;stroke-width:0.212829" /><path
           transform="matrix(1.1502252,0,0,1.1502252,-22.662119,-25.572287)"
           id="path1597"
           d="m 204.61521,185.2537 c -0.42066,-0.36935 -0.97468,-1.0637 -1.23116,-1.543 -0.45229,-0.84521 -0.46758,-1.09938 -0.50777,-8.43529 -0.0244,-4.45799 -0.12952,-7.79546 -0.25593,-8.12797 -0.17545,-0.46146 -0.36993,-0.57614 -1.06859,-0.63008 l -0.8541,-0.0659 1.60715,-1.75583 c 1.06671,-1.16541 1.76204,-1.75558 2.06776,-1.75505 0.76613,10e-4 1.79824,0.78031 2.31427,1.74669 0.48203,0.90273 0.48676,0.98563 0.42525,7.45943 -0.0787,8.27896 0.18621,10.02684 1.54554,10.19912 0.49618,0.0628 0.40941,0.19494 -1.19825,1.82363 -0.95324,0.9657 -1.81105,1.75583 -1.90625,1.75583 -0.0952,0 -0.51725,-0.30219 -0.93792,-0.67154 z"
           style="display:inline;fill:#ffffee;fill-opacity:1;stroke:none;stroke-width:0.212829" /><path
           id="path1599"
           d="m 213.66723,154.7006 c -0.41915,-1.34188 -1.46199,-2.16771 -2.79682,-1.30673 -1.33483,0.86098 -0.92959,3.1639 0.45511,3.68685 1.3847,0.52295 1.81924,0.82262 1.88981,3.03573 0.98454,-1.35722 0.87105,-4.07397 0.4519,-5.41585 z"
           style="display:inline;fill:#ffffee;fill-opacity:1;stroke:none;stroke-width:0.129171" /><path
           transform="matrix(1.1502252,0,0,1.1502252,-22.662119,-25.572287)"
           id="path1601"
           d="m 213.7508,184.82356 c -0.39968,-0.42378 -0.99755,-1.30968 -1.3286,-1.96866 -1.08573,-2.16125 -1.34101,-3.85447 -1.48342,-9.83871 -0.1434,-6.02635 -0.45192,-6.15103 -1.45801,-6.15103 -1.00609,0 -0.50248,-0.18435 1.46135,-1.68233 1.96383,-1.49798 2.28019,-1.64239 2.58596,-1.47875 0.39813,0.21307 1.28253,1.37725 1.90018,2.50129 0.62967,1.14589 0.92569,0.91711 2.80979,-2.17145 l 0.3639,-0.59655 0.75881,0.66624 c 0.83957,0.73716 1.37245,0.7329 2.42893,-0.0194 0.76413,-0.54412 0.83144,-0.52505 0.83144,0.23546 0,1.82212 -1.5102,3.05227 -4.67516,3.80819 -0.9688,0.23139 -1.82164,0.48067 -1.89519,0.55393 -0.19495,0.19419 -0.2983,7.83819 -0.12794,9.46327 0.13043,1.24436 0.22779,1.46223 0.96881,2.16791 0.5351,0.50959 1.1373,0.84654 1.71831,0.96144 l 0.89451,0.17689 -1.90014,1.68455 c -1.04507,0.92651 -2.02527,1.85862 -2.17824,2.07139 -0.41477,0.57692 -0.867,0.47335 -1.67529,-0.38369 z"
           style="display:inline;fill:#ffffee;fill-opacity:1;stroke:none;stroke-width:0.212829" /></g><g
         transform="matrix(0.69566517,0,0,0.69566517,31.531302,65.308939)"
         id="g1619"
         style="display:inline;fill:#ebebeb;fill-opacity:1"><path
           style="fill:#ebebeb;fill-opacity:1;stroke:none;stroke-width:0.505076"
           d="m 309.52407,509.11039 c -7.26061,-6.9936 -9.09607,-10.39989 -10.13035,-18.80013 -0.62802,-5.10073 0.54611,-21.21861 1.86606,-25.61626 0.88974,-2.96434 2.85951,-4.92839 8.39428,-8.36989 l 3.33547,-2.07399 -1.36748,-3.06384 c -2.83027,-6.34124 -4.53263,-16.94101 -3.51295,-21.87341 0.89111,-4.3104 3.11386,-8.27528 6.87349,-12.26068 1.84248,-1.95313 3.43991,-3.46122 3.54982,-3.35131 0.10992,0.10992 -0.26575,1.8767 -0.83481,3.92618 -2.07434,7.47075 -1.84343,14.99625 0.61026,19.88877 1.54414,3.07893 4.90736,7.62231 9.16006,12.37437 4.68652,5.2368 6.53655,8.59972 8.26518,15.02414 1.20447,4.47639 1.32802,5.80292 1.35259,14.52282 0.046,16.31824 -1.84836,20.39 -12.68574,27.26723 -2.99995,1.90372 -6.40185,4.21823 -7.55977,5.14336 -1.15792,0.92513 -2.2454,1.68206 -2.41664,1.68206 -0.17123,0 -2.376,-1.98874 -4.89947,-4.41942 z m 16.01643,-24.73922 0.38499,-14.25889 -1.78289,-1.65102 c -2.21206,-2.04843 -10.16792,-7.03849 -11.37618,-7.13534 -0.83186,-0.0667 -0.90101,0.9599 -1.0257,15.22637 -0.0847,9.69502 0.055,15.65043 0.38148,16.2605 0.28336,0.52945 3.18458,3.25504 6.44716,6.05687 l 5.93197,5.09422 0.32709,-2.66691 c 0.1799,-1.4668 0.50033,-9.08341 0.71208,-16.9258 z"
           id="path1613"
           transform="matrix(0.26458333,0,0,0.26458333,0,87)" /><path
           style="fill:#ebebeb;fill-opacity:1;stroke:none;stroke-width:0.505076"
           d="m 354.35747,510.08286 c -8.82093,-7.27261 -11.42381,-13.66439 -11.41793,-28.03848 0.003,-8.36603 0.5244,-12.13356 2.1215,-15.34184 1.58471,-3.18339 5.84279,-7.36755 11.26795,-11.07234 2.49581,-1.70436 6.20803,-4.59694 8.24939,-6.42796 l 3.71155,-3.32912 1.69039,2.02325 c 4.70341,5.62962 7.52712,12.45337 7.19968,17.39866 -0.42901,6.47921 -6.88948,14.94898 -17.56241,23.02457 l -1.72643,1.30629 0.65755,2.93824 c 1.28701,5.75098 6.89601,9.45761 13.06887,8.63639 l 2.38123,-0.3168 -2.27285,2.05408 c -2.56228,2.31565 -13.10912,9.58879 -13.89871,9.58459 -0.28281,-0.002 -1.84421,-1.09929 -3.46978,-2.43953 z m 6.64495,-26.62919 c 1.02901,-0.42995 2.38309,-1.26288 3.00907,-1.85096 1.5849,-1.48893 3.10375,-5.8348 3.48939,-9.98413 0.29315,-3.15416 0.18897,-3.77873 -1.05402,-6.31931 -1.31423,-2.6862 -4.34093,-5.53916 -7.72661,-7.2831 l -1.13642,-0.58537 v 13.40229 c 0,14.88528 -0.20351,14.13399 3.41859,12.62058 z"
           id="path1615"
           transform="matrix(0.26458333,0,0,0.26458333,0,87)" /></g><g
         style="display:none;fill:#ebebeb;fill-opacity:1"
         id="g3167"
         transform="translate(3.3943396,87.600248)"><path
           id="path2946"
           d="m 102.0416,110.48935 4.90129,-3.91455 c 0,0 0.37729,1.57594 0.31047,6.25316 -0.0668,4.67721 -0.66818,10.15624 -0.66818,10.15624 0,0 0.80181,-1.87089 1.20272,-4.2095 0.4009,-2.3386 0.66817,-2.60587 0.66817,-2.60587 0,0 0,4.00904 -0.66817,9.88897 -0.66818,5.87993 -2.06509,15.48206 -2.06509,15.48206 0,0 -0.80806,-27.44237 -0.94169,-28.77872 -0.13364,-1.33635 -0.0835,-1.5368 -0.18375,-1.95441 -0.33409,-0.20045 -2.55577,-0.31738 -2.55577,-0.31738 z"
           style="fill:#ebebeb;fill-opacity:1;stroke:none;stroke-width:0.264583px;stroke-linecap:butt;stroke-linejoin:miter;stroke-opacity:1" /><path
           id="path2948"
           d="m 110.60528,112.81287 c 0,0 -0.2052,5.26399 -0.77216,9.27999 -0.56697,4.016 -1.82167,9.79078 -1.82167,9.79078 1.20345,-2.19895 1.95232,-5.19573 2.64108,-6.36132 0,0 0.14174,-11.10305 -0.0473,-12.70945 z"
           style="fill:#ebebeb;fill-opacity:1;stroke:none;stroke-width:0.264583px;stroke-linecap:butt;stroke-linejoin:miter;stroke-opacity:1" /><path
           id="path2950"
           d="m 117.59784,106.10379 c 0,0 -0.85045,5.95313 -1.13393,7.37054 -0.28348,1.41741 -0.37797,2.12611 -0.37797,2.12611 0,0 0.99218,-0.94494 1.74814,-2.97656 0.75595,-2.03162 0.8032,-2.95294 0.8032,-2.95294 0,0 0,5.81139 -0.70871,10.15812 -0.70871,4.34672 -1.65364,7.67763 -1.65364,7.67763 0,0 1.25204,-1.08667 2.14974,-3.1183 0.89769,-2.03162 1.27567,-3.5199 1.27567,-3.5199 0,0 -0.42523,3.35454 -0.70871,4.91369 -0.28348,1.55915 -0.8464,2.81119 -0.8464,2.81119 0,0 1.58614,-0.8371 1.93308,-2.59858 0.73233,-3.42541 0.63784,-13.867 0.59059,-15.02455 -0.0472,-1.15755 -1.18118,-3.26005 -3.07106,-4.86645 z"
           style="fill:#ebebeb;fill-opacity:1;stroke:none;stroke-width:0.264583px;stroke-linecap:butt;stroke-linejoin:miter;stroke-opacity:1" /><path
           id="path2956"
           d="m 125.48202,110.36581 c -0.0664,-0.01 -3.32358,1.82236 -3.23035,6.41581 0.0911,4.48691 -0.22097,7.79576 0.68508,9.68564 0.9045,1.88663 1.13394,2.78757 2.40961,4.15774 1.27567,1.37016 1.46465,1.55915 1.88987,1.93712 0.42523,0.37798 0.37798,0.28349 0.37798,0.28349 -3.29274,-7.93194 -2.53693,-11.46682 -2.43147,-13.11056 -0.65032,0.96979 -0.67593,1.91391 -1.30581,4.14963 -0.20921,-0.82785 -0.21907,-6.34987 -0.0425,-8.16612 0.17657,-1.81625 1.39177,-5.00178 1.64759,-5.35275 z"
           style="fill:#ebebeb;fill-opacity:1;stroke:none;stroke-width:0.264583px;stroke-linecap:butt;stroke-linejoin:miter;stroke-opacity:1" /><path
           id="path2958"
           d="m 126.35167,110.54233 c 0,0 -0.90204,5.14493 -1.33635,6.88219 -0.43431,1.73725 -0.46772,1.73725 -0.46772,1.73725 0,0 1.30294,-2.6727 1.46998,-3.20724 0.16704,-0.53454 0.16704,-1.13589 0.16704,-1.13589 0,0 -0.13363,-2.80633 0.16705,-4.27631 z"
           style="fill:#ebebeb;fill-opacity:1;stroke:none;stroke-width:0.264583px;stroke-linecap:butt;stroke-linejoin:miter;stroke-opacity:1" /><path
           id="path2960"
           d="m 126.68576,123.83898 c 0,0 0.0668,3.57473 0.73499,5.51244 0.66817,1.9377 0.80181,2.10475 0.80181,2.10475 0,0 -0.20046,-1.10249 -0.13364,-2.40543 0.0668,-1.30294 0.30068,-1.87089 0.30068,-1.87089 0,0 0.60135,1.16931 0.63476,2.33861 0.0334,1.16931 0.0334,1.16931 0.0334,1.16931 0,0 1.63703,-0.33409 2.3052,-0.86863 0.66818,-0.53454 0.96885,-0.63477 0.96885,-0.63477 0,0 -3.27405,-2.07133 -4.04245,-2.83973 -0.7684,-0.7684 -1.60361,-2.50566 -1.60361,-2.50566 z"
           style="fill:#ebebeb;fill-opacity:1;stroke:none;stroke-width:0.264583px;stroke-linecap:butt;stroke-linejoin:miter;stroke-opacity:1" /><path
           id="path2962"
           d="m 131.15774,106.48177 c 0,0 1.41741,2.59858 1.70089,4.7247 0.28348,2.12612 0.23624,4.15774 0.23624,4.15774 0,0 0.75595,-0.47247 0.99218,-1.98438 0.23624,-1.5119 0.51972,-2.36235 0.51972,-2.36235 0,0 0.8032,3.16555 0.28348,8.31548 -0.51971,5.14992 -1.13393,6.89806 -1.13393,6.89806 0,0 2.36236,-4.7247 2.64584,-6.18935 0.28348,-1.46466 0.51971,-2.22062 0.51971,-2.22062 0,0 -0.7087,7.2288 -1.08668,8.36273 -0.37797,1.13393 -1.88988,2.97656 -1.88988,2.97656 0,0 3.49628,-1.88988 3.77976,-6.09487 0.28349,-4.20498 0.20553,-8.56544 -0.4134,-10.06361 -0.61894,-1.49817 -4.19542,-4.85728 -6.15393,-6.52009 z"
           style="fill:#ebebeb;fill-opacity:1;stroke:none;stroke-width:0.264583px;stroke-linecap:butt;stroke-linejoin:miter;stroke-opacity:1" /><path
           id="path2964"
           d="m 142.92238,106.56669 c 0,0 0.20045,1.80407 -0.0668,6.61492 -0.26727,4.81085 -1.13589,9.88897 -1.13589,9.88897 1.09471,-1.84431 1.23048,-2.59228 2.08615,-4.60426 0,0 -0.57715,5.87956 -1.49904,9.61303 -0.92189,3.73346 1.29489,4.95038 1.29489,4.95038 0,0 -2.14098,-1.4056 -2.66795,-2.35713 -0.47621,-0.85988 -0.89051,-10.71745 -1.00649,-15.68822 -0.034,-1.45524 -0.2075,-3.46843 -0.26339,-3.75228 -0.0559,-0.28385 -1.33167,-0.28288 -1.45377,-0.60542 -0.1221,-0.32253 4.24459,-3.99317 4.71231,-4.05999 z"
           style="fill:#ebebeb;fill-opacity:1;stroke:none;stroke-width:0.264583px;stroke-linecap:butt;stroke-linejoin:miter;stroke-opacity:1" /><path
           id="path2966"
           d="m 144.41053,107.98777 c 0,0 0.0709,2.88797 -0.21262,5.67555 -0.28348,2.78757 -0.61421,3.82701 -0.61421,3.82701 0,0 1.41742,-5.00819 1.65365,-5.81139 0.23623,-0.8032 0.0798,-1.58154 -0.0945,-2.07887 -0.17434,-0.49733 -0.47296,-1.18358 -0.73232,-1.6123 z"
           style="fill:#ebebeb;fill-opacity:1;stroke:none;stroke-width:0.264583px;stroke-linecap:butt;stroke-linejoin:miter;stroke-opacity:1" /><path
           id="path2968"
           d="m 155.15922,106.8125 c 0,0 0.28349,3.49628 -0.28348,5.90587 -0.56696,2.40961 -1.27567,4.9137 -1.27567,4.9137 0,0 1.18118,-1.13393 1.51191,-2.07887 0.33073,-0.94494 0.75595,-2.03162 0.75595,-2.03162 0,0 0.11811,5.33891 -0.82682,8.5517 -0.94495,3.2128 -2.17337,5.48066 -2.17337,5.48066 0,0 1.53553,-0.42522 2.24424,-1.32292 0.7087,-0.89769 1.03943,-1.37016 1.03943,-1.37016 0,0 -0.28347,2.48047 -0.61421,3.63802 -0.33092,1.15822 -1.27567,2.26786 -1.27567,2.26786 0,0 3.49628,-0.56697 4.48847,-1.22842 0.99219,-0.66146 1.51149,-1.05553 1.51149,-1.05553 0,0 0.0835,-0.16704 -0.65147,-0.16704 -0.73499,0 -1.35305,0.11693 -1.63703,-0.15034 -0.28397,-0.26727 -0.58465,-1.13589 -0.70158,-3.74177 -0.11693,-2.60588 -0.26727,-11.1251 -0.26727,-11.1251 0,0 -0.0167,-4.09256 -0.48442,-4.89437 -0.46773,-0.80181 -0.78328,-1.31246 -1.3605,-1.59167 z"
           style="fill:#ebebeb;fill-opacity:1;stroke:none;stroke-width:0.264583px;stroke-linecap:butt;stroke-linejoin:miter;stroke-opacity:1" /><path
           id="path2956-9"
           d="m 181.95909,109.62824 c -0.0664,-0.01 -3.2409,1.89323 -3.14767,6.48668 0.0911,4.48691 -0.22097,7.79576 0.68508,9.68564 0.9045,1.88663 1.13394,2.78757 2.40961,4.15774 1.27567,1.37016 1.46465,1.55915 1.88987,1.93712 0.42523,0.37798 0.37798,0.28349 0.37798,0.28349 -3.29274,-7.93194 -2.19726,-11.80639 -2.98449,-13.07631 -0.0897,1.03283 -0.18762,1.6403 -0.26897,2.24756 -0.0759,0.56639 -0.14362,0.91217 -0.48382,1.86782 -0.20921,-0.82785 -0.52646,-5.99975 -0.0425,-8.16612 0.48398,-2.16637 1.56489,-5.42362 1.56489,-5.42362 z"
           style="display:inline;fill:#ebebeb;fill-opacity:1;stroke:none;stroke-width:0.264583px;stroke-linecap:butt;stroke-linejoin:miter;stroke-opacity:1" /><path
           id="path2958-3"
           d="m 182.91142,109.87563 c 0,0 -0.90204,5.14493 -1.33635,6.88219 -0.43431,1.73725 -0.46772,1.73725 -0.46772,1.73725 0,0 1.30294,-2.6727 1.46998,-3.20724 0.16704,-0.53454 0.16704,-1.13589 0.16704,-1.13589 0,0 -0.13363,-2.80633 0.16705,-4.27631 z"
           style="display:inline;fill:#ebebeb;fill-opacity:1;stroke:none;stroke-width:0.264583px;stroke-linecap:butt;stroke-linejoin:miter;stroke-opacity:1" /><path
           id="path2960-9"
           d="m 183.24551,123.17228 c 0,0 0.0668,3.57473 0.73499,5.51244 0.66817,1.9377 0.80181,2.10475 0.80181,2.10475 0,0 -0.20046,-1.10249 -0.13364,-2.40543 0.0668,-1.30294 0.30068,-1.87089 0.30068,-1.87089 0,0 0.60135,1.16931 0.63476,2.33861 0.0334,1.16931 0.0334,1.16931 0.0334,1.16931 0,0 1.63703,-0.33409 2.3052,-0.86863 0.66818,-0.53454 0.96885,-0.63477 0.96885,-0.63477 0,0 -3.27405,-2.07133 -4.04245,-2.83973 -0.7684,-0.7684 -1.60361,-2.50566 -1.60361,-2.50566 z"
           style="display:inline;fill:#ebebeb;fill-opacity:1;stroke:none;stroke-width:0.264583px;stroke-linecap:butt;stroke-linejoin:miter;stroke-opacity:1" /><path
           id="path2962-4"
           d="m 187.71749,105.81507 c 0,0 1.41741,2.59858 1.70089,4.7247 0.28348,2.12612 0.23624,4.15774 0.23624,4.15774 0,0 0.75595,-0.47247 0.99218,-1.98438 0.23624,-1.5119 0.51972,-2.36235 0.51972,-2.36235 0,0 0.8032,3.16555 0.28348,8.31548 -0.51971,5.14992 -1.13393,6.89806 -1.13393,6.89806 0,0 2.36236,-4.7247 2.64584,-6.18935 0.28348,-1.46466 0.51971,-2.22062 0.51971,-2.22062 0,0 -0.7087,7.2288 -1.08668,8.36273 -0.37797,1.13393 -1.88988,2.97656 -1.88988,2.97656 0,0 3.49628,-1.88988 3.77976,-6.09487 0.28349,-4.20498 0.20553,-8.56544 -0.4134,-10.06361 -0.61894,-1.49817 -4.19542,-4.85728 -6.15393,-6.52009 z"
           style="display:inline;fill:#ebebeb;fill-opacity:1;stroke:none;stroke-width:0.264583px;stroke-linecap:butt;stroke-linejoin:miter;stroke-opacity:1" /><path
           id="path2994"
           d="m 167.13951,132.47931 c -0.26727,0 -2.98017,-4.27169 -3.063,-6.48485 -0.0828,-2.21317 0.56152,-8.13563 0.62834,-9.67243 0.0668,-1.5368 0.0668,-2.00452 0.0668,-2.00452 0,0 -0.27873,1.90667 -0.9469,3.44347 -0.66818,1.5368 -0.9908,1.76828 -0.9908,1.76828 0,0 0.24865,-3.93535 0.53454,-6.21401 0.28589,-2.27866 -0.60136,-7.34991 -0.60136,-7.34991 l -4.00069,4.36818 c 0,0 1.39481,0.35079 1.75396,0.5763 0.35914,0.22551 0.68487,0.42596 0.7684,1.3447 0.0835,0.91874 0.15869,5.88828 0.15869,5.88828 0,0 0.11693,6.31425 0.16704,7.01583 0.0501,0.70158 0.16705,2.71445 0.7684,3.58308 0.7684,1.27789 3.05113,2.70876 3.66661,3.13206 0.61548,0.4233 0.9761,0.61494 1.08997,0.60554 z"
           style="fill:#ebebeb;fill-opacity:1;stroke:none;stroke-width:0.264583px;stroke-linecap:butt;stroke-linejoin:miter;stroke-opacity:1" /><path
           id="path2996"
           d="m 173.30208,106.52902 c 0,0 1.37016,3.07105 0.99219,4.86644 -0.37798,1.79539 -1.27567,4.91369 -1.27567,4.91369 0,0 1.37016,-0.99219 1.88988,-2.22061 0.51972,-1.22842 0.75595,-1.5119 0.75595,-1.5119 0,0 0.47247,2.69307 -0.37797,5.71688 -0.85045,3.02381 -1.93713,4.96094 -1.93713,4.96094 0,0 2.07887,-1.27567 2.36235,-2.07887 0.28348,-0.80319 0.33073,-1.22842 0.33073,-1.22842 0,0 -0.14174,2.4096 -0.85045,4.53571 -0.7087,2.12612 -3.49628,4.53572 -3.49628,4.53572 0,0 2.33873,-1.08668 3.18918,-1.93713 0.85044,-0.85045 1.77176,-1.32292 1.93713,-4.74832 0.16536,-3.42541 0.37797,-7.29967 0.16536,-8.7407 -0.21261,-1.44104 -1.18118,-6.59096 -3.68527,-7.06343 z"
           style="fill:#ebebeb;fill-opacity:1;stroke:none;stroke-width:0.264583px;stroke-linecap:butt;stroke-linejoin:miter;stroke-opacity:1" /><path
           id="path2998"
           d="m 164.90688,108.10589 c 0,0.18899 0.23915,1.68251 0.13874,2.76985 -0.1004,1.08734 -0.9095,2.97657 -0.9095,2.97657 0,0 1.61821,-1.75995 2.25605,-3.6144 -0.77094,-1.40019 -0.58864,-1.02085 -1.48529,-2.13202 z"
           style="fill:#ebebeb;fill-opacity:1;stroke:none;stroke-width:0.264583px;stroke-linecap:butt;stroke-linejoin:miter;stroke-opacity:1" /><path
           id="path3000"
           d="m 199.33295,105.74818 c 0,0 -0.30067,1.83748 -0.60135,4.64381 -0.30068,2.80633 -0.23386,8.18513 -0.23386,8.18513 0,0 0.63476,-3.24064 1.00226,-3.94222 0.36749,-0.70159 0.63476,-1.00227 0.63476,-1.00227 0,0 -0.66817,10.3567 -0.26727,12.89576 0.40091,2.53906 0.83522,5.51243 0.83522,5.51243 0,0 -0.20045,0.43432 -1.33635,-0.80181 -1.13589,-1.23612 -1.83748,-1.73725 -1.87088,-4.94448 -0.0334,-3.20724 -0.16705,-13.16303 -0.16705,-13.16303 0,0 -0.0501,-2.60587 -0.25056,-2.88985 -0.20045,-0.28397 -0.60136,-0.4009 -1.08579,-0.45102 -0.48442,-0.0501 -1.05237,-0.0501 -1.05237,-0.0501 0,0 2.18827,-2.42213 2.42213,-2.7061 0.23386,-0.28398 1.31964,-1.20271 1.50339,-1.28624 0.18375,-0.0835 0.46772,0 0.46772,0 z"
           style="fill:#ebebeb;fill-opacity:1;stroke:none;stroke-width:0.264583px;stroke-linecap:butt;stroke-linejoin:miter;stroke-opacity:1" /><path
           id="path3002"
           d="m 200.71941,106.36624 c 0,0 -0.26727,3.14042 -0.53454,4.17609 -0.26726,1.03566 -0.63476,2.10474 -0.63476,2.10474 0,0 1.26953,-1.63702 1.50339,-2.3052 0.23386,-0.66817 0.26727,-1.20271 0.26727,-1.20271 0,0 0.30068,6.68174 0,9.05376 -0.30068,2.37201 -0.93544,6.41446 -0.93544,6.41446 0,0 0.83521,-1.63702 1.03567,-2.3052 0.20045,-0.66817 0.23386,-1.13589 0.23386,-1.13589 0,0 -0.33409,4.10927 0.33408,5.17835 0.66818,1.06907 1.40317,1.40316 1.40317,1.40316 0,0 -0.64332,-1.02068 -0.78506,-2.3436 -0.14174,-1.32292 -0.24805,-6.85082 -0.23624,-8.02018 0.0118,-1.16936 0.0472,-4.25223 0.0472,-4.25223 0,0 0.10631,-4.05144 -0.18899,-4.76014 -0.29529,-0.70871 -1.10581,-1.84927 -1.50966,-2.00541 z"
           style="fill:#ebebeb;fill-opacity:1;stroke:none;stroke-width:0.264583px;stroke-linecap:butt;stroke-linejoin:miter;stroke-opacity:1" /><path
           id="path3004"
           d="m 209.54055,106.57626 c 0,0 -1.32292,5.00819 -1.37016,6.52009 -0.0472,1.51191 0.0472,6.23661 0.0472,6.23661 0,0 0.94494,-2.03162 1.13393,-3.16555 0.18899,-1.13393 0.18899,-1.51191 0.18899,-1.51191 0,0 0.23623,2.45685 0.14174,4.86645 -0.0945,2.40959 -0.47247,7.55952 -0.23623,8.78794 0.23623,1.22843 1.32291,3.26005 1.32291,3.26005 0,0 -2.22061,-1.84264 -2.92931,-4.58296 -0.70871,-2.74033 -0.8032,-4.44122 -0.94494,-7.27604 -0.14174,-2.83483 -0.15869,-7.33999 -0.53667,-8.42667 -0.2922,-1.12026 -0.54017,-0.94341 -1.46902,-1.07395 -0.10076,-0.0142 -0.31562,-0.008 -0.34427,-0.10083 -0.0886,-0.23034 1.53525,-1.27282 2.44464,-2.01411 0.90939,-0.74129 1.17013,-1.09827 2.55119,-1.51912 z"
           style="fill:#ebebeb;fill-opacity:1;stroke:none;stroke-width:0.264583px;stroke-linecap:butt;stroke-linejoin:miter;stroke-opacity:1" /><path
           id="path3006"
           d="m 215.6177,106.27211 c 0,0 0.49019,0.96561 -0.0768,2.47752 -0.56696,1.5119 -1.32292,2.07887 -1.32292,2.07887 0,0 2.92932,-1.13393 4.1105,-2.17337 1.18117,-1.03943 1.73633,-2.07296 1.73633,-2.07296 -0.11369,0 -0.30076,0.0767 -0.58582,0.29082 -0.28506,0.21406 -1.37231,0.86631 -1.80935,0.78363 -0.43703,-0.0827 -1.05977,-0.46319 -2.05196,-1.38451 z"
           style="fill:#ebebeb;fill-opacity:1;stroke:none;stroke-width:0.264583px;stroke-linecap:butt;stroke-linejoin:miter;stroke-opacity:1" /><path
           id="path3008"
           d="m 212.60456,112.68884 c 0,0 -0.45937,4.26795 -1.06073,7.30815 -0.60136,3.04019 -1.20271,4.87766 -1.20271,4.87766 0,0 0.63476,-0.86862 0.96885,-1.50339 0.33409,-0.63476 0.46772,-1.23612 0.46772,-1.23612 0,0 0,3.14042 0.56795,3.97564 0.56795,0.83521 4.30972,0.86862 4.30972,0.86862 0,0 -1.78771,-0.13416 -2.80352,-1.07911 -1.01581,-0.94494 -1.3111,-1.48828 -1.38198,-3.36634 -0.0709,-1.87808 0.1347,-9.84511 0.1347,-9.84511 z"
           style="fill:#ebebeb;fill-opacity:1;stroke:none;stroke-width:0.264583px;stroke-linecap:butt;stroke-linejoin:miter;stroke-opacity:1" /></g></g></g></svg>
