<?xml version="1.0" encoding="UTF-8" standalone="no"?>
<!-- Created with Inkscape (http://www.inkscape.org/) -->

<svg
   xmlns:dc="http://purl.org/dc/elements/1.1/"
   xmlns:cc="http://creativecommons.org/ns#"
   xmlns:rdf="http://www.w3.org/1999/02/22-rdf-syntax-ns#"
   xmlns:svg="http://www.w3.org/2000/svg"
   xmlns="http://www.w3.org/2000/svg"
   xmlns:sodipodi="http://sodipodi.sourceforge.net/DTD/sodipodi-0.dtd"
   xmlns:inkscape="http://www.inkscape.org/namespaces/inkscape"
   width="210mm"
   height="297mm"
   viewBox="0 0 210 297"
   version="1.1"
   id="svg6686"
   inkscape:version="0.92.4 (5da689c313, 2019-01-14)"
   sodipodi:docname="carotte_seule.svg">
  <defs
     id="defs6680" />
  <sodipodi:namedview
     id="base"
     pagecolor="#ffffff"
     bordercolor="#666666"
     borderopacity="1.0"
     inkscape:pageopacity="0.0"
     inkscape:pageshadow="2"
     inkscape:zoom="0.35"
     inkscape:cx="-121.42857"
     inkscape:cy="560"
     inkscape:document-units="mm"
     inkscape:current-layer="layer1"
     showgrid="false"
     inkscape:window-width="1920"
     inkscape:window-height="1009"
     inkscape:window-x="-8"
     inkscape:window-y="-8"
     inkscape:window-maximized="1" />
  <metadata
     id="metadata6683">
    <rdf:RDF>
      <cc:Work
         rdf:about="">
        <dc:format>image/svg+xml</dc:format>
        <dc:type
           rdf:resource="http://purl.org/dc/dcmitype/StillImage" />
        <dc:title></dc:title>
      </cc:Work>
    </rdf:RDF>
  </metadata>
  <g
     inkscape:label="Calque 1"
     inkscape:groupmode="layer"
     id="layer1">
    <g
       style="display:inline"
       id="g2873"
       transform="matrix(1.6985752,0,0,1.6985752,-70.258436,-180.00535)">
      <path
         inkscape:connector-curvature="0"
         id="path2710-0"
         d="m 86.008376,152.68647 c 0,0 -5.219032,-2.4359 -6.60321,-1.39534 -1.384176,1.04055 -0.274748,-1.28303 0.397405,-2.76227 0.672138,-1.47923 1.774198,-6.1462 0.277788,-8.51603 -1.496416,-2.36982 -0.379629,-2.35001 -0.379629,-2.35001 0,0 2.880588,1.32928 4.04765,-4.18864 1.167063,-5.51791 1.167063,-5.51791 1.167063,-5.51791 0,0 1.803672,3.22737 4.499646,-0.34618 2.695973,-3.57355 2.89836,-3.783 2.89836,-3.783 0,0 -1.701832,7.63866 -0.682558,8.9349 1.019281,1.29624 2.678211,1.53872 2.678211,1.53872 0,0 -3.917648,2.48675 -3.06088,5.91035 0.856764,3.42359 2.1508,6.00284 2.1508,6.00284 0,0 -2.695983,3.57357 -3.028378,5.48489 -0.332391,1.91131 0.144753,2.98489 0.144753,2.98489 0,0 -2.620572,-4.73303 -4.507021,-1.99721 z"
         style="fill:#b9de24;fill-opacity:1;stroke:none;stroke-width:0.39424568px;stroke-linecap:butt;stroke-linejoin:miter;stroke-opacity:1" />
      <path
         inkscape:connector-curvature="0"
         id="path2710"
         d="m 76.445604,147.51505 c 0,0 -4.083744,0.70898 -4.548403,1.76046 -0.464658,1.05148 -0.638408,-0.55386 -0.769886,-1.56307 -0.131484,-1.00919 -1.168985,-3.81146 -2.952733,-4.46385 -1.78375,-0.65238 -1.093751,-1.06079 -1.093751,-1.06079 0,0 2.248405,-0.39909 0.938629,-3.66136 -1.309777,-3.26228 -1.309777,-3.26228 -1.309777,-3.26228 0,0 2.286023,0.97625 2.623859,-1.86363 0.337833,-2.83988 0.384765,-3.02295 0.384765,-3.02295 0,0 1.760462,4.5484 2.858869,4.82999 1.09841,0.28159 2.201477,-0.21603 2.201477,-0.21603 0,0 -1.483178,2.74137 0.295916,4.17296 1.779091,1.43158 3.515912,2.26703 3.515912,2.26703 0,0 -0.337839,2.83989 0.159775,3.94296 0.497615,1.10306 1.182959,1.47385 1.182959,1.47385 0,0 -3.337501,-1.4409 -3.487611,0.66671 z"
         style="fill:#b9de24;fill-opacity:1;stroke:none;stroke-width:0.26458332px;stroke-linecap:butt;stroke-linejoin:miter;stroke-opacity:1" />
      <path
         style="fill:#fbedcd;fill-opacity:1;stroke:none;stroke-width:0.09449405"
         d="m 80.582455,183.93291 c -1.878068,-0.12254 -4.608896,-0.46666 -4.739465,-0.59723 -0.0736,-0.0736 -1.922243,-14.34449 -1.922322,-14.8397 -3.7e-5,-0.23574 0.02754,-0.26308 0.212569,-0.21076 1.114136,0.31504 3.058747,0.58233 5.2114,0.71631 2.158833,0.13437 6.518658,-0.11671 9.117872,-0.5251 0.488122,-0.0767 0.907301,-0.11963 0.931508,-0.0954 0.03753,0.0375 -0.719926,11.73362 -0.889466,13.73454 l -0.05817,0.68649 -0.435684,0.19383 c -1.774574,0.78952 -4.472831,1.12989 -7.428246,0.93705 z"
         id="path2785"
         inkscape:connector-curvature="0" />
      <g
         transform="matrix(0.4917599,-0.13257035,0.13158928,0.48691137,45.889753,145.26122)"
         id="g2503-8-3">
        <path
           style="fill:#ffffff;fill-opacity:1;stroke:#f0f0f0;stroke-width:0.227;stroke-linecap:butt;stroke-linejoin:miter;stroke-miterlimit:4;stroke-dasharray:none;stroke-opacity:0.8813555"
           d="m 43.106909,67.734814 c -3.414614,-0.779127 -8.30748,2.296594 -8.567182,7.436415 -0.259701,5.139822 0.596215,7.892369 4.994935,8.992678 4.398721,1.100305 7.387811,-3.348959 8.251725,-6.969099 0.863916,-3.620144 -1.264865,-8.680867 -4.679478,-9.459994 z"
           id="path2364-8-4"
           inkscape:connector-curvature="0"
           sodipodi:nodetypes="zzssz" />
        <path
           style="fill:#000000;fill-opacity:1;stroke:none;stroke-width:0.09328166;stroke-linecap:butt;stroke-linejoin:miter;stroke-miterlimit:4;stroke-dasharray:none;stroke-opacity:0.8813555"
           d="m 42.799122,73.205421 c -1.294824,-0.462829 -3.323451,0.678894 -3.636793,2.882142 -0.313343,2.20325 -0.09446,3.42028 1.569541,4.058103 1.664004,0.637823 3.00953,-1.166293 3.494883,-2.692707 0.485355,-1.526417 -0.132809,-3.784709 -1.427631,-4.247538 z"
           id="path2364-3-87-4"
           inkscape:connector-curvature="0"
           sodipodi:nodetypes="zzssz" />
        <path
           style="fill:#0a0803;fill-opacity:1;stroke:none;stroke-width:0.21128559px;stroke-linecap:butt;stroke-linejoin:miter;stroke-opacity:1"
           d="m 42.939554,65.661027 c 0,0 -1.756568,0.245906 -2.159629,0.345085 -0.403062,0.09918 -1.15984,0.289642 -0.857,0.366821 0.302845,0.07717 2.897646,-0.290976 3.365768,-0.242188 0.468121,0.04879 1.863248,0.239808 2.616961,0.911342 0.75371,0.671535 1.063061,1.242225 1.01148,0.812438 -0.05265,-0.438816 -0.356114,-0.744126 -0.634725,-1.092459 -0.278611,-0.348334 -1.668084,-1.337004 -3.342859,-1.101033 z"
           id="path2396-3-6-1-6"
           inkscape:connector-curvature="0"
           sodipodi:nodetypes="czcscscc" />
        <path
           style="fill:#feb487;fill-opacity:1;stroke:none;stroke-width:0.04459774"
           d="M 46.576905,77.717768 C 43.25717,77.310859 38.201318,73.656472 37.411424,73.146971 36.548431,72.589245 36.005696,72.065656 35.615962,71.718157 l -0.152329,-0.07242 0.120775,-0.304686 c 1.228179,-1.857155 3.056836,-3.66297 5.795766,-3.999105 1.5933,-0.195539 2.957817,0.229429 4.134115,1.287533 0.587351,0.528336 1.012679,1.066538 1.415676,1.791376 0.55757,1.002854 1.012402,2.394331 1.175457,3.853582 0.117945,1.750657 -0.260185,2.947947 -0.330315,3.373834 -0.0286,0.173679 -0.03446,0.178794 -0.200417,0.174879 -0.09403,-0.0021 -0.543028,-0.04964 -0.99778,-0.10538 z"
           id="path2477-1-6"
           inkscape:connector-curvature="0"
           sodipodi:nodetypes="cccccscsccccc" />
      </g>
      <g
         transform="matrix(-0.4917599,-0.13257035,-0.13158928,0.48691136,117.52971,145.087)"
         id="g2503-8-3-2">
        <path
           style="fill:#ffffff;fill-opacity:1;stroke:#f0f0f0;stroke-width:0.227;stroke-linecap:butt;stroke-linejoin:miter;stroke-miterlimit:4;stroke-dasharray:none;stroke-opacity:0.8813555"
           d="m 43.106909,67.734814 c -3.414614,-0.779127 -8.30748,2.296594 -8.567182,7.436415 -0.259701,5.139822 0.596215,7.892369 4.994935,8.992678 4.398721,1.100305 7.387811,-3.348959 8.251725,-6.969099 0.863916,-3.620144 -1.264865,-8.680867 -4.679478,-9.459994 z"
           id="path2364-8-4-1"
           inkscape:connector-curvature="0"
           sodipodi:nodetypes="zzssz" />
        <path
           style="fill:#000000;fill-opacity:1;stroke:none;stroke-width:0.09328166;stroke-linecap:butt;stroke-linejoin:miter;stroke-miterlimit:4;stroke-dasharray:none;stroke-opacity:0.8813555"
           d="m 42.799122,73.205421 c -1.294824,-0.462829 -3.323451,0.678894 -3.636793,2.882142 -0.313343,2.20325 -0.09446,3.42028 1.569541,4.058103 1.664004,0.637823 3.00953,-1.166293 3.494883,-2.692707 0.485355,-1.526417 -0.132809,-3.784709 -1.427631,-4.247538 z"
           id="path2364-3-87-4-7"
           inkscape:connector-curvature="0"
           sodipodi:nodetypes="zzssz" />
        <path
           style="fill:#0a0803;fill-opacity:1;stroke:none;stroke-width:0.21128559px;stroke-linecap:butt;stroke-linejoin:miter;stroke-opacity:1"
           d="m 42.939554,65.661027 c 0,0 -1.756568,0.245906 -2.159629,0.345085 -0.403062,0.09918 -1.15984,0.289642 -0.857,0.366821 0.302845,0.07717 2.897646,-0.290976 3.365768,-0.242188 0.468121,0.04879 1.863248,0.239808 2.616961,0.911342 0.75371,0.671535 1.063061,1.242225 1.01148,0.812438 -0.05265,-0.438816 -0.356114,-0.744126 -0.634725,-1.092459 -0.278611,-0.348334 -1.668084,-1.337004 -3.342859,-1.101033 z"
           id="path2396-3-6-1-6-7"
           inkscape:connector-curvature="0"
           sodipodi:nodetypes="czcscscc" />
        <path
           style="fill:#feb487;fill-opacity:1;stroke:none;stroke-width:0.04459774"
           d="M 46.576905,77.717768 C 43.25717,77.310859 38.201318,73.656472 37.411424,73.146971 36.548431,72.589245 36.005696,72.065656 35.615962,71.718157 l -0.152329,-0.07242 0.120775,-0.304686 c 1.228179,-1.857155 3.056836,-3.66297 5.795766,-3.999105 1.5933,-0.195539 2.957817,0.229429 4.134115,1.287533 0.587351,0.528336 1.012679,1.066538 1.415676,1.791376 0.55757,1.002854 1.012402,2.394331 1.175457,3.853582 0.117945,1.750657 -0.260185,2.947947 -0.330315,3.373834 -0.0286,0.173679 -0.03446,0.178794 -0.200417,0.174879 -0.09403,-0.0021 -0.543028,-0.04964 -0.99778,-0.10538 z"
           id="path2477-1-6-9"
           inkscape:connector-curvature="0"
           sodipodi:nodetypes="cccccscsccccc" />
      </g>
      <path
         style="fill:#fc6305;fill-opacity:1;stroke:none;stroke-width:0.09449405"
         d="m 83.724527,236.70807 c -0.34394,-1.03539 -8.070127,-53.69104 -7.902471,-53.85705 0.01963,-0.0194 0.567227,0.0422 1.216871,0.13703 1.963216,0.28652 4.008194,0.40677 5.970831,0.35108 1.996107,-0.0566 2.898632,-0.20369 4.37669,-0.71316 0.463619,-0.1598 0.863722,-0.26977 0.889119,-0.24438 0.158279,0.15828 -2.314125,30.73438 -3.919146,48.46785 -0.537914,5.94325 -0.554059,6.09295 -0.631894,5.85863 z"
         id="path2783"
         inkscape:connector-curvature="0" />
      <path
         style="fill:#fbedcd;fill-opacity:1;stroke:none;stroke-width:0.26458332px;stroke-linecap:butt;stroke-linejoin:miter;stroke-opacity:1"
         d="m 80.581762,217.62095 c 0,0 0.133636,9.08716 -1.069078,15.23436 -1.202714,6.1472 -2.405425,8.95353 -1.603616,8.68626 0.801807,-0.26727 4.610399,-13.89802 4.610399,-13.89802 0,0 -0.334087,-9.6217 -1.937705,-10.0226 z"
         id="path2787"
         inkscape:connector-curvature="0"
         sodipodi:nodetypes="csscc" />
      <path
         style="fill:#fbedcd;fill-opacity:1;stroke:none;stroke-width:0.26458332px;stroke-linecap:butt;stroke-linejoin:miter;stroke-opacity:1"
         d="m 85.630302,217.4118 c 0,0 -0.133636,9.08716 1.069078,15.23436 1.202714,6.1472 2.405425,8.95353 1.603616,8.68626 -0.801807,-0.26727 -4.610399,-13.89802 -4.610399,-13.89802 0,0 0.334087,-9.6217 1.937705,-10.0226 z"
         id="path2787-9"
         inkscape:connector-curvature="0"
         sodipodi:nodetypes="csscc" />
      <path
         inkscape:connector-curvature="0"
         id="path2665"
         d="m 74.045115,168.03234 c 0.924688,-1.92228 3.011171,-3.8546 4.94238,-4.57717 3.67321,-1.37433 7.268206,0.0164 9.955702,3.85151 0.424837,0.60625 0.78046,1.16928 0.790225,1.25115 0.03066,0.25733 -5.295835,0.79795 -8.308141,0.8432 -1.985096,0.0298 -5.192472,-0.28414 -6.639855,-0.64993 -0.963178,-0.24279 -0.967058,-0.24739 -0.740311,-0.71876 z"
         style="fill:#fc6305;fill-opacity:1;stroke:none;stroke-width:0.18581681" />
      <path
         inkscape:connector-curvature="0"
         id="path2663"
         d="m 79.406224,163.99223 c 0,0 -0.835866,-10.95652 -1.142845,-12.378 -0.30697,-1.42148 -7.770469,-15.70758 -7.770469,-15.70758 0,0 9.027985,12.67301 9.519713,17.11514 0.491725,4.44214 0.637202,6.49359 0.637202,6.49359 0,0 0.9433,-10.78813 2.078414,-15.96416 1.135104,-5.17604 3.07791,-9.76138 3.07791,-9.76138 0,0 -1.333422,8.19442 -2.55147,15.93883 -1.218079,7.74442 -1.307888,11.46199 -1.307888,11.46199 0,0 2.069433,-10.69128 3.825382,-14.17355 1.755925,-3.48227 1.755925,-3.48227 1.755925,-3.48227 0,0 -3.290138,11.33746 -3.72374,16.02195 -0.433631,4.68447 -0.528198,5.42754 -0.528198,5.42754 0,0 -3.071381,1.13087 -3.869916,-0.9921 z"
         style="fill:#94b42e;fill-opacity:1;stroke:none;stroke-width:0.52028698px;stroke-linecap:butt;stroke-linejoin:miter;stroke-opacity:1" />
      <path
         sodipodi:nodetypes="czccccccccc"
         inkscape:connector-curvature="0"
         id="path2804"
         d="m 76.742137,187.53356 c 0.236235,0.37798 0.268007,0.72763 0.51022,1.74269 0.242213,1.01506 0.224772,1.86545 0.224772,1.86545 0,0 -2.271792,3.80859 -3.140419,5.0113 -0.868625,1.20271 -0.734992,1.20271 -0.734992,1.20271 0,0 1.80407,0.60136 2.806333,1.1359 1.00226,0.53454 1.804069,0.60136 2.00452,1.13589 0.200451,0.53454 -3.674957,0.13364 -4.944486,-0.0668 -1.269531,-0.20045 -3.741774,-1.46999 -3.608138,-2.07134 0.133633,-0.60136 4.276312,-8.8199 5.078121,-9.42125 1.265914,-0.88436 1.368325,-1.07784 1.804069,-0.53455 z"
         style="fill:#fbedcd;fill-opacity:1;stroke:none;stroke-width:0.26458332px;stroke-linecap:butt;stroke-linejoin:miter;stroke-opacity:1" />
      <path
         sodipodi:nodetypes="czccccccccc"
         inkscape:connector-curvature="0"
         id="path2804-9"
         d="m 87.787721,187.2624 c -0.236235,0.37798 -0.268007,0.72763 -0.51022,1.74269 -0.242213,1.01506 -0.224772,1.86545 -0.224772,1.86545 0,0 2.271792,3.80859 3.140419,5.0113 0.868625,1.20271 0.734992,1.20271 0.734992,1.20271 0,0 -0.953624,0.62498 -1.955887,1.15952 -1.00226,0.53454 -1.804069,0.60136 -2.00452,1.13589 -0.200451,0.53454 2.824511,0.11002 4.09404,-0.0904 1.269531,-0.20045 3.741774,-1.46999 3.608138,-2.07134 -0.133633,-0.60136 -4.276312,-8.8199 -5.078121,-9.42125 -1.265914,-0.88436 -1.368325,-1.07784 -1.804069,-0.53455 z"
         style="fill:#fbedcd;fill-opacity:1;stroke:none;stroke-width:0.26458332px;stroke-linecap:butt;stroke-linejoin:miter;stroke-opacity:1" />
    </g>
    <path
       inkscape:connector-curvature="0"
       id="path2710-7-2-2-2"
       d="m 126.34296,64.154956 c 0,0 -3.81379,0.59588 -4.26302,1.56766 -0.44921,0.97178 -0.58573,-0.525771 -0.69227,-1.467582 -0.10649,-0.941791 -1.02851,-3.56748 -2.67921,-4.203045 -1.65069,-0.635552 -1.00176,-1.004991 -1.00176,-1.004991 0,0 2.09991,-0.336216 0.93165,-3.394542 -1.16825,-3.058324 -1.16825,-3.058324 -1.16825,-3.058324 0,0 2.11328,0.945039 2.47258,-1.694034 0.35927,-2.639071 0.40585,-2.808801 0.40585,-2.808801 0,0 1.56769,4.26301 2.58605,4.542508 1.01836,0.27949 2.05332,-0.166498 2.05332,-0.166498 0,0 -1.42424,2.529306 0.2099,3.890355 1.63407,1.361038 3.23819,2.166328 3.23819,2.166328 0,0 -0.3593,2.63907 0.0868,3.674048 0.44599,1.034952 1.07832,1.391009 1.07832,1.391009 0,0 -3.08506,-1.394246 -3.25801,0.565916 z"
       style="display:inline;fill:#45761c;fill-opacity:1;stroke:none;stroke-width:0.34460256;stroke-linecap:butt;stroke-linejoin:miter;stroke-miterlimit:4;stroke-dasharray:none;stroke-opacity:1" />
    <path
       inkscape:connector-curvature="0"
       id="path2710-0-8-6-0-8"
       d="m 135.28254,69.613246 c 0,0 -4.82143,-2.350387 -6.1267,-1.40325 -1.30527,0.947137 -0.23575,-1.199018 0.41354,-2.565838 0.64915,-1.366836 1.74879,-5.695198 0.39271,-7.925442 -1.3561,-2.230239 -0.31651,-2.194219 -0.31651,-2.194219 0,0 2.66137,1.283118 3.83497,-3.836582 1.17359,-5.119696 1.17359,-5.119696 1.17359,-5.119696 0,0 1.62871,3.033598 4.19533,-0.251516 2.56664,-3.285113 2.7584,-3.47696 2.7584,-3.47696 0,0 -1.70494,7.086039 -0.77623,8.309093 0.92871,1.223053 2.46964,1.474957 2.46964,1.474957 0,0 -3.68713,2.253891 -2.94323,5.455314 0.7439,3.201395 1.90824,5.623472 1.90824,5.623472 0,0 -2.56664,3.285132 -2.90625,5.059633 -0.33959,1.774501 0.0877,2.781692 0.0877,2.781692 0,0 -2.36566,-4.448468 -4.1653,-1.930658 z"
       style="display:inline;fill:#45761c;fill-opacity:1;stroke:none;stroke-width:0.36715892px;stroke-linecap:butt;stroke-linejoin:miter;stroke-opacity:1" />
    <path
       sodipodi:nodetypes="ccsc"
       inkscape:connector-curvature="0"
       id="path4848-84-4"
       d="m 126.40904,103.45257 c 0,0 -3.39482,15.82425 -2.87351,18.08337 0.52134,2.2591 1.04267,1.21643 1.73777,-2.25912 0.69511,-3.47553 1.91154,-8.51506 1.91154,-8.51506"
       style="display:inline;fill:#dea38b;fill-opacity:1;stroke:none;stroke-width:0.34406069px;stroke-linecap:butt;stroke-linejoin:miter;stroke-opacity:1" />
    <path
       sodipodi:nodetypes="ccsc"
       inkscape:connector-curvature="0"
       id="path4848-8-4-3"
       d="m 136.79562,103.54396 c 0,0 3.39482,15.82422 2.87348,18.08334 -0.52133,2.2591 -1.04265,1.21643 -1.73776,-2.25912 -0.69512,-3.47553 -1.91154,-8.51506 -1.91154,-8.51506"
       style="display:inline;fill:#dea38b;fill-opacity:1;stroke:none;stroke-width:0.34406069px;stroke-linecap:butt;stroke-linejoin:miter;stroke-opacity:1" />
    <path
       sodipodi:nodetypes="cscscc"
       inkscape:connector-curvature="0"
       id="path4865-0-9"
       d="m 129.62808,128.35666 c 0,0 -1.38831,7.60049 -1.94126,13.86731 -0.55295,6.2668 -0.73729,9.76886 0,10.01462 0.73728,0.24574 2.0275,-9.0316 2.27326,-10.87479 0.24576,-1.84316 0.61438,-5.28377 0.61438,-5.28377 z"
       style="display:inline;fill:#dea38b;fill-opacity:1;stroke:none;stroke-width:0.34406069px;stroke-linecap:butt;stroke-linejoin:miter;stroke-opacity:1" />
    <path
       sodipodi:nodetypes="cscscc"
       inkscape:connector-curvature="0"
       id="path4865-6-9-6"
       d="m 134.20353,128.50217 c 0,0 1.71414,7.64394 2.26709,13.91076 0.55295,6.26682 0.73726,9.76886 0,10.0146 -0.73728,0.24578 -2.0275,-9.03158 -2.27328,-10.87477 -0.24574,-1.84316 -0.74471,-5.4141 -0.74471,-5.4141 z"
       style="display:inline;fill:#dea38b;fill-opacity:1;stroke:none;stroke-width:0.34406069px;stroke-linecap:butt;stroke-linejoin:miter;stroke-opacity:1" />
    <path
       style="display:inline;fill:#dea38b;fill-opacity:1;stroke:none;stroke-width:0.34460256;stroke-linecap:butt;stroke-linejoin:miter;stroke-miterlimit:4;stroke-dasharray:none;stroke-opacity:1"
       d="m 124.0004,84.388391 c 0.80371,-0.999221 2.39614,-2.150377 6.94265,-2.027497 4.54652,0.122857 7.18778,1.505544 7.55704,2.396139 l -5.28378,53.636597 c 0,0 -0.18429,1.65885 -1.04447,1.72031 -0.86017,0.0614 -1.41312,-2.08893 -1.41312,-2.08893 z"
       id="path4799-4-8"
       inkscape:connector-curvature="0"
       sodipodi:nodetypes="ccccccc" />
    <path
       inkscape:connector-curvature="0"
       id="path2665-7-7-6-3"
       d="m 124.02846,83.835368 c 0.89128,-1.775378 2.86453,-3.541839 4.67418,-4.184277 3.44199,-1.221882 6.76762,0.129735 9.20975,3.743107 0.38603,0.571214 0.70832,1.101064 0.71613,1.177458 0.0247,0.240093 -4.94384,0.659657 -7.74951,0.654368 -1.8489,-0.0047 -4.83053,-0.346324 -6.17252,-0.709724 -0.89306,-0.241232 -0.89662,-0.245572 -0.67803,-0.680932 z"
       style="display:inline;fill:#652e2d;fill-opacity:1;stroke:none;stroke-width:0.34460256;stroke-miterlimit:4;stroke-dasharray:none;stroke-opacity:1" />
    <path
       inkscape:connector-curvature="0"
       id="path2663-9-9-0-3"
       d="m 129.22607,80.486186 c 0,0 -0.60587,-10.215441 -0.86935,-11.54391 -0.26345,-1.328469 -6.98829,-14.748621 -6.98829,-14.748621 0,0 8.20702,11.942738 8.59497,16.086837 0.38795,4.144077 0.49112,6.056614 0.49112,6.056614 0,0 1.0482,-10.030658 2.18664,-14.832508 1.13844,-4.801859 3.0197,-9.040972 3.0197,-9.040972 0,0 -1.37064,7.609339 -2.62675,14.801462 -1.25615,7.19214 -1.39827,10.652391 -1.39827,10.652391 0,0 2.09526,-9.922744 3.78516,-13.13766 1.68985,-3.214922 1.68985,-3.214922 1.68985,-3.214922 0,0 -3.24212,10.505228 -3.7196,14.860415 -0.47753,4.355162 -0.57729,5.045604 -0.57729,5.045604 0,0 -2.87774,1.004677 -3.58789,-0.98473 z"
       style="display:inline;fill:#cfe08b;fill-opacity:1;stroke:none;stroke-width:0.34460256;stroke-linecap:butt;stroke-linejoin:miter;stroke-miterlimit:4;stroke-dasharray:none;stroke-opacity:1" />
    <path
       style="display:inline;fill:#652e2d;fill-opacity:1;stroke:none;stroke-width:0.34406072px;stroke-linecap:butt;stroke-linejoin:miter;stroke-opacity:1"
       d="m 125.62085,98.162939 6.60352,50.221531 5.12643,-50.308432 c 0,0 -3.04109,0.95577 -5.82152,0.868869 -2.78044,-0.08681 -5.90843,-0.781968 -5.90843,-0.781968 z"
       id="path4846-9-9"
       inkscape:connector-curvature="0" />
    <g
       transform="matrix(0.45999489,-0.11570322,0.11486602,0.45546467,98.870328,62.104392)"
       id="g2503-8-3-6-1-9-3"
       style="display:inline;stroke:none">
      <path
         style="fill:#fbf3f3;fill-opacity:1;stroke:none;stroke-width:0.73006094;stroke-linecap:butt;stroke-linejoin:miter;stroke-miterlimit:4;stroke-dasharray:none;stroke-opacity:0.8813555"
         d="m 43.106909,67.734814 c -3.414614,-0.779127 -8.30748,2.296594 -8.567182,7.436415 -0.259701,5.139822 0.596215,7.892369 4.994935,8.992678 4.398721,1.100305 7.387811,-3.348959 8.251725,-6.969099 0.863916,-3.620144 -1.264865,-8.680867 -4.679478,-9.459994 z"
         id="path2364-8-4-5-2-51-8"
         inkscape:connector-curvature="0"
         sodipodi:nodetypes="zzssz" />
      <path
         style="fill:#000000;fill-opacity:1;stroke:none;stroke-width:0.09328166;stroke-linecap:butt;stroke-linejoin:miter;stroke-miterlimit:4;stroke-dasharray:none;stroke-opacity:0.8813555"
         d="m 42.799122,73.205421 c -1.294824,-0.462829 -3.323451,0.678894 -3.636793,2.882142 -0.313343,2.20325 -0.09446,3.42028 1.569541,4.058103 1.664004,0.637823 3.00953,-1.166293 3.494883,-2.692707 0.485355,-1.526417 -0.132809,-3.784709 -1.427631,-4.247538 z"
         id="path2364-3-87-4-70-1-6-8"
         inkscape:connector-curvature="0"
         sodipodi:nodetypes="zzssz" />
      <path
         style="fill:#0a0803;fill-opacity:1;stroke:none;stroke-width:0.21128559px;stroke-linecap:butt;stroke-linejoin:miter;stroke-opacity:1"
         d="m 42.896318,65.077737 c 0,0 -1.756568,0.245906 -2.159629,0.345085 -0.403062,0.09918 -1.15984,0.289642 -0.857,0.366821 0.302845,0.07717 2.897646,-0.290976 3.365768,-0.242188 0.468121,0.04879 1.863248,0.239808 2.616961,0.911342 0.75371,0.671535 1.063061,1.242225 1.01148,0.812438 -0.05265,-0.438816 -0.356114,-0.744126 -0.634725,-1.092459 -0.278611,-0.348334 -1.668084,-1.337004 -3.342859,-1.101033 z"
         id="path2396-3-6-1-6-0-6-1-6"
         inkscape:connector-curvature="0"
         sodipodi:nodetypes="czcscscc" />
      <path
         style="fill:#cf7a57;fill-opacity:1;stroke:none;stroke-width:0.73006094;stroke-miterlimit:4;stroke-dasharray:none;stroke-opacity:1"
         d="M 46.576905,77.717768 C 43.25717,77.310859 37.862204,75.681043 36.938046,75.522138 35.92795,75.347537 35.22611,75.078554 34.733099,74.911635 l -0.168267,-0.0069 -0.0061,-0.328055 c -0.04953,-3.033706 3.823366,-7.36655 6.821447,-7.234783 1.603343,0.07047 2.957817,0.229429 4.134115,1.287533 0.587351,0.528336 1.012679,1.066538 1.415676,1.791376 0.55757,1.002854 1.012402,2.394331 1.175457,3.853582 0.117945,1.750657 -0.260185,2.947947 -0.330315,3.373834 -0.0286,0.173679 -0.03446,0.178794 -0.200417,0.174879 -0.09403,-0.0021 -0.543028,-0.04964 -0.99778,-0.10538 z"
         id="path2477-1-6-0-1-3-54"
         inkscape:connector-curvature="0"
         sodipodi:nodetypes="cccccscsccccc" />
    </g>
    <g
       transform="matrix(-0.45999489,-0.11570322,-0.11486602,0.45546467,163.0686,62.130796)"
       id="g2503-8-3-6-1-9-3-5"
       style="display:inline;stroke:none">
      <path
         style="fill:#fbf3f3;fill-opacity:1;stroke:none;stroke-width:0.73006094;stroke-linecap:butt;stroke-linejoin:miter;stroke-miterlimit:4;stroke-dasharray:none;stroke-opacity:0.8813555"
         d="m 43.106909,67.734814 c -3.414614,-0.779127 -8.30748,2.296594 -8.567182,7.436415 -0.259701,5.139822 0.596215,7.892369 4.994935,8.992678 4.398721,1.100305 7.387811,-3.348959 8.251725,-6.969099 0.863916,-3.620144 -1.264865,-8.680867 -4.679478,-9.459994 z"
         id="path2364-8-4-5-2-51-8-4"
         inkscape:connector-curvature="0"
         sodipodi:nodetypes="zzssz" />
      <path
         style="fill:#000000;fill-opacity:1;stroke:none;stroke-width:0.09328166;stroke-linecap:butt;stroke-linejoin:miter;stroke-miterlimit:4;stroke-dasharray:none;stroke-opacity:0.8813555"
         d="m 42.799122,73.205421 c -1.294824,-0.462829 -3.323451,0.678894 -3.636793,2.882142 -0.313343,2.20325 -0.09446,3.42028 1.569541,4.058103 1.664004,0.637823 3.00953,-1.166293 3.494883,-2.692707 0.485355,-1.526417 -0.132809,-3.784709 -1.427631,-4.247538 z"
         id="path2364-3-87-4-70-1-6-8-0"
         inkscape:connector-curvature="0"
         sodipodi:nodetypes="zzssz" />
      <path
         style="fill:#0a0803;fill-opacity:1;stroke:none;stroke-width:0.21128559px;stroke-linecap:butt;stroke-linejoin:miter;stroke-opacity:1"
         d="m 42.896318,65.077737 c 0,0 -1.756568,0.245906 -2.159629,0.345085 -0.403062,0.09918 -1.15984,0.289642 -0.857,0.366821 0.302845,0.07717 2.897646,-0.290976 3.365768,-0.242188 0.468121,0.04879 1.863248,0.239808 2.616961,0.911342 0.75371,0.671535 1.063061,1.242225 1.01148,0.812438 -0.05265,-0.438816 -0.356114,-0.744126 -0.634725,-1.092459 -0.278611,-0.348334 -1.668084,-1.337004 -3.342859,-1.101033 z"
         id="path2396-3-6-1-6-0-6-1-6-7"
         inkscape:connector-curvature="0"
         sodipodi:nodetypes="czcscscc" />
      <path
         style="fill:#cf7a57;fill-opacity:1;stroke:none;stroke-width:0.73006094;stroke-miterlimit:4;stroke-dasharray:none;stroke-opacity:1"
         d="M 46.576905,77.717768 C 43.25717,77.310859 37.862204,75.681043 36.938046,75.522138 35.92795,75.347537 35.22611,75.078554 34.733099,74.911635 l -0.168267,-0.0069 -0.0061,-0.328055 c -0.04953,-3.033706 3.823366,-7.36655 6.821447,-7.234783 1.603343,0.07047 2.957817,0.229429 4.134115,1.287533 0.587351,0.528336 1.012679,1.066538 1.415676,1.791376 0.55757,1.002854 1.012402,2.394331 1.175457,3.853582 0.117945,1.750657 -0.260185,2.947947 -0.330315,3.373834 -0.0286,0.173679 -0.03446,0.178794 -0.200417,0.174879 -0.09403,-0.0021 -0.543028,-0.04964 -0.99778,-0.10538 z"
         id="path2477-1-6-0-1-3-54-1"
         inkscape:connector-curvature="0"
         sodipodi:nodetypes="cccccscsccccc" />
    </g>
    <path
       inkscape:connector-curvature="0"
       id="path2710-7-2-2-2-4"
       d="m 162.52999,126.43772 c 0,0 -3.81378,0.59588 -4.26302,1.56766 -0.44921,0.9718 -0.58573,-0.52577 -0.69227,-1.46757 -0.10649,-0.9418 -1.02853,-3.5675 -2.6792,-4.20306 -1.6507,-0.63554 -1.00176,-1.00499 -1.00176,-1.00499 0,0 2.0999,-0.33622 0.93165,-3.39455 -1.16828,-3.05831 -1.16828,-3.05831 -1.16828,-3.05831 0,0 2.1133,0.94503 2.4726,-1.69405 0.35928,-2.63906 0.40586,-2.80878 0.40586,-2.80878 0,0 1.56768,4.263 2.58604,4.54251 1.01836,0.27949 2.05333,-0.1665 2.05333,-0.1665 0,0 -1.42424,2.52929 0.2099,3.89035 1.63407,1.36103 3.23818,2.16631 3.23818,2.16631 0,0 -0.3593,2.63908 0.0868,3.67404 0.44598,1.03497 1.07832,1.39104 1.07832,1.39104 0,0 -3.08507,-1.39426 -3.25804,0.5659 z"
       style="display:inline;fill:#4d6417;fill-opacity:1;stroke:none;stroke-width:0.34460256;stroke-linecap:butt;stroke-linejoin:miter;stroke-miterlimit:4;stroke-dasharray:none;stroke-opacity:1" />
    <path
       inkscape:connector-curvature="0"
       id="path2710-0-8-6-0-8-3"
       d="m 171.46955,131.89601 c 0,0 -4.8214,-2.35036 -6.12668,-1.40325 -1.30527,0.94714 -0.23551,-1.19902 0.41352,-2.56586 0.64917,-1.36682 1.74881,-5.69518 0.39274,-7.92542 -1.3561,-2.23025 -0.31651,-2.1942 -0.31651,-2.1942 0,0 2.66137,1.28312 3.83496,-3.8366 1.17357,-5.1197 1.17357,-5.1197 1.17357,-5.1197 0,0 1.62871,3.03359 4.19535,-0.25153 2.56665,-3.28509 2.75841,-3.47695 2.75841,-3.47695 0,0 -1.70492,7.08605 -0.77623,8.3091 0.92871,1.22307 2.46963,1.47497 2.46963,1.47497 0,0 -3.68713,2.25388 -2.94323,5.4553 0.74391,3.2014 1.90827,5.62346 1.90827,5.62346 0,0 -2.56667,3.28515 -2.90628,5.05965 -0.33959,1.77452 0.0878,2.78169 0.0878,2.78169 0,0 -2.36566,-4.44844 -4.16531,-1.93066 z"
       style="display:inline;fill:#4d6417;fill-opacity:1;stroke:none;stroke-width:0.36715892px;stroke-linecap:butt;stroke-linejoin:miter;stroke-opacity:1" />
    <path
       sodipodi:nodetypes="ccsc"
       inkscape:connector-curvature="0"
       id="path4848-84-4-9"
       d="m 162.59607,165.73534 c 0,0 -3.39484,15.82424 -2.8735,18.08337 0.52133,2.25909 1.04267,1.21642 1.73776,-2.25913 0.69511,-3.47552 1.91154,-8.51506 1.91154,-8.51506"
       style="display:inline;fill:#fbf2c4;fill-opacity:1;stroke:none;stroke-width:0.34406069px;stroke-linecap:butt;stroke-linejoin:miter;stroke-opacity:1" />
    <path
       sodipodi:nodetypes="ccsc"
       inkscape:connector-curvature="0"
       id="path4848-8-4-3-1"
       d="m 172.98266,165.82672 c 0,0 3.39481,15.82425 2.87348,18.08335 -0.52134,2.25909 -1.04265,1.21642 -1.73777,-2.2591 -0.69511,-3.47555 -1.91154,-8.51509 -1.91154,-8.51509"
       style="display:inline;fill:#fbf2c4;fill-opacity:1;stroke:none;stroke-width:0.34406069px;stroke-linecap:butt;stroke-linejoin:miter;stroke-opacity:1" />
    <path
       sodipodi:nodetypes="cscscc"
       inkscape:connector-curvature="0"
       id="path4865-0-9-1"
       d="m 165.81511,190.63943 c 0,0 -1.3883,7.60049 -1.94128,13.86731 -0.55293,6.26683 -0.73726,9.76887 0,10.01463 0.73728,0.24576 2.02752,-9.0316 2.27328,-10.87479 0.24576,-1.84316 0.61438,-5.28378 0.61438,-5.28378 z"
       style="display:inline;fill:#fbf2c4;fill-opacity:1;stroke:none;stroke-width:0.34406069px;stroke-linecap:butt;stroke-linejoin:miter;stroke-opacity:1" />
    <path
       sodipodi:nodetypes="cscscc"
       inkscape:connector-curvature="0"
       id="path4865-6-9-6-4"
       d="m 170.39054,190.78493 c 0,0 1.71416,7.64395 2.26709,13.91077 0.55298,6.2668 0.73729,9.76887 0,10.01463 -0.73726,0.24576 -2.02749,-9.03161 -2.27323,-10.87477 -0.24576,-1.84319 -0.74473,-5.41413 -0.74473,-5.41413 z"
       style="display:inline;fill:#fbf2c4;fill-opacity:1;stroke:none;stroke-width:0.34406069px;stroke-linecap:butt;stroke-linejoin:miter;stroke-opacity:1" />
    <path
       style="display:inline;fill:#fbf2c4;fill-opacity:1;stroke:none;stroke-width:0.34460256;stroke-linecap:butt;stroke-linejoin:miter;stroke-miterlimit:4;stroke-dasharray:none;stroke-opacity:1"
       d="m 160.18743,146.67116 c 0.80372,-0.99923 2.39614,-2.15038 6.94266,-2.0275 4.54651,0.12286 7.18775,1.50554 7.55703,2.39614 l -5.28378,53.6366 c 0,0 -0.18428,1.65886 -1.04447,1.72031 -0.86016,0.0614 -1.41312,-2.08892 -1.41312,-2.08892 z"
       id="path4799-4-8-2"
       inkscape:connector-curvature="0"
       sodipodi:nodetypes="ccccccc" />
    <path
       inkscape:connector-curvature="0"
       id="path2665-7-7-6-3-2"
       d="m 160.21547,146.11813 c 0.8913,-1.77538 2.86456,-3.54184 4.67421,-4.18427 3.44199,-1.22189 6.76762,0.12973 9.20974,3.7431 0.38603,0.57122 0.70833,1.10107 0.71613,1.17746 0.0247,0.24009 -4.94383,0.65966 -7.7495,0.65437 -1.8489,-0.005 -4.83056,-0.34632 -6.17255,-0.70972 -0.89303,-0.24124 -0.89659,-0.24558 -0.67803,-0.68094 z"
       style="display:inline;fill:#ffc538;fill-opacity:1;stroke:none;stroke-width:0.34460256;stroke-miterlimit:4;stroke-dasharray:none;stroke-opacity:1" />
    <path
       inkscape:connector-curvature="0"
       id="path2663-9-9-0-3-7"
       d="m 165.41308,142.76895 c 0,0 -0.60584,-10.21546 -0.86932,-11.54391 -0.26346,-1.32847 -6.98829,-14.7486 -6.98829,-14.7486 0,0 8.20701,11.94272 8.59496,16.08682 0.38795,4.14407 0.49112,6.05659 0.49112,6.05659 0,0 1.0482,-10.03064 2.18664,-14.8325 1.13845,-4.80186 3.0197,-9.04097 3.0197,-9.04097 0,0 -1.37064,7.60936 -2.62674,14.80147 -1.25613,7.19214 -1.39827,10.65237 -1.39827,10.65237 0,0 2.09528,-9.92272 3.78513,-13.13764 1.68988,-3.21491 1.68988,-3.21491 1.68988,-3.21491 0,0 -3.24212,10.50522 -3.7196,14.86041 -0.47753,4.35516 -0.57729,5.0456 -0.57729,5.0456 0,0 -2.87777,1.00468 -3.5879,-0.98473 z"
       style="display:inline;fill:#baae49;fill-opacity:1;stroke:none;stroke-width:0.34460256;stroke-linecap:butt;stroke-linejoin:miter;stroke-miterlimit:4;stroke-dasharray:none;stroke-opacity:1" />
    <path
       style="display:inline;fill:#ffc538;fill-opacity:1;stroke:none;stroke-width:0.34406072px;stroke-linecap:butt;stroke-linejoin:miter;stroke-opacity:1"
       d="m 161.80789,160.4457 6.60354,50.22154 5.12641,-50.30844 c 0,0 -3.04109,0.95577 -5.82153,0.8689 -2.78043,-0.0868 -5.90842,-0.782 -5.90842,-0.782 z"
       id="path4846-9-9-6"
       inkscape:connector-curvature="0" />
    <g
       transform="matrix(0.45999489,-0.11570322,0.11486602,0.45546467,135.05736,124.38715)"
       id="g2503-8-3-6-1-9-3-0"
       style="display:inline;stroke:none">
      <path
         style="fill:#f5f5f5;fill-opacity:1;stroke:none;stroke-width:0.73006094;stroke-linecap:butt;stroke-linejoin:miter;stroke-miterlimit:4;stroke-dasharray:none;stroke-opacity:0.8813555"
         d="m 43.106909,67.734814 c -3.414614,-0.779127 -8.30748,2.296594 -8.567182,7.436415 -0.259701,5.139822 0.596215,7.892369 4.994935,8.992678 4.398721,1.100305 7.387811,-3.348959 8.251725,-6.969099 0.863916,-3.620144 -1.264865,-8.680867 -4.679478,-9.459994 z"
         id="path2364-8-4-5-2-51-8-7"
         inkscape:connector-curvature="0"
         sodipodi:nodetypes="zzssz" />
      <path
         style="fill:#000000;fill-opacity:1;stroke:none;stroke-width:0.09328166;stroke-linecap:butt;stroke-linejoin:miter;stroke-miterlimit:4;stroke-dasharray:none;stroke-opacity:0.8813555"
         d="m 42.799122,73.205421 c -1.294824,-0.462829 -3.323451,0.678894 -3.636793,2.882142 -0.313343,2.20325 -0.09446,3.42028 1.569541,4.058103 1.664004,0.637823 3.00953,-1.166293 3.494883,-2.692707 0.485355,-1.526417 -0.132809,-3.784709 -1.427631,-4.247538 z"
         id="path2364-3-87-4-70-1-6-8-5"
         inkscape:connector-curvature="0"
         sodipodi:nodetypes="zzssz" />
      <path
         style="fill:#0a0803;fill-opacity:1;stroke:none;stroke-width:0.21128559px;stroke-linecap:butt;stroke-linejoin:miter;stroke-opacity:1"
         d="m 42.896318,65.077737 c 0,0 -1.756568,0.245906 -2.159629,0.345085 -0.403062,0.09918 -1.15984,0.289642 -0.857,0.366821 0.302845,0.07717 2.897646,-0.290976 3.365768,-0.242188 0.468121,0.04879 1.863248,0.239808 2.616961,0.911342 0.75371,0.671535 1.063061,1.242225 1.01148,0.812438 -0.05265,-0.438816 -0.356114,-0.744126 -0.634725,-1.092459 -0.278611,-0.348334 -1.668084,-1.337004 -3.342859,-1.101033 z"
         id="path2396-3-6-1-6-0-6-1-6-8"
         inkscape:connector-curvature="0"
         sodipodi:nodetypes="czcscscc" />
      <path
         style="fill:#e7d991;fill-opacity:1;stroke:none;stroke-width:0.73006094;stroke-miterlimit:4;stroke-dasharray:none;stroke-opacity:1"
         d="M 46.576905,77.717768 C 43.25717,77.310859 37.862204,75.681043 36.938046,75.522138 35.92795,75.347537 35.22611,75.078554 34.733099,74.911635 l -0.168267,-0.0069 -0.0061,-0.328055 c -0.04953,-3.033706 3.823366,-7.36655 6.821447,-7.234783 1.603343,0.07047 2.957817,0.229429 4.134115,1.287533 0.587351,0.528336 1.012679,1.066538 1.415676,1.791376 0.55757,1.002854 1.012402,2.394331 1.175457,3.853582 0.117945,1.750657 -0.260185,2.947947 -0.330315,3.373834 -0.0286,0.173679 -0.03446,0.178794 -0.200417,0.174879 -0.09403,-0.0021 -0.543028,-0.04964 -0.99778,-0.10538 z"
         id="path2477-1-6-0-1-3-54-4"
         inkscape:connector-curvature="0"
         sodipodi:nodetypes="cccccscsccccc" />
    </g>
    <g
       transform="matrix(-0.45999489,-0.11570322,-0.11486602,0.45546467,199.25565,124.41357)"
       id="g2503-8-3-6-1-9-3-5-8"
       style="display:inline;stroke:none">
      <path
         style="fill:#f5f5f5;fill-opacity:1;stroke:none;stroke-width:0.73006094;stroke-linecap:butt;stroke-linejoin:miter;stroke-miterlimit:4;stroke-dasharray:none;stroke-opacity:0.8813555"
         d="m 43.106909,67.734814 c -3.414614,-0.779127 -8.30748,2.296594 -8.567182,7.436415 -0.259701,5.139822 0.596215,7.892369 4.994935,8.992678 4.398721,1.100305 7.387811,-3.348959 8.251725,-6.969099 0.863916,-3.620144 -1.264865,-8.680867 -4.679478,-9.459994 z"
         id="path2364-8-4-5-2-51-8-4-4"
         inkscape:connector-curvature="0"
         sodipodi:nodetypes="zzssz" />
      <path
         style="fill:#000000;fill-opacity:1;stroke:none;stroke-width:0.09328166;stroke-linecap:butt;stroke-linejoin:miter;stroke-miterlimit:4;stroke-dasharray:none;stroke-opacity:0.8813555"
         d="m 42.799122,73.205421 c -1.294824,-0.462829 -3.323451,0.678894 -3.636793,2.882142 -0.313343,2.20325 -0.09446,3.42028 1.569541,4.058103 1.664004,0.637823 3.00953,-1.166293 3.494883,-2.692707 0.485355,-1.526417 -0.132809,-3.784709 -1.427631,-4.247538 z"
         id="path2364-3-87-4-70-1-6-8-0-5"
         inkscape:connector-curvature="0"
         sodipodi:nodetypes="zzssz" />
      <path
         style="fill:#0a0803;fill-opacity:1;stroke:none;stroke-width:0.21128559px;stroke-linecap:butt;stroke-linejoin:miter;stroke-opacity:1"
         d="m 42.896318,65.077737 c 0,0 -1.756568,0.245906 -2.159629,0.345085 -0.403062,0.09918 -1.15984,0.289642 -0.857,0.366821 0.302845,0.07717 2.897646,-0.290976 3.365768,-0.242188 0.468121,0.04879 1.863248,0.239808 2.616961,0.911342 0.75371,0.671535 1.063061,1.242225 1.01148,0.812438 -0.05265,-0.438816 -0.356114,-0.744126 -0.634725,-1.092459 -0.278611,-0.348334 -1.668084,-1.337004 -3.342859,-1.101033 z"
         id="path2396-3-6-1-6-0-6-1-6-7-0"
         inkscape:connector-curvature="0"
         sodipodi:nodetypes="czcscscc" />
      <path
         style="fill:#e7d991;fill-opacity:1;stroke:none;stroke-width:0.73006094;stroke-miterlimit:4;stroke-dasharray:none;stroke-opacity:1"
         d="M 46.576905,77.717768 C 43.25717,77.310859 37.862204,75.681043 36.938046,75.522138 35.92795,75.347537 35.22611,75.078554 34.733099,74.911635 l -0.168267,-0.0069 -0.0061,-0.328055 c -0.04953,-3.033706 3.823366,-7.36655 6.821447,-7.234783 1.603343,0.07047 2.957817,0.229429 4.134115,1.287533 0.587351,0.528336 1.012679,1.066538 1.415676,1.791376 0.55757,1.002854 1.012402,2.394331 1.175457,3.853582 0.117945,1.750657 -0.260185,2.947947 -0.330315,3.373834 -0.0286,0.173679 -0.03446,0.178794 -0.200417,0.174879 -0.09403,-0.0021 -0.543028,-0.04964 -0.99778,-0.10538 z"
         id="path2477-1-6-0-1-3-54-1-5"
         inkscape:connector-curvature="0"
         sodipodi:nodetypes="cccccscsccccc" />
    </g>
  </g>
</svg>
