<?xml version="1.0" encoding="UTF-8" standalone="no"?>
<!-- Created with Inkscape (http://www.inkscape.org/) -->

<svg
   xmlns:dc="http://purl.org/dc/elements/1.1/"
   xmlns:cc="http://creativecommons.org/ns#"
   xmlns:rdf="http://www.w3.org/1999/02/22-rdf-syntax-ns#"
   xmlns:svg="http://www.w3.org/2000/svg"
   xmlns="http://www.w3.org/2000/svg"
   xmlns:sodipodi="http://sodipodi.sourceforge.net/DTD/sodipodi-0.dtd"
   xmlns:inkscape="http://www.inkscape.org/namespaces/inkscape"
   width="210mm"
   height="297mm"
   viewBox="0 0 210 297"
   version="1.1"
   id="svg11354"
   inkscape:version="0.92.4 (5da689c313, 2019-01-14)"
   sodipodi:docname="citrouille_turnaround.svg">
  <defs
     id="defs11348" />
  <sodipodi:namedview
     id="base"
     pagecolor="#ffffff"
     bordercolor="#666666"
     borderopacity="1.0"
     inkscape:pageopacity="0.0"
     inkscape:pageshadow="2"
     inkscape:zoom="0.35"
     inkscape:cx="-121.42857"
     inkscape:cy="560"
     inkscape:document-units="mm"
     inkscape:current-layer="layer1"
     showgrid="false"
     inkscape:window-width="1920"
     inkscape:window-height="1009"
     inkscape:window-x="-8"
     inkscape:window-y="-8"
     inkscape:window-maximized="1" />
  <metadata
     id="metadata11351">
    <rdf:RDF>
      <cc:Work
         rdf:about="">
        <dc:format>image/svg+xml</dc:format>
        <dc:type
           rdf:resource="http://purl.org/dc/dcmitype/StillImage" />
        <dc:title></dc:title>
      </cc:Work>
    </rdf:RDF>
  </metadata>
  <g
     inkscape:label="Calque 1"
     inkscape:groupmode="layer"
     id="layer1">
    <path
       style="display:inline;fill:none;stroke:#a9a9a9;stroke-width:0.3543644px;stroke-linecap:butt;stroke-linejoin:miter;stroke-opacity:1"
       d="M 11.331066,28.610741 H 202.60345"
       id="path3233-95-1"
       inkscape:connector-curvature="0" />
    <path
       style="display:inline;fill:none;stroke:#a9a9a9;stroke-width:0.3543644px;stroke-linecap:butt;stroke-linejoin:miter;stroke-opacity:1"
       d="M 11.176321,70.802992 H 202.44872"
       id="path3233-1-4-7-4"
       inkscape:connector-curvature="0" />
    <path
       style="display:inline;fill:none;stroke:#a9a9a9;stroke-width:0.3543644px;stroke-linecap:butt;stroke-linejoin:miter;stroke-opacity:1"
       d="M 11.795316,59.060179 H 203.06772"
       id="path3233-1-4-1-6-3"
       inkscape:connector-curvature="0" />
    <path
       style="display:inline;fill:none;stroke:#a9a9a9;stroke-width:0.3543644px;stroke-linecap:butt;stroke-linejoin:miter;stroke-opacity:1"
       d="M 11.331066,44.067585 H 202.60348"
       id="path3233-1-4-1-2-9-2"
       inkscape:connector-curvature="0" />
    <path
       style="display:inline;fill:none;stroke:#a9a9a9;stroke-width:0.3543644px;stroke-linecap:butt;stroke-linejoin:miter;stroke-opacity:1"
       d="M 11.48581,23.212731 H 202.75823"
       id="path3233-1-50-4"
       inkscape:connector-curvature="0" />
    <path
       style="display:inline;fill:none;stroke:#a9a9a9;stroke-width:0.3543644px;stroke-linecap:butt;stroke-linejoin:miter;stroke-opacity:1"
       d="M 10.866816,14.410195 H 202.13922"
       id="path3233-1-50-4-7"
       inkscape:connector-curvature="0" />
    <g
       id="g9944"
       transform="matrix(1.5373228,0,0,1.5373228,-115.3327,-356.19557)">
      <path
         sodipodi:nodetypes="scccssccsccsccscsccccs"
         inkscape:connector-curvature="0"
         id="path2976-0"
         d="m 100.96453,261.54748 c -3.170761,-0.2362 -6.13026,-0.7985 -9.466451,-1.79863 -0.743788,-0.22297 -1.628965,-0.51216 -1.96705,-0.64266 l -0.614704,-0.23726 -0.02692,-0.60479 c -0.03588,-0.80654 0.129343,-4.30582 0.278152,-5.89125 0.153771,-1.63823 -0.03195,-0.47294 0.191613,-0.87725 0.451187,-0.81607 1.426785,-2.23403 3.511728,-2.8511 2.320328,-0.41042 3.544799,-0.51017 3.544799,-0.4241 0,0.14176 0.991311,1.09247 1.502072,1.44056 0.54582,0.37198 1.614572,0.86177 2.350081,1.07699 1.51216,0.44249 6.87374,0.21396 8.92832,-0.38055 1.05496,-0.30526 2.48042,-1.20323 2.95163,-1.85938 l 0.26367,-0.36716 0.91532,0.19786 c 5.78075,1.24961 6.47747,2.96378 7.21291,3.65738 0.50693,0.4781 0.52528,0.0838 0.59946,4.4438 l 0.053,3.11451 -0.23758,0.0954 c -0.13066,0.0525 -0.51784,0.20778 -0.86041,0.34512 -1.90232,0.76268 -3.99288,1.16317 -7.57321,1.45078 -1.90847,0.15331 -9.95405,0.2311 -11.55645,0.11174 z"
         style="display:inline;fill:#000000;fill-opacity:1;stroke:none;stroke-width:0.08196055" />
      <path
         inkscape:connector-curvature="0"
         id="path2910-3"
         d="m 101.09293,250.92206 c -1.726299,-0.28587 -3.505704,-1.21443 -4.442909,-2.31849 l -0.313663,-0.3695 c 0,0 0.07278,-0.46601 1.075779,-0.97417 0.508401,-0.25756 1.177952,-0.28131 2.045474,-0.11765 0.52236,-0.66607 2.188159,-0.72985 2.574979,-0.60955 1.1018,0.34265 4.21241,-0.22687 5.83433,-0.007 0.86166,0.11682 0.99039,0.23237 1.80669,0.81212 1.18905,-0.32839 2.99751,0.63647 2.99751,0.81091 0,0.0654 -0.20425,0.34246 -0.45391,0.61566 -0.60408,0.66109 -2.08294,1.47463 -3.07225,1.69009 -2.26505,0.49331 -6.43444,0.73541 -8.05203,0.46754 z"
         style="display:inline;fill:#000000;fill-opacity:1;stroke:none;stroke-width:0.09759153"
         sodipodi:nodetypes="sccscsccsccs" />
      <path
         inkscape:connector-curvature="0"
         id="path2912-1"
         d="m 104.50008,241.09264 c -0.17943,0.10399 -0.89715,0.72792 -1.07658,1.97577 -0.17944,1.24786 -0.89716,4.47148 -0.98688,4.83544 -0.0897,0.36396 1.16631,1.24785 2.28775,1.14386 1.12144,-0.10398 1.74945,-0.98788 1.74945,-0.98788 0,0 -0.58315,-1.35184 -0.58315,-2.5997 0,-1.24785 0.53829,-3.01565 0.53829,-3.4316 0,-0.41596 -1.65973,-1.24785 -1.92888,-0.93589 z"
         style="display:inline;fill:#000000;fill-opacity:1;stroke:none;stroke-width:0.13522372px;stroke-linecap:butt;stroke-linejoin:miter;stroke-opacity:1" />
      <path
         sodipodi:nodetypes="cscscccccsccccccsczcc"
         inkscape:connector-curvature="0"
         id="path2974-0"
         d="m 102.87888,270.03093 c -0.78384,0.0843 -1.09703,0.0532 -2.16221,-0.15121 -2.029321,-0.38946 -4.701609,-0.71754 -6.593554,-1.01036 -0.799282,0.14552 -1.172529,-0.0102 -1.627506,-0.16057 -0.537242,-0.17748 -0.935616,-0.55385 -1.194448,-0.98847 -0.515843,0.0472 -2.091432,-0.20241 -2.278463,-1.23067 -0.202628,-0.37862 -0.337116,-7.63685 -0.145062,-7.82884 0.0322,-0.0322 0.431021,0.0752 0.886232,0.23872 2.774771,0.99663 6.846521,1.91053 9.941152,2.23126 1.700369,0.17623 7.745059,0.24805 10.341829,0.12288 5.29402,-0.25518 7.75102,-0.65089 10.27839,-1.65539 l 0.77096,-0.30641 -0.0521,2.10428 c -0.0602,2.43427 -0.19227,4.34501 -0.32896,4.75949 -0.12253,0.37158 -0.65769,1.50868 -2.23718,1.49643 -0.79608,1.31662 -2.01362,1.1137 -2.5433,0.93006 -2.90881,0.60718 -6.24996,0.7578 -6.36424,0.95372 -0.28083,0.48145 -1.46504,0.80163 -2.21344,0.14952 -0.67691,0.30545 -1.27313,0.43662 -2.02198,0.32203 -0.74885,-0.11461 -1.11793,-0.41582 -1.43851,-0.5346 z"
         style="display:inline;fill:#000000;fill-opacity:1;stroke:none;stroke-width:0.08196055" />
      <path
         inkscape:connector-curvature="0"
         id="path2980-4"
         d="m 98.714449,277.76846 c -0.59562,-0.23309 -1.518249,-0.99976 -2.136401,-1.77526 -0.236408,-0.29659 -0.490947,-0.75757 -0.944037,-1.70967 -0.341188,-0.71698 -0.724469,-1.56699 -0.851732,-1.88892 -0.422367,-1.06846 -0.702549,-2.35218 -0.700433,-3.20919 0.0012,-0.51088 0.02435,-0.54827 0.423741,-0.6871 1.886375,-0.65568 3.806922,-0.3723 5.530333,0.81601 l 0.42017,0.28972 -3e-5,1.4851 c -6e-5,2.9704 -0.25942,5.70725 -0.603979,6.37355 -0.21172,0.40944 -0.60359,0.51476 -1.137632,0.30576 z"
         style="display:inline;fill:#000000;fill-opacity:1;stroke:none;stroke-width:0.05795487" />
      <path
         inkscape:connector-curvature="0"
         id="path2980-6-7"
         d="m 111.34782,277.6749 c 0.59562,-0.23309 1.51825,-0.99977 2.1364,-1.77527 0.23641,-0.29659 0.49095,-0.75756 0.94404,-1.70967 0.34118,-0.71698 0.72446,-1.56699 0.85173,-1.88892 0.42237,-1.06846 0.70255,-2.35218 0.70043,-3.20919 -10e-4,-0.51088 -0.0243,-0.54827 -0.42374,-0.6871 -1.88637,-0.65568 -3.80692,-0.3723 -5.53033,0.81602 l -0.42018,0.28972 4e-5,1.4851 c 6e-5,2.9704 0.25942,5.70724 0.60398,6.37354 0.21173,0.40944 0.60359,0.51476 1.13763,0.30577 z"
         style="display:inline;fill:#000000;fill-opacity:1;stroke:none;stroke-width:0.05795487" />
      <path
         inkscape:connector-curvature="0"
         id="path3011-75"
         d="m 88.779954,259.93962 c 0,0 -3.114501,3.40136 -3.196458,5.90116 -0.08196,2.4998 1.475286,4.46685 2.008032,3.1145 0.53274,-1.35235 1.393329,-2.9096 1.393329,-2.9096 0,0 1.106468,-1.88509 1.106468,-2.66372 0,-0.77862 -1.311371,-3.44234 -1.311371,-3.44234 z"
         style="display:inline;fill:#000000;fill-opacity:1;stroke:none;stroke-width:0.16227362px;stroke-linecap:butt;stroke-linejoin:miter;stroke-opacity:1" />
      <path
         inkscape:connector-curvature="0"
         id="path3011-7-0"
         d="m 121.07086,260.45705 c 0,0 3.1145,3.40136 3.19646,5.90115 0.082,2.4998 -1.47529,4.46686 -2.00803,3.11451 -0.53275,-1.35235 -1.39333,-2.9096 -1.39333,-2.9096 0,0 -1.10647,-1.88509 -1.10647,-2.66372 0,-0.77863 1.31137,-3.44234 1.31137,-3.44234 z"
         style="display:inline;fill:#000000;fill-opacity:1;stroke:none;stroke-width:0.16227362px;stroke-linecap:butt;stroke-linejoin:miter;stroke-opacity:1" />
    </g>
    <g
       id="g10029"
       transform="matrix(1.5373228,0,0,1.5373228,-117.49922,-355.73132)">
      <path
         style="display:inline;fill:#e5e5e5;fill-opacity:0.89803922;stroke:#000000;stroke-width:0.26458332px;stroke-linecap:butt;stroke-linejoin:miter;stroke-opacity:1"
         d="m 131.11675,254.81308 c 0,0 -0.0945,-3.07106 0.47247,-3.87425 0.56696,-0.8032 2.12611,-2.36235 4.58296,-2.64583 2.45685,-0.28349 12.61496,-0.66146 15.54427,-0.42523 2.92932,0.23624 6.47285,0.85044 7.98475,1.65365 1.51191,0.8032 3.16555,1.84263 3.30729,3.68526 0.14174,1.84263 0.0945,7.18155 0.0945,7.18155 0,0 1.84264,2.26786 2.36235,3.21279 0.51972,0.94496 1.08669,2.83482 0.75596,4.11049 -0.33073,1.27569 -0.94494,2.17336 -1.32292,2.03163 -0.37797,-0.14174 -1.84263,-2.97656 -2.12611,-3.59077 -0.28348,-0.6142 -0.85045,-1.88989 -1.13394,-1.84263 -0.28348,0.0472 -3.1183,2.45684 -3.49627,2.83482 -0.37798,0.37799 0.14173,1.84264 -0.23624,3.21278 -0.37798,1.37017 -2.36235,5.85865 -3.54352,6.56736 -1.18118,0.70868 -1.79539,0.89767 -2.12612,0.14174 -0.33073,-0.75597 -0.56697,-7.51229 -0.61421,-7.89025 -0.0472,-0.37799 -1.7009,-1.46468 -3.26005,-1.65364 -1.55915,-0.189 -3.9215,0.18896 -4.7247,0.80319 -0.8032,0.6142 -1.03944,0.6142 -1.08668,1.22841 -0.0472,0.61422 -0.33073,6.3311 -0.47247,7.03982 -0.14174,0.70869 -0.47247,1.18118 -1.13393,1.03941 -0.66146,-0.14174 -2.36235,-1.70087 -3.02381,-2.88205 -0.66146,-1.18118 -1.84263,-4.01601 -1.84263,-5.24441 0,-1.22844 0,-2.12614 -0.18899,-2.31511 -0.18899,-0.18899 -3.2128,-2.78759 -3.40179,-3.21281 -0.18898,-0.42521 -0.33073,-0.75593 -0.42522,-0.47246 -0.0945,0.28347 -1.13393,2.64583 -1.5119,3.40177 -0.37798,0.75597 -0.99219,2.36236 -1.32292,2.36236 -0.33073,0 -1.27567,-0.94493 -1.46466,-2.03163 -0.18899,-1.08667 -0.0945,-2.69306 0.47247,-3.63802 0.56696,-0.94493 1.65364,-2.64582 2.07887,-3.21279 0.42523,-0.56697 0.51972,-0.66146 0.51972,-1.08668 0,-0.42523 0.28348,-4.48847 0.28348,-4.48847 z"
         id="path9801"
         inkscape:connector-curvature="0" />
      <path
         style="display:inline;fill:#565656;fill-opacity:0.84705882;stroke:#000000;stroke-width:0.26458332px;stroke-linecap:butt;stroke-linejoin:miter;stroke-opacity:1"
         d="m 130.79297,259.76591 c 0,0 0,-1.46466 0.14174,-1.46466 0.14175,0 2.07887,1.13393 5.19718,1.74814 3.1183,0.61422 6.56733,1.22843 10.9613,1.18118 4.39398,-0.0472 6.80358,-0.0945 9.16593,-0.33073 2.36235,-0.23623 4.15773,-0.66146 5.24442,-1.03943 1.08668,-0.37798 1.74813,-0.70871 1.74813,-0.70871 v 1.27567 c 0,0 -0.56696,0.61421 -0.99218,1.88988 -0.42522,1.27567 -0.66146,1.51191 -0.23624,2.3151 0.42523,0.8032 0.66146,1.41741 0.66146,1.41741 0,0 0,0.75596 -0.75595,1.13395 -0.75595,0.37795 -1.37016,0.23622 -1.37016,0.23622 0,0 -0.56697,0.94493 -1.08669,1.03944 -0.51971,0.0945 -0.28348,0.42521 -1.79538,-0.0473 -1.51191,-0.47247 -3.77976,-0.66145 -4.7247,0.0945 -0.94495,0.75594 -1.51191,1.4174 -2.22062,1.4174 -0.7087,0 -1.32291,-0.42521 -1.32291,-0.42521 0,0 -0.8032,0.42521 -1.55915,0.42521 -0.75596,0 -1.79539,-0.70871 -1.79539,-0.70871 0,0 -0.75595,1.03944 -1.93713,0.85045 -1.18118,-0.189 -1.65364,-0.56695 -2.07887,-0.75594 -0.42522,-0.18899 -1.18118,-1.32292 -3.1183,-1.18118 -1.93713,0.14174 -2.17336,-0.0473 -2.64584,0.33073 -0.47247,0.37798 -0.42522,0.23622 -0.42522,0.23622 0,0 -0.75595,0.23624 -1.37016,0 -0.61421,-0.23622 -1.13393,-1.08667 -1.13393,-1.08667 0,0 -1.22842,0 -1.74814,-0.42521 -0.51971,-0.42524 -0.75595,-1.03945 -0.66146,-1.32292 0.0945,-0.2835 0.99219,-1.22844 1.08668,-2.07889 0.0945,-0.85044 0.0472,-1.27566 -0.37797,-2.12611 -0.42523,-0.85045 -0.85045,-1.88988 -0.85045,-1.88988 z"
         id="path9803"
         inkscape:connector-curvature="0" />
      <path
         style="display:inline;fill:#565656;fill-opacity:0.84705882;stroke:#000000;stroke-width:0.26458332px;stroke-linecap:butt;stroke-linejoin:miter;stroke-opacity:1"
         d="m 138.7578,248.31592 c 0,0 0.36617,-0.8032 1.21661,-1.05125 0.85045,-0.24805 1.91351,-0.0354 1.91351,-0.0354 0,0 0.29529,-0.64965 1.77176,-0.66145 1.47647,-0.0118 2.91751,0.53152 2.91751,0.53152 0,0 1.37016,-0.68508 2.84663,-0.54334 1.47646,0.14174 2.4096,0.88589 2.4096,0.88589 0,0 0.44884,-0.23624 1.29929,-0.0118 0.85045,0.22442 1.77176,0.81501 1.77176,0.81501 0,0 -2.07887,2.94113 -8.0438,2.85845 -5.96494,-0.0827 -8.10287,-2.78758 -8.10287,-2.78758 z"
         id="path9807"
         inkscape:connector-curvature="0" />
      <path
         inkscape:connector-curvature="0"
         id="path9866"
         d="m 144.80618,247.87498 c 0,0 0.73499,-3.24065 1.00226,-4.34313 0.26727,-1.10249 0.80181,-2.37202 1.33635,-2.50565 0.53454,-0.13364 1.13589,0.23386 1.43657,0.53453 0.30068,0.30068 0.50113,0.3675 0.23386,1.60362 -0.26726,1.23612 -0.70158,1.83748 -0.46772,2.87315 0.23386,1.03567 0.46772,1.87089 0.46772,1.87089 0,0 -0.43431,0.93544 -1.63702,0.96885 -1.20271,0.0334 -2.37202,-1.00226 -2.37202,-1.00226 z"
         style="fill:#828282;fill-opacity:0.88627451;stroke:#000000;stroke-width:0.26458332px;stroke-linecap:butt;stroke-linejoin:miter;stroke-opacity:1" />
      <g
         style="display:inline;stroke:#000000;stroke-width:0.5438292;stroke-miterlimit:4;stroke-dasharray:none;stroke-opacity:1"
         id="g2503-8-0-1-11"
         transform="matrix(0.5725943,-0.15620738,0.15321965,0.5737267,106.06007,218.04226)">
        <path
           sodipodi:nodetypes="zzssz"
           inkscape:connector-curvature="0"
           id="path2364-8-8-4-8"
           d="m 43.106909,67.734814 c -3.414614,-0.779127 -8.30748,2.296594 -8.567182,7.436415 -0.259701,5.139822 0.596215,7.892369 4.994935,8.992678 4.398721,1.100305 7.387811,-3.348959 8.251725,-6.969099 0.863916,-3.620144 -1.264865,-8.680867 -4.679478,-9.459994 z"
           style="fill:#f7f7f7;fill-opacity:0.88627451;stroke:#000000;stroke-width:0.5438292;stroke-linecap:butt;stroke-linejoin:miter;stroke-miterlimit:4;stroke-dasharray:none;stroke-opacity:1" />
        <path
           sodipodi:nodetypes="zzssz"
           inkscape:connector-curvature="0"
           id="path2364-3-87-3-3-8"
           d="m 42.799122,73.205421 c -1.294824,-0.462829 -3.323451,0.678894 -3.636793,2.882142 -0.313343,2.20325 -0.09446,3.42028 1.569541,4.058103 1.664004,0.637823 3.00953,-1.166293 3.494883,-2.692707 0.485355,-1.526417 -0.132809,-3.784709 -1.427631,-4.247538 z"
           style="fill:#000000;fill-opacity:1;stroke:#000000;stroke-width:0.5438292;stroke-linecap:butt;stroke-linejoin:miter;stroke-miterlimit:4;stroke-dasharray:none;stroke-opacity:1" />
        <path
           sodipodi:nodetypes="czcscscc"
           inkscape:connector-curvature="0"
           id="path2396-3-6-1-1-1-4"
           d="m 42.939554,65.661027 c 0,0 -1.756568,0.245906 -2.159629,0.345085 -0.403062,0.09918 -1.15984,0.289642 -0.857,0.366821 0.302845,0.07717 2.897646,-0.290976 3.365768,-0.242188 0.468121,0.04879 1.863248,0.239808 2.616961,0.911342 0.75371,0.671535 1.063061,1.242225 1.01148,0.812438 -0.05265,-0.438816 -0.356114,-0.744126 -0.634725,-1.092459 -0.278611,-0.348334 -1.668084,-1.337004 -3.342859,-1.101033 z"
           style="fill:#0a0803;fill-opacity:1;stroke:none;stroke-width:0.5438292;stroke-linecap:butt;stroke-linejoin:miter;stroke-miterlimit:4;stroke-dasharray:none;stroke-opacity:1" />
        <path
           inkscape:connector-curvature="0"
           id="path2477-1-2-6-3"
           d="M 46.690949,75.683827 C 43.371214,75.276918 40.378469,74.5829 37.40691,73.530862 36.606389,73.247446 35.651199,72.868859 35.22296,72.665257 l -0.152329,-0.07242 0.120775,-0.304686 c 0.943644,-2.380613 3.445324,-4.226179 6.184254,-4.562314 1.5933,-0.195539 2.957817,0.229429 4.134115,1.287533 0.587351,0.528336 1.012679,1.066538 1.415676,1.791376 0.55757,1.002854 0.879277,1.994208 0.99876,3.077717 0.05197,0.471251 0.03507,1.30598 -0.03506,1.731867 -0.0286,0.173679 -0.03446,0.178794 -0.200417,0.174879 -0.09403,-0.0021 -0.543028,-0.04964 -0.99778,-0.10538 z"
           style="fill:#a1a1a1;fill-opacity:0.83474576;stroke:#000000;stroke-width:0.5438292;stroke-miterlimit:4;stroke-dasharray:none;stroke-opacity:1" />
      </g>
      <g
         style="display:inline;stroke:#000000;stroke-width:0.5438292;stroke-miterlimit:4;stroke-dasharray:none;stroke-opacity:1"
         id="g2503-8-0-1-11-3"
         transform="matrix(-0.57259429,-0.15620738,-0.15321965,0.57372671,188.33497,217.97621)">
        <path
           sodipodi:nodetypes="zzssz"
           inkscape:connector-curvature="0"
           id="path2364-8-8-4-8-9"
           d="m 43.106909,67.734814 c -3.414614,-0.779127 -8.30748,2.296594 -8.567182,7.436415 -0.259701,5.139822 0.596215,7.892369 4.994935,8.992678 4.398721,1.100305 7.387811,-3.348959 8.251725,-6.969099 0.863916,-3.620144 -1.264865,-8.680867 -4.679478,-9.459994 z"
           style="fill:#f7f7f7;fill-opacity:0.88627451;stroke:#000000;stroke-width:0.5438292;stroke-linecap:butt;stroke-linejoin:miter;stroke-miterlimit:4;stroke-dasharray:none;stroke-opacity:1" />
        <path
           sodipodi:nodetypes="zzssz"
           inkscape:connector-curvature="0"
           id="path2364-3-87-3-3-8-3"
           d="m 42.799122,73.205421 c -1.294824,-0.462829 -3.323451,0.678894 -3.636793,2.882142 -0.313343,2.20325 -0.09446,3.42028 1.569541,4.058103 1.664004,0.637823 3.00953,-1.166293 3.494883,-2.692707 0.485355,-1.526417 -0.132809,-3.784709 -1.427631,-4.247538 z"
           style="fill:#000000;fill-opacity:1;stroke:#000000;stroke-width:0.5438292;stroke-linecap:butt;stroke-linejoin:miter;stroke-miterlimit:4;stroke-dasharray:none;stroke-opacity:1" />
        <path
           sodipodi:nodetypes="czcscscc"
           inkscape:connector-curvature="0"
           id="path2396-3-6-1-1-1-4-3"
           d="m 42.939554,65.661027 c 0,0 -1.756568,0.245906 -2.159629,0.345085 -0.403062,0.09918 -1.15984,0.289642 -0.857,0.366821 0.302845,0.07717 2.897646,-0.290976 3.365768,-0.242188 0.468121,0.04879 1.863248,0.239808 2.616961,0.911342 0.75371,0.671535 1.063061,1.242225 1.01148,0.812438 -0.05265,-0.438816 -0.356114,-0.744126 -0.634725,-1.092459 -0.278611,-0.348334 -1.668084,-1.337004 -3.342859,-1.101033 z"
           style="fill:#0a0803;fill-opacity:1;stroke:none;stroke-width:0.5438292;stroke-linecap:butt;stroke-linejoin:miter;stroke-miterlimit:4;stroke-dasharray:none;stroke-opacity:1" />
        <path
           inkscape:connector-curvature="0"
           id="path2477-1-2-6-3-1"
           d="M 46.690949,75.683827 C 43.371214,75.276918 40.378469,74.5829 37.40691,73.530862 36.606389,73.247446 35.651199,72.868859 35.22296,72.665257 l -0.152329,-0.07242 0.120775,-0.304686 c 0.943644,-2.380613 3.445324,-4.226179 6.184254,-4.562314 1.5933,-0.195539 2.957817,0.229429 4.134115,1.287533 0.587351,0.528336 1.012679,1.066538 1.415676,1.791376 0.55757,1.002854 0.879277,1.994208 0.99876,3.077717 0.05197,0.471251 0.03507,1.30598 -0.03506,1.731867 -0.0286,0.173679 -0.03446,0.178794 -0.200417,0.174879 -0.09403,-0.0021 -0.543028,-0.04964 -0.99778,-0.10538 z"
           style="fill:#a1a1a1;fill-opacity:0.83474576;stroke:#000000;stroke-width:0.5438292;stroke-miterlimit:4;stroke-dasharray:none;stroke-opacity:1" />
      </g>
    </g>
    <g
       transform="matrix(1.6376811,0,0,1.6376811,-123.92141,-384.08246)"
       id="g10301">
      <path
         sodipodi:nodetypes="csssscccscccscc"
         inkscape:connector-curvature="0"
         id="path10103"
         d="m 165.55357,256.17857 c 0,0 -0.14174,-2.92932 1.27567,-4.06325 1.41741,-1.13393 2.83482,-2.59858 13.13467,-2.26785 10.29985,0.33073 11.90625,0.8032 13.51265,2.07887 1.6064,1.27567 2.45684,3.1183 2.3151,5.10268 -0.14174,1.98437 0.14174,5.19717 -0.7087,6.75632 -0.85045,1.55914 -2.31511,2.59859 -3.11831,3.44904 -0.80319,0.85045 -6.00037,2.55132 -7.27604,2.78757 -0.59635,0.11044 -0.89495,7.82024 -3.49643,7.70511 -3.11031,-0.13765 -4.5961,-7.9064 -5.33876,-7.94129 -1.37016,-0.0473 -4.48847,-0.61422 -5.48065,-1.37017 -0.99219,-0.75596 -3.73252,-3.49628 -3.96875,-3.92151 -0.23624,-0.42522 -1.03944,-3.77976 -1.03944,-4.15773 0,-0.37798 0.18899,-4.15774 0.18899,-4.15774 z"
         style="display:inline;fill:#e5e5e5;fill-opacity:0.89803922;stroke:#000000;stroke-width:0.26458332px;stroke-linecap:butt;stroke-linejoin:miter;stroke-opacity:1" />
      <path
         sodipodi:nodetypes="cszzzzcccccccccscscscccscccccccccc"
         inkscape:connector-curvature="0"
         id="path9803-9"
         d="m 165.23894,260.7915 c 0,0 0,-1.3749 0.13306,-1.3749 0.13306,0 1.70623,0.34971 4.81187,0.57194 3.10564,0.22223 5.70206,0.3875 9.81711,0.35284 4.11505,-0.0347 5.44973,-0.14759 7.70655,-0.0742 2.25682,0.0734 4.17122,0.15276 5.67493,0.51857 1.50371,0.36581 2.32609,0.68126 2.32609,0.68126 v 1.12663 c 0,0 0.55446,0.62382 0.1553,1.82131 -0.39916,1.1975 -0.5546,0.57692 -0.15544,1.33089 0.39918,0.75398 -0.53208,2.12564 -0.53208,2.12564 0,0 0,0.70964 -0.70962,1.06446 -0.70963,0.35479 -1.2862,0.22175 -1.2862,0.22175 0,0 -0.53222,0.88702 -1.0201,0.97574 -0.48786,0.0887 -0.67344,-0.049 -2.09268,-0.49255 -0.37442,-0.10667 -1.09837,0.92947 -2.02503,1.07654 -0.58413,0.0927 -2.04355,-0.29365 -2.2684,-0.35001 -0.88704,0.70961 -1.2539,0.73996 -1.91918,0.73996 -0.66527,0 -1.24184,-0.39915 -1.24184,-0.39915 0,0 -0.75398,0.39915 -1.4636,0.39915 -0.70964,0 -1.68537,-0.66528 -1.68537,-0.66528 0,0 -0.70963,0.97574 -1.81842,0.79833 -1.1088,-0.17742 -1.55231,-0.5322 -1.95148,-0.70961 -0.39916,-0.17741 -0.12813,0.4817 -1.93502,0.23774 -1.46407,-0.19768 -0.8786,-1.06022 -2.15297,-0.39825 -0.44351,0.35482 -1.72208,-0.41608 -1.72208,-0.41608 0,0 -0.60939,0.62266 -1.18596,0.4009 -0.57658,-0.22175 -1.06445,-1.02008 -1.06445,-1.02008 0,0 -1.15314,0 -1.64101,-0.39915 -0.48786,-0.39918 -0.70962,-0.97575 -0.62092,-1.24185 0.0887,-0.26613 -0.48603,-1.01142 -0.39733,-1.80976 0.0887,-0.79832 0.23329,-1.19748 -0.16581,-1.99582 -0.39918,-0.79833 0.43008,-3.09698 0.43008,-3.09698 z"
         style="display:inline;fill:#565656;fill-opacity:0.84705882;stroke:#000000;stroke-width:0.24836944px;stroke-linecap:butt;stroke-linejoin:miter;stroke-opacity:1" />
      <path
         inkscape:connector-curvature="0"
         id="path10120"
         d="m 180.13966,261.51997 c 0,0 -1.80407,0 -2.40543,1.00226 -0.60136,1.00226 0.40091,5.07812 1.00226,5.87994 0.60136,0.80179 1.00226,1.33633 1.60362,1.06907 0.60136,-0.26728 1.46998,-4.00904 1.46998,-5.47903 0,-1.46998 -0.93544,-2.27179 -1.67043,-2.47224 z"
         style="display:inline;fill:#e5e5e5;fill-opacity:0.89803922;stroke:#000000;stroke-width:0.26458332px;stroke-linecap:butt;stroke-linejoin:miter;stroke-opacity:1" />
      <g
         style="display:inline;stroke:#000000;stroke-width:0.5438292;stroke-miterlimit:4;stroke-dasharray:none;stroke-opacity:1"
         id="g2503-8-0-1-9-8"
         transform="matrix(0.48107812,-0.12525821,0.12873097,0.46005496,163.65676,226.40391)">
        <path
           sodipodi:nodetypes="zzssz"
           inkscape:connector-curvature="0"
           id="path2364-8-8-4-3-8"
           d="m 44.516594,68.087937 c -2.724996,-0.590836 -6.846942,2.710331 -7.323622,7.809455 -0.476679,5.099126 0.07385,7.777414 3.579198,8.634142 3.505346,0.856724 6.156672,-3.703067 7.043928,-7.330451 0.887258,-3.627388 -0.574508,-8.522311 -3.299504,-9.113146 z"
           style="fill:#f7f7f7;fill-opacity:0.88627451;stroke:#000000;stroke-width:0.48597807;stroke-linecap:butt;stroke-linejoin:miter;stroke-miterlimit:4;stroke-dasharray:none;stroke-opacity:1" />
        <path
           sodipodi:nodetypes="zzssz"
           inkscape:connector-curvature="0"
           id="path2364-3-87-3-3-5-9"
           d="m 45.978589,73.780612 c -1.294824,-0.462829 -3.323451,0.678894 -3.636793,2.882142 -0.313343,2.20325 -0.09446,3.42028 1.569541,4.058103 1.664004,0.637823 3.00953,-1.166293 3.494883,-2.692707 0.485355,-1.526417 -0.132809,-3.784709 -1.427631,-4.247538 z"
           style="fill:#000000;fill-opacity:1;stroke:#000000;stroke-width:0.5438292;stroke-linecap:butt;stroke-linejoin:miter;stroke-miterlimit:4;stroke-dasharray:none;stroke-opacity:1" />
        <path
           sodipodi:nodetypes="czcscscc"
           inkscape:connector-curvature="0"
           id="path2396-3-6-1-1-1-6-2"
           d="m 42.939554,65.661027 c 0,0 -1.756568,0.245906 -2.159629,0.345085 -0.403062,0.09918 -1.15984,0.289642 -0.857,0.366821 0.302845,0.07717 2.897646,-0.290976 3.365768,-0.242188 0.468121,0.04879 1.863248,0.239808 2.616961,0.911342 0.75371,0.671535 1.063061,1.242225 1.01148,0.812438 -0.05265,-0.438816 -0.356114,-0.744126 -0.634725,-1.092459 -0.278611,-0.348334 -1.668084,-1.337004 -3.342859,-1.101033 z"
           style="fill:#0a0803;fill-opacity:1;stroke:none;stroke-width:0.5438292;stroke-linecap:butt;stroke-linejoin:miter;stroke-miterlimit:4;stroke-dasharray:none;stroke-opacity:1" />
        <path
           inkscape:connector-curvature="0"
           id="path2477-1-2-6-1-6"
           d="M 46.931369,75.775256 C 44.247016,75.545345 41.843976,75.012858 39.476702,74.12339 38.838973,73.883769 38.080115,73.557682 37.741648,73.377821 l -0.120396,-0.06397 0.114169,-0.309204 c 0.892033,-2.415917 3.026122,-4.381926 5.275552,-4.860053 1.308547,-0.278139 2.398584,0.07253 3.302516,1.062421 0.451353,0.494276 0.770157,1.006879 1.061118,1.706169 0.402562,0.967508 0.613504,1.935986 0.654883,3.006698 0.018,0.465685 -0.03891,1.296284 -0.118068,1.723298 -0.03228,0.174139 -0.03732,0.179531 -0.172365,0.184366 -0.07652,0.0029 -0.439969,-0.02079 -0.807684,-0.05228 z"
           style="fill:#a1a1a1;fill-opacity:0.83474576;stroke:#000000;stroke-width:0.48863652;stroke-miterlimit:4;stroke-dasharray:none;stroke-opacity:1" />
      </g>
      <path
         sodipodi:nodetypes="cccccccccccc"
         inkscape:connector-curvature="0"
         id="path9807-8"
         d="m 172.60177,250.08171 c 0,0 0.611,-0.55352 1.40932,-0.78637 0.79834,-0.23285 1.96329,-0.23365 1.96329,-0.23365 0,0 0.57788,-0.67666 1.96387,-0.68774 1.38599,-0.0111 2.00373,0.56577 2.00373,0.56577 0,0 1.2862,-0.6431 2.67219,-0.51005 1.38598,0.13306 1.69399,0.96524 1.69399,0.96524 0,0 0.98928,-0.3554 1.78761,-0.14473 0.79834,0.21067 1.62978,0.99892 1.62978,0.99892 0,0 -1.91807,2.52704 -7.51746,2.44943 -5.5994,-0.0776 -7.60632,-2.61676 -7.60632,-2.61676 z"
         style="display:inline;fill:#565656;fill-opacity:0.84705882;stroke:#000000;stroke-width:0.24836944px;stroke-linecap:butt;stroke-linejoin:miter;stroke-opacity:1" />
      <path
         style="fill:#828282;fill-opacity:0.88627451;stroke:#000000;stroke-width:0.24836944px;stroke-linecap:butt;stroke-linejoin:miter;stroke-opacity:1"
         d="m 178.74722,249.13326 c 0,0 0.68995,-3.04206 0.94084,-4.07698 0.25089,-1.03493 0.75267,-2.22666 1.25446,-2.35211 0.50178,-0.12545 1.06628,0.21953 1.34853,0.50178 0.28226,0.28225 0.47042,0.34498 0.21953,1.50535 -0.25088,1.16037 -0.65858,1.72487 -0.43906,2.69708 0.21953,0.9722 0.43906,1.75624 0.43906,1.75624 0,0 -0.40769,0.87811 -1.5367,0.90948 -1.12901,0.0313 -2.22666,-0.94084 -2.22666,-0.94084 z"
         id="path9866-2"
         inkscape:connector-curvature="0" />
    </g>
  </g>
</svg>
