<?xml version="1.0" encoding="UTF-8" standalone="no"?>
<!-- Created with Inkscape (http://www.inkscape.org/) -->

<svg
   xmlns:dc="http://purl.org/dc/elements/1.1/"
   xmlns:cc="http://creativecommons.org/ns#"
   xmlns:rdf="http://www.w3.org/1999/02/22-rdf-syntax-ns#"
   xmlns:svg="http://www.w3.org/2000/svg"
   xmlns="http://www.w3.org/2000/svg"
   xmlns:sodipodi="http://sodipodi.sourceforge.net/DTD/sodipodi-0.dtd"
   xmlns:inkscape="http://www.inkscape.org/namespaces/inkscape"
   width="210mm"
   height="297mm"
   viewBox="0 0 210 297"
   version="1.1"
   id="svg8973"
   inkscape:version="0.92.4 (5da689c313, 2019-01-14)"
   sodipodi:docname="fraise_turnaround.svg">
  <defs
     id="defs8967" />
  <sodipodi:namedview
     id="base"
     pagecolor="#ffffff"
     bordercolor="#666666"
     borderopacity="1.0"
     inkscape:pageopacity="0.0"
     inkscape:pageshadow="2"
     inkscape:zoom="0.7"
     inkscape:cx="357.64141"
     inkscape:cy="826.17017"
     inkscape:document-units="mm"
     inkscape:current-layer="layer1"
     showgrid="false"
     inkscape:window-width="1920"
     inkscape:window-height="1009"
     inkscape:window-x="-8"
     inkscape:window-y="-8"
     inkscape:window-maximized="1" />
  <metadata
     id="metadata8970">
    <rdf:RDF>
      <cc:Work
         rdf:about="">
        <dc:format>image/svg+xml</dc:format>
        <dc:type
           rdf:resource="http://purl.org/dc/dcmitype/StillImage" />
        <dc:title></dc:title>
      </cc:Work>
    </rdf:RDF>
  </metadata>
  <g
     inkscape:label="Calque 1"
     inkscape:groupmode="layer"
     id="layer1">
    <path
       style="display:inline;fill:none;stroke:#a9a9a9;stroke-width:0.35680887px;stroke-linecap:butt;stroke-linejoin:miter;stroke-opacity:1"
       d="M 9.7271488,11.459298 H 202.02775"
       id="path3233-95"
       inkscape:connector-curvature="0" />
    <path
       style="display:inline;fill:none;stroke:#a9a9a9;stroke-width:0.35680887px;stroke-linecap:butt;stroke-linejoin:miter;stroke-opacity:1"
       d="M 10.016872,69.858843 H 202.31746"
       id="path3233-1-50"
       inkscape:connector-curvature="0" />
    <path
       style="display:inline;fill:none;stroke:#a9a9a9;stroke-width:0.35680887px;stroke-linecap:butt;stroke-linejoin:miter;stroke-opacity:1"
       d="M 10.016872,55.207134 H 202.31748"
       id="path3233-1-4-7"
       inkscape:connector-curvature="0" />
    <path
       style="display:inline;fill:none;stroke:#a9a9a9;stroke-width:0.35680887px;stroke-linecap:butt;stroke-linejoin:miter;stroke-opacity:1"
       d="M 10.016872,40.114018 H 202.31748"
       id="path3233-1-4-1-6"
       inkscape:connector-curvature="0" />
    <path
       style="display:inline;fill:none;stroke:#a9a9a9;stroke-width:0.35680887px;stroke-linecap:butt;stroke-linejoin:miter;stroke-opacity:1"
       d="M 10.016872,26.485463 H 202.31749"
       id="path3233-1-4-1-2-9"
       inkscape:connector-curvature="0" />
    <g
       style="display:inline"
       id="g7574"
       transform="matrix(1.6514756,0,0,1.6514756,-149.33932,-276.58618)">
      <path
         inkscape:connector-curvature="0"
         id="path7502"
         d="m 109.5805,193.49987 c 0,0 -2.27179,-4.74403 -2.13815,-6.21401 0.13363,-1.46998 0.66817,-3.67496 1.60362,-4.47677 0.93544,-0.8018 5.81311,-2.07134 9.28761,-2.27179 3.4745,-0.20045 7.95127,0.80181 9.15398,2.07134 1.20272,1.26953 1.87089,2.60588 2.00452,4.00904 0.13364,1.40317 -0.60135,3.80859 -0.73499,4.6104 -0.13363,0.80181 -0.86862,2.53906 -0.86862,2.53906 0,0 1.26953,2.20498 1.73725,3.67496 0.46772,1.46998 0.66817,2.13815 0.53454,2.93996 -0.13364,0.80181 -0.60136,0.26727 -1.40317,-0.53453 -0.80181,-0.80181 -2.33861,-3.00679 -2.33861,-3.00679 l -1.06907,2.00453 c 0,0 0.46772,5.34539 0.46772,6.34765 0,1.00226 -0.20045,3.60813 -0.40091,4.00904 -0.20045,0.4009 -1.60361,1.06908 -2.13815,-0.46772 -0.53454,-1.5368 -1.33635,-4.54358 -1.60362,-4.87767 -0.26727,-0.33409 -1.73725,-1.33635 -3.00678,-1.33635 -1.26953,0 -2.93997,0.73499 -3.27405,1.26953 -0.33409,0.53454 -2.16583,4.87836 -2.70037,5.47972 -0.53454,0.60136 -1.1359,0.66818 -1.33635,-0.26727 -0.20045,-0.93544 -0.50686,-3.60883 -0.30641,-5.54654 0.20045,-1.9377 0.73499,-5.67947 0.73499,-5.67947 l -0.73499,-1.46999 c 0,0 -3.47451,3.34087 -3.80859,3.40769 -0.33409,0.0668 -1.20272,0 -0.66818,-1.26953 0.53454,-1.26953 3.00678,-4.94449 3.00678,-4.94449 z"
         style="display:inline;fill:#000000;fill-opacity:1;stroke:#000000;stroke-width:0.26458332px;stroke-linecap:butt;stroke-linejoin:miter;stroke-opacity:1"
         sodipodi:nodetypes="ccssccccsccccscssscscscccsc" />
      <path
         inkscape:connector-curvature="0"
         id="path7504"
         d="m 108.85714,191.63913 c 0,0 6.56733,0.8032 8.55171,0.85045 1.98437,0.0472 11.29204,-0.85045 11.29204,-0.85045 0,0 -2.83482,6.42559 -3.44903,7.37054 -0.61422,0.94494 -3.59078,6.66183 -5.38617,6.89806 -1.79538,0.23623 -3.73251,0.18899 -4.7247,-1.93713 -0.99219,-2.12611 -3.59077,-6.47284 -4.67745,-8.7407 -1.08668,-2.26786 -1.6064,-3.59077 -1.6064,-3.59077 z"
         style="display:inline;fill:#000000;fill-opacity:1;stroke:#000000;stroke-width:0.26458332px;stroke-linecap:butt;stroke-linejoin:miter;stroke-opacity:1" />
      <path
         inkscape:connector-curvature="0"
         id="path2525-3-8"
         d="m 117.95749,179.69364 c 0,0 -2.45009,0.15313 -3.36888,0.15313 -0.91878,0 -3.13918,0.76565 -4.2111,1.761 -1.07191,0.99535 -0.99535,0.91879 -0.99535,0.91879 0,0 4.67049,0.91878 7.73311,0.84221 3.06261,-0.0766 9.18784,-1.60787 9.18784,-1.60787 0,0 -2.37353,-1.761 -3.44544,-1.91413 -1.07192,-0.15313 -3.9814,-0.38283 -4.90018,-0.15313 z"
         style="display:inline;fill:#000000;fill-opacity:1;stroke:#000000;stroke-width:0.26499999;stroke-linecap:butt;stroke-linejoin:miter;stroke-miterlimit:4;stroke-dasharray:none;stroke-opacity:1" />
      <path
         inkscape:connector-curvature="0"
         id="path2527-7-8"
         d="m 117.81588,178.97338 c 0,0 1.3535,-1.29935 1.3535,-2.32801 0,-1.02866 1.13693,-2.38216 1.57005,-2.32802 0.43313,0.0541 1.13694,0.21656 1.13694,1.78662 0,1.57006 -0.97451,2.76113 -0.97451,2.76113 0,0 1.67833,-2.76113 2.38215,-3.14011 0.70382,-0.37898 3.89807,-0.37898 3.89807,-0.37898 0,0 -0.16242,1.3535 -0.64968,2.05732 -0.48726,0.70381 -1.6242,0.97451 -2.49043,1.29935 -0.86624,0.32484 -0.64968,0.32484 -0.64968,0.32484 0,0 3.03183,-1.19107 3.89807,-1.0828 0.86624,0.10828 2.4363,0.86624 2.86942,1.67834 0.43311,0.8121 1.73247,2.65286 1.73247,2.65286 0,0 -0.2707,1.02866 -2.11145,0.37898 -1.84076,-0.64968 -2.86942,-1.0828 -3.14011,-1.0828 -0.27071,0 -2.76114,-1.51592 -3.57324,-1.51592 -0.8121,0 -3.95221,-0.59554 -4.65603,-0.5414 -0.70382,0.0541 -1.40763,0.86624 -2.00318,1.02866 -0.59553,0.16242 -2.27387,0.16242 -2.76113,-0.16242 -0.48726,-0.32484 -0.43312,-0.59554 -0.8121,-0.37898 -0.37898,0.21656 -2.54458,1.6242 -2.54458,1.6242 0,0 -0.8121,0.37898 -1.40764,-0.32484 -0.59554,-0.70382 -1.40764,-2.59872 -1.40764,-2.59872 0,0 -0.2707,0.0542 1.57007,0.5414 1.84075,0.48726 2.86942,0.32484 2.86942,0.32484 0,0 -1.02867,-0.37898 -1.13695,-1.29936 -0.10828,-0.92037 0.32484,-3.19425 0.32484,-3.19425 0,0 1.24522,1.40764 1.67834,2.00318 0.43312,0.59554 0.59554,0.64967 0.59554,0.64967 0,0 0.2707,-1.40763 0.59554,-1.78661 0.32484,-0.37898 1.67834,-1.19108 2.00318,-1.0828 0.32483,0.10828 1.19107,1.51592 1.19107,2.27388 0,0.75795 -0.16241,1.46177 -0.16241,1.46177 0,0 0.59553,-0.0541 0.81209,0.37898 z"
         style="display:inline;fill:#000000;fill-opacity:1;stroke:#000000;stroke-width:0.26499999;stroke-linecap:butt;stroke-linejoin:miter;stroke-miterlimit:4;stroke-dasharray:none;stroke-opacity:1" />
    </g>
    <g
       transform="matrix(1.6514756,0,0,1.6514756,-127.26987,-276.36548)"
       style="display:inline"
       id="g7918">
      <path
         style="fill:#e5e5e5;fill-opacity:0.89803922;stroke:#000000;stroke-width:0.26458332px;stroke-linecap:butt;stroke-linejoin:miter;stroke-opacity:1"
         d="m 173.65837,193.43306 c 0,0 -2.20497,-4.47676 -2.13815,-5.94675 0.0668,-1.46998 -0.53454,-4.27631 4.07586,-5.61265 4.6104,-1.33635 8.35217,-1.60362 11.42577,-1.00227 3.0736,0.60136 5.21175,2.53906 6.1472,4.40995 0.93544,1.87089 0.33408,3.67496 -0.0668,5.21176 -0.4009,1.5368 -3.40769,7.95127 -3.40769,7.95127 l -3.20723,5.34538 c 0,0 -1.67044,2.33861 -3.14042,2.2718 -1.46998,-0.0668 -3.34087,0 -4.6104,-2.6727 -1.26953,-2.67269 -5.07812,-9.95579 -5.07812,-9.95579 z"
         id="path7977"
         inkscape:connector-curvature="0"
         sodipodi:nodetypes="cccccccccccc" />
      <path
         sodipodi:nodetypes="ccssccccsccccscssscscscccsc"
         inkscape:connector-curvature="0"
         id="path7502-8"
         d="m 138.76123,193.45723 c 0,0 -2.27179,-4.74403 -2.13815,-6.21401 0.13363,-1.46998 0.66817,-3.67496 1.60362,-4.47677 0.93544,-0.8018 5.81311,-2.07134 9.28761,-2.27179 3.4745,-0.20045 7.95127,0.80181 9.15398,2.07134 1.20272,1.26953 1.87089,2.60588 2.00452,4.00904 0.13364,1.40317 -0.60135,3.80859 -0.73499,4.6104 -0.13363,0.80181 -0.86862,2.53906 -0.86862,2.53906 0,0 1.26953,2.20498 1.73725,3.67496 0.46772,1.46998 0.66817,2.13815 0.53454,2.93996 -0.13364,0.80181 -0.60136,0.26727 -1.40317,-0.53453 -0.80181,-0.80181 -2.33861,-3.00679 -2.33861,-3.00679 l -1.06907,2.00453 c 0,0 0.46772,5.34539 0.46772,6.34765 0,1.00226 -0.20045,3.60813 -0.40091,4.00904 -0.20045,0.4009 -1.60361,1.06908 -2.13815,-0.46772 -0.53454,-1.5368 -1.33635,-4.54358 -1.60362,-4.87767 -0.26727,-0.33409 -1.73725,-1.33635 -3.00678,-1.33635 -1.26953,0 -2.93997,0.73499 -3.27405,1.26953 -0.33409,0.53454 -2.25677,4.35321 -2.60588,5.07812 -0.47406,0.98438 -1.06299,1.12997 -1.33635,-0.26727 -0.20045,-0.93544 -0.60135,-3.20723 -0.4009,-5.14494 0.20045,-1.9377 0.73499,-5.67947 0.73499,-5.67947 l -0.73499,-1.46999 c 0,0 -3.47451,3.34087 -3.80859,3.40769 -0.33409,0.0668 -1.20272,0 -0.66818,-1.26953 0.53454,-1.26953 3.00678,-4.94449 3.00678,-4.94449 z"
         style="display:inline;fill:#e5e5e5;fill-opacity:0.89803922;stroke:#000000;stroke-width:0.26458332px;stroke-linecap:butt;stroke-linejoin:miter;stroke-opacity:1" />
      <path
         inkscape:connector-curvature="0"
         id="path7504-1"
         d="m 138.03787,191.59649 c 0,0 6.56733,0.8032 8.55171,0.85045 1.98437,0.0472 11.29204,-0.85045 11.29204,-0.85045 0,0 -2.83482,6.42559 -3.44903,7.37054 -0.61422,0.94494 -3.59078,6.66183 -5.38617,6.89806 -1.79538,0.23623 -3.73251,0.18899 -4.7247,-1.93713 -0.99219,-2.12611 -3.59077,-6.47284 -4.67745,-8.7407 -1.08668,-2.26786 -1.6064,-3.59077 -1.6064,-3.59077 z"
         style="display:inline;fill:#565656;fill-opacity:0.84705882;stroke:#000000;stroke-width:0.26458332px;stroke-linecap:butt;stroke-linejoin:miter;stroke-opacity:1" />
      <path
         inkscape:connector-curvature="0"
         id="path2525-3-8-4"
         d="m 147.13822,179.651 c 0,0 -2.45009,0.15313 -3.36888,0.15313 -0.91878,0 -3.13918,0.76565 -4.2111,1.761 -1.07191,0.99535 -0.99535,0.91879 -0.99535,0.91879 0,0 4.67049,0.91878 7.73311,0.84221 3.06261,-0.0766 9.18784,-1.60787 9.18784,-1.60787 0,0 -2.37353,-1.761 -3.44544,-1.91413 -1.07192,-0.15313 -3.9814,-0.38283 -4.90018,-0.15313 z"
         style="display:inline;fill:#565656;fill-opacity:0.9254902;stroke:#000000;stroke-width:0.26499999;stroke-linecap:butt;stroke-linejoin:miter;stroke-miterlimit:4;stroke-dasharray:none;stroke-opacity:1" />
      <path
         inkscape:connector-curvature="0"
         id="path2527-7-8-8"
         d="m 146.99661,178.93074 c 0,0 1.3535,-1.29935 1.3535,-2.32801 0,-1.02866 1.13693,-2.38216 1.57005,-2.32802 0.43313,0.0541 1.13694,0.21656 1.13694,1.78662 0,1.57006 -0.97451,2.76113 -0.97451,2.76113 0,0 1.67833,-2.76113 2.38215,-3.14011 0.70382,-0.37898 3.89807,-0.37898 3.89807,-0.37898 0,0 -0.16242,1.3535 -0.64968,2.05732 -0.48726,0.70381 -1.6242,0.97451 -2.49043,1.29935 -0.86624,0.32484 -0.64968,0.32484 -0.64968,0.32484 0,0 3.03183,-1.19107 3.89807,-1.0828 0.86624,0.10828 2.4363,0.86624 2.86942,1.67834 0.43311,0.8121 1.73247,2.65286 1.73247,2.65286 0,0 -0.2707,1.02866 -2.11145,0.37898 -1.84076,-0.64968 -2.86942,-1.0828 -3.14011,-1.0828 -0.27071,0 -2.76114,-1.51592 -3.57324,-1.51592 -0.8121,0 -3.95221,-0.59554 -4.65603,-0.5414 -0.70382,0.0541 -1.40763,0.86624 -2.00318,1.02866 -0.59553,0.16242 -2.27387,0.16242 -2.76113,-0.16242 -0.48726,-0.32484 -0.43312,-0.59554 -0.8121,-0.37898 -0.37898,0.21656 -2.54458,1.6242 -2.54458,1.6242 0,0 -0.8121,0.37898 -1.40764,-0.32484 -0.59554,-0.70382 -1.40764,-2.59872 -1.40764,-2.59872 0,0 -0.2707,0.0542 1.57007,0.5414 1.84075,0.48726 2.86942,0.32484 2.86942,0.32484 0,0 -1.02867,-0.37898 -1.13695,-1.29936 -0.10828,-0.92037 0.32484,-3.19425 0.32484,-3.19425 0,0 1.24522,1.40764 1.67834,2.00318 0.43312,0.59554 0.59554,0.64967 0.59554,0.64967 0,0 0.2707,-1.40763 0.59554,-1.78661 0.32484,-0.37898 1.67834,-1.19108 2.00318,-1.0828 0.32483,0.10828 1.19107,1.51592 1.19107,2.27388 0,0.75795 -0.16241,1.46177 -0.16241,1.46177 0,0 0.59553,-0.0541 0.81209,0.37898 z"
         style="display:inline;fill:#828282;fill-opacity:0.88627451;stroke:#000000;stroke-width:0.26499999;stroke-linecap:butt;stroke-linejoin:miter;stroke-miterlimit:4;stroke-dasharray:none;stroke-opacity:1" />
      <g
         transform="matrix(0.48107812,-0.12525821,0.12873097,0.46005496,112.74254,157.75598)"
         id="g2503-8-0-1"
         style="display:inline;stroke:#000000;stroke-width:0.5438292;stroke-miterlimit:4;stroke-dasharray:none;stroke-opacity:1">
        <path
           style="fill:#f7f7f7;fill-opacity:0.88627451;stroke:#000000;stroke-width:0.5438292;stroke-linecap:butt;stroke-linejoin:miter;stroke-miterlimit:4;stroke-dasharray:none;stroke-opacity:1"
           d="m 43.106909,67.734814 c -3.414614,-0.779127 -8.30748,2.296594 -8.567182,7.436415 -0.259701,5.139822 0.596215,7.892369 4.994935,8.992678 4.398721,1.100305 7.387811,-3.348959 8.251725,-6.969099 0.863916,-3.620144 -1.264865,-8.680867 -4.679478,-9.459994 z"
           id="path2364-8-8-4"
           inkscape:connector-curvature="0"
           sodipodi:nodetypes="zzssz" />
        <path
           style="fill:#000000;fill-opacity:1;stroke:#000000;stroke-width:0.5438292;stroke-linecap:butt;stroke-linejoin:miter;stroke-miterlimit:4;stroke-dasharray:none;stroke-opacity:1"
           d="m 42.799122,73.205421 c -1.294824,-0.462829 -3.323451,0.678894 -3.636793,2.882142 -0.313343,2.20325 -0.09446,3.42028 1.569541,4.058103 1.664004,0.637823 3.00953,-1.166293 3.494883,-2.692707 0.485355,-1.526417 -0.132809,-3.784709 -1.427631,-4.247538 z"
           id="path2364-3-87-3-3"
           inkscape:connector-curvature="0"
           sodipodi:nodetypes="zzssz" />
        <path
           style="fill:#0a0803;fill-opacity:1;stroke:none;stroke-width:0.5438292;stroke-linecap:butt;stroke-linejoin:miter;stroke-miterlimit:4;stroke-dasharray:none;stroke-opacity:1"
           d="m 42.939554,65.661027 c 0,0 -1.756568,0.245906 -2.159629,0.345085 -0.403062,0.09918 -1.15984,0.289642 -0.857,0.366821 0.302845,0.07717 2.897646,-0.290976 3.365768,-0.242188 0.468121,0.04879 1.863248,0.239808 2.616961,0.911342 0.75371,0.671535 1.063061,1.242225 1.01148,0.812438 -0.05265,-0.438816 -0.356114,-0.744126 -0.634725,-1.092459 -0.278611,-0.348334 -1.668084,-1.337004 -3.342859,-1.101033 z"
           id="path2396-3-6-1-1-1"
           inkscape:connector-curvature="0"
           sodipodi:nodetypes="czcscscc" />
        <path
           style="fill:#a1a1a1;fill-opacity:0.83474576;stroke:#000000;stroke-width:0.5438292;stroke-miterlimit:4;stroke-dasharray:none;stroke-opacity:1"
           d="M 46.690949,75.683827 C 43.371214,75.276918 40.378469,74.5829 37.40691,73.530862 36.606389,73.247446 35.651199,72.868859 35.22296,72.665257 l -0.152329,-0.07242 0.120775,-0.304686 c 0.943644,-2.380613 3.445324,-4.226179 6.184254,-4.562314 1.5933,-0.195539 2.957817,0.229429 4.134115,1.287533 0.587351,0.528336 1.012679,1.066538 1.415676,1.791376 0.55757,1.002854 0.879277,1.994208 0.99876,3.077717 0.05197,0.471251 0.03507,1.30598 -0.03506,1.731867 -0.0286,0.173679 -0.03446,0.178794 -0.200417,0.174879 -0.09403,-0.0021 -0.543028,-0.04964 -0.99778,-0.10538 z"
           id="path2477-1-2-6"
           inkscape:connector-curvature="0" />
      </g>
      <g
         transform="matrix(-0.48107812,-0.12525821,-0.12873097,0.46005496,182.69289,157.67098)"
         id="g2503-8-0-1-1"
         style="display:inline;stroke:#000000;stroke-width:0.5438292;stroke-miterlimit:4;stroke-dasharray:none;stroke-opacity:1">
        <path
           style="fill:#f7f7f7;fill-opacity:0.88627451;stroke:#000000;stroke-width:0.5438292;stroke-linecap:butt;stroke-linejoin:miter;stroke-miterlimit:4;stroke-dasharray:none;stroke-opacity:1"
           d="m 43.106909,67.734814 c -3.414614,-0.779127 -8.30748,2.296594 -8.567182,7.436415 -0.259701,5.139822 0.596215,7.892369 4.994935,8.992678 4.398721,1.100305 7.387811,-3.348959 8.251725,-6.969099 0.863916,-3.620144 -1.264865,-8.680867 -4.679478,-9.459994 z"
           id="path2364-8-8-4-0"
           inkscape:connector-curvature="0"
           sodipodi:nodetypes="zzssz" />
        <path
           style="fill:#000000;fill-opacity:1;stroke:#000000;stroke-width:0.5438292;stroke-linecap:butt;stroke-linejoin:miter;stroke-miterlimit:4;stroke-dasharray:none;stroke-opacity:1"
           d="m 42.799122,73.205421 c -1.294824,-0.462829 -3.323451,0.678894 -3.636793,2.882142 -0.313343,2.20325 -0.09446,3.42028 1.569541,4.058103 1.664004,0.637823 3.00953,-1.166293 3.494883,-2.692707 0.485355,-1.526417 -0.132809,-3.784709 -1.427631,-4.247538 z"
           id="path2364-3-87-3-3-2"
           inkscape:connector-curvature="0"
           sodipodi:nodetypes="zzssz" />
        <path
           style="fill:#0a0803;fill-opacity:1;stroke:none;stroke-width:0.5438292;stroke-linecap:butt;stroke-linejoin:miter;stroke-miterlimit:4;stroke-dasharray:none;stroke-opacity:1"
           d="m 42.939554,65.661027 c 0,0 -1.756568,0.245906 -2.159629,0.345085 -0.403062,0.09918 -1.15984,0.289642 -0.857,0.366821 0.302845,0.07717 2.897646,-0.290976 3.365768,-0.242188 0.468121,0.04879 1.863248,0.239808 2.616961,0.911342 0.75371,0.671535 1.063061,1.242225 1.01148,0.812438 -0.05265,-0.438816 -0.356114,-0.744126 -0.634725,-1.092459 -0.278611,-0.348334 -1.668084,-1.337004 -3.342859,-1.101033 z"
           id="path2396-3-6-1-1-1-3"
           inkscape:connector-curvature="0"
           sodipodi:nodetypes="czcscscc" />
        <path
           style="fill:#a1a1a1;fill-opacity:0.83474576;stroke:#000000;stroke-width:0.5438292;stroke-miterlimit:4;stroke-dasharray:none;stroke-opacity:1"
           d="M 46.690949,75.683827 C 43.371214,75.276918 40.378469,74.5829 37.40691,73.530862 36.606389,73.247446 35.651199,72.868859 35.22296,72.665257 l -0.152329,-0.07242 0.120775,-0.304686 c 0.943644,-2.380613 3.445324,-4.226179 6.184254,-4.562314 1.5933,-0.195539 2.957817,0.229429 4.134115,1.287533 0.587351,0.528336 1.012679,1.066538 1.415676,1.791376 0.55757,1.002854 0.879277,1.994208 0.99876,3.077717 0.05197,0.471251 0.03507,1.30598 -0.03506,1.731867 -0.0286,0.173679 -0.03446,0.178794 -0.200417,0.174879 -0.09403,-0.0021 -0.543028,-0.04964 -0.99778,-0.10538 z"
           id="path2477-1-2-6-9"
           inkscape:connector-curvature="0" />
      </g>
      <path
         inkscape:connector-curvature="0"
         id="path7504-1-4"
         d="m 172.92014,191.74551 c 0,0 6.56733,0.8032 8.55171,0.85045 1.98437,0.0472 11.29204,-0.85045 11.29204,-0.85045 0,0 -2.83482,6.42559 -3.44903,7.37054 -0.61422,0.94494 -3.59078,6.66183 -5.38617,6.89806 -1.79538,0.23623 -3.73251,0.18899 -4.7247,-1.93713 -0.99219,-2.12611 -3.59077,-6.47284 -4.67745,-8.7407 -1.08668,-2.26786 -1.6064,-3.59077 -1.6064,-3.59077 z"
         style="display:inline;fill:#565656;fill-opacity:0.84705882;stroke:#000000;stroke-width:0.26458332px;stroke-linecap:butt;stroke-linejoin:miter;stroke-opacity:1" />
      <path
         style="fill:#e5e5e5;fill-opacity:0.89803922;stroke:#000000;stroke-width:0.26458332px;stroke-linecap:butt;stroke-linejoin:miter;stroke-opacity:1"
         d="m 182.67872,199.3798 c 0,0 -2.33861,0.26727 -2.6727,1.80407 -0.33408,1.5368 0.33409,7.14946 0.86863,7.81764 0.53454,0.66817 1.20271,0.93544 1.60362,0.73499 0.4009,-0.20045 2.27179,-3.74177 2.40542,-5.34539 0.13364,-1.60362 0.0668,-4.40995 -0.53454,-4.74404 -0.60135,-0.33408 -1.67043,-0.26727 -1.67043,-0.26727 z"
         id="path7958"
         inkscape:connector-curvature="0" />
      <path
         style="fill:#e5e5e5;fill-opacity:0.89803922;stroke:#000000;stroke-width:0.26458332px;stroke-linecap:butt;stroke-linejoin:miter;stroke-opacity:1"
         d="m 182.41145,193.90078 c 0,0 -1.5368,0.4009 -1.67044,1.00226 -0.13363,0.60136 0.93545,3.74177 1.46999,4.00904 0.53454,0.26727 1.00226,0.0668 1.20271,-0.73499 0.20045,-0.80181 0.53454,-3.54132 0.26727,-3.80859 -0.26727,-0.26727 -1.26953,-0.46772 -1.26953,-0.46772 z"
         id="path7960"
         inkscape:connector-curvature="0" />
      <path
         inkscape:connector-curvature="0"
         id="path2525-3-8-4-4"
         d="m 181.83924,180.03787 c 0,0 -2.58057,0.1713 -3.54829,0.1713 -0.96771,0 -3.30636,0.85646 -4.43537,1.96986 -1.12899,1.11341 -1.04835,1.02777 -1.04835,1.02777 0,0 4.91922,1.02775 8.14494,0.9421 3.2257,-0.0857 9.67714,-1.79858 9.67714,-1.79858 0,0 -2.49994,-1.96986 -3.62893,-2.14115 -1.129,-0.1713 -4.19343,-0.42824 -5.16114,-0.1713 z"
         style="display:inline;fill:#565656;fill-opacity:0.9254902;stroke:#000000;stroke-width:0.28764108;stroke-linecap:butt;stroke-linejoin:miter;stroke-miterlimit:4;stroke-dasharray:none;stroke-opacity:1" />
      <g
         transform="matrix(0.48107812,-0.12525821,0.12873097,0.46005496,161.53242,157.19334)"
         id="g2503-8-0-1-9"
         style="display:inline;stroke:#000000;stroke-width:0.5438292;stroke-miterlimit:4;stroke-dasharray:none;stroke-opacity:1">
        <path
           style="fill:#f7f7f7;fill-opacity:0.88627451;stroke:#000000;stroke-width:0.48597807;stroke-linecap:butt;stroke-linejoin:miter;stroke-miterlimit:4;stroke-dasharray:none;stroke-opacity:1"
           d="m 44.516594,68.087937 c -2.724996,-0.590836 -6.846942,2.710331 -7.323622,7.809455 -0.476679,5.099126 0.07385,7.777414 3.579198,8.634142 3.505346,0.856724 6.156672,-3.703067 7.043928,-7.330451 0.887258,-3.627388 -0.574508,-8.522311 -3.299504,-9.113146 z"
           id="path2364-8-8-4-3"
           inkscape:connector-curvature="0"
           sodipodi:nodetypes="zzssz" />
        <path
           style="fill:#000000;fill-opacity:1;stroke:#000000;stroke-width:0.5438292;stroke-linecap:butt;stroke-linejoin:miter;stroke-miterlimit:4;stroke-dasharray:none;stroke-opacity:1"
           d="m 45.978589,73.780612 c -1.294824,-0.462829 -3.323451,0.678894 -3.636793,2.882142 -0.313343,2.20325 -0.09446,3.42028 1.569541,4.058103 1.664004,0.637823 3.00953,-1.166293 3.494883,-2.692707 0.485355,-1.526417 -0.132809,-3.784709 -1.427631,-4.247538 z"
           id="path2364-3-87-3-3-5"
           inkscape:connector-curvature="0"
           sodipodi:nodetypes="zzssz" />
        <path
           style="fill:#0a0803;fill-opacity:1;stroke:none;stroke-width:0.5438292;stroke-linecap:butt;stroke-linejoin:miter;stroke-miterlimit:4;stroke-dasharray:none;stroke-opacity:1"
           d="m 42.939554,65.661027 c 0,0 -1.756568,0.245906 -2.159629,0.345085 -0.403062,0.09918 -1.15984,0.289642 -0.857,0.366821 0.302845,0.07717 2.897646,-0.290976 3.365768,-0.242188 0.468121,0.04879 1.863248,0.239808 2.616961,0.911342 0.75371,0.671535 1.063061,1.242225 1.01148,0.812438 -0.05265,-0.438816 -0.356114,-0.744126 -0.634725,-1.092459 -0.278611,-0.348334 -1.668084,-1.337004 -3.342859,-1.101033 z"
           id="path2396-3-6-1-1-1-6"
           inkscape:connector-curvature="0"
           sodipodi:nodetypes="czcscscc" />
        <path
           style="fill:#a1a1a1;fill-opacity:0.83474576;stroke:#000000;stroke-width:0.48863652;stroke-miterlimit:4;stroke-dasharray:none;stroke-opacity:1"
           d="M 46.931369,75.775256 C 44.247016,75.545345 41.843976,75.012858 39.476702,74.12339 38.838973,73.883769 38.080115,73.557682 37.741648,73.377821 l -0.120396,-0.06397 0.114169,-0.309204 c 0.892033,-2.415917 3.026122,-4.381926 5.275552,-4.860053 1.308547,-0.278139 2.398584,0.07253 3.302516,1.062421 0.451353,0.494276 0.770157,1.006879 1.061118,1.706169 0.402562,0.967508 0.613504,1.935986 0.654883,3.006698 0.018,0.465685 -0.03891,1.296284 -0.118068,1.723298 -0.03228,0.174139 -0.03732,0.179531 -0.172365,0.184366 -0.07652,0.0029 -0.439969,-0.02079 -0.807684,-0.05228 z"
           id="path2477-1-2-6-1"
           inkscape:connector-curvature="0" />
      </g>
      <path
         inkscape:connector-curvature="0"
         id="path2527-7-8-8-9"
         d="m 183.8388,179.53714 c 0,0 -1.23956,-1.40846 -1.15315,-2.43348 0.0864,-1.02503 -0.9328,-2.46925 -1.36893,-2.45169 -0.43615,0.0175 -1.15112,0.12029 -1.28301,1.6848 -0.13189,1.56451 0.73912,2.83323 0.73912,2.83323 0,0 -1.44045,-2.89235 -2.10995,-3.32912 -0.66949,-0.43676 -2.45866,0.0745 -2.45866,0.0745 0,0 -1.34569,0.58278 -0.91924,1.32505 0.42642,0.74225 1.5366,1.1075 2.37248,1.50396 0.83589,0.39646 0.62009,0.37827 0.62009,0.37827 0,0 -2.92105,-1.44155 -3.79333,-1.40643 -0.87227,0.0351 -1.72087,0.35141 -2.22068,1.12425 -0.4998,0.77285 2.53926,1.3404 2.53926,1.3404 0,0 -4.30513,2.20531 -2.41631,1.71256 1.88883,-0.49275 2.17065,-0.53082 2.44039,-0.50808 0.26975,0.0227 2.87872,-1.27861 3.68795,-1.21039 0.80923,0.0682 3.98827,-0.26143 4.68506,-0.14835 0.69678,0.11303 1.32988,0.98142 1.90968,1.1933 0.57978,0.21187 2.25219,0.35286 2.76502,0.0701 0.51282,-0.28276 0.48161,-0.55705 0.84106,-0.30942 0.35945,0.24763 2.39915,1.83222 2.39915,1.83222 0,0 0.77739,0.44586 1.42995,-0.20544 0.65256,-0.65131 1.62097,-2.47129 1.62097,-2.47129 0,0 0.26519,0.0768 -1.61,0.4076 -1.87518,0.3309 -2.88657,0.0826 -2.88657,0.0826 0,0 1.05687,-0.29123 1.24209,-1.19926 0.18521,-0.90802 -0.0554,-3.21024 -0.0554,-3.21024 0,0 -1.35907,1.29806 -1.84069,1.85511 -0.48161,0.55705 -0.64801,0.59734 -0.64801,0.59734 0,0 -0.15149,-1.42539 -0.44335,-1.83032 -0.29185,-0.40493 -1.57235,-1.32786 -1.90513,-1.24725 -0.33278,0.0806 -1.31421,1.4105 -1.37788,2.16578 -0.0637,0.75527 0.039,1.47025 0.039,1.47025 0,0 -0.45525,-0.85564 -0.70743,-0.44228 z"
         style="display:inline;fill:#828282;fill-opacity:0.88627451;stroke:#000000;stroke-width:0.26499999;stroke-linecap:butt;stroke-linejoin:miter;stroke-miterlimit:4;stroke-dasharray:none;stroke-opacity:1"
         sodipodi:nodetypes="cccscccccccccccccccsccccccccccccccc" />
    </g>
  </g>
</svg>
