<?xml version="1.0" encoding="UTF-8" standalone="no"?>
<!-- Created with Inkscape (http://www.inkscape.org/) -->

<svg
   width="297mm"
   height="210mm"
   viewBox="0 0 297 210"
   version="1.1"
   id="svg816"
   xml:space="preserve"
   inkscape:version="1.2.2 (732a01da63, 2022-12-09)"
   sodipodi:docname="murder_scene.svg"
   inkscape:export-filename="murder_scene.png"
   inkscape:export-xdpi="96"
   inkscape:export-ydpi="96"
   xmlns:inkscape="http://www.inkscape.org/namespaces/inkscape"
   xmlns:sodipodi="http://sodipodi.sourceforge.net/DTD/sodipodi-0.dtd"
   xmlns="http://www.w3.org/2000/svg"
   xmlns:svg="http://www.w3.org/2000/svg"><sodipodi:namedview
     id="namedview818"
     pagecolor="#ffffff"
     bordercolor="#000000"
     borderopacity="0.25"
     inkscape:showpageshadow="2"
     inkscape:pageopacity="0.0"
     inkscape:pagecheckerboard="0"
     inkscape:deskcolor="#d1d1d1"
     inkscape:document-units="mm"
     showgrid="false"
     inkscape:zoom="0.914906"
     inkscape:cx="595.68961"
     inkscape:cy="400.0411"
     inkscape:window-width="2560"
     inkscape:window-height="1369"
     inkscape:window-x="-8"
     inkscape:window-y="-8"
     inkscape:window-maximized="1"
     inkscape:current-layer="layer1" /><defs
     id="defs813"><rect
       x="724.18265"
       y="138.34439"
       width="281.32602"
       height="155.34761"
       id="rect21160" /><clipPath
       clipPathUnits="userSpaceOnUse"
       id="clipPath17021"><path
         style="fill:#bfbfbf;fill-opacity:1;stroke:none;stroke-width:0.0899999;stroke-dasharray:none;stroke-opacity:1;paint-order:stroke fill markers"
         d="m 134.77296,44.248488 c -0.25304,-0.180745 -2.74732,-0.0723 -3.14496,0.36149 -0.39764,0.433787 -0.28919,0.542234 -1.699,1.626703 -1.40981,1.084471 -2.09664,1.554406 -3.5426,2.638877 -1.44596,1.084469 -1.95204,1.373662 -2.71117,2.566578 -0.75913,1.192916 -0.90373,2.241235 -0.61453,2.747322 0.28919,0.506084 0.0723,2.349683 3.00036,0.180745 2.92807,-2.168941 2.81962,-3.181112 5.45849,-4.880113 2.63888,-1.699003 3.9041,-4.59092 3.25341,-5.241602 z"
         id="path17023" /></clipPath><clipPath
       clipPathUnits="userSpaceOnUse"
       id="clipPath17954"><path
         style="fill:#f3cd69;fill-opacity:0.44382;stroke:none;stroke-width:0.0899999;stroke-dasharray:none;stroke-opacity:1;paint-order:stroke fill markers"
         d="m 120.01461,47.499754 c -0.18075,0 -3.36186,-0.506084 -5.3862,0.903724 -2.02435,1.409814 -8.35042,3.904091 -9.03725,5.964582 -0.68683,2.060493 -2.85577,3.000367 -3.03651,4.843962 -0.18075,1.843598 -1.699,3.036515 -1.9159,3.831794 -0.21689,0.795279 1.12062,1.735151 1.7713,1.807448 0.65068,0.0723 12.65214,-3.831791 15.11028,-6.434516 2.45813,-2.60273 3.10881,-10.700099 2.49428,-10.916994 z"
         id="path17956" /></clipPath></defs><g
     inkscape:label="Calque 1"
     inkscape:groupmode="layer"
     id="layer1"><rect
       style="fill:#2b3422;fill-opacity:1;stroke:none;stroke-width:0.144828;stroke-dasharray:none;stroke-opacity:1;paint-order:stroke fill markers"
       id="rect18010"
       width="264.56134"
       height="181.49329"
       x="17.504616"
       y="16.768871"
       ry="10.908051" /><g
       id="g20246"
       transform="matrix(1.6091997,0,0,1.6091997,-18.561353,-6.2668178)"><path
         style="fill:#bfbfbf;fill-opacity:1;stroke-width:0.1"
         d="m 79.322226,63.504177 c 0,0 24.988744,-21.143245 25.521174,-20.821812 0.58309,0.352019 -1.07332,4.349892 -2.85183,6.942248 -0.22802,0.332353 -0.96086,-0.112628 -1.16947,0.191317 -0.29332,0.427388 -0.0743,0.931065 -0.23139,1.129809 -0.13503,0.170818 -1.105637,-0.02646 -1.430408,0.262646 -0.092,0.0819 -0.141022,1.247555 -0.352981,1.44905 -0.164987,0.156842 -0.939603,0.129375 -1.223313,0.396029 -0.46023,0.432569 -0.113051,0.945148 -0.33987,1.158947 -0.183351,0.172826 -0.84467,-0.179245 -1.21394,0.153832 -0.64776,0.584266 -0.217256,1.16539 -0.415196,1.391397 -0.198888,0.22709 -1.062854,-0.03794 -1.127874,0.113779 -0.21689,0.506091 0.136851,0.951003 -0.129633,1.195266 -0.216897,0.198811 -1.250547,-0.02687 -1.322847,0.334646 -0.0723,0.361489 0.09641,0.896361 -0.174536,1.152162 -0.205984,0.194471 -1.363394,-0.205773 -1.507994,0.589501 -0.14459,0.795276 -0.02921,0.851496 -0.198963,0.993501 -0.120503,0.100803 -0.824407,-0.118435 -1.271287,0.192527 -0.21715,0.151104 -0.138814,0.965062 -0.259409,1.135031 -0.237372,0.334556 -0.835021,0.438002 -0.973831,0.594164 -0.57839,0.650677 -6.073026,5.494645 -6.073026,5.494645 z"
         id="path5375"
         sodipodi:nodetypes="cssssssssssssssssssscc" /><path
         style="display:inline;fill:#f3cd69;fill-opacity:0.615168;stroke-width:0.1"
         d="m 93.819382,63.08178 c 0,0 24.988738,-21.143245 25.521168,-20.821812 0.58309,0.352019 -1.07332,4.349892 -2.85183,6.942248 -0.22802,0.332353 -0.96086,-0.112628 -1.16946,0.191317 -0.29333,0.427388 -0.0743,0.931065 -0.2314,1.129809 -0.13503,0.170818 -1.10563,-0.02646 -1.43041,0.262646 -0.092,0.0819 -0.14102,1.247555 -0.35298,1.44905 -0.16498,0.156842 -0.9396,0.129375 -1.22331,0.396029 -0.46023,0.432569 -0.11305,0.945148 -0.33987,1.158947 -0.18335,0.172826 -0.84467,-0.179245 -1.21394,0.153832 -0.64776,0.584266 -0.21726,1.16539 -0.4152,1.391397 -0.19888,0.22709 -1.06285,-0.03794 -1.12787,0.113779 -0.21689,0.506091 0.13685,0.951003 -0.12963,1.195266 -0.2169,0.198811 -1.25055,-0.02687 -1.32285,0.334646 -0.0723,0.361489 0.0964,0.896361 -0.17453,1.152162 -0.20599,0.194471 -1.3634,-0.205773 -1.508,0.589501 -0.14459,0.795276 -0.0292,0.851496 -0.19896,0.993501 -0.1205,0.100803 -0.82441,-0.118435 -1.27129,0.192527 -0.21715,0.151104 -0.13881,0.965062 -0.2594,1.135031 -0.23738,0.334556 -0.83503,0.438002 -0.97384,0.594164 -0.57839,0.650677 -6.073022,5.494645 -6.073022,5.494645 z"
         id="path5375-9"
         sodipodi:nodetypes="cssssssssssssssssssscc"
         clip-path="url(#clipPath17954)"
         transform="translate(-14.459591,0.43378775)" /><path
         style="fill:#fbedcd;fill-opacity:1;stroke-width:0.1"
         d="m 68.869255,100.48126 c 0.4681,5.96648 0.731014,7.28536 0.373503,7.30114 -0.357509,0.0158 -3.223298,-15.05584 -3.25261,-15.719784 -0.02931,-0.663944 -0.451989,-3.034037 1.040905,-2.502217 0.923531,1.818066 1.711143,9.342788 1.838202,10.920861 z"
         id="path3407-1"
         sodipodi:nodetypes="csscc" /><path
         style="fill:#fbedcd;fill-opacity:1;stroke-width:0.108094"
         d="m 69.670452,67.896276 5.368123,4.75169 -1.554406,1.267116 -4.807815,-4.709452 z"
         id="path3405" /><path
         style="display:inline;fill:#fbedcd;fill-opacity:1;stroke:none;stroke-width:0.0742243"
         d="m 63.496078,68.262105 c -1.618007,-0.08776 -3.97068,-0.334207 -4.08317,-0.427717 -0.06341,-0.05271 -1.656069,-10.273057 -1.656129,-10.62771 -3.5e-5,-0.16883 0.02369,-0.18841 0.183127,-0.15094 0.95986,0.225622 2.635193,0.417046 4.489758,0.512998 1.859898,0.09623 5.615994,-0.08358 7.855294,-0.376059 0.420534,-0.05493 0.781665,-0.08568 0.802512,-0.06832 0.03236,0.02686 -0.620226,8.403237 -0.76629,9.836231 l -0.05016,0.491642 -0.375362,0.138814 c -1.52884,0.565429 -3.853462,0.809191 -6.399625,0.671085 z"
         id="path2785-1"
         inkscape:connector-curvature="0" /><path
         style="display:inline;fill:#fc6305;fill-opacity:1;stroke:none;stroke-width:0.0760677"
         d="m 66.26954,106.05796 c -0.311213,-0.74152 -7.302245,-38.451779 -7.150547,-38.57067 0.01774,-0.01389 0.513257,0.03022 1.101084,0.09814 1.776419,0.205196 3.626819,0.291315 5.402712,0.251432 1.806172,-0.04053 2.622823,-0.145876 3.960247,-0.510742 0.419494,-0.114444 0.781539,-0.193201 0.804509,-0.175017 0.143226,0.113355 -2.093934,22.010962 -3.54623,34.711097 -0.486737,4.25636 -0.501341,4.36357 -0.571775,4.19576 z"
         id="path2783-2"
         inkscape:connector-curvature="0" /><path
         style="fill:#573e06;fill-opacity:1;stroke-width:0.1"
         d="m 67.592291,72.368728 c 0,0 10.244594,-9.062851 11.195798,-9.04866 0.951205,0.01419 4.140912,3.527444 4.140912,4.345403 0,0.817957 -23.51629,19.835482 -24.334247,19.733236 -0.817959,-0.102246 -4.498771,-3.8853 -3.783057,-5.009994 0.715713,-1.124691 12.780594,-10.019985 12.780594,-10.019985 z"
         id="path2093"
         sodipodi:nodetypes="czsssc" /><path
         style="fill:#fbedcd;fill-opacity:1;stroke-width:0.1"
         d="m 65.547396,70.835058 c 0,0 -1.329182,-0.306734 -1.840404,0.613469 -0.511226,0.920202 0.204488,3.783054 0.817956,5.316725 0.613468,1.533673 4.149684,2.223512 6.399069,1.814535 2.249384,-0.40898 2.614947,-2.116662 2.717192,-2.525642 0.102246,-0.408979 0.08577,-0.209095 -1.856883,0.199884 -1.94265,0.40898 -3.987546,-0.817957 -4.396525,-2.044896 -0.40898,-1.226936 -1.022448,-2.351627 -1.840405,-3.374075 z"
         id="path1138"
         sodipodi:nodetypes="cssssssc" /><path
         style="fill:#fbedcd;fill-opacity:1;stroke-width:0.1"
         d="m 75.632946,74.065069 c 0,0 -2.110461,-1.082872 -2.621683,-0.878381 -0.511226,0.204489 -0.437948,0.302598 -0.162138,0.779146 0.456998,0.789609 1.778383,2.143599 2.187363,2.143599 0.408977,0 2.436862,-1.942118 0.596458,-2.044364 z"
         id="path2581"
         sodipodi:nodetypes="csssc" /><path
         style="fill:#fbedcd;fill-opacity:1;stroke-width:0.1"
         d="m 63.349135,102.78654 c -0.204491,5.98132 -0.408979,7.31051 -0.05112,7.31051 0.357857,0 2.556118,-15.183355 2.556118,-15.847946 0,-0.664591 0.317732,-3.05102 -1.150254,-2.453872 -0.842445,1.857029 -1.29741,9.409168 -1.354744,10.991308 z"
         id="path3407"
         sodipodi:nodetypes="csscc" /><path
         inkscape:connector-curvature="0"
         id="path2710-0-7"
         d="m 67.944928,44.162236 c 0,0 -4.43495,-1.957035 -5.61118,-1.121031 -1.17622,0.835989 -0.23347,-1.030809 0.3377,-2.219253 0.57116,-1.188437 1.50765,-4.937953 0.23605,-6.841905 -1.27159,-1.903953 -0.32259,-1.88804 -0.32259,-1.88804 0,0 2.44782,1.067963 3.43955,-3.365213 0.99173,-4.43317 0.99173,-4.43317 0.99173,-4.43317 0,0 1.53269,2.59292 3.82364,-0.278124 2.29094,-2.871036 2.46292,-3.039314 2.46292,-3.039314 0,0 -1.44615,6.137011 -0.58001,7.178433 0.86614,1.041422 2.27584,1.236234 2.27584,1.236234 0,0 -3.32907,1.997892 -2.60103,4.748462 0.72805,2.750556 1.82768,4.822765 1.82768,4.822765 0,0 -2.29095,2.871058 -2.57341,4.40665 -0.28245,1.53557 0.12301,2.398108 0.12301,2.398108 0,0 -2.22686,-3.802599 -3.8299,-1.604602 z"
         style="display:inline;fill:#b9de24;fill-opacity:1;stroke:none;stroke-width:0.325752px;stroke-linecap:butt;stroke-linejoin:miter;stroke-opacity:1" /><path
         inkscape:connector-curvature="0"
         id="path2710-6"
         d="m 59.818818,40.007448 c 0,0 -3.47022,0.569604 -3.86507,1.414373 -0.39485,0.844777 -0.54249,-0.444976 -0.65422,-1.255792 -0.11173,-0.810802 -0.99336,-3.062182 -2.50913,-3.58633 -1.51577,-0.524127 -0.92943,-0.852247 -0.92943,-0.852247 0,0 1.91062,-0.320635 0.79761,-2.941593 -1.11299,-2.620965 -1.11299,-2.620965 -1.11299,-2.620965 0,0 1.94257,0.784332 2.22965,-1.49727 0.28709,-2.281602 0.32696,-2.428681 0.32696,-2.428681 0,0 1.49598,3.654251 2.42937,3.880481 0.93339,0.226238 1.87074,-0.173556 1.87074,-0.173556 0,0 -1.26035,2.202459 0.25145,3.352616 1.51181,1.150158 2.9877,1.821365 2.9877,1.821365 0,0 -0.28709,2.281609 0.13577,3.167837 0.42286,0.886215 1.00524,1.184112 1.00524,1.184112 0,0 -2.83609,-1.157642 -2.96365,0.53565 z"
         style="display:inline;fill:#b9de24;fill-opacity:1;stroke:none;stroke-width:0.218616px;stroke-linecap:butt;stroke-linejoin:miter;stroke-opacity:1" /><path
         inkscape:connector-curvature="0"
         id="path2665-6"
         d="m 57.906784,56.900323 c 0.78576,-1.544386 2.55878,-3.096844 4.19985,-3.677376 3.12136,-1.104152 6.17626,0.01318 8.46001,3.094366 0.36101,0.487065 0.6632,0.939418 0.6715,1.005198 0.0261,0.206743 -4.50022,0.641077 -7.05998,0.67743 -1.68685,0.02392 -4.41236,-0.228278 -5.6423,-0.522158 -0.81848,-0.195062 -0.82177,-0.198758 -0.62908,-0.57746 z"
         style="display:inline;fill:#fc6305;fill-opacity:1;stroke:none;stroke-width:0.153534" /><path
         inkscape:connector-curvature="0"
         id="path2663-6"
         d="m 62.59026,53.347697 c 0,0 -0.71029,-8.802629 -0.97115,-9.944672 -0.26085,-1.142037 -6.60307,-12.619701 -6.60307,-12.619701 0,0 7.67167,10.181688 8.08952,13.750558 0.41784,3.568884 0.54148,5.217051 0.54148,5.217051 0,0 0.80157,-8.667338 1.76615,-12.825836 0.96458,-4.158512 2.6155,-7.842442 2.6155,-7.842442 0,0 -1.1331,6.58352 -2.16815,12.805489 -1.03508,6.221984 -1.1114,9.208739 -1.1114,9.208739 0,0 1.75854,-8.589533 3.25068,-11.387241 1.49212,-2.797708 1.49212,-2.797708 1.49212,-2.797708 0,0 -2.79584,9.108683 -3.1643,12.872279 -0.36849,3.763574 -0.44885,4.360564 -0.44885,4.360564 0,0 -2.60995,0.908545 -3.28851,-0.797065 z"
         style="display:inline;fill:#94b42e;fill-opacity:1;stroke:none;stroke-width:0.429895px;stroke-linecap:butt;stroke-linejoin:miter;stroke-opacity:1" /><g
         transform="matrix(0.41326824,-0.11456742,0.11058582,0.42078925,40.021473,35.183558)"
         id="g2503-8-3-22"
         style="display:inline"><path
           style="fill:#ffffff;fill-opacity:1;stroke:#f0f0f0;stroke-width:0.227;stroke-linecap:butt;stroke-linejoin:miter;stroke-miterlimit:4;stroke-dasharray:none;stroke-opacity:0.881355"
           d="m 43.106909,67.734814 c -3.414614,-0.779127 -8.30748,2.296594 -8.567182,7.436415 -0.259701,5.139822 0.596215,7.892369 4.994935,8.992678 4.398721,1.100305 7.387811,-3.348959 8.251725,-6.969099 0.863916,-3.620144 -1.264865,-8.680867 -4.679478,-9.459994 z"
           id="path2364-8-4-6"
           inkscape:connector-curvature="0"
           sodipodi:nodetypes="zzssz" /><path
           style="fill:#000000;fill-opacity:1;stroke:none;stroke-width:0.0932817;stroke-linecap:butt;stroke-linejoin:miter;stroke-miterlimit:4;stroke-dasharray:none;stroke-opacity:0.881355"
           d="m 42.799122,73.205421 c -1.294824,-0.462829 -3.323451,0.678894 -3.636793,2.882142 -0.313343,2.20325 -0.09446,3.42028 1.569541,4.058103 1.664004,0.637823 3.00953,-1.166293 3.494883,-2.692707 0.485355,-1.526417 -0.132809,-3.784709 -1.427631,-4.247538 z"
           id="path2364-3-87-4-9"
           inkscape:connector-curvature="0"
           sodipodi:nodetypes="zzssz" /><path
           style="fill:#feb487;fill-opacity:1;stroke:none;stroke-width:0.0445977"
           d="M 46.576905,77.717768 C 43.25717,77.310859 38.201318,73.656472 37.411424,73.146971 36.548431,72.589245 36.005696,72.065656 35.615962,71.718157 l -0.152329,-0.07242 0.120775,-0.304686 c 1.228179,-1.857155 3.056836,-3.66297 5.795766,-3.999105 1.5933,-0.195539 2.957817,0.229429 4.134115,1.287533 0.587351,0.528336 1.012679,1.066538 1.415676,1.791376 0.55757,1.002854 1.012402,2.394331 1.175457,3.853582 0.117945,1.750657 -0.260185,2.947947 -0.330315,3.373834 -0.0286,0.173679 -0.03446,0.178794 -0.200417,0.174879 -0.09403,-0.0021 -0.543028,-0.04964 -0.99778,-0.10538 z"
           id="path2477-1-6-6"
           inkscape:connector-curvature="0"
           sodipodi:nodetypes="cccccscsccccc" /><path
           style="fill:#0a0803;fill-opacity:1;stroke-width:0.231516"
           d="m 39.721628,65.045835 c 0,0 2.514818,-1.07692 2.883455,-1.067674 0.36863,0.0092 5.591256,3.375066 6.245388,4.282115 0.654127,0.907047 0.815074,1.345716 0.435718,1.02982 -0.379355,-0.315895 -5.773647,-4.42703 -6.23486,-4.552604 -0.461206,-0.125571 -3.206823,0.311429 -3.329701,0.308343 z"
           id="path3515" /></g><g
         transform="matrix(-0.25814308,-0.10697822,-0.06907612,0.39291525,86.805441,36.470286)"
         id="g2503-8-3-22-0"
         style="display:inline"><path
           style="fill:#ffffff;fill-opacity:1;stroke:#f0f0f0;stroke-width:0.227;stroke-linecap:butt;stroke-linejoin:miter;stroke-miterlimit:4;stroke-dasharray:none;stroke-opacity:0.881355"
           d="m 43.106909,67.734814 c -3.414614,-0.779127 -8.30748,2.296594 -8.567182,7.436415 -0.259701,5.139822 0.596215,7.892369 4.994935,8.992678 4.398721,1.100305 7.387811,-3.348959 8.251725,-6.969099 0.863916,-3.620144 -1.264865,-8.680867 -4.679478,-9.459994 z"
           id="path2364-8-4-6-3"
           inkscape:connector-curvature="0"
           sodipodi:nodetypes="zzssz" /><path
           style="fill:#000000;fill-opacity:1;stroke:none;stroke-width:0.0932817;stroke-linecap:butt;stroke-linejoin:miter;stroke-miterlimit:4;stroke-dasharray:none;stroke-opacity:0.881355"
           d="m 42.799122,73.205421 c -1.294824,-0.462829 -3.323451,0.678894 -3.636793,2.882142 -0.313343,2.20325 -0.09446,3.42028 1.569541,4.058103 1.664004,0.637823 3.00953,-1.166293 3.494883,-2.692707 0.485355,-1.526417 -0.132809,-3.784709 -1.427631,-4.247538 z"
           id="path2364-3-87-4-9-6"
           inkscape:connector-curvature="0"
           sodipodi:nodetypes="zzssz" /><path
           style="fill:#feb487;fill-opacity:1;stroke:none;stroke-width:0.0445977"
           d="M 46.576905,77.717768 C 43.25717,77.310859 38.201318,73.656472 37.411424,73.146971 36.548431,72.589245 36.005696,72.065656 35.615962,71.718157 l -0.152329,-0.07242 0.120775,-0.304686 c 1.228179,-1.857155 3.056836,-3.66297 5.795766,-3.999105 1.5933,-0.195539 2.957817,0.229429 4.134115,1.287533 0.587351,0.528336 1.012679,1.066538 1.415676,1.791376 0.55757,1.002854 1.012402,2.394331 1.175457,3.853582 0.117945,1.750657 -0.260185,2.947947 -0.330315,3.373834 -0.0286,0.173679 -0.03446,0.178794 -0.200417,0.174879 -0.09403,-0.0021 -0.543028,-0.04964 -0.99778,-0.10538 z"
           id="path2477-1-6-6-3"
           inkscape:connector-curvature="0"
           sodipodi:nodetypes="cccccscsccccc" /><path
           style="fill:#0a0803;fill-opacity:1;stroke-width:0.303145"
           d="m 49.047761,69.346901 c 0,0 -2.486145,-3.137952 -3.419555,-3.9671 -0.93342,-0.829151 -1.492091,-1.096267 -2.132883,-0.925725 -0.640783,0.170545 -2.226762,1.256766 -1.910132,1.25097 0.316629,-0.0058 2.219609,-0.706699 2.551653,-0.639291 0.332061,0.06738 4.148924,4.119679 4.910917,4.281146 z"
           id="path5299" /></g></g><g
       id="g20197"
       transform="matrix(1.6091997,0,0,1.6091997,-18.561353,-6.2668178)"><path
         style="fill:#fbedcd;fill-opacity:1;stroke:none;stroke-width:0.0899999;stroke-dasharray:none;stroke-opacity:1;paint-order:stroke fill markers"
         d="m 106.71178,80.756815 c 0,0 -6.50682,4.988559 -7.374389,6.434518 -0.867577,1.445958 -0.911379,4.1232 0.17309,3.76171 1.084469,-0.361492 7.056709,-5.207669 7.345899,-6.147543 0.28919,-0.939874 -0.1446,-4.048685 -0.1446,-4.048685 z"
         id="path19300"
         sodipodi:nodetypes="csssc" /><path
         style="fill:#f3cd69;fill-opacity:1;stroke-width:0.0999999"
         d="m 97.39671,100.80992 c 0,0 -2.89191,1.87975 -6.21762,1.87975 -3.3257,0 -8.24197,1.73515 -6.65141,3.4703 1.59056,1.73515 9.54333,0.28919 13.30282,2.45813 3.7595,2.16894 10.12172,3.6149 15.18257,2.45813 5.06086,-1.15676 7.66359,-2.31353 15.18257,-0.86757 7.519,1.44596 6.50682,0.43379 13.44742,-0.28919 6.94061,-0.72298 9.10955,0.86757 13.73662,-0.57839 4.62707,-1.44596 8.24196,-2.89192 5.63924,-5.49464 -2.60273,-2.60273 -5.92844,-3.7595 -8.53116,-3.47031 -2.60273,0.28919 -8.38657,1.73515 -12.43525,0.43379 -4.04868,-1.301362 -8.24197,-2.168939 -13.30283,-2.024342 -5.06085,0.144595 -5.35004,0.578382 -13.01363,1.012172 -7.66358,0.43379 -16.33934,1.01217 -16.33934,1.01217 z"
         id="path11825" /><path
         style="fill:#fbedcd;fill-opacity:1;stroke-width:0.0999999"
         d="m 129.49701,103.77414 c 0,0 -3.25341,1.95205 -5.42235,2.89192 -2.16893,0.93987 -3.10881,-0.1446 -2.38583,-0.86758 0.72298,-0.72298 5.14557,-3.32571 5.14557,-3.32571 z"
         id="path11117"
         sodipodi:nodetypes="csscc" /><path
         style="fill:#f1b422;fill-opacity:1;stroke-width:0.0999999"
         d="m 141.52905,80.117533 c 0,0 -2.91397,-1.891531 -3.62969,-1.993774 -0.71571,-0.102246 -1.27806,-0.204491 -1.27806,-0.204491 0,0 -6.64591,2.453876 -9.35539,9.611009 -2.70949,7.157129 -2.24939,15.387833 -2.24939,15.387833 0,0 3.78306,0.9202 4.24316,1.12469 0.4601,0.20449 0.61347,0.20449 0.61347,0.20449 0,0 1.27806,-7.668354 3.16959,-11.502532 1.89152,-3.834179 7.106,-10.991312 8.48631,-12.627225 z"
         id="path11046"
         sodipodi:nodetypes="cscscscsc" /><path
         style="fill:#fbedcd;fill-opacity:1;stroke-width:0.0999999"
         d="m 117.32585,103.42056 c 0,0 -17.33049,0.20449 -18.65967,-0.81795 -1.32918,-1.02245 -0.160677,-3.843676 1.88422,-4.712758 2.0449,-0.869079 7.55151,-3.383567 8.01161,-3.076833 0.46011,0.306734 8.40598,8.300811 8.76384,8.607541 z"
         id="path9324"
         sodipodi:nodetypes="csssc" /><path
         style="fill:#fbedcd;fill-opacity:1;stroke-width:0.0999999"
         d="m 111.78401,82.735432 c 0,0 -6.28992,4.771665 -7.0852,6.145327 -0.79528,1.373661 -1.73515,3.904088 -1.15677,4.337878 0.57839,0.433787 4.41018,-2.53043 5.56694,-3.181112 1.15677,-0.650682 3.47031,-2.964215 3.54261,-3.687196 0.0723,-0.72298 -0.86758,-3.614897 -0.86758,-3.614897 z"
         id="path9176" /><path
         sodipodi:nodetypes="cccsssccccccccscccscsscsssscc"
         inkscape:connector-curvature="0"
         id="path836-5"
         d="m 134.69201,113.20035 c 1.73536,-2.11849 3.32543,-3.75068 4.4505,-4.56836 0.48825,-0.35485 1.18139,-0.68373 2.18363,-1.03606 2.07531,-0.72957 4.36732,-1.26358 6.30881,-1.46989 1.87481,-0.19922 3.63775,-0.65256 4.33675,-1.11517 0.70039,-0.46354 1.37287,-1.48605 1.34137,-2.03955 -0.0337,-0.5925 -0.74195,-1.14595 -1.97815,-1.54587 l -0.60795,-0.19622 0.16677,-0.44544 c 0.0917,-0.24498 0.17675,-0.45153 0.18894,-0.45898 0.0118,-0.008 0.44018,0.14562 0.95099,0.34026 1.19569,0.45539 3.18248,1.07902 4.40684,1.38336 l 0.96222,0.23897 0.27962,0.39772 c 0.48786,0.69389 0.51421,0.6622 -0.40513,0.48717 -1.78385,-0.33962 -2.23687,-0.45045 -3.12015,-0.76342 l -0.87105,-0.30865 0.17934,0.3467 c 0.22616,0.43724 0.27595,0.75714 0.17022,1.09369 -0.0824,0.26231 -0.4379,0.81197 -0.81271,1.25658 -0.19429,0.23047 -0.20653,0.26011 -0.20948,0.50731 -0.004,0.36762 -0.13257,1.46843 -0.27979,2.40359 -0.15029,0.95466 -0.56577,2.36143 -0.8521,2.88523 -0.21262,0.38887 -0.66403,1.00504 -0.95534,1.304 -0.84326,0.86536 -2.21764,1.58661 -3.8247,2.00713 -2.47384,0.64733 -6.82254,0.77221 -11.60622,0.33332 -0.61891,-0.0568 -1.07256,0.0179 -1.03582,-0.25444 0.001,-0.0101 0.22626,-0.28649 0.63249,-0.78241 z"
         style="fill:#2f860d;fill-opacity:1;stroke:none;stroke-width:0.0527717" /><path
         inkscape:connector-curvature="0"
         id="path2398-0"
         d="m 152.03832,105.4125 c 0,0 -1.91983,3.62111 -5.19783,4.46876 -3.27801,0.84765 -7.25068,1.78998 -8.80777,2.51333 -1.55709,0.72335 -2.28326,1.0428 -2.28326,1.0428"
         style="fill:none;stroke:#67a554;stroke-width:0.147993;stroke-linecap:round;stroke-linejoin:miter;stroke-miterlimit:4;stroke-dasharray:none;stroke-opacity:1" /><path
         sodipodi:nodetypes="czccccccccccc"
         inkscape:connector-curvature="0"
         id="path857-2"
         d="m 100.24699,91.66551 c -0.46866,-1.858024 1.10718,-3.669043 2.4574,-4.915939 1.35023,-1.246897 2.83902,-1.611018 3.43561,-3.047313 0.76963,-1.456973 -0.0557,-2.557224 0.98182,-3.541725 3.30001,-2.500367 2.72613,-2.553434 6.34725,-3.011866 0.0636,1.347719 0.15318,2.878058 0.46817,3.975933 0.63189,5.817029 3.03609,12.491436 5.55989,17.268206 1.03176,1.498172 1.1511,2.858704 2.02342,4.468354 -0.48686,0.58683 -1.6398,0.84979 -4.43757,0.59988 -1.13538,-0.14158 -3.6938,-1.37404 -4.62503,-2.21255 -2.06008,-1.696051 -2.99429,-3.083507 -4.55693,-4.482868 -0.69375,-0.158238 -2.55617,-0.82256 -3.47476,-0.931922 -3.05967,-0.307868 -3.87894,-1.648708 -4.17927,-4.16819 z"
         style="display:inline;fill:#f1b422;fill-opacity:1;stroke:none;stroke-width:0.0527717" /><path
         style="fill:#f8da92;fill-opacity:1;stroke-width:0.0999999"
         d="m 113.609,77.228383 c 0,0 -0.44256,4.320336 1.58179,10.754852 2.02434,6.434518 5.94704,15.078515 6.30853,14.933915 0.36149,-0.1446 4.25574,-16.362332 -7.89032,-25.688767 z"
         id="path9326"
         sodipodi:nodetypes="cssc" /><path
         style="display:inline;fill:none;fill-opacity:1;stroke:#fef7ce;stroke-width:0.990003;stroke-dasharray:none;stroke-opacity:1"
         d="m 113.7407,77.522284 c -0.79528,0.216894 -0.17659,4.600865 1.56981,10.156446 1.74639,5.555583 5.66294,14.90993 6.00941,14.79717 0.34646,-0.11277 3.03174,-20.206431 -7.57922,-24.953616 z"
         id="path9326-4"
         sodipodi:nodetypes="cssc" /><path
         inkscape:connector-curvature="0"
         id="path834-9"
         d="m 145.19796,102.7213 c 0.45986,-1.16013 1.24783,-2.922277 1.63392,-3.653954 1.18793,-2.251281 2.69901,-4.160365 3.74129,-4.726724 l 0.15121,-0.08217 0.5865,0.918246 c 0.95434,1.494139 1.25703,2.121657 1.34737,2.793308 0.0399,0.296883 0.0247,0.420899 -0.12671,1.028889 -0.12635,0.507543 -0.21469,0.762451 -0.33231,0.958921 -0.0888,0.148344 -0.20209,0.435224 -0.25418,0.643704 -0.0516,0.20688 -0.1625,0.5591 -0.24626,0.78277 -0.1719,0.45904 -0.23243,0.53663 -1.37941,1.76816 -1.17804,1.26489 -1.62976,1.5745 -2.33757,1.60218 -0.29578,0.0116 -0.54755,-0.0535 -1.41494,-0.36569 -0.27137,-0.0977 -0.37771,-0.10294 -1.00321,-0.0499 -0.88273,0.0748 -0.87791,0.079 -0.69964,-0.60624 0.0703,-0.27046 0.22063,-0.72561 0.33394,-1.01147 z"
         style="display:inline;fill:#f1b422;fill-opacity:1;stroke:none;stroke-width:0.0527717" /><path
         sodipodi:nodetypes="cssssssccsccscccccc"
         inkscape:connector-curvature="0"
         id="path838-7"
         d="m 131.02873,97.918511 c 0.99584,-3.337864 2.0546,-6.001566 3.18102,-8.003009 1.02002,-1.812386 2.52416,-3.99494 4.34388,-6.303095 0.54775,-0.694774 2.87373,-3.442369 2.95608,-3.491908 0.0304,-0.01828 1.3468,0.960152 1.88611,1.401914 1.11292,0.911616 2.89084,3.228954 4.41298,5.751889 0.95523,1.583291 1.39591,2.575512 2.41869,5.445912 0.35885,1.007091 0.49277,1.457106 0.47949,1.611144 -0.0169,0.196102 -0.069,0.268437 -0.63105,0.876238 -1.46141,1.580407 -2.80135,3.252757 -3.17831,3.966784 -0.4061,0.769202 -1.17477,2.72719 -1.73098,4.40921 -0.1325,0.40072 -0.25581,0.75247 -0.27401,0.78166 -0.0586,0.0941 -4.18184,0.709 -5.81822,0.8677 -2.02079,0.19599 -3.95914,0.17076 -5.8641,-0.0763 -0.82448,-0.10694 -3.02179,-0.79339 -3.45,-0.97763 l -0.22592,-0.0972 0.0427,-0.4223 c 0.1451,-0.76996 1.12639,-4.650935 1.45159,-5.740954 z"
         style="display:inline;fill:#fbedcd;fill-opacity:1;stroke:none;stroke-width:0.0527717" /><path
         style="fill:#1b1b1b;fill-opacity:1;stroke-width:0.0999999"
         d="m 137.52935,90.651875 c 0,0 6.8683,-1.518258 7.37439,-1.590555 0.50609,-0.0723 0.72298,0.289192 -1.37366,0.795279 -2.09664,0.506084 -5.92843,1.445958 -6.00073,0.795276 z"
         id="path10384" /><path
         style="display:inline;fill:#1b1b1b;fill-opacity:1;stroke-width:0.0999999"
         d="m 132.73198,99.438311 c 0,0 6.86831,-1.518258 7.37439,-1.590556 0.50609,-0.0723 0.72298,0.289193 -1.37366,0.79528 -2.09664,0.506085 -5.92843,1.445955 -6.00073,0.795276 z"
         id="path10384-4" /><path
         style="display:inline;fill:#1b1b1b;fill-opacity:1;stroke-width:0.0999999"
         d="m 142.73659,92.926148 c 0,0 -2.47995,-6.582447 -2.62351,-7.0731 -0.14356,-0.490654 0.18339,-0.756767 0.98261,1.246548 0.79922,2.003315 2.27468,5.662412 1.6409,5.826552 z"
         id="path10384-8" /><path
         style="display:inline;fill:#1b1b1b;fill-opacity:1;stroke-width:0.0999999"
         d="m 137.91293,102.60555 c 0,0 -2.47995,-6.582444 -2.62351,-7.073098 -0.14356,-0.490653 0.18339,-0.756766 0.98261,1.246548 0.79922,2.003316 2.27468,5.66241 1.6409,5.82655 z"
         id="path10384-8-7" /><path
         style="fill:#fbedcd;fill-opacity:1;stroke-width:0.0999999"
         d="m 139.61872,79.192831 c 0,0 -4.48247,3.036514 -5.35005,4.120986 -0.86757,1.084469 -2.38583,1.229063 -2.31353,0.216892 0.0723,-1.012172 1.80745,-5.060858 3.03651,-5.711539 1.22907,-0.650679 3.32571,-1.084469 4.62707,1.373661 z"
         id="path11119" /><path
         style="fill:#fef7ce;fill-opacity:1;stroke:none;stroke-width:0.989997;stroke-dasharray:none;stroke-opacity:1;paint-order:stroke fill markers"
         d="m 118.19493,87.751554 c -0.20449,-0.02556 -0.48566,0.332295 -0.40898,0.715714 0.0767,0.383418 0.63903,1.405866 0.7924,1.789284 0.15336,0.383416 0.48566,0.690153 0.56234,0.383416 0.0767,-0.306734 0.23005,-0.971325 -0.0511,-1.789282 -0.28117,-0.817957 -0.48566,-0.996886 -0.89464,-1.099132 z"
         id="path16010" /><path
         style="fill:none;fill-opacity:1;stroke:#fef7ce;stroke-width:0.09;stroke-dasharray:none;stroke-opacity:1;paint-order:stroke fill markers"
         d="m 118.97766,91.483483 0.50608,5.060858"
         id="path16738" /><path
         style="fill:none;fill-opacity:1;stroke:#fef7ce;stroke-width:0.09;stroke-dasharray:none;stroke-opacity:1;paint-order:stroke fill markers"
         d="m 119.33914,91.013549 1.55441,7.157495"
         id="path16794" /><path
         style="fill:none;fill-opacity:1;stroke:#fef7ce;stroke-width:0.09;stroke-dasharray:none;stroke-opacity:1;paint-order:stroke fill markers"
         d="m 119.51989,90.25442 1.12062,1.662853"
         id="path16796" /><path
         style="fill:none;fill-opacity:1;stroke:#fef7ce;stroke-width:0.09;stroke-dasharray:none;stroke-opacity:1;paint-order:stroke fill markers"
         d="m 119.37529,89.133801 1.04833,-0.180745"
         id="path16798" /><path
         style="fill:none;fill-opacity:1;stroke:#fef7ce;stroke-width:0.09;stroke-dasharray:none;stroke-opacity:1;paint-order:stroke fill markers"
         d="m 119.04995,88.374671 0.75913,-1.229063"
         id="path16800" /><path
         style="fill:none;fill-opacity:1;stroke:#fef7ce;stroke-width:0.09;stroke-dasharray:none;stroke-opacity:1;paint-order:stroke fill markers"
         d="m 118.43542,87.579395 0.18075,-3.867941"
         id="path16802" /><path
         style="fill:none;fill-opacity:1;stroke:#fef7ce;stroke-width:0.09;stroke-dasharray:none;stroke-opacity:1;paint-order:stroke fill markers"
         d="m 118.03779,87.3625 -1.87975,-7.193645"
         id="path16804" /><path
         style="fill:none;fill-opacity:1;stroke:#fef7ce;stroke-width:0.09;stroke-dasharray:none;stroke-opacity:1;paint-order:stroke fill markers"
         d="m 114.27829,79.843513 3.4703,7.699732"
         id="path16806" /><path
         style="fill:none;fill-opacity:1;stroke:#fef7ce;stroke-width:0.09;stroke-dasharray:none;stroke-opacity:1;paint-order:stroke fill markers"
         d="m 115.47121,85.808094 1.98819,2.09664"
         id="path16808" /><path
         style="fill:none;fill-opacity:1;stroke:#fef7ce;stroke-width:0.09;stroke-dasharray:none;stroke-opacity:1;paint-order:stroke fill markers"
         d="m 116.37493,88.266227 1.26521,0.542234"
         id="path16810" /><path
         style="fill:none;fill-opacity:1;stroke:#fef7ce;stroke-width:0.09;stroke-dasharray:none;stroke-opacity:1;paint-order:stroke fill markers"
         d="m 116.98946,90.145972 0.97602,-0.578384"
         id="path16812" /><path
         style="fill:none;fill-opacity:1;stroke:#fef7ce;stroke-width:0.09;stroke-dasharray:none;stroke-opacity:1;paint-order:stroke fill markers"
         d="m 118.36313,90.507462 -0.54224,1.662853"
         id="path16814" /></g></g></svg>
